<?xml version="1.0" encoding="utf-8"?>
<svg viewBox="600 0 200 200" xmlns="http://www.w3.org/2000/svg" xmlns:xlink="http://www.w3.org/1999/xlink">
  <defs>
    <linearGradient id="linearGradient16200" gradientUnits="userSpaceOnUse" gradientTransform="matrix(0.16621349,0,0,0.19465989,628.27205,25.46461)" x1="224.16286" y1="330.27112" x2="603.85291" y2="818.84363" xlink:href="#linearGradientBlackPieces"/>
    <linearGradient id="linearGradientBlackPieces">
      <stop style="stop-color:#a08060;stop-opacity:1" offset="0" id="stop5177"/>
      <stop style="stop-color:#000000;stop-opacity:1;" offset="1" id="stop5179"/>
    </linearGradient>
    <linearGradient id="linearGradient16202" gradientUnits="userSpaceOnUse" x1="638.94916" y1="765.56342" x2="760.61444" y2="765.56342" gradientTransform="translate(0,-652.362)" xlink:href="#linearGradientBlackPiecesBorder"/>
    <linearGradient id="linearGradientBlackPiecesBorder">
      <stop style="stop-color:#000000;stop-opacity:1;" offset="0" id="stop4006"/>
      <stop style="stop-color:#000000;stop-opacity:1;" offset="1" id="stop4008"/>
    </linearGradient>
    <linearGradient id="linearGradient16195" gradientUnits="userSpaceOnUse" gradientTransform="matrix(0.22857143,0,0,0.22857143,612.99887,-2.58581)" x1="158.89351" y1="777.17603" x2="380.3736" y2="865.88708" xlink:href="#linearGradientBlackPieces"/>
    <linearGradient id="linearGradient16197" gradientUnits="userSpaceOnUse" x1="646.81274" y1="828.37061" x2="692.35657" y2="828.37061" gradientTransform="translate(0,-652.362)" xlink:href="#linearGradientBlackPiecesBorder"/>
    <linearGradient id="linearGradient16192" gradientUnits="userSpaceOnUse" x1="653.68457" y1="829.35376" x2="672.69208" y2="829.35376" gradientTransform="translate(0,-652.362)" xlink:href="#linearGradientBlackPiecesBorder"/>
    <linearGradient id="linearGradient16189" gradientUnits="userSpaceOnUse" x1="667.30975" y1="768.87933" x2="717.39886" y2="768.87933" gradientTransform="translate(0,-652.362)" xlink:href="#linearGradientBlackPiecesBorder"/>
    <linearGradient id="linearGradient16184" gradientUnits="userSpaceOnUse" gradientTransform="matrix(0.2349088,-0.0222509,0.02074117,0.21897029,589.12197,21.89266)" x1="588.7981" y1="217.56953" x2="848.7243" y2="456.71457" xlink:href="#linearGradientBlackPieces"/>
    <linearGradient id="linearGradient16186" gradientUnits="userSpaceOnUse" x1="696.2522" y1="764.69159" x2="777.38123" y2="764.69159" gradientTransform="translate(0,-652.362)" xlink:href="#linearGradientBlackPiecesBorder"/>
    <linearGradient id="linearGradient16179" gradientUnits="userSpaceOnUse" gradientTransform="matrix(0.22857143,0,0,0.22857143,606.85714,1.8e-4)" x1="164.82167" y1="730.83307" x2="324.81335" y2="842.55597" xlink:href="#linearGradientBlackPieces"/>
    <linearGradient id="linearGradient16181" gradientUnits="userSpaceOnUse" x1="633.10931" y1="812.69128" x2="645.08679" y2="812.69128" gradientTransform="translate(0,-652.362)" xlink:href="#linearGradientBlackPiecesBorder"/>
    <linearGradient id="linearGradient16174" gradientUnits="userSpaceOnUse" gradientTransform="matrix(0.22857143,0,0,0.22857143,606.85714,1.8e-4)" x1="164.82167" y1="730.83307" x2="324.81335" y2="842.55597" xlink:href="#linearGradientBlackPieces"/>
    <linearGradient id="linearGradient16176" gradientUnits="userSpaceOnUse" x1="633.05316" y1="819.85101" x2="645.47211" y2="819.85101" gradientTransform="translate(0,-652.362)" xlink:href="#linearGradientBlackPiecesBorder"/>
    <linearGradient id="linearGradient16169" gradientUnits="userSpaceOnUse" gradientTransform="matrix(0.22857143,0,0,0.22857143,606.85714,1.8e-4)" x1="164.82167" y1="730.83307" x2="324.81335" y2="842.55597" xlink:href="#linearGradientBlackPieces"/>
    <linearGradient id="linearGradient16171" gradientUnits="userSpaceOnUse" x1="635.27271" y1="825.64288" x2="644.61847" y2="825.64288" gradientTransform="translate(0,-652.362)" xlink:href="#linearGradientBlackPiecesBorder"/>
    <linearGradient id="linearGradient16164" gradientUnits="userSpaceOnUse" gradientTransform="matrix(0.22857143,0,0,0.22857143,606.85714,1.8e-4)" x1="164.82167" y1="730.83307" x2="324.81335" y2="842.55597" xlink:href="#linearGradientBlackPieces"/>
    <linearGradient id="linearGradient16166" gradientUnits="userSpaceOnUse" x1="644.05774" y1="820.00983" x2="660.35205" y2="820.00983" gradientTransform="translate(0,-652.362)" xlink:href="#linearGradientBlackPiecesBorder"/>
    <linearGradient id="linearGradient16159" gradientUnits="userSpaceOnUse" gradientTransform="matrix(0.22857143,0,0,0.22857143,606.85714,1.8e-4)" x1="164.82167" y1="730.83307" x2="324.81335" y2="842.55597" xlink:href="#linearGradientBlackPieces"/>
    <linearGradient id="linearGradient16161" gradientUnits="userSpaceOnUse" x1="642.68994" y1="823.18207" x2="658.1192" y2="823.18207" gradientTransform="translate(0,-652.362)" xlink:href="#linearGradientBlackPiecesBorder"/>
    <linearGradient id="linearGradient16154" gradientUnits="userSpaceOnUse" gradientTransform="matrix(0.22857143,0,0,0.22857143,606.85714,1.8e-4)" x1="164.82167" y1="730.83307" x2="324.81335" y2="842.55597" xlink:href="#linearGradientBlackPieces"/>
    <linearGradient id="linearGradient16156" gradientUnits="userSpaceOnUse" x1="643.49298" y1="828.16602" x2="656.23871" y2="828.16602" gradientTransform="translate(0,-652.362)" xlink:href="#linearGradientBlackPiecesBorder"/>
    <linearGradient id="linearGradient16149" gradientUnits="userSpaceOnUse" gradientTransform="matrix(0.22857143,0,0,0.22857143,606.85714,1.8e-4)" x1="164.82167" y1="730.83307" x2="324.81335" y2="842.55597" xlink:href="#linearGradientBlackPieces"/>
    <linearGradient id="linearGradient16151" gradientUnits="userSpaceOnUse" x1="634.34662" y1="806.43097" x2="647.85767" y2="806.43097" gradientTransform="translate(0,-652.362)" xlink:href="#linearGradientBlackPiecesBorder"/>
    <linearGradient id="linearGradient16144" gradientUnits="userSpaceOnUse" gradientTransform="matrix(0.22857143,0,0,0.22857143,606.85714,1.8e-4)" x1="164.82167" y1="730.83307" x2="324.81335" y2="842.55597" xlink:href="#linearGradientBlackPieces"/>
    <linearGradient id="linearGradient16146" gradientUnits="userSpaceOnUse" x1="620.89111" y1="801.65491" x2="636.18115" y2="801.65491" gradientTransform="translate(0,-652.362)" xlink:href="#linearGradientBlackPiecesBorder"/>
    <linearGradient id="linearGradient16139" gradientUnits="userSpaceOnUse" gradientTransform="matrix(0.22857143,0,0,0.22857143,606.85714,1.8e-4)" x1="164.82167" y1="730.83307" x2="324.81335" y2="842.55597" xlink:href="#linearGradientBlackPieces"/>
    <linearGradient id="linearGradient16141" gradientUnits="userSpaceOnUse" x1="645.40851" y1="814.61499" x2="660.90442" y2="814.61499" gradientTransform="translate(0,-652.362)" xlink:href="#linearGradientBlackPiecesBorder"/>
    <linearGradient id="linearGradient16134" gradientUnits="userSpaceOnUse" gradientTransform="matrix(0.22857143,0,0,0.22857143,606.85714,1.8e-4)" x1="164.82167" y1="730.83307" x2="324.81335" y2="842.55597" xlink:href="#linearGradientBlackPieces"/>
    <linearGradient id="linearGradient16136" gradientUnits="userSpaceOnUse" x1="657.91669" y1="826.08704" x2="664.66443" y2="826.08704" gradientTransform="translate(0,-652.362)" xlink:href="#linearGradientBlackPiecesBorder"/>
    <linearGradient id="linearGradient16129" gradientUnits="userSpaceOnUse" gradientTransform="matrix(0.22857143,0,0,0.22857143,606.85714,1.8e-4)" x1="164.82167" y1="730.83307" x2="324.81335" y2="842.55597" xlink:href="#linearGradientBlackPieces"/>
    <linearGradient id="linearGradient16131" gradientUnits="userSpaceOnUse" x1="654.81549" y1="830.73816" x2="662.13086" y2="830.73816" gradientTransform="translate(0,-652.362)" xlink:href="#linearGradientBlackPiecesBorder"/>
    <linearGradient id="linearGradient16124" gradientUnits="userSpaceOnUse" gradientTransform="matrix(0.22857143,0,0,0.22857143,606.85714,1.8e-4)" x1="164.82167" y1="730.83307" x2="324.81335" y2="842.55597" xlink:href="#linearGradientBlackPieces"/>
    <linearGradient id="linearGradient16126" gradientUnits="userSpaceOnUse" x1="660.17297" y1="832.20099" x2="668.17023" y2="832.20099" gradientTransform="translate(0,-652.362)" xlink:href="#linearGradientBlackPiecesBorder"/>
  </defs>
  <g id="BlackBishop">
    <rect y="0.00018261719" x="600" height="200" width="200" id="rect4651-6" style="fill:none;stroke:none"/>
    <path id="path4300" d="m 674.71354,63.83693 c -12.77326,15.42725 -21.90477,47.67484 -6.32406,75.24164 12.89327,22.81193 -29.3334,28.96604 -27.55711,44.37952 24.74833,-0.0476 93.80866,-0.63052 117.91538,0.21213 1.46084,-14.42929 -39.65165,-13.95421 -26.77986,-48.31532 8.45325,-22.56586 10.96916,-69.25335 -4.9956,-85.00509 -10.46733,-10.32766 -29.67181,-13.79285 -52.25875,13.48712 z" style="fill:url(#linearGradient16200);fill-opacity:1;fill-rule:evenodd;stroke:url(#linearGradient16202);stroke-width:3.65714288;stroke-linecap:butt;stroke-linejoin:miter;stroke-miterlimit:4;stroke-opacity:1;stroke-dasharray:none"/>
    <path id="path2465" d="m 649.34173,192.15705 c -3.1901,-5.28174 5.24386,-29.51883 10.66827,-32.98289 4.92746,-3.14671 29.89762,30.88328 30.51798,33.87409 l -41.18625,-0.8912 z" style="fill:url(#linearGradient16195);fill-opacity:1;fill-rule:evenodd;stroke:url(#linearGradient16197);stroke-width:3.65714288;stroke-linecap:round;stroke-linejoin:round;stroke-miterlimit:4;stroke-opacity:1;stroke-dasharray:none"/>
    <path id="path2479" d="m 653.68459,187.81419 c 0.0447,0.89674 0.18384,-7.53345 1.21806,-10.12382 1.25671,-3.42067 2.51536,-9.08268 4.79737,-11.90756 0.81398,-0.96052 2.84456,1.92734 3.73709,2.5497 1.88741,1.24768 8.0548,16.08309 9.07687,18.52905 0.72821,1.42693 -0.94705,1.66937 -1.95332,1.47447 -1.83868,-0.0253 -16.22484,0.13927 -16.87607,-0.52184 z" style="fill:url(#linearGradient16192);fill-opacity:1;fill-rule:evenodd;stroke:none"/>
    <path id="path4296" d="m 681.68651,76.43314 c -2.65715,0.0546 -5.1027,0.84341 -7.08475,2.65773 -5.36237,4.90858 -12.53117,34.63622 -1.51007,53.71134 3.89323,6.73833 9.59001,19.95846 24.38175,23.79968 6.48032,-12.87412 7.34723,-10.48587 15.57248,-24.79338 10.30904,-17.93219 -0.0539,-34.5536 -6.80196,-42.47398 -4.20734,-4.93826 -15.44546,-12.96705 -24.36761,-12.90139 -0.064,4.7e-4 -0.12607,-10e-4 -0.18984,0 z m 19.60877,24.89016 c 0.01,0.008 10.53854,2.34291 1.46019,5.26519 -3.22035,1.03661 -7.86703,0.64697 -7.11889,-1.65986 1.02226,-3.15207 5.64862,-3.6128 5.6587,-3.60533 z M 681.543,101.18279 c 3.48107,2.08864 7.91279,3.90628 3.97441,4.89087 -4.25858,1.06464 -6.16141,1.39852 -8.63453,-1.00082 -2.75625,-2.674 -0.54283,-2.12818 4.66012,-3.89005 z" style="fill:url(#linearGradient16189);fill-opacity:1;fill-rule:evenodd;stroke:none"/>
    <path id="path5193" d="m 704.17792,196.18869 -6.09713,-0.67227 67.54748,-143.25086 c 0,0 -6.32091,-8.69659 -18.7416,-13.84722 -8.33752,-3.45741 -25.29633,-6.14344 -25.29633,-6.14344 0.71297,-4.77403 24.66955,-5.30189 38.65346,-0.17075 12.47849,4.57877 16.0878,11.24596 15.17481,17.35936 l -71.24069,146.72518 z" style="fill:url(#linearGradient16184);fill-opacity:1;fill-rule:evenodd;stroke:url(#linearGradient16186);stroke-width:3.65714288;stroke-linecap:butt;stroke-linejoin:miter;stroke-miterlimit:4;stroke-opacity:1;stroke-dasharray:none"/>
    <path id="path2240" d="m 644.01991,159.40422 c -2.30196,-0.77195 -6.60341,-2.71482 -8.13701,-2.10138 -1.93844,0.77537 -1.93608,3.50774 -1.40066,4.04315 1.3131,1.31311 4.87434,2.12761 7.2744,2.12761 3.14052,0 1.67168,-4.1877 0.37722,-4.44659" style="fill:url(#linearGradient16179);fill-opacity:1;fill-rule:evenodd;stroke:url(#linearGradient16181);stroke-width:2.13382673;stroke-linecap:round;stroke-linejoin:round;stroke-miterlimit:4;stroke-opacity:1;stroke-dasharray:none"/>
    <path id="path2242" d="m 643.71141,167.01714 c 2.9152,0 -4.07412,-1.67846 -7.68163,-2.70918 -3.29082,-0.94023 -1.54159,2.87517 -0.53858,4.59347 0.62498,1.07067 7.01831,1.48719 8.22021,1.88782 0.76379,0.2546 -0.93955,-1.31676 -1.50885,-1.88606 -0.56929,-0.56929 1.0059,-1.25736 1.50885,-1.88605 z" style="fill:url(#linearGradient16174);fill-opacity:1;fill-rule:evenodd;stroke:url(#linearGradient16176);stroke-width:2.13382673;stroke-linecap:round;stroke-linejoin:round;stroke-miterlimit:4;stroke-opacity:1;stroke-dasharray:none"/>
    <path id="path2244-9" d="m 643.55155,172.97258 c -0.93569,-0.93569 -3.14562,-1.95001 -4.52654,-2.64047 -1.95561,-0.97781 -2.91039,3.06966 -2.64047,4.14931 0.23396,0.93585 4.6193,1.72084 5.06536,1.83236 2.1619,0.54048 1.85108,-2.33894 2.10165,-3.3412 z" style="fill:url(#linearGradient16169);fill-opacity:1;fill-rule:evenodd;stroke:url(#linearGradient16171);stroke-width:2.13382673;stroke-linecap:round;stroke-linejoin:round;stroke-miterlimit:4;stroke-opacity:1;stroke-dasharray:none"/>
    <path id="path2246" d="m 647.86073,160.22735 c 0.18287,0.0457 2.80617,3.39373 4.0846,4.48076 1.54636,1.31486 3.01249,2.58433 4.03883,4.63701 1.8572,3.71439 6.53381,9.33053 -0.26672,2.53 -1.4319,-1.4319 -5.27392,-2.80384 -6.45527,-4.10356 -1.00325,-1.10378 -2.97513,-3.14725 -3.59999,-3.77211 -1.31653,-1.31653 -0.0739,-3.31761 2.19855,-3.7721 z" style="fill:url(#linearGradient16164);fill-opacity:1;fill-rule:evenodd;stroke:url(#linearGradient16166);stroke-width:2.13382673;stroke-linecap:round;stroke-linejoin:round;stroke-miterlimit:4;stroke-opacity:1;stroke-dasharray:none"/>
    <path id="path2248" d="m 646.39765,166.86089 c -1.63941,-1.6394 4.97518,2.08694 6.61459,3.72635 1.16793,1.16793 3.5151,4.04856 4.03884,4.57229 0.0783,0.0783 -3.61956,-0.0208 -3.92836,-0.1752 -2.33758,-1.16879 -7.03559,-3.16967 -8.61113,-4.35133 -0.35907,-0.2693 -0.77618,-2.56422 -0.7539,-2.58651" style="fill:url(#linearGradient16159);fill-opacity:1;fill-rule:evenodd;stroke:url(#linearGradient16161);stroke-width:2.13382673;stroke-linecap:round;stroke-linejoin:round;stroke-miterlimit:4;stroke-opacity:1;stroke-dasharray:none"/>
    <path id="path2250" d="m 645.21663,177.29336 c -1.61257,-1.20943 0.0145,-4.49343 1.96999,-4.00454 5.0887,1.27217 10.09714,5.07709 7.06491,5.07709 -2.9249,0 -6.6752,0.1073 -9.0349,-1.07255 z" style="fill:url(#linearGradient16154);fill-opacity:1;fill-rule:evenodd;stroke:url(#linearGradient16156);stroke-width:2.13382673;stroke-linecap:round;stroke-linejoin:round;stroke-miterlimit:4;stroke-opacity:1;stroke-dasharray:none"/>
    <path id="path2252" d="m 646.79074,153.01469 c -0.81687,-0.046 -5.67489,-1.88203 -7.38782,-1.97857 -1.2484,-0.0704 -2.60499,0.92696 -3.60617,1.35895 -1.87098,0.8073 3.71547,3.63407 3.74533,3.64335 1.35594,0.42134 2.6965,1.4976 4.12749,0.88015 0.69749,-0.30095 2.6943,-3.27551 3.12117,-3.90388 z" style="fill:url(#linearGradient16149);fill-opacity:1;fill-rule:evenodd;stroke:url(#linearGradient16151);stroke-width:2.13382673;stroke-linecap:round;stroke-linejoin:round;stroke-miterlimit:4;stroke-opacity:1;stroke-dasharray:none"/>
    <path id="path2254" d="m 633.71147,150.62661 c 4.98869,-1.38659 -4.72572,-2.75043 -7.40987,-4.06311 -4.11025,-2.01012 -5.07459,-0.66565 -3.84751,1.8684 0.51381,1.06108 2.18283,1.93905 3.04611,2.49611 1.185,0.76466 3.41438,1.48091 4.82107,1.75516 2.26632,0.44184 2.82329,0.85127 3.3902,-2.05656 z" style="fill:url(#linearGradient16144);fill-opacity:1;fill-rule:evenodd;stroke:url(#linearGradient16146);stroke-width:2.13382673;stroke-linecap:round;stroke-linejoin:round;stroke-miterlimit:4;stroke-opacity:1;stroke-dasharray:none"/>
    <path id="path2256" d="m 648.97127,155.93154 c 3.7e-4,-1.8671 7.48043,8.57879 9.77178,10.2973 2.51727,1.88795 0.42175,4.43855 -3.53193,0.48487 -1.27978,-1.27978 -3.173,-2.77174 -4.85763,-3.7342 -1.35754,-0.77558 -3.00244,-3.60433 -3.79072,-5.18088 -0.59626,-1.19253 2.04244,-0.0368 2.4085,-1.86709 z" style="fill:url(#linearGradient16139);fill-opacity:1;fill-rule:evenodd;stroke:url(#linearGradient16141);stroke-width:2.13382673;stroke-linecap:round;stroke-linejoin:round;stroke-miterlimit:4;stroke-opacity:1;stroke-dasharray:none"/>
    <path id="path2258" d="m 662.67158,171.53959 c -0.64727,-1.29454 1.44746,2.97312 0.80018,4.26766 -0.74792,1.49584 -4.03461,-0.9568 -4.33211,-1.55179 -0.66209,-1.32418 1.04667,-2.80928 0.2588,-2.98259 -1.45731,-0.32057 2.82858,0.17782 3.27313,0.26672 z" style="fill:url(#linearGradient16134);fill-opacity:1;fill-rule:evenodd;stroke:url(#linearGradient16136);stroke-width:2.13382673;stroke-linecap:round;stroke-linejoin:round;stroke-miterlimit:4;stroke-opacity:1;stroke-dasharray:none"/>
    <path id="path2260" d="m 657.91905,176.28418 c 0.1195,-0.11949 5.14249,0.21168 2.24687,2.66729 -2.54392,2.15735 -4.28353,1.98523 -4.28353,-0.14575 0,-0.93107 0.8107,-1.90856 2.03666,-2.52154 z" style="fill:url(#linearGradient16129);fill-opacity:1;fill-rule:evenodd;stroke:url(#linearGradient16131);stroke-width:2.13382673;stroke-linecap:round;stroke-linejoin:round;stroke-miterlimit:4;stroke-opacity:1;stroke-dasharray:none"/>
    <path id="path2262" d="m 664.94322,177.29458 c 0,-1.55274 3.10929,3.33601 1.8671,4.26765 -1.01862,0.76397 -3.85624,1.12343 -5.2374,1.12343 -1.1862,0 1.19554,-2.30452 0.96181,-3.46746 -0.35162,-1.7495 2.35199,-1.86713 2.40849,-1.92362 z" style="fill:url(#linearGradient16124);fill-opacity:1;fill-rule:evenodd;stroke:url(#linearGradient16126);stroke-width:2.13382673;stroke-linecap:round;stroke-linejoin:round;stroke-miterlimit:4;stroke-opacity:1;stroke-dasharray:none"/>
  </g>
</svg>