<?xml version="1.0" encoding="utf-8"?>
<svg viewBox="0 0 200 200" xmlns="http://www.w3.org/2000/svg" xmlns:xlink="http://www.w3.org/1999/xlink">
  <defs>
    <linearGradient id="linearGradient16630" gradientUnits="userSpaceOnUse" gradientTransform="matrix(0.21886972,0,0,0.21886972,1.16977,30.91193)" x1="317.82336" y1="251.51895" x2="716.78424" y2="1040.8939" xlink:href="#linearGradientBlackPieces"/>
    <linearGradient id="linearGradientBlackPieces">
      <stop style="stop-color:#a08060;stop-opacity:1" offset="0" id="stop5177"/>
      <stop style="stop-color:#000000;stop-opacity:1;" offset="1" id="stop5179"/>
    </linearGradient>
    <linearGradient id="linearGradient16632" gradientUnits="userSpaceOnUse" x1="48.36805" y1="775.46729" x2="147.362" y2="775.46729" gradientTransform="translate(0,-652.362)" xlink:href="#linearGradientBlackPiecesBorder"/>
    <linearGradient id="linearGradientBlackPiecesBorder">
      <stop style="stop-color:#000000;stop-opacity:1;" offset="0" id="stop4006"/>
      <stop style="stop-color:#000000;stop-opacity:1;" offset="1" id="stop4008"/>
    </linearGradient>
    <linearGradient id="linearGradient16625" gradientUnits="userSpaceOnUse" gradientTransform="matrix(0.21886972,0,0,0.21886972,1.16977,30.91193)" x1="403.64108" y1="286.73438" x2="535.96454" y2="715.77893" xlink:href="#linearGradientBlackPieces"/>
    <linearGradient id="linearGradient16627" gradientUnits="userSpaceOnUse" x1="51.055473" y1="785.65112" x2="141.33739" y2="785.65112" gradientTransform="translate(0,-652.362)" xlink:href="#linearGradientBlackPiecesBorder"/>
    <linearGradient id="linearGradient16622" gradientUnits="userSpaceOnUse" x1="103.12096" y1="773.41211" x2="127.91366" y2="773.41211" gradientTransform="translate(0,-652.362)" xlink:href="#linearGradientBlackPiecesBorder"/>
    <linearGradient id="linearGradient16619" gradientUnits="userSpaceOnUse" x1="67.429749" y1="772.61719" x2="92.288887" y2="772.61719" gradientTransform="translate(0,-652.362)" xlink:href="#linearGradientBlackPiecesBorder"/>
    <linearGradient id="linearGradient16616" gradientUnits="userSpaceOnUse" x1="91.214981" y1="785.36285" x2="102.7421" y2="785.36285" gradientTransform="translate(0,-652.362)" xlink:href="#linearGradientBlackPiecesBorder"/>
    <linearGradient id="linearGradient16613" gradientUnits="userSpaceOnUse" x1="70.992546" y1="811.80328" x2="123.56433" y2="811.80328" gradientTransform="translate(0,-652.362)" xlink:href="#linearGradientBlackPiecesBorder"/>
    <linearGradient id="linearGradient16608" gradientUnits="userSpaceOnUse" x1="97.813354" y1="817.46808" x2="97.542831" y2="802.82086" gradientTransform="translate(0,-652.362)" xlink:href="#linearGradientBlackPieces"/>
    <linearGradient id="linearGradient16610" gradientUnits="userSpaceOnUse" x1="90.310471" y1="811.10046" x2="97.624428" y2="811.10046" gradientTransform="translate(0,-652.362)" xlink:href="#linearGradientBlackPiecesBorder"/>
    <linearGradient id="linearGradient16603" gradientUnits="userSpaceOnUse" x1="97.813354" y1="817.46808" x2="97.542831" y2="802.82086" gradientTransform="translate(0,-652.362)" xlink:href="#linearGradientBlackPieces"/>
    <linearGradient id="linearGradient16605" gradientUnits="userSpaceOnUse" x1="96.099007" y1="811.02704" x2="104.15182" y2="811.02704" gradientTransform="translate(0,-652.362)" xlink:href="#linearGradientBlackPiecesBorder"/>
    <linearGradient id="linearGradient16598" gradientUnits="userSpaceOnUse" x1="97.813354" y1="817.46808" x2="97.542831" y2="802.82086" gradientTransform="translate(0,-652.362)" xlink:href="#linearGradientBlackPieces"/>
    <linearGradient id="linearGradient16600" gradientUnits="userSpaceOnUse" x1="101.31824" y1="811.30737" x2="109.44228" y2="811.30737" gradientTransform="translate(0,-652.362)" xlink:href="#linearGradientBlackPiecesBorder"/>
    <linearGradient id="linearGradient16593" gradientUnits="userSpaceOnUse" x1="97.813354" y1="817.46808" x2="97.542831" y2="802.82086" gradientTransform="translate(0,-652.362)" xlink:href="#linearGradientBlackPieces"/>
    <linearGradient id="linearGradient16595" gradientUnits="userSpaceOnUse" x1="107.89149" y1="810.79077" x2="113.71567" y2="810.79077" gradientTransform="translate(0,-652.362)" xlink:href="#linearGradientBlackPiecesBorder"/>
    <linearGradient id="linearGradient16588" gradientUnits="userSpaceOnUse" x1="97.813354" y1="817.46808" x2="97.542831" y2="802.82086" gradientTransform="translate(0,-652.362)" xlink:href="#linearGradientBlackPieces"/>
    <linearGradient id="linearGradient16590" gradientUnits="userSpaceOnUse" x1="111.89223" y1="810.47382" x2="117.24081" y2="810.47382" gradientTransform="translate(0,-652.362)" xlink:href="#linearGradientBlackPiecesBorder"/>
    <linearGradient id="linearGradient16583" gradientUnits="userSpaceOnUse" x1="97.813354" y1="817.46808" x2="97.542831" y2="802.82086" gradientTransform="translate(0,-652.362)" xlink:href="#linearGradientBlackPieces"/>
    <linearGradient id="linearGradient16585" gradientUnits="userSpaceOnUse" x1="81.71109" y1="811.32458" x2="88.35408" y2="811.32458" gradientTransform="translate(0,-652.362)" xlink:href="#linearGradientBlackPiecesBorder"/>
    <linearGradient id="linearGradient16578" gradientUnits="userSpaceOnUse" x1="97.813354" y1="817.46808" x2="97.542831" y2="802.82086" gradientTransform="translate(0,-652.362)" xlink:href="#linearGradientBlackPieces"/>
    <linearGradient id="linearGradient16580" gradientUnits="userSpaceOnUse" x1="77.078804" y1="810.85791" x2="82.930519" y2="810.85791" gradientTransform="translate(0,-652.362)" xlink:href="#linearGradientBlackPiecesBorder"/>
    <linearGradient id="linearGradient16573" gradientUnits="userSpaceOnUse" x1="97.813354" y1="817.46808" x2="97.542831" y2="802.82086" gradientTransform="translate(0,-652.362)" xlink:href="#linearGradientBlackPieces"/>
    <linearGradient id="linearGradient16575" gradientUnits="userSpaceOnUse" x1="86.052475" y1="811.08667" x2="92.376343" y2="811.08667" gradientTransform="translate(0,-652.362)" xlink:href="#linearGradientBlackPiecesBorder"/>
    <linearGradient id="linearGradient16568" gradientUnits="userSpaceOnUse" x1="97.813354" y1="817.46808" x2="97.542831" y2="802.82086" gradientTransform="translate(0,-652.362)" xlink:href="#linearGradientBlackPieces"/>
    <linearGradient id="linearGradient16570" gradientUnits="userSpaceOnUse" x1="73.569695" y1="809.95294" x2="79.137154" y2="809.95294" gradientTransform="translate(0,-652.362)" xlink:href="#linearGradientBlackPiecesBorder"/>
    <linearGradient id="linearGradient16563" gradientUnits="userSpaceOnUse" x1="97.813354" y1="817.46808" x2="97.542831" y2="802.82086" gradientTransform="translate(0,-652.362)" xlink:href="#linearGradientBlackPieces"/>
    <linearGradient id="linearGradient16565" gradientUnits="userSpaceOnUse" x1="78.462914" y1="817.44745" x2="83.676331" y2="817.44745" gradientTransform="translate(0,-652.362)" xlink:href="#linearGradientBlackPiecesBorder"/>
    <linearGradient id="linearGradient16558" gradientUnits="userSpaceOnUse" x1="97.813354" y1="817.46808" x2="97.542831" y2="802.82086" gradientTransform="translate(0,-652.362)" xlink:href="#linearGradientBlackPieces"/>
    <linearGradient id="linearGradient16560" gradientUnits="userSpaceOnUse" x1="90.826149" y1="818.85352" x2="96.198097" y2="818.85352" gradientTransform="translate(0,-652.362)" xlink:href="#linearGradientBlackPiecesBorder"/>
    <linearGradient id="linearGradient16553" gradientUnits="userSpaceOnUse" x1="97.813354" y1="817.46808" x2="97.542831" y2="802.82086" gradientTransform="translate(0,-652.362)" xlink:href="#linearGradientBlackPieces"/>
    <linearGradient id="linearGradient16555" gradientUnits="userSpaceOnUse" x1="94.497787" y1="819.11469" x2="99.918884" y2="819.11469" gradientTransform="translate(0,-652.362)" xlink:href="#linearGradientBlackPiecesBorder"/>
    <linearGradient id="linearGradient16548" gradientUnits="userSpaceOnUse" x1="97.813354" y1="817.46808" x2="97.542831" y2="802.82086" gradientTransform="translate(0,-652.362)" xlink:href="#linearGradientBlackPieces"/>
    <linearGradient id="linearGradient16550" gradientUnits="userSpaceOnUse" x1="98.746925" y1="819.18134" x2="104.58971" y2="819.18134" gradientTransform="translate(0,-652.362)" xlink:href="#linearGradientBlackPiecesBorder"/>
    <linearGradient id="linearGradient16543" gradientUnits="userSpaceOnUse" x1="97.813354" y1="817.46808" x2="97.542831" y2="802.82086" gradientTransform="translate(0,-652.362)" xlink:href="#linearGradientBlackPieces"/>
    <linearGradient id="linearGradient16545" gradientUnits="userSpaceOnUse" x1="86.113861" y1="819.38287" x2="92.915047" y2="819.38287" gradientTransform="translate(0,-652.362)" xlink:href="#linearGradientBlackPiecesBorder"/>
    <linearGradient id="linearGradient16538" gradientUnits="userSpaceOnUse" x1="97.813354" y1="817.46808" x2="97.542831" y2="802.82086" gradientTransform="translate(0,-652.362)" xlink:href="#linearGradientBlackPieces"/>
    <linearGradient id="linearGradient16540" gradientUnits="userSpaceOnUse" x1="82.105972" y1="818.7121" x2="87.151558" y2="818.7121" gradientTransform="translate(0,-652.362)" xlink:href="#linearGradientBlackPiecesBorder"/>
    <linearGradient id="linearGradient16533" gradientUnits="userSpaceOnUse" x1="97.813354" y1="817.46808" x2="97.542831" y2="802.82086" gradientTransform="translate(0,-652.362)" xlink:href="#linearGradientBlackPieces"/>
    <linearGradient id="linearGradient16535" gradientUnits="userSpaceOnUse" x1="103.78092" y1="819.22729" x2="110.23132" y2="819.22729" gradientTransform="translate(0,-652.362)" xlink:href="#linearGradientBlackPiecesBorder"/>
    <linearGradient id="linearGradient16528" gradientUnits="userSpaceOnUse" x1="97.813354" y1="817.46808" x2="97.542831" y2="802.82086" gradientTransform="translate(0,-652.362)" xlink:href="#linearGradientBlackPieces"/>
    <linearGradient id="linearGradient16530" gradientUnits="userSpaceOnUse" x1="109.05775" y1="817.92242" x2="114.82501" y2="817.92242" gradientTransform="translate(0,-652.362)" xlink:href="#linearGradientBlackPiecesBorder"/>
    <linearGradient id="linearGradient16525" gradientUnits="userSpaceOnUse" x1="56.282593" y1="731.37836" x2="98.93782" y2="731.37836" gradientTransform="translate(0,-652.362)" xlink:href="#linearGradientBlackPiecesBorder"/>
    <linearGradient id="linearGradient16522" gradientUnits="userSpaceOnUse" x1="96.1549" y1="733.2984" x2="145.4668" y2="733.2984" gradientTransform="translate(0,-652.362)" xlink:href="#linearGradientBlackPiecesBorder"/>
    <linearGradient id="linearGradient16519" gradientUnits="userSpaceOnUse" x1="69.856102" y1="754.6167" x2="94.009399" y2="754.6167" gradientTransform="translate(0,-652.362)" xlink:href="#linearGradientBlackPiecesBorder"/>
    <linearGradient id="linearGradient16516" gradientUnits="userSpaceOnUse" x1="103.56205" y1="754.18781" x2="125.9644" y2="754.18781" gradientTransform="translate(0,-652.362)" xlink:href="#linearGradientBlackPiecesBorder"/>
    <linearGradient id="linearGradient16511" gradientUnits="userSpaceOnUse" gradientTransform="matrix(0.22857143,0,0,0.22857143,2.74286,1.82875)" x1="493.99997" y1="289.00003" x2="659.67157" y2="419.00003" xlink:href="#linearGradientBlackPieces"/>
    <linearGradient id="linearGradient16513" gradientUnits="userSpaceOnUse" x1="99.199997" y1="735.10504" x2="153.06779" y2="735.10504" gradientTransform="translate(0,-652.362)" xlink:href="#linearGradientBlackPiecesBorder"/>
    <linearGradient id="linearGradient16506" gradientUnits="userSpaceOnUse" gradientTransform="matrix(0.22857143,0,0,0.22857143,0,1.8e-4)" x1="399.94489" y1="107.97698" x2="440" y2="376.95392" xlink:href="#linearGradientBlackPieces"/>
    <linearGradient id="linearGradient16508" gradientUnits="userSpaceOnUse" x1="25.127617" y1="707.44263" x2="169.14285" y2="707.44263" gradientTransform="translate(0,-652.362)" xlink:href="#linearGradientBlackPiecesBorder"/>
    <linearGradient id="linearGradient16501" gradientUnits="userSpaceOnUse" gradientTransform="matrix(0.22857143,0,0,0.22857143,0,1.8e-4)" x1="476.83954" y1="271.28894" x2="527.15973" y2="393.89273" xlink:href="#linearGradientBlackPieces"/>
    <linearGradient id="linearGradient16503" gradientUnits="userSpaceOnUse" x1="41.334755" y1="731.93378" x2="152.49365" y2="731.93378" gradientTransform="translate(0,-652.362)" xlink:href="#linearGradientBlackPiecesBorder"/>
    <linearGradient id="linearGradient16496" gradientUnits="userSpaceOnUse" gradientTransform="matrix(0.22857143,0,0,0.22857143,0,1.8e-4)" x1="281.48184" y1="229.23729" x2="481.76227" y2="369.23727" xlink:href="#linearGradientBlackPieces"/>
    <linearGradient id="linearGradient16498" gradientUnits="userSpaceOnUse" x1="41.481567" y1="704.95374" x2="122.85721" y2="704.95374" gradientTransform="translate(0,-652.362)" xlink:href="#linearGradientBlackPiecesBorder"/>
    <linearGradient id="linearGradient16493" gradientUnits="userSpaceOnUse" x1="92.34285" y1="674.87982" x2="101.94285" y2="674.87982" gradientTransform="translate(0,-652.362)" xlink:href="#linearGradientBlackPiecesBorder"/>
    <linearGradient id="linearGradient16490" gradientUnits="userSpaceOnUse" x1="79.976357" y1="694.42743" x2="87.355614" y2="694.42743" gradientTransform="translate(0,-652.362)" xlink:href="#linearGradientBlackPiecesBorder"/>
    <linearGradient id="linearGradient16487" gradientUnits="userSpaceOnUse" x1="102.75062" y1="696.36688" x2="113.71516" y2="696.36688" gradientTransform="translate(0,-652.362)" xlink:href="#linearGradientBlackPiecesBorder"/>
    <linearGradient id="linearGradient16484" gradientUnits="userSpaceOnUse" x1="89.027313" y1="679.69513" x2="104.81105" y2="679.69513" gradientTransform="translate(0,-652.362)" xlink:href="#linearGradientBlackPiecesBorder"/>
  </defs>
  <g id="BlackKing">
    <rect style="fill:none;stroke:none" id="rect7736" width="200" height="200" x="0" y="0.00018261719"/>
    <path style="fill:url(#linearGradient16630);fill-opacity:1;fill-rule:evenodd;stroke:url(#linearGradient16632);stroke-width:3.65714288;stroke-linecap:round;stroke-linejoin:round;stroke-miterlimit:4;stroke-opacity:1;stroke-dasharray:none" d="m 50.19662,99.85596 c 0.18876,-11.30046 5.24297,-21.92754 13.17401,-29.65209 6.14524,-5.98524 13.07699,-10.09315 21.2055,-12.54932 7.495,-2.26473 17.59164,-2.10506 25.05486,0.0479 9.08237,2.62007 15.93386,6.15329 23.15118,12.24668 10.94209,9.23812 14.8218,26.44243 11.71698,32.29253 -1.24826,6.21866 -8.75294,27.35239 -11.6798,36.6881 -2.4205,5.772 -2.17943,12.32283 -2.51637,18.48897 0.8674,7.05234 -2.27221,13.77884 -5.92049,19.57191 -3.80413,4.071 -9.0867,5.78314 -12.44105,10.14069 -4.60592,5.98344 -10.59165,0.38884 -15.12851,1.43369 -5.75654,-0.93503 -11.74979,5.22272 -15.5132,-1.7372 -3.68267,-6.81061 -12.67224,-9.91028 -17.19717,-16.33 -4.55286,-3.16194 -2.95138,-9.47312 -3.16424,-14.23404 0.55428,-8.50335 0.132,-17.31473 -3.63023,-25.11607 -0.36847,-1.07926 -5.7463,-21.82853 -7.11147,-31.29176 z" id="path7738"/>
    <path style="fill:url(#linearGradient16625);fill-opacity:1;fill-rule:evenodd;stroke:url(#linearGradient16627);stroke-width:3.65714288;stroke-linecap:round;stroke-linejoin:round;stroke-miterlimit:4;stroke-opacity:1;stroke-dasharray:none" d="m 64.00411,102.89189 c -1.12461,5.96635 0.38673,13.49533 -6.07811,16.98663 -4.33837,4.03265 -7.56308,13.80424 -2.34899,19.58954 8.85795,4.2399 15.63519,2.04536 17.63548,13.63138 0.96791,10.36136 11.2999,10.99739 17.2246,10.40576 6.50283,0.10571 15.64746,0.37901 21.83379,-0.0612 8.54028,-0.3148 5.23618,-17.5817 14.51314,-17.90277 8.97389,-1.10044 13.16499,-9.13957 12.6883,-17.01342 -2.62296,-6.68098 -7.47113,-12.37734 -5.51473,-20.32079" id="path7740"/>
    <path style="fill:url(#linearGradient16622);fill-opacity:1;fill-rule:evenodd;stroke:none" d="m 107.36923,112.7437 c -2.96112,3.60996 -3.49219,4.94952 -4.24827,9.67619 0.0713,3.09089 3.87677,6.99636 6.44872,8.34666 3.6975,2.09452 7.19251,2.06574 11.46638,1.10082 2.34723,-0.45843 5.42677,-2.08796 5.75796,-4.62327 0.59916,-2.98362 1.89982,-12.22389 0.47939,-13.69005 -1.94249,-1.68904 -9.00703,-3.2547 -11.39985,-3.82663 -1.41926,-0.72063 -7.31604,1.79531 -8.50433,3.01628 z" id="path7742"/>
    <path style="fill:url(#linearGradient16619);fill-opacity:1;fill-rule:evenodd;stroke:none" d="m 70.81373,111.30227 c -2.70528,2.79541 -3.78265,4.98959 -3.25326,10.5077 0.3788,3.25544 0.62293,6.81157 3.15646,9.00551 8.61243,1.44686 16.32309,-1.08434 17.71287,-3.75034 2.86391,-3.47171 3.73826,-5.8181 3.85909,-10.13967 -0.43757,-4.46852 -4.52383,-8.16652 -8.60802,-7.59324 -3.72944,0.45413 -7.01187,-1.07242 -12.86714,1.97004 z" id="path7744"/>
    <path style="fill:url(#linearGradient16616);fill-opacity:1;fill-rule:evenodd;stroke:none" d="m 97.59896,122.93615 c -1.10611,0.36444 -1.99324,3.17624 -2.5068,4.23408 -1.93077,4.71654 -4.8292,12.02474 -3.57046,15.51603 1.48849,0.93164 4.38873,-1.57634 5.4883,-1.19088 1.32583,0.31229 2.93653,1.92939 5.03294,1.56651 1.63847,0.70618 0.13028,-12.5952 -1.77891,-15.54714 -0.85123,-2.21499 -1.27982,-5.035 -2.66507,-4.5786 z" id="path7746"/>
    <path style="fill:none;stroke:url(#linearGradient16613);stroke-width:3.65714288;stroke-linecap:butt;stroke-linejoin:round;stroke-miterlimit:4;stroke-opacity:1;stroke-dasharray:none" d="m 72.82112,149.99336 c 2.61052,6.74233 -0.37428,14.3917 5.47178,16.96321 6.21567,1.85846 12.04955,2.63783 18.50795,2.47839 8.16021,-1.55056 15.83563,1.72631 20.83939,-5.07652 1.87386,-4.19382 0.94765,-11.43589 4.09552,-14.93103" id="path7748"/>
    <path style="fill:url(#linearGradient16608);fill-opacity:1;fill-rule:evenodd;stroke:url(#linearGradient16610);stroke-width:1.82857144;stroke-linecap:butt;stroke-linejoin:round;stroke-miterlimit:4;stroke-opacity:1;stroke-dasharray:none" d="m 94.18946,154.25018 c -0.37103,0.38752 -1.62403,1.27824 -2.1887,2.40757 -0.42188,0.84376 -0.474,3.2092 -0.6566,3.93965 -0.38928,1.55707 0.20574,2.07271 1.31321,2.62644 1.00639,0.50319 2.13876,0.13441 2.84531,-0.21887 0.98689,-0.49345 0.85035,-1.43156 1.09435,-2.40757 0.2545,-1.01799 0,-2.45376 0,-3.50191 0,-1.34262 -0.12443,-1.87539 -0.87548,-2.62644 -0.63179,-0.63179 -0.008,-0.5236 -1.53209,-0.21887 z" id="path7750"/>
    <path style="fill:url(#linearGradient16603);fill-opacity:1;fill-rule:evenodd;stroke:url(#linearGradient16605);stroke-width:1.82857144;stroke-linecap:butt;stroke-linejoin:round;stroke-miterlimit:4;stroke-opacity:1;stroke-dasharray:none" d="m 98.2335,153.92693 c -0.0127,-0.0127 -0.93889,2.4423 -1.09435,3.06417 -0.24366,0.97463 0.47321,2.04682 0.21887,3.06418 -0.35834,1.43336 -0.63324,1.98152 0.21887,2.40757 1.12642,0.56321 1.72445,0.59527 2.84531,0.87548 1.34163,0.33541 2.17449,-0.71064 2.62643,-1.31322 0.56585,-0.75446 -0.3074,-2.54284 -0.43774,-3.06418 -0.29725,-1.18899 -0.75428,-1.9463 -1.31322,-3.06417 -0.32017,-0.64035 -1.47346,-1.15983 -1.96983,-1.5321 -0.3143,-0.23573 -0.72956,-0.29182 -1.09434,-0.43773 z" id="path7752"/>
    <path style="fill:url(#linearGradient16598);fill-opacity:1;fill-rule:evenodd;stroke:url(#linearGradient16600);stroke-width:1.82857144;stroke-linecap:butt;stroke-linejoin:round;stroke-miterlimit:4;stroke-opacity:1;stroke-dasharray:none" d="m 102.72539,155.4489 c -1.10895,-0.8317 0,2.77235 0,4.15853 0,1.04552 0.0403,2.34987 0.21887,3.06418 0.15901,0.63608 2.17398,0.54349 2.62643,0.65661 1.39587,0.34897 2.34377,-0.529 2.84531,-1.53209 0.46243,-0.92487 -0.65661,-2.25085 -0.65661,-3.28305 0,-1.70755 -0.69665,-2.67982 -1.31322,-3.50192 -0.87206,-1.16275 -3.02761,-0.11679 -3.72078,0.43774 z" id="path7754"/>
    <path style="fill:url(#linearGradient16593);fill-opacity:1;fill-rule:evenodd;stroke:url(#linearGradient16595);stroke-width:1.82857144;stroke-linecap:butt;stroke-linejoin:round;stroke-miterlimit:4;stroke-opacity:1;stroke-dasharray:none" d="m 109.29148,154.79229 c -0.005,-0.007 -0.43774,2.9757 -0.43774,3.93966 0,1.26579 -0.20067,2.00623 0.21887,2.84531 0.24519,0.49039 2.31342,0.59424 2.62644,0.43774 1.26761,-0.63381 1.09435,-3.00112 1.09435,-4.3774 0,-0.90738 -1.2345,-2.36821 -1.75096,-2.62644 -0.65421,-0.3271 -0.76946,-0.21887 -1.75096,-0.21887 z" id="path7756"/>
    <path style="fill:url(#linearGradient16588);fill-opacity:1;fill-rule:evenodd;stroke:url(#linearGradient16590);stroke-width:1.82857144;stroke-linecap:butt;stroke-linejoin:round;stroke-miterlimit:4;stroke-opacity:1;stroke-dasharray:none" d="m 113.45001,154.35455 c -1.30672,-0.65336 -0.21887,2.91645 -0.21887,4.3774 0,1.45842 -0.69263,1.84885 0.21887,3.06418 0.67542,0.90057 1.82262,-0.80188 2.40756,-1.09435 0.64316,-0.32158 0.43775,-2.37616 0.43775,-3.06418 0,-1.12884 -0.47296,-2.25911 -0.87548,-3.06417 -0.3476,-0.69519 -1.5332,-0.3062 -1.96983,-0.21888 z" id="path7758"/>
    <path style="fill:url(#linearGradient16583);fill-opacity:1;fill-rule:evenodd;stroke:url(#linearGradient16585);stroke-width:1.82857144;stroke-linecap:butt;stroke-linejoin:round;stroke-miterlimit:4;stroke-opacity:1;stroke-dasharray:none" d="m 86.52901,155.01116 c 0.005,-0.0103 0.43775,2.74011 0.43775,3.72079 0,0.72714 0.2512,2.13152 0.43774,3.06418 0.27499,1.37499 -1.11378,1.09435 -2.1887,1.09435 -1.18288,0 -1.82613,-0.9757 -2.40757,-1.75096 -0.45456,-0.60609 0.0624,-3.09501 0.21887,-3.72078 0.26746,-1.06983 1.30479,-1.63732 1.96983,-1.96984 0.66704,-0.33352 0.33994,-0.19931 1.53208,-0.43774 z" id="path7760"/>
    <path style="fill:url(#linearGradient16578);fill-opacity:1;fill-rule:evenodd;stroke:url(#linearGradient16580);stroke-width:1.82857144;stroke-linecap:butt;stroke-linejoin:round;stroke-miterlimit:4;stroke-opacity:1;stroke-dasharray:none" d="m 81.71388,156.10551 c 0.6803,-0.34014 0,2.4463 0,3.28305 0,1.28608 0.56615,1.49414 0,2.62644 -0.45368,0.90736 -2.66305,-0.34661 -2.84531,-0.43774 -0.88294,-0.44147 -0.87548,-1.82981 -0.87548,-2.84531 0,-1.07569 0.90523,-2.30767 1.09435,-3.06417 0.54382,-2.1753 2.03383,-0.30303 2.62644,0.43773 z" id="path7762"/>
    <path style="fill:url(#linearGradient16573);fill-opacity:1;fill-rule:evenodd;stroke:url(#linearGradient16575);stroke-width:1.82857144;stroke-linecap:butt;stroke-linejoin:round;stroke-miterlimit:4;stroke-opacity:1;stroke-dasharray:none" d="m 86.96676,156.76212 c 0.67061,-1.07116 0.64562,-1.80293 2.1887,-2.18869 0.10363,-0.0259 1.9092,1.94621 1.96982,2.18869 0.25681,1.02723 -0.0674,2.57568 0.21888,3.72079 0.38298,1.53196 -0.19642,1.9095 -1.31323,2.1887 -1.55186,0.38796 -1.83358,0.32609 -2.18869,-1.09435 -0.21664,-0.86654 -0.49573,-2.20178 -0.65661,-2.84531 -0.15899,-0.63596 -0.21887,-1.2953 -0.21887,-1.96983 z" id="path7764"/>
    <path style="fill:url(#linearGradient16568);fill-opacity:1;fill-rule:evenodd;stroke:url(#linearGradient16570);stroke-width:1.82857144;stroke-linecap:butt;stroke-linejoin:round;stroke-miterlimit:4;stroke-opacity:1;stroke-dasharray:none" d="m 77.99309,155.23003 c 0.30374,0.78747 0.21887,3.26654 0.21887,4.81514 0,1.69667 -0.69128,1.53209 -2.18869,1.53209 -1.19592,0 -1.5321,-0.97515 -1.5321,-2.1887 0,-1.47343 -0.12386,-2.15984 0.65662,-3.72078 0.51911,-1.03823 0.94608,-1.38383 1.53208,-1.96983 0.47562,-0.47562 1.06342,0.90756 1.31322,1.53208 z" id="path7766"/>
    <path style="fill:url(#linearGradient16563);fill-opacity:1;fill-rule:evenodd;stroke:url(#linearGradient16565);stroke-width:1.82857144;stroke-linecap:butt;stroke-linejoin:round;stroke-miterlimit:4;stroke-opacity:1;stroke-dasharray:none" d="m 79.74405,163.54709 c -0.82541,-0.82541 0,2.33461 0,3.50192 0,1.32833 0.42718,1.53208 1.75096,1.53208 0.37769,0 0.98778,-2.63788 1.09435,-3.06417 0.25888,-1.03553 0.19972,-2.2653 0,-3.06418 -0.55744,-2.22976 -2.60614,0.49643 -2.84531,1.09435 z" id="path7768"/>
    <path style="fill:url(#linearGradient16558);fill-opacity:1;fill-rule:evenodd;stroke:url(#linearGradient16560);stroke-width:1.82857144;stroke-linecap:butt;stroke-linejoin:round;stroke-miterlimit:4;stroke-opacity:1;stroke-dasharray:none" d="m 95.28381,170.11318 c -0.18849,-0.75397 -0.31212,-2.99945 -0.65661,-4.37739 -0.32807,-1.31228 -0.58446,-1.67881 -1.53209,-2.62644 -1.17164,-1.17164 -1.25193,2.31998 -1.31322,2.62644 -0.23898,1.19494 0.62231,1.83261 0.87548,2.8453 0.31033,1.2413 1.04225,1.53209 2.62644,1.53209 z" id="path7770"/>
    <path style="fill:url(#linearGradient16553);fill-opacity:1;fill-rule:evenodd;stroke:url(#linearGradient16555);stroke-width:1.82857144;stroke-linecap:butt;stroke-linejoin:round;stroke-miterlimit:4;stroke-opacity:1;stroke-dasharray:none" d="m 95.72155,170.11318 c 0.35433,1.41734 -0.21887,-2.91644 -0.21887,-4.37739 0,-1.40179 -0.38673,-1.5831 0.43774,-2.40757 0.8815,-0.8815 2.23415,1.18525 2.40757,1.53209 0.47658,0.95317 0.65661,1.35588 0.65661,2.84531 0,1.34922 -1.01677,1.49329 -1.96983,1.96982 -1.28512,0.64256 2.77827,-0.38056 -1.31322,0.43774 z" id="path7772"/>
    <path style="fill:url(#linearGradient16548);fill-opacity:1;fill-rule:evenodd;stroke:url(#linearGradient16550);stroke-width:1.82857144;stroke-linecap:butt;stroke-linejoin:round;stroke-miterlimit:4;stroke-opacity:1;stroke-dasharray:none" d="m 99.88008,170.11318 c -0.18025,0.0901 -0.21887,-3.22934 -0.21887,-4.15852 0,-1.36796 0.54471,-1.42019 1.31322,-2.1887 1.00699,-1.007 2.16769,1.43113 2.40757,1.75096 0.58435,0.77914 0.13891,2.50852 0,3.06417 -0.10846,0.43383 -2.96976,1.31923 -3.50192,1.53209 z" id="path7774"/>
    <path style="fill:url(#linearGradient16543);fill-opacity:1;fill-rule:evenodd;stroke:url(#linearGradient16545);stroke-width:1.82857144;stroke-linecap:butt;stroke-linejoin:round;stroke-miterlimit:4;stroke-opacity:1;stroke-dasharray:none" d="m 92.00076,169.67544 c -0.30236,1.20946 -0.56521,-2.50457 -1.31321,-3.50191 -1.04382,-1.39176 -0.43268,-1.85786 -1.96984,-2.62644 -0.87996,-0.43998 -1.24192,1.82724 -1.53208,2.40757 -0.58801,1.17601 0.62612,2.17345 1.09435,2.40757 0.86719,0.43359 1.08378,1.19849 2.1887,1.75095 0.50992,0.25497 0.74733,0.29627 1.31321,0.43774" id="path7776"/>
    <path style="fill:url(#linearGradient16538);fill-opacity:1;fill-rule:evenodd;stroke:url(#linearGradient16540);stroke-width:1.82857144;stroke-linecap:butt;stroke-linejoin:round;stroke-miterlimit:4;stroke-opacity:1;stroke-dasharray:none" d="m 86.09128,168.79997 c 0.32848,0.16424 0,-3.26061 0,-4.15853 0,-1.70318 -0.15149,-1.31322 -1.96983,-1.31322 -1.25671,0 -1.09435,2.12692 -1.09435,3.28305 0,1.52734 0.0734,1.8971 1.09435,2.40757 0.92781,0.4639 0.80708,0.65318 1.96983,-0.21887 z" id="path7778"/>
    <path style="fill:url(#linearGradient16533);fill-opacity:1;fill-rule:evenodd;stroke:url(#linearGradient16535);stroke-width:1.82857144;stroke-linecap:butt;stroke-linejoin:round;stroke-miterlimit:4;stroke-opacity:1;stroke-dasharray:none" d="m 104.69521,169.45657 c 1.19078,0.5954 0.0612,-2.74888 0.65661,-3.93965 0.49117,-0.98234 1.89526,-1.31322 2.84531,-1.31322 1.38584,0 1.09435,1.17705 1.09435,2.40757 0,0.79458 -1.20425,1.64198 -1.75096,2.1887 -0.56969,0.56968 -1.95018,0.6566 -2.84531,0.6566 z" id="path7780"/>
    <path style="fill:url(#linearGradient16528);fill-opacity:1;fill-rule:evenodd;stroke:url(#linearGradient16530);stroke-width:1.82857144;stroke-linecap:butt;stroke-linejoin:round;stroke-miterlimit:4;stroke-opacity:1;stroke-dasharray:none" d="m 110.16696,168.14336 c -0.51598,0.51597 0.0934,-2.12472 0.65661,-4.3774 0.29551,-1.18206 1.61383,-0.85504 2.40757,-0.65661 1.23099,0.30775 0.46128,2.36048 0.21887,2.84531 -0.62313,1.24626 -1.88768,2.1887 -3.28305,2.1887 z" id="path7782"/>
    <path style="fill:none;stroke:url(#linearGradient16525);stroke-width:1.82857144;stroke-linecap:round;stroke-linejoin:round;stroke-miterlimit:4;stroke-opacity:1;stroke-dasharray:none" d="m 97.397,61.5285 c -0.41271,1.13494 0.61905,1.267 0.61905,3.09529 0,0.83394 -3.2379,4.66722 -2.78576,5.57152 0.65157,1.30312 2.42313,2.42312 2.78576,2.78576 0.24679,0.24678 -5.68363,-0.76927 -6.5001,1.85717 -0.69911,2.24892 -3.12929,-2.00116 -5.3682,-1.44143 -1.53312,0.38328 -4.45315,5.73305 -5.77483,6.39389 -1.91714,0.95857 -3.79036,-2.37548 -4.3334,-0.20332 -0.3806,1.5224 -0.26903,2.62374 -0.61906,4.02388 -0.63508,2.54031 1.01496,-0.94659 -3.09529,-0.26155 -1.87375,0.31229 -2.1667,-0.78128 -2.1667,3.40482 0,0.099 -3.83343,1.95248 -4.3334,2.78575 -0.96946,1.61577 -1.31483,2.12483 -1.85717,4.29421 -0.70823,2.8329 -5.312,1.21069 -6.77102,2.66971" id="path7784"/>
    <path style="fill:none;stroke:url(#linearGradient16522);stroke-width:1.82857144;stroke-linecap:round;stroke-linejoin:round;stroke-miterlimit:4;stroke-opacity:1;stroke-dasharray:none" d="m 97.34927,75.4976 c 1.34129,-1.34129 2.68258,-2.68258 4.02387,-4.02387 1.34129,-1.34129 -2.68258,2.68258 -4.02387,4.02387 -1.44447,1.44447 3.10773,-2.69917 4.3334,-4.33341 1.73318,-2.3109 5.1412,0.687 5.88105,2.16671 0.89719,1.79438 2.27028,3.28075 3.09528,2.78576 1.22911,-0.73747 3.20956,-1.23812 4.64293,-1.23812 2.97865,0 4.34001,2.48943 5.57152,4.95246 0.88611,1.77221 3.18551,-1.23811 5.57152,-1.23811 2.44536,0 3.64188,1.21844 3.09528,3.40481 -0.23661,0.94646 3.03279,2.1042 3.71435,2.78576 1.73735,1.73734 -0.66973,3.31477 2.1667,4.02387 2.60749,0.65187 7.51341,2.3427 9.1312,2.74715" id="path7786"/>
    <path style="fill:none;stroke:url(#linearGradient16519);stroke-width:1.82857144;stroke-linecap:round;stroke-linejoin:round;stroke-miterlimit:4;stroke-opacity:1;stroke-dasharray:none" d="m 70.77039,102.4824 c 2.27011,0.11564 7.30726,-1.31322 10.94349,-1.31322 3.80977,0 6.46028,-0.27177 9.63028,1.31322 0.59136,0.29569 1.18298,0.5915 1.75095,0.87549" id="path7788"/>
    <path style="fill:none;stroke:url(#linearGradient16516);stroke-width:1.82857144;stroke-linecap:round;stroke-linejoin:round;stroke-miterlimit:4;stroke-opacity:1;stroke-dasharray:none" d="m 104.47634,103.35789 c 1.57353,-1.29251 4.94821,-3.06418 7.44158,-3.06418 2.77109,0 5.08038,0 7.87931,0 1.75096,0 3.50192,0 5.25288,0" id="path7790"/>
    <path style="fill:url(#linearGradient16511);fill-opacity:1;fill-rule:evenodd;stroke:url(#linearGradient16513);stroke-width:3.65714288;stroke-linecap:round;stroke-linejoin:round;stroke-miterlimit:4;stroke-opacity:1;stroke-dasharray:none" d="m 141.25714,70.17161 c 0,0 -14.85714,4.91429 -25.6,10.05715 -10.74286,5.14285 -14.62857,15.08571 -14.62857,15.08571 12.77284,-6.44504 28.65445,-13.0989 49.82857,-12.34286 1.16636,-5.72212 0.11361,-10.70453 -9.6,-12.8 z" id="path7792"/>
    <path style="fill:url(#linearGradient16506);fill-opacity:1;fill-rule:evenodd;stroke:url(#linearGradient16508);stroke-width:3.65714288;stroke-linecap:round;stroke-linejoin:round;stroke-miterlimit:4;stroke-opacity:1;stroke-dasharray:none" d="M 49.82857,77.94304 C 39.03516,62.83682 26.45757,51.35222 26.97143,27.20019 72.19449,49.37318 126.02166,44.01851 167.31428,25.82876 160.32859,44.932 149.07071,61.07629 136.68571,66.51447 105.21845,90.35012 77.84411,85.98126 49.82857,77.94304 z" id="path7794"/>
    <path style="fill:url(#linearGradient16501);fill-opacity:1;fill-rule:evenodd;stroke:url(#linearGradient16503);stroke-width:3.65714288;stroke-linecap:butt;stroke-linejoin:miter;stroke-miterlimit:4;stroke-opacity:1;stroke-dasharray:none" d="m 45.71428,88.45732 c -2.13023,3.43372 -4.76675,9.4391 0.65557,11.25104 6.00458,3.3132 17.32519,1.06031 23.69207,-0.27808 7.10996,-2.18712 30.61778,-9.87094 35.01592,-14.55582 8.88488,-4.40761 37.13445,-15.127 43.53908,-15.83551 4.74157,-2.87773 0.52261,-12.85472 -5.25044,-11.12532 -4.16004,-0.88372 -44.50834,17.70475 -50.0708,19.58161 -4.54494,1.14974 -22.79607,8.44594 -28.1816,8.23027 -4.79316,-0.0449 -17.61781,2.73481 -19.3998,2.73181 z" id="path7796"/>
    <path style="fill:url(#linearGradient16496);fill-opacity:1;fill-rule:evenodd;stroke:url(#linearGradient16498);stroke-width:3.65714288;stroke-linecap:butt;stroke-linejoin:miter;stroke-miterlimit:4;stroke-opacity:1;stroke-dasharray:none" d="m 100.85992,69.65507 c 2.51194,-4.31477 0.0843,-7.0522 5.12831,-9.64131 5.20221,-2.67032 8.65359,-4.19549 12.05721,-8.66506 2.74546,-3.60529 4.26857,-18.58877 1.56864,-22.12888 -2.77318,-3.63615 -9.87167,-1.06962 -12.47421,-5.40289 -1.41127,-2.34978 -3.1762,-5.72889 -5.67953,-6.59966 -2.32404,-0.80841 -4.89048,-1.03094 -7.2756,-0.76318 -4.38189,0.49191 -4.15541,6.6857 -8.02745,8.1995 -4.29459,1.679 -8.82687,-0.0871 -11.86892,3.62774 -3.52586,4.30561 -2.76778,17.68254 1.55194,21.9923 2.97958,2.9727 7.26759,5.43716 8.95368,9.4429 1.44812,3.44039 2.30358,2.15073 -0.67479,5.98783 -7.30576,9.41217 -27.1264,11.22318 -33.42839,9.64225 -5.36156,-1.34502 -10.20436,9.9566 -5.43367,12.19643 10.52619,4.94204 48.08108,-4.96793 55.60278,-17.88797 z" id="path7798"/>
    <path style="fill:none;stroke:url(#linearGradient16493);stroke-width:3.65714288;stroke-linecap:round;stroke-linejoin:round;stroke-miterlimit:4;stroke-opacity:1;stroke-dasharray:none" d="m 94.17142,22.51784 5.94286,0" id="path7800"/>
    <path style="fill:none;stroke:url(#linearGradient16490);stroke-width:1.82857144;stroke-linecap:round;stroke-linejoin:round;stroke-miterlimit:4;stroke-opacity:1;stroke-dasharray:none" d="m 80.89064,29.78196 c 0.23178,12.99699 1.8812,20.16418 5.55069,24.5669" id="path7802"/>
    <path id="path7804" d="m 112.80087,32.26951 c -2.15852,12.81859 -4.85357,19.66154 -9.13596,23.47078" style="fill:none;stroke:url(#linearGradient16487);stroke-width:1.82857144;stroke-linecap:round;stroke-linejoin:round;stroke-miterlimit:4;stroke-opacity:1;stroke-dasharray:none"/>
    <path id="path7806" d="m 89.9416,26.54947 c 5.86532,2.64269 9.73021,1.28453 13.95516,0.6465" style="fill:none;stroke:url(#linearGradient16484);stroke-width:1.82857144;stroke-linecap:round;stroke-linejoin:round;stroke-miterlimit:4;stroke-opacity:1;stroke-dasharray:none"/>
  </g>
</svg>