<?xml version="1.0" encoding="utf-8"?>
<svg viewBox="1000 0 200 200" xmlns="http://www.w3.org/2000/svg" xmlns:xlink="http://www.w3.org/1999/xlink">
  <defs>
    <linearGradient id="linearGradient16034" gradientUnits="userSpaceOnUse" gradientTransform="matrix(0.17246857,0,0,0.17246857,1025.0368,60.43956)" x1="317.82336" y1="251.51895" x2="716.78424" y2="1040.8939" xlink:href="#linearGradientBlackPieces"/>
    <linearGradient id="linearGradientBlackPieces">
      <stop style="stop-color:#a08060;stop-opacity:1" offset="0" id="stop5177"/>
      <stop style="stop-color:#000000;stop-opacity:1;" offset="1" id="stop5179"/>
    </linearGradient>
    <linearGradient id="linearGradient16036" gradientUnits="userSpaceOnUse" x1="1061.8412" y1="785.44971" x2="1140.6234" y2="785.44971" gradientTransform="translate(0,-652.362)" xlink:href="#linearGradientBlackPiecesBorder"/>
    <linearGradient id="linearGradientBlackPiecesBorder">
      <stop style="stop-color:#000000;stop-opacity:1;" offset="0" id="stop4006"/>
      <stop style="stop-color:#000000;stop-opacity:1;" offset="1" id="stop4008"/>
    </linearGradient>
    <linearGradient id="linearGradient16029" gradientUnits="userSpaceOnUse" gradientTransform="matrix(0.17246857,0,0,0.17246857,1025.0368,60.43956)" x1="403.64108" y1="286.73438" x2="535.96454" y2="715.77893" xlink:href="#linearGradientBlackPieces"/>
    <linearGradient id="linearGradient16031" gradientUnits="userSpaceOnUse" x1="1063.9589" y1="793.47449" x2="1135.876" y2="793.47449" gradientTransform="translate(0,-652.362)" xlink:href="#linearGradientBlackPiecesBorder"/>
    <linearGradient id="linearGradient16026" gradientUnits="userSpaceOnUse" x1="1105.374" y1="783.8302" x2="1124.9105" y2="783.8302" gradientTransform="translate(0,-652.362)" xlink:href="#linearGradientBlackPiecesBorder"/>
    <linearGradient id="linearGradient16023" gradientUnits="userSpaceOnUse" x1="1077.2495" y1="783.2038" x2="1096.8384" y2="783.2038" gradientTransform="translate(0,-652.362)" xlink:href="#linearGradientBlackPiecesBorder"/>
    <linearGradient id="linearGradient16020" gradientUnits="userSpaceOnUse" x1="1095.9921" y1="793.24731" x2="1105.0754" y2="793.24731" gradientTransform="translate(0,-652.362)" xlink:href="#linearGradientBlackPiecesBorder"/>
    <linearGradient id="linearGradient16017" gradientUnits="userSpaceOnUse" x1="1079.6692" y1="814.08228" x2="1121.871" y2="814.08228" gradientTransform="translate(0,-652.362)" xlink:href="#linearGradientBlackPiecesBorder"/>
    <linearGradient id="linearGradient16012" gradientUnits="userSpaceOnUse" x1="1099.0664" y1="814.13776" x2="1099.5216" y2="805.04639" gradientTransform="translate(0,-652.362)" xlink:href="#linearGradientBlackPieces"/>
    <linearGradient id="linearGradient16014" gradientUnits="userSpaceOnUse" x1="1095.0854" y1="813.7832" x2="1101.2366" y2="813.7832" gradientTransform="translate(0,-652.362)" xlink:href="#linearGradientBlackPiecesBorder"/>
    <linearGradient id="linearGradient16007" gradientUnits="userSpaceOnUse" x1="1099.0664" y1="814.13776" x2="1099.5216" y2="805.04639" gradientTransform="translate(0,-652.362)" xlink:href="#linearGradientBlackPieces"/>
    <linearGradient id="linearGradient16009" gradientUnits="userSpaceOnUse" x1="1099.3922" y1="813.98004" x2="1106.1254" y2="813.98004" gradientTransform="translate(0,-652.362)" xlink:href="#linearGradientBlackPiecesBorder"/>
    <linearGradient id="linearGradient16002" gradientUnits="userSpaceOnUse" x1="1099.0664" y1="814.13776" x2="1099.5216" y2="805.04639" gradientTransform="translate(0,-652.362)" xlink:href="#linearGradientBlackPieces"/>
    <linearGradient id="linearGradient16004" gradientUnits="userSpaceOnUse" x1="1103.7596" y1="813.69153" x2="1110.549" y2="813.69153" gradientTransform="translate(0,-652.362)" xlink:href="#linearGradientBlackPiecesBorder"/>
    <linearGradient id="linearGradient15997" gradientUnits="userSpaceOnUse" x1="1099.0664" y1="814.13776" x2="1099.5216" y2="805.04639" gradientTransform="translate(0,-652.362)" xlink:href="#linearGradientBlackPieces"/>
    <linearGradient id="linearGradient15999" gradientUnits="userSpaceOnUse" x1="1108.9393" y1="813.28442" x2="1113.9164" y2="813.28442" gradientTransform="translate(0,-652.362)" xlink:href="#linearGradientBlackPiecesBorder"/>
    <linearGradient id="linearGradient15992" gradientUnits="userSpaceOnUse" x1="1099.0664" y1="814.13776" x2="1099.5216" y2="805.04639" gradientTransform="translate(0,-652.362)" xlink:href="#linearGradientBlackPieces"/>
    <linearGradient id="linearGradient15994" gradientUnits="userSpaceOnUse" x1="1112.0919" y1="813.03467" x2="1116.6942" y2="813.03467" gradientTransform="translate(0,-652.362)" xlink:href="#linearGradientBlackPiecesBorder"/>
    <linearGradient id="linearGradient15987" gradientUnits="userSpaceOnUse" x1="1099.0664" y1="814.13776" x2="1099.5216" y2="805.04639" gradientTransform="translate(0,-652.362)" xlink:href="#linearGradientBlackPieces"/>
    <linearGradient id="linearGradient15989" gradientUnits="userSpaceOnUse" x1="1088.3092" y1="813.70508" x2="1093.9316" y2="813.70508" gradientTransform="translate(0,-652.362)" xlink:href="#linearGradientBlackPiecesBorder"/>
    <linearGradient id="linearGradient15982" gradientUnits="userSpaceOnUse" x1="1099.0664" y1="814.13776" x2="1099.5216" y2="805.04639" gradientTransform="translate(0,-652.362)" xlink:href="#linearGradientBlackPieces"/>
    <linearGradient id="linearGradient15984" gradientUnits="userSpaceOnUse" x1="1084.6591" y1="813.33734" x2="1089.658" y2="813.33734" gradientTransform="translate(0,-652.362)" xlink:href="#linearGradientBlackPiecesBorder"/>
    <linearGradient id="linearGradient15977" gradientUnits="userSpaceOnUse" x1="1099.0664" y1="814.13776" x2="1099.5216" y2="805.04639" gradientTransform="translate(0,-652.362)" xlink:href="#linearGradientBlackPieces"/>
    <linearGradient id="linearGradient15979" gradientUnits="userSpaceOnUse" x1="1091.7303" y1="813.51758" x2="1097.1011" y2="813.51758" gradientTransform="translate(0,-652.362)" xlink:href="#linearGradientBlackPiecesBorder"/>
    <linearGradient id="linearGradient15972" gradientUnits="userSpaceOnUse" x1="1099.0664" y1="814.13776" x2="1099.5216" y2="805.04639" gradientTransform="translate(0,-652.362)" xlink:href="#linearGradientBlackPieces"/>
    <linearGradient id="linearGradient15974" gradientUnits="userSpaceOnUse" x1="1081.8938" y1="812.62421" x2="1086.6687" y2="812.62421" gradientTransform="translate(0,-652.362)" xlink:href="#linearGradientBlackPiecesBorder"/>
    <linearGradient id="linearGradient15967" gradientUnits="userSpaceOnUse" x1="1099.0664" y1="814.13776" x2="1099.5216" y2="805.04639" gradientTransform="translate(0,-652.362)" xlink:href="#linearGradientBlackPieces"/>
    <linearGradient id="linearGradient15969" gradientUnits="userSpaceOnUse" x1="1085.7498" y1="818.52991" x2="1090.2455" y2="818.52991" gradientTransform="translate(0,-652.362)" xlink:href="#linearGradientBlackPiecesBorder"/>
    <linearGradient id="linearGradient15962" gradientUnits="userSpaceOnUse" x1="1099.0664" y1="814.13776" x2="1099.5216" y2="805.04639" gradientTransform="translate(0,-652.362)" xlink:href="#linearGradientBlackPieces"/>
    <linearGradient id="linearGradient15964" gradientUnits="userSpaceOnUse" x1="1095.4919" y1="819.63782" x2="1100.1125" y2="819.63782" gradientTransform="translate(0,-652.362)" xlink:href="#linearGradientBlackPiecesBorder"/>
    <linearGradient id="linearGradient15957" gradientUnits="userSpaceOnUse" x1="1099.0664" y1="814.13776" x2="1099.5216" y2="805.04639" gradientTransform="translate(0,-652.362)" xlink:href="#linearGradientBlackPieces"/>
    <linearGradient id="linearGradient15959" gradientUnits="userSpaceOnUse" x1="1098.3851" y1="819.84363" x2="1103.0446" y2="819.84363" gradientTransform="translate(0,-652.362)" xlink:href="#linearGradientBlackPiecesBorder"/>
    <linearGradient id="linearGradient15952" gradientUnits="userSpaceOnUse" x1="1099.0664" y1="814.13776" x2="1099.5216" y2="805.04639" gradientTransform="translate(0,-652.362)" xlink:href="#linearGradientBlackPieces"/>
    <linearGradient id="linearGradient15954" gradientUnits="userSpaceOnUse" x1="1101.7334" y1="819.89618" x2="1106.7252" y2="819.89618" gradientTransform="translate(0,-652.362)" xlink:href="#linearGradientBlackPiecesBorder"/>
    <linearGradient id="linearGradient15947" gradientUnits="userSpaceOnUse" x1="1099.0664" y1="814.13776" x2="1099.5216" y2="805.04639" gradientTransform="translate(0,-652.362)" xlink:href="#linearGradientBlackPieces"/>
    <linearGradient id="linearGradient15949" gradientUnits="userSpaceOnUse" x1="1091.7786" y1="820.05499" x2="1097.5256" y2="820.05499" gradientTransform="translate(0,-652.362)" xlink:href="#linearGradientBlackPiecesBorder"/>
    <linearGradient id="linearGradient15942" gradientUnits="userSpaceOnUse" x1="1099.0664" y1="814.13776" x2="1099.5216" y2="805.04639" gradientTransform="translate(0,-652.362)" xlink:href="#linearGradientBlackPieces"/>
    <linearGradient id="linearGradient15944" gradientUnits="userSpaceOnUse" x1="1088.6204" y1="819.52643" x2="1092.984" y2="819.52643" gradientTransform="translate(0,-652.362)" xlink:href="#linearGradientBlackPiecesBorder"/>
    <linearGradient id="linearGradient15937" gradientUnits="userSpaceOnUse" x1="1099.0664" y1="814.13776" x2="1099.5216" y2="805.04639" gradientTransform="translate(0,-652.362)" xlink:href="#linearGradientBlackPieces"/>
    <linearGradient id="linearGradient15939" gradientUnits="userSpaceOnUse" x1="1105.7002" y1="819.93237" x2="1111.1707" y2="819.93237" gradientTransform="translate(0,-652.362)" xlink:href="#linearGradientBlackPiecesBorder"/>
    <linearGradient id="linearGradient15932" gradientUnits="userSpaceOnUse" x1="1099.0664" y1="814.13776" x2="1099.5216" y2="805.04639" gradientTransform="translate(0,-652.362)" xlink:href="#linearGradientBlackPieces"/>
    <linearGradient id="linearGradient15934" gradientUnits="userSpaceOnUse" x1="1109.8584" y1="818.90417" x2="1114.7906" y2="818.90417" gradientTransform="translate(0,-652.362)" xlink:href="#linearGradientBlackPiecesBorder"/>
    <linearGradient id="linearGradient15929" gradientUnits="userSpaceOnUse" x1="1064.5331" y1="749.55829" x2="1101.8083" y2="749.55829" gradientTransform="translate(0,-652.362)" xlink:href="#linearGradientBlackPiecesBorder"/>
    <linearGradient id="linearGradient15926" gradientUnits="userSpaceOnUse" x1="1096.4777" y1="750.44092" x2="1137.5516" y2="750.44092" gradientTransform="translate(0,-652.362)" xlink:href="#linearGradientBlackPiecesBorder"/>
    <linearGradient id="linearGradient15923" gradientUnits="userSpaceOnUse" x1="1078.9677" y1="769.01947" x2="1098.3879" y2="769.01947" gradientTransform="translate(0,-652.362)" xlink:href="#linearGradientBlackPiecesBorder"/>
    <linearGradient id="linearGradient15920" gradientUnits="userSpaceOnUse" x1="1105.5277" y1="768.68152" x2="1123.5684" y2="768.68152" gradientTransform="translate(0,-652.362)" xlink:href="#linearGradientBlackPiecesBorder"/>
  </defs>
  <g id="BlackPawn">
    <rect y="0.00018261719" x="1000" height="200" width="200" id="rect4651-3" style="fill:none;stroke:none"/>
    <path id="path1328-7" d="m 1063.6698,114.76727 c 0.1488,-8.90473 4.1315,-17.27881 10.3811,-23.36574 4.8424,-4.71635 10.3046,-7.95336 16.7098,-9.88881 5.906,-1.78461 13.8622,-1.65879 19.7432,0.0378 7.1569,2.0646 12.5558,4.84878 18.243,9.65035 8.6223,7.27958 11.6795,20.83653 9.2329,25.44638 -0.9836,4.90028 -6.8972,21.55358 -9.2036,28.91007 -1.9073,4.54833 -1.7174,9.71036 -1.9829,14.56925 0.6835,5.55722 -1.7905,10.85767 -4.6653,15.4226 -2.9976,3.20794 -7.1603,4.55708 -9.8035,7.99081 -3.6295,4.71495 -8.3462,0.30642 -11.9212,1.12975 -4.5361,-0.73681 -9.2588,4.11548 -12.2244,-1.36891 -2.9019,-5.36674 -9.9856,-7.80926 -13.5512,-12.86797 -3.5877,-2.49161 -2.3257,-7.46478 -2.4935,-11.21637 0.4368,-6.70062 0.104,-13.64394 -2.8606,-19.79138 -0.2903,-0.85043 -4.528,-17.2008 -5.6038,-24.65778 z" style="fill:url(#linearGradient16034);fill-opacity:1;fill-rule:evenodd;stroke:url(#linearGradient16036);stroke-width:3.65714288;stroke-linecap:round;stroke-linejoin:round;stroke-miterlimit:4;stroke-opacity:1;stroke-dasharray:none"/>
    <path id="path2239-5" d="m 1074.5501,117.15958 c -0.8862,4.70145 0.3047,10.63426 -4.7896,13.38539 -3.4186,3.17773 -5.9596,10.87769 -1.851,15.43649 6.9801,3.34102 12.3205,1.61174 13.8967,10.74147 0.7627,8.16472 8.9043,8.66591 13.5729,8.1997 5.1242,0.0833 12.3302,0.29865 17.205,-0.0482 6.7297,-0.24807 4.1261,-13.85433 11.4363,-14.10733 7.0714,-0.86714 10.374,-7.20195 9.9983,-13.4065 -2.0669,-5.26459 -5.8872,-9.7533 -4.3456,-16.01272" style="fill:url(#linearGradient16029);fill-opacity:1;fill-rule:evenodd;stroke:url(#linearGradient16031);stroke-width:3.65714288;stroke-linecap:round;stroke-linejoin:round;stroke-miterlimit:4;stroke-opacity:1;stroke-dasharray:none"/>
    <path id="path2206-3" d="m 1108.7216,124.92275 c -2.3333,2.84465 -2.7518,3.90021 -3.3476,7.6248 0.056,2.43563 3.0549,5.51312 5.0816,6.57714 2.9136,1.65048 5.6676,1.6278 9.0354,0.86744 1.8496,-0.36124 4.2763,-1.6453 4.5373,-3.64312 0.4721,-2.35106 1.497,-9.63238 0.3777,-10.78769 -1.5307,-1.33098 -7.0975,-2.5647 -8.983,-3.01537 -1.1184,-0.56788 -5.765,1.41469 -6.7014,2.3768 z" style="fill:url(#linearGradient16026);fill-opacity:1;fill-rule:evenodd;stroke:none"/>
    <path id="path2204-8" d="m 1079.916,123.78693 c -2.1317,2.20277 -2.9807,3.93176 -2.5635,8.28002 0.2984,2.56527 0.4908,5.36749 2.4872,7.0963 6.7866,1.14012 12.8626,-0.85446 13.9577,-2.95524 2.2568,-2.73569 2.9457,-4.58466 3.041,-7.99002 -0.3448,-3.52119 -3.5648,-6.43521 -6.7831,-5.98346 -2.9388,0.35785 -5.5253,-0.84505 -10.1393,1.5524 z" style="fill:url(#linearGradient16023);fill-opacity:1;fill-rule:evenodd;stroke:none"/>
    <path id="path2228-8" d="m 1101.0227,132.95437 c -0.8716,0.28718 -1.5707,2.50287 -1.9754,3.33644 -1.5214,3.71662 -3.8054,9.47545 -2.8135,12.22658 1.1729,0.73413 3.4583,-1.24216 4.3248,-0.93842 1.0447,0.24609 2.314,1.52036 3.9659,1.23442 1.2911,0.55645 0.1027,-9.92498 -1.4017,-12.25109 -0.6708,-1.74541 -1.0086,-3.96757 -2.1001,-3.60793 z" style="fill:url(#linearGradient16020);fill-opacity:1;fill-rule:evenodd;stroke:none"/>
    <path id="path2244-8" d="m 1081.4978,154.27534 c 2.0571,5.31294 -0.2949,11.34061 4.3118,13.36695 4.8979,1.46447 9.495,2.07861 14.5842,1.95297 6.4302,-1.22183 12.4784,1.36032 16.4213,-4.00028 1.4766,-3.30472 0.7468,-9.01145 3.2273,-11.76559" style="fill:none;stroke:url(#linearGradient16017);stroke-width:3.65714288;stroke-linecap:butt;stroke-linejoin:round;stroke-miterlimit:4;stroke-opacity:1;stroke-dasharray:none"/>
    <path id="path2275-5" d="m 1098.336,157.88444 c -0.2924,0.30536 -1.2797,1.00724 -1.7247,1.89714 -0.3324,0.66488 -0.3735,2.52884 -0.5174,3.10443 -0.3067,1.22698 0.1621,1.63329 1.0348,2.06964 0.7931,0.39649 1.6854,0.1059 2.2421,-0.17248 0.7777,-0.38883 0.6701,-1.12806 0.8624,-1.89716 0.2005,-0.80216 0,-1.93355 0,-2.75949 0,-1.05798 -0.098,-1.4778 -0.6899,-2.06963 -0.4979,-0.49785 -0.01,-0.41259 -1.2073,-0.17245 z" style="fill:url(#linearGradient16012);fill-opacity:1;fill-rule:evenodd;stroke:url(#linearGradient16014);stroke-width:1.82857144;stroke-linecap:butt;stroke-linejoin:round;stroke-miterlimit:4;stroke-opacity:1;stroke-dasharray:none"/>
    <path id="path2277-6" d="m 1101.268,157.88444 c -0.01,-0.01 -0.7399,1.92451 -0.8624,2.41454 -0.192,0.76802 0.3729,1.61289 0.1725,2.41456 -0.2824,1.12948 -0.499,1.56144 0.1725,1.89716 0.8876,0.4438 1.3588,0.46908 2.2421,0.68987 1.0572,0.2643 1.7135,-0.55997 2.0696,-1.0348 0.4459,-0.59453 -0.2422,-2.00375 -0.345,-2.41456 -0.2342,-0.93693 -0.5943,-1.53368 -1.0348,-2.41456 -0.2523,-0.5046 -1.161,-0.91393 -1.5522,-1.20729 -0.2477,-0.18576 -0.5749,-0.22995 -0.8623,-0.34492 z" style="fill:url(#linearGradient16007);fill-opacity:1;fill-rule:evenodd;stroke:url(#linearGradient16009);stroke-width:1.82857144;stroke-linecap:butt;stroke-linejoin:round;stroke-miterlimit:4;stroke-opacity:1;stroke-dasharray:none"/>
    <path id="path2279-9" d="m 1105.0623,158.57431 c -0.8739,-0.65539 0,2.18458 0,3.2769 0,0.82386 0.032,1.85169 0.1725,2.41456 0.1253,0.50123 1.713,0.42826 2.0696,0.5174 1.0999,0.27499 1.8468,-0.41686 2.2421,-1.20729 0.3644,-0.72878 -0.5174,-1.77366 -0.5174,-2.58701 0,-1.34555 -0.549,-2.1117 -1.0349,-2.75951 -0.6871,-0.91625 -2.3857,-0.092 -2.9319,0.34495 z" style="fill:url(#linearGradient16002);fill-opacity:1;fill-rule:evenodd;stroke:url(#linearGradient16004);stroke-width:1.82857144;stroke-linecap:butt;stroke-linejoin:round;stroke-miterlimit:4;stroke-opacity:1;stroke-dasharray:none"/>
    <path id="path2281-4" d="m 1110.2363,158.05689 c 0,-0.005 -0.3449,2.34484 -0.3449,3.10443 0,0.99745 -0.1581,1.58091 0.1725,2.24211 0.1932,0.38642 1.8229,0.46824 2.0696,0.34493 0.9989,-0.49944 0.8623,-2.36487 0.8623,-3.44938 0,-0.71501 -0.9727,-1.86614 -1.3797,-2.06962 -0.5155,-0.25775 -0.6063,-0.17247 -1.3798,-0.17247 z" style="fill:url(#linearGradient15997);fill-opacity:1;fill-rule:evenodd;stroke:url(#linearGradient15999);stroke-width:1.82857144;stroke-linecap:butt;stroke-linejoin:round;stroke-miterlimit:4;stroke-opacity:1;stroke-dasharray:none"/>
    <path id="path2283-9" d="m 1113.5133,157.71196 c -1.0297,-0.51486 -0.1725,2.29815 -0.1725,3.44936 0,1.14924 -0.5458,1.4569 0.1725,2.41456 0.5322,0.70964 1.4362,-0.63186 1.8971,-0.86234 0.5068,-0.25341 0.3449,-1.8724 0.3449,-2.41456 0,-0.88952 -0.3726,-1.78016 -0.6898,-2.41454 -0.2739,-0.54782 -1.2082,-0.2413 -1.5522,-0.17248 z" style="fill:url(#linearGradient15992);fill-opacity:1;fill-rule:evenodd;stroke:url(#linearGradient15994);stroke-width:1.82857144;stroke-linecap:butt;stroke-linejoin:round;stroke-miterlimit:4;stroke-opacity:1;stroke-dasharray:none"/>
    <path id="path2287-8" d="m 1092.2996,158.22936 c 0,-0.008 0.345,2.1592 0.345,2.93196 0,0.57299 0.1979,1.67964 0.3449,2.41456 0.2167,1.0835 -0.8777,0.86235 -1.7247,0.86235 -0.9321,0 -1.439,-0.76884 -1.8972,-1.37975 -0.3581,-0.47759 0.049,-2.43884 0.1725,-2.93196 0.2108,-0.84302 1.0282,-1.29019 1.5522,-1.55221 0.5256,-0.26282 0.2679,-0.15707 1.2073,-0.34495 z" style="fill:url(#linearGradient15987);fill-opacity:1;fill-rule:evenodd;stroke:url(#linearGradient15989);stroke-width:1.82857144;stroke-linecap:butt;stroke-linejoin:round;stroke-miterlimit:4;stroke-opacity:1;stroke-dasharray:none"/>
    <path id="path2289-9" d="m 1088.5053,159.09171 c 0.5361,-0.26804 0,1.92768 0,2.58703 0,1.01342 0.4461,1.17738 0,2.06962 -0.3575,0.715 -2.0985,-0.27312 -2.2421,-0.34493 -0.6957,-0.34789 -0.6899,-1.4419 -0.6899,-2.24211 0,-0.84763 0.7133,-1.81842 0.8624,-2.41456 0.4285,-1.71412 1.6026,-0.23878 2.0696,0.34495 z" style="fill:url(#linearGradient15982);fill-opacity:1;fill-rule:evenodd;stroke:url(#linearGradient15984);stroke-width:1.82857144;stroke-linecap:butt;stroke-linejoin:round;stroke-miterlimit:4;stroke-opacity:1;stroke-dasharray:none"/>
    <path id="path2291-7" d="m 1092.6446,159.6091 c 0.5284,-0.84407 0.5087,-1.42068 1.7246,-1.72466 0.082,-0.0204 1.5045,1.5336 1.5523,1.72466 0.2023,0.80946 -0.053,2.02963 0.1724,2.93199 0.3018,1.20716 -0.1547,1.50466 -1.0348,1.72468 -1.2229,0.30571 -1.4449,0.25694 -1.7247,-0.86234 -0.1707,-0.68284 -0.3906,-1.73501 -0.5174,-2.24211 -0.1253,-0.50112 -0.1724,-1.02069 -0.1724,-1.55222 z" style="fill:url(#linearGradient15977);fill-opacity:1;fill-rule:evenodd;stroke:url(#linearGradient15979);stroke-width:1.82857144;stroke-linecap:butt;stroke-linejoin:round;stroke-miterlimit:4;stroke-opacity:1;stroke-dasharray:none"/>
    <path id="path2295-3" d="m 1085.5733,158.40183 c 0.2394,0.62053 0.1725,2.57401 0.1725,3.79431 0,1.33697 -0.5447,1.20729 -1.7247,1.20729 -0.9424,0 -1.2073,-0.76843 -1.2073,-1.72469 0,-1.16107 -0.098,-1.70195 0.5174,-2.93198 0.4091,-0.81811 0.7455,-1.09043 1.2073,-1.55222 0.3748,-0.37477 0.838,0.71517 1.0348,1.20729 z" style="fill:url(#linearGradient15972);fill-opacity:1;fill-rule:evenodd;stroke:url(#linearGradient15974);stroke-width:1.82857144;stroke-linecap:butt;stroke-linejoin:round;stroke-miterlimit:4;stroke-opacity:1;stroke-dasharray:none"/>
    <path id="path2299-1" d="m 1086.9531,164.95565 c -0.6504,-0.65044 0,1.83965 0,2.75948 0,1.04673 0.3366,1.20729 1.3797,1.20729 0.2977,0 0.7784,-2.07866 0.8624,-2.41456 0.204,-0.816 0.1573,-1.78506 0,-2.41456 -0.4393,-1.75706 -2.0536,0.39117 -2.2421,0.86235 z" style="fill:url(#linearGradient15967);fill-opacity:1;fill-rule:evenodd;stroke:url(#linearGradient15969);stroke-width:1.82857144;stroke-linecap:butt;stroke-linejoin:round;stroke-miterlimit:4;stroke-opacity:1;stroke-dasharray:none"/>
    <path id="path2301-4" d="m 1099.1983,170.12969 c -0.1485,-0.59412 -0.2459,-2.36356 -0.5174,-3.44935 -0.2585,-1.03409 -0.4605,-1.32291 -1.2072,-2.06964 -0.9233,-0.92324 -0.9865,1.82814 -1.0348,2.06964 -0.1884,0.94159 0.4903,1.44409 0.6898,2.24208 0.2445,0.97813 0.8213,1.20727 2.0696,1.20727 z" style="fill:url(#linearGradient15962);fill-opacity:1;fill-rule:evenodd;stroke:url(#linearGradient15964);stroke-width:1.82857144;stroke-linecap:butt;stroke-linejoin:round;stroke-miterlimit:4;stroke-opacity:1;stroke-dasharray:none"/>
    <path id="path2303-8" d="m 1099.5433,170.12969 c 0.2792,1.11687 -0.1725,-2.29815 -0.1725,-3.44935 0,-1.10462 -0.3047,-1.24749 0.345,-1.89717 0.6946,-0.69462 1.7605,0.93397 1.8971,1.20727 0.3755,0.7511 0.5174,1.06845 0.5174,2.24211 0,1.06318 -0.8012,1.17671 -1.5522,1.55222 -1.0127,0.50632 2.1893,-0.29988 -1.0348,0.34492 z" style="fill:url(#linearGradient15957);fill-opacity:1;fill-rule:evenodd;stroke:url(#linearGradient15959);stroke-width:1.82857144;stroke-linecap:butt;stroke-linejoin:round;stroke-miterlimit:4;stroke-opacity:1;stroke-dasharray:none"/>
    <path id="path2305-6" d="m 1102.8202,170.12969 c -0.142,0.071 -0.1725,-2.54471 -0.1725,-3.2769 0,-1.07794 0.4293,-1.11911 1.0348,-1.72469 0.7935,-0.79351 1.7082,1.12774 1.8972,1.37976 0.4605,0.61396 0.1095,1.97669 0,2.41456 -0.085,0.34186 -2.3402,1.03953 -2.7595,1.20727 z" style="fill:url(#linearGradient15952);fill-opacity:1;fill-rule:evenodd;stroke:url(#linearGradient15954);stroke-width:1.82857144;stroke-linecap:butt;stroke-linejoin:round;stroke-miterlimit:4;stroke-opacity:1;stroke-dasharray:none"/>
    <path id="path2307-3" d="m 1096.6113,169.78477 c -0.2382,0.95305 -0.4454,-1.97361 -1.0348,-2.75951 -0.8225,-1.09669 -0.3409,-1.46399 -1.5522,-2.06961 -0.6934,-0.34672 -0.9786,1.43984 -1.2073,1.89714 -0.4633,0.9267 0.4934,1.71268 0.8623,1.89716 0.6834,0.34167 0.8541,0.94441 1.7247,1.37974 0.4019,0.20092 0.5889,0.23348 1.0349,0.34495" style="fill:url(#linearGradient15947);fill-opacity:1;fill-rule:evenodd;stroke:url(#linearGradient15949);stroke-width:1.82857144;stroke-linecap:butt;stroke-linejoin:round;stroke-miterlimit:4;stroke-opacity:1;stroke-dasharray:none"/>
    <path id="path2309-9" d="m 1091.9547,169.09489 c 0.2588,0.12942 0,-2.56935 0,-3.2769 0,-1.34211 -0.1194,-1.03482 -1.5523,-1.03482 -0.9902,0 -0.8623,1.676 -0.8623,2.58704 0,1.20353 0.058,1.49491 0.8623,1.89714 0.7312,0.36557 0.636,0.51471 1.5523,-0.17246 z" style="fill:url(#linearGradient15942);fill-opacity:1;fill-rule:evenodd;stroke:url(#linearGradient15944);stroke-width:1.82857144;stroke-linecap:butt;stroke-linejoin:round;stroke-miterlimit:4;stroke-opacity:1;stroke-dasharray:none"/>
    <path id="path2311-2" d="m 1106.6145,169.61229 c 0.9383,0.46916 0.048,-2.16611 0.5174,-3.10443 0.387,-0.77408 1.4935,-1.03482 2.2421,-1.03482 1.092,0 0.8623,0.92751 0.8623,1.89717 0,0.62613 -0.9489,1.29387 -1.3797,1.72468 -0.4489,0.44891 -1.5367,0.5174 -2.2421,0.5174 z" style="fill:url(#linearGradient15937);fill-opacity:1;fill-rule:evenodd;stroke:url(#linearGradient15939);stroke-width:1.82857144;stroke-linecap:butt;stroke-linejoin:round;stroke-miterlimit:4;stroke-opacity:1;stroke-dasharray:none"/>
    <path id="path2313-3" d="m 1110.9262,168.57748 c -0.4066,0.40659 0.074,-1.67426 0.5174,-3.44938 0.2329,-0.93145 1.2717,-0.67376 1.8972,-0.5174 0.97,0.24251 0.3635,1.86006 0.1725,2.24209 -0.4911,0.98204 -1.4875,1.72469 -2.5871,1.72469 z" style="fill:url(#linearGradient15932);fill-opacity:1;fill-rule:evenodd;stroke:url(#linearGradient15934);stroke-width:1.82857144;stroke-linecap:butt;stroke-linejoin:round;stroke-miterlimit:4;stroke-opacity:1;stroke-dasharray:none"/>
    <path id="path2353-3" d="m 1099.4875,83.41592 c -0.3252,0.89433 0.4878,0.99841 0.4878,2.43909 0,0.65713 -2.5514,3.67775 -2.1951,4.39034 0.5134,1.02685 1.9094,1.90941 2.1951,2.19514 0.1945,0.19449 -5.927,-0.60617 -6.5703,1.46347 -0.5509,1.77213 -2.4659,-1.57691 -4.2302,-1.13585 -1.208,0.30203 -3.509,4.51762 -4.5505,5.03835 -1.5107,0.75536 -2.9868,-1.87186 -3.4147,-0.1602 -0.2999,1.19963 -0.212,2.06748 -0.4878,3.1708 -0.5005,2.00176 0.7998,-0.74592 -2.4391,-0.20611 -1.4765,0.2461 -1.7074,-0.61564 -1.7074,2.68299 0,0.078 -3.0207,1.53854 -3.4146,2.19517 -0.764,1.27323 -1.0361,1.67435 -1.4635,3.3838 -0.5581,2.23234 -4.1858,0.95403 -5.3355,2.10374" style="fill:none;stroke:url(#linearGradient15929);stroke-width:3.65714288;stroke-linecap:round;stroke-linejoin:round;stroke-miterlimit:4;stroke-opacity:1;stroke-dasharray:none"/>
    <path id="path2357-4" d="m 1098.527,93.79319 c 1.0569,-1.05695 2.1139,-2.11387 3.1708,-3.1708 1.0569,-1.05694 -2.1139,2.11385 -3.1708,3.1708 -1.1382,1.13822 2.4489,-2.12694 3.4147,-3.41471 1.3658,-1.82099 4.0513,0.54135 4.6343,1.70735 0.707,1.41396 1.789,2.58523 2.439,2.19517 0.9686,-0.58112 2.5292,-0.97563 3.6586,-0.97563 2.3472,0 3.42,1.96166 4.3904,3.90251 0.6982,1.39651 2.5101,-0.97562 4.3903,-0.97562 1.927,0 2.8698,0.96012 2.4391,2.68298 -0.1865,0.74581 2.3898,1.6581 2.9269,2.19517 1.369,1.36901 -0.5278,2.61202 1.7073,3.17079 2.0547,0.51368 5.9206,1.84604 7.1954,2.16475" style="fill:none;stroke:url(#linearGradient15926);stroke-width:3.65714288;stroke-linecap:round;stroke-linejoin:round;stroke-miterlimit:4;stroke-opacity:1;stroke-dasharray:none"/>
    <path id="path2375-6" d="m 1079.8819,116.8369 c 1.7888,0.0911 5.7581,-1.03481 8.6234,-1.03481 3.0021,0 5.0907,-0.21417 7.5886,1.03481 0.466,0.23299 0.9322,0.4661 1.3798,0.68988" style="fill:none;stroke:url(#linearGradient15923);stroke-width:1.82857144;stroke-linecap:round;stroke-linejoin:round;stroke-miterlimit:4;stroke-opacity:1;stroke-dasharray:none"/>
    <path id="path2377-7" d="m 1106.442,117.52678 c 1.24,-1.0185 3.8992,-2.41456 5.864,-2.41456 2.1836,0 4.0033,0 6.2088,0 1.3798,0 2.7595,0 4.1393,0" style="fill:none;stroke:url(#linearGradient15920);stroke-width:1.82857144;stroke-linecap:round;stroke-linejoin:round;stroke-miterlimit:4;stroke-opacity:1;stroke-dasharray:none"/>
  </g>
</svg>