<?xml version="1.0" encoding="utf-8"?>
<svg viewBox="200 0 200 200" xmlns="http://www.w3.org/2000/svg" xmlns:xlink="http://www.w3.org/1999/xlink">
  <defs>
    <linearGradient id="linearGradient16478" gradientUnits="userSpaceOnUse" gradientTransform="matrix(0.21886972,0,0,0.21886972,201.16977,30.91193)" x1="317.82336" y1="251.51895" x2="716.78424" y2="1040.8939" xlink:href="#linearGradientBlackPieces"/>
    <linearGradient id="linearGradientBlackPieces">
      <stop style="stop-color:#a08060;stop-opacity:1" offset="0" id="stop5177"/>
      <stop style="stop-color:#000000;stop-opacity:1;" offset="1" id="stop5179"/>
    </linearGradient>
    <linearGradient id="linearGradient16480" gradientUnits="userSpaceOnUse" x1="248.36806" y1="775.46729" x2="347.362" y2="775.46729" gradientTransform="translate(0,-652.362)" xlink:href="#linearGradientBlackPiecesBorder"/>
    <linearGradient id="linearGradientBlackPiecesBorder">
      <stop style="stop-color:#000000;stop-opacity:1;" offset="0" id="stop4006"/>
      <stop style="stop-color:#000000;stop-opacity:1;" offset="1" id="stop4008"/>
    </linearGradient>
    <linearGradient id="linearGradient16473" gradientUnits="userSpaceOnUse" gradientTransform="matrix(0.21886972,0,0,0.21886972,201.16977,30.91193)" x1="403.64108" y1="286.73438" x2="535.96454" y2="715.77893" xlink:href="#linearGradientBlackPieces"/>
    <linearGradient id="linearGradient16475" gradientUnits="userSpaceOnUse" x1="251.05547" y1="785.65112" x2="341.3374" y2="785.65112" gradientTransform="translate(0,-652.362)" xlink:href="#linearGradientBlackPiecesBorder"/>
    <linearGradient id="linearGradient16470" gradientUnits="userSpaceOnUse" x1="303.12097" y1="773.41211" x2="327.91367" y2="773.41211" gradientTransform="translate(0,-652.362)" xlink:href="#linearGradientBlackPiecesBorder"/>
    <linearGradient id="linearGradient16467" gradientUnits="userSpaceOnUse" x1="267.42975" y1="772.61719" x2="292.28888" y2="772.61719" gradientTransform="translate(0,-652.362)" xlink:href="#linearGradientBlackPiecesBorder"/>
    <linearGradient id="linearGradient16464" gradientUnits="userSpaceOnUse" x1="291.21497" y1="785.36285" x2="302.7421" y2="785.36285" gradientTransform="translate(0,-652.362)" xlink:href="#linearGradientBlackPiecesBorder"/>
    <linearGradient id="linearGradient16461" gradientUnits="userSpaceOnUse" x1="270.99255" y1="811.80328" x2="323.56433" y2="811.80328" gradientTransform="translate(0,-652.362)" xlink:href="#linearGradientBlackPiecesBorder"/>
    <linearGradient id="linearGradient16456" gradientUnits="userSpaceOnUse" x1="297.81335" y1="815.44781" x2="298.04791" y2="800.29547" gradientTransform="translate(0,-652.362)" xlink:href="#linearGradientBlackPieces"/>
    <linearGradient id="linearGradient16458" gradientUnits="userSpaceOnUse" x1="290.31046" y1="811.10046" x2="297.62442" y2="811.10046" gradientTransform="translate(0,-652.362)" xlink:href="#linearGradientBlackPiecesBorder"/>
    <linearGradient id="linearGradient16451" gradientUnits="userSpaceOnUse" x1="297.81335" y1="815.44781" x2="298.04791" y2="800.29547" gradientTransform="translate(0,-652.362)" xlink:href="#linearGradientBlackPieces"/>
    <linearGradient id="linearGradient16453" gradientUnits="userSpaceOnUse" x1="296.099" y1="811.02704" x2="304.15182" y2="811.02704" gradientTransform="translate(0,-652.362)" xlink:href="#linearGradientBlackPiecesBorder"/>
    <linearGradient id="linearGradient16446" gradientUnits="userSpaceOnUse" x1="297.81335" y1="815.44781" x2="298.04791" y2="800.29547" gradientTransform="translate(0,-652.362)" xlink:href="#linearGradientBlackPieces"/>
    <linearGradient id="linearGradient16448" gradientUnits="userSpaceOnUse" x1="301.31824" y1="811.30737" x2="309.44229" y2="811.30737" gradientTransform="translate(0,-652.362)" xlink:href="#linearGradientBlackPiecesBorder"/>
    <linearGradient id="linearGradient16441" gradientUnits="userSpaceOnUse" x1="297.81335" y1="815.44781" x2="298.04791" y2="800.29547" gradientTransform="translate(0,-652.362)" xlink:href="#linearGradientBlackPieces"/>
    <linearGradient id="linearGradient16443" gradientUnits="userSpaceOnUse" x1="307.89148" y1="810.79077" x2="313.71567" y2="810.79077" gradientTransform="translate(0,-652.362)" xlink:href="#linearGradientBlackPiecesBorder"/>
    <linearGradient id="linearGradient16436" gradientUnits="userSpaceOnUse" x1="297.81335" y1="815.44781" x2="298.04791" y2="800.29547" gradientTransform="translate(0,-652.362)" xlink:href="#linearGradientBlackPieces"/>
    <linearGradient id="linearGradient16438" gradientUnits="userSpaceOnUse" x1="311.89224" y1="810.47382" x2="317.24081" y2="810.47382" gradientTransform="translate(0,-652.362)" xlink:href="#linearGradientBlackPiecesBorder"/>
    <linearGradient id="linearGradient16431" gradientUnits="userSpaceOnUse" x1="297.81335" y1="815.44781" x2="298.04791" y2="800.29547" gradientTransform="translate(0,-652.362)" xlink:href="#linearGradientBlackPieces"/>
    <linearGradient id="linearGradient16433" gradientUnits="userSpaceOnUse" x1="281.71109" y1="811.32458" x2="288.35406" y2="811.32458" gradientTransform="translate(0,-652.362)" xlink:href="#linearGradientBlackPiecesBorder"/>
    <linearGradient id="linearGradient16426" gradientUnits="userSpaceOnUse" x1="297.81335" y1="815.44781" x2="298.04791" y2="800.29547" gradientTransform="translate(0,-652.362)" xlink:href="#linearGradientBlackPieces"/>
    <linearGradient id="linearGradient16428" gradientUnits="userSpaceOnUse" x1="277.0788" y1="810.85791" x2="282.93051" y2="810.85791" gradientTransform="translate(0,-652.362)" xlink:href="#linearGradientBlackPiecesBorder"/>
    <linearGradient id="linearGradient16421" gradientUnits="userSpaceOnUse" x1="297.81335" y1="815.44781" x2="298.04791" y2="800.29547" gradientTransform="translate(0,-652.362)" xlink:href="#linearGradientBlackPieces"/>
    <linearGradient id="linearGradient16423" gradientUnits="userSpaceOnUse" x1="286.05246" y1="811.08667" x2="292.37634" y2="811.08667" gradientTransform="translate(0,-652.362)" xlink:href="#linearGradientBlackPiecesBorder"/>
    <linearGradient id="linearGradient16416" gradientUnits="userSpaceOnUse" x1="297.81335" y1="815.44781" x2="298.04791" y2="800.29547" gradientTransform="translate(0,-652.362)" xlink:href="#linearGradientBlackPieces"/>
    <linearGradient id="linearGradient16418" gradientUnits="userSpaceOnUse" x1="273.5697" y1="809.95294" x2="279.13715" y2="809.95294" gradientTransform="translate(0,-652.362)" xlink:href="#linearGradientBlackPiecesBorder"/>
    <linearGradient id="linearGradient16411" gradientUnits="userSpaceOnUse" x1="297.81335" y1="815.44781" x2="298.04791" y2="800.29547" gradientTransform="translate(0,-652.362)" xlink:href="#linearGradientBlackPieces"/>
    <linearGradient id="linearGradient16413" gradientUnits="userSpaceOnUse" x1="278.46292" y1="817.44745" x2="283.67633" y2="817.44745" gradientTransform="translate(0,-652.362)" xlink:href="#linearGradientBlackPiecesBorder"/>
    <linearGradient id="linearGradient16406" gradientUnits="userSpaceOnUse" x1="297.81335" y1="815.44781" x2="298.04791" y2="800.29547" gradientTransform="translate(0,-652.362)" xlink:href="#linearGradientBlackPieces"/>
    <linearGradient id="linearGradient16408" gradientUnits="userSpaceOnUse" x1="290.82614" y1="818.85352" x2="296.19809" y2="818.85352" gradientTransform="translate(0,-652.362)" xlink:href="#linearGradientBlackPiecesBorder"/>
    <linearGradient id="linearGradient16401" gradientUnits="userSpaceOnUse" x1="297.81335" y1="815.44781" x2="298.04791" y2="800.29547" gradientTransform="translate(0,-652.362)" xlink:href="#linearGradientBlackPieces"/>
    <linearGradient id="linearGradient16403" gradientUnits="userSpaceOnUse" x1="294.4978" y1="819.11469" x2="299.91888" y2="819.11469" gradientTransform="translate(0,-652.362)" xlink:href="#linearGradientBlackPiecesBorder"/>
    <linearGradient id="linearGradient16396" gradientUnits="userSpaceOnUse" x1="297.81335" y1="815.44781" x2="298.04791" y2="800.29547" gradientTransform="translate(0,-652.362)" xlink:href="#linearGradientBlackPieces"/>
    <linearGradient id="linearGradient16398" gradientUnits="userSpaceOnUse" x1="298.74692" y1="819.18134" x2="304.58972" y2="819.18134" gradientTransform="translate(0,-652.362)" xlink:href="#linearGradientBlackPiecesBorder"/>
    <linearGradient id="linearGradient16391" gradientUnits="userSpaceOnUse" x1="297.81335" y1="815.44781" x2="298.04791" y2="800.29547" gradientTransform="translate(0,-652.362)" xlink:href="#linearGradientBlackPieces"/>
    <linearGradient id="linearGradient16393" gradientUnits="userSpaceOnUse" x1="286.11386" y1="819.38287" x2="292.91504" y2="819.38287" gradientTransform="translate(0,-652.362)" xlink:href="#linearGradientBlackPiecesBorder"/>
    <linearGradient id="linearGradient16386" gradientUnits="userSpaceOnUse" x1="297.81335" y1="815.44781" x2="298.04791" y2="800.29547" gradientTransform="translate(0,-652.362)" xlink:href="#linearGradientBlackPieces"/>
    <linearGradient id="linearGradient16388" gradientUnits="userSpaceOnUse" x1="282.10596" y1="818.7121" x2="287.15155" y2="818.7121" gradientTransform="translate(0,-652.362)" xlink:href="#linearGradientBlackPiecesBorder"/>
    <linearGradient id="linearGradient16381" gradientUnits="userSpaceOnUse" x1="297.81335" y1="815.44781" x2="298.04791" y2="800.29547" gradientTransform="translate(0,-652.362)" xlink:href="#linearGradientBlackPieces"/>
    <linearGradient id="linearGradient16383" gradientUnits="userSpaceOnUse" x1="303.78091" y1="819.22729" x2="310.23132" y2="819.22729" gradientTransform="translate(0,-652.362)" xlink:href="#linearGradientBlackPiecesBorder"/>
    <linearGradient id="linearGradient16376" gradientUnits="userSpaceOnUse" x1="297.81335" y1="815.44781" x2="298.04791" y2="800.29547" gradientTransform="translate(0,-652.362)" xlink:href="#linearGradientBlackPieces"/>
    <linearGradient id="linearGradient16378" gradientUnits="userSpaceOnUse" x1="309.05774" y1="817.92242" x2="314.82501" y2="817.92242" gradientTransform="translate(0,-652.362)" xlink:href="#linearGradientBlackPiecesBorder"/>
    <linearGradient id="linearGradient16373" gradientUnits="userSpaceOnUse" x1="250.33974" y1="729.77832" x2="297.56638" y2="729.77832" gradientTransform="translate(0,-652.362)" xlink:href="#linearGradientBlackPiecesBorder"/>
    <linearGradient id="linearGradient16370" gradientUnits="userSpaceOnUse" x1="295.43027" y1="734.26849" x2="345.4668" y2="734.26849" gradientTransform="translate(0,-652.362)" xlink:href="#linearGradientBlackPiecesBorder"/>
    <linearGradient id="linearGradient16367" gradientUnits="userSpaceOnUse" x1="269.85611" y1="754.6167" x2="294.0094" y2="754.6167" gradientTransform="translate(0,-652.362)" xlink:href="#linearGradientBlackPiecesBorder"/>
    <linearGradient id="linearGradient16364" gradientUnits="userSpaceOnUse" x1="303.56204" y1="754.18781" x2="325.96439" y2="754.18781" gradientTransform="translate(0,-652.362)" xlink:href="#linearGradientBlackPiecesBorder"/>
    <linearGradient id="linearGradient16359" gradientUnits="userSpaceOnUse" gradientTransform="matrix(0.25350812,0.05002971,-0.05002971,0.25350812,219.49264,-22.97164)" x1="405" y1="176.00002" x2="402" y2="281" xlink:href="#linearGradientBlackPieces"/>
    <linearGradient id="linearGradient16361" gradientUnits="userSpaceOnUse" x1="291.42554" y1="700.13403" x2="330.87399" y2="700.13403" gradientTransform="translate(0,-652.362)" xlink:href="#linearGradientBlackPiecesBorder"/>
    <linearGradient id="linearGradient16354" gradientUnits="userSpaceOnUse" gradientTransform="matrix(0.23253349,0.11268297,-0.11268297,0.23253349,259.65879,-39.85964)" x1="405" y1="176.00002" x2="402" y2="281" xlink:href="#linearGradientBlackPieces"/>
    <linearGradient id="linearGradient16356" gradientUnits="userSpaceOnUse" x1="316.33826" y1="701.10437" x2="353.2262" y2="701.10437" gradientTransform="translate(0,-652.362)" xlink:href="#linearGradientBlackPiecesBorder"/>
    <linearGradient id="linearGradient16349" gradientUnits="userSpaceOnUse" gradientTransform="matrix(0.24894286,-0.0692576,0.0692576,0.24894286,159.48142,25.80249)" x1="405" y1="176.00002" x2="402" y2="281" xlink:href="#linearGradientBlackPieces"/>
    <linearGradient id="linearGradient16351" gradientUnits="userSpaceOnUse" x1="246.30501" y1="700.01233" x2="284.39862" y2="700.01233" gradientTransform="translate(0,-652.362)" xlink:href="#linearGradientBlackPiecesBorder"/>
    <linearGradient id="linearGradient16344" gradientUnits="userSpaceOnUse" gradientTransform="matrix(0.22190492,-0.13239063,0.13239063,0.22190492,141.89787,69.00203)" x1="405" y1="176.00002" x2="402" y2="281" xlink:href="#linearGradientBlackPieces"/>
    <linearGradient id="linearGradient16346" gradientUnits="userSpaceOnUse" x1="228.77269" y1="710.81042" x2="267.9151" y2="710.81042" gradientTransform="translate(0,-652.362)" xlink:href="#linearGradientBlackPiecesBorder"/>
    <linearGradient id="linearGradient16339" gradientUnits="userSpaceOnUse" gradientTransform="matrix(0.25839749,0,0,-0.25839749,186.1008,120.77166)" x1="405" y1="176.00002" x2="402" y2="281" xlink:href="#linearGradientBlackPieces"/>
    <linearGradient id="linearGradient16341" gradientUnits="userSpaceOnUse" x1="266.44263" y1="719.90375" x2="306.27542" y2="719.90375" gradientTransform="translate(0,-652.362)" xlink:href="#linearGradientBlackPiecesBorder"/>
    <linearGradient id="linearGradient16334" gradientUnits="userSpaceOnUse" gradientTransform="matrix(0.257896,0.01609282,0.01609282,-0.257896,200.37949,111.47026)" x1="405" y1="176.00002" x2="402" y2="281" xlink:href="#linearGradientBlackPieces"/>
    <linearGradient id="linearGradient16336" gradientUnits="userSpaceOnUse" x1="282.76651" y1="717.54517" x2="322.43253" y2="717.54517" gradientTransform="translate(0,-652.362)" xlink:href="#linearGradientBlackPiecesBorder"/>
    <linearGradient id="linearGradient16329" gradientUnits="userSpaceOnUse" gradientTransform="matrix(0.24741052,0.07454766,0.07454766,-0.24741052,208.13637,89.53915)" x1="405" y1="176.00002" x2="402" y2="281" xlink:href="#linearGradientBlackPieces"/>
    <linearGradient id="linearGradient16331" gradientUnits="userSpaceOnUse" x1="295.19739" y1="722.61737" x2="333.04474" y2="722.61737" gradientTransform="translate(0,-652.362)" xlink:href="#linearGradientBlackPiecesBorder"/>
    <linearGradient id="linearGradient16324" gradientUnits="userSpaceOnUse" gradientTransform="matrix(0.20518446,0.15706286,0.15706286,-0.20518446,220.83778,55.27984)" x1="405" y1="176.00002" x2="402" y2="281" xlink:href="#linearGradientBlackPieces"/>
    <linearGradient id="linearGradient16326" gradientUnits="userSpaceOnUse" x1="305.77536" y1="732.12555" x2="347.23318" y2="732.12555" gradientTransform="translate(0,-652.362)" xlink:href="#linearGradientBlackPiecesBorder"/>
    <linearGradient id="linearGradient16319" gradientUnits="userSpaceOnUse" gradientTransform="matrix(0.2533744,-0.05070034,-0.05070034,-0.2533744,183.87812,142.08324)" x1="405" y1="176.00002" x2="402" y2="281" xlink:href="#linearGradientBlackPieces"/>
    <linearGradient id="linearGradient16321" gradientUnits="userSpaceOnUse" x1="255.67673" y1="723.49133" x2="295.1105" y2="723.49133" gradientTransform="translate(0,-652.362)" xlink:href="#linearGradientBlackPiecesBorder"/>
    <linearGradient id="linearGradient16314" gradientUnits="userSpaceOnUse" gradientTransform="matrix(0.25839749,0,0,0.25839749,188.42739,-5.40743)" x1="405" y1="176.00002" x2="402" y2="281" xlink:href="#linearGradientBlackPieces"/>
    <linearGradient id="linearGradient16316" gradientUnits="userSpaceOnUse" x1="268.76923" y1="700.18445" x2="308.60202" y2="700.18445" gradientTransform="translate(0,-652.362)" xlink:href="#linearGradientBlackPiecesBorder"/>
    <linearGradient id="linearGradient16309" gradientUnits="userSpaceOnUse" gradientTransform="matrix(0.21515612,0.14309806,-0.14309806,0.21515612,287.8365,-39.90375)" x1="405" y1="176.00002" x2="402" y2="281" xlink:href="#linearGradientBlackPieces"/>
    <linearGradient id="linearGradient16311" gradientUnits="userSpaceOnUse" x1="330.13855" y1="708.22577" x2="369.46072" y2="708.22577" gradientTransform="translate(0,-652.362)" xlink:href="#linearGradientBlackPiecesBorder"/>
    <linearGradient id="linearGradient16304" gradientUnits="userSpaceOnUse" gradientTransform="matrix(0.18003086,-0.18535932,0.18535932,0.18003086,137.82757,109.21063)" x1="405" y1="176.00002" x2="402" y2="281" xlink:href="#linearGradientBlackPieces"/>
    <linearGradient id="linearGradient16306" gradientUnits="userSpaceOnUse" x1="218.64304" y1="719.88123" x2="262.31421" y2="719.88123" gradientTransform="translate(0,-652.362)" xlink:href="#linearGradientBlackPiecesBorder"/>
    <linearGradient id="linearGradient16299" gradientUnits="userSpaceOnUse" gradientTransform="matrix(-0.0360752,0.25586697,-0.25586697,-0.0360752,415.39118,-6.17472)" x1="405" y1="176.00002" x2="402" y2="281" xlink:href="#linearGradientBlackPieces"/>
    <linearGradient id="linearGradient16301" gradientUnits="userSpaceOnUse" x1="327.52252" y1="740.62958" x2="370.69406" y2="740.62958" gradientTransform="translate(0,-652.362)" xlink:href="#linearGradientBlackPiecesBorder"/>
    <linearGradient id="linearGradient16294" gradientUnits="userSpaceOnUse" gradientTransform="matrix(0.01878479,0.25771406,0.25771406,-0.01878479,186.49259,-11.61138)" x1="405" y1="176.00002" x2="402" y2="281" xlink:href="#linearGradientBlackPieces"/>
    <linearGradient id="linearGradient16296" gradientUnits="userSpaceOnUse" x1="225.94441" y1="738.22644" x2="268.10242" y2="738.22644" gradientTransform="translate(0,-652.362)" xlink:href="#linearGradientBlackPiecesBorder"/>
    <linearGradient id="linearGradient16289" gradientUnits="userSpaceOnUse" gradientTransform="matrix(0.17521554,0.18991817,0.18991817,-0.17521554,140.42014,52.41527)" x1="405" y1="176.00002" x2="402" y2="281" xlink:href="#linearGradientBlackPieces"/>
    <linearGradient id="linearGradient16291" gradientUnits="userSpaceOnUse" x1="220.3288" y1="749.39807" x2="264.30008" y2="749.39807" gradientTransform="translate(0,-652.362)" xlink:href="#linearGradientBlackPiecesBorder"/>
    <linearGradient id="linearGradient16284" gradientUnits="userSpaceOnUse" gradientTransform="matrix(0.25263337,-0.05427246,-0.05427246,-0.25263337,166.39915,155.69474)" x1="405" y1="176.00002" x2="402" y2="281" xlink:href="#linearGradientBlackPieces"/>
    <linearGradient id="linearGradient16286" gradientUnits="userSpaceOnUse" x1="237.47273" y1="735.98956" x2="276.82419" y2="735.98956" gradientTransform="translate(0,-652.362)" xlink:href="#linearGradientBlackPiecesBorder"/>
    <linearGradient id="linearGradient16279" gradientUnits="userSpaceOnUse" gradientTransform="matrix(-0.21288069,0.14646217,-0.14646217,-0.21288069,460.14377,74.62016)" x1="405" y1="176.00002" x2="402" y2="281" xlink:href="#linearGradientBlackPieces"/>
    <linearGradient id="linearGradient16281" gradientUnits="userSpaceOnUse" x1="333.70978" y1="745.37531" x2="374.21063" y2="745.37531" gradientTransform="translate(0,-652.362)" xlink:href="#linearGradientBlackPiecesBorder"/>
    <linearGradient id="linearGradient16274" gradientUnits="userSpaceOnUse" gradientTransform="matrix(0.11992869,0.22888092,-0.22888092,0.11992869,349.94537,-40.5115)" x1="405" y1="176.00002" x2="402" y2="281" xlink:href="#linearGradientBlackPieces"/>
    <linearGradient id="linearGradient16276" gradientUnits="userSpaceOnUse" x1="330.8132" y1="718.16827" x2="376.71774" y2="718.16827" gradientTransform="translate(0,-652.362)" xlink:href="#linearGradientBlackPiecesBorder"/>
  </defs>
  <g id="BlackQueen">
    <rect y="0.00018261719" x="200" height="200" width="200" id="rect4651-1" style="fill:none;stroke:none"/>
    <path id="path1328-6" d="m 250.19662,99.85596 c 0.18876,-11.30046 5.24297,-21.92754 13.17401,-29.65209 6.14524,-5.98524 13.07699,-10.09315 21.2055,-12.54932 7.495,-2.26473 17.59164,-2.10506 25.05486,0.0479 9.08237,2.62007 15.93386,6.15329 23.15118,12.24668 10.94209,9.23812 14.8218,26.44243 11.71698,32.29253 -1.24826,6.21866 -8.75294,27.35239 -11.6798,36.6881 -2.4205,5.772 -2.17943,12.32283 -2.51637,18.48897 0.8674,7.05234 -2.27221,13.77884 -5.92049,19.57191 -3.80413,4.071 -9.0867,5.78314 -12.44105,10.14069 -4.60592,5.98344 -10.59165,0.38884 -15.12851,1.43369 -5.75654,-0.93503 -11.74979,5.22272 -15.5132,-1.7372 -3.68267,-6.81061 -12.67224,-9.91028 -17.19717,-16.33 -4.55286,-3.16194 -2.95138,-9.47312 -3.16424,-14.23404 0.55428,-8.50335 0.132,-17.31473 -3.63023,-25.11607 -0.36847,-1.07926 -5.7463,-21.82853 -7.11147,-31.29176 z" style="fill:url(#linearGradient16478);fill-opacity:1;fill-rule:evenodd;stroke:url(#linearGradient16480);stroke-width:3.65714288;stroke-linecap:round;stroke-linejoin:round;stroke-miterlimit:4;stroke-opacity:1;stroke-dasharray:none"/>
    <path id="path2239-7" d="m 264.00411,102.89189 c -1.12461,5.96635 0.38673,13.49533 -6.07811,16.98663 -4.33837,4.03265 -7.56308,13.80424 -2.34899,19.58954 8.85795,4.2399 15.63519,2.04536 17.63548,13.63138 0.96791,10.36136 11.2999,10.99739 17.2246,10.40576 6.50283,0.10571 15.64746,0.37901 21.83379,-0.0612 8.54028,-0.3148 5.23618,-17.5817 14.51314,-17.90277 8.97389,-1.10044 13.16499,-9.13957 12.6883,-17.01342 -2.62296,-6.68098 -7.47113,-12.37734 -5.51473,-20.32079" style="fill:url(#linearGradient16473);fill-opacity:1;fill-rule:evenodd;stroke:url(#linearGradient16475);stroke-width:3.65714288;stroke-linecap:round;stroke-linejoin:round;stroke-miterlimit:4;stroke-opacity:1;stroke-dasharray:none"/>
    <path id="path2206-9" d="m 307.36923,112.7437 c -2.96112,3.60996 -3.49219,4.94952 -4.24827,9.67619 0.0713,3.09089 3.87677,6.99636 6.44872,8.34666 3.6975,2.09452 7.19251,2.06574 11.46638,1.10082 2.34723,-0.45843 5.42677,-2.08796 5.75796,-4.62327 0.59916,-2.98362 1.89982,-12.22389 0.47939,-13.69005 -1.94249,-1.68904 -9.00703,-3.2547 -11.39985,-3.82663 -1.41926,-0.72063 -7.31604,1.79531 -8.50433,3.01628 z" style="fill:url(#linearGradient16470);fill-opacity:1;fill-rule:evenodd;stroke:none"/>
    <path id="path2204-7" d="m 270.81373,111.30227 c -2.70528,2.79541 -3.78265,4.98959 -3.25326,10.5077 0.3788,3.25544 0.62293,6.81157 3.15646,9.00551 8.61243,1.44686 16.32309,-1.08434 17.71287,-3.75034 2.86391,-3.47171 3.73826,-5.8181 3.85909,-10.13967 -0.43757,-4.46852 -4.52383,-8.16652 -8.60802,-7.59324 -3.72944,0.45413 -7.01187,-1.07242 -12.86714,1.97004 z" style="fill:url(#linearGradient16467);fill-opacity:1;fill-rule:evenodd;stroke:none"/>
    <path id="path2228-6" d="m 297.59896,122.93615 c -1.10611,0.36444 -1.99324,3.17624 -2.5068,4.23408 -1.93077,4.71654 -4.8292,12.02474 -3.57046,15.51603 1.48849,0.93164 4.38873,-1.57634 5.4883,-1.19088 1.32583,0.31229 2.93653,1.92939 5.03294,1.56651 1.63847,0.70618 0.13028,-12.5952 -1.77891,-15.54714 -0.85123,-2.21499 -1.27982,-5.035 -2.66507,-4.5786 z" style="fill:url(#linearGradient16464);fill-opacity:1;fill-rule:evenodd;stroke:none"/>
    <path id="path2244-6" d="m 272.82112,149.99336 c 2.61052,6.74233 -0.37428,14.3917 5.47178,16.96321 6.21567,1.85846 12.04955,2.63783 18.50795,2.47839 8.16021,-1.55056 15.83563,1.72631 20.83939,-5.07652 1.87386,-4.19382 0.94765,-11.43589 4.09552,-14.93103" style="fill:none;stroke:url(#linearGradient16461);stroke-width:3.65714288;stroke-linecap:butt;stroke-linejoin:round;stroke-miterlimit:4;stroke-opacity:1;stroke-dasharray:none"/>
    <path id="path2275-7" d="m 294.18946,154.25018 c -0.37103,0.38752 -1.62403,1.27824 -2.1887,2.40757 -0.42188,0.84376 -0.474,3.2092 -0.6566,3.93965 -0.38928,1.55707 0.20574,2.07271 1.31321,2.62644 1.00639,0.50319 2.13876,0.13441 2.84531,-0.21887 0.98689,-0.49345 0.85035,-1.43156 1.09435,-2.40757 0.2545,-1.01799 0,-2.45376 0,-3.50191 0,-1.34262 -0.12443,-1.87539 -0.87548,-2.62644 -0.63179,-0.63179 -0.008,-0.5236 -1.53209,-0.21887 z" style="fill:url(#linearGradient16456);fill-opacity:1;fill-rule:evenodd;stroke:url(#linearGradient16458);stroke-width:1.82857144;stroke-linecap:butt;stroke-linejoin:round;stroke-miterlimit:4;stroke-opacity:1;stroke-dasharray:none"/>
    <path id="path2277-4" d="m 298.2335,153.92693 c -0.0127,-0.0127 -0.93889,2.4423 -1.09435,3.06417 -0.24366,0.97463 0.47321,2.04682 0.21887,3.06418 -0.35834,1.43336 -0.63324,1.98152 0.21887,2.40757 1.12642,0.56321 1.72445,0.59527 2.84531,0.87548 1.34163,0.33541 2.17449,-0.71064 2.62643,-1.31322 0.56585,-0.75446 -0.3074,-2.54284 -0.43774,-3.06418 -0.29725,-1.18899 -0.75428,-1.9463 -1.31322,-3.06417 -0.32017,-0.64035 -1.47346,-1.15983 -1.96983,-1.5321 -0.3143,-0.23573 -0.72956,-0.29182 -1.09434,-0.43773 z" style="fill:url(#linearGradient16451);fill-opacity:1;fill-rule:evenodd;stroke:url(#linearGradient16453);stroke-width:1.82857144;stroke-linecap:butt;stroke-linejoin:round;stroke-miterlimit:4;stroke-opacity:1;stroke-dasharray:none"/>
    <path id="path2279-1" d="m 302.72539,155.4489 c -1.10895,-0.8317 0,2.77235 0,4.15853 0,1.04552 0.0403,2.34987 0.21887,3.06418 0.15901,0.63608 2.17398,0.54349 2.62643,0.65661 1.39587,0.34897 2.34377,-0.529 2.84531,-1.53209 0.46243,-0.92487 -0.65661,-2.25085 -0.65661,-3.28305 0,-1.70755 -0.69665,-2.67982 -1.31322,-3.50192 -0.87206,-1.16275 -3.02761,-0.11679 -3.72078,0.43774 z" style="fill:url(#linearGradient16446);fill-opacity:1;fill-rule:evenodd;stroke:url(#linearGradient16448);stroke-width:1.82857144;stroke-linecap:butt;stroke-linejoin:round;stroke-miterlimit:4;stroke-opacity:1;stroke-dasharray:none"/>
    <path id="path2281-0" d="m 309.29148,154.79229 c -0.005,-0.007 -0.43774,2.9757 -0.43774,3.93966 0,1.26579 -0.20067,2.00623 0.21887,2.84531 0.24519,0.49039 2.31342,0.59424 2.62644,0.43774 1.26761,-0.63381 1.09435,-3.00112 1.09435,-4.3774 0,-0.90738 -1.2345,-2.36821 -1.75096,-2.62644 -0.65421,-0.3271 -0.76946,-0.21887 -1.75096,-0.21887 z" style="fill:url(#linearGradient16441);fill-opacity:1;fill-rule:evenodd;stroke:url(#linearGradient16443);stroke-width:1.82857144;stroke-linecap:butt;stroke-linejoin:round;stroke-miterlimit:4;stroke-opacity:1;stroke-dasharray:none"/>
    <path id="path2283-0" d="m 313.45001,154.35455 c -1.30672,-0.65336 -0.21887,2.91645 -0.21887,4.3774 0,1.45842 -0.69263,1.84885 0.21887,3.06418 0.67542,0.90057 1.82262,-0.80188 2.40756,-1.09435 0.64316,-0.32158 0.43775,-2.37616 0.43775,-3.06418 0,-1.12884 -0.47296,-2.25911 -0.87548,-3.06417 -0.3476,-0.69519 -1.5332,-0.3062 -1.96983,-0.21888 z" style="fill:url(#linearGradient16436);fill-opacity:1;fill-rule:evenodd;stroke:url(#linearGradient16438);stroke-width:1.82857144;stroke-linecap:butt;stroke-linejoin:round;stroke-miterlimit:4;stroke-opacity:1;stroke-dasharray:none"/>
    <path id="path2287-5" d="m 286.52901,155.01116 c 0.005,-0.0103 0.43775,2.74011 0.43775,3.72079 0,0.72714 0.2512,2.13152 0.43774,3.06418 0.27499,1.37499 -1.11378,1.09435 -2.1887,1.09435 -1.18288,0 -1.82613,-0.9757 -2.40757,-1.75096 -0.45456,-0.60609 0.0624,-3.09501 0.21887,-3.72078 0.26746,-1.06983 1.30479,-1.63732 1.96983,-1.96984 0.66704,-0.33352 0.33994,-0.19931 1.53208,-0.43774 z" style="fill:url(#linearGradient16431);fill-opacity:1;fill-rule:evenodd;stroke:url(#linearGradient16433);stroke-width:1.82857144;stroke-linecap:butt;stroke-linejoin:round;stroke-miterlimit:4;stroke-opacity:1;stroke-dasharray:none"/>
    <path id="path2289-3" d="m 281.71388,156.10551 c 0.6803,-0.34014 0,2.4463 0,3.28305 0,1.28608 0.56615,1.49414 0,2.62644 -0.45368,0.90736 -2.66305,-0.34661 -2.84531,-0.43774 -0.88294,-0.44147 -0.87548,-1.82981 -0.87548,-2.84531 0,-1.07569 0.90523,-2.30767 1.09435,-3.06417 0.54382,-2.1753 2.03383,-0.30303 2.62644,0.43773 z" style="fill:url(#linearGradient16426);fill-opacity:1;fill-rule:evenodd;stroke:url(#linearGradient16428);stroke-width:1.82857144;stroke-linecap:butt;stroke-linejoin:round;stroke-miterlimit:4;stroke-opacity:1;stroke-dasharray:none"/>
    <path id="path2291-0" d="m 286.96676,156.76212 c 0.67061,-1.07116 0.64562,-1.80293 2.1887,-2.18869 0.10363,-0.0259 1.9092,1.94621 1.96982,2.18869 0.25681,1.02723 -0.0674,2.57568 0.21888,3.72079 0.38298,1.53196 -0.19642,1.9095 -1.31323,2.1887 -1.55186,0.38796 -1.83358,0.32609 -2.18869,-1.09435 -0.21664,-0.86654 -0.49573,-2.20178 -0.65661,-2.84531 -0.15899,-0.63596 -0.21887,-1.2953 -0.21887,-1.96983 z" style="fill:url(#linearGradient16421);fill-opacity:1;fill-rule:evenodd;stroke:url(#linearGradient16423);stroke-width:1.82857144;stroke-linecap:butt;stroke-linejoin:round;stroke-miterlimit:4;stroke-opacity:1;stroke-dasharray:none"/>
    <path id="path2295-8" d="m 277.99309,155.23003 c 0.30374,0.78747 0.21887,3.26654 0.21887,4.81514 0,1.69667 -0.69128,1.53209 -2.18869,1.53209 -1.19592,0 -1.5321,-0.97515 -1.5321,-2.1887 0,-1.47343 -0.12386,-2.15984 0.65662,-3.72078 0.51911,-1.03823 0.94608,-1.38383 1.53208,-1.96983 0.47562,-0.47562 1.06342,0.90756 1.31322,1.53208 z" style="fill:url(#linearGradient16416);fill-opacity:1;fill-rule:evenodd;stroke:url(#linearGradient16418);stroke-width:1.82857144;stroke-linecap:butt;stroke-linejoin:round;stroke-miterlimit:4;stroke-opacity:1;stroke-dasharray:none"/>
    <path id="path2299-4" d="m 279.74405,163.54709 c -0.82541,-0.82541 0,2.33461 0,3.50192 0,1.32833 0.42718,1.53208 1.75096,1.53208 0.37769,0 0.98778,-2.63788 1.09435,-3.06417 0.25888,-1.03553 0.19972,-2.2653 0,-3.06418 -0.55744,-2.22976 -2.60614,0.49643 -2.84531,1.09435 z" style="fill:url(#linearGradient16411);fill-opacity:1;fill-rule:evenodd;stroke:url(#linearGradient16413);stroke-width:1.82857144;stroke-linecap:butt;stroke-linejoin:round;stroke-miterlimit:4;stroke-opacity:1;stroke-dasharray:none"/>
    <path id="path2301-9" d="m 295.28381,170.11318 c -0.18849,-0.75397 -0.31212,-2.99945 -0.65661,-4.37739 -0.32807,-1.31228 -0.58446,-1.67881 -1.53209,-2.62644 -1.17164,-1.17164 -1.25193,2.31998 -1.31322,2.62644 -0.23898,1.19494 0.62231,1.83261 0.87548,2.8453 0.31033,1.2413 1.04225,1.53209 2.62644,1.53209 z" style="fill:url(#linearGradient16406);fill-opacity:1;fill-rule:evenodd;stroke:url(#linearGradient16408);stroke-width:1.82857144;stroke-linecap:butt;stroke-linejoin:round;stroke-miterlimit:4;stroke-opacity:1;stroke-dasharray:none"/>
    <path id="path2303-4" d="m 295.72155,170.11318 c 0.35433,1.41734 -0.21887,-2.91644 -0.21887,-4.37739 0,-1.40179 -0.38673,-1.5831 0.43774,-2.40757 0.8815,-0.8815 2.23415,1.18525 2.40757,1.53209 0.47658,0.95317 0.65661,1.35588 0.65661,2.84531 0,1.34922 -1.01677,1.49329 -1.96983,1.96982 -1.28512,0.64256 2.77827,-0.38056 -1.31322,0.43774 z" style="fill:url(#linearGradient16401);fill-opacity:1;fill-rule:evenodd;stroke:url(#linearGradient16403);stroke-width:1.82857144;stroke-linecap:butt;stroke-linejoin:round;stroke-miterlimit:4;stroke-opacity:1;stroke-dasharray:none"/>
    <path id="path2305-9" d="m 299.88008,170.11318 c -0.18025,0.0901 -0.21887,-3.22934 -0.21887,-4.15852 0,-1.36796 0.54471,-1.42019 1.31322,-2.1887 1.00699,-1.007 2.16769,1.43113 2.40757,1.75096 0.58435,0.77914 0.13891,2.50852 0,3.06417 -0.10846,0.43383 -2.96976,1.31923 -3.50192,1.53209 z" style="fill:url(#linearGradient16396);fill-opacity:1;fill-rule:evenodd;stroke:url(#linearGradient16398);stroke-width:1.82857144;stroke-linecap:butt;stroke-linejoin:round;stroke-miterlimit:4;stroke-opacity:1;stroke-dasharray:none"/>
    <path id="path2307-1" d="m 292.00076,169.67544 c -0.30236,1.20946 -0.56521,-2.50457 -1.31321,-3.50191 -1.04382,-1.39176 -0.43268,-1.85786 -1.96984,-2.62644 -0.87996,-0.43998 -1.24192,1.82724 -1.53208,2.40757 -0.58801,1.17601 0.62612,2.17345 1.09435,2.40757 0.86719,0.43359 1.08378,1.19849 2.1887,1.75095 0.50992,0.25497 0.74733,0.29627 1.31321,0.43774" style="fill:url(#linearGradient16391);fill-opacity:1;fill-rule:evenodd;stroke:url(#linearGradient16393);stroke-width:1.82857144;stroke-linecap:butt;stroke-linejoin:round;stroke-miterlimit:4;stroke-opacity:1;stroke-dasharray:none"/>
    <path id="path2309-2" d="m 286.09128,168.79997 c 0.32848,0.16424 0,-3.26061 0,-4.15853 0,-1.70318 -0.15149,-1.31322 -1.96983,-1.31322 -1.25671,0 -1.09435,2.12692 -1.09435,3.28305 0,1.52734 0.0734,1.8971 1.09435,2.40757 0.92781,0.4639 0.80708,0.65318 1.96983,-0.21887 z" style="fill:url(#linearGradient16386);fill-opacity:1;fill-rule:evenodd;stroke:url(#linearGradient16388);stroke-width:1.82857144;stroke-linecap:butt;stroke-linejoin:round;stroke-miterlimit:4;stroke-opacity:1;stroke-dasharray:none"/>
    <path id="path2311-0" d="m 304.69521,169.45657 c 1.19078,0.5954 0.0612,-2.74888 0.65661,-3.93965 0.49117,-0.98234 1.89526,-1.31322 2.84531,-1.31322 1.38584,0 1.09435,1.17705 1.09435,2.40757 0,0.79458 -1.20425,1.64198 -1.75096,2.1887 -0.56969,0.56968 -1.95018,0.6566 -2.84531,0.6566 z" style="fill:url(#linearGradient16381);fill-opacity:1;fill-rule:evenodd;stroke:url(#linearGradient16383);stroke-width:1.82857144;stroke-linecap:butt;stroke-linejoin:round;stroke-miterlimit:4;stroke-opacity:1;stroke-dasharray:none"/>
    <path id="path2313-1" d="m 310.16696,168.14336 c -0.51598,0.51597 0.0934,-2.12472 0.65661,-4.3774 0.29551,-1.18206 1.61383,-0.85504 2.40757,-0.65661 1.23099,0.30775 0.46128,2.36048 0.21887,2.84531 -0.62313,1.24626 -1.88768,2.1887 -3.28305,2.1887 z" style="fill:url(#linearGradient16376);fill-opacity:1;fill-rule:evenodd;stroke:url(#linearGradient16378);stroke-width:1.82857144;stroke-linecap:butt;stroke-linejoin:round;stroke-miterlimit:4;stroke-opacity:1;stroke-dasharray:none"/>
    <path id="path2353-5" d="m 296.02557,58.78565 c -0.41271,1.13494 0.61905,3.55271 0.61905,5.381 0,0.83393 -3.2379,4.66722 -2.78575,5.57152 0.65156,1.30312 2.42312,2.42312 2.78575,2.78575 0.24679,0.24679 -5.68363,-0.76926 -6.5001,1.85718 -0.69911,2.24892 -3.12929,-2.00116 -5.3682,-1.44143 -1.53312,0.38328 -4.45315,5.73304 -5.77483,6.39389 -1.91714,0.95857 -3.79036,-2.37548 -4.3334,-0.20332 -0.3806,1.52239 -0.26902,2.62373 -0.61906,4.02387 -0.63508,2.54032 1.01496,-0.94658 -3.09529,-0.26154 -1.87375,0.31229 -2.1667,-0.78128 -2.1667,3.40481 0,0.099 -3.83343,1.95248 -4.3334,2.78576 -0.96946,1.61577 -4.51483,3.49626 -5.05717,5.66563 -0.70823,2.83291 -6.68343,-0.16073 -8.14244,1.29828" style="fill:none;stroke:url(#linearGradient16373);stroke-width:1.82857144;stroke-linecap:round;stroke-linejoin:round;stroke-miterlimit:4;stroke-opacity:1;stroke-dasharray:none"/>
    <path id="path2357-3" d="m 296.34457,73.3023 c 1.34129,-1.34129 10.4793,-1.45111 11.21915,0.0286 0.89719,1.79438 2.27028,3.28075 3.09528,2.78576 1.22911,-0.73747 3.20956,-1.23812 4.64293,-1.23812 2.97865,0 4.34001,2.48943 5.57152,4.95246 0.88611,1.77221 3.18551,-1.23811 5.57152,-1.23811 2.44536,0 3.64188,1.21844 3.09528,3.40481 -0.23661,0.94646 3.03279,2.1042 3.71435,2.78576 1.73735,1.73734 -0.66973,3.31477 2.1667,4.02387 2.60749,0.65187 7.51341,2.3427 9.1312,2.74715" style="fill:none;stroke:url(#linearGradient16370);stroke-width:1.82857144;stroke-linecap:round;stroke-linejoin:round;stroke-miterlimit:4;stroke-opacity:1;stroke-dasharray:none"/>
    <path id="path2375-9" d="m 270.77039,102.4824 c 2.27011,0.11564 7.30726,-1.31322 10.94349,-1.31322 3.80977,0 6.46028,-0.27177 9.63028,1.31322 0.59136,0.29569 1.18298,0.5915 1.75095,0.87549" style="fill:none;stroke:url(#linearGradient16367);stroke-width:1.82857144;stroke-linecap:round;stroke-linejoin:round;stroke-miterlimit:4;stroke-opacity:1;stroke-dasharray:none"/>
    <path id="path2377-5" d="m 304.47634,103.35789 c 1.57353,-1.29251 4.94821,-3.06418 7.44158,-3.06418 2.77109,0 5.08038,0 7.87931,0 1.75096,0 3.50192,0 5.25288,0" style="fill:none;stroke:url(#linearGradient16364);stroke-width:1.82857144;stroke-linecap:round;stroke-linejoin:round;stroke-miterlimit:4;stroke-opacity:1;stroke-dasharray:none"/>
    <path style="fill:url(#linearGradient16359);fill-opacity:1;fill-rule:evenodd;stroke:url(#linearGradient16361);stroke-width:3.65714288;stroke-linecap:round;stroke-linejoin:round;stroke-miterlimit:4;stroke-opacity:1;stroke-dasharray:none" d="m 293.25412,27.66838 11.55532,40.20735 24.23598,-34.72425 c -10.59996,14.80135 -25.20225,26.64899 -35.7913,-5.4831 z" id="path3238"/>
    <path id="path3242" d="m 318.16684,27.83066 0.98112,41.82336 32.24966,-27.44293 C 337.39059,53.84046 320.26114,61.5977 318.16684,27.83066 z" style="fill:url(#linearGradient16354);fill-opacity:1;fill-rule:evenodd;stroke:url(#linearGradient16356);stroke-width:3.65714288;stroke-linecap:round;stroke-linejoin:round;stroke-miterlimit:4;stroke-opacity:1;stroke-dasharray:none"/>
    <path style="fill:url(#linearGradient16349);fill-opacity:1;fill-rule:evenodd;stroke:url(#linearGradient16351);stroke-width:3.65714288;stroke-linecap:round;stroke-linejoin:round;stroke-miterlimit:4;stroke-opacity:1;stroke-dasharray:none" d="m 248.13358,37.88382 28.39487,30.72274 6.04161,-41.91245 c -2.81581,17.98639 -10.53449,35.13325 -34.43648,11.18971 z" id="path3254"/>
    <path id="path3258" d="m 230.60126,57.30277 35.48526,22.15742 -5.21289,-42.02356 c 2.02185,18.09284 -0.90715,36.66739 -30.27237,19.86614 z" style="fill:url(#linearGradient16344);fill-opacity:1;fill-rule:evenodd;stroke:url(#linearGradient16346);stroke-width:3.65714288;stroke-linecap:round;stroke-linejoin:round;stroke-miterlimit:4;stroke-opacity:1;stroke-dasharray:none"/>
    <path style="fill:url(#linearGradient16339);fill-opacity:1;fill-rule:evenodd;stroke:url(#linearGradient16341);stroke-width:3.65714288;stroke-linecap:round;stroke-linejoin:round;stroke-miterlimit:4;stroke-opacity:1;stroke-dasharray:none" d="m 268.27121,85.3712 19.12142,-37.20924 17.05423,38.75963 C 296.91324,70.34801 284.88115,55.89734 268.27121,85.3712 z" id="path3266"/>
    <path id="path3268" d="M 284.59509,81.25603 305.99675,45.30989 320.60396,85.0564 C 314.11715,68.04581 303.0084,52.87384 284.59509,81.25603 z" style="fill:url(#linearGradient16334);fill-opacity:1;fill-rule:evenodd;stroke:url(#linearGradient16336);stroke-width:3.65714288;stroke-linecap:round;stroke-linejoin:round;stroke-miterlimit:4;stroke-opacity:1;stroke-dasharray:none"/>
    <path style="fill:url(#linearGradient16329);fill-opacity:1;fill-rule:evenodd;stroke:url(#linearGradient16331);stroke-width:3.65714288;stroke-linecap:round;stroke-linejoin:round;stroke-miterlimit:4;stroke-opacity:1;stroke-dasharray:none" d="m 297.02597,79.3501 29.04326,-30.11059 5.14694,42.03173 C 328.78435,73.22891 321.43288,55.92142 297.02597,79.3501 z" id="path3270"/>
    <path id="path3272" d="m 307.60394,77.11554 37.80066,-17.92391 -10.01723,41.14378 c 4.09179,-17.73968 3.32114,-36.52795 -27.78343,-23.21987 z" style="fill:url(#linearGradient16324);fill-opacity:1;fill-rule:evenodd;stroke:url(#linearGradient16326);stroke-width:3.65714288;stroke-linecap:round;stroke-linejoin:round;stroke-miterlimit:4;stroke-opacity:1;stroke-dasharray:none"/>
    <path id="path3274" d="m 257.50529,91.24819 11.44885,-40.23777 24.3278,34.65995 C 282.64284,70.89714 268.00925,59.0882 257.50529,91.24819 z" style="fill:url(#linearGradient16319);fill-opacity:1;fill-rule:evenodd;stroke:url(#linearGradient16321);stroke-width:3.65714288;stroke-linecap:round;stroke-linejoin:round;stroke-miterlimit:4;stroke-opacity:1;stroke-dasharray:none"/>
    <path id="path3204" d="m 270.5978,29.99304 19.12141,37.20924 17.05424,-38.75963 c -7.53362,16.57358 -19.56572,31.02426 -36.17565,1.55039 z" style="fill:url(#linearGradient16314);fill-opacity:1;fill-rule:evenodd;stroke:url(#linearGradient16316);stroke-width:3.65714288;stroke-linecap:round;stroke-linejoin:round;stroke-miterlimit:4;stroke-opacity:1;stroke-dasharray:none"/>
    <path style="fill:url(#linearGradient16309);fill-opacity:1;fill-rule:evenodd;stroke:url(#linearGradient16311);stroke-width:3.65714288;stroke-linecap:round;stroke-linejoin:round;stroke-miterlimit:4;stroke-opacity:1;stroke-dasharray:none" d="m 336.65171,35.07786 -4.68459,41.57176 35.66504,-22.82895 c -15.45121,9.62804 -33.47245,14.99721 -30.98045,-18.74281 z" id="path3246"/>
    <path style="fill:url(#linearGradient16304);fill-opacity:1;fill-rule:evenodd;stroke:url(#linearGradient16306);stroke-width:3.65714288;stroke-linecap:round;stroke-linejoin:round;stroke-miterlimit:4;stroke-opacity:1;stroke-dasharray:none" d="m 220.47161,74.93054 40.01404,12.20784 -15.92188,-39.23835 c 6.6401,16.95134 8.62317,35.65055 -24.09216,27.03051 z" id="path3262"/>
    <path style="fill:url(#linearGradient16299);fill-opacity:1;fill-rule:evenodd;stroke:url(#linearGradient16301);stroke-width:3.65714288;stroke-linecap:round;stroke-linejoin:round;stroke-miterlimit:4;stroke-opacity:1;stroke-dasharray:none" d="m 368.86548,70.24866 -39.51439,13.73932 35.99906,22.29849 c -15.35948,-9.7737 -27.98882,-23.70543 3.51533,-36.03781 z" id="path3290"/>
    <path id="path3294" d="m 227.77298,67.76809 38.50086,16.36579 -37.41725,19.82685 c 15.98204,-8.71855 29.51977,-21.76933 -1.08361,-36.19264 z" style="fill:url(#linearGradient16294);fill-opacity:1;fill-rule:evenodd;stroke:url(#linearGradient16296);stroke-width:3.65714288;stroke-linecap:round;stroke-linejoin:round;stroke-miterlimit:4;stroke-opacity:1;stroke-dasharray:none"/>
    <path style="fill:url(#linearGradient16289);fill-opacity:1;fill-rule:evenodd;stroke:url(#linearGradient16291);stroke-width:3.65714288;stroke-linecap:round;stroke-linejoin:round;stroke-miterlimit:4;stroke-opacity:1;stroke-dasharray:none" d="M 222.15737,88.80469 262.4715,77.62761 245.54803,116.4445 c 7.07287,-16.77538 9.5351,-35.41755 -23.39066,-27.63981 z" id="path3298"/>
    <path style="fill:url(#linearGradient16284);fill-opacity:1;fill-rule:evenodd;stroke:url(#linearGradient16286);stroke-width:3.65714288;stroke-linecap:round;stroke-linejoin:round;stroke-miterlimit:4;stroke-opacity:1;stroke-dasharray:none" d="m 239.3013,103.82526 10.87963,-40.3954 24.8147,34.31304 c -10.8466,-14.62155 -25.64545,-26.22272 -35.69433,6.08236 z" id="path3276"/>
    <path id="path3302" d="m 372.38205,92.03058 -36.84371,-19.81659 7.91921,41.59858 c -3.18749,-17.92426 -1.46564,-36.64933 28.9245,-21.78199 z" style="fill:url(#linearGradient16279);fill-opacity:1;fill-rule:evenodd;stroke:url(#linearGradient16281);stroke-width:3.65714288;stroke-linecap:round;stroke-linejoin:round;stroke-miterlimit:4;stroke-opacity:1;stroke-dasharray:none"/>
    <path id="path3250" d="m 356.72591,48.70282 -24.08415,34.20688 42.2474,-2.88312 c -18.17692,1.01913 -36.56127,-2.93165 -18.16325,-31.32376 z" style="fill:url(#linearGradient16274);fill-opacity:1;fill-rule:evenodd;stroke:url(#linearGradient16276);stroke-width:3.65714288;stroke-linecap:round;stroke-linejoin:round;stroke-miterlimit:4;stroke-opacity:1;stroke-dasharray:none"/>
  </g>
</svg>