<?xml version="1.0" encoding="utf-8"?>
<svg viewBox="400 0 200 200" xmlns="http://www.w3.org/2000/svg" xmlns:xlink="http://www.w3.org/1999/xlink">
  <defs>
    <linearGradient id="linearGradient16268" gradientUnits="userSpaceOnUse" gradientTransform="matrix(0.20752777,0,0,0.20252572,402.21129,21.42122)" x1="474.40475" y1="587.78589" x2="504.64395" y2="893.35999" xlink:href="#linearGradientBlackPieces"/>
    <linearGradient id="linearGradientBlackPieces">
      <stop style="stop-color:#a08060;stop-opacity:1" offset="0" id="stop5177"/>
      <stop style="stop-color:#000000;stop-opacity:1;" offset="1" id="stop5179"/>
    </linearGradient>
    <linearGradient id="linearGradient16270" gradientUnits="userSpaceOnUse" x1="442.63852" y1="830.45563" x2="551.50421" y2="830.45563" gradientTransform="translate(0,-652.362)" xlink:href="#linearGradientBlackPiecesBorder"/>
    <linearGradient id="linearGradientBlackPiecesBorder">
      <stop style="stop-color:#000000;stop-opacity:1;" offset="0" id="stop4006"/>
      <stop style="stop-color:#000000;stop-opacity:1;" offset="1" id="stop4008"/>
    </linearGradient>
    <linearGradient id="linearGradient16263" gradientUnits="userSpaceOnUse" gradientTransform="matrix(0.12666217,0,0,0.16138286,444.57813,54.5045)" x1="128.10062" y1="181.86472" x2="740.29462" y2="596.77478" xlink:href="#linearGradientBlackPieces"/>
    <linearGradient id="linearGradient16265" gradientUnits="userSpaceOnUse" x1="466.40829" y1="785.33112" x2="521.17554" y2="785.33112" gradientTransform="translate(0,-652.362)" xlink:href="#linearGradientBlackPiecesBorder"/>
    <linearGradient id="linearGradient16258" gradientUnits="userSpaceOnUse" gradientTransform="matrix(0.12666217,0,0,0.16138286,450.40462,60.03275)" x1="416.0477" y1="150.12955" x2="825.8576" y2="861.172" xlink:href="#linearGradientBlackPieces"/>
    <linearGradient id="linearGradient16260" gradientUnits="userSpaceOnUse" x1="479.66254" y1="786.77814" x2="528.02679" y2="786.77814" gradientTransform="translate(0,-652.362)" xlink:href="#linearGradientBlackPiecesBorder"/>
    <linearGradient id="linearGradient16255" gradientUnits="userSpaceOnUse" x1="447.76126" y1="831.96173" x2="474.34143" y2="831.96173" gradientTransform="translate(0,-652.362)" xlink:href="#linearGradientBlackPiecesBorder"/>
    <linearGradient id="linearGradient16252" gradientUnits="userSpaceOnUse" x1="473.91318" y1="834.32428" x2="544.76227" y2="834.32428" gradientTransform="translate(0,-652.362)" xlink:href="#linearGradientBlackPiecesBorder"/>
    <linearGradient id="linearGradient16247" gradientUnits="userSpaceOnUse" gradientTransform="matrix(0.23650492,0,0,0.23210126,397.36069,-0.26058)" x1="313.02646" y1="310.0217" x2="436.50671" y2="310.0217" xlink:href="#linearGradientBlackPieces"/>
    <linearGradient id="linearGradient16249" gradientUnits="userSpaceOnUse" x1="471.41071" y1="724.0578" x2="500.57901" y2="724.0578" gradientTransform="translate(0,-652.362)" xlink:href="#linearGradientBlackPiecesBorder"/>
    <linearGradient id="linearGradient16242" gradientUnits="userSpaceOnUse" gradientTransform="matrix(0.23650492,0,0,0.23210126,397.44184,11.79502)" x1="217.99556" y1="116.56352" x2="650.22534" y2="599.48517" xlink:href="#linearGradientBlackPieces"/>
    <linearGradient id="linearGradient16244" gradientUnits="userSpaceOnUse" x1="422.84702" y1="723.84576" x2="570.11725" y2="723.84576" gradientTransform="translate(0,-652.362)" xlink:href="#linearGradientBlackPiecesBorder"/>
    <linearGradient id="linearGradient16635" gradientUnits="userSpaceOnUse" x1="237.99997" y1="321.00003" x2="566" y2="321.00003" xlink:href="#linearGradientBlackPiecesBorder"/>
    <linearGradient id="linearGradient16238" gradientUnits="userSpaceOnUse" x1="480.60004" y1="676.47284" x2="513.27783" y2="676.47284" gradientTransform="translate(0,-652.362)" xlink:href="#linearGradientBlackPiecesBorder"/>
    <linearGradient id="linearGradient16233" gradientUnits="userSpaceOnUse" gradientTransform="matrix(0.23650492,0,0,0.23210126,397.36069,-0.26058)" x1="749.64923" y1="506.85049" x2="297.93896" y2="301.25592" xlink:href="#linearGradientBlackPieces"/>
    <linearGradient id="linearGradient16235" gradientUnits="userSpaceOnUse" x1="475.8024" y1="738.32703" x2="528.16675" y2="738.32703" gradientTransform="translate(0,-652.362)" xlink:href="#linearGradientBlackPiecesBorder"/>
    <linearGradient id="linearGradient16230" gradientUnits="userSpaceOnUse" x1="428.48889" y1="735.7572" x2="437.39731" y2="735.7572" gradientTransform="translate(0,-652.362)" xlink:href="#linearGradientBlackPiecesBorder"/>
    <linearGradient id="linearGradient16227" gradientUnits="userSpaceOnUse" x1="539.29779" y1="721.87408" x2="562.30157" y2="721.87408" gradientTransform="translate(0,-652.362)" xlink:href="#linearGradientBlackPiecesBorder"/>
    <linearGradient id="linearGradient16222" gradientUnits="userSpaceOnUse" gradientTransform="matrix(0.21089623,0,0,0.20696937,408.15849,7.81689)" x1="242.74734" y1="227.95091" x2="563.46429" y2="472.00671" xlink:href="#linearGradientBlackPieces"/>
    <linearGradient id="linearGradient16224" gradientUnits="userSpaceOnUse" x1="477.81613" y1="736.05231" x2="524.61011" y2="736.05231" gradientTransform="translate(0,-652.362)" xlink:href="#linearGradientBlackPiecesBorder"/>
    <linearGradient id="linearGradient16217" gradientUnits="userSpaceOnUse" gradientTransform="matrix(0.23650492,0,0,0.23210126,395.68834,0.06766)" x1="379.49451" y1="419.62323" x2="420.95035" y2="419.62323" xlink:href="#linearGradientBlackPieces"/>
    <linearGradient id="linearGradient16219" gradientUnits="userSpaceOnUse" x1="485.9314" y1="749.33234" x2="495.89645" y2="749.33234" gradientTransform="translate(0,-652.362)" xlink:href="#linearGradientBlackPiecesBorder"/>
    <linearGradient id="linearGradient16212" gradientUnits="userSpaceOnUse" gradientTransform="matrix(0.23650492,0,0,0.23210126,397.36069,-0.26058)" x1="459" y1="322" x2="539" y2="322" xlink:href="#linearGradientBlackPieces"/>
    <linearGradient id="linearGradient16214" gradientUnits="userSpaceOnUse" x1="505.93417" y1="726.83801" x2="524.81915" y2="726.83801" gradientTransform="translate(0,-652.362)" xlink:href="#linearGradientBlackPiecesBorder"/>
    <linearGradient id="linearGradient16209" gradientUnits="userSpaceOnUse" x1="486.30545" y1="688.69989" x2="489.61386" y2="688.69989" gradientTransform="translate(0,-652.362)" xlink:href="#linearGradientBlackPiecesBorder"/>
    <linearGradient id="linearGradient16206" gradientUnits="userSpaceOnUse" x1="438.85294" y1="726.84784" x2="460.22263" y2="726.84784" gradientTransform="translate(0,-652.362)" xlink:href="#linearGradientBlackPiecesBorder"/>
  </defs>
  <g id="BlackRook">
    <rect y="0.00018261719" x="400" height="200" width="200" id="rect4651-15" style="fill:none;stroke:none"/>
    <path id="path2213" d="m 444.64308,163.20022 -0.13021,14.97909 26.53885,17.20601 78.57817,-1.41078 -0.0945,-12.8464 -25.39943,-20.32622 -79.49289,2.3983 z" style="fill:url(#linearGradient16268);fill-opacity:1;fill-rule:evenodd;stroke:url(#linearGradient16270);stroke-width:3.74868512;stroke-linecap:round;stroke-linejoin:round;stroke-miterlimit:4;stroke-opacity:1;stroke-dasharray:none"/>
    <path id="path2275-74" d="m 477.9202,90.04855 c -0.78273,0.33332 -1.22931,1.52657 -1.25644,3.74263 -0.28954,23.65111 -5.70227,66.29774 -8.38114,74.7366 l 11.29311,7.36196 39.72545,-5.82429 c 0,0 -14.12777,-45.10616 -29.28227,-67.54871 -2.46301,-0.29956 -4.81607,-0.9631 -6.99907,-1.93659 -2.48033,-2.99697 -4.26147,-6.58906 -5.09964,-10.5316 z" style="fill:url(#linearGradient16263);fill-opacity:1;fill-rule:evenodd;stroke:url(#linearGradient16265);stroke-width:3.74868512;stroke-linecap:round;stroke-linejoin:round;stroke-miterlimit:4;stroke-opacity:1;stroke-dasharray:none"/>
    <path id="path1331" d="m 512.67904,92.87729 c -4.48992,5.96152 -11.6282,9.82078 -19.65948,9.82078 -2.78914,0 -5.47434,-0.46372 -7.97465,-1.32008 3.29782,34.41721 -4.31656,72.78057 -3.43671,74.57703 l 44.54423,-0.86313 c 0,0 -12.68007,-47.50842 -8.44766,-75.01947 -2.64109,-1.84574 -3.02972,-6.07668 -5.02573,-7.19513 z" style="fill:url(#linearGradient16258);fill-opacity:1;fill-rule:evenodd;stroke:url(#linearGradient16260);stroke-width:3.74868512;stroke-linecap:round;stroke-linejoin:round;stroke-miterlimit:4;stroke-opacity:1;stroke-dasharray:none"/>
    <path id="path2215" d="m 449.63561,167.79358 22.83147,14.70114 -0.41505,8.91114" style="fill:none;stroke:url(#linearGradient16255);stroke-width:3.74868512;stroke-linecap:round;stroke-linejoin:round;stroke-miterlimit:4;stroke-opacity:1;stroke-dasharray:none"/>
    <path id="path2217" d="m 475.78753,182.35934 67.10037,-0.79409" style="fill:none;stroke:url(#linearGradient16252);stroke-width:3.74868512;stroke-linecap:round;stroke-linejoin:round;stroke-miterlimit:4;stroke-opacity:1;stroke-dasharray:none"/>
    <path id="path2271" d="m 475.62633,73.17292 13.37874,-0.32825 0,-9.51898 9.03065,-2.29768 0.66894,21.33564 -25.41961,-0.32824 2.34128,-8.86249 z" style="fill:url(#linearGradient16247);fill-opacity:1;fill-rule:evenodd;stroke:url(#linearGradient16249);stroke-width:3.74868417;stroke-linecap:round;stroke-linejoin:round;stroke-miterlimit:4;stroke-opacity:1;stroke-dasharray:none"/>
    <path id="path3341" d="m 510.79439,18.7427 -33.53197,0.76884 2.75676,22.83296 C 469.7365,45.11457 457.135,56.59269 455.03095,69.0579 l -30.30959,-2.33552 1.38207,31.05079 10.41361,3.77165 21.69933,-4.91765 c 7.33035,18.30544 21.76366,22.25285 30.98955,25.41509 23.83138,8.16837 45.02394,-7.95447 50.38295,-25.76324 l 27.27198,0.44244 1.38208,-31.51499 -11.31528,-2.65466 -19.2456,2.0599 C 532.65968,54.27425 528.85276,48.42555 515.28799,42.98278 l 1.68509,-20.46843 -6.17869,-3.77165 z m -9.29021,41.56063 c 0.0524,-9.9e-4 0.10274,6.6e-4 0.1552,0 0.10576,-0.001 0.21174,0 0.31781,0 3.55932,0 6.94444,0.75544 9.99972,2.11792 3.52343,4.25735 5.63917,9.71967 5.63917,15.67409 0,13.5807 -11.01924,24.60273 -24.59652,24.60273 -3.55932,0 -6.94444,-0.75545 -9.99972,-2.11792 -3.52343,-4.25735 -5.63917,-9.71968 -5.63917,-15.67409 0,-13.42197 10.76517,-24.34921 24.12351,-24.60273 z" style="opacity:0.98999999;fill:url(#linearGradient16242);fill-opacity:1;fill-rule:evenodd;stroke:url(#linearGradient16244);stroke-width:3.74868417;stroke-linecap:round;stroke-linejoin:round;stroke-miterlimit:4;stroke-opacity:1;stroke-dasharray:none;stroke-dashoffset:0"/>
    <path transform="matrix(0.23650491,0,0,0.23210126,406.42903,9.93821)" d="m 561.99997,321.00003 a 160,162 0 1 1 -320,0 160,162 0 1 1 320,0 z" id="path2446" style="opacity:0.98999999;fill:none;stroke:url(#linearGradient16635);stroke-width:8;stroke-linecap:round;stroke-linejoin:round;stroke-miterlimit:4;stroke-opacity:1;stroke-dasharray:none;stroke-dashoffset:0"/>
    <path id="path3329" d="m 481.53721,22.77846 5.97109,2.6647 24.83235,-0.80931" style="fill:none;stroke:url(#linearGradient16238);stroke-width:1.87434208;stroke-linecap:round;stroke-linejoin:round;stroke-miterlimit:4;stroke-opacity:1;stroke-dasharray:none"/>
    <path id="path3345" d="m 511.97691,62.42125 c 3.52343,4.25735 5.63917,9.71967 5.63917,15.67409 0,13.5807 -11.01924,24.60273 -24.59652,24.60273 -3.55932,0 -6.94444,-0.75545 -9.99972,-2.11792 4.51273,5.45271 11.33298,8.92864 18.95735,8.92864 13.57728,0 24.59651,-11.02202 24.59652,-24.60273 0,-10.02049 -5.99748,-18.65001 -14.5968,-22.48481 z m -33.71674,15.94971 c -0.0222,0.0806 -0.0452,0.15844 -0.0665,0.23935 0.0212,-0.0803 0.0445,-0.15939 0.0665,-0.23935 z m -0.86472,7.44174 c 0.002,0.0455 0.005,0.0924 0.007,0.13781 -0.002,-0.046 -0.006,-0.0917 -0.007,-0.13781 z m 0.007,0.20309 c 0.002,0.0453 0.005,0.0925 0.007,0.13781 -0.002,-0.046 -0.005,-0.0918 -0.007,-0.13781 z m 0.007,0.15957 c 0.002,0.0399 0.005,0.0762 0.007,0.11605 -0.002,-0.0391 -0.005,-0.0769 -0.007,-0.11605 z m 0.0517,0.73257 c 0.003,0.0408 0.004,0.0826 0.007,0.12331 -0.003,-0.0405 -0.004,-0.0828 -0.007,-0.12331 z m 0.0443,0.51498 c 0.008,0.0789 0.0208,0.15343 0.0296,0.2321 -0.009,-0.078 -0.0216,-0.15392 -0.0296,-0.2321 z m 0.0813,0.72531 c 0.005,0.0393 0.0168,0.0768 0.0222,0.11605 -0.005,-0.0401 -0.0169,-0.0759 -0.0222,-0.11605 z m 1.52989,5.84605 c 0.009,0.0229 0.013,0.0497 0.0222,0.0725 -0.01,-0.0244 -0.0125,-0.0481 -0.0222,-0.0725 z m 3.03761,5.47614 c 0.0219,0.0297 0.0445,0.0574 0.0665,0.087 -0.0218,-0.0294 -0.0448,-0.0575 -0.0665,-0.087 z" style="opacity:0.98999999;fill:url(#linearGradient16233);fill-opacity:1;fill-rule:evenodd;stroke:url(#linearGradient16235);stroke-width:3.18607593;stroke-linecap:round;stroke-linejoin:round;stroke-miterlimit:4;stroke-opacity:1;stroke-dasharray:none;stroke-dashoffset:0"/>
    <path id="path3357" d="m 429.42607,70.96088 6.93437,3.09149 0.0997,21.77714" style="fill:none;stroke:url(#linearGradient16230);stroke-width:1.87434018;stroke-linecap:round;stroke-linejoin:round;stroke-miterlimit:4;stroke-opacity:1;stroke-dasharray:none"/>
    <path id="path3365" d="M 540.23498,70.66935 561.3644,68.3548" style="fill:none;stroke:url(#linearGradient16227);stroke-width:1.87434077;stroke-linecap:round;stroke-linejoin:round;stroke-miterlimit:4;stroke-opacity:1;stroke-dasharray:none"/>
    <path id="path1369" d="m 500.93301,61.75824 c -2.52758,0.0324 -4.95354,0.50508 -7.20341,1.33883 l 0.47451,1.22241 0,13.24603 -13.49735,0 -0.2768,-0.27812 c -0.61261,2.02617 -0.94244,4.17549 -0.94244,6.40311 0,1.97502 0.25902,3.89021 0.74472,5.71106 l 13.97187,-0.24577 0,14.90178 -0.22408,0.31692 c 2.26265,0.80667 4.70124,1.24828 7.23638,1.24828 2.70146,0 4.57504,-0.7314 6.96183,-1.64208 l -0.26588,-0.751 0.21089,0 -0.42178,-14.0739 14.4332,0.46567 c 0.52438,-1.88661 0.80404,-3.87601 0.80404,-5.93096 0,-2.42955 -0.39011,-4.76802 -1.1138,-6.95287 l -14.12344,0 0.84358,-12.41815 0.71836,-1.00251 c -2.48998,-1.00402 -5.20337,-1.55873 -8.047,-1.55873 -0.0937,0 -0.18997,-10e-4 -0.2834,0 z" style="fill:url(#linearGradient16222);fill-opacity:1;fill-rule:evenodd;stroke:url(#linearGradient16224);stroke-width:3.34277487;stroke-linecap:round;stroke-linejoin:round;stroke-miterlimit:4;stroke-opacity:1;stroke-dasharray:none"/>
    <path id="path2269" d="m 487.80573,89.91319 0.19593,10.83194 6.02044,3.28241 -0.66894,-13.78611 -5.54743,-0.32824 z" style="fill:url(#linearGradient16217);fill-opacity:1;fill-rule:evenodd;stroke:url(#linearGradient16219);stroke-width:3.74868417;stroke-linecap:round;stroke-linejoin:round;stroke-miterlimit:4;stroke-opacity:1;stroke-dasharray:none"/>
    <path id="path3162" d="m 508.75453,72.3871 c 1.65554,0 8.51418,0 8.51418,0 l 5.67612,4.17782 -15.13632,0 0.94602,-4.17782 z" style="fill:url(#linearGradient16212);fill-opacity:1;fill-rule:evenodd;stroke:url(#linearGradient16214);stroke-width:3.74868417;stroke-linecap:round;stroke-linejoin:round;stroke-miterlimit:4;stroke-opacity:1;stroke-dasharray:none"/>
    <path id="path3172" d="m 488.6767,44.20917 -1.43407,-15.7425" style="fill:none;stroke:url(#linearGradient16209);stroke-width:1.87434018;stroke-linecap:round;stroke-linejoin:round;stroke-miterlimit:4;stroke-opacity:1;stroke-dasharray:none"/>
    <path id="path3174" d="m 459.28547,74.47935 -19.49537,0.013" style="fill:none;stroke:url(#linearGradient16206);stroke-width:1.87434018;stroke-linecap:round;stroke-linejoin:round;stroke-miterlimit:4;stroke-opacity:1;stroke-dasharray:none"/>
  </g>
</svg>