<?xml version="1.0" encoding="utf-8"?>
<svg viewBox="600 200 200 200" xmlns="http://www.w3.org/2000/svg" xmlns:xlink="http://www.w3.org/1999/xlink">
  <defs>
    <linearGradient id="linearGradient15484" gradientUnits="userSpaceOnUse" gradientTransform="matrix(0.16621349,0,0,0.19465989,628.27205,225.46461)" x1="224.16286" y1="330.27112" x2="603.85291" y2="818.84363" xlink:href="#linearGradientWhitePieces"/>
    <linearGradient id="linearGradientWhitePieces">
      <stop style="stop-color:#ffffff;stop-opacity:1;" offset="0" id="stop5177-6"/>
      <stop style="stop-color:#000000;stop-opacity:1;" offset="1" id="stop5179-8"/>
    </linearGradient>
    <linearGradient id="linearGradient15486" gradientUnits="userSpaceOnUse" gradientTransform="translate(0,-452.362)" x1="638.94916" y1="765.56342" x2="760.61444" y2="765.56342" xlink:href="#linearGradientWhitePiecesBorder"/>
    <linearGradient id="linearGradientWhitePiecesBorder">
      <stop style="stop-color:#000000;stop-opacity:1;" offset="0" id="stop7816"/>
      <stop style="stop-color:#000000;stop-opacity:1;" offset="1" id="stop7818"/>
    </linearGradient>
    <linearGradient id="linearGradient15479" gradientUnits="userSpaceOnUse" gradientTransform="matrix(0.22857143,0,0,0.22857143,612.99887,197.41419)" x1="158.89351" y1="777.17603" x2="380.3736" y2="865.88708" xlink:href="#linearGradientWhitePieces"/>
    <linearGradient id="linearGradient15481" gradientUnits="userSpaceOnUse" gradientTransform="translate(0,-452.362)" x1="646.81274" y1="828.37061" x2="692.35657" y2="828.37061" xlink:href="#linearGradientWhitePiecesBorder"/>
    <linearGradient id="linearGradient15476" gradientUnits="userSpaceOnUse" gradientTransform="translate(0,-452.362)" x1="653.68457" y1="829.35376" x2="672.69208" y2="829.35376" xlink:href="#linearGradientWhitePiecesBorder"/>
    <linearGradient id="linearGradient15473" gradientUnits="userSpaceOnUse" gradientTransform="translate(0,-452.362)" x1="667.30975" y1="768.87933" x2="717.39886" y2="768.87933" xlink:href="#linearGradientWhitePiecesBorder"/>
    <linearGradient id="linearGradient15468" gradientUnits="userSpaceOnUse" gradientTransform="matrix(0.2349088,-0.0222509,0.02074117,0.21897029,589.12197,221.89266)" x1="588.7981" y1="217.56953" x2="848.7243" y2="456.71457" xlink:href="#linearGradientWhitePieces"/>
    <linearGradient id="linearGradient15470" gradientUnits="userSpaceOnUse" gradientTransform="translate(0,-452.362)" x1="696.2522" y1="764.69159" x2="777.38123" y2="764.69159" xlink:href="#linearGradientWhitePiecesBorder"/>
    <linearGradient id="linearGradient15463" gradientUnits="userSpaceOnUse" gradientTransform="matrix(0.22857143,0,0,0.22857143,606.85714,200.00018)" x1="164.82167" y1="730.83307" x2="324.81335" y2="842.55597" xlink:href="#linearGradientWhitePieces"/>
    <linearGradient id="linearGradient15465" gradientUnits="userSpaceOnUse" gradientTransform="translate(0,-452.362)" x1="633.10931" y1="812.69128" x2="645.08679" y2="812.69128" xlink:href="#linearGradientWhitePiecesBorder"/>
    <linearGradient id="linearGradient15458" gradientUnits="userSpaceOnUse" gradientTransform="matrix(0.22857143,0,0,0.22857143,606.85714,200.00018)" x1="164.82167" y1="730.83307" x2="324.81335" y2="842.55597" xlink:href="#linearGradientWhitePieces"/>
    <linearGradient id="linearGradient15460" gradientUnits="userSpaceOnUse" gradientTransform="translate(0,-452.362)" x1="633.05316" y1="819.85101" x2="645.47211" y2="819.85101" xlink:href="#linearGradientWhitePiecesBorder"/>
    <linearGradient id="linearGradient15453" gradientUnits="userSpaceOnUse" gradientTransform="matrix(0.22857143,0,0,0.22857143,606.85714,200.00018)" x1="164.82167" y1="730.83307" x2="324.81335" y2="842.55597" xlink:href="#linearGradientWhitePieces"/>
    <linearGradient id="linearGradient15455" gradientUnits="userSpaceOnUse" gradientTransform="translate(0,-452.362)" x1="635.27271" y1="825.64288" x2="644.61847" y2="825.64288" xlink:href="#linearGradientWhitePiecesBorder"/>
    <linearGradient id="linearGradient15448" gradientUnits="userSpaceOnUse" gradientTransform="matrix(0.22857143,0,0,0.22857143,606.85714,200.00018)" x1="164.82167" y1="730.83307" x2="324.81335" y2="842.55597" xlink:href="#linearGradientWhitePieces"/>
    <linearGradient id="linearGradient15450" gradientUnits="userSpaceOnUse" gradientTransform="translate(0,-452.362)" x1="644.05774" y1="820.00983" x2="660.35205" y2="820.00983" xlink:href="#linearGradientWhitePiecesBorder"/>
    <linearGradient id="linearGradient15443" gradientUnits="userSpaceOnUse" gradientTransform="matrix(0.22857143,0,0,0.22857143,606.85714,200.00018)" x1="164.82167" y1="730.83307" x2="324.81335" y2="842.55597" xlink:href="#linearGradientWhitePieces"/>
    <linearGradient id="linearGradient15445" gradientUnits="userSpaceOnUse" gradientTransform="translate(0,-452.362)" x1="642.68994" y1="823.18207" x2="658.1192" y2="823.18207" xlink:href="#linearGradientWhitePiecesBorder"/>
    <linearGradient id="linearGradient15438" gradientUnits="userSpaceOnUse" gradientTransform="matrix(0.22857143,0,0,0.22857143,606.85714,200.00018)" x1="164.82167" y1="730.83307" x2="324.81335" y2="842.55597" xlink:href="#linearGradientWhitePieces"/>
    <linearGradient id="linearGradient15440" gradientUnits="userSpaceOnUse" gradientTransform="translate(0,-452.362)" x1="643.49298" y1="828.16602" x2="656.23871" y2="828.16602" xlink:href="#linearGradientWhitePiecesBorder"/>
    <linearGradient id="linearGradient15433" gradientUnits="userSpaceOnUse" gradientTransform="matrix(0.22857143,0,0,0.22857143,606.85714,200.00018)" x1="164.82167" y1="730.83307" x2="324.81335" y2="842.55597" xlink:href="#linearGradientWhitePieces"/>
    <linearGradient id="linearGradient15435" gradientUnits="userSpaceOnUse" gradientTransform="translate(0,-452.362)" x1="634.34662" y1="806.43097" x2="647.85767" y2="806.43097" xlink:href="#linearGradientWhitePiecesBorder"/>
    <linearGradient id="linearGradient15428" gradientUnits="userSpaceOnUse" gradientTransform="matrix(0.22857143,0,0,0.22857143,606.85714,200.00018)" x1="164.82167" y1="730.83307" x2="324.81335" y2="842.55597" xlink:href="#linearGradientWhitePieces"/>
    <linearGradient id="linearGradient15430" gradientUnits="userSpaceOnUse" gradientTransform="translate(0,-452.362)" x1="620.89111" y1="801.65491" x2="636.18115" y2="801.65491" xlink:href="#linearGradientWhitePiecesBorder"/>
    <linearGradient id="linearGradient15423" gradientUnits="userSpaceOnUse" gradientTransform="matrix(0.22857143,0,0,0.22857143,606.85714,200.00018)" x1="164.82167" y1="730.83307" x2="324.81335" y2="842.55597" xlink:href="#linearGradientWhitePieces"/>
    <linearGradient id="linearGradient15425" gradientUnits="userSpaceOnUse" gradientTransform="translate(0,-452.362)" x1="645.40851" y1="814.61499" x2="660.90442" y2="814.61499" xlink:href="#linearGradientWhitePiecesBorder"/>
    <linearGradient id="linearGradient15418" gradientUnits="userSpaceOnUse" gradientTransform="matrix(0.22857143,0,0,0.22857143,606.85714,200.00018)" x1="164.82167" y1="730.83307" x2="324.81335" y2="842.55597" xlink:href="#linearGradientWhitePieces"/>
    <linearGradient id="linearGradient15420" gradientUnits="userSpaceOnUse" gradientTransform="translate(0,-452.362)" x1="657.91669" y1="826.08704" x2="664.66443" y2="826.08704" xlink:href="#linearGradientWhitePiecesBorder"/>
    <linearGradient id="linearGradient15413" gradientUnits="userSpaceOnUse" gradientTransform="matrix(0.22857143,0,0,0.22857143,606.85714,200.00018)" x1="164.82167" y1="730.83307" x2="324.81335" y2="842.55597" xlink:href="#linearGradientWhitePieces"/>
    <linearGradient id="linearGradient15415" gradientUnits="userSpaceOnUse" gradientTransform="translate(0,-452.362)" x1="654.81549" y1="830.73816" x2="662.13086" y2="830.73816" xlink:href="#linearGradientWhitePiecesBorder"/>
    <linearGradient id="linearGradient15408" gradientUnits="userSpaceOnUse" gradientTransform="matrix(0.22857143,0,0,0.22857143,606.85714,200.00018)" x1="164.82167" y1="730.83307" x2="324.81335" y2="842.55597" xlink:href="#linearGradientWhitePieces"/>
    <linearGradient id="linearGradient15410" gradientUnits="userSpaceOnUse" gradientTransform="translate(0,-452.362)" x1="660.17297" y1="832.20099" x2="668.17023" y2="832.20099" xlink:href="#linearGradientWhitePiecesBorder"/>
  </defs>
  <g id="WhiteBishop">
    <rect style="fill:none;stroke:none" id="rect6168" width="200" height="200" x="600" y="200.00018"/>
    <path style="fill:url(#linearGradient15484);fill-opacity:1;fill-rule:evenodd;stroke:url(#linearGradient15486);stroke-width:3.65714288;stroke-linecap:butt;stroke-linejoin:miter;stroke-miterlimit:4;stroke-opacity:1;stroke-dasharray:none" d="m 674.71354,263.83693 c -12.77326,15.42725 -21.90477,47.67484 -6.32406,75.24164 12.89327,22.81193 -29.3334,28.96603 -27.55711,44.37953 24.74833,-0.048 93.80866,-0.6305 117.91538,0.2121 1.46084,-14.4293 -39.65165,-13.9542 -26.77986,-48.3153 8.45325,-22.56586 10.96916,-69.25335 -4.9956,-85.00509 -10.46733,-10.32766 -29.67181,-13.79285 -52.25875,13.48712 z" id="path6170"/>
    <path style="fill:url(#linearGradient15479);fill-opacity:1;fill-rule:evenodd;stroke:url(#linearGradient15481);stroke-width:3.65714288;stroke-linecap:round;stroke-linejoin:round;stroke-miterlimit:4;stroke-opacity:1;stroke-dasharray:none" d="m 649.34173,392.157 c -3.1901,-5.2817 5.24386,-29.5188 10.66827,-32.9828 4.92746,-3.1468 29.89762,30.8832 30.51798,33.874 l -41.18625,-0.8912 z" id="path6172"/>
    <path style="fill:url(#linearGradient15476);fill-opacity:1;fill-rule:evenodd;stroke:none" d="m 653.68459,387.8142 c 0.0447,0.8967 0.18384,-7.5335 1.21806,-10.1238 1.25671,-3.4207 2.51536,-9.0827 4.79737,-11.9076 0.81398,-0.9605 2.84456,1.9273 3.73709,2.5497 1.88741,1.2477 8.0548,16.0831 9.07687,18.5291 0.72821,1.4269 -0.94705,1.6693 -1.95332,1.4744 -1.83868,-0.025 -16.22484,0.1393 -16.87607,-0.5218 z" id="path6174"/>
    <path style="fill:url(#linearGradient15473);fill-opacity:1;fill-rule:evenodd;stroke:none" d="m 681.68651,276.43314 c -2.65715,0.0546 -5.1027,0.84341 -7.08475,2.65773 -5.36237,4.90858 -12.53117,34.63622 -1.51007,53.71134 3.89323,6.73833 9.59001,19.95849 24.38175,23.79969 6.48032,-12.87413 7.34723,-10.48588 15.57248,-24.79339 10.30904,-17.93219 -0.0539,-34.5536 -6.80196,-42.47398 -4.20734,-4.93826 -15.44546,-12.96705 -24.36761,-12.90139 -0.064,4.7e-4 -0.12607,-10e-4 -0.18984,0 z m 19.60877,24.89016 c 0.01,0.008 10.53854,2.34291 1.46019,5.26519 -3.22035,1.03661 -7.86703,0.64697 -7.11889,-1.65986 1.02226,-3.15207 5.64862,-3.6128 5.6587,-3.60533 z M 681.543,301.18279 c 3.48107,2.08864 7.91279,3.90628 3.97441,4.89087 -4.25858,1.06464 -6.16141,1.39852 -8.63453,-1.00082 -2.75625,-2.674 -0.54283,-2.12818 4.66012,-3.89005 z" id="path6176"/>
    <path style="fill:url(#linearGradient15468);fill-opacity:1;fill-rule:evenodd;stroke:url(#linearGradient15470);stroke-width:3.65714288;stroke-linecap:butt;stroke-linejoin:miter;stroke-miterlimit:4;stroke-opacity:1;stroke-dasharray:none" d="m 704.17792,396.1887 -6.09713,-0.6723 67.54748,-143.25084 c 0,0 -6.32091,-8.69659 -18.7416,-13.84722 -8.33752,-3.45741 -25.29633,-6.14344 -25.29633,-6.14344 0.71297,-4.77403 24.66955,-5.30189 38.65346,-0.17075 12.47849,4.57877 16.0878,11.24596 15.17481,17.35936 L 704.17792,396.1887 z" id="path6178"/>
    <path style="fill:url(#linearGradient15463);fill-opacity:1;fill-rule:evenodd;stroke:url(#linearGradient15465);stroke-width:2.13382673;stroke-linecap:round;stroke-linejoin:round;stroke-miterlimit:4;stroke-opacity:1;stroke-dasharray:none" d="m 644.01991,359.4042 c -2.30196,-0.7719 -6.60341,-2.7148 -8.13701,-2.1014 -1.93844,0.7754 -1.93608,3.5078 -1.40066,4.0432 1.3131,1.3131 4.87434,2.1276 7.2744,2.1276 3.14052,0 1.67168,-4.1877 0.37722,-4.4466" id="path6180"/>
    <path style="fill:url(#linearGradient15458);fill-opacity:1;fill-rule:evenodd;stroke:url(#linearGradient15460);stroke-width:2.13382673;stroke-linecap:round;stroke-linejoin:round;stroke-miterlimit:4;stroke-opacity:1;stroke-dasharray:none" d="m 643.71141,367.0171 c 2.9152,0 -4.07412,-1.6784 -7.68163,-2.7091 -3.29082,-0.9403 -1.54159,2.8751 -0.53858,4.5934 0.62498,1.0707 7.01831,1.4872 8.22021,1.8878 0.76379,0.2546 -0.93955,-1.3167 -1.50885,-1.886 -0.56929,-0.5693 1.0059,-1.2574 1.50885,-1.8861 z" id="path6182"/>
    <path style="fill:url(#linearGradient15453);fill-opacity:1;fill-rule:evenodd;stroke:url(#linearGradient15455);stroke-width:2.13382673;stroke-linecap:round;stroke-linejoin:round;stroke-miterlimit:4;stroke-opacity:1;stroke-dasharray:none" d="m 643.55155,372.9726 c -0.93569,-0.9357 -3.14562,-1.95 -4.52654,-2.6405 -1.95561,-0.9778 -2.91039,3.0697 -2.64047,4.1493 0.23396,0.9359 4.6193,1.7209 5.06536,1.8324 2.1619,0.5405 1.85108,-2.339 2.10165,-3.3412 z" id="path6184"/>
    <path style="fill:url(#linearGradient15448);fill-opacity:1;fill-rule:evenodd;stroke:url(#linearGradient15450);stroke-width:2.13382673;stroke-linecap:round;stroke-linejoin:round;stroke-miterlimit:4;stroke-opacity:1;stroke-dasharray:none" d="m 647.86073,360.2273 c 0.18287,0.046 2.80617,3.3938 4.0846,4.4808 1.54636,1.3149 3.01249,2.5843 4.03883,4.637 1.8572,3.7144 6.53381,9.3305 -0.26672,2.53 -1.4319,-1.4319 -5.27392,-2.8038 -6.45527,-4.1035 -1.00325,-1.1038 -2.97513,-3.1473 -3.59999,-3.7722 -1.31653,-1.3165 -0.0739,-3.3176 2.19855,-3.7721 z" id="path6186"/>
    <path style="fill:url(#linearGradient15443);fill-opacity:1;fill-rule:evenodd;stroke:url(#linearGradient15445);stroke-width:2.13382673;stroke-linecap:round;stroke-linejoin:round;stroke-miterlimit:4;stroke-opacity:1;stroke-dasharray:none" d="m 646.39765,366.8609 c -1.63941,-1.6394 4.97518,2.0869 6.61459,3.7263 1.16793,1.168 3.5151,4.0486 4.03884,4.5723 0.0783,0.078 -3.61956,-0.021 -3.92836,-0.1752 -2.33758,-1.1688 -7.03559,-3.1696 -8.61113,-4.3513 -0.35907,-0.2693 -0.77618,-2.5642 -0.7539,-2.5865" id="path6188"/>
    <path style="fill:url(#linearGradient15438);fill-opacity:1;fill-rule:evenodd;stroke:url(#linearGradient15440);stroke-width:2.13382673;stroke-linecap:round;stroke-linejoin:round;stroke-miterlimit:4;stroke-opacity:1;stroke-dasharray:none" d="m 645.21663,377.2934 c -1.61257,-1.2095 0.0145,-4.4935 1.96999,-4.0046 5.0887,1.2722 10.09714,5.0771 7.06491,5.0771 -2.9249,0 -6.6752,0.1073 -9.0349,-1.0725 z" id="path6190"/>
    <path style="fill:url(#linearGradient15433);fill-opacity:1;fill-rule:evenodd;stroke:url(#linearGradient15435);stroke-width:2.13382673;stroke-linecap:round;stroke-linejoin:round;stroke-miterlimit:4;stroke-opacity:1;stroke-dasharray:none" d="m 646.79074,353.0147 c -0.81687,-0.046 -5.67489,-1.882 -7.38782,-1.9786 -1.2484,-0.07 -2.60499,0.927 -3.60617,1.359 -1.87098,0.8073 3.71547,3.634 3.74533,3.6433 1.35594,0.4214 2.6965,1.4976 4.12749,0.8802 0.69749,-0.301 2.6943,-3.2755 3.12117,-3.9039 z" id="path6192"/>
    <path style="fill:url(#linearGradient15428);fill-opacity:1;fill-rule:evenodd;stroke:url(#linearGradient15430);stroke-width:2.13382673;stroke-linecap:round;stroke-linejoin:round;stroke-miterlimit:4;stroke-opacity:1;stroke-dasharray:none" d="m 633.71147,350.6266 c 4.98869,-1.3866 -4.72572,-2.7504 -7.40987,-4.0631 -4.11025,-2.01012 -5.07459,-0.66565 -3.84751,1.8684 0.51381,1.0611 2.18283,1.939 3.04611,2.4961 1.185,0.7647 3.41438,1.4809 4.82107,1.7552 2.26632,0.4418 2.82329,0.8512 3.3902,-2.0566 z" id="path6194"/>
    <path style="fill:url(#linearGradient15423);fill-opacity:1;fill-rule:evenodd;stroke:url(#linearGradient15425);stroke-width:2.13382673;stroke-linecap:round;stroke-linejoin:round;stroke-miterlimit:4;stroke-opacity:1;stroke-dasharray:none" d="m 648.97127,355.9315 c 3.7e-4,-1.8671 7.48043,8.5788 9.77178,10.2973 2.51727,1.888 0.42175,4.4386 -3.53193,0.4849 -1.27978,-1.2798 -3.173,-2.7717 -4.85763,-3.7342 -1.35754,-0.7756 -3.00244,-3.6043 -3.79072,-5.1809 -0.59626,-1.1925 2.04244,-0.037 2.4085,-1.8671 z" id="path6196"/>
    <path style="fill:url(#linearGradient15418);fill-opacity:1;fill-rule:evenodd;stroke:url(#linearGradient15420);stroke-width:2.13382673;stroke-linecap:round;stroke-linejoin:round;stroke-miterlimit:4;stroke-opacity:1;stroke-dasharray:none" d="m 662.67158,371.5396 c -0.64727,-1.2946 1.44746,2.9731 0.80018,4.2676 -0.74792,1.4959 -4.03461,-0.9568 -4.33211,-1.5517 -0.66209,-1.3242 1.04667,-2.8093 0.2588,-2.9826 -1.45731,-0.3206 2.82858,0.1778 3.27313,0.2667 z" id="path6198"/>
    <path style="fill:url(#linearGradient15413);fill-opacity:1;fill-rule:evenodd;stroke:url(#linearGradient15415);stroke-width:2.13382673;stroke-linecap:round;stroke-linejoin:round;stroke-miterlimit:4;stroke-opacity:1;stroke-dasharray:none" d="m 657.91905,376.2842 c 0.1195,-0.1195 5.14249,0.2117 2.24687,2.6673 -2.54392,2.1573 -4.28353,1.9852 -4.28353,-0.1458 0,-0.9311 0.8107,-1.9085 2.03666,-2.5215 z" id="path6200"/>
    <path style="fill:url(#linearGradient15408);fill-opacity:1;fill-rule:evenodd;stroke:url(#linearGradient15410);stroke-width:2.13382673;stroke-linecap:round;stroke-linejoin:round;stroke-miterlimit:4;stroke-opacity:1;stroke-dasharray:none" d="m 664.94322,377.2946 c 0,-1.5528 3.10929,3.336 1.8671,4.2676 -1.01862,0.764 -3.85624,1.1235 -5.2374,1.1235 -1.1862,0 1.19554,-2.3046 0.96181,-3.4675 -0.35162,-1.7495 2.35199,-1.8671 2.40849,-1.9236 z" id="path6202"/>
  </g>
</svg>