<?xml version="1.0" encoding="utf-8"?>
<svg viewBox="0 200 200 200" xmlns="http://www.w3.org/2000/svg" xmlns:xlink="http://www.w3.org/1999/xlink">
  <defs>
    <linearGradient id="linearGradient15914" gradientUnits="userSpaceOnUse" gradientTransform="matrix(0.21886972,0,0,0.21886972,1.16977,230.91193)" x1="317.82336" y1="251.51895" x2="716.78424" y2="1040.8939" xlink:href="#linearGradientWhitePieces"/>
    <linearGradient id="linearGradientWhitePieces">
      <stop style="stop-color:#ffffff;stop-opacity:1;" offset="0" id="stop5177-6"/>
      <stop style="stop-color:#000000;stop-opacity:1;" offset="1" id="stop5179-8"/>
    </linearGradient>
    <linearGradient id="linearGradient15916" gradientUnits="userSpaceOnUse" gradientTransform="translate(0,-452.362)" x1="48.36805" y1="775.46729" x2="147.362" y2="775.46729" xlink:href="#linearGradientWhitePiecesBorder"/>
    <linearGradient id="linearGradientWhitePiecesBorder">
      <stop style="stop-color:#000000;stop-opacity:1;" offset="0" id="stop7816"/>
      <stop style="stop-color:#000000;stop-opacity:1;" offset="1" id="stop7818"/>
    </linearGradient>
    <linearGradient id="linearGradient15909" gradientUnits="userSpaceOnUse" gradientTransform="matrix(0.21886972,0,0,0.21886972,1.16977,230.91193)" x1="403.64108" y1="286.73438" x2="535.96454" y2="715.77893" xlink:href="#linearGradientWhitePieces"/>
    <linearGradient id="linearGradient15911" gradientUnits="userSpaceOnUse" gradientTransform="translate(0,-452.362)" x1="51.055473" y1="785.65112" x2="141.33739" y2="785.65112" xlink:href="#linearGradientWhitePiecesBorder"/>
    <linearGradient id="linearGradient15906" gradientUnits="userSpaceOnUse" gradientTransform="translate(0,-452.362)" x1="103.12096" y1="773.41211" x2="127.91366" y2="773.41211" xlink:href="#linearGradientWhitePiecesBorder"/>
    <linearGradient id="linearGradient15903" gradientUnits="userSpaceOnUse" gradientTransform="translate(0,-452.362)" x1="67.429749" y1="772.61719" x2="92.288887" y2="772.61719" xlink:href="#linearGradientWhitePiecesBorder"/>
    <linearGradient id="linearGradient15900" gradientUnits="userSpaceOnUse" gradientTransform="translate(0,-452.362)" x1="91.214981" y1="785.36285" x2="102.7421" y2="785.36285" xlink:href="#linearGradientWhitePiecesBorder"/>
    <linearGradient id="linearGradient15897" gradientUnits="userSpaceOnUse" gradientTransform="translate(0,-452.362)" x1="70.992546" y1="811.80328" x2="123.56433" y2="811.80328" xlink:href="#linearGradientWhitePiecesBorder"/>
    <linearGradient id="linearGradient15892" gradientUnits="userSpaceOnUse" gradientTransform="translate(0,-452.362)" x1="97.813354" y1="817.46808" x2="97.542831" y2="802.82086" xlink:href="#linearGradientWhitePieces"/>
    <linearGradient id="linearGradient15894" gradientUnits="userSpaceOnUse" gradientTransform="translate(0,-452.362)" x1="90.310471" y1="811.10046" x2="97.624428" y2="811.10046" xlink:href="#linearGradientWhitePiecesBorder"/>
    <linearGradient id="linearGradient15887" gradientUnits="userSpaceOnUse" gradientTransform="translate(0,-452.362)" x1="97.813354" y1="817.46808" x2="97.542831" y2="802.82086" xlink:href="#linearGradientWhitePieces"/>
    <linearGradient id="linearGradient15889" gradientUnits="userSpaceOnUse" gradientTransform="translate(0,-452.362)" x1="96.099007" y1="811.02704" x2="104.15182" y2="811.02704" xlink:href="#linearGradientWhitePiecesBorder"/>
    <linearGradient id="linearGradient15882" gradientUnits="userSpaceOnUse" gradientTransform="translate(0,-452.362)" x1="97.813354" y1="817.46808" x2="97.542831" y2="802.82086" xlink:href="#linearGradientWhitePieces"/>
    <linearGradient id="linearGradient15884" gradientUnits="userSpaceOnUse" gradientTransform="translate(0,-452.362)" x1="101.31824" y1="811.30737" x2="109.44228" y2="811.30737" xlink:href="#linearGradientWhitePiecesBorder"/>
    <linearGradient id="linearGradient15877" gradientUnits="userSpaceOnUse" gradientTransform="translate(0,-452.362)" x1="97.813354" y1="817.46808" x2="97.542831" y2="802.82086" xlink:href="#linearGradientWhitePieces"/>
    <linearGradient id="linearGradient15879" gradientUnits="userSpaceOnUse" gradientTransform="translate(0,-452.362)" x1="107.89149" y1="810.79077" x2="113.71567" y2="810.79077" xlink:href="#linearGradientWhitePiecesBorder"/>
    <linearGradient id="linearGradient15872" gradientUnits="userSpaceOnUse" gradientTransform="translate(0,-452.362)" x1="97.813354" y1="817.46808" x2="97.542831" y2="802.82086" xlink:href="#linearGradientWhitePieces"/>
    <linearGradient id="linearGradient15874" gradientUnits="userSpaceOnUse" gradientTransform="translate(0,-452.362)" x1="111.89223" y1="810.47382" x2="117.24081" y2="810.47382" xlink:href="#linearGradientWhitePiecesBorder"/>
    <linearGradient id="linearGradient15867" gradientUnits="userSpaceOnUse" gradientTransform="translate(0,-452.362)" x1="97.813354" y1="817.46808" x2="97.542831" y2="802.82086" xlink:href="#linearGradientWhitePieces"/>
    <linearGradient id="linearGradient15869" gradientUnits="userSpaceOnUse" gradientTransform="translate(0,-452.362)" x1="81.71109" y1="811.32458" x2="88.35408" y2="811.32458" xlink:href="#linearGradientWhitePiecesBorder"/>
    <linearGradient id="linearGradient15862" gradientUnits="userSpaceOnUse" gradientTransform="translate(0,-452.362)" x1="97.813354" y1="817.46808" x2="97.542831" y2="802.82086" xlink:href="#linearGradientWhitePieces"/>
    <linearGradient id="linearGradient15864" gradientUnits="userSpaceOnUse" gradientTransform="translate(0,-452.362)" x1="77.078804" y1="810.85791" x2="82.930519" y2="810.85791" xlink:href="#linearGradientWhitePiecesBorder"/>
    <linearGradient id="linearGradient15857" gradientUnits="userSpaceOnUse" gradientTransform="translate(0,-452.362)" x1="97.813354" y1="817.46808" x2="97.542831" y2="802.82086" xlink:href="#linearGradientWhitePieces"/>
    <linearGradient id="linearGradient15859" gradientUnits="userSpaceOnUse" gradientTransform="translate(0,-452.362)" x1="86.052475" y1="811.08667" x2="92.376343" y2="811.08667" xlink:href="#linearGradientWhitePiecesBorder"/>
    <linearGradient id="linearGradient15852" gradientUnits="userSpaceOnUse" gradientTransform="translate(0,-452.362)" x1="97.813354" y1="817.46808" x2="97.542831" y2="802.82086" xlink:href="#linearGradientWhitePieces"/>
    <linearGradient id="linearGradient15854" gradientUnits="userSpaceOnUse" gradientTransform="translate(0,-452.362)" x1="73.569695" y1="809.95294" x2="79.137154" y2="809.95294" xlink:href="#linearGradientWhitePiecesBorder"/>
    <linearGradient id="linearGradient15847" gradientUnits="userSpaceOnUse" gradientTransform="translate(0,-452.362)" x1="97.813354" y1="817.46808" x2="97.542831" y2="802.82086" xlink:href="#linearGradientWhitePieces"/>
    <linearGradient id="linearGradient15849" gradientUnits="userSpaceOnUse" gradientTransform="translate(0,-452.362)" x1="78.462914" y1="817.44745" x2="83.676331" y2="817.44745" xlink:href="#linearGradientWhitePiecesBorder"/>
    <linearGradient id="linearGradient15842" gradientUnits="userSpaceOnUse" gradientTransform="translate(0,-452.362)" x1="97.813354" y1="817.46808" x2="97.542831" y2="802.82086" xlink:href="#linearGradientWhitePieces"/>
    <linearGradient id="linearGradient15844" gradientUnits="userSpaceOnUse" gradientTransform="translate(0,-452.362)" x1="90.826149" y1="818.85352" x2="96.198097" y2="818.85352" xlink:href="#linearGradientWhitePiecesBorder"/>
    <linearGradient id="linearGradient15837" gradientUnits="userSpaceOnUse" gradientTransform="translate(0,-452.362)" x1="97.813354" y1="817.46808" x2="97.542831" y2="802.82086" xlink:href="#linearGradientWhitePieces"/>
    <linearGradient id="linearGradient15839" gradientUnits="userSpaceOnUse" gradientTransform="translate(0,-452.362)" x1="94.497787" y1="819.11469" x2="99.918884" y2="819.11469" xlink:href="#linearGradientWhitePiecesBorder"/>
    <linearGradient id="linearGradient15832" gradientUnits="userSpaceOnUse" gradientTransform="translate(0,-452.362)" x1="97.813354" y1="817.46808" x2="97.542831" y2="802.82086" xlink:href="#linearGradientWhitePieces"/>
    <linearGradient id="linearGradient15834" gradientUnits="userSpaceOnUse" gradientTransform="translate(0,-452.362)" x1="98.746925" y1="819.18134" x2="104.58971" y2="819.18134" xlink:href="#linearGradientWhitePiecesBorder"/>
    <linearGradient id="linearGradient15827" gradientUnits="userSpaceOnUse" gradientTransform="translate(0,-452.362)" x1="97.813354" y1="817.46808" x2="97.542831" y2="802.82086" xlink:href="#linearGradientWhitePieces"/>
    <linearGradient id="linearGradient15829" gradientUnits="userSpaceOnUse" gradientTransform="translate(0,-452.362)" x1="86.113861" y1="819.38287" x2="92.915047" y2="819.38287" xlink:href="#linearGradientWhitePiecesBorder"/>
    <linearGradient id="linearGradient15822" gradientUnits="userSpaceOnUse" gradientTransform="translate(0,-452.362)" x1="97.813354" y1="817.46808" x2="97.542831" y2="802.82086" xlink:href="#linearGradientWhitePieces"/>
    <linearGradient id="linearGradient15824" gradientUnits="userSpaceOnUse" gradientTransform="translate(0,-452.362)" x1="82.105972" y1="818.7121" x2="87.151558" y2="818.7121" xlink:href="#linearGradientWhitePiecesBorder"/>
    <linearGradient id="linearGradient15817" gradientUnits="userSpaceOnUse" gradientTransform="translate(0,-452.362)" x1="97.813354" y1="817.46808" x2="97.542831" y2="802.82086" xlink:href="#linearGradientWhitePieces"/>
    <linearGradient id="linearGradient15819" gradientUnits="userSpaceOnUse" gradientTransform="translate(0,-452.362)" x1="103.78092" y1="819.22729" x2="110.23132" y2="819.22729" xlink:href="#linearGradientWhitePiecesBorder"/>
    <linearGradient id="linearGradient15812" gradientUnits="userSpaceOnUse" gradientTransform="translate(0,-452.362)" x1="97.813354" y1="817.46808" x2="97.542831" y2="802.82086" xlink:href="#linearGradientWhitePieces"/>
    <linearGradient id="linearGradient15814" gradientUnits="userSpaceOnUse" gradientTransform="translate(0,-452.362)" x1="109.05775" y1="817.92242" x2="114.82501" y2="817.92242" xlink:href="#linearGradientWhitePiecesBorder"/>
    <linearGradient id="linearGradient15809" gradientUnits="userSpaceOnUse" gradientTransform="translate(0,-452.362)" x1="56.282593" y1="731.37836" x2="98.93782" y2="731.37836" xlink:href="#linearGradientWhitePiecesBorder"/>
    <linearGradient id="linearGradient15806" gradientUnits="userSpaceOnUse" gradientTransform="translate(0,-452.362)" x1="96.1549" y1="733.2984" x2="145.4668" y2="733.2984" xlink:href="#linearGradientWhitePiecesBorder"/>
    <linearGradient id="linearGradient15803" gradientUnits="userSpaceOnUse" gradientTransform="translate(0,-452.362)" x1="69.856102" y1="754.6167" x2="94.009399" y2="754.6167" xlink:href="#linearGradientWhitePiecesBorder"/>
    <linearGradient id="linearGradient15800" gradientUnits="userSpaceOnUse" gradientTransform="translate(0,-452.362)" x1="103.56205" y1="754.18781" x2="125.9644" y2="754.18781" xlink:href="#linearGradientWhitePiecesBorder"/>
    <linearGradient id="linearGradient15795" gradientUnits="userSpaceOnUse" gradientTransform="matrix(0.22857143,0,0,0.22857143,2.74286,201.82875)" x1="493.99997" y1="289.00003" x2="659.67157" y2="419.00003" xlink:href="#linearGradientWhitePieces"/>
    <linearGradient id="linearGradient15797" gradientUnits="userSpaceOnUse" gradientTransform="translate(0,-452.362)" x1="99.199997" y1="735.10504" x2="153.06779" y2="735.10504" xlink:href="#linearGradientWhitePiecesBorder"/>
    <linearGradient id="linearGradient15790" gradientUnits="userSpaceOnUse" gradientTransform="matrix(0.22857143,0,0,0.22857143,0,200.00018)" x1="399.94489" y1="107.97698" x2="440" y2="376.95392" xlink:href="#linearGradientWhitePieces"/>
    <linearGradient id="linearGradient15792" gradientUnits="userSpaceOnUse" gradientTransform="translate(0,-452.362)" x1="25.127617" y1="707.44263" x2="169.14285" y2="707.44263" xlink:href="#linearGradientWhitePiecesBorder"/>
    <linearGradient id="linearGradient15785" gradientUnits="userSpaceOnUse" gradientTransform="matrix(0.22857143,0,0,0.22857143,0,200.00018)" x1="476.83954" y1="271.28894" x2="527.15973" y2="393.89273" xlink:href="#linearGradientWhitePieces"/>
    <linearGradient id="linearGradient15787" gradientUnits="userSpaceOnUse" gradientTransform="translate(0,-452.362)" x1="41.334755" y1="731.93378" x2="152.49365" y2="731.93378" xlink:href="#linearGradientWhitePiecesBorder"/>
    <linearGradient id="linearGradient15780" gradientUnits="userSpaceOnUse" gradientTransform="matrix(0.22857143,0,0,0.22857143,0,200.00018)" x1="281.48184" y1="229.23729" x2="481.76227" y2="369.23727" xlink:href="#linearGradientWhitePieces"/>
    <linearGradient id="linearGradient15782" gradientUnits="userSpaceOnUse" gradientTransform="translate(0,-452.362)" x1="41.481567" y1="704.95374" x2="122.85721" y2="704.95374" xlink:href="#linearGradientWhitePiecesBorder"/>
    <linearGradient id="linearGradient15777" gradientUnits="userSpaceOnUse" gradientTransform="translate(0,-452.362)" x1="92.34285" y1="674.87982" x2="101.94285" y2="674.87982" xlink:href="#linearGradientWhitePiecesBorder"/>
    <linearGradient id="linearGradient15774" gradientUnits="userSpaceOnUse" gradientTransform="translate(0,-452.362)" x1="79.976357" y1="694.42743" x2="87.355614" y2="694.42743" xlink:href="#linearGradientWhitePiecesBorder"/>
    <linearGradient id="linearGradient15771" gradientUnits="userSpaceOnUse" gradientTransform="translate(0,-452.362)" x1="102.75062" y1="696.36688" x2="113.71516" y2="696.36688" xlink:href="#linearGradientWhitePiecesBorder"/>
    <linearGradient id="linearGradient15768" gradientUnits="userSpaceOnUse" gradientTransform="translate(0,-452.362)" x1="89.027313" y1="679.69513" x2="104.81105" y2="679.69513" xlink:href="#linearGradientWhitePiecesBorder"/>
  </defs>
  <g id="WhiteKing">
    <rect style="fill:none;stroke:none" id="rect5962" width="200" height="200" x="0" y="200.00018"/>
    <path style="fill:url(#linearGradient15914);fill-opacity:1;fill-rule:evenodd;stroke:url(#linearGradient15916);stroke-width:3.65714288;stroke-linecap:round;stroke-linejoin:round;stroke-miterlimit:4;stroke-opacity:1;stroke-dasharray:none" d="m 50.19662,299.85596 c 0.18876,-11.30046 5.24297,-21.92754 13.17401,-29.65209 6.14524,-5.98524 13.07699,-10.09315 21.2055,-12.54932 7.495,-2.26473 17.59164,-2.10506 25.05486,0.0479 9.08237,2.62007 15.93386,6.15329 23.15118,12.24668 10.94209,9.23812 14.8218,26.44243 11.71698,32.29253 -1.24826,6.21866 -8.75294,27.35239 -11.6798,36.6881 -2.4205,5.772 -2.17943,12.32284 -2.51637,18.48894 0.8674,7.0524 -2.27221,13.7789 -5.92049,19.5719 -3.80413,4.071 -9.0867,5.7832 -12.44105,10.1407 -4.60592,5.9835 -10.59165,0.3889 -15.12851,1.4337 -5.75654,-0.935 -11.74979,5.2227 -15.5132,-1.7372 -3.68267,-6.8106 -12.67224,-9.9103 -17.19717,-16.33 -4.55286,-3.1619 -2.95138,-9.4731 -3.16424,-14.234 0.55428,-8.5034 0.132,-17.31475 -3.63023,-25.11609 -0.36847,-1.07926 -5.7463,-21.82853 -7.11147,-31.29176 z" id="path5964"/>
    <path style="fill:url(#linearGradient15909);fill-opacity:1;fill-rule:evenodd;stroke:url(#linearGradient15911);stroke-width:3.65714288;stroke-linecap:round;stroke-linejoin:round;stroke-miterlimit:4;stroke-opacity:1;stroke-dasharray:none" d="m 64.00411,302.89189 c -1.12461,5.96635 0.38673,13.49533 -6.07811,16.98663 -4.33837,4.03265 -7.56308,13.80424 -2.34899,19.58954 8.85795,4.2399 15.63519,2.04536 17.63548,13.63134 0.96791,10.3614 11.2999,10.9974 17.2246,10.4058 6.50283,0.1057 15.64746,0.379 21.83379,-0.061 8.54028,-0.3148 5.23618,-17.5817 14.51314,-17.90277 8.97389,-1.10044 13.16499,-9.13957 12.6883,-17.01342 -2.62296,-6.68098 -7.47113,-12.37734 -5.51473,-20.32079" id="path5966"/>
    <path style="fill:url(#linearGradient15906);fill-opacity:1;fill-rule:evenodd;stroke:none" d="m 107.36923,312.7437 c -2.96112,3.60996 -3.49219,4.94952 -4.24827,9.67619 0.0713,3.09089 3.87677,6.99636 6.44872,8.34666 3.6975,2.09452 7.19251,2.06574 11.46638,1.10082 2.34723,-0.45843 5.42677,-2.08796 5.75796,-4.62327 0.59916,-2.98362 1.89982,-12.22389 0.47939,-13.69005 -1.94249,-1.68904 -9.00703,-3.2547 -11.39985,-3.82663 -1.41926,-0.72063 -7.31604,1.79531 -8.50433,3.01628 z" id="path5968"/>
    <path style="fill:url(#linearGradient15903);fill-opacity:1;fill-rule:evenodd;stroke:none" d="m 70.81373,311.30227 c -2.70528,2.79541 -3.78265,4.98959 -3.25326,10.5077 0.3788,3.25544 0.62293,6.81157 3.15646,9.00551 8.61243,1.44686 16.32309,-1.08434 17.71287,-3.75034 2.86391,-3.47171 3.73826,-5.8181 3.85909,-10.13967 -0.43757,-4.46852 -4.52383,-8.16652 -8.60802,-7.59324 -3.72944,0.45413 -7.01187,-1.07242 -12.86714,1.97004 z" id="path5970"/>
    <path style="fill:url(#linearGradient15900);fill-opacity:1;fill-rule:evenodd;stroke:none" d="m 97.59896,322.93615 c -1.10611,0.36444 -1.99324,3.17624 -2.5068,4.23408 -1.93077,4.71654 -4.8292,12.02474 -3.57046,15.51603 1.48849,0.93164 4.38873,-1.57634 5.4883,-1.19088 1.32583,0.31229 2.93653,1.92939 5.03294,1.56651 1.63847,0.70618 0.13028,-12.5952 -1.77891,-15.54714 -0.85123,-2.21499 -1.27982,-5.035 -2.66507,-4.5786 z" id="path5972"/>
    <path style="fill:none;stroke:url(#linearGradient15897);stroke-width:3.65714288;stroke-linecap:butt;stroke-linejoin:round;stroke-miterlimit:4;stroke-opacity:1;stroke-dasharray:none" d="m 72.82112,349.9934 c 2.61052,6.7423 -0.37428,14.3917 5.47178,16.9632 6.21567,1.8584 12.04955,2.6378 18.50795,2.4784 8.16021,-1.5506 15.83563,1.7263 20.83939,-5.0766 1.87386,-4.1938 0.94765,-11.4359 4.09552,-14.931" id="path5974"/>
    <path style="fill:url(#linearGradient15892);fill-opacity:1;fill-rule:evenodd;stroke:url(#linearGradient15894);stroke-width:1.82857144;stroke-linecap:butt;stroke-linejoin:round;stroke-miterlimit:4;stroke-opacity:1;stroke-dasharray:none" d="m 94.18946,354.2502 c -0.37103,0.3875 -1.62403,1.2782 -2.1887,2.4075 -0.42188,0.8438 -0.474,3.2092 -0.6566,3.9397 -0.38928,1.5571 0.20574,2.0727 1.31321,2.6264 1.00639,0.5032 2.13876,0.1344 2.84531,-0.2188 0.98689,-0.4935 0.85035,-1.4316 1.09435,-2.4076 0.2545,-1.018 0,-2.4538 0,-3.5019 0,-1.3426 -0.12443,-1.8754 -0.87548,-2.6265 -0.63179,-0.6317 -0.008,-0.5235 -1.53209,-0.2188 z" id="path5978"/>
    <path style="fill:url(#linearGradient15887);fill-opacity:1;fill-rule:evenodd;stroke:url(#linearGradient15889);stroke-width:1.82857144;stroke-linecap:butt;stroke-linejoin:round;stroke-miterlimit:4;stroke-opacity:1;stroke-dasharray:none" d="m 98.2335,353.9269 c -0.0127,-0.013 -0.93889,2.4423 -1.09435,3.0642 -0.24366,0.9746 0.47321,2.0468 0.21887,3.0642 -0.35834,1.4333 -0.63324,1.9815 0.21887,2.4075 1.12642,0.5633 1.72445,0.5953 2.84531,0.8755 1.34163,0.3354 2.17449,-0.7106 2.62643,-1.3132 0.56585,-0.7545 -0.3074,-2.5428 -0.43774,-3.0642 -0.29725,-1.189 -0.75428,-1.9463 -1.31322,-3.0641 -0.32017,-0.6404 -1.47346,-1.1599 -1.96983,-1.5321 -0.3143,-0.2358 -0.72956,-0.2919 -1.09434,-0.4378 z" id="path5980"/>
    <path style="fill:url(#linearGradient15882);fill-opacity:1;fill-rule:evenodd;stroke:url(#linearGradient15884);stroke-width:1.82857144;stroke-linecap:butt;stroke-linejoin:round;stroke-miterlimit:4;stroke-opacity:1;stroke-dasharray:none" d="m 102.72539,355.4489 c -1.10895,-0.8317 0,2.7723 0,4.1585 0,1.0455 0.0403,2.3499 0.21887,3.0642 0.15901,0.6361 2.17398,0.5435 2.62643,0.6566 1.39587,0.349 2.34377,-0.529 2.84531,-1.5321 0.46243,-0.9248 -0.65661,-2.2508 -0.65661,-3.283 0,-1.7076 -0.69665,-2.6798 -1.31322,-3.5019 -0.87206,-1.1628 -3.02761,-0.1168 -3.72078,0.4377 z" id="path5982"/>
    <path style="fill:url(#linearGradient15877);fill-opacity:1;fill-rule:evenodd;stroke:url(#linearGradient15879);stroke-width:1.82857144;stroke-linecap:butt;stroke-linejoin:round;stroke-miterlimit:4;stroke-opacity:1;stroke-dasharray:none" d="m 109.29148,354.7923 c -0.005,-0.01 -0.43774,2.9757 -0.43774,3.9396 0,1.2658 -0.20067,2.0063 0.21887,2.8454 0.24519,0.4904 2.31342,0.5942 2.62644,0.4377 1.26761,-0.6338 1.09435,-3.0011 1.09435,-4.3774 0,-0.9074 -1.2345,-2.3682 -1.75096,-2.6264 -0.65421,-0.3271 -0.76946,-0.2189 -1.75096,-0.2189 z" id="path5984"/>
    <path style="fill:url(#linearGradient15872);fill-opacity:1;fill-rule:evenodd;stroke:url(#linearGradient15874);stroke-width:1.82857144;stroke-linecap:butt;stroke-linejoin:round;stroke-miterlimit:4;stroke-opacity:1;stroke-dasharray:none" d="m 113.45001,354.3545 c -1.30672,-0.6533 -0.21887,2.9165 -0.21887,4.3774 0,1.4585 -0.69263,1.8489 0.21887,3.0642 0.67542,0.9006 1.82262,-0.8019 2.40756,-1.0943 0.64316,-0.3216 0.43775,-2.3762 0.43775,-3.0642 0,-1.1288 -0.47296,-2.2591 -0.87548,-3.0642 -0.3476,-0.6952 -1.5332,-0.3062 -1.96983,-0.2189 z" id="path5986"/>
    <path style="fill:url(#linearGradient15867);fill-opacity:1;fill-rule:evenodd;stroke:url(#linearGradient15869);stroke-width:1.82857144;stroke-linecap:butt;stroke-linejoin:round;stroke-miterlimit:4;stroke-opacity:1;stroke-dasharray:none" d="m 86.52901,355.0112 c 0.005,-0.01 0.43775,2.7401 0.43775,3.7207 0,0.7272 0.2512,2.1316 0.43774,3.0642 0.27499,1.375 -1.11378,1.0944 -2.1887,1.0944 -1.18288,0 -1.82613,-0.9757 -2.40757,-1.751 -0.45456,-0.6061 0.0624,-3.095 0.21887,-3.7208 0.26746,-1.0698 1.30479,-1.6373 1.96983,-1.9698 0.66704,-0.3335 0.33994,-0.1993 1.53208,-0.4377 z" id="path5988"/>
    <path style="fill:url(#linearGradient15862);fill-opacity:1;fill-rule:evenodd;stroke:url(#linearGradient15864);stroke-width:1.82857144;stroke-linecap:butt;stroke-linejoin:round;stroke-miterlimit:4;stroke-opacity:1;stroke-dasharray:none" d="m 81.71388,356.1055 c 0.6803,-0.3401 0,2.4463 0,3.2831 0,1.286 0.56615,1.4941 0,2.6264 -0.45368,0.9074 -2.66305,-0.3466 -2.84531,-0.4377 -0.88294,-0.4415 -0.87548,-1.8298 -0.87548,-2.8454 0,-1.0756 0.90523,-2.3076 1.09435,-3.0641 0.54382,-2.1753 2.03383,-0.3031 2.62644,0.4377 z" id="path5990"/>
    <path style="fill:url(#linearGradient15857);fill-opacity:1;fill-rule:evenodd;stroke:url(#linearGradient15859);stroke-width:1.82857144;stroke-linecap:butt;stroke-linejoin:round;stroke-miterlimit:4;stroke-opacity:1;stroke-dasharray:none" d="m 86.96676,356.7621 c 0.67061,-1.0711 0.64562,-1.8029 2.1887,-2.1887 0.10363,-0.026 1.9092,1.9462 1.96982,2.1887 0.25681,1.0272 -0.0674,2.5757 0.21888,3.7208 0.38298,1.532 -0.19642,1.9095 -1.31323,2.1887 -1.55186,0.388 -1.83358,0.3261 -2.18869,-1.0943 -0.21664,-0.8666 -0.49573,-2.2018 -0.65661,-2.8454 -0.15899,-0.6359 -0.21887,-1.2953 -0.21887,-1.9698 z" id="path5992"/>
    <path style="fill:url(#linearGradient15852);fill-opacity:1;fill-rule:evenodd;stroke:url(#linearGradient15854);stroke-width:1.82857144;stroke-linecap:butt;stroke-linejoin:round;stroke-miterlimit:4;stroke-opacity:1;stroke-dasharray:none" d="m 77.99309,355.23 c 0.30374,0.7875 0.21887,3.2666 0.21887,4.8152 0,1.6966 -0.69128,1.5321 -2.18869,1.5321 -1.19592,0 -1.5321,-0.9752 -1.5321,-2.1887 0,-1.4735 -0.12386,-2.1599 0.65662,-3.7208 0.51911,-1.0382 0.94608,-1.3838 1.53208,-1.9698 0.47562,-0.4757 1.06342,0.9075 1.31322,1.532 z" id="path5994"/>
    <path style="fill:url(#linearGradient15847);fill-opacity:1;fill-rule:evenodd;stroke:url(#linearGradient15849);stroke-width:1.82857144;stroke-linecap:butt;stroke-linejoin:round;stroke-miterlimit:4;stroke-opacity:1;stroke-dasharray:none" d="m 79.74405,363.5471 c -0.82541,-0.8254 0,2.3346 0,3.5019 0,1.3283 0.42718,1.5321 1.75096,1.5321 0.37769,0 0.98778,-2.6379 1.09435,-3.0642 0.25888,-1.0355 0.19972,-2.2653 0,-3.0642 -0.55744,-2.2297 -2.60614,0.4965 -2.84531,1.0944 z" id="path5996"/>
    <path style="fill:url(#linearGradient15842);fill-opacity:1;fill-rule:evenodd;stroke:url(#linearGradient15844);stroke-width:1.82857144;stroke-linecap:butt;stroke-linejoin:round;stroke-miterlimit:4;stroke-opacity:1;stroke-dasharray:none" d="m 95.28381,370.1132 c -0.18849,-0.754 -0.31212,-2.9995 -0.65661,-4.3774 -0.32807,-1.3123 -0.58446,-1.6788 -1.53209,-2.6264 -1.17164,-1.1717 -1.25193,2.3199 -1.31322,2.6264 -0.23898,1.1949 0.62231,1.8326 0.87548,2.8453 0.31033,1.2413 1.04225,1.5321 2.62644,1.5321 z" id="path5998"/>
    <path style="fill:url(#linearGradient15837);fill-opacity:1;fill-rule:evenodd;stroke:url(#linearGradient15839);stroke-width:1.82857144;stroke-linecap:butt;stroke-linejoin:round;stroke-miterlimit:4;stroke-opacity:1;stroke-dasharray:none" d="m 95.72155,370.1132 c 0.35433,1.4173 -0.21887,-2.9165 -0.21887,-4.3774 0,-1.4018 -0.38673,-1.5831 0.43774,-2.4076 0.8815,-0.8815 2.23415,1.1853 2.40757,1.5321 0.47658,0.9532 0.65661,1.3559 0.65661,2.8453 0,1.3492 -1.01677,1.4933 -1.96983,1.9698 -1.28512,0.6426 2.77827,-0.3805 -1.31322,0.4378 z" id="path6000"/>
    <path style="fill:url(#linearGradient15832);fill-opacity:1;fill-rule:evenodd;stroke:url(#linearGradient15834);stroke-width:1.82857144;stroke-linecap:butt;stroke-linejoin:round;stroke-miterlimit:4;stroke-opacity:1;stroke-dasharray:none" d="m 99.88008,370.1132 c -0.18025,0.09 -0.21887,-3.2294 -0.21887,-4.1585 0,-1.368 0.54471,-1.4202 1.31322,-2.1887 1.00699,-1.007 2.16769,1.4311 2.40757,1.7509 0.58435,0.7792 0.13891,2.5085 0,3.0642 -0.10846,0.4338 -2.96976,1.3192 -3.50192,1.5321 z" id="path6002"/>
    <path style="fill:url(#linearGradient15827);fill-opacity:1;fill-rule:evenodd;stroke:url(#linearGradient15829);stroke-width:1.82857144;stroke-linecap:butt;stroke-linejoin:round;stroke-miterlimit:4;stroke-opacity:1;stroke-dasharray:none" d="m 92.00076,369.6754 c -0.30236,1.2095 -0.56521,-2.5045 -1.31321,-3.5019 -1.04382,-1.3917 -0.43268,-1.8578 -1.96984,-2.6264 -0.87996,-0.44 -1.24192,1.8272 -1.53208,2.4076 -0.58801,1.176 0.62612,2.1734 1.09435,2.4075 0.86719,0.4336 1.08378,1.1985 2.1887,1.751 0.50992,0.2549 0.74733,0.2962 1.31321,0.4377" id="path6004"/>
    <path style="fill:url(#linearGradient15822);fill-opacity:1;fill-rule:evenodd;stroke:url(#linearGradient15824);stroke-width:1.82857144;stroke-linecap:butt;stroke-linejoin:round;stroke-miterlimit:4;stroke-opacity:1;stroke-dasharray:none" d="m 86.09128,368.8 c 0.32848,0.1642 0,-3.2606 0,-4.1586 0,-1.7031 -0.15149,-1.3132 -1.96983,-1.3132 -1.25671,0 -1.09435,2.1269 -1.09435,3.2831 0,1.5273 0.0734,1.8971 1.09435,2.4075 0.92781,0.4639 0.80708,0.6532 1.96983,-0.2188 z" id="path6006"/>
    <path style="fill:url(#linearGradient15817);fill-opacity:1;fill-rule:evenodd;stroke:url(#linearGradient15819);stroke-width:1.82857144;stroke-linecap:butt;stroke-linejoin:round;stroke-miterlimit:4;stroke-opacity:1;stroke-dasharray:none" d="m 104.69521,369.4566 c 1.19078,0.5954 0.0612,-2.7489 0.65661,-3.9397 0.49117,-0.9823 1.89526,-1.3132 2.84531,-1.3132 1.38584,0 1.09435,1.177 1.09435,2.4076 0,0.7945 -1.20425,1.6419 -1.75096,2.1887 -0.56969,0.5696 -1.95018,0.6566 -2.84531,0.6566 z" id="path6008"/>
    <path style="fill:url(#linearGradient15812);fill-opacity:1;fill-rule:evenodd;stroke:url(#linearGradient15814);stroke-width:1.82857144;stroke-linecap:butt;stroke-linejoin:round;stroke-miterlimit:4;stroke-opacity:1;stroke-dasharray:none" d="m 110.16696,368.1434 c -0.51598,0.5159 0.0934,-2.1248 0.65661,-4.3774 0.29551,-1.1821 1.61383,-0.8551 2.40757,-0.6566 1.23099,0.3077 0.46128,2.3604 0.21887,2.8453 -0.62313,1.2462 -1.88768,2.1887 -3.28305,2.1887 z" id="path6010"/>
    <path style="fill:none;stroke:url(#linearGradient15809);stroke-width:1.82857144;stroke-linecap:round;stroke-linejoin:round;stroke-miterlimit:4;stroke-opacity:1;stroke-dasharray:none" d="m 97.397,261.5285 c -0.41271,1.13494 0.61905,1.267 0.61905,3.09529 0,0.83394 -3.2379,4.66722 -2.78576,5.57152 0.65157,1.30312 2.42313,2.42312 2.78576,2.78576 0.24679,0.24678 -5.68363,-0.76927 -6.5001,1.85717 -0.69911,2.24892 -3.12929,-2.00116 -5.3682,-1.44143 -1.53312,0.38328 -4.45315,5.73305 -5.77483,6.39389 -1.91714,0.95857 -3.79036,-2.37548 -4.3334,-0.20332 -0.3806,1.5224 -0.26903,2.62374 -0.61906,4.02388 -0.63508,2.54031 1.01496,-0.94659 -3.09529,-0.26155 -1.87375,0.31229 -2.1667,-0.78128 -2.1667,3.40482 0,0.099 -3.83343,1.95248 -4.3334,2.78575 -0.96946,1.61577 -1.31483,2.12483 -1.85717,4.29421 -0.70823,2.8329 -5.312,1.21069 -6.77102,2.66971" id="path6012"/>
    <path style="fill:none;stroke:url(#linearGradient15806);stroke-width:1.82857144;stroke-linecap:round;stroke-linejoin:round;stroke-miterlimit:4;stroke-opacity:1;stroke-dasharray:none" d="m 97.34927,275.4976 c 1.34129,-1.34129 2.68258,-2.68258 4.02387,-4.02387 1.34129,-1.34129 -2.68258,2.68258 -4.02387,4.02387 -1.44447,1.44447 3.10773,-2.69917 4.3334,-4.33341 1.73318,-2.3109 5.1412,0.687 5.88105,2.16671 0.89719,1.79438 2.27028,3.28075 3.09528,2.78576 1.22911,-0.73747 3.20956,-1.23812 4.64293,-1.23812 2.97865,0 4.34001,2.48943 5.57152,4.95246 0.88611,1.77221 3.18551,-1.23811 5.57152,-1.23811 2.44536,0 3.64188,1.21844 3.09528,3.40481 -0.23661,0.94646 3.03279,2.1042 3.71435,2.78576 1.73735,1.73734 -0.66973,3.31477 2.1667,4.02387 2.60749,0.65187 7.51341,2.3427 9.1312,2.74715" id="path6014"/>
    <path style="fill:none;stroke:url(#linearGradient15803);stroke-width:1.82857144;stroke-linecap:round;stroke-linejoin:round;stroke-miterlimit:4;stroke-opacity:1;stroke-dasharray:none" d="m 70.77039,302.4824 c 2.27011,0.11564 7.30726,-1.31322 10.94349,-1.31322 3.80977,0 6.46028,-0.27177 9.63028,1.31322 0.59136,0.29569 1.18298,0.5915 1.75095,0.87549" id="path6016"/>
    <path style="fill:none;stroke:url(#linearGradient15800);stroke-width:1.82857144;stroke-linecap:round;stroke-linejoin:round;stroke-miterlimit:4;stroke-opacity:1;stroke-dasharray:none" d="m 104.47634,303.35789 c 1.57353,-1.29251 4.94821,-3.06418 7.44158,-3.06418 2.77109,0 5.08038,0 7.87931,0 1.75096,0 3.50192,0 5.25288,0" id="path6018"/>
    <path style="fill:url(#linearGradient15795);fill-opacity:1;fill-rule:evenodd;stroke:url(#linearGradient15797);stroke-width:3.65714288;stroke-linecap:round;stroke-linejoin:round;stroke-miterlimit:4;stroke-opacity:1;stroke-dasharray:none" d="m 141.25714,270.17161 c 0,0 -14.85714,4.91429 -25.6,10.05715 -10.74286,5.14285 -14.62857,15.08571 -14.62857,15.08571 12.77284,-6.44504 28.65445,-13.0989 49.82857,-12.34286 1.16636,-5.72212 0.11361,-10.70453 -9.6,-12.8 z" id="path6020"/>
    <path style="fill:url(#linearGradient15790);fill-opacity:1;fill-rule:evenodd;stroke:url(#linearGradient15792);stroke-width:3.65714288;stroke-linecap:round;stroke-linejoin:round;stroke-miterlimit:4;stroke-opacity:1;stroke-dasharray:none" d="m 49.82857,277.94304 c -10.79341,-15.10622 -23.371,-26.59082 -22.85714,-50.74285 45.22306,22.17299 99.05023,16.81832 140.34285,-1.37143 -6.98569,19.10324 -18.24357,35.24753 -30.62857,40.68571 -31.46726,23.83565 -58.8416,19.46679 -86.85714,11.42857 z" id="path6022"/>
    <path style="fill:url(#linearGradient15785);fill-opacity:1;fill-rule:evenodd;stroke:url(#linearGradient15787);stroke-width:3.65714288;stroke-linecap:butt;stroke-linejoin:miter;stroke-miterlimit:4;stroke-opacity:1;stroke-dasharray:none" d="m 45.71428,288.45732 c -2.13023,3.43372 -4.76675,9.4391 0.65557,11.25104 6.00458,3.3132 17.32519,1.06031 23.69207,-0.27808 7.10996,-2.18712 30.61778,-9.87094 35.01592,-14.55582 8.88488,-4.40761 37.13445,-15.127 43.53908,-15.83551 4.74157,-2.87773 0.52261,-12.85472 -5.25044,-11.12532 -4.16004,-0.88372 -44.50834,17.70475 -50.0708,19.58161 -4.54494,1.14974 -22.79607,8.44594 -28.1816,8.23027 -4.79316,-0.0449 -17.61781,2.73481 -19.3998,2.73181 z" id="path6024"/>
    <path style="fill:url(#linearGradient15780);fill-opacity:1;fill-rule:evenodd;stroke:url(#linearGradient15782);stroke-width:3.65714288;stroke-linecap:butt;stroke-linejoin:miter;stroke-miterlimit:4;stroke-opacity:1;stroke-dasharray:none" d="m 100.85992,269.65507 c 2.51194,-4.31477 0.0843,-7.0522 5.12831,-9.64131 5.20221,-2.67032 8.65359,-4.19549 12.05721,-8.66506 2.74546,-3.60529 4.26857,-18.58877 1.56864,-22.12888 -2.77318,-3.63615 -9.87167,-1.06962 -12.47421,-5.40289 -1.41127,-2.34978 -3.1762,-5.72889 -5.67953,-6.59966 -2.32404,-0.80841 -4.89048,-1.03094 -7.2756,-0.76318 -4.38189,0.49191 -4.15541,6.6857 -8.02745,8.1995 -4.29459,1.679 -8.82687,-0.0871 -11.86892,3.62774 -3.52586,4.30561 -2.76778,17.68254 1.55194,21.9923 2.97958,2.9727 7.26759,5.43716 8.95368,9.4429 1.44812,3.44039 2.30358,2.15073 -0.67479,5.98783 -7.30576,9.41217 -27.1264,11.22318 -33.42839,9.64225 -5.36156,-1.34502 -10.20436,9.9566 -5.43367,12.19643 10.52619,4.94204 48.08108,-4.96793 55.60278,-17.88797 z" id="path6026"/>
    <path style="fill:none;stroke:url(#linearGradient15777);stroke-width:3.65714288;stroke-linecap:round;stroke-linejoin:round;stroke-miterlimit:4;stroke-opacity:1;stroke-dasharray:none" d="m 94.17142,222.51784 5.94286,0" id="path6028"/>
    <path style="fill:none;stroke:url(#linearGradient15774);stroke-width:1.82857144;stroke-linecap:round;stroke-linejoin:round;stroke-miterlimit:4;stroke-opacity:1;stroke-dasharray:none" d="m 80.89064,229.78196 c 0.23178,12.99699 1.8812,20.16418 5.55069,24.5669" id="path6030"/>
    <path id="path6032" d="m 112.80087,232.26951 c -2.15852,12.81859 -4.85357,19.66154 -9.13596,23.47078" style="fill:none;stroke:url(#linearGradient15771);stroke-width:1.82857144;stroke-linecap:round;stroke-linejoin:round;stroke-miterlimit:4;stroke-opacity:1;stroke-dasharray:none"/>
    <path id="path6034" d="m 89.9416,226.54947 c 5.86532,2.64269 9.73021,1.28453 13.95516,0.6465" style="fill:none;stroke:url(#linearGradient15768);stroke-width:1.82857144;stroke-linecap:round;stroke-linejoin:round;stroke-miterlimit:4;stroke-opacity:1;stroke-dasharray:none"/>
  </g>
</svg>