<?xml version="1.0" encoding="utf-8"?>
<svg viewBox="800 200 200 200" xmlns="http://www.w3.org/2000/svg" xmlns:xlink="http://www.w3.org/1999/xlink">
  <defs>
    <linearGradient id="linearGradient15284" gradientUnits="userSpaceOnUse" gradientTransform="translate(0,-452.362)" x1="844.43134" y1="762.97943" x2="880.50171" y2="762.97943" xlink:href="#linearGradientWhitePiecesBorder"/>
    <linearGradient id="linearGradientWhitePiecesBorder">
      <stop style="stop-color:#000000;stop-opacity:1;" offset="0" id="stop7816"/>
      <stop style="stop-color:#000000;stop-opacity:1;" offset="1" id="stop7818"/>
    </linearGradient>
    <linearGradient id="linearGradient15279" gradientUnits="userSpaceOnUse" gradientTransform="matrix(0.2096576,0,0,0.2096576,825.76857,216.78144)" x1="354.36316" y1="724.97058" x2="456.54602" y2="864.27307" xlink:href="#linearGradientWhitePieces"/>
    <linearGradient id="linearGradientWhitePieces">
      <stop style="stop-color:#ffffff;stop-opacity:1;" offset="0" id="stop5177-6"/>
      <stop style="stop-color:#000000;stop-opacity:1;" offset="1" id="stop5179-8"/>
    </linearGradient>
    <linearGradient id="linearGradient15281" gradientUnits="userSpaceOnUse" gradientTransform="translate(0,-452.362)" x1="882.36829" y1="828.97711" x2="919.28955" y2="828.97711" xlink:href="#linearGradientWhitePiecesBorder"/>
    <linearGradient id="linearGradient15274" gradientUnits="userSpaceOnUse" gradientTransform="matrix(0.43887269,0.06284457,-0.06284457,0.43887269,743.78848,118.1578)" x1="462.73083" y1="428.60229" x2="618.62885" y2="428.60229" xlink:href="#linearGradientWhitePieces"/>
    <linearGradient id="linearGradient15276" gradientUnits="userSpaceOnUse" gradientTransform="translate(0,-452.362)" x1="951.61542" y1="812.61157" x2="969.87512" y2="812.61157" xlink:href="#linearGradientWhitePiecesBorder"/>
    <linearGradient id="linearGradient15269" gradientUnits="userSpaceOnUse" gradientTransform="matrix(0.41219086,0.16327132,-0.16327132,0.41219086,809.62069,73.27961)" x1="522.39294" y1="485.50229" x2="618.62885" y2="469.00677" xlink:href="#linearGradientWhitePieces"/>
    <linearGradient id="linearGradient15271" gradientUnits="userSpaceOnUse" gradientTransform="translate(0,-452.362)" x1="952.53705" y1="828.3324" x2="979.31989" y2="828.3324" xlink:href="#linearGradientWhitePiecesBorder"/>
    <linearGradient id="linearGradient15264" gradientUnits="userSpaceOnUse" gradientTransform="matrix(0.44334949,0,0,0.44334949,710.97769,124.94002)" x1="462.73083" y1="428.60229" x2="618.62885" y2="428.60229" xlink:href="#linearGradientWhitePieces"/>
    <linearGradient id="linearGradient15266" gradientUnits="userSpaceOnUse" gradientTransform="translate(0,-452.362)" x1="950.06189" y1="785.60187" x2="970.54993" y2="785.60187" xlink:href="#linearGradientWhitePiecesBorder"/>
    <linearGradient id="linearGradient15259" gradientUnits="userSpaceOnUse" gradientTransform="matrix(0.4302688,0.10689897,-0.10689897,0.4302688,770.98002,70.62779)" x1="522.39294" y1="485.50229" x2="618.62885" y2="469.00677" xlink:href="#linearGradientWhitePieces"/>
    <linearGradient id="linearGradient15261" gradientUnits="userSpaceOnUse" gradientTransform="translate(0,-452.362)" x1="951.49579" y1="801.44019" x2="981.25293" y2="801.44019" xlink:href="#linearGradientWhitePiecesBorder"/>
    <linearGradient id="linearGradient15254" gradientUnits="userSpaceOnUse" gradientTransform="matrix(0.44334949,0,0,0.44334949,706.10181,98.88571)" x1="377.70755" y1="413.54922" x2="474.78088" y2="505.35657" xlink:href="#linearGradientWhitePieces"/>
    <linearGradient id="linearGradient15256" gradientUnits="userSpaceOnUse" gradientTransform="translate(0,-452.362)" x1="819.7616" y1="754.84851" x2="916.59564" y2="754.84851" xlink:href="#linearGradientWhitePiecesBorder"/>
    <linearGradient id="linearGradient15249" gradientUnits="userSpaceOnUse" gradientTransform="matrix(0.44334949,0,0,0.44334949,706.10181,98.88571)" x1="433.81351" y1="323.27167" x2="357.96667" y2="397.28345" xlink:href="#linearGradientWhitePieces"/>
    <linearGradient id="linearGradient15251" gradientUnits="userSpaceOnUse" gradientTransform="translate(0,-452.362)" x1="855.84723" y1="722.4212" x2="900.60809" y2="722.4212" xlink:href="#linearGradientWhitePiecesBorder"/>
    <linearGradient id="linearGradient15244" gradientUnits="userSpaceOnUse" gradientTransform="matrix(0.44334949,0,0,0.44334949,706.10181,98.88571)" x1="280.6785" y1="392.55249" x2="406.05249" y2="444.0405" xlink:href="#linearGradientWhitePieces"/>
    <linearGradient id="linearGradient15246" gradientUnits="userSpaceOnUse" gradientTransform="translate(0,-452.362)" x1="818.10461" y1="740.09766" x2="892.47595" y2="740.09766" xlink:href="#linearGradientWhitePiecesBorder"/>
    <linearGradient id="linearGradient15239" gradientUnits="userSpaceOnUse" gradientTransform="matrix(0.44334949,0,0,0.44334949,703.81609,98.88571)" x1="456.65414" y1="391.58966" x2="566.70068" y2="425.28772" xlink:href="#linearGradientWhitePieces"/>
    <linearGradient id="linearGradient15241" gradientUnits="userSpaceOnUse" gradientTransform="translate(0,-452.362)" x1="908.91254" y1="721.44269" x2="943.30023" y2="721.44269" xlink:href="#linearGradientWhitePiecesBorder"/>
    <linearGradient id="linearGradient15234" gradientUnits="userSpaceOnUse" gradientTransform="matrix(0.44334949,0,0,0.44334949,703.81609,98.88571)" x1="462.73083" y1="428.60229" x2="618.62885" y2="428.60229" xlink:href="#linearGradientWhitePieces"/>
    <linearGradient id="linearGradient15236" gradientUnits="userSpaceOnUse" gradientTransform="translate(0,-452.362)" x1="928.04724" y1="728.44061" x2="955.7854" y2="728.44061" xlink:href="#linearGradientWhitePiecesBorder"/>
    <linearGradient id="linearGradient15229" gradientUnits="userSpaceOnUse" gradientTransform="matrix(0.44334949,0,0,0.44334949,703.81609,98.88571)" x1="462.73083" y1="428.60229" x2="618.62885" y2="428.60229" xlink:href="#linearGradientWhitePieces"/>
    <linearGradient id="linearGradient15231" gradientUnits="userSpaceOnUse" gradientTransform="translate(0,-452.362)" x1="942.90027" y1="759.54755" x2="963.38831" y2="759.54755" xlink:href="#linearGradientWhitePiecesBorder"/>
    <linearGradient id="linearGradient15224" gradientUnits="userSpaceOnUse" gradientTransform="matrix(0.44334949,0,0,0.44334949,703.81609,98.88571)" x1="522.39294" y1="485.50229" x2="618.62885" y2="469.00677" xlink:href="#linearGradientWhitePieces"/>
    <linearGradient id="linearGradient15226" gradientUnits="userSpaceOnUse" gradientTransform="translate(0,-452.362)" x1="943.98199" y1="773.57001" x2="978.1402" y2="773.57001" xlink:href="#linearGradientWhitePiecesBorder"/>
    <linearGradient id="linearGradient15219" gradientUnits="userSpaceOnUse" gradientTransform="matrix(0.44334949,0,0,0.44334949,703.81609,98.88571)" x1="511.89685" y1="446.66107" x2="611.99969" y2="452.35666" xlink:href="#linearGradientWhitePieces"/>
    <linearGradient id="linearGradient15221" gradientUnits="userSpaceOnUse" gradientTransform="translate(0,-452.362)" x1="935.57111" y1="749.2525" x2="970.36121" y2="749.2525" xlink:href="#linearGradientWhitePiecesBorder"/>
    <linearGradient id="linearGradient15214" gradientUnits="userSpaceOnUse" gradientTransform="matrix(0.44334949,0,0,0.44334949,703.81609,98.88571)" x1="419.67706" y1="352.28876" x2="483.55563" y2="352.28876" xlink:href="#linearGradientWhitePieces"/>
    <linearGradient id="linearGradient15216" gradientUnits="userSpaceOnUse" gradientTransform="translate(0,-452.362)" x1="889.82465" y1="707.5625" x2="918.64362" y2="707.5625" xlink:href="#linearGradientWhitePiecesBorder"/>
    <linearGradient id="linearGradient15209" gradientUnits="userSpaceOnUse" gradientTransform="matrix(0.2096576,0,0,0.2096576,820.50808,216.26324)" x1="794.93005" y1="722.53284" x2="770.78296" y2="895.88794" xlink:href="#linearGradientWhitePieces"/>
    <linearGradient id="linearGradient15211" gradientUnits="userSpaceOnUse" gradientTransform="translate(0,-452.362)" x1="915.12128" y1="827.7655" x2="995.56488" y2="827.7655" xlink:href="#linearGradientWhitePiecesBorder"/>
    <linearGradient id="linearGradient15204" gradientUnits="userSpaceOnUse" gradientTransform="translate(0,-452.362)" x1="866.35437" y1="720.33911" x2="880.85162" y2="720.33911" xlink:href="#linearGradientWhitePiecesBorder"/>
    <linearGradient id="linearGradient15206" gradientUnits="userSpaceOnUse" gradientTransform="translate(0,-452.362)" x1="866.35437" y1="720.33911" x2="880.85162" y2="720.33911" xlink:href="#linearGradientWhitePiecesBorder"/>
  </defs>
  <g id="WhiteKnight">
    <rect style="fill:none;stroke:none" id="rect6206" width="200" height="200" x="800" y="200.00018"/>
    <path style="fill:none;stroke:url(#linearGradient15284);stroke-width:1.82857144;stroke-linecap:round;stroke-linejoin:round;stroke-miterlimit:4;stroke-opacity:1;stroke-dasharray:none" d="m 845.34562,318.52553 c 1.11825,1.92054 1.6663,2.99722 4.42397,3.68663 1.61062,0.40266 1.10599,-2.63788 1.10599,-4.42396 0,-2.79429 0.64245,-3.0862 2.58064,-4.0553 1.86484,-0.93242 2.92728,2.16793 3.31797,2.94931 0.9281,1.8562 3.4449,0.97906 4.42397,0 1.32498,-1.32499 1.10599,-2.95142 1.10599,-5.16129 0,-0.70941 -1.84332,-1.45433 -1.84332,-3.68664 0,-0.54862 4.31499,-0.36866 5.16129,-0.36866 0.31562,0 3.14836,3.88568 3.31797,4.0553 1.44244,1.44244 3.35128,0.67072 4.0553,-0.73733 0.9283,-1.8566 -1.35187,-3.07225 -2.58064,-3.68664 -1.209,-0.60449 -1.23748,-3.47523 -1.47466,-4.42396 -0.4215,-1.68601 3.67106,-0.15681 5.16129,0.73733 2.23792,1.34275 1.15195,2.93782 4.0553,2.21198 2.24591,-0.56148 1.32055,-2.96591 0.73733,-4.42396 -0.38726,-0.96816 -1.74566,-1.27933 -2.21198,-2.21198" id="path6208"/>
    <path style="fill:url(#linearGradient15279);fill-opacity:1;fill-rule:evenodd;stroke:url(#linearGradient15281);stroke-width:3.65714288;stroke-linecap:butt;stroke-linejoin:miter;stroke-miterlimit:4;stroke-opacity:1;stroke-dasharray:none" d="m 917.1099,367.7124 c -6.5118,4.473 2.61918,12.1603 -3.60237,17.0491 -6.3053,5.7411 -2.26825,4.3732 -10.12279,5.9718 -5.43331,1.4539 -23.59717,2.084 -18.19594,-1.7656 7.15768,-5.123 10.0254,-13.4998 15.90766,-19.616 3.61005,-2.6713 18.8562,-15.5328 16.01344,-1.6393 z" id="path6210"/>
    <path style="fill:url(#linearGradient15274);fill-opacity:1;fill-rule:evenodd;stroke:url(#linearGradient15276);stroke-width:3.65714288;stroke-linecap:round;stroke-linejoin:round;stroke-miterlimit:4;stroke-opacity:1;stroke-dasharray:none" d="m 953.57426,361.9462 c 0.14482,-1.8207 1.58721,-3.5849 0.77074,-5.4293 -0.7782,-1.3913 -1.38926,-3.3476 -0.22674,-4.7084 1.95942,-2.0993 4.94736,-2.4974 7.43713,-3.6806 1.39795,-0.50972 2.811,-0.98019 4.24503,-1.37827 1.65224,0.39703 2.20701,2.34927 2.00014,3.84967 -0.14215,3.5736 -0.66896,7.1541 -0.28305,10.7276 0.11812,2.3185 -0.16122,4.6618 0.33666,6.9513 0.20925,1.2562 0.43227,2.6652 -0.41171,3.756 -0.92333,1.4682 -2.88184,2.1409 -4.48756,1.431 -1.8442,-0.5922 -2.8009,-2.4007 -4.20808,-3.5741 -1.56636,-1.2574 -3.68875,-1.8695 -4.8861,-3.5463 -0.69463,-1.3679 -0.31849,-2.9412 -0.28646,-4.3986 z" id="path6212"/>
    <path style="fill:url(#linearGradient15269);fill-opacity:1;fill-rule:evenodd;stroke:url(#linearGradient15271);stroke-width:3.65714288;stroke-linecap:round;stroke-linejoin:round;stroke-miterlimit:4;stroke-opacity:1;stroke-dasharray:none" d="m 955.00897,364.0229 c 1.64588,-1.3012 -1.57206,-1.029 1.40136,-1.5899 2.97342,-0.5609 6.23749,0.7943 7.93009,3.3078 0.82449,0.9865 1.66644,2.326 3.03633,2.5002 2.58316,-0.111 2.33757,-3.2289 3.49549,-4.7034 1.48922,-1.127 2.70719,0.6014 2.20637,2.0248 -0.14998,1.9513 0.4963,3.7658 1.34611,5.4594 0.45921,1.8816 0.23638,3.9572 1.33595,5.65 1.92136,4.023 1.80606,8.5865 1.65561,12.9338 -1.85587,0.3491 -1.25197,-2.6743 -1.91177,-3.8118 -0.40031,-2.3341 -0.0677,-4.7989 -0.76159,-7.0653 -1.36405,-1.6811 -3.29733,0.8892 -2.31842,2.3191 -0.15701,1.9317 -1.2804,3.928 -2.57941,5.2291 0.0355,-1.299 -0.48809,-3.1487 -2.19683,-2.834 -2.27367,0.6026 0.14389,3.3746 -1.72862,4.1941 -1.67377,0.1398 -2.39906,-2.021 -3.05529,-3.2586 -0.96773,-2.5609 -1.20987,-5.3282 -2.20445,-7.8847 -1.04811,-2.803 -1.61211,-6.0597 -4.00177,-8.0878 -1.42953,-0.7242 -3.29504,-3.0816 -1.64916,-4.3828 z" id="path6214"/>
    <path id="path6216" d="m 953.20205,336.52978 c -0.11474,-1.82286 1.06302,-3.77367 -0.007,-5.48372 -0.96755,-1.26691 -1.84976,-3.11689 -0.89186,-4.62871 1.64206,-2.35584 4.54339,-3.1735 6.84031,-4.69765 1.31159,-0.70272 2.64367,-1.36875 4.0068,-1.96608 1.69183,0.15882 2.51773,2.01275 2.52563,3.52726 0.36585,3.55774 0.35189,7.17673 1.24044,10.65945 0.44557,2.27829 0.50121,4.63752 1.31859,6.83334 0.38522,1.21389 0.80571,2.57703 0.12487,3.77647 -0.70588,1.58429 -2.54927,2.52779 -4.2394,2.05269 -1.90953,-0.32484 -3.11292,-1.97948 -4.67223,-2.9416 -1.72877,-1.02262 -3.9165,-1.32774 -5.33944,-2.81781 -0.88151,-1.25564 -0.73218,-2.86636 -0.90706,-4.31364 z" style="fill:url(#linearGradient15264);fill-opacity:1;fill-rule:evenodd;stroke:url(#linearGradient15266);stroke-width:3.65714288;stroke-linecap:round;stroke-linejoin:round;stroke-miterlimit:4;stroke-opacity:1;stroke-dasharray:none"/>
    <path style="fill:url(#linearGradient15259);fill-opacity:1;fill-rule:evenodd;stroke:url(#linearGradient15261);stroke-width:3.65714288;stroke-linecap:round;stroke-linejoin:round;stroke-miterlimit:4;stroke-opacity:1;stroke-dasharray:none" d="m 953.80836,339.40875 c 0.83312,-0.54815 -0.60808,-1.80761 1.00447,-1.71545 3.29829,-1.1931 7.0967,0.21187 9.223,2.90325 1.13088,1.5657 3.9174,1.90156 4.47772,-0.3488 0.4249,-1.36666 0.48847,-4.84297 2.73345,-3.61085 1.30785,1.09416 0.36455,2.87824 1.16355,4.21569 0.75529,1.76012 1.99164,3.31781 2.25565,5.26827 0.30516,1.84054 1.60628,3.19424 2.38069,4.81944 1.60963,3.3808 2.01148,7.1575 2.37746,10.8377 -1.90114,0.065 -1.78878,-2.3271 -2.30704,-3.6088 -0.85445,-1.9058 -0.73147,-4.1098 -1.48928,-6.0645 -0.60382,-2.4841 -3.58457,-0.1473 -2.58104,1.6637 0.89103,1.6548 -0.8122,5.0203 -1.57571,5.4193 0.2371,-1.9343 -3.19937,-3.4421 -3.36294,-0.9721 0.29575,1.2012 0.52494,3.9191 -1.50034,2.9568 -2.38456,-1.5958 -3.11838,-4.567 -4.17044,-7.0732 -1.00937,-2.5946 -2.31471,-5.0608 -3.62299,-7.5126 -0.89451,-1.57781 -2.23009,-2.91214 -3.89772,-3.64769 -1.05952,-0.73319 -2.29368,-2.34531 -1.10849,-3.53016 z" id="path6218"/>
    <path style="fill:url(#linearGradient15254);fill-opacity:1;fill-rule:evenodd;stroke:url(#linearGradient15256);stroke-width:3.65714288;stroke-linecap:round;stroke-linejoin:round;stroke-miterlimit:4;stroke-opacity:1;stroke-dasharray:none" d="m 897.27688,258.98919 c 3.4177,4.77828 27.94089,36.04178 12.34916,51.22112 -6.98535,7.21672 -15.88179,9.83871 -25.99981,9.11112 -9.0356,3.38229 -41.79586,23.08085 -52.00055,28.00473 -3.87756,0.54274 -10.46957,-1.49628 -10.01299,-4.45918 4.57708,-2.38349 8.84027,-2.23142 11.67666,-5.62515 6.02828,-1.40318 12.1608,-5.39016 14.724,-13.6596 5.70526,-1.40377 25.8808,-14.773 32.23282,-20.77046 3.04325,-3.54256 8.4774,-7.30113 10.61219,-11.5061 2.23198,-5.19015 1.0306,-19.12504 -0.88366,-25.4059 7.49108,9.22389 -0.88344,-14.20077 7.30218,-6.91058 z" id="path6220"/>
    <path style="fill:url(#linearGradient15249);fill-opacity:1;fill-rule:evenodd;stroke:url(#linearGradient15251);stroke-width:3.65714288;stroke-linecap:round;stroke-linejoin:round;stroke-miterlimit:4;stroke-opacity:1;stroke-dasharray:none" d="m 892.10863,233.36621 c 3.39497,-0.39792 7.7696,2.2625 6.41988,6.0886 -0.54246,3.31765 -3.01656,6.14022 -6.25356,7.05328 -3.57719,1.90155 -8.03741,1.09927 -11.50071,3.06337 -2.82773,3.62785 3.80316,13.18097 6.65285,12.89879 -0.64213,5.4988 -0.91929,23.3462 -1.37817,25.82933 -0.94585,3.89168 -11.97094,11.93327 -16.85216,15.41152 -2.64905,3.54229 -8.05098,4.51964 -10.59573,0.30141 -2.62384,-2.88943 0.89753,-25.56846 3.5515,-32.70699 1.46025,-4.05328 7.36062,-25.8253 12.29749,-30.79516 1.69199,-1.13286 13.55301,-6.85189 17.65861,-7.14415 z" id="path6222"/>
    <path style="fill:url(#linearGradient15244);fill-opacity:1;fill-rule:evenodd;stroke:url(#linearGradient15246);stroke-width:3.65714288;stroke-linecap:round;stroke-linejoin:round;stroke-miterlimit:4;stroke-opacity:1;stroke-dasharray:none" d="m 879.5372,236.59392 c -0.90931,-1.17854 -13.87962,8.80199 -17.22388,12.79517 -6.13736,7.65052 -14.10562,17.77013 -17.37377,23.85776 -3.52873,3.52843 -19.21286,22.42504 -24.66145,40.04002 1.76484,-1.06394 10.0905,-10.19232 12.66318,-11.43011 3.20232,-3.2743 -3.92234,13.6658 -6.94107,18.28818 -3.1389,1.8005 -3.48479,5.47955 -4.69674,8.88085 -0.99839,3.33746 -2.29579,6.81278 -0.40179,9.94766 3.61758,-1.46867 7.19287,-5.39812 11.80419,-6.12377 1.46888,-4.02072 2.58824,-12.01154 9.49046,-12.80172 6.81628,-1.02543 12.98094,-4.49749 18.01108,-9.13024 3.47641,-3.69162 19.1766,-14.05102 19.00863,-15.07389 -5.72928,1.37587 -11.95139,4.53102 -18.02495,3.81004 2.85362,-4.02431 17.85762,-19.63045 20.72661,-24.78603 1.57862,-4.78738 3.45896,-9.48633 5.66656,-14.03479 1.64788,-4.00011 5.83299,-7.20769 0.26725,-12.30742 -1.80003,-0.92086 -2.14987,3.50069 -3.84176,5.89271 -2.97877,4.73423 -12.52263,4.68031 -14.00038,-1.35599 -1.6553,-6.77673 10.13042,-15.68742 9.52783,-16.46843 z" id="path6224"/>
    <path style="fill:url(#linearGradient15239);fill-opacity:1;fill-rule:evenodd;stroke:url(#linearGradient15241);stroke-width:3.65714288;stroke-linecap:round;stroke-linejoin:round;stroke-miterlimit:4;stroke-opacity:1;stroke-dasharray:none" d="m 914.44597,244.10255 c 1.44896,2.74012 4.24007,4.5793 7.20285,5.31399 2.50799,1.76531 -0.32688,5.25623 1.6578,7.29135 1.96279,2.02618 3.35229,4.59257 3.88939,7.35703 1.39227,3.07691 2.94105,6.15414 3.36391,9.54877 1.12761,3.4983 4.48713,5.47103 6.81942,8.10746 1.48979,1.65008 3.23923,3.27033 3.96315,5.41628 0.70078,2.28062 -1.59626,3.11472 -3.36414,2.80025 -1.30006,0.91035 0.27936,5.38029 -2.3584,3.87491 -2.26056,-1.84198 -2.90432,-4.90921 -2.57583,-7.67852 -0.18861,-3.36588 -2.20609,-6.22187 -3.36573,-9.29022 -2.13219,-3.44143 -5.31407,-6.34528 -9.1875,-7.66058 -2.45547,-0.93569 -4.88646,-2.37478 -6.05894,-4.83621 -1.72425,-2.52192 -3.25934,-5.297 -3.41067,-8.4218 -0.58356,-3.93121 -0.42474,-8.31975 2.13014,-11.57173 0.34396,-0.31907 0.85937,-0.37461 1.29455,-0.25098 z" id="path6226"/>
    <path style="fill:url(#linearGradient15234);fill-opacity:1;fill-rule:evenodd;stroke:url(#linearGradient15236);stroke-width:3.65714288;stroke-linecap:round;stroke-linejoin:round;stroke-miterlimit:4;stroke-opacity:1;stroke-dasharray:none" d="m 929.87584,262.96128 c 1.88582,-1.37809 4.24811,-0.13242 6.33727,-0.56127 2.90689,-0.27827 6.18287,-0.44841 8.63327,1.43038 2.18978,2.34425 3.73351,5.28537 4.35934,8.43385 0.76416,2.30997 2.49881,4.08107 3.92564,5.98059 0.86253,1.48511 1.29674,3.64529 0.046,5.0338 -1.43568,1.0594 -3.12203,-0.35551 -3.86762,-1.59777 -1.13407,-1.4752 -2.115,-3.452 -3.7136,-4.34316 -1.61927,0.65209 0.50534,2.76361 -0.0751,4.08459 -0.0309,1.68517 0.48941,3.34167 1.29843,4.80679 0.50729,1.59278 -0.58679,4.07523 -2.52589,3.65041 -1.63025,-0.52388 -1.69391,-2.47448 -1.99732,-3.88067 -0.71637,-2.40961 -3.66528,-2.96942 -4.87202,-5.04124 -2.95297,-4.67848 -6.27702,-9.40963 -7.23346,-14.97438 -0.14446,-1.00288 -0.20934,-2.01475 -0.31497,-3.02192 z" id="path6228"/>
    <path style="fill:url(#linearGradient15229);fill-opacity:1;fill-rule:evenodd;stroke:url(#linearGradient15231);stroke-width:3.65714288;stroke-linecap:round;stroke-linejoin:round;stroke-miterlimit:4;stroke-opacity:1;stroke-dasharray:none" d="m 946.04044,310.47545 c -0.11473,-1.82287 1.06302,-3.77367 -0.007,-5.48372 -0.96755,-1.26691 -1.84975,-3.11689 -0.89186,-4.62871 1.64206,-2.35584 4.5434,-3.1735 6.84031,-4.69765 1.31159,-0.70273 2.64368,-1.36875 4.0068,-1.96608 1.69183,0.15881 2.51773,2.01276 2.52563,3.52726 0.36585,3.55774 0.3519,7.17673 1.24044,10.65944 0.44557,2.2783 0.50121,4.63753 1.3186,6.83335 0.38521,1.21389 0.8057,2.57703 0.12487,3.77647 -0.70589,1.58429 -2.54927,2.52779 -4.23941,2.05269 -1.90953,-0.32485 -3.11291,-1.97948 -4.67222,-2.9416 -1.72877,-1.02262 -3.91651,-1.32774 -5.33945,-2.81781 -0.88151,-1.25564 -0.73218,-2.86636 -0.90706,-4.31364 z" id="path6230"/>
    <path style="fill:url(#linearGradient15224);fill-opacity:1;fill-rule:evenodd;stroke:url(#linearGradient15226);stroke-width:3.65714288;stroke-linecap:round;stroke-linejoin:round;stroke-miterlimit:4;stroke-opacity:1;stroke-dasharray:none" d="m 946.05783,315.65363 c 0.67636,-0.73285 -1.026,-1.60765 0.5612,-1.90703 2.9133,-1.95317 6.93841,-1.50551 9.65091,0.59378 1.47502,1.24682 4.26033,0.90091 4.26151,-1.41816 0.0828,-1.4288 -0.69366,-4.81787 1.78217,-4.1634 1.53308,0.74653 1.04779,2.70543 2.14569,3.81076 1.1574,1.52607 2.73286,2.73971 3.45936,4.56896 0.73994,1.71265 2.32908,2.71269 3.4725,4.10321 2.37731,2.89294 3.67792,6.46131 4.92047,9.94472 -1.82928,0.52185 -2.29712,-1.8272 -3.10911,-2.94602 -1.28876,-1.64356 -1.70084,-3.81222 -2.90761,-5.52657 -1.18495,-2.26515 -3.51429,0.72143 -2.10372,2.23702 1.26374,1.39115 0.42222,5.06794 -0.22254,5.63933 -0.2363,-1.93443 -3.93495,-2.56919 -3.49812,-0.13258 0.57665,1.0944 1.45442,3.6769 -0.74313,3.23136 -2.69899,-0.9738 -4.12755,-3.68037 -5.75287,-5.85897 -1.60519,-2.27468 -3.46665,-4.35337 -5.3275,-6.41741 -1.24856,-1.31558 -2.86647,-2.28851 -4.66226,-2.60026 -1.20504,-0.45609 -2.79149,-1.72308 -1.92695,-3.15874 z" id="path6232"/>
    <path style="fill:url(#linearGradient15219);fill-opacity:1;fill-rule:evenodd;stroke:url(#linearGradient15221);stroke-width:3.65714288;stroke-linecap:round;stroke-linejoin:round;stroke-miterlimit:4;stroke-opacity:1;stroke-dasharray:none" d="m 962.44999,298.96429 c 2.10305,0.98621 2.20678,3.92503 4.38211,4.83765 1.31702,0.95523 2.33377,3.04425 1.23154,4.50475 -1.42093,1.55816 -3.63013,-0.43203 -3.74971,-2.08598 -0.278,-2.5918 -3.15494,-3.44784 -4.49777,-5.35785 -0.48993,-0.62284 -0.66136,-2.21889 -1.697,-1.91388 0.59459,1.46498 1.78152,3.64432 0.13687,4.8879 -2.23882,0.60058 -2.85338,-2.18039 -4.18014,-3.25278 -1.79672,-1.22637 -4.05629,1.24301 -2.01722,2.62817 1.17445,0.54775 1.46696,3.3305 -0.25622,2.42891 -1.67795,-1.05566 -2.44586,-3.16635 -4.37155,-3.91102 -2.15137,-1.0706 -4.84316,-1.44553 -6.2974,-3.56844 -1.32455,-1.61127 -2.66219,-3.24189 -3.6879,-5.06002 -0.43522,-2.16629 2.32931,-2.25723 3.73306,-1.64712 1.62627,0.35037 3.6449,1.03843 5.04582,-0.23429 1.45925,-1.7036 0.0626,-4.52818 1.99176,-5.9734 2.07511,-1.24859 3.36858,1.291 4.57528,2.46001 1.66488,0.95721 4.07776,0.65092 5.16948,2.51235 0.94318,1.75549 1.81254,3.56092 3.04657,5.14274 0.63988,1.09193 1.79025,2.23495 1.44242,3.6023 z" id="path6234"/>
    <path style="fill:url(#linearGradient15214);fill-opacity:1;fill-rule:evenodd;stroke:url(#linearGradient15216);stroke-width:3.65714288;stroke-linecap:round;stroke-linejoin:round;stroke-miterlimit:4;stroke-opacity:1;stroke-dasharray:none" d="m 902.9348,244.34747 c -1.95065,-1.58391 -5.03144,-2.1142 -7.12287,-0.49953 -3.62634,1.3407 -5.81751,7.27982 -2.58747,9.26979 1.50728,1.45343 5.67739,1.86915 7.2076,0.87776 3.57878,0.98093 5.35584,3.67556 7.12153,4.09007 1.95842,1.11529 2.50062,3.48171 3.54965,5.31705 0.79244,1.52533 1.65497,3.23101 3.22058,4.06995 1.8516,0.42007 3.29611,-1.43452 1.98662,-2.55398 -1.70313,-1.56987 -1.78446,-14.9342 -2.1849,-19.53547 -0.0769,-1.84467 -3.49723,-3.43052 -4.35722,-1.82399 -1.54142,1.61347 -2.31937,9.89663 -1.92855,7.49382 -0.6182,-2.012 -3.2554,-5.2408 -4.90497,-6.70547 z" id="path6236"/>
    <path style="fill:url(#linearGradient15209);fill-opacity:1;fill-rule:evenodd;stroke:url(#linearGradient15211);stroke-width:3.65714288;stroke-linecap:butt;stroke-linejoin:miter;stroke-miterlimit:4;stroke-opacity:1;stroke-dasharray:none" d="m 965.88904,378.6716 c -14.74923,-8.1134 -24.88511,-12.9831 -38.77368,-20.6784 -8.06218,-3.5985 -9.28754,10.3095 -6.28,16.6372 3.19977,6.7322 -9.94552,9.4389 -0.25859,15.9756 9.16491,2.0107 31.29307,2.6534 47.19504,2.5839 9.57944,1.9446 40.50729,-10.0914 17.82897,-17.8479 -7.02175,-1.7005 -12.58113,5.5967 -19.71174,3.3296 z" id="path6238"/>
    <path style="fill:url(#linearGradient15204);fill-opacity:1;fill-rule:evenodd;stroke:url(#linearGradient15206);stroke-width:0.22857143px;stroke-linecap:butt;stroke-linejoin:miter;stroke-opacity:1" d="m 866.72811,267.28129 c -0.92834,2.08876 0.85795,3.80725 1.84332,4.79262 0.92808,0.92808 2.91051,1.46496 4.42396,1.84332 1.60762,0.40191 3.40592,-0.45714 5.07281,-0.45714 2.19032,0 2.66913,-3.23063 2.66913,-5.07281 0,-1.75147 -2.39826,-3.32186 -2.94931,-4.42397 -0.64935,-1.2987 -4.17779,-1.15474 -4.96959,-1.94654 -0.5564,-0.5564 -4.46335,1.60384 -6.09032,5.26452 z" id="path6240"/>
  </g>
</svg>