<?xml version="1.0" encoding="utf-8"?>
<svg viewBox="1000 200 200 200" xmlns="http://www.w3.org/2000/svg" xmlns:xlink="http://www.w3.org/1999/xlink">
  <defs>
    <linearGradient id="linearGradient15402" gradientUnits="userSpaceOnUse" gradientTransform="matrix(0.17246857,0,0,0.17246857,1025.0368,260.43956)" x1="317.82336" y1="251.51895" x2="716.78424" y2="1040.8939" xlink:href="#linearGradientWhitePieces"/>
    <linearGradient id="linearGradientWhitePieces">
      <stop style="stop-color:#ffffff;stop-opacity:1;" offset="0" id="stop5177-6"/>
      <stop style="stop-color:#000000;stop-opacity:1;" offset="1" id="stop5179-8"/>
    </linearGradient>
    <linearGradient id="linearGradient15404" gradientUnits="userSpaceOnUse" gradientTransform="translate(0,-452.362)" x1="1061.8412" y1="785.44971" x2="1140.6234" y2="785.44971" xlink:href="#linearGradientWhitePiecesBorder"/>
    <linearGradient id="linearGradientWhitePiecesBorder">
      <stop style="stop-color:#000000;stop-opacity:1;" offset="0" id="stop7816"/>
      <stop style="stop-color:#000000;stop-opacity:1;" offset="1" id="stop7818"/>
    </linearGradient>
    <linearGradient id="linearGradient15397" gradientUnits="userSpaceOnUse" gradientTransform="matrix(0.17246857,0,0,0.17246857,1025.0368,260.43956)" x1="403.64108" y1="286.73438" x2="535.96454" y2="715.77893" xlink:href="#linearGradientWhitePieces"/>
    <linearGradient id="linearGradient15399" gradientUnits="userSpaceOnUse" gradientTransform="translate(0,-452.362)" x1="1063.9589" y1="793.47449" x2="1135.876" y2="793.47449" xlink:href="#linearGradientWhitePiecesBorder"/>
    <linearGradient id="linearGradient15394" gradientUnits="userSpaceOnUse" gradientTransform="translate(0,-452.362)" x1="1105.374" y1="783.8302" x2="1124.9105" y2="783.8302" xlink:href="#linearGradientWhitePiecesBorder"/>
    <linearGradient id="linearGradient15391" gradientUnits="userSpaceOnUse" gradientTransform="translate(0,-452.362)" x1="1077.2495" y1="783.2038" x2="1096.8384" y2="783.2038" xlink:href="#linearGradientWhitePiecesBorder"/>
    <linearGradient id="linearGradient15388" gradientUnits="userSpaceOnUse" gradientTransform="translate(0,-452.362)" x1="1095.9921" y1="793.24731" x2="1105.0754" y2="793.24731" xlink:href="#linearGradientWhitePiecesBorder"/>
    <linearGradient id="linearGradient15385" gradientUnits="userSpaceOnUse" gradientTransform="translate(0,-452.362)" x1="1079.6692" y1="814.08228" x2="1121.871" y2="814.08228" xlink:href="#linearGradientWhitePiecesBorder"/>
    <linearGradient id="linearGradient15380" gradientUnits="userSpaceOnUse" gradientTransform="translate(0,-452.362)" x1="1099.0664" y1="814.13776" x2="1099.5216" y2="805.04639" xlink:href="#linearGradientWhitePieces"/>
    <linearGradient id="linearGradient15382" gradientUnits="userSpaceOnUse" gradientTransform="translate(0,-452.362)" x1="1095.0854" y1="813.7832" x2="1101.2366" y2="813.7832" xlink:href="#linearGradientWhitePiecesBorder"/>
    <linearGradient id="linearGradient15375" gradientUnits="userSpaceOnUse" gradientTransform="translate(0,-452.362)" x1="1099.0664" y1="814.13776" x2="1099.5216" y2="805.04639" xlink:href="#linearGradientWhitePieces"/>
    <linearGradient id="linearGradient15377" gradientUnits="userSpaceOnUse" gradientTransform="translate(0,-452.362)" x1="1099.3922" y1="813.98004" x2="1106.1254" y2="813.98004" xlink:href="#linearGradientWhitePiecesBorder"/>
    <linearGradient id="linearGradient15370" gradientUnits="userSpaceOnUse" gradientTransform="translate(0,-452.362)" x1="1099.0664" y1="814.13776" x2="1099.5216" y2="805.04639" xlink:href="#linearGradientWhitePieces"/>
    <linearGradient id="linearGradient15372" gradientUnits="userSpaceOnUse" gradientTransform="translate(0,-452.362)" x1="1103.7596" y1="813.69153" x2="1110.549" y2="813.69153" xlink:href="#linearGradientWhitePiecesBorder"/>
    <linearGradient id="linearGradient15365" gradientUnits="userSpaceOnUse" gradientTransform="translate(0,-452.362)" x1="1099.0664" y1="814.13776" x2="1099.5216" y2="805.04639" xlink:href="#linearGradientWhitePieces"/>
    <linearGradient id="linearGradient15367" gradientUnits="userSpaceOnUse" gradientTransform="translate(0,-452.362)" x1="1108.9393" y1="813.28442" x2="1113.9164" y2="813.28442" xlink:href="#linearGradientWhitePiecesBorder"/>
    <linearGradient id="linearGradient15360" gradientUnits="userSpaceOnUse" gradientTransform="translate(0,-452.362)" x1="1099.0664" y1="814.13776" x2="1099.5216" y2="805.04639" xlink:href="#linearGradientWhitePieces"/>
    <linearGradient id="linearGradient15362" gradientUnits="userSpaceOnUse" gradientTransform="translate(0,-452.362)" x1="1112.0919" y1="813.03467" x2="1116.6942" y2="813.03467" xlink:href="#linearGradientWhitePiecesBorder"/>
    <linearGradient id="linearGradient15355" gradientUnits="userSpaceOnUse" gradientTransform="translate(0,-452.362)" x1="1099.0664" y1="814.13776" x2="1099.5216" y2="805.04639" xlink:href="#linearGradientWhitePieces"/>
    <linearGradient id="linearGradient15357" gradientUnits="userSpaceOnUse" gradientTransform="translate(0,-452.362)" x1="1088.3092" y1="813.70508" x2="1093.9316" y2="813.70508" xlink:href="#linearGradientWhitePiecesBorder"/>
    <linearGradient id="linearGradient15350" gradientUnits="userSpaceOnUse" gradientTransform="translate(0,-452.362)" x1="1099.0664" y1="814.13776" x2="1099.5216" y2="805.04639" xlink:href="#linearGradientWhitePieces"/>
    <linearGradient id="linearGradient15352" gradientUnits="userSpaceOnUse" gradientTransform="translate(0,-452.362)" x1="1084.6591" y1="813.33734" x2="1089.658" y2="813.33734" xlink:href="#linearGradientWhitePiecesBorder"/>
    <linearGradient id="linearGradient15345" gradientUnits="userSpaceOnUse" gradientTransform="translate(0,-452.362)" x1="1099.0664" y1="814.13776" x2="1099.5216" y2="805.04639" xlink:href="#linearGradientWhitePieces"/>
    <linearGradient id="linearGradient15347" gradientUnits="userSpaceOnUse" gradientTransform="translate(0,-452.362)" x1="1091.7303" y1="813.51758" x2="1097.1011" y2="813.51758" xlink:href="#linearGradientWhitePiecesBorder"/>
    <linearGradient id="linearGradient15340" gradientUnits="userSpaceOnUse" gradientTransform="translate(0,-452.362)" x1="1099.0664" y1="814.13776" x2="1099.5216" y2="805.04639" xlink:href="#linearGradientWhitePieces"/>
    <linearGradient id="linearGradient15342" gradientUnits="userSpaceOnUse" gradientTransform="translate(0,-452.362)" x1="1081.8938" y1="812.62421" x2="1086.6687" y2="812.62421" xlink:href="#linearGradientWhitePiecesBorder"/>
    <linearGradient id="linearGradient15335" gradientUnits="userSpaceOnUse" gradientTransform="translate(0,-452.362)" x1="1099.0664" y1="814.13776" x2="1099.5216" y2="805.04639" xlink:href="#linearGradientWhitePieces"/>
    <linearGradient id="linearGradient15337" gradientUnits="userSpaceOnUse" gradientTransform="translate(0,-452.362)" x1="1085.7498" y1="818.52991" x2="1090.2455" y2="818.52991" xlink:href="#linearGradientWhitePiecesBorder"/>
    <linearGradient id="linearGradient15330" gradientUnits="userSpaceOnUse" gradientTransform="translate(0,-452.362)" x1="1099.0664" y1="814.13776" x2="1099.5216" y2="805.04639" xlink:href="#linearGradientWhitePieces"/>
    <linearGradient id="linearGradient15332" gradientUnits="userSpaceOnUse" gradientTransform="translate(0,-452.362)" x1="1095.4919" y1="819.63782" x2="1100.1125" y2="819.63782" xlink:href="#linearGradientWhitePiecesBorder"/>
    <linearGradient id="linearGradient15325" gradientUnits="userSpaceOnUse" gradientTransform="translate(0,-452.362)" x1="1099.0664" y1="814.13776" x2="1099.5216" y2="805.04639" xlink:href="#linearGradientWhitePieces"/>
    <linearGradient id="linearGradient15327" gradientUnits="userSpaceOnUse" gradientTransform="translate(0,-452.362)" x1="1098.3851" y1="819.84363" x2="1103.0446" y2="819.84363" xlink:href="#linearGradientWhitePiecesBorder"/>
    <linearGradient id="linearGradient15320" gradientUnits="userSpaceOnUse" gradientTransform="translate(0,-452.362)" x1="1099.0664" y1="814.13776" x2="1099.5216" y2="805.04639" xlink:href="#linearGradientWhitePieces"/>
    <linearGradient id="linearGradient15322" gradientUnits="userSpaceOnUse" gradientTransform="translate(0,-452.362)" x1="1101.7334" y1="819.89618" x2="1106.7252" y2="819.89618" xlink:href="#linearGradientWhitePiecesBorder"/>
    <linearGradient id="linearGradient15315" gradientUnits="userSpaceOnUse" gradientTransform="translate(0,-452.362)" x1="1099.0664" y1="814.13776" x2="1099.5216" y2="805.04639" xlink:href="#linearGradientWhitePieces"/>
    <linearGradient id="linearGradient15317" gradientUnits="userSpaceOnUse" gradientTransform="translate(0,-452.362)" x1="1091.7786" y1="820.05499" x2="1097.5256" y2="820.05499" xlink:href="#linearGradientWhitePiecesBorder"/>
    <linearGradient id="linearGradient15310" gradientUnits="userSpaceOnUse" gradientTransform="translate(0,-452.362)" x1="1099.0664" y1="814.13776" x2="1099.5216" y2="805.04639" xlink:href="#linearGradientWhitePieces"/>
    <linearGradient id="linearGradient15312" gradientUnits="userSpaceOnUse" gradientTransform="translate(0,-452.362)" x1="1088.6204" y1="819.52643" x2="1092.984" y2="819.52643" xlink:href="#linearGradientWhitePiecesBorder"/>
    <linearGradient id="linearGradient15305" gradientUnits="userSpaceOnUse" gradientTransform="translate(0,-452.362)" x1="1099.0664" y1="814.13776" x2="1099.5216" y2="805.04639" xlink:href="#linearGradientWhitePieces"/>
    <linearGradient id="linearGradient15307" gradientUnits="userSpaceOnUse" gradientTransform="translate(0,-452.362)" x1="1105.7002" y1="819.93237" x2="1111.1707" y2="819.93237" xlink:href="#linearGradientWhitePiecesBorder"/>
    <linearGradient id="linearGradient15300" gradientUnits="userSpaceOnUse" gradientTransform="translate(0,-452.362)" x1="1099.0664" y1="814.13776" x2="1099.5216" y2="805.04639" xlink:href="#linearGradientWhitePieces"/>
    <linearGradient id="linearGradient15302" gradientUnits="userSpaceOnUse" gradientTransform="translate(0,-452.362)" x1="1109.8584" y1="818.90417" x2="1114.7906" y2="818.90417" xlink:href="#linearGradientWhitePiecesBorder"/>
    <linearGradient id="linearGradient15297" gradientUnits="userSpaceOnUse" gradientTransform="translate(0,-452.362)" x1="1064.5331" y1="749.55829" x2="1101.8083" y2="749.55829" xlink:href="#linearGradientWhitePiecesBorder"/>
    <linearGradient id="linearGradient15294" gradientUnits="userSpaceOnUse" gradientTransform="translate(0,-452.362)" x1="1096.4777" y1="750.44092" x2="1137.5516" y2="750.44092" xlink:href="#linearGradientWhitePiecesBorder"/>
    <linearGradient id="linearGradient15291" gradientUnits="userSpaceOnUse" gradientTransform="translate(0,-452.362)" x1="1078.9677" y1="769.01947" x2="1098.3879" y2="769.01947" xlink:href="#linearGradientWhitePiecesBorder"/>
    <linearGradient id="linearGradient15288" gradientUnits="userSpaceOnUse" gradientTransform="translate(0,-452.362)" x1="1105.5277" y1="768.68152" x2="1123.5684" y2="768.68152" xlink:href="#linearGradientWhitePiecesBorder"/>
  </defs>
  <g id="WhitePawn">
    <rect style="fill:none;stroke:none" id="rect6242" width="200" height="200" x="1000" y="200.00018"/>
    <path style="fill:url(#linearGradient15402);fill-opacity:1;fill-rule:evenodd;stroke:url(#linearGradient15404);stroke-width:3.65714288;stroke-linecap:round;stroke-linejoin:round;stroke-miterlimit:4;stroke-opacity:1;stroke-dasharray:none" d="m 1063.6698,314.76727 c 0.1488,-8.90473 4.1315,-17.27881 10.3811,-23.36574 4.8424,-4.71635 10.3046,-7.95336 16.7098,-9.88881 5.906,-1.78461 13.8622,-1.65879 19.7432,0.0378 7.1569,2.0646 12.5558,4.84878 18.243,9.65035 8.6223,7.27958 11.6795,20.83653 9.2329,25.44638 -0.9836,4.90028 -6.8972,21.55358 -9.2036,28.91007 -1.9073,4.54828 -1.7174,9.71038 -1.9829,14.56928 0.6835,5.5572 -1.7905,10.8576 -4.6653,15.4226 -2.9976,3.2079 -7.1603,4.557 -9.8035,7.9908 -3.6295,4.7149 -8.3462,0.3064 -11.9212,1.1297 -4.5361,-0.7368 -9.2588,4.1155 -12.2244,-1.3689 -2.9019,-5.3667 -9.9856,-7.8092 -13.5512,-12.868 -3.5877,-2.4916 -2.3257,-7.4647 -2.4935,-11.2163 0.4368,-6.7006 0.104,-13.64396 -2.8606,-19.7914 -0.2903,-0.85043 -4.528,-17.2008 -5.6038,-24.65778 z" id="path6244"/>
    <path style="fill:url(#linearGradient15397);fill-opacity:1;fill-rule:evenodd;stroke:url(#linearGradient15399);stroke-width:3.65714288;stroke-linecap:round;stroke-linejoin:round;stroke-miterlimit:4;stroke-opacity:1;stroke-dasharray:none" d="m 1074.5501,317.15958 c -0.8862,4.70145 0.3047,10.63426 -4.7896,13.38539 -3.4186,3.17773 -5.9596,10.87769 -1.851,15.43649 6.9801,3.34104 12.3205,1.61174 13.8967,10.74144 0.7627,8.1647 8.9043,8.6659 13.5729,8.1997 5.1242,0.083 12.3302,0.2987 17.205,-0.048 6.7297,-0.248 4.1261,-13.8543 11.4363,-14.1073 7.0714,-0.8671 10.374,-7.20195 9.9983,-13.4065 -2.0669,-5.26459 -5.8872,-9.7533 -4.3456,-16.01272" id="path6246"/>
    <path style="fill:url(#linearGradient15394);fill-opacity:1;fill-rule:evenodd;stroke:none" d="m 1108.7216,324.92275 c -2.3333,2.84465 -2.7518,3.90021 -3.3476,7.6248 0.056,2.43563 3.0549,5.51312 5.0816,6.57714 2.9136,1.65048 5.6676,1.6278 9.0354,0.86744 1.8496,-0.36124 4.2763,-1.6453 4.5373,-3.64312 0.4721,-2.35106 1.497,-9.63238 0.3777,-10.78769 -1.5307,-1.33098 -7.0975,-2.5647 -8.983,-3.01537 -1.1184,-0.56788 -5.765,1.41469 -6.7014,2.3768 z" id="path6248"/>
    <path style="fill:url(#linearGradient15391);fill-opacity:1;fill-rule:evenodd;stroke:none" d="m 1079.916,323.78693 c -2.1317,2.20277 -2.9807,3.93176 -2.5635,8.28002 0.2984,2.56527 0.4908,5.36749 2.4872,7.0963 6.7866,1.14012 12.8626,-0.85446 13.9577,-2.95524 2.2568,-2.73569 2.9457,-4.58466 3.041,-7.99002 -0.3448,-3.52119 -3.5648,-6.43521 -6.7831,-5.98346 -2.9388,0.35785 -5.5253,-0.84505 -10.1393,1.5524 z" id="path6250"/>
    <path style="fill:url(#linearGradient15388);fill-opacity:1;fill-rule:evenodd;stroke:none" d="m 1101.0227,332.95437 c -0.8716,0.28718 -1.5707,2.50287 -1.9754,3.33644 -1.5214,3.71662 -3.8054,9.47545 -2.8135,12.22659 1.1729,0.7341 3.4583,-1.24217 4.3248,-0.93843 1.0447,0.24613 2.314,1.52033 3.9659,1.23443 1.2911,0.5564 0.1027,-9.92499 -1.4017,-12.2511 -0.6708,-1.74541 -1.0086,-3.96757 -2.1001,-3.60793 z" id="path6252"/>
    <path style="fill:none;stroke:url(#linearGradient15385);stroke-width:3.65714288;stroke-linecap:butt;stroke-linejoin:round;stroke-miterlimit:4;stroke-opacity:1;stroke-dasharray:none" d="m 1081.4978,354.2753 c 2.0571,5.313 -0.2949,11.3406 4.3118,13.367 4.8979,1.4645 9.495,2.0786 14.5842,1.953 6.4302,-1.2219 12.4784,1.3603 16.4213,-4.0003 1.4766,-3.3047 0.7468,-9.0115 3.2273,-11.7656" id="path6254"/>
    <path style="fill:url(#linearGradient15380);fill-opacity:1;fill-rule:evenodd;stroke:url(#linearGradient15382);stroke-width:1.82857144;stroke-linecap:butt;stroke-linejoin:round;stroke-miterlimit:4;stroke-opacity:1;stroke-dasharray:none" d="m 1098.336,357.8844 c -0.2924,0.3054 -1.2797,1.0073 -1.7247,1.8972 -0.3324,0.6649 -0.3735,2.5288 -0.5174,3.1044 -0.3067,1.227 0.1621,1.6333 1.0348,2.0697 0.7931,0.3964 1.6854,0.1059 2.2421,-0.1725 0.7777,-0.3889 0.6701,-1.1281 0.8624,-1.8972 0.2005,-0.8021 0,-1.9335 0,-2.7595 0,-1.058 -0.098,-1.4778 -0.6899,-2.0696 -0.4979,-0.4979 -0.01,-0.4126 -1.2073,-0.1725 z" id="path6258"/>
    <path style="fill:url(#linearGradient15375);fill-opacity:1;fill-rule:evenodd;stroke:url(#linearGradient15377);stroke-width:1.82857144;stroke-linecap:butt;stroke-linejoin:round;stroke-miterlimit:4;stroke-opacity:1;stroke-dasharray:none" d="m 1101.268,357.8844 c -0.01,-0.01 -0.7399,1.9246 -0.8624,2.4146 -0.192,0.768 0.3729,1.6129 0.1725,2.4145 -0.2824,1.1295 -0.499,1.5615 0.1725,1.8972 0.8876,0.4438 1.3588,0.4691 2.2421,0.6899 1.0572,0.2643 1.7135,-0.56 2.0696,-1.0348 0.4459,-0.5946 -0.2422,-2.0038 -0.345,-2.4146 -0.2342,-0.9369 -0.5943,-1.5337 -1.0348,-2.4146 -0.2523,-0.5046 -1.161,-0.9139 -1.5522,-1.2072 -0.2477,-0.1858 -0.5749,-0.23 -0.8623,-0.345 z" id="path6260"/>
    <path style="fill:url(#linearGradient15370);fill-opacity:1;fill-rule:evenodd;stroke:url(#linearGradient15372);stroke-width:1.82857144;stroke-linecap:butt;stroke-linejoin:round;stroke-miterlimit:4;stroke-opacity:1;stroke-dasharray:none" d="m 1105.0623,358.5743 c -0.8739,-0.6554 0,2.1846 0,3.2769 0,0.8239 0.032,1.8517 0.1725,2.4146 0.1253,0.5012 1.713,0.4282 2.0696,0.5174 1.0999,0.275 1.8468,-0.4169 2.2421,-1.2073 0.3644,-0.7288 -0.5174,-1.7737 -0.5174,-2.587 0,-1.3456 -0.549,-2.1117 -1.0349,-2.7595 -0.6871,-0.9163 -2.3857,-0.092 -2.9319,0.3449 z" id="path6262"/>
    <path style="fill:url(#linearGradient15365);fill-opacity:1;fill-rule:evenodd;stroke:url(#linearGradient15367);stroke-width:1.82857144;stroke-linecap:butt;stroke-linejoin:round;stroke-miterlimit:4;stroke-opacity:1;stroke-dasharray:none" d="m 1110.2363,358.0569 c 0,0 -0.3449,2.3448 -0.3449,3.1044 0,0.9975 -0.1581,1.5809 0.1725,2.2421 0.1932,0.3865 1.8229,0.4683 2.0696,0.345 0.9989,-0.4995 0.8623,-2.3649 0.8623,-3.4494 0,-0.715 -0.9727,-1.8662 -1.3797,-2.0696 -0.5155,-0.2578 -0.6063,-0.1725 -1.3798,-0.1725 z" id="path6264"/>
    <path style="fill:url(#linearGradient15360);fill-opacity:1;fill-rule:evenodd;stroke:url(#linearGradient15362);stroke-width:1.82857144;stroke-linecap:butt;stroke-linejoin:round;stroke-miterlimit:4;stroke-opacity:1;stroke-dasharray:none" d="m 1113.5133,357.712 c -1.0297,-0.5149 -0.1725,2.2981 -0.1725,3.4493 0,1.1493 -0.5458,1.4569 0.1725,2.4146 0.5322,0.7096 1.4362,-0.6319 1.8971,-0.8624 0.5068,-0.2534 0.3449,-1.8724 0.3449,-2.4145 0,-0.8895 -0.3726,-1.7802 -0.6898,-2.4146 -0.2739,-0.5478 -1.2082,-0.2413 -1.5522,-0.1724 z" id="path6266"/>
    <path style="fill:url(#linearGradient15355);fill-opacity:1;fill-rule:evenodd;stroke:url(#linearGradient15357);stroke-width:1.82857144;stroke-linecap:butt;stroke-linejoin:round;stroke-miterlimit:4;stroke-opacity:1;stroke-dasharray:none" d="m 1092.2996,358.2294 c 0,-0.01 0.345,2.1592 0.345,2.9319 0,0.573 0.1979,1.6797 0.3449,2.4146 0.2167,1.0835 -0.8777,0.8623 -1.7247,0.8623 -0.9321,0 -1.439,-0.7688 -1.8972,-1.3797 -0.3581,-0.4776 0.049,-2.4389 0.1725,-2.932 0.2108,-0.843 1.0282,-1.2902 1.5522,-1.5522 0.5256,-0.2628 0.2679,-0.1571 1.2073,-0.3449 z" id="path6268"/>
    <path style="fill:url(#linearGradient15350);fill-opacity:1;fill-rule:evenodd;stroke:url(#linearGradient15352);stroke-width:1.82857144;stroke-linecap:butt;stroke-linejoin:round;stroke-miterlimit:4;stroke-opacity:1;stroke-dasharray:none" d="m 1088.5053,359.0917 c 0.5361,-0.268 0,1.9277 0,2.587 0,1.0135 0.4461,1.1774 0,2.0697 -0.3575,0.715 -2.0985,-0.2732 -2.2421,-0.345 -0.6957,-0.3479 -0.6899,-1.4419 -0.6899,-2.2421 0,-0.8476 0.7133,-1.8184 0.8624,-2.4145 0.4285,-1.7142 1.6026,-0.2388 2.0696,0.3449 z" id="path6270"/>
    <path style="fill:url(#linearGradient15345);fill-opacity:1;fill-rule:evenodd;stroke:url(#linearGradient15347);stroke-width:1.82857144;stroke-linecap:butt;stroke-linejoin:round;stroke-miterlimit:4;stroke-opacity:1;stroke-dasharray:none" d="m 1092.6446,359.6091 c 0.5284,-0.8441 0.5087,-1.4207 1.7246,-1.7247 0.082,-0.02 1.5045,1.5336 1.5523,1.7247 0.2023,0.8095 -0.053,2.0296 0.1724,2.932 0.3018,1.2072 -0.1547,1.5046 -1.0348,1.7247 -1.2229,0.3057 -1.4449,0.2569 -1.7247,-0.8624 -0.1707,-0.6828 -0.3906,-1.735 -0.5174,-2.2421 -0.1253,-0.5011 -0.1724,-1.0207 -0.1724,-1.5522 z" id="path6272"/>
    <path style="fill:url(#linearGradient15340);fill-opacity:1;fill-rule:evenodd;stroke:url(#linearGradient15342);stroke-width:1.82857144;stroke-linecap:butt;stroke-linejoin:round;stroke-miterlimit:4;stroke-opacity:1;stroke-dasharray:none" d="m 1085.5733,358.4018 c 0.2394,0.6206 0.1725,2.574 0.1725,3.7943 0,1.337 -0.5447,1.2073 -1.7247,1.2073 -0.9424,0 -1.2073,-0.7684 -1.2073,-1.7247 0,-1.161 -0.098,-1.7019 0.5174,-2.9319 0.4091,-0.8182 0.7455,-1.0905 1.2073,-1.5523 0.3748,-0.3747 0.838,0.7152 1.0348,1.2073 z" id="path6274"/>
    <path style="fill:url(#linearGradient15335);fill-opacity:1;fill-rule:evenodd;stroke:url(#linearGradient15337);stroke-width:1.82857144;stroke-linecap:butt;stroke-linejoin:round;stroke-miterlimit:4;stroke-opacity:1;stroke-dasharray:none" d="m 1086.9531,364.9556 c -0.6504,-0.6504 0,1.8397 0,2.7595 0,1.0468 0.3366,1.2073 1.3797,1.2073 0.2977,0 0.7784,-2.0786 0.8624,-2.4145 0.204,-0.816 0.1573,-1.7851 0,-2.4146 -0.4393,-1.7571 -2.0536,0.3912 -2.2421,0.8623 z" id="path6276"/>
    <path style="fill:url(#linearGradient15330);fill-opacity:1;fill-rule:evenodd;stroke:url(#linearGradient15332);stroke-width:1.82857144;stroke-linecap:butt;stroke-linejoin:round;stroke-miterlimit:4;stroke-opacity:1;stroke-dasharray:none" d="m 1099.1983,370.1297 c -0.1485,-0.5941 -0.2459,-2.3636 -0.5174,-3.4494 -0.2585,-1.0341 -0.4605,-1.3229 -1.2072,-2.0696 -0.9233,-0.9232 -0.9865,1.8281 -1.0348,2.0696 -0.1884,0.9416 0.4903,1.4441 0.6898,2.2421 0.2445,0.9781 0.8213,1.2073 2.0696,1.2073 z" id="path6278"/>
    <path style="fill:url(#linearGradient15325);fill-opacity:1;fill-rule:evenodd;stroke:url(#linearGradient15327);stroke-width:1.82857144;stroke-linecap:butt;stroke-linejoin:round;stroke-miterlimit:4;stroke-opacity:1;stroke-dasharray:none" d="m 1099.5433,370.1297 c 0.2792,1.1169 -0.1725,-2.2982 -0.1725,-3.4494 0,-1.1046 -0.3047,-1.2475 0.345,-1.8971 0.6946,-0.6946 1.7605,0.9339 1.8971,1.2072 0.3755,0.7511 0.5174,1.0685 0.5174,2.2422 0,1.0631 -0.8012,1.1767 -1.5522,1.5522 -1.0127,0.5063 2.1893,-0.2999 -1.0348,0.3449 z" id="path6280"/>
    <path style="fill:url(#linearGradient15320);fill-opacity:1;fill-rule:evenodd;stroke:url(#linearGradient15322);stroke-width:1.82857144;stroke-linecap:butt;stroke-linejoin:round;stroke-miterlimit:4;stroke-opacity:1;stroke-dasharray:none" d="m 1102.8202,370.1297 c -0.142,0.071 -0.1725,-2.5447 -0.1725,-3.2769 0,-1.078 0.4293,-1.1191 1.0348,-1.7247 0.7935,-0.7935 1.7082,1.1277 1.8972,1.3798 0.4605,0.6139 0.1095,1.9766 0,2.4145 -0.085,0.3419 -2.3402,1.0396 -2.7595,1.2073 z" id="path6282"/>
    <path style="fill:url(#linearGradient15315);fill-opacity:1;fill-rule:evenodd;stroke:url(#linearGradient15317);stroke-width:1.82857144;stroke-linecap:butt;stroke-linejoin:round;stroke-miterlimit:4;stroke-opacity:1;stroke-dasharray:none" d="m 1096.6113,369.7848 c -0.2382,0.953 -0.4454,-1.9736 -1.0348,-2.7595 -0.8225,-1.0967 -0.3409,-1.464 -1.5522,-2.0697 -0.6934,-0.3467 -0.9786,1.4399 -1.2073,1.8972 -0.4633,0.9267 0.4934,1.7127 0.8623,1.8971 0.6834,0.3417 0.8541,0.9445 1.7247,1.3798 0.4019,0.2009 0.5889,0.2335 1.0349,0.3449" id="path6284"/>
    <path style="fill:url(#linearGradient15310);fill-opacity:1;fill-rule:evenodd;stroke:url(#linearGradient15312);stroke-width:1.82857144;stroke-linecap:butt;stroke-linejoin:round;stroke-miterlimit:4;stroke-opacity:1;stroke-dasharray:none" d="m 1091.9547,369.0949 c 0.2588,0.1294 0,-2.5694 0,-3.2769 0,-1.3421 -0.1194,-1.0348 -1.5523,-1.0348 -0.9902,0 -0.8623,1.676 -0.8623,2.587 0,1.2035 0.058,1.4949 0.8623,1.8972 0.7312,0.3655 0.636,0.5147 1.5523,-0.1725 z" id="path6286"/>
    <path style="fill:url(#linearGradient15305);fill-opacity:1;fill-rule:evenodd;stroke:url(#linearGradient15307);stroke-width:1.82857144;stroke-linecap:butt;stroke-linejoin:round;stroke-miterlimit:4;stroke-opacity:1;stroke-dasharray:none" d="m 1106.6145,369.6123 c 0.9383,0.4691 0.048,-2.1661 0.5174,-3.1044 0.387,-0.7741 1.4935,-1.0349 2.2421,-1.0349 1.092,0 0.8623,0.9276 0.8623,1.8972 0,0.6261 -0.9489,1.2939 -1.3797,1.7247 -0.4489,0.4489 -1.5367,0.5174 -2.2421,0.5174 z" id="path6288"/>
    <path style="fill:url(#linearGradient15300);fill-opacity:1;fill-rule:evenodd;stroke:url(#linearGradient15302);stroke-width:1.82857144;stroke-linecap:butt;stroke-linejoin:round;stroke-miterlimit:4;stroke-opacity:1;stroke-dasharray:none" d="m 1110.9262,368.5775 c -0.4066,0.4066 0.074,-1.6743 0.5174,-3.4494 0.2329,-0.9315 1.2717,-0.6738 1.8972,-0.5174 0.97,0.2425 0.3635,1.8601 0.1725,2.2421 -0.4911,0.982 -1.4875,1.7247 -2.5871,1.7247 z" id="path6290"/>
    <path style="fill:none;stroke:url(#linearGradient15297);stroke-width:3.65714288;stroke-linecap:round;stroke-linejoin:round;stroke-miterlimit:4;stroke-opacity:1;stroke-dasharray:none" d="m 1099.4875,283.41592 c -0.3252,0.89433 0.4878,0.99841 0.4878,2.43909 0,0.65713 -2.5514,3.67775 -2.1951,4.39034 0.5134,1.02685 1.9094,1.90941 2.1951,2.19514 0.1945,0.19449 -5.927,-0.60617 -6.5703,1.46347 -0.5509,1.77213 -2.4659,-1.57691 -4.2302,-1.13585 -1.208,0.30203 -3.509,4.51762 -4.5505,5.03835 -1.5107,0.75536 -2.9868,-1.87186 -3.4147,-0.1602 -0.2999,1.19963 -0.212,2.06748 -0.4878,3.1708 -0.5005,2.00176 0.7998,-0.74592 -2.4391,-0.20611 -1.4765,0.2461 -1.7074,-0.61564 -1.7074,2.68299 0,0.078 -3.0207,1.53854 -3.4146,2.19517 -0.764,1.27323 -1.0361,1.67435 -1.4635,3.3838 -0.5581,2.23234 -4.1858,0.95403 -5.3355,2.10374" id="path6292"/>
    <path style="fill:none;stroke:url(#linearGradient15294);stroke-width:3.65714288;stroke-linecap:round;stroke-linejoin:round;stroke-miterlimit:4;stroke-opacity:1;stroke-dasharray:none" d="m 1098.527,293.79319 c 1.0569,-1.05695 2.1139,-2.11387 3.1708,-3.1708 1.0569,-1.05694 -2.1139,2.11385 -3.1708,3.1708 -1.1382,1.13822 2.4489,-2.12694 3.4147,-3.41471 1.3658,-1.82099 4.0513,0.54135 4.6343,1.70735 0.707,1.41396 1.789,2.58523 2.439,2.19517 0.9686,-0.58112 2.5292,-0.97563 3.6586,-0.97563 2.3472,0 3.42,1.96166 4.3904,3.90251 0.6982,1.39651 2.5101,-0.97562 4.3903,-0.97562 1.927,0 2.8698,0.96012 2.4391,2.68298 -0.1865,0.74581 2.3898,1.6581 2.9269,2.19517 1.369,1.36901 -0.5278,2.61202 1.7073,3.17079 2.0547,0.51368 5.9206,1.84604 7.1954,2.16475" id="path6294"/>
    <path style="fill:none;stroke:url(#linearGradient15291);stroke-width:1.82857144;stroke-linecap:round;stroke-linejoin:round;stroke-miterlimit:4;stroke-opacity:1;stroke-dasharray:none" d="m 1079.8819,316.8369 c 1.7888,0.0911 5.7581,-1.03481 8.6234,-1.03481 3.0021,0 5.0907,-0.21417 7.5886,1.03481 0.466,0.23299 0.9322,0.4661 1.3798,0.68988" id="path6296"/>
    <path style="fill:none;stroke:url(#linearGradient15288);stroke-width:1.82857144;stroke-linecap:round;stroke-linejoin:round;stroke-miterlimit:4;stroke-opacity:1;stroke-dasharray:none" d="m 1106.442,317.52678 c 1.24,-1.0185 3.8992,-2.41456 5.864,-2.41456 2.1836,0 4.0033,0 6.2088,0 1.3798,0 2.7595,0 4.1393,0" id="path6298"/>
  </g>
</svg>