<?xml version="1.0" encoding="utf-8"?>
<svg viewBox="200 200 200 200" xmlns="http://www.w3.org/2000/svg" xmlns:xlink="http://www.w3.org/1999/xlink">
  <defs>
    <linearGradient id="linearGradient15762" gradientUnits="userSpaceOnUse" gradientTransform="matrix(0.21886972,0,0,0.21886972,201.16977,230.91193)" x1="317.82336" y1="251.51895" x2="716.78424" y2="1040.8939" xlink:href="#linearGradientWhitePieces"/>
    <linearGradient id="linearGradientWhitePieces">
      <stop style="stop-color:#ffffff;stop-opacity:1;" offset="0" id="stop5177-6"/>
      <stop style="stop-color:#000000;stop-opacity:1;" offset="1" id="stop5179-8"/>
    </linearGradient>
    <linearGradient id="linearGradient15764" gradientUnits="userSpaceOnUse" gradientTransform="translate(0,-452.362)" x1="248.36806" y1="775.46729" x2="347.362" y2="775.46729" xlink:href="#linearGradientWhitePiecesBorder"/>
    <linearGradient id="linearGradientWhitePiecesBorder">
      <stop style="stop-color:#000000;stop-opacity:1;" offset="0" id="stop7816"/>
      <stop style="stop-color:#000000;stop-opacity:1;" offset="1" id="stop7818"/>
    </linearGradient>
    <linearGradient id="linearGradient15757" gradientUnits="userSpaceOnUse" gradientTransform="matrix(0.21886972,0,0,0.21886972,201.16977,230.91193)" x1="403.64108" y1="286.73438" x2="535.96454" y2="715.77893" xlink:href="#linearGradientWhitePieces"/>
    <linearGradient id="linearGradient15759" gradientUnits="userSpaceOnUse" gradientTransform="translate(0,-452.362)" x1="251.05547" y1="785.65112" x2="341.3374" y2="785.65112" xlink:href="#linearGradientWhitePiecesBorder"/>
    <linearGradient id="linearGradient15754" gradientUnits="userSpaceOnUse" gradientTransform="translate(0,-452.362)" x1="303.12097" y1="773.41211" x2="327.91367" y2="773.41211" xlink:href="#linearGradientWhitePiecesBorder"/>
    <linearGradient id="linearGradient15751" gradientUnits="userSpaceOnUse" gradientTransform="translate(0,-452.362)" x1="267.42975" y1="772.61719" x2="292.28888" y2="772.61719" xlink:href="#linearGradientWhitePiecesBorder"/>
    <linearGradient id="linearGradient15748" gradientUnits="userSpaceOnUse" gradientTransform="translate(0,-452.362)" x1="291.21497" y1="785.36285" x2="302.7421" y2="785.36285" xlink:href="#linearGradientWhitePiecesBorder"/>
    <linearGradient id="linearGradient15745" gradientUnits="userSpaceOnUse" gradientTransform="translate(0,-452.362)" x1="270.99255" y1="811.80328" x2="323.56433" y2="811.80328" xlink:href="#linearGradientWhitePiecesBorder"/>
    <linearGradient id="linearGradient15740" gradientUnits="userSpaceOnUse" gradientTransform="translate(0,-452.362)" x1="297.81335" y1="815.44781" x2="298.04791" y2="800.29547" xlink:href="#linearGradientWhitePieces"/>
    <linearGradient id="linearGradient15742" gradientUnits="userSpaceOnUse" gradientTransform="translate(0,-452.362)" x1="290.31046" y1="811.10046" x2="297.62442" y2="811.10046" xlink:href="#linearGradientWhitePiecesBorder"/>
    <linearGradient id="linearGradient15735" gradientUnits="userSpaceOnUse" gradientTransform="translate(0,-452.362)" x1="297.81335" y1="815.44781" x2="298.04791" y2="800.29547" xlink:href="#linearGradientWhitePieces"/>
    <linearGradient id="linearGradient15737" gradientUnits="userSpaceOnUse" gradientTransform="translate(0,-452.362)" x1="296.099" y1="811.02704" x2="304.15182" y2="811.02704" xlink:href="#linearGradientWhitePiecesBorder"/>
    <linearGradient id="linearGradient15730" gradientUnits="userSpaceOnUse" gradientTransform="translate(0,-452.362)" x1="297.81335" y1="815.44781" x2="298.04791" y2="800.29547" xlink:href="#linearGradientWhitePieces"/>
    <linearGradient id="linearGradient15732" gradientUnits="userSpaceOnUse" gradientTransform="translate(0,-452.362)" x1="301.31824" y1="811.30737" x2="309.44229" y2="811.30737" xlink:href="#linearGradientWhitePiecesBorder"/>
    <linearGradient id="linearGradient15725" gradientUnits="userSpaceOnUse" gradientTransform="translate(0,-452.362)" x1="297.81335" y1="815.44781" x2="298.04791" y2="800.29547" xlink:href="#linearGradientWhitePieces"/>
    <linearGradient id="linearGradient15727" gradientUnits="userSpaceOnUse" gradientTransform="translate(0,-452.362)" x1="307.89148" y1="810.79077" x2="313.71567" y2="810.79077" xlink:href="#linearGradientWhitePiecesBorder"/>
    <linearGradient id="linearGradient15720" gradientUnits="userSpaceOnUse" gradientTransform="translate(0,-452.362)" x1="297.81335" y1="815.44781" x2="298.04791" y2="800.29547" xlink:href="#linearGradientWhitePieces"/>
    <linearGradient id="linearGradient15722" gradientUnits="userSpaceOnUse" gradientTransform="translate(0,-452.362)" x1="311.89224" y1="810.47382" x2="317.24081" y2="810.47382" xlink:href="#linearGradientWhitePiecesBorder"/>
    <linearGradient id="linearGradient15715" gradientUnits="userSpaceOnUse" gradientTransform="translate(0,-452.362)" x1="297.81335" y1="815.44781" x2="298.04791" y2="800.29547" xlink:href="#linearGradientWhitePieces"/>
    <linearGradient id="linearGradient15717" gradientUnits="userSpaceOnUse" gradientTransform="translate(0,-452.362)" x1="281.71109" y1="811.32458" x2="288.35406" y2="811.32458" xlink:href="#linearGradientWhitePiecesBorder"/>
    <linearGradient id="linearGradient15710" gradientUnits="userSpaceOnUse" gradientTransform="translate(0,-452.362)" x1="297.81335" y1="815.44781" x2="298.04791" y2="800.29547" xlink:href="#linearGradientWhitePieces"/>
    <linearGradient id="linearGradient15712" gradientUnits="userSpaceOnUse" gradientTransform="translate(0,-452.362)" x1="277.0788" y1="810.85791" x2="282.93051" y2="810.85791" xlink:href="#linearGradientWhitePiecesBorder"/>
    <linearGradient id="linearGradient15705" gradientUnits="userSpaceOnUse" gradientTransform="translate(0,-452.362)" x1="297.81335" y1="815.44781" x2="298.04791" y2="800.29547" xlink:href="#linearGradientWhitePieces"/>
    <linearGradient id="linearGradient15707" gradientUnits="userSpaceOnUse" gradientTransform="translate(0,-452.362)" x1="286.05246" y1="811.08667" x2="292.37634" y2="811.08667" xlink:href="#linearGradientWhitePiecesBorder"/>
    <linearGradient id="linearGradient15700" gradientUnits="userSpaceOnUse" gradientTransform="translate(0,-452.362)" x1="297.81335" y1="815.44781" x2="298.04791" y2="800.29547" xlink:href="#linearGradientWhitePieces"/>
    <linearGradient id="linearGradient15702" gradientUnits="userSpaceOnUse" gradientTransform="translate(0,-452.362)" x1="273.5697" y1="809.95294" x2="279.13715" y2="809.95294" xlink:href="#linearGradientWhitePiecesBorder"/>
    <linearGradient id="linearGradient15695" gradientUnits="userSpaceOnUse" gradientTransform="translate(0,-452.362)" x1="297.81335" y1="815.44781" x2="298.04791" y2="800.29547" xlink:href="#linearGradientWhitePieces"/>
    <linearGradient id="linearGradient15697" gradientUnits="userSpaceOnUse" gradientTransform="translate(0,-452.362)" x1="278.46292" y1="817.44745" x2="283.67633" y2="817.44745" xlink:href="#linearGradientWhitePiecesBorder"/>
    <linearGradient id="linearGradient15690" gradientUnits="userSpaceOnUse" gradientTransform="translate(0,-452.362)" x1="297.81335" y1="815.44781" x2="298.04791" y2="800.29547" xlink:href="#linearGradientWhitePieces"/>
    <linearGradient id="linearGradient15692" gradientUnits="userSpaceOnUse" gradientTransform="translate(0,-452.362)" x1="290.82614" y1="818.85352" x2="296.19809" y2="818.85352" xlink:href="#linearGradientWhitePiecesBorder"/>
    <linearGradient id="linearGradient15685" gradientUnits="userSpaceOnUse" gradientTransform="translate(0,-452.362)" x1="297.81335" y1="815.44781" x2="298.04791" y2="800.29547" xlink:href="#linearGradientWhitePieces"/>
    <linearGradient id="linearGradient15687" gradientUnits="userSpaceOnUse" gradientTransform="translate(0,-452.362)" x1="294.4978" y1="819.11469" x2="299.91888" y2="819.11469" xlink:href="#linearGradientWhitePiecesBorder"/>
    <linearGradient id="linearGradient15680" gradientUnits="userSpaceOnUse" gradientTransform="translate(0,-452.362)" x1="297.81335" y1="815.44781" x2="298.04791" y2="800.29547" xlink:href="#linearGradientWhitePieces"/>
    <linearGradient id="linearGradient15682" gradientUnits="userSpaceOnUse" gradientTransform="translate(0,-452.362)" x1="298.74692" y1="819.18134" x2="304.58972" y2="819.18134" xlink:href="#linearGradientWhitePiecesBorder"/>
    <linearGradient id="linearGradient15675" gradientUnits="userSpaceOnUse" gradientTransform="translate(0,-452.362)" x1="297.81335" y1="815.44781" x2="298.04791" y2="800.29547" xlink:href="#linearGradientWhitePieces"/>
    <linearGradient id="linearGradient15677" gradientUnits="userSpaceOnUse" gradientTransform="translate(0,-452.362)" x1="286.11386" y1="819.38287" x2="292.91504" y2="819.38287" xlink:href="#linearGradientWhitePiecesBorder"/>
    <linearGradient id="linearGradient15670" gradientUnits="userSpaceOnUse" gradientTransform="translate(0,-452.362)" x1="297.81335" y1="815.44781" x2="298.04791" y2="800.29547" xlink:href="#linearGradientWhitePieces"/>
    <linearGradient id="linearGradient15672" gradientUnits="userSpaceOnUse" gradientTransform="translate(0,-452.362)" x1="282.10596" y1="818.7121" x2="287.15155" y2="818.7121" xlink:href="#linearGradientWhitePiecesBorder"/>
    <linearGradient id="linearGradient15665" gradientUnits="userSpaceOnUse" gradientTransform="translate(0,-452.362)" x1="297.81335" y1="815.44781" x2="298.04791" y2="800.29547" xlink:href="#linearGradientWhitePieces"/>
    <linearGradient id="linearGradient15667" gradientUnits="userSpaceOnUse" gradientTransform="translate(0,-452.362)" x1="303.78091" y1="819.22729" x2="310.23132" y2="819.22729" xlink:href="#linearGradientWhitePiecesBorder"/>
    <linearGradient id="linearGradient15660" gradientUnits="userSpaceOnUse" gradientTransform="translate(0,-452.362)" x1="297.81335" y1="815.44781" x2="298.04791" y2="800.29547" xlink:href="#linearGradientWhitePieces"/>
    <linearGradient id="linearGradient15662" gradientUnits="userSpaceOnUse" gradientTransform="translate(0,-452.362)" x1="309.05774" y1="817.92242" x2="314.82501" y2="817.92242" xlink:href="#linearGradientWhitePiecesBorder"/>
    <linearGradient id="linearGradient15657" gradientUnits="userSpaceOnUse" gradientTransform="translate(0,-452.362)" x1="250.33974" y1="729.77832" x2="297.56638" y2="729.77832" xlink:href="#linearGradientWhitePiecesBorder"/>
    <linearGradient id="linearGradient15654" gradientUnits="userSpaceOnUse" gradientTransform="translate(0,-452.362)" x1="295.43027" y1="734.26849" x2="345.4668" y2="734.26849" xlink:href="#linearGradientWhitePiecesBorder"/>
    <linearGradient id="linearGradient15651" gradientUnits="userSpaceOnUse" gradientTransform="translate(0,-452.362)" x1="269.85611" y1="754.6167" x2="294.0094" y2="754.6167" xlink:href="#linearGradientWhitePiecesBorder"/>
    <linearGradient id="linearGradient15648" gradientUnits="userSpaceOnUse" gradientTransform="translate(0,-452.362)" x1="303.56204" y1="754.18781" x2="325.96439" y2="754.18781" xlink:href="#linearGradientWhitePiecesBorder"/>
    <linearGradient id="linearGradient15643" gradientUnits="userSpaceOnUse" gradientTransform="matrix(0.25350812,0.05002971,-0.05002971,0.25350812,219.49264,177.02836)" x1="405" y1="176.00002" x2="402" y2="281" xlink:href="#linearGradientWhitePieces"/>
    <linearGradient id="linearGradient15645" gradientUnits="userSpaceOnUse" gradientTransform="translate(0,-452.362)" x1="291.42554" y1="700.13403" x2="330.87399" y2="700.13403" xlink:href="#linearGradientWhitePiecesBorder"/>
    <linearGradient id="linearGradient15638" gradientUnits="userSpaceOnUse" gradientTransform="matrix(0.23253349,0.11268297,-0.11268297,0.23253349,259.65879,160.14036)" x1="405" y1="176.00002" x2="402" y2="281" xlink:href="#linearGradientWhitePieces"/>
    <linearGradient id="linearGradient15640" gradientUnits="userSpaceOnUse" gradientTransform="translate(0,-452.362)" x1="316.33826" y1="701.10437" x2="353.2262" y2="701.10437" xlink:href="#linearGradientWhitePiecesBorder"/>
    <linearGradient id="linearGradient15633" gradientUnits="userSpaceOnUse" gradientTransform="matrix(0.24894286,-0.0692576,0.0692576,0.24894286,159.48142,225.80249)" x1="405" y1="176.00002" x2="402" y2="281" xlink:href="#linearGradientWhitePieces"/>
    <linearGradient id="linearGradient15635" gradientUnits="userSpaceOnUse" gradientTransform="translate(0,-452.362)" x1="246.30501" y1="700.01233" x2="284.39862" y2="700.01233" xlink:href="#linearGradientWhitePiecesBorder"/>
    <linearGradient id="linearGradient15628" gradientUnits="userSpaceOnUse" gradientTransform="matrix(0.22190492,-0.13239063,0.13239063,0.22190492,141.89787,269.00203)" x1="405" y1="176.00002" x2="402" y2="281" xlink:href="#linearGradientWhitePieces"/>
    <linearGradient id="linearGradient15630" gradientUnits="userSpaceOnUse" gradientTransform="translate(0,-452.362)" x1="228.77269" y1="710.81042" x2="267.9151" y2="710.81042" xlink:href="#linearGradientWhitePiecesBorder"/>
    <linearGradient id="linearGradient15623" gradientUnits="userSpaceOnUse" gradientTransform="matrix(0.25839749,0,0,-0.25839749,186.1008,320.77166)" x1="405" y1="176.00002" x2="402" y2="281" xlink:href="#linearGradientWhitePieces"/>
    <linearGradient id="linearGradient15625" gradientUnits="userSpaceOnUse" gradientTransform="translate(0,-452.362)" x1="266.44263" y1="719.90375" x2="306.27542" y2="719.90375" xlink:href="#linearGradientWhitePiecesBorder"/>
    <linearGradient id="linearGradient15618" gradientUnits="userSpaceOnUse" gradientTransform="matrix(0.257896,0.01609282,0.01609282,-0.257896,200.37949,311.47026)" x1="405" y1="176.00002" x2="402" y2="281" xlink:href="#linearGradientWhitePieces"/>
    <linearGradient id="linearGradient15620" gradientUnits="userSpaceOnUse" gradientTransform="translate(0,-452.362)" x1="282.76651" y1="717.54517" x2="322.43253" y2="717.54517" xlink:href="#linearGradientWhitePiecesBorder"/>
    <linearGradient id="linearGradient15613" gradientUnits="userSpaceOnUse" gradientTransform="matrix(0.24741052,0.07454766,0.07454766,-0.24741052,208.13637,289.53915)" x1="405" y1="176.00002" x2="402" y2="281" xlink:href="#linearGradientWhitePieces"/>
    <linearGradient id="linearGradient15615" gradientUnits="userSpaceOnUse" gradientTransform="translate(0,-452.362)" x1="295.19739" y1="722.61737" x2="333.04474" y2="722.61737" xlink:href="#linearGradientWhitePiecesBorder"/>
    <linearGradient id="linearGradient15608" gradientUnits="userSpaceOnUse" gradientTransform="matrix(0.20518446,0.15706286,0.15706286,-0.20518446,220.83778,255.27984)" x1="405" y1="176.00002" x2="402" y2="281" xlink:href="#linearGradientWhitePieces"/>
    <linearGradient id="linearGradient15610" gradientUnits="userSpaceOnUse" gradientTransform="translate(0,-452.362)" x1="305.77536" y1="732.12555" x2="347.23318" y2="732.12555" xlink:href="#linearGradientWhitePiecesBorder"/>
    <linearGradient id="linearGradient15603" gradientUnits="userSpaceOnUse" gradientTransform="matrix(0.2533744,-0.05070034,-0.05070034,-0.2533744,183.87812,342.08324)" x1="405" y1="176.00002" x2="402" y2="281" xlink:href="#linearGradientWhitePieces"/>
    <linearGradient id="linearGradient15605" gradientUnits="userSpaceOnUse" gradientTransform="translate(0,-452.362)" x1="255.67673" y1="723.49133" x2="295.1105" y2="723.49133" xlink:href="#linearGradientWhitePiecesBorder"/>
    <linearGradient id="linearGradient15598" gradientUnits="userSpaceOnUse" gradientTransform="matrix(0.25839749,0,0,0.25839749,188.42739,194.59257)" x1="405" y1="176.00002" x2="402" y2="281" xlink:href="#linearGradientWhitePieces"/>
    <linearGradient id="linearGradient15600" gradientUnits="userSpaceOnUse" gradientTransform="translate(0,-452.362)" x1="268.76923" y1="700.18445" x2="308.60202" y2="700.18445" xlink:href="#linearGradientWhitePiecesBorder"/>
    <linearGradient id="linearGradient15593" gradientUnits="userSpaceOnUse" gradientTransform="matrix(0.21515612,0.14309806,-0.14309806,0.21515612,287.8365,160.09625)" x1="405" y1="176.00002" x2="402" y2="281" xlink:href="#linearGradientWhitePieces"/>
    <linearGradient id="linearGradient15595" gradientUnits="userSpaceOnUse" gradientTransform="translate(0,-452.362)" x1="330.13855" y1="708.22577" x2="369.46072" y2="708.22577" xlink:href="#linearGradientWhitePiecesBorder"/>
    <linearGradient id="linearGradient15588" gradientUnits="userSpaceOnUse" gradientTransform="matrix(0.18003086,-0.18535932,0.18535932,0.18003086,137.82757,309.21063)" x1="405" y1="176.00002" x2="402" y2="281" xlink:href="#linearGradientWhitePieces"/>
    <linearGradient id="linearGradient15590" gradientUnits="userSpaceOnUse" gradientTransform="translate(0,-452.362)" x1="218.64304" y1="719.88123" x2="262.31421" y2="719.88123" xlink:href="#linearGradientWhitePiecesBorder"/>
    <linearGradient id="linearGradient15583" gradientUnits="userSpaceOnUse" gradientTransform="matrix(-0.0360752,0.25586697,-0.25586697,-0.0360752,415.39118,193.82528)" x1="405" y1="176.00002" x2="402" y2="281" xlink:href="#linearGradientWhitePieces"/>
    <linearGradient id="linearGradient15585" gradientUnits="userSpaceOnUse" gradientTransform="translate(0,-452.362)" x1="327.52252" y1="740.62958" x2="370.69406" y2="740.62958" xlink:href="#linearGradientWhitePiecesBorder"/>
    <linearGradient id="linearGradient15578" gradientUnits="userSpaceOnUse" gradientTransform="matrix(0.01878479,0.25771406,0.25771406,-0.01878479,186.49259,188.38862)" x1="405" y1="176.00002" x2="402" y2="281" xlink:href="#linearGradientWhitePieces"/>
    <linearGradient id="linearGradient15580" gradientUnits="userSpaceOnUse" gradientTransform="translate(0,-452.362)" x1="225.94441" y1="738.22644" x2="268.10242" y2="738.22644" xlink:href="#linearGradientWhitePiecesBorder"/>
    <linearGradient id="linearGradient15573" gradientUnits="userSpaceOnUse" gradientTransform="matrix(0.17521554,0.18991817,0.18991817,-0.17521554,140.42014,252.41527)" x1="405" y1="176.00002" x2="402" y2="281" xlink:href="#linearGradientWhitePieces"/>
    <linearGradient id="linearGradient15575" gradientUnits="userSpaceOnUse" x1="220.3288" y1="949.39807" x2="264.30008" y2="949.39807" gradientTransform="translate(0,-652.362)" xlink:href="#linearGradientWhitePiecesBorder"/>
    <linearGradient id="linearGradient15568" gradientUnits="userSpaceOnUse" gradientTransform="matrix(0.25263337,-0.05427246,-0.05427246,-0.25263337,166.39915,355.6947)" x1="405" y1="176.00002" x2="402" y2="281" xlink:href="#linearGradientWhitePieces"/>
    <linearGradient id="linearGradient15570" gradientUnits="userSpaceOnUse" gradientTransform="translate(0,-452.362)" x1="237.47273" y1="735.98956" x2="276.82419" y2="735.98956" xlink:href="#linearGradientWhitePiecesBorder"/>
    <linearGradient id="linearGradient15563" gradientUnits="userSpaceOnUse" gradientTransform="matrix(-0.21288069,0.14646217,-0.14646217,-0.21288069,460.14377,274.62016)" x1="405" y1="176.00002" x2="402" y2="281" xlink:href="#linearGradientWhitePieces"/>
    <linearGradient id="linearGradient15565" gradientUnits="userSpaceOnUse" gradientTransform="translate(0,-452.362)" x1="333.70978" y1="745.37531" x2="374.21063" y2="745.37531" xlink:href="#linearGradientWhitePiecesBorder"/>
    <linearGradient id="linearGradient15558" gradientUnits="userSpaceOnUse" gradientTransform="matrix(0.11992869,0.22888092,-0.22888092,0.11992869,349.94537,159.4885)" x1="405" y1="176.00002" x2="402" y2="281" xlink:href="#linearGradientWhitePieces"/>
    <linearGradient id="linearGradient15560" gradientUnits="userSpaceOnUse" gradientTransform="translate(0,-452.362)" x1="330.8132" y1="718.16827" x2="376.71774" y2="718.16827" xlink:href="#linearGradientWhitePiecesBorder"/>
  </defs>
  <g id="WhiteQueen">
    <rect style="fill:none;stroke:none" id="rect6036" width="200" height="200" x="200" y="200.00018"/>
    <path style="fill:url(#linearGradient15762);fill-opacity:1;fill-rule:evenodd;stroke:url(#linearGradient15764);stroke-width:3.65714288;stroke-linecap:round;stroke-linejoin:round;stroke-miterlimit:4;stroke-opacity:1;stroke-dasharray:none" d="m 250.19662,299.85596 c 0.18876,-11.30046 5.24297,-21.92754 13.17401,-29.65209 6.14524,-5.98524 13.07699,-10.09315 21.2055,-12.54932 7.495,-2.26473 17.59164,-2.10506 25.05486,0.0479 9.08237,2.62007 15.93386,6.15329 23.15118,12.24668 10.94209,9.23812 14.8218,26.44243 11.71698,32.29253 -1.24826,6.21866 -8.75294,27.35239 -11.6798,36.6881 -2.4205,5.772 -2.17943,12.32284 -2.51637,18.48894 0.8674,7.0524 -2.27221,13.7789 -5.92049,19.5719 -3.80413,4.071 -9.0867,5.7832 -12.44105,10.1407 -4.60592,5.9835 -10.59165,0.3889 -15.12851,1.4337 -5.75654,-0.935 -11.74979,5.2227 -15.5132,-1.7372 -3.68267,-6.8106 -12.67224,-9.9103 -17.19717,-16.33 -4.55286,-3.1619 -2.95138,-9.4731 -3.16424,-14.234 0.55428,-8.5034 0.132,-17.31475 -3.63023,-25.11609 -0.36847,-1.07926 -5.7463,-21.82853 -7.11147,-31.29176 z" id="path6038"/>
    <path style="fill:url(#linearGradient15757);fill-opacity:1;fill-rule:evenodd;stroke:url(#linearGradient15759);stroke-width:3.65714288;stroke-linecap:round;stroke-linejoin:round;stroke-miterlimit:4;stroke-opacity:1;stroke-dasharray:none" d="m 264.00411,302.89189 c -1.12461,5.96635 0.38673,13.49533 -6.07811,16.98663 -4.33837,4.03265 -7.56308,13.80424 -2.34899,19.58954 8.85795,4.2399 15.63519,2.04536 17.63548,13.63134 0.96791,10.3614 11.2999,10.9974 17.2246,10.4058 6.50283,0.1057 15.64746,0.379 21.83379,-0.061 8.54028,-0.3148 5.23618,-17.5817 14.51314,-17.90277 8.97389,-1.10044 13.16499,-9.13957 12.6883,-17.01342 -2.62296,-6.68098 -7.47113,-12.37734 -5.51473,-20.32079" id="path6040"/>
    <path style="fill:url(#linearGradient15754);fill-opacity:1;fill-rule:evenodd;stroke:none" d="m 307.36923,312.7437 c -2.96112,3.60996 -3.49219,4.94952 -4.24827,9.67619 0.0713,3.09089 3.87677,6.99636 6.44872,8.34666 3.6975,2.09452 7.19251,2.06574 11.46638,1.10082 2.34723,-0.45843 5.42677,-2.08796 5.75796,-4.62327 0.59916,-2.98362 1.89982,-12.22389 0.47939,-13.69005 -1.94249,-1.68904 -9.00703,-3.2547 -11.39985,-3.82663 -1.41926,-0.72063 -7.31604,1.79531 -8.50433,3.01628 z" id="path6042"/>
    <path style="fill:url(#linearGradient15751);fill-opacity:1;fill-rule:evenodd;stroke:none" d="m 270.81373,311.30227 c -2.70528,2.79541 -3.78265,4.98959 -3.25326,10.5077 0.3788,3.25544 0.62293,6.81157 3.15646,9.00551 8.61243,1.44686 16.32309,-1.08434 17.71287,-3.75034 2.86391,-3.47171 3.73826,-5.8181 3.85909,-10.13967 -0.43757,-4.46852 -4.52383,-8.16652 -8.60802,-7.59324 -3.72944,0.45413 -7.01187,-1.07242 -12.86714,1.97004 z" id="path6044"/>
    <path style="fill:url(#linearGradient15748);fill-opacity:1;fill-rule:evenodd;stroke:none" d="m 297.59896,322.93615 c -1.10611,0.36444 -1.99324,3.17624 -2.5068,4.23408 -1.93077,4.71654 -4.8292,12.02474 -3.57046,15.51603 1.48849,0.93164 4.38873,-1.57634 5.4883,-1.19088 1.32583,0.31229 2.93653,1.92939 5.03294,1.56651 1.63847,0.70618 0.13028,-12.5952 -1.77891,-15.54714 -0.85123,-2.21499 -1.27982,-5.035 -2.66507,-4.5786 z" id="path6046"/>
    <path style="fill:none;stroke:url(#linearGradient15745);stroke-width:3.65714288;stroke-linecap:butt;stroke-linejoin:round;stroke-miterlimit:4;stroke-opacity:1;stroke-dasharray:none" d="m 272.82112,349.9934 c 2.61052,6.7423 -0.37428,14.3917 5.47178,16.9632 6.21567,1.8584 12.04955,2.6378 18.50795,2.4784 8.16021,-1.5506 15.83563,1.7263 20.83939,-5.0766 1.87386,-4.1938 0.94765,-11.4359 4.09552,-14.931" id="path6048"/>
    <path style="fill:url(#linearGradient15740);fill-opacity:1;fill-rule:evenodd;stroke:url(#linearGradient15742);stroke-width:1.82857144;stroke-linecap:butt;stroke-linejoin:round;stroke-miterlimit:4;stroke-opacity:1;stroke-dasharray:none" d="m 294.18946,354.2502 c -0.37103,0.3875 -1.62403,1.2782 -2.1887,2.4075 -0.42188,0.8438 -0.474,3.2092 -0.6566,3.9397 -0.38928,1.5571 0.20574,2.0727 1.31321,2.6264 1.00639,0.5032 2.13876,0.1344 2.84531,-0.2188 0.98689,-0.4935 0.85035,-1.4316 1.09435,-2.4076 0.2545,-1.018 0,-2.4538 0,-3.5019 0,-1.3426 -0.12443,-1.8754 -0.87548,-2.6265 -0.63179,-0.6317 -0.008,-0.5235 -1.53209,-0.2188 z" id="path6052"/>
    <path style="fill:url(#linearGradient15735);fill-opacity:1;fill-rule:evenodd;stroke:url(#linearGradient15737);stroke-width:1.82857144;stroke-linecap:butt;stroke-linejoin:round;stroke-miterlimit:4;stroke-opacity:1;stroke-dasharray:none" d="m 298.2335,353.9269 c -0.0127,-0.013 -0.93889,2.4423 -1.09435,3.0642 -0.24366,0.9746 0.47321,2.0468 0.21887,3.0642 -0.35834,1.4333 -0.63324,1.9815 0.21887,2.4075 1.12642,0.5633 1.72445,0.5953 2.84531,0.8755 1.34163,0.3354 2.17449,-0.7106 2.62643,-1.3132 0.56585,-0.7545 -0.3074,-2.5428 -0.43774,-3.0642 -0.29725,-1.189 -0.75428,-1.9463 -1.31322,-3.0641 -0.32017,-0.6404 -1.47346,-1.1599 -1.96983,-1.5321 -0.3143,-0.2358 -0.72956,-0.2919 -1.09434,-0.4378 z" id="path6054"/>
    <path style="fill:url(#linearGradient15730);fill-opacity:1;fill-rule:evenodd;stroke:url(#linearGradient15732);stroke-width:1.82857144;stroke-linecap:butt;stroke-linejoin:round;stroke-miterlimit:4;stroke-opacity:1;stroke-dasharray:none" d="m 302.72539,355.4489 c -1.10895,-0.8317 0,2.7723 0,4.1585 0,1.0455 0.0403,2.3499 0.21887,3.0642 0.15901,0.6361 2.17398,0.5435 2.62643,0.6566 1.39587,0.349 2.34377,-0.529 2.84531,-1.5321 0.46243,-0.9248 -0.65661,-2.2508 -0.65661,-3.283 0,-1.7076 -0.69665,-2.6798 -1.31322,-3.5019 -0.87206,-1.1628 -3.02761,-0.1168 -3.72078,0.4377 z" id="path6056"/>
    <path style="fill:url(#linearGradient15725);fill-opacity:1;fill-rule:evenodd;stroke:url(#linearGradient15727);stroke-width:1.82857144;stroke-linecap:butt;stroke-linejoin:round;stroke-miterlimit:4;stroke-opacity:1;stroke-dasharray:none" d="m 309.29148,354.7923 c -0.005,-0.01 -0.43774,2.9757 -0.43774,3.9396 0,1.2658 -0.20067,2.0063 0.21887,2.8454 0.24519,0.4904 2.31342,0.5942 2.62644,0.4377 1.26761,-0.6338 1.09435,-3.0011 1.09435,-4.3774 0,-0.9074 -1.2345,-2.3682 -1.75096,-2.6264 -0.65421,-0.3271 -0.76946,-0.2189 -1.75096,-0.2189 z" id="path6058"/>
    <path style="fill:url(#linearGradient15720);fill-opacity:1;fill-rule:evenodd;stroke:url(#linearGradient15722);stroke-width:1.82857144;stroke-linecap:butt;stroke-linejoin:round;stroke-miterlimit:4;stroke-opacity:1;stroke-dasharray:none" d="m 313.45001,354.3545 c -1.30672,-0.6533 -0.21887,2.9165 -0.21887,4.3774 0,1.4585 -0.69263,1.8489 0.21887,3.0642 0.67542,0.9006 1.82262,-0.8019 2.40756,-1.0943 0.64316,-0.3216 0.43775,-2.3762 0.43775,-3.0642 0,-1.1288 -0.47296,-2.2591 -0.87548,-3.0642 -0.3476,-0.6952 -1.5332,-0.3062 -1.96983,-0.2189 z" id="path6060"/>
    <path style="fill:url(#linearGradient15715);fill-opacity:1;fill-rule:evenodd;stroke:url(#linearGradient15717);stroke-width:1.82857144;stroke-linecap:butt;stroke-linejoin:round;stroke-miterlimit:4;stroke-opacity:1;stroke-dasharray:none" d="m 286.52901,355.0112 c 0.005,-0.01 0.43775,2.7401 0.43775,3.7207 0,0.7272 0.2512,2.1316 0.43774,3.0642 0.27499,1.375 -1.11378,1.0944 -2.1887,1.0944 -1.18288,0 -1.82613,-0.9757 -2.40757,-1.751 -0.45456,-0.6061 0.0624,-3.095 0.21887,-3.7208 0.26746,-1.0698 1.30479,-1.6373 1.96983,-1.9698 0.66704,-0.3335 0.33994,-0.1993 1.53208,-0.4377 z" id="path6062"/>
    <path style="fill:url(#linearGradient15710);fill-opacity:1;fill-rule:evenodd;stroke:url(#linearGradient15712);stroke-width:1.82857144;stroke-linecap:butt;stroke-linejoin:round;stroke-miterlimit:4;stroke-opacity:1;stroke-dasharray:none" d="m 281.71388,356.1055 c 0.6803,-0.3401 0,2.4463 0,3.2831 0,1.286 0.56615,1.4941 0,2.6264 -0.45368,0.9074 -2.66305,-0.3466 -2.84531,-0.4377 -0.88294,-0.4415 -0.87548,-1.8298 -0.87548,-2.8454 0,-1.0756 0.90523,-2.3076 1.09435,-3.0641 0.54382,-2.1753 2.03383,-0.3031 2.62644,0.4377 z" id="path6064"/>
    <path style="fill:url(#linearGradient15705);fill-opacity:1;fill-rule:evenodd;stroke:url(#linearGradient15707);stroke-width:1.82857144;stroke-linecap:butt;stroke-linejoin:round;stroke-miterlimit:4;stroke-opacity:1;stroke-dasharray:none" d="m 286.96676,356.7621 c 0.67061,-1.0711 0.64562,-1.8029 2.1887,-2.1887 0.10363,-0.026 1.9092,1.9462 1.96982,2.1887 0.25681,1.0272 -0.0674,2.5757 0.21888,3.7208 0.38298,1.532 -0.19642,1.9095 -1.31323,2.1887 -1.55186,0.388 -1.83358,0.3261 -2.18869,-1.0943 -0.21664,-0.8666 -0.49573,-2.2018 -0.65661,-2.8454 -0.15899,-0.6359 -0.21887,-1.2953 -0.21887,-1.9698 z" id="path6066"/>
    <path style="fill:url(#linearGradient15700);fill-opacity:1;fill-rule:evenodd;stroke:url(#linearGradient15702);stroke-width:1.82857144;stroke-linecap:butt;stroke-linejoin:round;stroke-miterlimit:4;stroke-opacity:1;stroke-dasharray:none" d="m 277.99309,355.23 c 0.30374,0.7875 0.21887,3.2666 0.21887,4.8152 0,1.6966 -0.69128,1.5321 -2.18869,1.5321 -1.19592,0 -1.5321,-0.9752 -1.5321,-2.1887 0,-1.4735 -0.12386,-2.1599 0.65662,-3.7208 0.51911,-1.0382 0.94608,-1.3838 1.53208,-1.9698 0.47562,-0.4757 1.06342,0.9075 1.31322,1.532 z" id="path6068"/>
    <path style="fill:url(#linearGradient15695);fill-opacity:1;fill-rule:evenodd;stroke:url(#linearGradient15697);stroke-width:1.82857144;stroke-linecap:butt;stroke-linejoin:round;stroke-miterlimit:4;stroke-opacity:1;stroke-dasharray:none" d="m 279.74405,363.5471 c -0.82541,-0.8254 0,2.3346 0,3.5019 0,1.3283 0.42718,1.5321 1.75096,1.5321 0.37769,0 0.98778,-2.6379 1.09435,-3.0642 0.25888,-1.0355 0.19972,-2.2653 0,-3.0642 -0.55744,-2.2297 -2.60614,0.4965 -2.84531,1.0944 z" id="path6070"/>
    <path style="fill:url(#linearGradient15690);fill-opacity:1;fill-rule:evenodd;stroke:url(#linearGradient15692);stroke-width:1.82857144;stroke-linecap:butt;stroke-linejoin:round;stroke-miterlimit:4;stroke-opacity:1;stroke-dasharray:none" d="m 295.28381,370.1132 c -0.18849,-0.754 -0.31212,-2.9995 -0.65661,-4.3774 -0.32807,-1.3123 -0.58446,-1.6788 -1.53209,-2.6264 -1.17164,-1.1717 -1.25193,2.3199 -1.31322,2.6264 -0.23898,1.1949 0.62231,1.8326 0.87548,2.8453 0.31033,1.2413 1.04225,1.5321 2.62644,1.5321 z" id="path6072"/>
    <path style="fill:url(#linearGradient15685);fill-opacity:1;fill-rule:evenodd;stroke:url(#linearGradient15687);stroke-width:1.82857144;stroke-linecap:butt;stroke-linejoin:round;stroke-miterlimit:4;stroke-opacity:1;stroke-dasharray:none" d="m 295.72155,370.1132 c 0.35433,1.4173 -0.21887,-2.9165 -0.21887,-4.3774 0,-1.4018 -0.38673,-1.5831 0.43774,-2.4076 0.8815,-0.8815 2.23415,1.1853 2.40757,1.5321 0.47658,0.9532 0.65661,1.3559 0.65661,2.8453 0,1.3492 -1.01677,1.4933 -1.96983,1.9698 -1.28512,0.6426 2.77827,-0.3805 -1.31322,0.4378 z" id="path6074"/>
    <path style="fill:url(#linearGradient15680);fill-opacity:1;fill-rule:evenodd;stroke:url(#linearGradient15682);stroke-width:1.82857144;stroke-linecap:butt;stroke-linejoin:round;stroke-miterlimit:4;stroke-opacity:1;stroke-dasharray:none" d="m 299.88008,370.1132 c -0.18025,0.09 -0.21887,-3.2294 -0.21887,-4.1585 0,-1.368 0.54471,-1.4202 1.31322,-2.1887 1.00699,-1.007 2.16769,1.4311 2.40757,1.7509 0.58435,0.7792 0.13891,2.5085 0,3.0642 -0.10846,0.4338 -2.96976,1.3192 -3.50192,1.5321 z" id="path6076"/>
    <path style="fill:url(#linearGradient15675);fill-opacity:1;fill-rule:evenodd;stroke:url(#linearGradient15677);stroke-width:1.82857144;stroke-linecap:butt;stroke-linejoin:round;stroke-miterlimit:4;stroke-opacity:1;stroke-dasharray:none" d="m 292.00076,369.6754 c -0.30236,1.2095 -0.56521,-2.5045 -1.31321,-3.5019 -1.04382,-1.3917 -0.43268,-1.8578 -1.96984,-2.6264 -0.87996,-0.44 -1.24192,1.8272 -1.53208,2.4076 -0.58801,1.176 0.62612,2.1734 1.09435,2.4075 0.86719,0.4336 1.08378,1.1985 2.1887,1.751 0.50992,0.2549 0.74733,0.2962 1.31321,0.4377" id="path6078"/>
    <path style="fill:url(#linearGradient15670);fill-opacity:1;fill-rule:evenodd;stroke:url(#linearGradient15672);stroke-width:1.82857144;stroke-linecap:butt;stroke-linejoin:round;stroke-miterlimit:4;stroke-opacity:1;stroke-dasharray:none" d="m 286.09128,368.8 c 0.32848,0.1642 0,-3.2606 0,-4.1586 0,-1.7031 -0.15149,-1.3132 -1.96983,-1.3132 -1.25671,0 -1.09435,2.1269 -1.09435,3.2831 0,1.5273 0.0734,1.8971 1.09435,2.4075 0.92781,0.4639 0.80708,0.6532 1.96983,-0.2188 z" id="path6080"/>
    <path style="fill:url(#linearGradient15665);fill-opacity:1;fill-rule:evenodd;stroke:url(#linearGradient15667);stroke-width:1.82857144;stroke-linecap:butt;stroke-linejoin:round;stroke-miterlimit:4;stroke-opacity:1;stroke-dasharray:none" d="m 304.69521,369.4566 c 1.19078,0.5954 0.0612,-2.7489 0.65661,-3.9397 0.49117,-0.9823 1.89526,-1.3132 2.84531,-1.3132 1.38584,0 1.09435,1.177 1.09435,2.4076 0,0.7945 -1.20425,1.6419 -1.75096,2.1887 -0.56969,0.5696 -1.95018,0.6566 -2.84531,0.6566 z" id="path6082"/>
    <path style="fill:url(#linearGradient15660);fill-opacity:1;fill-rule:evenodd;stroke:url(#linearGradient15662);stroke-width:1.82857144;stroke-linecap:butt;stroke-linejoin:round;stroke-miterlimit:4;stroke-opacity:1;stroke-dasharray:none" d="m 310.16696,368.1434 c -0.51598,0.5159 0.0934,-2.1248 0.65661,-4.3774 0.29551,-1.1821 1.61383,-0.8551 2.40757,-0.6566 1.23099,0.3077 0.46128,2.3604 0.21887,2.8453 -0.62313,1.2462 -1.88768,2.1887 -3.28305,2.1887 z" id="path6084"/>
    <path style="fill:none;stroke:url(#linearGradient15657);stroke-width:1.82857144;stroke-linecap:round;stroke-linejoin:round;stroke-miterlimit:4;stroke-opacity:1;stroke-dasharray:none" d="m 296.02557,258.78565 c -0.41271,1.13494 0.61905,3.55271 0.61905,5.381 0,0.83393 -3.2379,4.66722 -2.78575,5.57152 0.65156,1.30312 2.42312,2.42312 2.78575,2.78575 0.24679,0.24679 -5.68363,-0.76926 -6.5001,1.85718 -0.69911,2.24892 -3.12929,-2.00116 -5.3682,-1.44143 -1.53312,0.38328 -4.45315,5.73304 -5.77483,6.39389 -1.91714,0.95857 -3.79036,-2.37548 -4.3334,-0.20332 -0.3806,1.52239 -0.26902,2.62373 -0.61906,4.02387 -0.63508,2.54032 1.01496,-0.94658 -3.09529,-0.26154 -1.87375,0.31229 -2.1667,-0.78128 -2.1667,3.40481 0,0.099 -3.83343,1.95248 -4.3334,2.78576 -0.96946,1.61577 -4.51483,3.49626 -5.05717,5.66563 -0.70823,2.83291 -6.68343,-0.16073 -8.14244,1.29828" id="path6086"/>
    <path style="fill:none;stroke:url(#linearGradient15654);stroke-width:1.82857144;stroke-linecap:round;stroke-linejoin:round;stroke-miterlimit:4;stroke-opacity:1;stroke-dasharray:none" d="m 296.34457,273.3023 c 1.34129,-1.34129 10.4793,-1.45111 11.21915,0.0286 0.89719,1.79438 2.27028,3.28075 3.09528,2.78576 1.22911,-0.73747 3.20956,-1.23812 4.64293,-1.23812 2.97865,0 4.34001,2.48943 5.57152,4.95246 0.88611,1.77221 3.18551,-1.23811 5.57152,-1.23811 2.44536,0 3.64188,1.21844 3.09528,3.40481 -0.23661,0.94646 3.03279,2.1042 3.71435,2.78576 1.73735,1.73734 -0.66973,3.31477 2.1667,4.02387 2.60749,0.65187 7.51341,2.3427 9.1312,2.74715" id="path6088"/>
    <path style="fill:none;stroke:url(#linearGradient15651);stroke-width:1.82857144;stroke-linecap:round;stroke-linejoin:round;stroke-miterlimit:4;stroke-opacity:1;stroke-dasharray:none" d="m 270.77039,302.4824 c 2.27011,0.11564 7.30726,-1.31322 10.94349,-1.31322 3.80977,0 6.46028,-0.27177 9.63028,1.31322 0.59136,0.29569 1.18298,0.5915 1.75095,0.87549" id="path6090"/>
    <path style="fill:none;stroke:url(#linearGradient15648);stroke-width:1.82857144;stroke-linecap:round;stroke-linejoin:round;stroke-miterlimit:4;stroke-opacity:1;stroke-dasharray:none" d="m 304.47634,303.35789 c 1.57353,-1.29251 4.94821,-3.06418 7.44158,-3.06418 2.77109,0 5.08038,0 7.87931,0 1.75096,0 3.50192,0 5.25288,0" id="path6092"/>
    <path id="path6094" d="m 293.25412,227.66838 11.55532,40.20735 24.23598,-34.72425 c -10.59996,14.80135 -25.20225,26.64899 -35.7913,-5.4831 z" style="fill:url(#linearGradient15643);fill-opacity:1;fill-rule:evenodd;stroke:url(#linearGradient15645);stroke-width:3.65714288;stroke-linecap:round;stroke-linejoin:round;stroke-miterlimit:4;stroke-opacity:1;stroke-dasharray:none"/>
    <path style="fill:url(#linearGradient15638);fill-opacity:1;fill-rule:evenodd;stroke:url(#linearGradient15640);stroke-width:3.65714288;stroke-linecap:round;stroke-linejoin:round;stroke-miterlimit:4;stroke-opacity:1;stroke-dasharray:none" d="m 318.16684,227.83066 0.98112,41.82336 32.24966,-27.44293 c -14.00703,11.62937 -31.13648,19.38661 -33.23078,-14.38043 z" id="path6096"/>
    <path id="path6098" d="m 248.13358,237.88382 28.39487,30.72274 6.04161,-41.91245 c -2.81581,17.98639 -10.53449,35.13325 -34.43648,11.18971 z" style="fill:url(#linearGradient15633);fill-opacity:1;fill-rule:evenodd;stroke:url(#linearGradient15635);stroke-width:3.65714288;stroke-linecap:round;stroke-linejoin:round;stroke-miterlimit:4;stroke-opacity:1;stroke-dasharray:none"/>
    <path style="fill:url(#linearGradient15628);fill-opacity:1;fill-rule:evenodd;stroke:url(#linearGradient15630);stroke-width:3.65714288;stroke-linecap:round;stroke-linejoin:round;stroke-miterlimit:4;stroke-opacity:1;stroke-dasharray:none" d="m 230.60126,257.30277 35.48526,22.15742 -5.21289,-42.02356 c 2.02185,18.09284 -0.90715,36.66739 -30.27237,19.86614 z" id="path6100"/>
    <path id="path6102" d="m 268.27121,285.3712 19.12142,-37.20924 17.05423,38.75963 c -7.53362,-16.57358 -19.56571,-31.02425 -36.17565,-1.55039 z" style="fill:url(#linearGradient15623);fill-opacity:1;fill-rule:evenodd;stroke:url(#linearGradient15625);stroke-width:3.65714288;stroke-linecap:round;stroke-linejoin:round;stroke-miterlimit:4;stroke-opacity:1;stroke-dasharray:none"/>
    <path style="fill:url(#linearGradient15618);fill-opacity:1;fill-rule:evenodd;stroke:url(#linearGradient15620);stroke-width:3.65714288;stroke-linecap:round;stroke-linejoin:round;stroke-miterlimit:4;stroke-opacity:1;stroke-dasharray:none" d="m 284.59509,281.25603 21.40166,-35.94614 14.60721,39.74651 c -6.48681,-17.01059 -17.59556,-32.18256 -36.00887,-3.80037 z" id="path6104"/>
    <path id="path6106" d="m 297.02597,279.3501 29.04326,-30.11059 5.14694,42.03173 c -2.43182,-18.04233 -9.78329,-35.34982 -34.1902,-11.92114 z" style="fill:url(#linearGradient15613);fill-opacity:1;fill-rule:evenodd;stroke:url(#linearGradient15615);stroke-width:3.65714288;stroke-linecap:round;stroke-linejoin:round;stroke-miterlimit:4;stroke-opacity:1;stroke-dasharray:none"/>
    <path style="fill:url(#linearGradient15608);fill-opacity:1;fill-rule:evenodd;stroke:url(#linearGradient15610);stroke-width:3.65714288;stroke-linecap:round;stroke-linejoin:round;stroke-miterlimit:4;stroke-opacity:1;stroke-dasharray:none" d="m 307.60394,277.11554 37.80066,-17.92391 -10.01723,41.14378 c 4.09179,-17.73968 3.32114,-36.52795 -27.78343,-23.21987 z" id="path6108"/>
    <path style="fill:url(#linearGradient15603);fill-opacity:1;fill-rule:evenodd;stroke:url(#linearGradient15605);stroke-width:3.65714288;stroke-linecap:round;stroke-linejoin:round;stroke-miterlimit:4;stroke-opacity:1;stroke-dasharray:none" d="m 257.50529,291.24819 11.44885,-40.23777 24.3278,34.65995 c -10.6391,-14.77323 -25.27269,-26.58217 -35.77665,5.57782 z" id="path6110"/>
    <path style="fill:url(#linearGradient15598);fill-opacity:1;fill-rule:evenodd;stroke:url(#linearGradient15600);stroke-width:3.65714288;stroke-linecap:round;stroke-linejoin:round;stroke-miterlimit:4;stroke-opacity:1;stroke-dasharray:none" d="m 270.5978,229.99304 19.12141,37.20924 17.05424,-38.75963 c -7.53362,16.57358 -19.56572,31.02426 -36.17565,1.55039 z" id="path6112"/>
    <path id="path6114" d="m 336.65171,235.07786 -4.68459,41.57176 35.66504,-22.82895 c -15.45121,9.62804 -33.47245,14.99721 -30.98045,-18.74281 z" style="fill:url(#linearGradient15593);fill-opacity:1;fill-rule:evenodd;stroke:url(#linearGradient15595);stroke-width:3.65714288;stroke-linecap:round;stroke-linejoin:round;stroke-miterlimit:4;stroke-opacity:1;stroke-dasharray:none"/>
    <path id="path6116" d="m 220.47161,274.93054 40.01404,12.20784 -15.92188,-39.23835 c 6.6401,16.95134 8.62317,35.65055 -24.09216,27.03051 z" style="fill:url(#linearGradient15588);fill-opacity:1;fill-rule:evenodd;stroke:url(#linearGradient15590);stroke-width:3.65714288;stroke-linecap:round;stroke-linejoin:round;stroke-miterlimit:4;stroke-opacity:1;stroke-dasharray:none"/>
    <path id="path6118" d="m 368.86548,270.24866 -39.51439,13.73932 35.99906,22.29849 c -15.35948,-9.7737 -27.98882,-23.70543 3.51533,-36.03781 z" style="fill:url(#linearGradient15583);fill-opacity:1;fill-rule:evenodd;stroke:url(#linearGradient15585);stroke-width:3.65714288;stroke-linecap:round;stroke-linejoin:round;stroke-miterlimit:4;stroke-opacity:1;stroke-dasharray:none"/>
    <path style="fill:url(#linearGradient15578);fill-opacity:1;fill-rule:evenodd;stroke:url(#linearGradient15580);stroke-width:3.65714288;stroke-linecap:round;stroke-linejoin:round;stroke-miterlimit:4;stroke-opacity:1;stroke-dasharray:none" d="m 227.77298,267.76809 38.50086,16.36579 -37.41725,19.82685 c 15.98204,-8.71855 29.51977,-21.76933 -1.08361,-36.19264 z" id="path6120"/>
    <path id="path6122" d="m 222.15737,288.80469 40.31413,-11.17708 -16.92347,38.81689 c 7.07287,-16.77538 9.5351,-35.41755 -23.39066,-27.63981 z" style="fill:url(#linearGradient15573);fill-opacity:1;fill-rule:evenodd;stroke:url(#linearGradient15575);stroke-width:3.65714288;stroke-linecap:round;stroke-linejoin:round;stroke-miterlimit:4;stroke-opacity:1;stroke-dasharray:none"/>
    <path id="path6124" d="m 239.3013,303.82526 10.87963,-40.3954 24.8147,34.31304 c -10.8466,-14.62155 -25.64545,-26.22272 -35.69433,6.08236 z" style="fill:url(#linearGradient15568);fill-opacity:1;fill-rule:evenodd;stroke:url(#linearGradient15570);stroke-width:3.65714288;stroke-linecap:round;stroke-linejoin:round;stroke-miterlimit:4;stroke-opacity:1;stroke-dasharray:none"/>
    <path style="fill:url(#linearGradient15563);fill-opacity:1;fill-rule:evenodd;stroke:url(#linearGradient15565);stroke-width:3.65714288;stroke-linecap:round;stroke-linejoin:round;stroke-miterlimit:4;stroke-opacity:1;stroke-dasharray:none" d="m 372.38205,292.03058 -36.84371,-19.81659 7.91921,41.59858 c -3.18749,-17.92426 -1.46564,-36.64933 28.9245,-21.78199 z" id="path6126"/>
    <path style="fill:url(#linearGradient15558);fill-opacity:1;fill-rule:evenodd;stroke:url(#linearGradient15560);stroke-width:3.65714288;stroke-linecap:round;stroke-linejoin:round;stroke-miterlimit:4;stroke-opacity:1;stroke-dasharray:none" d="m 356.72591,248.70282 -24.08415,34.20688 42.2474,-2.88312 c -18.17692,1.01913 -36.56127,-2.93165 -18.16325,-31.32376 z" id="path6128"/>
  </g>
</svg>