<?xml version="1.0" encoding="utf-8"?>
<svg viewBox="0 200 200 200" xmlns="http://www.w3.org/2000/svg" xmlns:xlink="http://www.w3.org/1999/xlink">
  <defs>
    <linearGradient id="linearGradient17743" gradientUnits="userSpaceOnUse" gradientTransform="matrix(0.22857143,0,0,0.22857143,0,200)" x1="375.06781" y1="176.41568" x2="535.5755" y2="308.93436" xlink:href="#linearGradientWhitePieces"/>
    <linearGradient id="linearGradientWhitePieces">
      <stop id="stop7929" offset="0" style="stop-color:#ede3de;stop-opacity:1;"/>
      <stop id="stop7931" offset="1" style="stop-color:#d0b090;stop-opacity:1;"/>
    </linearGradient>
    <linearGradient id="linearGradient17745" gradientUnits="userSpaceOnUse" x1="72.322746" y1="53.730625" x2="129.8656" y2="53.730625" gradientTransform="translate(0,200)" xlink:href="#linearGradientWhitePiecesBorder"/>
    <linearGradient id="linearGradientWhitePiecesBorder">
      <stop style="stop-color:#000000;stop-opacity:1;" offset="0" id="stop7935"/>
      <stop style="stop-color:#000000;stop-opacity:1;" offset="1" id="stop7937"/>
    </linearGradient>
    <linearGradient id="linearGradient17747" gradientUnits="userSpaceOnUse" gradientTransform="matrix(0.22857143,0,0,0.22857143,0,200)" x1="150.07878" y1="255.25356" x2="694.0072" y2="740.0625" xlink:href="#linearGradientWhitePieces"/>
    <linearGradient id="linearGradient17749" gradientUnits="userSpaceOnUse" x1="19.407007" y1="119.72302" x2="182.46497" y2="119.72302" gradientTransform="translate(0,200)" xlink:href="#linearGradientWhitePiecesBorder"/>
    <linearGradient id="linearGradient17751" gradientUnits="userSpaceOnUse" gradientTransform="matrix(0.22857143,0,0,0.22857143,0,200)" x1="163.1134" y1="776.63849" x2="702.69696" y2="778.81091" xlink:href="#linearGradientWhitePieces"/>
    <linearGradient id="linearGradient17753" gradientUnits="userSpaceOnUse" x1="43.504772" y1="180.95239" x2="156.87621" y2="180.95239" gradientTransform="translate(0,200)" xlink:href="#linearGradientWhitePiecesBorder"/>
  </defs>
  <g id="WhiteKing">
    <rect style="fill:none;stroke:none" id="rect17693" width="200" height="200" x="0" y="200"/>
    <path style="fill:url(#linearGradient17743);fill-opacity:1;fill-rule:evenodd;stroke:url(#linearGradient17745);stroke-width:3.65714288;stroke-linecap:round;stroke-linejoin:round;stroke-miterlimit:4;stroke-opacity:1;stroke-dasharray:none;stroke-dashoffset:0" d="m 92.1156,225.14491 0,13.62857 -17.96428,0 0,15.55 17.96428,0 0,27.99286 14.34286,0 0,-27.99286 21.57857,0 0,-15.55 -21.57857,0 0,-13.62857 -14.34286,0 z" id="path17695"/>
    <path style="fill:url(#linearGradient17747);fill-opacity:1;fill-rule:evenodd;stroke:url(#linearGradient17749);stroke-width:3.65714288;stroke-linecap:round;stroke-linejoin:round;stroke-miterlimit:4;stroke-opacity:1;stroke-dasharray:none" d="m 116.7685,305.41059 c 45.6543,-24.41897 31.02431,22.10128 8.36721,36.48227 -14.59749,9.26537 -22.22965,-25.69457 -14.48571,-51.95 l -19.56429,0.23571 c 7.21432,23.23396 2.81457,58.938 -13.05714,51.71429 C 49.75695,329.02555 39.24695,281.68205 84.38469,305.43227 58.3013,252.11164 17.67351,272.50058 21.48571,299.6 c 4.14121,29.43815 37.73984,55.92746 37.05715,67.72857 l 84.30714,0 c -1.3507,-13.67309 36.55131,-41.79253 37.76429,-68.52857 1.16426,-26.159 -43.98272,-46.41864 -63.84579,6.61059 z" id="path17697"/>
    <rect style="fill:url(#linearGradient17751);fill-opacity:1;fill-rule:evenodd;stroke:url(#linearGradient17753);stroke-width:3.65714288;stroke-linecap:round;stroke-linejoin:round;stroke-miterlimit:4;stroke-opacity:1;stroke-dasharray:none;stroke-dashoffset:0" id="rect17699" width="109.71429" height="15.238094" x="45.333344" y="373.33334"/>
  </g>
</svg>