<?xml version="1.0" encoding="utf-8"?>
<svg viewBox="800 200 200 200" xmlns="http://www.w3.org/2000/svg" xmlns:xlink="http://www.w3.org/1999/xlink">
  <defs>
    <linearGradient id="linearGradient17811" gradientUnits="userSpaceOnUse" gradientTransform="matrix(0.22857143,0,0,0.22857143,800.45714,202.74286)" x1="163.67708" y1="244.15625" x2="741.16382" y2="814.15625" xlink:href="#linearGradientWhitePieces"/>
    <linearGradient id="linearGradientWhitePieces">
      <stop id="stop7929" offset="0" style="stop-color:#ede3de;stop-opacity:1;"/>
      <stop id="stop7931" offset="1" style="stop-color:#d0b090;stop-opacity:1;"/>
    </linearGradient>
    <linearGradient id="linearGradient17813" gradientUnits="userSpaceOnUse" x1="827.92651" y1="104.44271" x2="974.56012" y2="104.44271" gradientTransform="translate(0,200)" xlink:href="#linearGradientWhitePiecesBorder"/>
    <linearGradient id="linearGradientWhitePiecesBorder">
      <stop style="stop-color:#000000;stop-opacity:1;" offset="0" id="stop7935"/>
      <stop style="stop-color:#000000;stop-opacity:1;" offset="1" id="stop7937"/>
    </linearGradient>
  </defs>
  <g id="WhiteKnight">
    <rect style="fill:none;stroke:none" id="rect17735" width="200" height="200" x="800" y="200"/>
    <path style="fill:url(#linearGradient17811);fill-opacity:1;fill-rule:evenodd;stroke:url(#linearGradient17813);stroke-width:3.65714288;stroke-linecap:round;stroke-linejoin:round;stroke-miterlimit:4;stroke-opacity:1;stroke-dasharray:none" d="m 886.00254,220.22922 c -0.38571,26.59625 0.97294,16.55231 -15.81037,4.27446 2.59012,17.34932 0.83202,17.92092 -3.65158,25.3449 -2.45377,4.06296 -4.6162,16.85608 -6.15158,19.67596 -9.30365,17.08709 -30.67072,39.3941 -30.63386,46.66632 0.0467,9.20542 10.99488,17.4454 21.00958,7.71103 -9.36939,13.71566 18.91836,-0.0622 30.77285,-8.52211 15.69174,9.65995 37.61437,-0.9107 38.02187,-16.4317 7.14077,35.10764 -59.5404,41.20523 -63.10231,86.74289 49.69674,11.34467 77.37707,-25.61697 107.66824,2.96523 15.48475,-44.89767 16.91373,-119.94615 -55.07284,-148.08412 -9.78397,-3.82434 -13.89416,-13.66176 -23.05,-20.34286 z m -0.30032,49.52554 c -1.62694,2.30834 -5.04835,6.07614 -8.05031,5.52444 -2.77559,-0.5101 -3.89238,-1.45087 -4.02046,-4.73784 -0.10785,-2.76752 9.69853,-2.67825 12.07077,-0.7866 z" id="path17737"/>
  </g>
</svg>