<?xml version="1.0" encoding="utf-8"?>
<svg viewBox="0 0 220 220" xmlns="http://www.w3.org/2000/svg">
  <path fill="#FFFFFF" stroke="#000000" stroke-width="3.4947" stroke-linejoin="round" d="M 135.055 181.506 C 122.499 157.589 123.768 114.993 124.817 98.491 C 144.676 97.185 158.959 93.576 158.959 89.324 C 158.959 85.151 145.211 81.593 125.929 80.23 C 138.243 74.143 146.67 61.833 146.67 47.626 C 146.67 27.377 129.564 10.962 108.453 10.962 C 87.343 10.962 70.238 27.377 70.238 47.626 C 70.238 61.831 78.661 74.143 90.979 80.23 C 71.699 81.593 57.946 85.151 57.946 89.324 C 57.946 93.576 72.236 97.185 92.091 98.491 C 93.143 114.994 94.412 157.59 81.855 181.506 C 57.246 186.251 39.976 197.391 39.976 210.37 L 176.928 210.37 C 176.928 197.393 159.684 186.246 135.072 181.492 L 135.055 181.506 Z" style=""/>
</svg>