<?xml version="1.0" encoding="utf-8"?>
<svg viewBox="0 0 220 220" xmlns="http://www.w3.org/2000/svg">
  <path fill="#FFFFFF" stroke="#20201E" stroke-width="3.4947" d="M 183.729 213.196 C 186.463 213.196 188.674 210.984 188.674 208.249 L 188.674 196.627 C 188.674 193.892 186.463 191.682 183.729 191.682 L 34.862 191.682 C 32.129 191.682 29.917 193.892 29.917 196.627 L 29.917 208.249 C 29.917 210.984 32.129 213.196 34.862 213.196 L 183.729 213.196 Z"/>
  <rect x="37.914" y="173.366" fill="#FFFFFF" stroke="#20201E" stroke-width="3.4947" width="142.766" height="18.319"/>
  <polygon fill="#FFFFFF" stroke="#20201E" stroke-width="3.4947" stroke-linejoin="bevel" points="180.68 173.366 166.001 156.912 52.593 156.912 37.914 173.366"/>
  <polygon fill="#FFFFFF" stroke="#20201E" stroke-width="3.4947" stroke-linejoin="round" points="185.154 41.636 166.001 59.959 52.593 59.959 33.377 41.636"/>
  <rect x="52.593" y="59.959" fill="#FFFFFF" stroke="#20201E" stroke-width="3.4947" width="113.256" height="96.963"/>
  <path fill="#FFFFFF" stroke="#20201E" stroke-width="3.4947" stroke-linecap="square" d="M 180.917 5.494 L 154.501 5.494 L 154.501 22.481 L 139.677 27.391 L 126.008 22.481 L 126.008 5.494 L 93.446 5.494 L 93.446 22.481 L 79.777 27.391 L 64.952 22.481 L 64.952 5.494 L 38.536 5.494 C 35.924 5.494 33.807 7.706 33.807 10.436 L 33.807 41.69 L 185.65 41.69 L 185.65 10.436 C 185.647 7.705 183.53 5.493 180.919 5.493 L 180.917 5.494 Z"/>
</svg>