<?xml version="1.0" encoding="utf-8"?>
<svg viewBox="0 0 200 200" xmlns="http://www.w3.org/2000/svg" xmlns:xlink="http://www.w3.org/1999/xlink">
  <defs>
    <linearGradient id="linearGradient10260" gradientUnits="userSpaceOnUse" x1="340.95712" y1="313.54886" x2="473.57257" y2="397.77173" xlink:href="#linearGradientBlackPieces"/>
    <linearGradient id="linearGradientBlackPieces">
      <stop style="stop-color:#000000;stop-opacity:1" offset="0" id="stop2509-4"/>
      <stop style="stop-color:#505070;stop-opacity:1" offset="1" id="stop2511-6"/>
    </linearGradient>
    <linearGradient id="linearGradient12000" x1="310.70657" y1="338.0408" x2="447.22351" y2="338.0408" gradientUnits="userSpaceOnUse" xlink:href="#linearGradientBlackPiecesBorder"/>
    <linearGradient id="linearGradientBlackPiecesBorder">
      <stop style="stop-color:#808080;stop-opacity:1;" offset="0" id="stop11490"/>
      <stop style="stop-color:#808080;stop-opacity:1;" offset="1" id="stop11492"/>
    </linearGradient>
    <linearGradient id="linearGradient10262" gradientUnits="userSpaceOnUse" x1="340.95712" y1="313.54886" x2="473.57257" y2="397.77173" xlink:href="#linearGradientBlackPieces"/>
    <linearGradient id="linearGradient11998" x1="310.70657" y1="338.0408" x2="447.22351" y2="338.0408" gradientUnits="userSpaceOnUse" xlink:href="#linearGradientBlackPiecesBorder"/>
    <linearGradient id="linearGradient12928" x1="366.59531" y1="340.25049" x2="431.10953" y2="340.25049" gradientUnits="userSpaceOnUse" xlink:href="#linearGradientBlackPiecesBorder"/>
    <linearGradient id="linearGradient11996" x1="366.59531" y1="340.25049" x2="431.10953" y2="340.25049" gradientUnits="userSpaceOnUse" xlink:href="#linearGradientBlackPiecesBorder"/>
    <linearGradient id="linearGradient12930" x1="366.59531" y1="340.25049" x2="431.10953" y2="340.25049" gradientUnits="userSpaceOnUse" xlink:href="#linearGradientBlackPiecesBorder"/>
    <linearGradient id="linearGradient11994" x1="366.59531" y1="340.25049" x2="431.10953" y2="340.25049" gradientUnits="userSpaceOnUse" xlink:href="#linearGradientBlackPiecesBorder"/>
    <linearGradient id="linearGradient10276" gradientUnits="userSpaceOnUse" gradientTransform="matrix(0.22857143,0,0,0.22857143,-0.06024,0.97226)" x1="323.8295" y1="142.8746" x2="554.56183" y2="278.80081" xlink:href="#linearGradientBlackPieces"/>
    <linearGradient id="linearGradient11992" x1="60.532261" y1="46.829197" x2="134.64749" y2="46.829197" gradientUnits="userSpaceOnUse" xlink:href="#linearGradientBlackPiecesBorder"/>
    <linearGradient id="linearGradient10266" gradientUnits="userSpaceOnUse" x1="331.76324" y1="305.12201" x2="423.26685" y2="338.0408" xlink:href="#linearGradientBlackPieces"/>
    <linearGradient id="linearGradient11990" x1="298.91412" y1="338.0408" x2="459.01593" y2="338.0408" gradientUnits="userSpaceOnUse" xlink:href="#linearGradientBlackPiecesBorder"/>
    <linearGradient id="linearGradient10272" gradientUnits="userSpaceOnUse" gradientTransform="matrix(0.22762766,0,0,0.19465417,2.74708,37.31243)" x1="43.573158" y1="333.44388" x2="800.5191" y2="598.4873" xlink:href="#linearGradientBlackPieces"/>
    <linearGradient id="linearGradient11988" x1="23.485004" y1="112.1781" x2="177.66451" y2="112.1781" gradientUnits="userSpaceOnUse" xlink:href="#linearGradientBlackPiecesBorder"/>
    <linearGradient id="linearGradient11986" x1="59.698338" y1="137.37466" x2="141.24326" y2="137.37466" gradientUnits="userSpaceOnUse" xlink:href="#linearGradientBlackPiecesBorder"/>
  </defs>
  <g id="BlackKing">
    <rect y="0" x="0" height="200" width="200" id="rect8054" style="fill:none;stroke:none"/>
    <path transform="matrix(0.36076343,0,0,0.33223223,-12.13919,57.38034)" d="m 441.94172,338.0408 a 62.976696,70.710678 0 1 1 -125.95339,0 62.976696,70.710678 0 1 1 125.95339,0 z" id="path1345" style="opacity:0.98999999;fill:url(#linearGradient10260);fill-opacity:1;fill-rule:evenodd;stroke:url(#linearGradient12000);stroke-width:10.56354809;stroke-linecap:round;stroke-linejoin:round;stroke-miterlimit:4;stroke-opacity:1;stroke-dasharray:none;stroke-dashoffset:0"/>
    <path style="opacity:0.98999999;fill:url(#linearGradient10262);fill-opacity:1;fill-rule:evenodd;stroke:url(#linearGradient11998);stroke-width:10.56354809;stroke-linecap:round;stroke-linejoin:round;stroke-miterlimit:4;stroke-opacity:1;stroke-dasharray:none;stroke-dashoffset:0" id="path5795" d="m 441.94172,338.0408 a 62.976696,70.710678 0 1 1 -125.95339,0 62.976696,70.710678 0 1 1 125.95339,0 z" transform="matrix(0.36076343,0,0,0.33223223,-59.51915,58.67741)"/>
    <path transform="matrix(0.19839474,0,0,0.20554171,47.08745,105.5604)" d="m 422.05436,340.25049 a 23.201941,22.097088 0 1 1 -46.40388,0 23.201941,22.097088 0 1 1 46.40388,0 z" id="path2231" style="opacity:0.98999999;fill:url(#linearGradient12928);fill-opacity:1;fill-rule:evenodd;stroke:url(#linearGradient11996);stroke-width:18.11034966;stroke-linecap:round;stroke-linejoin:round;stroke-miterlimit:4;stroke-opacity:1;stroke-dasharray:none;stroke-dashoffset:0"/>
    <path style="opacity:0.98999999;fill:url(#linearGradient12930);fill-opacity:1;fill-rule:evenodd;stroke:url(#linearGradient11994);stroke-width:18.11034966;stroke-linecap:round;stroke-linejoin:round;stroke-miterlimit:4;stroke-opacity:1;stroke-dasharray:none;stroke-dashoffset:0" id="path5797" d="m 422.05436,340.25049 a 23.201941,22.097088 0 1 1 -46.40388,0 23.201941,22.097088 0 1 1 46.40388,0 z" transform="matrix(0.19839474,0,0,0.20554171,-1.24412,106.27574)"/>
    <path id="path2671" d="m 94.61678,14.17295 c -9.10736,0.14873 -12.3162,10.35883 -5.21566,24.62641 -12.42017,-2.9652 -27.12405,-0.88262 -27.03993,8.68718 0.07,8.21 12.82495,8.80813 27.34311,8.30861 1.88215,6.61613 3.44275,15.21918 6.7926,23.34139 l 5.62143,0.35 c 2.24504,-8.41815 3.13602,-18.07207 3.85344,-24.97194 15.28766,1.29487 27.1942,-0.36964 26.83942,-9.39234 -0.37202,-9.46077 -16.11072,-10.69615 -28.61085,-6.72832 1.34702,-12.2934 -1.17204,-24.35431 -9.58356,-24.22099 z" style="fill:url(#linearGradient10276);fill-opacity:1;fill-rule:evenodd;stroke:url(#linearGradient11992);stroke-width:3.65714288;stroke-linecap:round;stroke-linejoin:round;stroke-miterlimit:4;stroke-opacity:1;stroke-dasharray:none"/>
    <path style="opacity:0.98999999;fill:url(#linearGradient10266);fill-opacity:1;fill-rule:evenodd;stroke:url(#linearGradient11990);stroke-width:11.78353214;stroke-linecap:round;stroke-linejoin:round;stroke-miterlimit:4;stroke-opacity:1;stroke-dasharray:none;stroke-dashoffset:0" id="path10413" d="m 453.12416,338.0408 a 74.159134,70.710678 0 1 1 -148.31827,0 74.159134,70.710678 0 1 1 148.31827,0 z" transform="matrix(0.31083566,0,0,0.30988594,-17.66356,-11.00959)"/>
    <path id="path10402" d="m 56.07907,151.9819 c 3.26291,-14.3782 -23.66029,-11.50127 -29.64153,-38.17633 -4.78545,-21.3421 5.88153,-38.67172 28.72724,-40.39315 26.55914,-2.00124 45.00011,35.69275 45.00011,35.69275 0,0 15.79519,-31.27416 36.5935,-35.87573 22.62874,-5.00656 42.21046,12.5852 38.65906,36.69851 -3.81315,25.89052 -34.54492,24.15707 -31.73597,39.93958 -31.02747,-2.54882 -59.19786,-0.94423 -87.60241,2.11437 z" style="fill:url(#linearGradient10272);fill-opacity:1;fill-rule:evenodd;stroke:url(#linearGradient11988);stroke-width:3.65714145;stroke-linecap:round;stroke-linejoin:round;stroke-miterlimit:4;stroke-opacity:1;stroke-dasharray:none"/>
    <path id="path1677" d="m 61.52691,138.69569 c 11.20432,-2.65946 64.84662,-3.65287 77.88777,-1.37143" style="fill:none;stroke:url(#linearGradient11986);stroke-width:3.65714288;stroke-linecap:round;stroke-linejoin:round;stroke-miterlimit:4;stroke-opacity:1;stroke-dasharray:none"/>
  </g>
</svg>