<?xml version="1.0" encoding="utf-8"?>
<svg viewBox="1000 0 200 200" xmlns="http://www.w3.org/2000/svg" xmlns:xlink="http://www.w3.org/1999/xlink">
  <defs>
    <linearGradient id="linearGradient5901" gradientUnits="userSpaceOnUse" x1="468.23636" y1="681.24438" x2="270.86862" y2="792" gradientTransform="matrix(-0.2516928,0,0,0.2516928,1212.6818,-15.09882)" xlink:href="#linearGradientBlackPieces"/>
    <linearGradient id="linearGradientBlackPieces">
      <stop style="stop-color:#000000;stop-opacity:1" offset="0" id="stop2509-4"/>
      <stop style="stop-color:#505070;stop-opacity:1" offset="1" id="stop2511-6"/>
    </linearGradient>
    <linearGradient id="linearGradient11922" x1="1100.6512" y1="160.27998" x2="1149.2513" y2="160.27998" gradientUnits="userSpaceOnUse" xlink:href="#linearGradientBlackPiecesBorder"/>
    <linearGradient id="linearGradientBlackPiecesBorder">
      <stop style="stop-color:#808080;stop-opacity:1;" offset="0" id="stop11490"/>
      <stop style="stop-color:#808080;stop-opacity:1;" offset="1" id="stop11492"/>
    </linearGradient>
    <linearGradient id="linearGradient12910" x1="366.4368" y1="340.25049" x2="431.26804" y2="340.25049" gradientUnits="userSpaceOnUse" xlink:href="#linearGradientBlackPiecesBorder"/>
    <linearGradient id="linearGradient11920" x1="366.4368" y1="340.25049" x2="431.26804" y2="340.25049" gradientUnits="userSpaceOnUse" xlink:href="#linearGradientBlackPiecesBorder"/>
    <linearGradient id="linearGradient5897" gradientUnits="userSpaceOnUse" x1="204.24982" y1="662.38818" x2="421.71808" y2="792" gradientTransform="matrix(0.2516928,0,0,0.2516928,989.76084,-15.09882)" xlink:href="#linearGradientBlackPieces"/>
    <linearGradient id="linearGradient11918" x1="1053.1915" y1="160.27998" x2="1101.7916" y2="160.27998" gradientUnits="userSpaceOnUse" xlink:href="#linearGradientBlackPiecesBorder"/>
    <linearGradient id="linearGradient12912" x1="366.4368" y1="340.25049" x2="431.26804" y2="340.25049" gradientUnits="userSpaceOnUse" xlink:href="#linearGradientBlackPiecesBorder"/>
    <linearGradient id="linearGradient11916" x1="366.4368" y1="340.25049" x2="431.26804" y2="340.25049" gradientUnits="userSpaceOnUse" xlink:href="#linearGradientBlackPiecesBorder"/>
    <linearGradient id="linearGradient2243" x1="338.48233" y1="308.13605" x2="550.11517" y2="385.91779" gradientUnits="userSpaceOnUse" gradientTransform="matrix(0.22857143,0,0,0.22857143,1000.3918,2.15499)" xlink:href="#linearGradientBlackPieces"/>
    <linearGradient id="linearGradient11914" x1="1078.4449" y1="72.58609" x2="1121.2837" y2="72.58609" gradientUnits="userSpaceOnUse" xlink:href="#linearGradientBlackPiecesBorder"/>
    <linearGradient id="linearGradient2226" gradientUnits="userSpaceOnUse" x1="321.98315" y1="380.02527" x2="469.97644" y2="469.5921" xlink:href="#linearGradientBlackPieces"/>
    <linearGradient id="linearGradient11912" x1="320.72302" y1="422.45166" x2="471.23657" y2="422.45166" gradientUnits="userSpaceOnUse" xlink:href="#linearGradientBlackPiecesBorder"/>
    <linearGradient id="linearGradient5892" gradientUnits="userSpaceOnUse" gradientTransform="matrix(0.20848549,0,0,0.20045097,1013.463,34.04674)" x1="224.06509" y1="423.88376" x2="710.13196" y2="599.74866" xlink:href="#linearGradientBlackPieces"/>
    <linearGradient id="linearGradient11910" x1="1048.6277" y1="123.99675" x2="1155.115" y2="123.99675" gradientUnits="userSpaceOnUse" xlink:href="#linearGradientBlackPiecesBorder"/>
  </defs>
  <g id="BlackPawn">
    <rect y="0" x="1000" height="200" width="200" id="rect8054-64" style="fill:none;stroke:none"/>
    <path style="opacity:0.98999999;fill:url(#linearGradient5901);fill-opacity:1;fill-rule:evenodd;stroke:url(#linearGradient11922);stroke-width:3.65714288;stroke-linecap:round;stroke-linejoin:round;stroke-miterlimit:4;stroke-opacity:1;stroke-dasharray:none;stroke-dashoffset:0" d="m 1136.0493,138.83497 c 6.7912,3.94809 11.3734,11.4031 11.3734,19.94666 0,12.6633 -10.0667,22.94338 -22.4715,22.94338 -12.4048,0 -22.4714,-10.28008 -22.4714,-22.94338 0,-3.92954 0.9663,-7.62786 2.6742,-10.86212 10.2984,-0.53002 18.2239,-2.15625 30.8953,-9.08454 z" id="path5899"/>
    <path transform="matrix(0.19623543,0,0,0.20071543,1043.3034,91.95029)" d="m 422.05436,340.25049 a 23.201941,22.097088 0 1 1 -46.40388,0 23.201941,22.097088 0 1 1 46.40388,0 z" id="path2231-1" style="opacity:0.98999999;fill:url(#linearGradient12910);fill-opacity:1;fill-rule:evenodd;stroke:url(#linearGradient11920);stroke-width:18.42734718;stroke-linecap:round;stroke-linejoin:round;stroke-miterlimit:4;stroke-opacity:1;stroke-dasharray:none;stroke-dashoffset:0"/>
    <path id="path5795-50" d="m 1066.3935,138.83497 c -6.7912,3.94809 -11.3734,11.4031 -11.3734,19.94666 0,12.6633 10.0667,22.94338 22.4714,22.94338 12.4048,0 22.4715,-10.28008 22.4715,-22.94338 0,-3.92954 -0.9664,-7.62786 -2.6742,-10.86212 -12.1819,-1.14471 -21.8501,-4.8032 -30.8953,-9.08454 z" style="opacity:0.98999999;fill:url(#linearGradient5897);fill-opacity:1;fill-rule:evenodd;stroke:url(#linearGradient11918);stroke-width:3.65714288;stroke-linecap:round;stroke-linejoin:round;stroke-miterlimit:4;stroke-opacity:1;stroke-dasharray:none;stroke-dashoffset:0"/>
    <path style="opacity:0.98999999;fill:url(#linearGradient12912);fill-opacity:1;fill-rule:evenodd;stroke:url(#linearGradient11916);stroke-width:18.42734718;stroke-linecap:round;stroke-linejoin:round;stroke-miterlimit:4;stroke-opacity:1;stroke-dasharray:none;stroke-dashoffset:0" id="path5797-7" d="m 422.05436,340.25049 a 23.201941,22.097088 0 1 1 -46.40388,0 23.201941,22.097088 0 1 1 46.40388,0 z" transform="matrix(0.19623543,0,0,0.20071543,1001.4702,90.88407)"/>
    <path id="path1340-6" d="m 1099.3582,49.15055 c -4.8345,10.8381 -11.3897,21.7842 -19.0847,29.76187 l 19.7867,17.10921 19.3949,-16.70119 c -10.4885,-8.31423 -15.2918,-19.01393 -20.0969,-30.16989 z" style="fill:url(#linearGradient2243);fill-opacity:1;fill-rule:evenodd;stroke:url(#linearGradient11914);stroke-width:3.65714288;stroke-linecap:round;stroke-linejoin:round;stroke-miterlimit:4;stroke-opacity:1;stroke-dasharray:none"/>
    <path transform="matrix(0.19746697,0,0,0.19746697,1021.5679,12.77037)" d="m 461.97643,422.45166 a 65.996635,61.282589 0 1 1 -131.99327,0 65.996635,61.282589 0 1 1 131.99327,0 z" id="path1331" style="fill:url(#linearGradient2226);fill-opacity:1;stroke:url(#linearGradient11912);stroke-width:18.52027702;stroke-linecap:round;stroke-linejoin:round;stroke-miterlimit:4;stroke-opacity:1;stroke-dasharray:none"/>
    <path id="path4352" d="m 1050.4674,150.22972 c -1.2181,-67.80712 98.1998,-71.75183 102.819,-0.9225 -17.1649,-14.45238 -88.2355,-15.60088 -102.819,0.9225 z" style="fill:url(#linearGradient5892);fill-opacity:1;fill-rule:evenodd;stroke:url(#linearGradient11910);stroke-width:3.65714288;stroke-linecap:round;stroke-linejoin:round;stroke-miterlimit:4;stroke-opacity:1;stroke-dasharray:none"/>
  </g>
</svg>