<?xml version="1.0" encoding="utf-8"?>
<svg viewBox="200 0 200 200" xmlns="http://www.w3.org/2000/svg" xmlns:xlink="http://www.w3.org/1999/xlink">
  <defs>
    <linearGradient id="linearGradient2229-2" x1="460.95712" y1="666.4375" x2="617.15698" y2="756.83856" gradientUnits="userSpaceOnUse" gradientTransform="matrix(0.22857143,0,0,0.22857143,200,-0.76189959)" xlink:href="#linearGradientBlackPieces"/>
    <linearGradient id="linearGradientBlackPieces">
      <stop style="stop-color:#000000;stop-opacity:1" offset="0" id="stop2509-4"/>
      <stop style="stop-color:#505070;stop-opacity:1" offset="1" id="stop2511-6"/>
    </linearGradient>
    <linearGradient id="linearGradient11984" x1="300.82858" y1="168.42024" x2="348.64999" y2="168.42024" gradientUnits="userSpaceOnUse" xlink:href="#linearGradientBlackPiecesBorder"/>
    <linearGradient id="linearGradientBlackPiecesBorder">
      <stop style="stop-color:#808080;stop-opacity:1;" offset="0" id="stop11490"/>
      <stop style="stop-color:#808080;stop-opacity:1;" offset="1" id="stop11492"/>
    </linearGradient>
    <linearGradient id="linearGradient5799-3" gradientUnits="userSpaceOnUse" x1="290.95712" y1="590.21552" x2="448.875" y2="663.43127" gradientTransform="matrix(0.22857143,0,0,0.22857143,200,-0.76189959)" xlink:href="#linearGradientBlackPieces"/>
    <linearGradient id="linearGradient11982" x1="254.77856" y1="169.65237" x2="302.60001" y2="169.65237" gradientUnits="userSpaceOnUse" xlink:href="#linearGradientBlackPiecesBorder"/>
    <linearGradient id="linearGradient12924" x1="366.27344" y1="340.25049" x2="431.4314" y2="340.25049" gradientUnits="userSpaceOnUse" xlink:href="#linearGradientBlackPiecesBorder"/>
    <linearGradient id="linearGradient11980" x1="366.27344" y1="340.25049" x2="431.4314" y2="340.25049" gradientUnits="userSpaceOnUse" xlink:href="#linearGradientBlackPiecesBorder"/>
    <linearGradient id="linearGradient12926" x1="366.27344" y1="340.25049" x2="431.4314" y2="340.25049" gradientUnits="userSpaceOnUse" xlink:href="#linearGradientBlackPiecesBorder"/>
    <linearGradient id="linearGradient11978" x1="366.27344" y1="340.25049" x2="431.4314" y2="340.25049" gradientUnits="userSpaceOnUse" xlink:href="#linearGradientBlackPiecesBorder"/>
    <linearGradient id="linearGradient10007" gradientUnits="userSpaceOnUse" gradientTransform="matrix(0.19287063,0,0,0.2151728,214.47626,9.1749504)" x1="32" y1="385" x2="733.7486" y2="624.01056" xlink:href="#linearGradientBlackPieces"/>
    <linearGradient id="linearGradient11976" x1="224.00957" y1="93.224358" x2="373.61008" y2="93.224358" gradientUnits="userSpaceOnUse" xlink:href="#linearGradientBlackPiecesBorder"/>
    <linearGradient id="linearGradient10327" x1="31.999996" y1="245.83333" x2="128.88431" y2="288.96759" gradientUnits="userSpaceOnUse" xlink:href="#linearGradientBlackPieces"/>
    <linearGradient id="linearGradient11974" x1="32.829487" y1="245.83333" x2="140.50385" y2="245.83333" gradientUnits="userSpaceOnUse" xlink:href="#linearGradientBlackPiecesBorder"/>
    <linearGradient id="linearGradient11972" x1="264.0762" y1="136.56403" x2="338.59048" y2="136.56403" gradientUnits="userSpaceOnUse" xlink:href="#linearGradientBlackPiecesBorder"/>
    <linearGradient id="linearGradient1334" gradientUnits="userSpaceOnUse" x1="31.999996" y1="245.83333" x2="127.46282" y2="290.53751" xlink:href="#linearGradientBlackPieces"/>
    <linearGradient id="linearGradient11970" x1="32.829487" y1="245.83333" x2="140.50385" y2="245.83333" gradientUnits="userSpaceOnUse" xlink:href="#linearGradientBlackPiecesBorder"/>
    <linearGradient id="linearGradient1338" gradientUnits="userSpaceOnUse" x1="31.999996" y1="245.83333" x2="126.04134" y2="285.82776" xlink:href="#linearGradientBlackPieces"/>
    <linearGradient id="linearGradient11968" x1="32.829487" y1="245.83333" x2="140.50385" y2="245.83333" gradientUnits="userSpaceOnUse" xlink:href="#linearGradientBlackPiecesBorder"/>
    <linearGradient id="linearGradient1342" gradientUnits="userSpaceOnUse" x1="31.999996" y1="245.83333" x2="120.35538" y2="290.53751" xlink:href="#linearGradientBlackPieces"/>
    <linearGradient id="linearGradient11966" x1="32.829494" y1="245.83333" x2="140.50385" y2="245.83333" gradientUnits="userSpaceOnUse" xlink:href="#linearGradientBlackPiecesBorder"/>
  </defs>
  <g id="BlackQueen">
    <rect y="0" x="200" height="200" width="200" id="rect8054-8" style="fill:none;stroke:none"/>
    <path id="path1345-7" d="m 332.2,146.5381 c -9.22143,4.84781 -18.44286,10.66073 -27.66429,12.12142 -1.20575,2.78363 -1.87857,5.86232 -1.87857,9.1 0,12.44267 9.88993,22.54287 22.07857,22.54286 12.18865,0 22.08572,-10.10019 22.08572,-22.54286 0,-9.76943 -6.10146,-18.09553 -14.62143,-21.22142 z" style="opacity:0.98999999;fill:url(#linearGradient2229-2);fill-opacity:1;fill-rule:evenodd;stroke:url(#linearGradient11984);stroke-width:3.65714288;stroke-linecap:round;stroke-linejoin:round;stroke-miterlimit:4;stroke-opacity:1;stroke-dasharray:none;stroke-dashoffset:0"/>
    <path id="path5795-5" d="m 271.3,147.75952 c -8.55654,3.1059 -14.69286,11.4467 -14.69286,21.24286 0,12.44267 9.89707,22.54285 22.08572,22.54286 12.18864,0 22.07857,-10.10019 22.07857,-22.54286 0,-3.77759 -0.91754,-7.33584 -2.52857,-10.46428 -10.90735,-3.11126 -18.81742,-6.97184 -26.94286,-10.77858 z" style="opacity:0.98999999;fill:url(#linearGradient5799-3);fill-opacity:1;fill-rule:evenodd;stroke:url(#linearGradient11982);stroke-width:3.65714288;stroke-linecap:round;stroke-linejoin:round;stroke-miterlimit:4;stroke-opacity:1;stroke-dasharray:none;stroke-dashoffset:0"/>
    <path transform="matrix(0.19281646,0,0,0.19721851,249.05328,98.82089)" d="m 422.05436,340.25049 a 23.201941,22.097088 0 1 1 -46.40388,0 23.201941,22.097088 0 1 1 46.40388,0 z" id="path2231-6" style="opacity:0.98999999;fill:url(#linearGradient12924);fill-opacity:1;fill-rule:evenodd;stroke:url(#linearGradient11980);stroke-width:18.75409126;stroke-linecap:round;stroke-linejoin:round;stroke-miterlimit:4;stroke-opacity:1;stroke-dasharray:none;stroke-dashoffset:0"/>
    <path style="opacity:0.98999999;fill:url(#linearGradient12926);fill-opacity:1;fill-rule:evenodd;stroke:url(#linearGradient11978);stroke-width:18.75409126;stroke-linecap:round;stroke-linejoin:round;stroke-miterlimit:4;stroke-opacity:1;stroke-dasharray:none;stroke-dashoffset:0" id="path5797-0" d="m 422.05436,340.25049 a 23.201941,22.097088 0 1 1 -46.40388,0 23.201941,22.097088 0 1 1 46.40388,0 z" transform="matrix(0.19281646,0,0,0.19721851,204.81647,99.58683)"/>
    <path id="path8557" d="m 226.36995,65.4785 c 8.89009,16.18909 24.52299,42.66542 43.50902,48.06831 -11.02943,-22.21749 -5.11876,-54.99511 -0.67042,-77.14817 9.18162,23.17249 11.71395,46.26792 27.23771,63.51566 9.25699,-11.22922 21.27353,-39.82633 25.07317,-64.20137 10.00545,24.42113 7.84316,51.10973 5.35152,74.60139 19.93739,-8.59448 32.40293,-24.51091 44.47339,-45.55307 4.40199,48.66775 -25.81728,65.85106 -28.9306,85.25729 -27.43048,-2.53737 -54.86096,-2.83085 -82.29144,0.71725 0.0797,-17.13655 -39.27803,-22.67846 -33.75235,-85.25729 z" style="fill:url(#linearGradient10007);fill-opacity:1;fill-rule:evenodd;stroke:url(#linearGradient11976);stroke-width:3.65714264;stroke-linecap:round;stroke-linejoin:round;stroke-miterlimit:4;stroke-opacity:1;stroke-dasharray:none"/>
    <path transform="matrix(0.26799566,0,0,0.2426592,202.66185,3.9653504)" d="m 133.33333,245.83333 a 46.666668,50.833332 0 1 1 -93.333334,0 46.666668,50.833332 0 1 1 93.333334,0 z" id="path9446" style="opacity:0.98999999;fill:url(#linearGradient10327);fill-opacity:1;fill-rule:evenodd;stroke:url(#linearGradient11974);stroke-width:14.34101582;stroke-linecap:round;stroke-linejoin:round;stroke-miterlimit:4;stroke-opacity:1;stroke-dasharray:none;stroke-dashoffset:0"/>
    <path id="path1677-4" d="m 265.90476,137.90476 c 11.20433,-2.65946 58.16711,-4.38815 70.85715,0" style="fill:none;stroke:url(#linearGradient11972);stroke-width:3.65714288;stroke-linecap:round;stroke-linejoin:round;stroke-miterlimit:4;stroke-opacity:1;stroke-dasharray:none"/>
    <path style="opacity:0.98999999;fill:url(#linearGradient1334);fill-opacity:1;fill-rule:evenodd;stroke:url(#linearGradient11970);stroke-width:14.34101582;stroke-linecap:round;stroke-linejoin:round;stroke-miterlimit:4;stroke-opacity:1;stroke-dasharray:none;stroke-dashoffset:0" id="path1332" d="m 133.33333,245.83333 a 46.666668,50.833332 0 1 1 -93.333334,0 46.666668,50.833332 0 1 1 93.333334,0 z" transform="matrix(0.26799566,0,0,0.2426592,246.47138,-22.32037)"/>
    <path transform="matrix(0.26799566,0,0,0.2426592,299.04281,-21.93942)" d="m 133.33333,245.83333 a 46.666668,50.833332 0 1 1 -93.333334,0 46.666668,50.833332 0 1 1 93.333334,0 z" id="path1336" style="opacity:0.98999999;fill:url(#linearGradient1338);fill-opacity:1;fill-rule:evenodd;stroke:url(#linearGradient11968);stroke-width:14.34101582;stroke-linecap:round;stroke-linejoin:round;stroke-miterlimit:4;stroke-opacity:1;stroke-dasharray:none;stroke-dashoffset:0"/>
    <path style="opacity:0.98999999;fill:url(#linearGradient1342);fill-opacity:1;fill-rule:evenodd;stroke:url(#linearGradient11966);stroke-width:14.34100723;stroke-linecap:round;stroke-linejoin:round;stroke-miterlimit:4;stroke-opacity:1;stroke-dasharray:none;stroke-dashoffset:0" id="path1340" d="m 133.33333,245.83333 a 46.666668,50.833332 0 1 1 -93.333334,0 46.666668,50.833332 0 1 1 93.333334,0 z" transform="matrix(0.26799566,0,0,0.2426592,348.56663,4.3462904)"/>
  </g>
</svg>