<?xml version="1.0" encoding="utf-8"?>
<svg viewBox="200 200 200 200" xmlns="http://www.w3.org/2000/svg" xmlns:xlink="http://www.w3.org/1999/xlink">
  <defs>
    <linearGradient id="linearGradient11772" gradientUnits="userSpaceOnUse" gradientTransform="matrix(0.22857143,0,0,0.22857143,200,199.2381)" x1="460.95712" y1="666.4375" x2="617.15698" y2="756.83856" xlink:href="#linearGradientWhitePieces"/>
    <linearGradient id="linearGradientWhitePieces">
      <stop id="stop12734" offset="0" style="stop-color:#ffffff;stop-opacity:1"/>
      <stop id="stop12736" offset="1" style="stop-color:#d0b090;stop-opacity:1"/>
    </linearGradient>
    <linearGradient id="linearGradient12858" x1="300.82858" y1="368.42023" x2="348.64999" y2="368.42023" gradientUnits="userSpaceOnUse" xlink:href="#linearGradientWhitePiecesBorder"/>
    <linearGradient id="linearGradientWhitePiecesBorder">
      <stop id="stop11900" offset="0" style="stop-color:#000000;stop-opacity:1"/>
      <stop id="stop11902" offset="1" style="stop-color:#000000;stop-opacity:1"/>
    </linearGradient>
    <linearGradient id="linearGradient11776" gradientUnits="userSpaceOnUse" gradientTransform="matrix(0.22857143,0,0,0.22857143,200,199.2381)" x1="290.95712" y1="590.21552" x2="448.875" y2="663.43127" xlink:href="#linearGradientWhitePieces"/>
    <linearGradient id="linearGradient12856" x1="254.77856" y1="369.65237" x2="302.60001" y2="369.65237" gradientUnits="userSpaceOnUse" xlink:href="#linearGradientWhitePiecesBorder"/>
    <linearGradient id="linearGradient12896" x1="366.27344" y1="340.25049" x2="431.4314" y2="340.25049" gradientUnits="userSpaceOnUse" xlink:href="#linearGradientWhitePiecesBorder"/>
    <linearGradient id="linearGradient12854" x1="366.27344" y1="340.25049" x2="431.4314" y2="340.25049" gradientUnits="userSpaceOnUse" xlink:href="#linearGradientWhitePiecesBorder"/>
    <linearGradient id="linearGradient12898" x1="366.27344" y1="340.25049" x2="431.4314" y2="340.25049" gradientUnits="userSpaceOnUse" xlink:href="#linearGradientWhitePiecesBorder"/>
    <linearGradient id="linearGradient12852" x1="366.27344" y1="340.25049" x2="431.4314" y2="340.25049" gradientUnits="userSpaceOnUse" xlink:href="#linearGradientWhitePiecesBorder"/>
    <linearGradient id="linearGradient11784" gradientUnits="userSpaceOnUse" gradientTransform="matrix(0.19287063,0,0,0.2151728,214.47626,209.17495)" x1="32" y1="385" x2="733.7486" y2="624.01056" xlink:href="#linearGradientWhitePieces"/>
    <linearGradient id="linearGradient12850" x1="224.00957" y1="293.22437" x2="373.61008" y2="293.22437" gradientUnits="userSpaceOnUse" xlink:href="#linearGradientWhitePiecesBorder"/>
    <linearGradient id="linearGradient11788" gradientUnits="userSpaceOnUse" x1="31.999996" y1="245.83333" x2="128.88431" y2="288.96759" xlink:href="#linearGradientWhitePieces"/>
    <linearGradient id="linearGradient12848" x1="32.829487" y1="245.83333" x2="140.50385" y2="245.83333" gradientUnits="userSpaceOnUse" xlink:href="#linearGradientWhitePiecesBorder"/>
    <linearGradient id="linearGradient12846" x1="264.0762" y1="336.56403" x2="338.59048" y2="336.56403" gradientUnits="userSpaceOnUse" xlink:href="#linearGradientWhitePiecesBorder"/>
    <linearGradient id="linearGradient11794" gradientUnits="userSpaceOnUse" x1="31.999996" y1="245.83333" x2="127.46282" y2="290.53751" xlink:href="#linearGradientWhitePieces"/>
    <linearGradient id="linearGradient12844" x1="32.829487" y1="245.83333" x2="140.50385" y2="245.83333" gradientUnits="userSpaceOnUse" xlink:href="#linearGradientWhitePiecesBorder"/>
    <linearGradient id="linearGradient11798" gradientUnits="userSpaceOnUse" x1="31.999996" y1="245.83333" x2="126.04134" y2="285.82776" xlink:href="#linearGradientWhitePieces"/>
    <linearGradient id="linearGradient12842" x1="32.829487" y1="245.83333" x2="140.50385" y2="245.83333" gradientUnits="userSpaceOnUse" xlink:href="#linearGradientWhitePiecesBorder"/>
    <linearGradient id="linearGradient11802" gradientUnits="userSpaceOnUse" x1="31.999996" y1="245.83333" x2="120.35538" y2="290.53751" xlink:href="#linearGradientWhitePieces"/>
    <linearGradient id="linearGradient12840" x1="32.829494" y1="245.83333" x2="140.50385" y2="245.83333" gradientUnits="userSpaceOnUse" xlink:href="#linearGradientWhitePiecesBorder"/>
  </defs>
  <g id="WhiteQueen">
    <rect style="fill:none;stroke:none" id="rect11660" width="200" height="200" x="200" y="200"/>
    <path style="opacity:0.98999999;fill:url(#linearGradient11772);fill-opacity:1;fill-rule:evenodd;stroke:url(#linearGradient12858);stroke-width:3.65714288;stroke-linecap:round;stroke-linejoin:round;stroke-miterlimit:4;stroke-opacity:1;stroke-dasharray:none;stroke-dashoffset:0" d="m 332.2,346.5381 c -9.22143,4.84781 -18.44286,10.66073 -27.66429,12.12142 -1.20575,2.78363 -1.87857,5.86232 -1.87857,9.1 0,12.44267 9.88993,22.54287 22.07857,22.54286 12.18865,0 22.08572,-10.10019 22.08572,-22.54286 0,-9.76943 -6.10146,-18.09553 -14.62143,-21.22142 z" id="path11662"/>
    <path style="opacity:0.98999999;fill:url(#linearGradient11776);fill-opacity:1;fill-rule:evenodd;stroke:url(#linearGradient12856);stroke-width:3.65714288;stroke-linecap:round;stroke-linejoin:round;stroke-miterlimit:4;stroke-opacity:1;stroke-dasharray:none;stroke-dashoffset:0" d="m 271.3,347.75952 c -8.55654,3.1059 -14.69286,11.4467 -14.69286,21.24286 0,12.44267 9.89707,22.54285 22.08572,22.54286 12.18864,0 22.07857,-10.10019 22.07857,-22.54286 0,-3.77759 -0.91754,-7.33584 -2.52857,-10.46428 -10.90735,-3.11126 -18.81742,-6.97184 -26.94286,-10.77858 z" id="path11664"/>
    <path style="opacity:0.98999999;fill:url(#linearGradient12896);fill-opacity:1;fill-rule:evenodd;stroke:url(#linearGradient12854);stroke-width:18.75409126;stroke-linecap:round;stroke-linejoin:round;stroke-miterlimit:4;stroke-opacity:1;stroke-dasharray:none;stroke-dashoffset:0" id="path11666" d="m 422.05436,340.25049 a 23.201941,22.097088 0 1 1 -46.40388,0 23.201941,22.097088 0 1 1 46.40388,0 z" transform="matrix(0.19281646,0,0,0.19721851,249.05328,298.82089)"/>
    <path transform="matrix(0.19281646,0,0,0.19721851,204.81647,299.58683)" d="m 422.05436,340.25049 a 23.201941,22.097088 0 1 1 -46.40388,0 23.201941,22.097088 0 1 1 46.40388,0 z" id="path11668" style="opacity:0.98999999;fill:url(#linearGradient12898);fill-opacity:1;fill-rule:evenodd;stroke:url(#linearGradient12852);stroke-width:18.75409126;stroke-linecap:round;stroke-linejoin:round;stroke-miterlimit:4;stroke-opacity:1;stroke-dasharray:none;stroke-dashoffset:0"/>
    <path style="fill:url(#linearGradient11784);fill-opacity:1;fill-rule:evenodd;stroke:url(#linearGradient12850);stroke-width:3.65714264;stroke-linecap:round;stroke-linejoin:round;stroke-miterlimit:4;stroke-opacity:1;stroke-dasharray:none" d="m 226.36995,265.4785 c 8.89009,16.18909 24.52299,42.66542 43.50902,48.06831 -11.02943,-22.21749 -5.11876,-54.99511 -0.67042,-77.14817 9.18162,23.17249 11.71395,46.26792 27.23771,63.51566 9.25699,-11.22922 21.27353,-39.82633 25.07317,-64.20137 10.00545,24.42113 7.84316,51.10973 5.35152,74.60139 19.93739,-8.59448 32.40293,-24.51091 44.47339,-45.55307 4.40199,48.66775 -25.81728,65.85106 -28.9306,85.25729 -27.43048,-2.53737 -54.86096,-2.83085 -82.29144,0.71725 0.0797,-17.13655 -39.27803,-22.67846 -33.75235,-85.25729 z" id="path11670"/>
    <path style="opacity:0.98999999;fill:url(#linearGradient11788);fill-opacity:1;fill-rule:evenodd;stroke:url(#linearGradient12848);stroke-width:14.34101582;stroke-linecap:round;stroke-linejoin:round;stroke-miterlimit:4;stroke-opacity:1;stroke-dasharray:none;stroke-dashoffset:0" id="path11672" d="m 133.33333,245.83333 a 46.666668,50.833332 0 1 1 -93.333334,0 46.666668,50.833332 0 1 1 93.333334,0 z" transform="matrix(0.26799566,0,0,0.2426592,202.66185,203.96535)"/>
    <path style="fill:none;stroke:url(#linearGradient12846);stroke-width:3.65714288;stroke-linecap:round;stroke-linejoin:round;stroke-miterlimit:4;stroke-opacity:1;stroke-dasharray:none" d="m 265.90476,337.90476 c 11.20433,-2.65946 58.16711,-4.38815 70.85715,0" id="path11674"/>
    <path transform="matrix(0.26799566,0,0,0.2426592,246.47138,177.67963)" d="m 133.33333,245.83333 a 46.666668,50.833332 0 1 1 -93.333334,0 46.666668,50.833332 0 1 1 93.333334,0 z" id="path11676" style="opacity:0.98999999;fill:url(#linearGradient11794);fill-opacity:1;fill-rule:evenodd;stroke:url(#linearGradient12844);stroke-width:14.34101582;stroke-linecap:round;stroke-linejoin:round;stroke-miterlimit:4;stroke-opacity:1;stroke-dasharray:none;stroke-dashoffset:0"/>
    <path style="opacity:0.98999999;fill:url(#linearGradient11798);fill-opacity:1;fill-rule:evenodd;stroke:url(#linearGradient12842);stroke-width:14.34101582;stroke-linecap:round;stroke-linejoin:round;stroke-miterlimit:4;stroke-opacity:1;stroke-dasharray:none;stroke-dashoffset:0" id="path11678" d="m 133.33333,245.83333 a 46.666668,50.833332 0 1 1 -93.333334,0 46.666668,50.833332 0 1 1 93.333334,0 z" transform="matrix(0.26799566,0,0,0.2426592,299.04281,178.06058)"/>
    <path transform="matrix(0.26799566,0,0,0.2426592,348.56663,204.34629)" d="m 133.33333,245.83333 a 46.666668,50.833332 0 1 1 -93.333334,0 46.666668,50.833332 0 1 1 93.333334,0 z" id="path11680" style="opacity:0.98999999;fill:url(#linearGradient11802);fill-opacity:1;fill-rule:evenodd;stroke:url(#linearGradient12840);stroke-width:14.34100723;stroke-linecap:round;stroke-linejoin:round;stroke-miterlimit:4;stroke-opacity:1;stroke-dasharray:none;stroke-dashoffset:0"/>
  </g>
</svg>