<?xml version="1.0" encoding="utf-8"?>
<svg viewBox="600 0 200 200" xmlns="http://www.w3.org/2000/svg" xmlns:xlink="http://www.w3.org/1999/xlink">
  <defs>
    <linearGradient id="linearGradient3296-73" gradientUnits="userSpaceOnUse" x1="472.81" y1="747.08655" x2="472.81" y2="566.33026" gradientTransform="matrix(0.1728368,0,0,0.1728368,621.96,48.6211)" xlink:href="#linearGradientBlackPieces"/>
    <linearGradient id="linearGradientBlackPieces">
      <stop id="stop2268" offset="0" style="stop-color:#000000;stop-opacity:1;"/>
      <stop id="stop2270" offset="1" style="stop-color:#505070;stop-opacity:1;"/>
    </linearGradient>
    <linearGradient id="linearGradient3290-7" x1="466.62888" y1="160.41989" x2="466.62888" y2="546.33032" gradientUnits="userSpaceOnUse" gradientTransform="matrix(0.1728368,0,0,0.1728368,621.96,48.6211)" xlink:href="#linearGradientBlackPiecesGrad"/>
    <linearGradient id="linearGradientBlackPiecesGrad">
      <stop style="stop-color:#64779c;stop-opacity:1;" offset="0" id="stop4686"/>
      <stop style="stop-color:#000000;stop-opacity:0;" offset="1" id="stop4688"/>
    </linearGradient>
    <linearGradient id="linearGradient11981" x1="650.01184" y1="138.4381" x2="757.34607" y2="138.4381" gradientUnits="userSpaceOnUse" xlink:href="#linearGradientBlackPiecesBorder"/>
    <linearGradient id="linearGradientBlackPiecesBorder">
      <stop style="stop-color:#181818;stop-opacity:1;" offset="0" id="stop7192"/>
      <stop style="stop-color:#181818;stop-opacity:1;" offset="1" id="stop7194"/>
    </linearGradient>
    <linearGradient id="linearGradient3278-2" gradientUnits="userSpaceOnUse" x1="337.50623" y1="472.64157" x2="352.78772" y2="578.18219" gradientTransform="matrix(-0.1728368,0,0,0.1728368,783.27641,48.90914)" xlink:href="#linearGradientBlackPiecesEye"/>
    <linearGradient id="linearGradientBlackPiecesEye">
      <stop style="stop-color:#a7cc52;stop-opacity:1;" offset="0" id="stop4698"/>
      <stop style="stop-color:#afc14d;stop-opacity:0.27083334;" offset="1" id="stop4700"/>
    </linearGradient>
    <linearGradient id="linearGradient3274-5" x1="337.50623" y1="472.64157" x2="352.78772" y2="578.18219" gradientUnits="userSpaceOnUse" gradientTransform="matrix(0.1728368,0,0,0.1728368,621.96,48.6211)" xlink:href="#linearGradientBlackPiecesEye"/>
    <linearGradient id="linearGradient12017" x1="691.37848" y1="165.98618" x2="713.04785" y2="165.98618" gradientUnits="userSpaceOnUse" xlink:href="#linearGradientBlackPiecesBorder"/>
    <linearGradient id="linearGradient12015" x1="656.41284" y1="163.75938" x2="694.14484" y2="163.75938" gradientUnits="userSpaceOnUse" xlink:href="#linearGradientBlackPiecesBorder"/>
    <linearGradient id="linearGradient12013" x1="647.58069" y1="168.10817" x2="685.34674" y2="168.10817" gradientUnits="userSpaceOnUse" xlink:href="#linearGradientBlackPiecesBorder"/>
    <linearGradient id="linearGradient12011" x1="654.16235" y1="172.3325" x2="692.04944" y2="172.3325" gradientUnits="userSpaceOnUse" xlink:href="#linearGradientBlackPiecesBorder"/>
    <linearGradient id="linearGradient12009" x1="679.27783" y1="174.8148" x2="724.5257" y2="174.8148" gradientUnits="userSpaceOnUse" xlink:href="#linearGradientBlackPiecesBorder"/>
    <linearGradient id="linearGradient11991" x1="667.26477" y1="146.25139" x2="697.05664" y2="146.25139" gradientUnits="userSpaceOnUse" xlink:href="#linearGradientBlackPiecesBorder"/>
    <linearGradient id="linearGradient2313-6" x1="2087.1404" y1="-485" x2="2033.2518" y2="-862.51611" gradientUnits="userSpaceOnUse" gradientTransform="matrix(0.04189531,0,0,0.04189531,596.21232,147.80288)" xlink:href="#linearGradientBlackPiecesShade"/>
    <linearGradient id="linearGradientBlackPiecesShade">
      <stop id="stop13366" offset="0" style="stop-color:#000000;stop-opacity:1;"/>
      <stop id="stop13368" offset="1" style="stop-color:#000000;stop-opacity:0;"/>
    </linearGradient>
    <linearGradient id="linearGradient2311-3" x1="2394.7349" y1="-485" x2="2394.7349" y2="-938.33337" gradientUnits="userSpaceOnUse" gradientTransform="matrix(0.04189531,0,0,0.04189531,591.82576,149.97134)" xlink:href="#linearGradientBlackPiecesShade"/>
    <linearGradient id="linearGradient2317-6" gradientUnits="userSpaceOnUse" gradientTransform="matrix(0.00408927,-0.04169509,0.04169509,0.00408927,676.56443,240.30629)" x1="2470.0815" y1="-364.98831" x2="2309.7107" y2="-733.76135" xlink:href="#linearGradientBlackPiecesShade"/>
    <linearGradient id="linearGradient2323-6" gradientUnits="userSpaceOnUse" x1="2234.7434" y1="-614.40747" x2="1987.2833" y2="-832.36462" gradientTransform="matrix(0.00167969,-0.04186149,0.04186149,0.00167969,706.72967,241.70811)" xlink:href="#linearGradientBlackPiecesShade"/>
    <linearGradient id="linearGradient2333-7" gradientUnits="userSpaceOnUse" x1="2087.1404" y1="-485" x2="2033.2518" y2="-862.51611" gradientTransform="matrix(-0.04189531,0,0,0.04189531,810.2915,148.59305)" xlink:href="#linearGradientBlackPiecesShade"/>
    <linearGradient id="linearGradient2335-1" gradientUnits="userSpaceOnUse" gradientTransform="matrix(-0.04189531,0,0,0.04189531,813.28715,149.84791)" x1="2394.7349" y1="-485" x2="2394.7349" y2="-938.33337" xlink:href="#linearGradientBlackPiecesShade"/>
    <linearGradient id="linearGradient2337-0" gradientUnits="userSpaceOnUse" gradientTransform="matrix(-0.00408927,-0.04169509,-0.04169509,0.00408927,728.70498,240.70103)" x1="2437.9685" y1="-388.63342" x2="2293.6538" y2="-745.58392" xlink:href="#linearGradientBlackPiecesShade"/>
    <linearGradient id="linearGradient2339-07" gradientUnits="userSpaceOnUse" gradientTransform="matrix(-0.00167969,-0.04186149,-0.04186149,0.00167969,698.14482,242.49806)" x1="2234.7434" y1="-614.40747" x2="1987.2833" y2="-832.36462" xlink:href="#linearGradientBlackPiecesShade"/>
    <linearGradient id="linearGradient12007" x1="658.4848" y1="182.55025" x2="689.72546" y2="182.55025" gradientUnits="userSpaceOnUse" xlink:href="#linearGradientBlackPiecesBorder"/>
    <linearGradient id="linearGradient12005" x1="651.49023" y1="179.01892" x2="686.3515" y2="179.01892" gradientUnits="userSpaceOnUse" xlink:href="#linearGradientBlackPiecesBorder"/>
    <linearGradient id="linearGradient12003" x1="711.56952" y1="163.3644" x2="749.30145" y2="163.3644" gradientUnits="userSpaceOnUse" xlink:href="#linearGradientBlackPiecesBorder"/>
    <linearGradient id="linearGradient12001" x1="720.36761" y1="167.71317" x2="758.13361" y2="167.71317" gradientUnits="userSpaceOnUse" xlink:href="#linearGradientBlackPiecesBorder"/>
    <linearGradient id="linearGradient11999" x1="713.66486" y1="171.93752" x2="751.552" y2="171.93752" gradientUnits="userSpaceOnUse" xlink:href="#linearGradientBlackPiecesBorder"/>
    <linearGradient id="linearGradient11997" x1="715.98883" y1="182.15526" x2="747.22949" y2="182.15526" gradientUnits="userSpaceOnUse" xlink:href="#linearGradientBlackPiecesBorder"/>
    <linearGradient id="linearGradient11995" x1="719.36285" y1="178.62393" x2="754.22406" y2="178.62393" gradientUnits="userSpaceOnUse" xlink:href="#linearGradientBlackPiecesBorder"/>
    <linearGradient id="linearGradient2363-15" gradientUnits="userSpaceOnUse" x1="1647.1403" y1="-382.90863" x2="2633.2517" y2="-582.90863" gradientTransform="matrix(0.03788526,0,0,0.03788526,583.70906,126.56059)" xlink:href="#linearGradientBlackPiecesShade"/>
    <linearGradient id="linearGradient2367-5" gradientUnits="userSpaceOnUse" gradientTransform="matrix(-0.03788526,0,0,0.03788526,824.52304,125.98437)" x1="1647.1403" y1="-382.90863" x2="2633.2517" y2="-582.90863" xlink:href="#linearGradientBlackPiecesShade"/>
    <linearGradient id="linearGradient7571" gradientUnits="userSpaceOnUse" gradientTransform="matrix(0.18767452,0,0,0.15070789,624.99819,15.57745)" x1="-32.538746" y1="195.9679" x2="575.18024" y2="588.12415" xlink:href="#linearGradientBlackPieces"/>
    <linearGradient id="linearGradient11987" x1="669.06531" y1="83.144768" x2="732.8877" y2="83.144768" gradientUnits="userSpaceOnUse" xlink:href="#linearGradientBlackPiecesBorder"/>
    <linearGradient id="linearGradient11993" x1="708.28674" y1="145.72061" x2="738.07861" y2="145.72061" gradientUnits="userSpaceOnUse" xlink:href="#linearGradientBlackPiecesBorder"/>
    <linearGradient id="linearGradient3256-2" gradientUnits="userSpaceOnUse" gradientTransform="matrix(0.04136251,-0.00665908,-0.00665908,-0.04136251,600.22396,117.59374)" x1="2653.51" y1="1167.8967" x2="2228.9055" y2="-1469.516" xlink:href="#linearGradientBlackPiecesShade"/>
    <linearGradient id="linearGradient7567" gradientUnits="userSpaceOnUse" x1="696.98621" y1="124.25547" x2="216.33333" y2="486.99237" gradientTransform="matrix(-0.18767452,0,0,0.15070789,781.37068,-0.66139)" xlink:href="#linearGradientBlackPieces"/>
    <linearGradient id="linearGradient11983" x1="671.0036" y1="55.351688" x2="744.99353" y2="55.351688" gradientUnits="userSpaceOnUse" xlink:href="#linearGradientBlackPiecesBorder"/>
    <linearGradient id="linearGradient3939" gradientUnits="userSpaceOnUse" gradientTransform="matrix(0.18767452,0,0,0.15070789,623.12144,0.84571)" x1="-153.95351" y1="-67.192932" x2="615.71777" y2="620.05176" xlink:href="#linearGradientBlackPieces"/>
    <linearGradient id="linearGradient12019" x1="658.46643" y1="57.223347" x2="738.61884" y2="57.223347" gradientUnits="userSpaceOnUse" xlink:href="#linearGradientBlackPiecesBorder"/>
    <linearGradient id="linearGradient3723" gradientUnits="userSpaceOnUse" gradientTransform="matrix(0.06028869,-0.00399079,0.007582,0.08553806,713.19705,34.71986)" x1="-1567.2875" y1="-173.39944" x2="-199.66586" y2="439.2937" xlink:href="#linearGradientBlackPieces"/>
    <linearGradient id="linearGradient11985" x1="677.3183" y1="70.734879" x2="710.34222" y2="70.734879" gradientUnits="userSpaceOnUse" xlink:href="#linearGradientBlackPiecesBorder"/>
    <linearGradient id="linearGradient11989" x1="694.63049" y1="104.60498" x2="708.32458" y2="104.60498" gradientUnits="userSpaceOnUse" xlink:href="#linearGradientBlackPiecesBorder"/>
    <linearGradient id="linearGradient3260-8" gradientUnits="userSpaceOnUse" gradientTransform="matrix(-0.00408927,-0.04169509,-0.04169509,0.00408927,726.26064,226.03534)" x1="2437.9685" y1="-388.63342" x2="2293.6538" y2="-745.58392" xlink:href="#linearGradientBlackPiecesShade"/>
    <linearGradient id="linearGradient3264-7" gradientUnits="userSpaceOnUse" gradientTransform="matrix(0.00408927,-0.04169509,0.04169509,0.00408927,679.82347,227.26985)" x1="2470.0815" y1="-364.98831" x2="2309.7107" y2="-733.76135" xlink:href="#linearGradientBlackPiecesShade"/>
  </defs>
  <g id="BlackBishop">
    <rect y="0" x="600" height="200" width="200" id="rect6707-79" style="fill:none;stroke:none"/>
    <path id="path3294-50" d="M 686.75613,104.06305 C 675.29109,99.14012 674.81078,88.423 654.53253,84.23603 c -7.00697,-1.44679 1.73628,17.40764 2.96621,33.37314 1.23009,15.96764 -6.74674,29.94103 0.73829,42.79351 9.94711,17.08007 17.26241,18.75134 23.99596,24.99998 12.26417,11.38096 28.25241,10.48366 37.93001,1.26414 8.18731,-7.79975 19.68974,-11.69865 28.68994,-29.03669 7.20137,-13.87278 2.88846,-24.27374 3.81993,-39.03719 1.08654,-17.22162 6.26069,-36.5869 -0.8082,-35.42763 -21.61964,3.54555 -22.91326,19.82009 -32.47564,22.64708 -10.18804,3.01196 -23.20685,2.29811 -32.6329,-1.74932 z" style="fill:url(#linearGradient3296-73);fill-opacity:1;fill-rule:evenodd;stroke:none"/>
    <path style="fill:url(#linearGradient3290-7);fill-opacity:1.0;fill-rule:evenodd;stroke:url(#linearGradient11981);stroke-width:3.65714930999999988;stroke-linecap:round;stroke-linejoin:round;stroke-miterlimit:4;stroke-opacity:1;stroke-dasharray:none" d="M 686.75613,104.06305 C 675.29109,99.14012 674.81078,88.423 654.53253,84.23603 c -7.00697,-1.44679 1.73628,17.40764 2.96621,33.37314 1.23009,15.96764 -6.74674,29.94103 0.73829,42.79351 9.94711,17.08007 17.26241,18.75134 23.99596,24.99998 12.26417,11.38096 28.25241,10.48366 37.93001,1.26414 8.18731,-7.79975 19.68974,-11.69865 28.68994,-29.03669 7.20137,-13.87278 2.88846,-24.27374 3.81993,-39.03719 1.08654,-17.22162 6.26069,-36.5869 -0.8082,-35.42763 -21.61964,3.54555 -22.91326,19.82009 -32.47564,22.64708 -10.18804,3.01196 -23.20685,2.29811 -32.6329,-1.74932 z" id="path3280-75"/>
    <path id="path3276-8" d="m 713.65991,141.30915 c 3.35687,-10.77794 12.67966,-14.0408 22.06448,-6.93161 2.33863,1.77154 -3.24976,16.73419 -22.06448,6.93161 z" style="fill:url(#linearGradient3278-2);fill-opacity:1.0;fill-rule:evenodd;stroke:none"/>
    <path style="fill:url(#linearGradient3274-5);fill-opacity:1.0;fill-rule:evenodd;stroke:none" d="m 691.5765,141.02111 c -3.35687,-10.77797 -12.67966,-14.04083 -22.06448,-6.93164 -2.33863,1.77157 3.24974,16.7342 22.06448,6.93164 z" id="path3266-9"/>
    <path style="fill:#c1856e;fill-opacity:1;fill-rule:evenodd;stroke:url(#linearGradient12017);stroke-width:3.65714931;stroke-linecap:round;stroke-linejoin:round;stroke-miterlimit:4;stroke-opacity:1;stroke-dasharray:none" d="m 693.20704,162.97338 c 0.49511,2.19205 4.86338,4.21056 6.63501,3.216 0.84652,5.30021 1.70659,2.87938 2.56805,2.7427 0.7631,-0.12108 1.9484,2.91113 2.04332,-2.71975 1.93406,0.31513 6.32098,-0.41004 6.6262,-3.25719 l 0.13965,-0.13963 c -5.62282,-0.70524 -13.50653,-0.62643 -18.01223,0.15787 z" id="path2267-8"/>
    <path id="path2281-7" d="m 692.31625,165.46888 c -11.58423,-3.55614 -22.85887,-3.70693 -34.07484,-3.21198" style="fill:none;stroke:url(#linearGradient12015);stroke-width:3.65714931;stroke-linecap:round;stroke-linejoin:round;stroke-miterlimit:4;stroke-opacity:1;stroke-dasharray:none"/>
    <path style="fill:none;stroke:url(#linearGradient12013);stroke-width:3.65714979;stroke-linecap:round;stroke-linejoin:round;stroke-miterlimit:4;stroke-opacity:1;stroke-dasharray:none" d="m 683.51815,166.95537 c -12.02894,-1.46455 -23.15456,0.3688 -34.10891,2.8275" id="path2283-54"/>
    <path id="path2285-2" d="m 690.22087,168.86351 c -12.09628,0.72164 -23.89607,2.55014 -34.22997,6.93798" style="fill:none;stroke:url(#linearGradient12011);stroke-width:3.65714931;stroke-linecap:round;stroke-linejoin:round;stroke-miterlimit:4;stroke-opacity:1;stroke-dasharray:none"/>
    <path style="fill:none;stroke:url(#linearGradient12009);stroke-width:3.65714931;stroke-linecap:round;stroke-linejoin:round;stroke-miterlimit:4;stroke-opacity:1;stroke-dasharray:none" d="m 722.6971,178.00293 c -10.34921,3.75196 -21.01162,-1.14157 -19.91257,-5.78237 0.69976,-2.95479 -1.83252,-2.14892 -1.17807,-0.002 1.15017,3.77337 -13.07967,9.57262 -20.50007,5.69522" id="path2289-11"/>
    <path id="path2291-0" d="m 694.06604,161.74181 c -0.64567,-3.87309 3.1972,-6.81776 -0.39089,-18.33808 -3.35687,-10.77796 -13.29634,-16.80041 -24.1631,-9.31421 -1.75457,1.20873 1.46129,16.62813 20.14464,7.92516" style="fill:none;stroke:url(#linearGradient11991);stroke-width:3.65714931;stroke-linecap:round;stroke-linejoin:round;stroke-miterlimit:4;stroke-opacity:1;stroke-dasharray:none"/>
    <path id="path2293-2" d="m 679.11769,134.2025 c 2.53699,2.1557 1.93534,4.76146 0.67933,7.46107 -1.12127,-2.01332 -1.8561,-4.23124 -0.67933,-7.46107 z" style="fill:#000000;fill-opacity:1;fill-rule:evenodd;stroke:#000000;stroke-width:3.65714598;stroke-linecap:round;stroke-linejoin:round;stroke-miterlimit:4;stroke-opacity:1;stroke-dasharray:none"/>
    <path id="path2299-0" d="m 674.45639,117.04556 c 4.83289,4.33731 4.87135,5.05854 8.33933,10.43822 2.39182,-6.33083 3.4659,-12.66167 10.05487,-18.9925 l -18.3942,8.55428 z" style="fill:url(#linearGradient2313-6);fill-opacity:1.0;fill-rule:evenodd;stroke:none"/>
    <path id="path2303-6" d="m 690.17875,111.58129 3.55493,19.7496 0.395,-20.1446 -3.94993,0.395 z" style="fill:url(#linearGradient2311-3);fill-opacity:1.0;fill-rule:evenodd;stroke:none"/>
    <path style="fill:url(#linearGradient2317-6);fill-opacity:1.0;fill-rule:evenodd;stroke:none" d="m 657.43742,146.18053 c 3.74373,-2.80212 8.6721,-4.41961 10.52245,-9.1151 -4.98717,0.61602 -4.10122,-4.94506 -12.54469,3.44162 l 2.02224,5.67348 z" id="path2315-67"/>
    <path style="fill:url(#linearGradient2323-6);fill-opacity:1.0;fill-rule:evenodd;stroke:none" d="m 680.71403,159.13381 c 4.52758,-4.65513 3.66981,-1.5047 9.1842,-4.75421 -6.22985,-2.64371 -9.3526,-4.76073 -21.33906,-7.25331 -6.87612,5.80188 4.03708,7.20522 12.15486,12.00752 z" id="path2321-51"/>
    <path style="fill:url(#linearGradient2333-7);fill-opacity:1.0;fill-rule:evenodd;stroke:none" d="m 732.04759,117.83553 c -4.83289,4.33732 -4.87136,5.05856 -8.33933,10.43824 -2.39182,-6.33084 -3.46588,-12.66167 -10.05486,-18.9925 l 18.39419,8.55426 z" id="path2325-5"/>
    <path style="fill:url(#linearGradient2335-1);fill-opacity:1.0;fill-rule:evenodd;stroke:none" d="m 714.93436,111.45765 -3.55493,19.7496 -0.39499,-20.14459 3.94992,0.39499 z" id="path2327-0"/>
    <path id="path2329-8" d="m 747.83205,146.57553 c -3.74375,-2.80213 -8.67209,-4.41961 -10.52247,-9.11511 4.98718,0.61602 8.01145,-0.47623 16.45493,7.91045 l -5.93246,1.20466 z" style="fill:url(#linearGradient2337-0);fill-opacity:1.0;fill-rule:evenodd;stroke:none"/>
    <path id="path2331-9" d="m 724.16044,159.92378 c -4.52757,-4.65511 -3.66981,-1.50469 -9.18421,-4.75419 6.22985,-2.64371 9.3526,-4.76074 21.33907,-7.25331 6.87613,5.80188 -4.03708,7.20521 -12.15486,12.0075 z" style="fill:url(#linearGradient2339-07);fill-opacity:1.0;fill-rule:evenodd;stroke:none"/>
    <path id="path2341-48" d="m 687.89689,172.41907 c -11.01617,5.04823 -19.53647,12.43369 -27.5835,20.26236" style="fill:none;stroke:url(#linearGradient12007);stroke-width:3.65714979;stroke-linecap:round;stroke-linejoin:round;stroke-miterlimit:4;stroke-opacity:1;stroke-dasharray:none"/>
    <path id="path2343-8" d="m 684.52291,171.98835 c -11.82702,2.63861 -21.70077,8.08377 -31.20412,14.06114" style="fill:none;stroke:url(#linearGradient12005);stroke-width:3.65714979;stroke-linecap:round;stroke-linejoin:round;stroke-miterlimit:4;stroke-opacity:1;stroke-dasharray:none"/>
    <path style="fill:none;stroke:url(#linearGradient12003);stroke-width:3.65714931;stroke-linecap:round;stroke-linejoin:round;stroke-miterlimit:4;stroke-opacity:1;stroke-dasharray:none" d="m 713.39806,165.07388 c 11.58423,-3.55613 22.85888,-3.70692 34.07484,-3.21197" id="path2345-45"/>
    <path id="path2347-8" d="m 722.19616,166.56037 c 12.02894,-1.46454 23.15456,0.3688 34.1089,2.8275" style="fill:none;stroke:url(#linearGradient12001);stroke-width:3.65714979;stroke-linecap:round;stroke-linejoin:round;stroke-miterlimit:4;stroke-opacity:1;stroke-dasharray:none"/>
    <path style="fill:none;stroke:url(#linearGradient11999);stroke-width:3.65714931;stroke-linecap:round;stroke-linejoin:round;stroke-miterlimit:4;stroke-opacity:1;stroke-dasharray:none" d="m 715.49344,168.46851 c 12.09626,0.72167 23.89607,2.55015 34.22997,6.93799" id="path2349-1"/>
    <path style="fill:none;stroke:url(#linearGradient11997);stroke-width:3.65714979;stroke-linecap:round;stroke-linejoin:round;stroke-miterlimit:4;stroke-opacity:1;stroke-dasharray:none" d="m 717.8174,172.02408 c 11.01618,5.0482 19.53648,12.43369 27.5835,20.26235" id="path2351-6"/>
    <path style="fill:none;stroke:url(#linearGradient11995);stroke-width:3.65714979;stroke-linecap:round;stroke-linejoin:round;stroke-miterlimit:4;stroke-opacity:1;stroke-dasharray:none" d="m 721.19141,171.59336 c 11.82702,2.6386 21.70075,8.08377 31.20411,14.06114" id="path2353-7"/>
    <path style="fill:url(#linearGradient2363-15);fill-opacity:1.0;fill-rule:evenodd;stroke:none" d="m 655.68725,89.79665 c 0.83437,3.41705 4.19214,18.57623 6.31791,30.51289 2.16288,-5.72489 12.73174,-5.89326 18.69004,-11.61815 C 667.02724,86.69921 659.78345,90.34383 655.68725,89.79665 z" id="path2361-8"/>
    <path id="path2365-66" d="m 752.0387,87.50968 c -0.83438,3.41703 -2.01028,20.28706 -4.13607,32.22372 -2.16288,-5.72487 -14.40754,-5.89325 -20.36585,-11.61812 13.66796,-21.99219 19.25346,-20.05843 24.50192,-20.6056 z" style="fill:url(#linearGradient2367-5);fill-opacity:1.0;fill-rule:evenodd;stroke:none"/>
    <path style="fill:url(#linearGradient7571);fill-opacity:1;fill-rule:evenodd;stroke:url(#linearGradient11987);stroke-width:3.65714598;stroke-linecap:round;stroke-linejoin:round;stroke-miterlimit:4;stroke-opacity:1;stroke-dasharray:none" d="m 673.48081,112.53278 c -3.41322,-22.47251 -8.69931,-22.61847 23.45933,-58.77603 44.83561,26.80833 31.22624,35.73948 34.11899,58.62617 -27.40816,-2.72369 -34.20891,-2.20629 -57.57832,0.14986 z" id="path7569"/>
    <path style="fill:none;stroke:url(#linearGradient11993);stroke-width:3.65714931;stroke-linecap:round;stroke-linejoin:round;stroke-miterlimit:4;stroke-opacity:1;stroke-dasharray:none" d="m 711.27738,161.21103 c 0.64566,-3.8731 -3.19722,-6.81779 0.39088,-18.33808 3.35686,-10.77797 13.29634,-16.80042 24.1631,-9.31422 1.75456,1.20873 -1.46128,16.62814 -20.14464,7.92516" id="path3250-8"/>
    <path style="fill:#000000;fill-opacity:1;fill-rule:evenodd;stroke:#000000;stroke-width:3.65714598;stroke-linecap:round;stroke-linejoin:round;stroke-miterlimit:4;stroke-opacity:1;stroke-dasharray:none" d="m 725.53438,132.98035 c -2.537,2.1557 -1.93536,4.76149 -0.67934,7.46108 1.12126,-2.01333 1.8561,-4.23125 0.67934,-7.46108 z" id="path3252-5"/>
    <path id="path3254-3" d="m 699.10768,152.53784 c -5.1025,-17.96853 -4.76167,-41.22185 4.11541,-41.09203 7.12025,0.10764 5.91193,28.58042 3.59186,42.87061 0,0 -4.77445,8.54942 -7.70727,-1.77858 z" style="fill:url(#linearGradient3256-2);fill-opacity:1.0;fill-rule:evenodd;stroke:none"/>
    <path style="fill:url(#linearGradient7567);fill-opacity:1;fill-rule:evenodd;stroke:url(#linearGradient11983);stroke-width:3.65714598;stroke-linecap:round;stroke-linejoin:round;stroke-miterlimit:4;stroke-opacity:1;stroke-dasharray:none" d="m 735.66525,96.27197 c 14.22553,-29.85909 7.92426,-56.59578 -16.44186,-81.84056 -15.47869,9.5886 -44.41537,48.69093 -46.3912,74.07598 25.60463,-4.31574 37.44941,2.34431 62.83306,7.76458 z" id="path7565"/>
    <path id="path5801" d="M 669.54853,101.54436 C 649.96109,80.54255 664.209,40.71898 686.80571,12.90233 c 36.32837,28.6565 56.65216,60.22243 48.00232,88.5946 -25.60462,-4.31575 -39.87584,-5.37283 -65.2595,0.0474 z" style="fill:url(#linearGradient3939);fill-opacity:1;fill-rule:evenodd;stroke:url(#linearGradient12019);stroke-width:3.65714598;stroke-linecap:round;stroke-linejoin:round;stroke-miterlimit:4;stroke-opacity:1;stroke-dasharray:none"/>
    <path id="rect3643" d="m 693.92972,54.73325 c -2.82401,-0.0674 -5.28015,2.29084 -5.06209,4.69782 -0.0313,1.38583 -0.10156,2.7707 -0.1625,4.1557 -1.8934,-0.10047 -3.81853,-0.47805 -5.70421,-0.17375 -2.49935,0.57203 -4.35267,2.9378 -3.73407,5.15897 0.4628,2.03468 2.76973,3.59601 5.16584,3.5163 1.65766,0.0743 3.31079,0.20662 4.96401,0.33242 0.41474,3.56237 1.20592,7.08986 2.25234,10.55173 0.42188,2.2784 3.12417,4.12346 5.80468,3.7083 2.71727,-0.31974 4.82957,-2.78584 4.27604,-5.12891 -0.23714,-1.17073 -0.72441,-2.2929 -0.95,-3.46708 -0.49223,-1.95628 -0.91168,-3.93142 -1.14173,-5.92203 2.02591,-0.17405 4.16416,-0.0229 6.06355,-0.75603 2.15624,-0.9513 3.4081,-3.33329 2.52736,-5.33342 -0.76069,-1.94103 -3.19492,-3.21973 -5.54102,-2.97346 -1.28045,0.0433 -2.55293,0.18191 -3.83027,0.26326 0.0297,-0.5203 -0.0374,-1.05425 0.014,-1.58051 0.0252,-1.13656 0.2156,-2.27782 0.12496,-3.41179 -0.47168,-2.00564 -2.63578,-3.72099 -5.06684,-3.63752 z" style="opacity:0.98999999;fill:url(#linearGradient3723);fill-opacity:1;fill-rule:evenodd;stroke:url(#linearGradient11985);stroke-width:3.65714598;stroke-linecap:round;stroke-linejoin:round;stroke-miterlimit:4;stroke-opacity:1;stroke-dasharray:none;stroke-dashoffset:0"/>
    <path id="path3941" d="m 696.71089,102.46716 c -2.20923,4.97345 10.87584,6.35628 9.7116,0.0753" style="fill:none;stroke:url(#linearGradient11989);stroke-width:3.65714598;stroke-linecap:round;stroke-linejoin:round;stroke-miterlimit:4;stroke-opacity:1;stroke-dasharray:none"/>
    <path style="fill:url(#linearGradient3260-8);fill-opacity:1.0;fill-rule:evenodd;stroke:none" d="m 745.38778,131.90984 c -3.74375,-2.80211 -8.6721,-4.41961 -10.52247,-9.11509 4.98715,0.616 8.01145,-0.47623 16.4549,7.91042 l -5.93243,1.20467 z" id="path3258-4"/>
    <path id="path3262-7" d="m 660.69646,133.14437 c 3.74373,-2.80212 8.6721,-4.41961 10.52245,-9.1151 -4.98717,0.61602 -4.10122,-4.94506 -12.54469,3.44162 l 2.02224,5.67348 z" style="fill:url(#linearGradient3264-7);fill-opacity:1.0;fill-rule:evenodd;stroke:none"/>
  </g>
</svg>