<?xml version="1.0" encoding="utf-8"?>
<svg viewBox="0 0 200 200" xmlns="http://www.w3.org/2000/svg" xmlns:xlink="http://www.w3.org/1999/xlink">
  <defs>
    <linearGradient id="linearGradient3296" gradientUnits="userSpaceOnUse" x1="472.81" y1="747.08655" x2="472.81" y2="566.33026" gradientTransform="matrix(0.1728368,0,0,0.1728368,17.421166,48.609937)" xlink:href="#linearGradientBlackPieces"/>
    <linearGradient id="linearGradientBlackPieces">
      <stop id="stop2268" offset="0" style="stop-color:#000000;stop-opacity:1;"/>
      <stop id="stop2270" offset="1" style="stop-color:#505070;stop-opacity:1;"/>
    </linearGradient>
    <linearGradient id="linearGradient3290" x1="466.62888" y1="160.41989" x2="466.62888" y2="546.33032" gradientUnits="userSpaceOnUse" gradientTransform="matrix(0.1728368,0,0,0.1728368,17.421166,48.609937)" xlink:href="#linearGradientBlackPiecesGrad"/>
    <linearGradient id="linearGradientBlackPiecesGrad">
      <stop style="stop-color:#64779c;stop-opacity:1;" offset="0" id="stop4686"/>
      <stop style="stop-color:#000000;stop-opacity:0;" offset="1" id="stop4688"/>
    </linearGradient>
    <linearGradient id="linearGradient11913" x1="45.473019" y1="138.42693" x2="152.80724" y2="138.42693" gradientUnits="userSpaceOnUse" xlink:href="#linearGradientBlackPiecesBorder"/>
    <linearGradient id="linearGradientBlackPiecesBorder">
      <stop style="stop-color:#181818;stop-opacity:1;" offset="0" id="stop7192"/>
      <stop style="stop-color:#181818;stop-opacity:1;" offset="1" id="stop7194"/>
    </linearGradient>
    <linearGradient id="linearGradient3278" gradientUnits="userSpaceOnUse" x1="337.50623" y1="472.64157" x2="352.78772" y2="578.18219" gradientTransform="matrix(-0.1728368,0,0,0.1728368,178.73756,48.897987)" xlink:href="#linearGradientBlackPiecesEye"/>
    <linearGradient id="linearGradientBlackPiecesEye">
      <stop style="stop-color:#a7cc52;stop-opacity:1;" offset="0" id="stop4698"/>
      <stop style="stop-color:#afc14d;stop-opacity:0.27083334;" offset="1" id="stop4700"/>
    </linearGradient>
    <linearGradient id="linearGradient3274" x1="337.50623" y1="472.64157" x2="352.78772" y2="578.18219" gradientUnits="userSpaceOnUse" gradientTransform="matrix(0.1728368,0,0,0.1728368,17.421166,48.609937)" xlink:href="#linearGradientBlackPiecesEye"/>
    <linearGradient id="linearGradient11945" x1="86.839622" y1="165.97501" x2="108.50901" y2="165.97501" gradientUnits="userSpaceOnUse" xlink:href="#linearGradientBlackPiecesBorder"/>
    <linearGradient id="linearGradient11943" x1="51.873989" y1="163.74821" x2="89.605988" y2="163.74821" gradientUnits="userSpaceOnUse" xlink:href="#linearGradientBlackPiecesBorder"/>
    <linearGradient id="linearGradient11941" x1="43.041832" y1="168.09698" x2="80.807892" y2="168.09698" gradientUnits="userSpaceOnUse" xlink:href="#linearGradientBlackPiecesBorder"/>
    <linearGradient id="linearGradient11939" x1="49.623489" y1="172.32133" x2="87.510597" y2="172.32133" gradientUnits="userSpaceOnUse" xlink:href="#linearGradientBlackPiecesBorder"/>
    <linearGradient id="linearGradient11937" x1="74.738968" y1="174.80363" x2="119.98684" y2="174.80363" gradientUnits="userSpaceOnUse" xlink:href="#linearGradientBlackPiecesBorder"/>
    <linearGradient id="linearGradient11921" x1="62.725922" y1="146.24023" x2="92.517822" y2="146.24023" gradientUnits="userSpaceOnUse" xlink:href="#linearGradientBlackPiecesBorder"/>
    <linearGradient id="linearGradient2313" x1="2087.1404" y1="-485" x2="2033.2518" y2="-862.51611" gradientUnits="userSpaceOnUse" gradientTransform="matrix(0.04189531,0,0,0.04189531,-8.3265137,147.79182)" xlink:href="#linearGradientBlackPiecesShade"/>
    <linearGradient id="linearGradientBlackPiecesShade">
      <stop id="stop13366" offset="0" style="stop-color:#000000;stop-opacity:1;"/>
      <stop id="stop13368" offset="1" style="stop-color:#000000;stop-opacity:0;"/>
    </linearGradient>
    <linearGradient id="linearGradient2311" x1="2394.7349" y1="-485" x2="2394.7349" y2="-938.33337" gradientUnits="userSpaceOnUse" gradientTransform="matrix(0.04189531,0,0,0.04189531,-12.713074,149.96027)" xlink:href="#linearGradientBlackPiecesShade"/>
    <linearGradient id="linearGradient2317" gradientUnits="userSpaceOnUse" gradientTransform="matrix(0.00408927,-0.04169509,0.04169509,0.00408927,72.025606,240.29509)" x1="2470.0815" y1="-364.98831" x2="2309.7107" y2="-733.76135" xlink:href="#linearGradientBlackPiecesShade"/>
    <linearGradient id="linearGradient2323" gradientUnits="userSpaceOnUse" x1="2234.7434" y1="-614.40747" x2="1987.2833" y2="-832.36462" gradientTransform="matrix(0.00167969,-0.04186149,0.04186149,0.00167969,102.1908,241.69691)" xlink:href="#linearGradientBlackPiecesShade"/>
    <linearGradient id="linearGradient2333" gradientUnits="userSpaceOnUse" x1="2087.1404" y1="-485" x2="2033.2518" y2="-862.51611" gradientTransform="matrix(-0.04189531,0,0,0.04189531,205.75286,148.58181)" xlink:href="#linearGradientBlackPiecesShade"/>
    <linearGradient id="linearGradient2335" gradientUnits="userSpaceOnUse" gradientTransform="matrix(-0.04189531,0,0,0.04189531,208.74847,149.83666)" x1="2394.7349" y1="-485" x2="2394.7349" y2="-938.33337" xlink:href="#linearGradientBlackPiecesShade"/>
    <linearGradient id="linearGradient2337" gradientUnits="userSpaceOnUse" gradientTransform="matrix(-0.00408927,-0.04169509,-0.04169509,0.00408927,124.16614,240.68983)" x1="2437.9685" y1="-388.63342" x2="2293.6538" y2="-745.58392" xlink:href="#linearGradientBlackPiecesShade"/>
    <linearGradient id="linearGradient2339" gradientUnits="userSpaceOnUse" gradientTransform="matrix(-0.00167969,-0.04186149,-0.04186149,0.00167969,93.605996,242.48686)" x1="2234.7434" y1="-614.40747" x2="1987.2833" y2="-832.36462" xlink:href="#linearGradientBlackPiecesShade"/>
    <linearGradient id="linearGradient11935" x1="53.94598" y1="182.53908" x2="85.186623" y2="182.53908" gradientUnits="userSpaceOnUse" xlink:href="#linearGradientBlackPiecesBorder"/>
    <linearGradient id="linearGradient11933" x1="46.951382" y1="179.00775" x2="81.812637" y2="179.00775" gradientUnits="userSpaceOnUse" xlink:href="#linearGradientBlackPiecesBorder"/>
    <linearGradient id="linearGradient11969" x1="108.85922" y1="163.35321" x2="142.93407" y2="163.35321" gradientUnits="userSpaceOnUse" xlink:href="#linearGradientBlackPiecesBorder"/>
    <linearGradient id="linearGradient11971" x1="117.65732" y1="167.702" x2="151.76622" y2="167.702" gradientUnits="userSpaceOnUse" xlink:href="#linearGradientBlackPiecesBorder"/>
    <linearGradient id="linearGradient11929" x1="109.12604" y1="171.92633" x2="147.01314" y2="171.92633" gradientUnits="userSpaceOnUse" xlink:href="#linearGradientBlackPiecesBorder"/>
    <linearGradient id="linearGradient11927" x1="111.45" y1="182.14409" x2="142.69063" y2="182.14409" gradientUnits="userSpaceOnUse" xlink:href="#linearGradientBlackPiecesBorder"/>
    <linearGradient id="linearGradient11925" x1="114.824" y1="178.61276" x2="149.68526" y2="178.61276" gradientUnits="userSpaceOnUse" xlink:href="#linearGradientBlackPiecesBorder"/>
    <linearGradient id="linearGradient13370" gradientUnits="userSpaceOnUse" gradientTransform="matrix(0.03788526,0,0,0.03788526,-20.829784,126.54946)" x1="1647.1403" y1="-382.90863" x2="2633.2517" y2="-582.90863" xlink:href="#linearGradientBlackPiecesShade"/>
    <linearGradient id="linearGradient2367" gradientUnits="userSpaceOnUse" gradientTransform="matrix(-0.03788526,0,0,0.03788526,219.98431,125.97333)" x1="1647.1403" y1="-382.90863" x2="2633.2517" y2="-582.90863" xlink:href="#linearGradientBlackPiecesShade"/>
    <linearGradient id="linearGradient12112" gradientUnits="userSpaceOnUse" x1="188.83656" y1="5.5850191" x2="526.30945" y2="257.17569" gradientTransform="matrix(0.16694469,0,0,0.16694469,25.528756,6.8087573)" xlink:href="#linearGradientBlackPieces"/>
    <linearGradient id="linearGradient11915" x1="73.667786" y1="40.290787" x2="122.48566" y2="40.290787" gradientUnits="userSpaceOnUse" xlink:href="#linearGradientBlackPiecesBorder"/>
    <linearGradient id="linearGradient4883" x1="-153.70424" y1="-341.60275" x2="889.69318" y2="659.1109" gradientUnits="userSpaceOnUse" xlink:href="#linearGradientBlackPieces"/>
    <linearGradient id="linearGradient11917" x1="316.61819" y1="546.96198" x2="1106.3282" y2="546.96198" gradientUnits="userSpaceOnUse" xlink:href="#linearGradientBlackPiecesBorder"/>
    <linearGradient id="linearGradient10410" x1="-303.40869" y1="-139.80017" x2="651.23621" y2="525.12677" gradientUnits="userSpaceOnUse" gradientTransform="matrix(0.12307246,0,0,0.15793852,46.688806,28.630147)" xlink:href="#linearGradientBlackPieces"/>
    <linearGradient id="linearGradient11919" x1="53.68819" y1="82.306328" x2="143.37979" y2="82.306328" gradientUnits="userSpaceOnUse" xlink:href="#linearGradientBlackPiecesBorder"/>
    <linearGradient id="linearGradient11923" x1="103.74792" y1="145.70943" x2="133.53981" y2="145.70943" gradientUnits="userSpaceOnUse" xlink:href="#linearGradientBlackPiecesBorder"/>
    <linearGradient id="linearGradient3256" gradientUnits="userSpaceOnUse" gradientTransform="matrix(0.04136251,-0.00665908,-0.00665908,-0.04136251,-4.3148837,117.5827)" x1="2653.51" y1="1167.8967" x2="2228.9055" y2="-1469.516" xlink:href="#linearGradientBlackPiecesShade"/>
    <linearGradient id="linearGradient3260" gradientUnits="userSpaceOnUse" gradientTransform="matrix(-0.00408927,-0.04169509,-0.04169509,0.00408927,121.72186,226.02423)" x1="2437.9685" y1="-388.63342" x2="2293.6538" y2="-745.58392" xlink:href="#linearGradientBlackPiecesShade"/>
    <linearGradient id="linearGradient3264" gradientUnits="userSpaceOnUse" gradientTransform="matrix(0.00408927,-0.04169509,0.04169509,0.00408927,75.284646,227.25879)" x1="2470.0815" y1="-364.98831" x2="2309.7107" y2="-733.76135" xlink:href="#linearGradientBlackPiecesShade"/>
    <linearGradient id="linearGradient11973" x1="83.918159" y1="97.479866" x2="113.21502" y2="97.479866" gradientUnits="userSpaceOnUse" xlink:href="#linearGradientBlackPiecesBorder"/>
  </defs>
  <g id="BlackKing">
    <rect y="0" x="0" height="200" width="200" id="rect6707" style="fill:none;stroke:none"/>
    <path id="path3294" d="m 82.217286,104.05189 c -11.46504,-4.922943 -11.94534,-15.640053 -32.2236,-19.827033 -7.00697,-1.44678 1.73629,17.407643 2.96621,33.373143 1.2301,15.96763 -6.74674,29.94104 0.7383,42.79351 9.94711,17.08006 17.2624,18.75135 23.99596,24.99999 12.26417,11.38095 28.252404,10.48366 37.930014,1.26414 8.1873,-7.79977 19.68974,-11.69866 28.68993,-29.0367 7.20137,-13.87278 2.88846,-24.27374 3.81993,-39.03719 1.08655,-17.22162 6.2607,-36.586903 -0.80819,-35.427633 -21.61965,3.54556 -22.91326,19.820093 -32.47564,22.647083 -10.18804,3.01196 -23.206864,2.29811 -32.632914,-1.74931 z" style="fill:url(#linearGradient3296);fill-opacity:1;fill-rule:evenodd;stroke:none"/>
    <path style="fill:url(#linearGradient3290);fill-opacity:1.0;fill-rule:evenodd;stroke:url(#linearGradient11913);stroke-width:3.65714930999999988;stroke-linecap:round;stroke-linejoin:round;stroke-miterlimit:4;stroke-opacity:1;stroke-dasharray:none" d="m 82.217286,104.05189 c -11.46504,-4.922943 -11.94534,-15.640053 -32.2236,-19.827033 -7.00697,-1.44678 1.73629,17.407643 2.96621,33.373143 1.2301,15.96763 -6.74674,29.94104 0.7383,42.79351 9.94711,17.08006 17.2624,18.75135 23.99596,24.99999 12.26417,11.38095 28.252404,10.48366 37.930014,1.26414 8.1873,-7.79977 19.68974,-11.69866 28.68993,-29.0367 7.20137,-13.87278 2.88846,-24.27374 3.81993,-39.03719 1.08655,-17.22162 6.2607,-36.586903 -0.80819,-35.427633 -21.61965,3.54556 -22.91326,19.820093 -32.47564,22.647083 -10.18804,3.01196 -23.206864,2.29811 -32.632914,-1.74931 z" id="path3280"/>
    <path id="path3276" d="m 109.12107,141.29799 c 3.35687,-10.77795 12.67966,-14.04082 22.06448,-6.93162 2.33863,1.77155 -3.24974,16.73419 -22.06448,6.93162 z" style="fill:url(#linearGradient3278);fill-opacity:1.0;fill-rule:evenodd;stroke:none"/>
    <path style="fill:url(#linearGradient3274);fill-opacity:1.0;fill-rule:evenodd;stroke:none" d="m 87.037656,141.00993 c -3.35687,-10.77795 -12.67966,-14.04082 -22.06448,-6.93163 -2.33863,1.77156 3.24974,16.7342 22.06448,6.93163 z" id="path3266"/>
    <path style="fill:#c1856e;fill-opacity:1;fill-rule:evenodd;stroke:url(#linearGradient11945);stroke-width:3.65714931;stroke-linecap:round;stroke-linejoin:round;stroke-miterlimit:4;stroke-opacity:1;stroke-dasharray:none" d="m 88.668196,162.96222 c 0.49511,2.19203 4.86339,4.21055 6.63502,3.216 0.84652,5.30019 1.70659,2.87938 2.56804,2.74269 0.76311,-0.12108 1.94841,2.91112 2.04333,-2.71976 1.934044,0.31514 6.320974,-0.41003 6.626204,-3.25717 l 0.13965,-0.13965 c -5.62283,-0.70522 -13.506544,-0.62641 -18.012244,0.15789 z" id="path2267"/>
    <path id="path2281" d="m 87.777416,165.4577 c -11.58423,-3.55613 -22.85888,-3.70692 -34.07485,-3.21197" style="fill:none;stroke:url(#linearGradient11943);stroke-width:3.65714931;stroke-linecap:round;stroke-linejoin:round;stroke-miterlimit:4;stroke-opacity:1;stroke-dasharray:none"/>
    <path style="fill:none;stroke:url(#linearGradient11941);stroke-width:3.65714979;stroke-linecap:round;stroke-linejoin:round;stroke-miterlimit:4;stroke-opacity:1;stroke-dasharray:none" d="m 78.979316,166.9442 c -12.02894,-1.46456 -23.15457,0.36879 -34.10891,2.82749" id="path2283"/>
    <path id="path2285" d="m 85.682026,168.85233 c -12.09628,0.72166 -23.89607,2.55016 -34.22996,6.93799" style="fill:none;stroke:url(#linearGradient11939);stroke-width:3.65714931;stroke-linecap:round;stroke-linejoin:round;stroke-miterlimit:4;stroke-opacity:1;stroke-dasharray:none"/>
    <path style="fill:none;stroke:url(#linearGradient11937);stroke-width:3.65714931;stroke-linecap:round;stroke-linejoin:round;stroke-miterlimit:4;stroke-opacity:1;stroke-dasharray:none" d="m 118.15827,177.99176 c -10.3492,3.75196 -21.011634,-1.14157 -19.912584,-5.78236 0.69977,-2.9548 -1.83251,-2.14893 -1.17807,-0.002 1.15018,3.77338 -13.07966,9.57264 -20.50007,5.69524" id="path2289"/>
    <path id="path2291" d="m 89.527196,161.73065 c -0.64567,-3.8731 3.19721,-6.81777 -0.39089,-18.33809 -3.35687,-10.77796 -13.29633,-16.8004 -24.1631,-9.3142 -1.75457,1.20873 1.46129,16.62814 20.14464,7.92515" style="fill:none;stroke:url(#linearGradient11921);stroke-width:3.65714931;stroke-linecap:round;stroke-linejoin:round;stroke-miterlimit:4;stroke-opacity:1;stroke-dasharray:none"/>
    <path id="path2293" d="m 74.578846,134.19133 c 2.537,2.1557 1.93535,4.76147 0.67933,7.46107 -1.12126,-2.01333 -1.85609,-4.23124 -0.67933,-7.46107 z" style="fill:#000000;fill-opacity:1;fill-rule:evenodd;stroke:#000000;stroke-width:3.65714598;stroke-linecap:round;stroke-linejoin:round;stroke-miterlimit:4;stroke-opacity:1;stroke-dasharray:none"/>
    <path id="path2299" d="m 69.917546,117.03439 c 4.8329,4.33731 4.87135,5.05854 8.33934,10.43821 2.39182,-6.33083 3.46589,-12.66166 10.05486,-18.9925 l -18.3942,8.55429 z" style="fill:url(#linearGradient2313);fill-opacity:1.0;fill-rule:evenodd;stroke:none"/>
    <path id="path2303" d="m 85.639916,111.57012 3.55492,19.74959 0.395,-20.14459 -3.94992,0.395 z" style="fill:url(#linearGradient2311);fill-opacity:1.0;fill-rule:evenodd;stroke:none"/>
    <path style="fill:url(#linearGradient2317);fill-opacity:1.0;fill-rule:evenodd;stroke:none" d="m 52.898576,146.16936 c 3.74373,-2.80211 8.6721,-4.41961 10.52246,-9.11509 -4.98717,0.616 -4.10123,-4.94505 -12.5447,3.4416 l 2.02224,5.67349 z" id="path2315"/>
    <path style="fill:url(#linearGradient2323);fill-opacity:1.0;fill-rule:evenodd;stroke:none" d="m 76.175186,159.12264 c 4.52758,-4.65513 3.66981,-1.50471 9.1842,-4.75421 -6.22985,-2.64371 -9.35259,-4.76073 -21.33906,-7.2533 -6.87612,5.80188 4.03709,7.20521 12.15486,12.00751 z" id="path2321"/>
    <path style="fill:url(#linearGradient2333);fill-opacity:1.0;fill-rule:evenodd;stroke:none" d="m 127.50877,117.82437 c -4.8329,4.33732 -4.87137,5.05855 -8.33934,10.43822 -2.39182,-6.33083 -3.46589,-12.66167 -10.05486,-18.9925 l 18.3942,8.55428 z" id="path2325"/>
    <path style="fill:url(#linearGradient2335);fill-opacity:1.0;fill-rule:evenodd;stroke:none" d="m 110.39552,111.44649 -3.55492,19.7496 -0.39501,-20.14459 3.94993,0.39499 z" id="path2327"/>
    <path id="path2329" d="m 143.29322,146.56436 c -3.74375,-2.80212 -8.6721,-4.41962 -10.52247,-9.1151 4.98717,0.616 8.01145,-0.47623 16.45492,7.91043 l -5.93245,1.20467 z" style="fill:url(#linearGradient2337);fill-opacity:1.0;fill-rule:evenodd;stroke:none"/>
    <path id="path2331" d="m 119.62161,159.91262 c -4.52758,-4.65512 -3.66981,-1.5047 -9.1842,-4.75421 6.22985,-2.64371 9.35259,-4.76073 21.33904,-7.2533 6.87614,5.80189 -4.03707,7.20522 -12.15484,12.00751 z" style="fill:url(#linearGradient2339);fill-opacity:1.0;fill-rule:evenodd;stroke:none"/>
    <path id="path2341" d="m 83.358046,172.4079 c -11.01617,5.04822 -19.53647,12.43369 -27.58349,20.26235" style="fill:none;stroke:url(#linearGradient11935);stroke-width:3.65714979;stroke-linecap:round;stroke-linejoin:round;stroke-miterlimit:4;stroke-opacity:1;stroke-dasharray:none"/>
    <path id="path2343" d="m 79.984066,171.97718 c -11.82702,2.6386 -21.70077,8.08378 -31.20411,14.06114" style="fill:none;stroke:url(#linearGradient11933);stroke-width:3.65714979;stroke-linecap:round;stroke-linejoin:round;stroke-miterlimit:4;stroke-opacity:1;stroke-dasharray:none"/>
    <path style="fill:none;stroke:url(#linearGradient11969);stroke-width:3.65714931;stroke-linecap:round;stroke-linejoin:round;stroke-miterlimit:4;stroke-opacity:1;stroke-dasharray:none" d="m 108.85922,165.0627 c 11.58423,-3.55612 22.85888,-3.70691 34.07485,-3.21197" id="path2345"/>
    <path id="path2347" d="m 117.65732,166.54921 c 12.02894,-1.46456 23.15457,0.36879 34.1089,2.82749" style="fill:none;stroke:url(#linearGradient11971);stroke-width:3.65714979;stroke-linecap:round;stroke-linejoin:round;stroke-miterlimit:4;stroke-opacity:1;stroke-dasharray:none"/>
    <path style="fill:none;stroke:url(#linearGradient11929);stroke-width:3.65714931;stroke-linecap:round;stroke-linejoin:round;stroke-miterlimit:4;stroke-opacity:1;stroke-dasharray:none" d="m 110.95461,168.45734 c 12.09626,0.72166 23.89607,2.55016 34.22996,6.93799" id="path2349"/>
    <path style="fill:none;stroke:url(#linearGradient11927);stroke-width:3.65714979;stroke-linecap:round;stroke-linejoin:round;stroke-miterlimit:4;stroke-opacity:1;stroke-dasharray:none" d="m 113.27857,172.01291 c 11.01619,5.04821 19.53647,12.43368 27.58349,20.26236" id="path2351"/>
    <path style="fill:none;stroke:url(#linearGradient11925);stroke-width:3.65714979;stroke-linecap:round;stroke-linejoin:round;stroke-miterlimit:4;stroke-opacity:1;stroke-dasharray:none" d="m 116.65257,171.58219 c 11.82702,2.6386 21.70075,8.08377 31.20411,14.06114" id="path2353"/>
    <path style="fill:url(#linearGradient13370);fill-opacity:1.0;fill-rule:evenodd;stroke:none" d="m 51.148406,89.785477 c 0.83437,3.41704 4.19214,18.576223 6.31791,30.512893 2.16288,-5.72489 12.73174,-5.89326 18.69005,-11.61814 C 62.488406,86.688037 55.244616,90.332647 51.148406,89.785477 z" id="path2361"/>
    <path id="path2365" d="m 147.49987,87.498507 c -0.83437,3.41704 -2.0103,20.287073 -4.13607,32.223733 -2.16288,-5.72488 -14.40755,-5.89326 -20.36585,-11.61814 13.66796,-21.992183 19.25346,-20.058423 24.50192,-20.605593 z" style="fill:url(#linearGradient2367);fill-opacity:1.0;fill-rule:evenodd;stroke:none"/>
    <path style="fill:url(#linearGradient12112);fill-opacity:1;fill-rule:evenodd;stroke:url(#linearGradient11915);stroke-width:3.6571424;stroke-linecap:round;stroke-linejoin:round;stroke-miterlimit:4;stroke-opacity:1;stroke-dasharray:none" d="m 99.594816,15.896807 c -2.36026,0.19298 -5.08426,0.0555 -6.97516,1.69553 -0.92618,2.50049 0.22557,5.11484 0.60947,7.60777 0.46812,1.94334 0.99164,3.87981 1.01302,5.88866 -5.40584,-0.90163 -10.98618,-2.35595 -16.44926,-1.18948 -1.99901,1.0799 -2.10615,3.67772 -2.2916,5.67078 -0.057,2.70372 0.365,5.64101 2.06205,7.81001 3.16684,1.18659 6.57725,0.13609 9.75665,-0.44497 2.07282,-0.44604 4.26666,-1.16996 6.30655,-1.15666 0.0734,4.82559 -0.32046,9.76576 -1.32324,14.41771 -0.12015,0.76604 -2.42694,7.76203 -1.58332,7.76164 2.07582,0.36095 11.131464,0.54592 13.222644,0.73175 1.49006,-0.0297 -1.65555,-11.04593 -1.72458,-12.69617 -0.6991,-3.45316 -1.10789,-7.01589 -0.43729,-10.53838 5.33735,-0.15901 10.62655,1.8163 15.95365,0.87646 2.08818,-1.02162 2.43666,-3.6171 2.83284,-5.65526 0.25974,-2.65187 0.0341,-5.65047 -1.72161,-7.76292 -2.79458,-0.88045 -5.70239,0.14481 -8.49853,0.45909 -2.20584,0.39659 -4.39678,0.87701 -6.60997,1.23122 1.36236,-4.06985 3.95544,-7.75836 4.48664,-12.09827 -0.45096,-1.88998 -2.78691,-2.04544 -4.35099,-2.36331 -1.4045,-0.21627 -2.84841,-0.26746 -4.277964,-0.2452 z" id="path24710"/>
    <path transform="matrix(0.04057623,0,0,0.0523856,68.913356,44.725027)" d="m 1066.6667,546.96198 a 355.19348,304.1412 0 1 1 -710.38698,0 355.19348,304.1412 0 1 1 710.38698,0 z" id="path4002" style="opacity:0.98999999;fill:url(#linearGradient4883);fill-opacity:1;fill-rule:evenodd;stroke:url(#linearGradient11917);stroke-width:79.32309723;stroke-linecap:round;stroke-linejoin:round;stroke-miterlimit:4;stroke-opacity:1;stroke-dasharray:none;stroke-dashoffset:0"/>
    <path id="path10402" d="m 74.718606,109.58378 c 4.24696,-17.053973 -19.71515,-18.392673 -19.19344,-34.259883 0.46598,-14.17251 7.1295,-18.96951 19.50454,-20.14579 16.26869,-1.54638 21.02302,22.54195 23.33729,22.00859 2.575144,-0.59348 9.533184,-22.30528 20.778294,-22.15706 12.89041,0.16991 22.83556,5.2253 22.39163,21.41604 -0.40119,15.08103 -24.44855,15.88082 -20.44703,31.919103 -16.77576,-2.06806 -31.013664,-1.26269 -46.371284,1.219 z" style="fill:url(#linearGradient10410);fill-opacity:1;fill-rule:evenodd;stroke:url(#linearGradient11919);stroke-width:3.65714502;stroke-linecap:round;stroke-linejoin:round;stroke-miterlimit:4;stroke-opacity:1;stroke-dasharray:none"/>
    <path style="fill:none;stroke:url(#linearGradient11923);stroke-width:3.65714931;stroke-linecap:round;stroke-linejoin:round;stroke-miterlimit:4;stroke-opacity:1;stroke-dasharray:none" d="m 106.73854,161.19985 c 0.64567,-3.8731 -3.1972,-6.81777 0.39089,-18.33808 3.35687,-10.77796 13.29633,-16.80041 24.1631,-9.31421 1.75457,1.20874 -1.46129,16.62814 -20.14464,7.92516" id="path3250"/>
    <path style="fill:#000000;fill-opacity:1;fill-rule:evenodd;stroke:#000000;stroke-width:3.65714598;stroke-linecap:round;stroke-linejoin:round;stroke-miterlimit:4;stroke-opacity:1;stroke-dasharray:none" d="m 120.99554,132.96919 c -2.53699,2.1557 -1.93534,4.76147 -0.67933,7.46107 1.12127,-2.01333 1.8561,-4.23124 0.67933,-7.46107 z" id="path3252"/>
    <path id="path3254" d="m 94.568836,152.52668 c -5.10249,-17.96854 -4.76166,-41.22186 4.11541,-41.09203 7.120264,0.10762 5.911934,28.5804 3.591884,42.8706 0,0 -4.774474,8.54942 -7.707294,-1.77857 z" style="fill:url(#linearGradient3256);fill-opacity:1.0;fill-rule:evenodd;stroke:none"/>
    <path style="fill:url(#linearGradient3260);fill-opacity:1.0;fill-rule:evenodd;stroke:none" d="m 140.84894,131.89868 c -3.74375,-2.80212 -8.6721,-4.41962 -10.52247,-9.1151 4.98717,0.616 8.01144,-0.47623 16.45492,7.91042 l -5.93245,1.20468 z" id="path3258"/>
    <path id="path3262" d="m 56.157616,133.1332 c 3.74373,-2.80211 8.6721,-4.41961 10.52246,-9.11509 -4.98717,0.616 -4.10123,-4.94505 -12.5447,3.4416 l 2.02224,5.67349 z" style="fill:url(#linearGradient3264);fill-opacity:1.0;fill-rule:evenodd;stroke:none"/>
    <path id="path4885" d="m 83.918156,98.087557 c 8.79869,-1.09303 17.888144,-1.89532 29.296864,-0.37832" style="fill:none;stroke:url(#linearGradient11973);stroke-width:3.65714288;stroke-linecap:round;stroke-linejoin:round;stroke-miterlimit:4;stroke-opacity:1;stroke-dasharray:none"/>
  </g>
</svg>