<?xml version="1.0" encoding="utf-8"?>
<svg viewBox="800 0 200 200" xmlns="http://www.w3.org/2000/svg" xmlns:xlink="http://www.w3.org/1999/xlink">
  <defs>
    <linearGradient id="linearGradient6373" gradientUnits="userSpaceOnUse" x1="412.63089" y1="830.20721" x2="545.04303" y2="675.33276" gradientTransform="matrix(0.21986469,0,0,0.21986469,800.9063,7.8557773)" xlink:href="#linearGradientBlackPieces"/>
    <linearGradient id="linearGradientBlackPieces">
      <stop id="stop2268" offset="0" style="stop-color:#000000;stop-opacity:1;"/>
      <stop id="stop2270" offset="1" style="stop-color:#505070;stop-opacity:1;"/>
    </linearGradient>
    <linearGradient id="linearGradient6369" gradientUnits="userSpaceOnUse" x1="539.62653" y1="160.31224" x2="387.86493" y2="602.17395" gradientTransform="matrix(0.21986469,0,0,0.21986469,800.9063,7.8557773)" xlink:href="#linearGradientBlackPiecesGrad"/>
    <linearGradient id="linearGradientBlackPiecesGrad">
      <stop style="stop-color:#64779c;stop-opacity:1;" offset="0" id="stop4686"/>
      <stop style="stop-color:#000000;stop-opacity:0;" offset="1" id="stop4688"/>
    </linearGradient>
    <linearGradient id="linearGradient13547" gradientUnits="userSpaceOnUse" gradientTransform="matrix(-0.0309968,0,0,0.0309968,975.89681,111.21621)" x1="3417.1067" y1="711.96979" x2="1424.2903" y2="-1470.3201" xlink:href="#linearGradientBlackPiecesShade"/>
    <linearGradient id="linearGradientBlackPiecesShade">
      <stop id="stop13366" offset="0" style="stop-color:#000000;stop-opacity:1;"/>
      <stop id="stop13368" offset="1" style="stop-color:#000000;stop-opacity:0;"/>
    </linearGradient>
    <linearGradient id="linearGradient13549" gradientUnits="userSpaceOnUse" gradientTransform="matrix(-0.0309968,0,0,0.0309968,987.53617,124.08866)" x1="3417.1067" y1="711.96979" x2="1424.2903" y2="-1470.3201" xlink:href="#linearGradientBlackPiecesShade"/>
    <linearGradient id="linearGradient6389" gradientUnits="userSpaceOnUse" gradientTransform="matrix(-0.02907017,-0.01075687,-0.01075687,0.02907017,1006.516,212.75035)" x1="585.86346" y1="-458.22153" x2="2624.375" y2="-647.81598" xlink:href="#linearGradientBlackPiecesShade"/>
    <linearGradient id="linearGradient13551" gradientUnits="userSpaceOnUse" gradientTransform="matrix(-0.0309968,0,0,0.0309968,996.3271,139.34542)" x1="3417.1067" y1="711.96979" x2="1424.2903" y2="-1470.3201" xlink:href="#linearGradientBlackPiecesShade"/>
    <linearGradient id="linearGradient13553" gradientUnits="userSpaceOnUse" gradientTransform="matrix(-0.02997691,-0.00788555,-0.00788555,0.02997691,994.9294,170.78482)" x1="3417.1067" y1="711.96979" x2="1424.2903" y2="-1470.3201" xlink:href="#linearGradientBlackPiecesShade"/>
    <linearGradient id="linearGradient13541" gradientUnits="userSpaceOnUse" gradientTransform="matrix(-0.02907017,-0.01075687,-0.01075687,0.02907017,995.91603,196.24434)" x1="3417.1067" y1="711.96979" x2="1424.2903" y2="-1470.3201" xlink:href="#linearGradientBlackPiecesShade"/>
    <linearGradient id="linearGradient13535" gradientUnits="userSpaceOnUse" gradientTransform="matrix(0.02802994,0,0,0.02802994,795.88936,152.86786)" x1="1647.1403" y1="-382.90863" x2="2633.2517" y2="-582.90863" xlink:href="#linearGradientBlackPiecesShade"/>
    <linearGradient id="linearGradient13533" gradientUnits="userSpaceOnUse" gradientTransform="matrix(0.02802994,0,0,0.02802994,795.20228,172.79307)" x1="1647.1403" y1="-382.90863" x2="2633.2517" y2="-582.90863" xlink:href="#linearGradientBlackPiecesShade"/>
    <linearGradient id="linearGradient13539" gradientUnits="userSpaceOnUse" gradientTransform="matrix(0.02802994,0,0,0.02802994,829.55612,158.12635)" x1="1647.1403" y1="-382.90863" x2="2633.2517" y2="-582.90863" xlink:href="#linearGradientBlackPiecesShade"/>
    <linearGradient id="linearGradient13537" gradientUnits="userSpaceOnUse" gradientTransform="matrix(0.02802994,0,0,0.02802994,832.30444,175.99035)" x1="1647.1403" y1="-382.90863" x2="2633.2517" y2="-582.90863" xlink:href="#linearGradientBlackPiecesShade"/>
    <linearGradient id="linearGradient6342" gradientUnits="userSpaceOnUse" gradientTransform="matrix(0.02802994,0,0,0.02802994,901.01212,116.90176)" x1="1290.3789" y1="-26.147289" x2="2633.2517" y2="-582.90863" xlink:href="#linearGradientBlackPiecesShade"/>
    <linearGradient id="linearGradient13543" gradientUnits="userSpaceOnUse" gradientTransform="matrix(0.02802994,0,0,0.02802994,896.88966,95.602377)" x1="1647.1403" y1="-382.90863" x2="2633.2517" y2="-582.90863" xlink:href="#linearGradientBlackPiecesShade"/>
    <linearGradient id="linearGradient13545" gradientUnits="userSpaceOnUse" gradientTransform="matrix(0.02802994,0,0,0.02802994,888.64474,79.112527)" x1="1647.1403" y1="-382.90863" x2="2633.2517" y2="-582.90863" xlink:href="#linearGradientBlackPiecesShade"/>
    <linearGradient id="linearGradient12073" x1="867.32007" y1="180.88002" x2="917.56512" y2="180.88002" gradientUnits="userSpaceOnUse" xlink:href="#linearGradientBlackPiecesBorder"/>
    <linearGradient id="linearGradientBlackPiecesBorder">
      <stop style="stop-color:#181818;stop-opacity:1;" offset="0" id="stop7192"/>
      <stop style="stop-color:#181818;stop-opacity:1;" offset="1" id="stop7194"/>
    </linearGradient>
    <linearGradient id="linearGradient12057" x1="839.53564" y1="136.44556" x2="970.9306" y2="136.44556" gradientUnits="userSpaceOnUse" xlink:href="#linearGradientBlackPiecesBorder"/>
    <linearGradient id="linearGradient12059" x1="887.95624" y1="104.16133" x2="971.50403" y2="104.16133" gradientUnits="userSpaceOnUse" xlink:href="#linearGradientBlackPiecesBorder"/>
    <linearGradient id="linearGradient3296-7" gradientUnits="userSpaceOnUse" x1="472.81" y1="747.08655" x2="472.81" y2="566.33026" gradientTransform="matrix(0.11323927,0.01150279,-0.01150279,0.11323927,812.69135,-12.232343)" xlink:href="#linearGradientBlackPieces"/>
    <linearGradient id="linearGradient3290-2" x1="466.62888" y1="160.41989" x2="466.62888" y2="546.33032" gradientUnits="userSpaceOnUse" gradientTransform="matrix(0.11323927,0.01150279,-0.01150279,0.11323927,812.69135,-12.232343)" xlink:href="#linearGradientBlackPiecesGrad"/>
    <linearGradient id="linearGradient12061" x1="826.01733" y1="50.731064" x2="899.16779" y2="50.731064" gradientUnits="userSpaceOnUse" xlink:href="#linearGradientBlackPiecesBorder"/>
    <linearGradient id="linearGradient3278-3" gradientUnits="userSpaceOnUse" x1="337.50623" y1="472.64157" x2="352.78772" y2="578.18219" gradientTransform="matrix(-0.11323947,-0.01150281,-0.01150281,0.11323947,918.36362,-1.3075627)" xlink:href="#linearGradientBlackPiecesEye"/>
    <linearGradient id="linearGradientBlackPiecesEye">
      <stop style="stop-color:#a7cc52;stop-opacity:1;" offset="0" id="stop4698"/>
      <stop style="stop-color:#afc14d;stop-opacity:0.27083334;" offset="1" id="stop4700"/>
    </linearGradient>
    <linearGradient id="linearGradient3274-6" x1="337.50623" y1="472.64157" x2="352.78772" y2="578.18219" gradientUnits="userSpaceOnUse" gradientTransform="matrix(0.11323947,0.01150281,-0.01150281,0.11323947,812.69135,-12.232373)" xlink:href="#linearGradientBlackPiecesEye"/>
    <linearGradient id="linearGradient12049" x1="848.30438" y1="69.939278" x2="863.3714" y2="69.939278" gradientUnits="userSpaceOnUse" xlink:href="#linearGradientBlackPiecesBorder"/>
    <linearGradient id="linearGradient12047" x1="826.35754" y1="66.820374" x2="851.72418" y2="66.820374" gradientUnits="userSpaceOnUse" xlink:href="#linearGradientBlackPiecesBorder"/>
    <linearGradient id="linearGradient12045" x1="820.07001" y1="68.79509" x2="845.8609" y2="68.79509" gradientUnits="userSpaceOnUse" xlink:href="#linearGradientBlackPiecesBorder"/>
    <linearGradient id="linearGradient12043" x1="823.98163" y1="72.174011" x2="850.12543" y2="72.174011" gradientUnits="userSpaceOnUse" xlink:href="#linearGradientBlackPiecesBorder"/>
    <linearGradient id="linearGradient12041" x1="840.2962" y1="76.257553" x2="870.79498" y2="76.257553" gradientUnits="userSpaceOnUse" xlink:href="#linearGradientBlackPiecesBorder"/>
    <linearGradient id="linearGradient12065" x1="836.14453" y1="56.011978" x2="854.48431" y2="56.011978" gradientUnits="userSpaceOnUse" xlink:href="#linearGradientBlackPiecesBorder"/>
    <linearGradient id="linearGradient2313-0" x1="2087.1404" y1="-485" x2="2033.2518" y2="-862.51611" gradientUnits="userSpaceOnUse" gradientTransform="matrix(0.02744902,0.00278826,-0.00278826,0.02744902,789.22112,51.036077)" xlink:href="#linearGradientBlackPiecesShade"/>
    <linearGradient id="linearGradient2311-8" x1="2394.7349" y1="-485" x2="2394.7349" y2="-938.33337" gradientUnits="userSpaceOnUse" gradientTransform="matrix(0.02744902,0.00278826,-0.00278826,0.02744902,786.20281,52.164897)" xlink:href="#linearGradientBlackPiecesShade"/>
    <linearGradient id="linearGradient2317-7" gradientUnits="userSpaceOnUse" gradientTransform="matrix(0.00545415,-0.0270457,0.0270457,0.00545415,835.70992,116.99012)" x1="2470.0815" y1="-364.98831" x2="2309.7107" y2="-733.76135" xlink:href="#linearGradientBlackPiecesShade"/>
    <linearGradient id="linearGradient2323-1" gradientUnits="userSpaceOnUse" x1="2234.7434" y1="-614.40747" x2="1987.2833" y2="-832.36462" gradientTransform="matrix(0.0038865,-0.02731496,0.02731496,0.0038865,855.3803,119.91616)" xlink:href="#linearGradientBlackPiecesShade"/>
    <linearGradient id="linearGradient2335-9" gradientUnits="userSpaceOnUse" gradientTransform="matrix(-0.02744902,-0.00278826,-0.00278826,0.02744902,931.3084,66.822837)" x1="2394.7349" y1="-485" x2="2394.7349" y2="-938.33337" xlink:href="#linearGradientBlackPiecesShade"/>
    <linearGradient id="linearGradient2337-1" gradientUnits="userSpaceOnUse" gradientTransform="matrix(9.5723291e-5,-0.02759001,-0.02759001,-9.5723291e-5,869.84513,120.71886)" x1="2437.9685" y1="-388.63342" x2="2293.6538" y2="-745.58392" xlink:href="#linearGradientBlackPiecesShade"/>
    <linearGradient id="linearGradient2339-2" gradientUnits="userSpaceOnUse" gradientTransform="matrix(0.00168549,-0.02753854,-0.02753854,-0.00168549,849.70314,119.86236)" x1="2234.7434" y1="-614.40747" x2="1987.2833" y2="-832.36462" xlink:href="#linearGradientBlackPiecesShade"/>
    <linearGradient id="linearGradient12039" x1="825.69019" y1="78.98587" x2="848.36615" y2="78.98587" gradientUnits="userSpaceOnUse" xlink:href="#linearGradientBlackPiecesBorder"/>
    <linearGradient id="linearGradient12037" x1="821.54883" y1="76.327179" x2="846.18427" y2="76.327179" gradientUnits="userSpaceOnUse" xlink:href="#linearGradientBlackPiecesBorder"/>
    <linearGradient id="linearGradient12035" x1="862.30762" y1="69.768745" x2="888.10181" y2="69.768745" gradientUnits="userSpaceOnUse" xlink:href="#linearGradientBlackPiecesBorder"/>
    <linearGradient id="linearGradient12033" x1="867.97302" y1="73.766945" x2="893.38757" y2="73.766945" gradientUnits="userSpaceOnUse" xlink:href="#linearGradientBlackPiecesBorder"/>
    <linearGradient id="linearGradient12031" x1="863.45459" y1="75.926178" x2="888.67487" y2="75.926178" gradientUnits="userSpaceOnUse" xlink:href="#linearGradientBlackPiecesBorder"/>
    <linearGradient id="linearGradient12029" x1="864.74054" y1="82.554146" x2="884.71942" y2="82.554146" gradientUnits="userSpaceOnUse" xlink:href="#linearGradientBlackPiecesBorder"/>
    <linearGradient id="linearGradient12027" x1="866.9798" y1="80.585518" x2="889.74353" y2="80.585518" gradientUnits="userSpaceOnUse" xlink:href="#linearGradientBlackPiecesBorder"/>
    <linearGradient id="linearGradient2363-2" gradientUnits="userSpaceOnUse" x1="1647.1403" y1="-382.90863" x2="2633.2517" y2="-582.90863" gradientTransform="matrix(0.02482174,0.00252138,-0.00252138,0.02482174,782.44297,36.286387)" xlink:href="#linearGradientBlackPiecesShade"/>
    <linearGradient id="linearGradient2367-4" gradientUnits="userSpaceOnUse" gradientTransform="matrix(-0.02482174,-0.00252138,-0.00252138,0.02482174,940.25813,51.935807)" x1="1647.1403" y1="-382.90863" x2="2633.2517" y2="-582.90863" xlink:href="#linearGradientBlackPiecesShade"/>
    <linearGradient id="linearGradient12063" x1="860.71814" y1="57.805115" x2="882.55402" y2="57.805115" gradientUnits="userSpaceOnUse" xlink:href="#linearGradientBlackPiecesBorder"/>
    <linearGradient id="linearGradient3256-7" gradientUnits="userSpaceOnUse" gradientTransform="matrix(0.02754304,-0.00161011,-0.00161011,-0.02754304,793.85997,31.510637)" x1="2653.51" y1="1167.8967" x2="2228.9055" y2="-1469.516" xlink:href="#linearGradientBlackPiecesShade"/>
    <linearGradient id="linearGradient3260-5" gradientUnits="userSpaceOnUse" gradientTransform="matrix(9.5723291e-5,-0.02759001,-0.02759001,-9.5723291e-5,869.21974,110.94757)" x1="2437.9685" y1="-388.63342" x2="2293.6538" y2="-745.58392" xlink:href="#linearGradientBlackPiecesShade"/>
    <linearGradient id="linearGradient3264-9" gradientUnits="userSpaceOnUse" gradientTransform="matrix(0.00545415,-0.0270457,0.0270457,0.00545415,838.71277,108.666)" x1="2470.0815" y1="-364.98831" x2="2309.7107" y2="-733.76135" xlink:href="#linearGradientBlackPiecesShade"/>
  </defs>
  <g id="BlackKnight">
    <rect y="0" x="800" height="200" width="200" id="rect6707-7" style="fill:none;stroke:none"/>
    <path id="path6371" d="m 944.8643,47.064287 c -4.63777,2.7483 -7.74595,9.22953 1.01428,26.75 7.21799,14.43597 7.53592,25.81459 7,35.021423 -9.71632,-18.214233 -11.9886,-16.313653 -25.77143,-31.257143 -8.61163,-9.33682 -26.82606,-17.5719 -34.62933,-21.27284 -14.74431,5.42428 -40.09131,30.63037 -49.89924,27.12998 0,0 -3.76905,8.24282 -1.36428,22.671433 2.40476,14.42862 4.35305,11.06151 6.41428,30.47143 2.06123,19.40992 0.85443,16.78806 -1.37857,30.01429 -2.233,13.22623 -2.42515,17.15072 10.30714,15.12143 14.17209,-2.25878 10.70681,-19.44269 9.62143,-28.65 -3.93017,-33.33976 13.99452,-42.85261 17.63572,0.69285 0.27699,5.96266 -1.35057,11.89954 -3.06072,17.85358 l -5.55714,3.24285 -5.7,7.21786 -0.22143,7.39643 6.23214,3.34285 15.08572,-7.26071 c 6.6036,0.79289 9.40082,-1.44699 10.74285,-5.62143 L 916.29287,171.4 c 0.90439,0.41414 7.81974,3.57285 8.98571,3.74286 8.61109,1.25553 -20.30944,4.96575 -21.06428,15.32857 -0.67412,9.25452 20.85772,1.68065 37.72142,-4.68572 12.32673,-3.08722 40.28463,-15.11896 18.9,-22.28571 6.06314,-13.82423 1.7723,-25.20943 3.07858,-33.52857 1.02295,-6.5148 7.59653,-11.01426 6.77142,-20.50714 C 967.76565,79.919977 960.04497,62.82392 958.384,59.73926 954.56137,55.11741 951.59254,43.188627 944.8643,47.064287 z" style="fill:url(#linearGradient6373);fill-opacity:1;fill-rule:evenodd;stroke:none"/>
    <path style="fill:url(#linearGradient6369);fill-opacity:1.0;fill-rule:evenodd;stroke:none" d="m 842.77161,81.413927 c 0,0 -3.05092,10.26522 -0.64615,24.693843 2.40477,14.42861 3.44083,12.431 5.50206,31.84092 2.06124,19.40992 0.85885,15.87728 -1.37415,29.10351 -2.233,13.22623 -2.43901,17.06254 10.30615,15.11569 14.34209,-2.19077 12.25003,-17.64658 9.61908,-27.72936 -7.5641,-28.98841 12.25451,-47.13358 18.55107,0.68708 1.23938,9.41268 -8.22179,27.15894 1.37416,29.55793 17.864,4.466 15.11569,-4.99493 17.17692,-19.93885 3.77032,-15.81532 4.87547,-6.55259 8.52875,3.35283 2.87155,7.78585 16.83649,4.00136 29.59486,5.49617 -11.46796,2.82894 -35.11422,6.17494 -35.86907,16.53776 0.0835,11.7799 21.30783,0.96313 38.17153,-3.26037 37.58054,-17.22936 22.23986,-20.3798 16.94679,-23.61273 7.90162,-16.02432 -0.78537,-23.88848 3.65757,-32.51996 4.92491,-9.56785 7.26391,-18.88217 6.27622,-30.24568 -2.92008,-29.544313 -9.76252,-33.907223 -11.42349,-36.991883 -3.736,-4.63764 -7.54112,-19.69574 -14.13068,-15.8992 -4.63777,2.74831 -7.91394,8.69306 0.84628,26.21353 7.21799,14.43597 7.53744,25.45585 7.00152,34.662683 -8.46632,-18.392803 -10.46967,-12.609893 -24.2525,-27.553383 -16.31808,-17.69223 -40.18289,-21.40774 -36.14228,-23.17551" id="path6367"/>
    <path style="fill:url(#linearGradient13547);fill-opacity:1;fill-rule:evenodd;stroke:none" d="m 918.14639,75.925867 c -22.12676,28.630873 -24.08243,20.42612 -28.02241,9.97772 7.68307,-9.18108 23.66362,-11.37164 18.02718,-16.51249 z" id="path2325-2"/>
    <path id="path6308" d="m 932.8572,89.184047 c 3.23671,2.16096 -9.62489,15.046883 -23.48375,16.440143 -2.69739,-11.507763 -9.77254,4.42878 14.68137,-23.910633 z" style="fill:url(#linearGradient13549);fill-opacity:1;fill-rule:evenodd;stroke:none"/>
    <path id="path6387" d="m 971.48207,101.76269 c 2.0798,0.24349 -7.28533,17.28995 -8.2813,32.95919 -0.77634,12.21393 7.40865,12.97676 -3.15317,27.61465 32.80654,13.82897 -53.37596,36.11021 -49.17959,29.31131 21.09579,-23.24283 21.98268,-97.877073 60.61406,-89.88515 z" style="fill:url(#linearGradient6389);fill-opacity:1.0;fill-rule:evenodd;stroke:none"/>
    <path style="fill:url(#linearGradient13551);fill-opacity:1;fill-rule:evenodd;stroke:none" d="m 943.42876,102.94778 c -2.96316,4.74031 -20.07863,22.4737 -25.58576,14.48225 1.20153,-15.86008 6.43192,-1.00072 19.66418,-22.227713 z" id="path6312"/>
    <path id="path6316" d="m 953.11288,122.11592 c -4.27441,2.19379 -21.39275,15.77653 -23.1041,9.49566 -2.09424,-12.49871 21.25374,-13.41164 17.73079,-19.18166 z" style="fill:url(#linearGradient13553);fill-opacity:1;fill-rule:evenodd;stroke:none"/>
    <path style="fill:url(#linearGradient13541);fill-opacity:1;fill-rule:evenodd;stroke:none" d="m 959.26554,140.61074 c -8.00263,-1.00921 -15.08204,5.64775 -18.19622,1.75585 -0.87167,-12.64293 16.95083,-6.13467 14.00434,-12.21928 z" id="path6320"/>
    <path id="path6324" d="m 851.89165,134.59957 c 0.61732,2.52814 0.3533,4.81186 1.92608,13.64335 1.60023,-4.23563 5.16124,0.1194 8.19541,-13.04822 -8.05119,-3.90382 -7.09086,-3.62569 -10.12149,-0.59513 z" style="fill:url(#linearGradient13535);fill-opacity:1;fill-rule:evenodd;stroke:none"/>
    <path style="fill:url(#linearGradient13533);fill-opacity:1;fill-rule:evenodd;stroke:none" d="m 851.20457,154.5248 c 0.61732,2.52814 0.3533,0.002 1.92608,8.83381 1.60024,-4.23562 6.67144,4.5718 9.70561,-8.59583 -8.05118,-3.90382 -8.60106,-3.26854 -11.63169,-0.23798 z" id="path6328"/>
    <path style="fill:url(#linearGradient13539);fill-opacity:1;fill-rule:evenodd;stroke:none" d="m 887.34413,139.85808 c 0.61732,2.52814 -0.004,1.95471 1.56894,10.7862 1.60023,-4.23562 7.30409,2.6194 10.33827,-10.54822 -8.05119,-3.90382 -8.87658,-3.26854 -11.90721,-0.23798 z" id="path6332"/>
    <path id="path6336" d="m 888.30672,157.72208 c 0.61732,2.52814 -1.07527,-2.14055 0.49751,6.69095 1.60024,-4.23563 8.10001,6.71465 11.13418,-6.45297 -8.05118,-3.90382 -8.60106,-3.26854 -11.63169,-0.23798 z" style="fill:url(#linearGradient13537);fill-opacity:1;fill-rule:evenodd;stroke:none"/>
    <path id="path6340" d="m 957.01441,98.633467 c 0.61732,2.528143 -0.36099,0.52613 1.21179,9.357633 1.60024,-4.23563 6.16396,2.02767 9.19813,-11.139953 -8.05118,-3.90382 -7.37929,-1.24824 -10.40992,1.78232 z" style="fill:url(#linearGradient6342);fill-opacity:1.0;fill-rule:evenodd;stroke:none"/>
    <path style="fill:url(#linearGradient13543);fill-opacity:1;fill-rule:evenodd;stroke:none" d="m 952.89195,77.334077 c 0.61732,2.52814 0.3533,0.002 1.92608,8.83381 1.60023,-4.23562 6.67143,4.5718 9.70561,-8.59582 -8.05119,-3.90382 -8.60106,-3.26855 -11.63169,-0.23799 z" id="path6344"/>
    <path id="path6348" d="m 944.64703,60.844237 c 0.61732,2.52814 0.3533,0.002 1.92608,8.83381 1.60023,-4.23563 6.67143,4.57179 9.7056,-8.59583 -8.05118,-3.90382 -8.60105,-3.26854 -11.63168,-0.23798 z" style="fill:url(#linearGradient13545);fill-opacity:1;fill-rule:evenodd;stroke:none"/>
    <path id="path6319" d="m 912.32144,169.91071 c 0,0 5.21006,1.2788 2.8027,3.01643 -2.11289,1.52508 -10.10558,4.26189 -13.359,6.37506 m -12.08237,6.492 c -4.89339,2.44329 -8.12948,5.29505 -12.2399,5.87009 -2.47449,0.34617 -5.83373,0.40025 -7.32143,-1.60715 -1.79329,-2.41973 -0.92442,-6.30088 0.71428,-9.00714 2.3496,-3.88027 3.80908,-6.13158 10.95,-9.3" style="fill:none;stroke:url(#linearGradient12073);stroke-width:3.6114285;stroke-linecap:round;stroke-linejoin:round;stroke-miterlimit:4;stroke-opacity:1;stroke-dasharray:none"/>
    <path id="path6306" d="m 843.78178,76.628607 c 0,0 -4.06108,17.3363 -1.6563,31.764923 2.40476,14.42862 3.44083,13.34529 5.50206,32.75522 2.06123,19.40993 1.31599,10.39158 -0.91701,23.61781 -2.233,13.22624 -2.42614,17.145 10.30616,15.1157 14.17209,-2.25878 12.4804,-19.5297 9.16193,-28.18652 -7.54184,-19.67425 10.28828,-48.20503 17.17966,0.68708 1.32508,9.40101 -7.30752,29.44467 2.28844,31.84366 17.86401,4.466 17.4622,-7.14187 17.17693,-22.22458 -0.39065,-20.65424 -4.95868,-28.8039 -3.46855,-38.52929 m 55.03371,38.86653 c 3.38814,0.22806 14.80761,3.17619 14.71265,8.09958 -4.15865,8.59636 -15.43745,11.94124 -27.16235,16.01036 -11.7249,4.06911 -37.19301,16.46873 -37.02396,5.1939 0.14953,-9.97332 11.02771,-11.06323 35.2637,-18.46211 -18.17599,5.60929 -33.51582,-8.5481 -25.9567,-23.03129" style="fill:none;stroke:url(#linearGradient12057);stroke-width:3.65714288;stroke-linecap:round;stroke-linejoin:round;stroke-miterlimit:4;stroke-opacity:1;stroke-dasharray:none"/>
    <path id="path5431" d="m 889.78481,55.571997 c 0,0 21.31596,7.67645 37.926,25.09488 7.47925,7.84325 17.13815,12.03748 30.53615,40.551183 4.79198,10.19832 4.8271,14.3306 6.41872,20.12968 2.85844,10.4147 -3.46661,20.12414 -3.46661,20.12414 m 1.77974,-26.38001 c -1.6159,-6.79699 5.45957,-12.56949 6.33309,-23.73998 2.31455,-29.597913 -7.11553,-42.480663 -8.7765,-45.565323 -4.80954,-8.93201 -11.17863,-21.29394 -15.8164,-18.54563 -4.41176,2.61437 -2.11599,22.921 2.19432,28.63799 4.31032,5.71699 7.56162,32.668263 4.7875,33.064803" style="fill:none;stroke:url(#linearGradient12059);stroke-width:3.65714407;stroke-linecap:round;stroke-linejoin:round;stroke-miterlimit:4;stroke-opacity:1;stroke-dasharray:none"/>
    <path id="path3294-6" d="m 851.4547,28.404527 c -7.18404,-3.98844 -6.78547,-11.04205 -19.79274,-15.13486 -4.49454,-1.41424 -0.021,11.5207 -0.27768,22.06285 -0.25676,10.54355 -6.41299,19.16778 -2.36431,28.08662 5.38042,11.85253 10.06203,13.43439 14.05786,17.97651 7.27782,8.27279 17.81272,8.74898 24.76689,3.35259 5.88326,-4.56536 13.67891,-6.35432 20.72957,-17.11488 5.64147,-8.6099 3.50795,-15.71145 5.10078,-25.32219 1.85804,-11.21096 6.53686,-23.55437 1.82831,-23.26529 -14.40075,0.88414 -16.33142,11.4608 -22.78465,12.67658 -6.87547,1.29534 -15.35763,-0.0388 -21.26403,-3.31793 z" style="fill:url(#linearGradient3296-7);fill-opacity:1;fill-rule:evenodd;stroke:none"/>
    <path style="fill:url(#linearGradient3290-2);fill-opacity:1.0;fill-rule:evenodd;stroke:url(#linearGradient12061);stroke-width:3.25523066999999999;stroke-linecap:round;stroke-linejoin:round;stroke-miterlimit:4;stroke-opacity:1;stroke-dasharray:none" d="m 851.4547,28.404527 c -7.18404,-3.98844 -6.78547,-11.04205 -19.79274,-15.13486 -4.49454,-1.41424 -0.021,11.5207 -0.27768,22.06285 -0.25676,10.54355 -6.41299,19.16778 -2.36431,28.08662 5.38042,11.85253 10.06203,13.43439 14.05786,17.97651 7.27782,8.27279 17.81272,8.74898 24.76689,3.35259 5.88326,-4.56536 13.67891,-6.35432 20.72957,-17.11488 5.64147,-8.6099 3.50795,-15.71145 5.10078,-25.32219 1.85804,-11.21096 6.53686,-23.55437 1.82831,-23.26529 -14.40075,0.88414 -16.33142,11.4608 -22.78465,12.67658 -6.87547,1.29534 -15.35763,-0.0388 -21.26403,-3.31793 z" id="path3280-74"/>
    <path id="path3276-3" d="m 866.6027,54.597977 c 2.91665,-6.83809 9.24192,-8.35541 14.91754,-3.07301 1.41432,1.31633 -3.24288,10.74764 -14.91754,3.07301 z" style="fill:url(#linearGradient3278-3);fill-opacity:1.0;fill-rule:evenodd;stroke:none"/>
    <path style="fill:url(#linearGradient3274-6);fill-opacity:1.0;fill-rule:evenodd;stroke:none" d="m 852.15324,52.939527 c -1.48205,-7.28491 -7.37301,-10.04315 -13.9949,-6.00992 -1.65013,1.00504 1.01546,11.1802 13.9949,6.00992 z" id="path3266-1"/>
    <path style="fill:#c1856e;fill-opacity:1;fill-rule:evenodd;stroke:url(#linearGradient12049);stroke-width:3.25523067;stroke-linecap:round;stroke-linejoin:round;stroke-miterlimit:4;stroke-opacity:1;stroke-dasharray:none" d="m 849.93198,67.430777 c 0.1785,1.46912 2.90617,3.08235 4.1331,2.54864 0.20188,3.52892 0.92649,2.00009 1.5,1.96787 0.50803,-0.0285 1.08281,2.03698 1.51976,-1.64595 1.24617,0.33519 4.16866,0.15203 4.55813,-1.69304 l 0.10079,-0.0822 c -3.63704,-0.83626 -8.80753,-1.30931 -11.81178,-1.09532 z" id="path2267-67"/>
    <path id="path2281-58" d="m 850.09656,69.006477 c -7.35309,-3.10086 -14.72999,-3.95002 -22.11141,-4.37221" style="fill:none;stroke:url(#linearGradient12047);stroke-width:3.25523067;stroke-linecap:round;stroke-linejoin:round;stroke-miterlimit:4;stroke-opacity:1;stroke-dasharray:none"/>
    <path style="fill:none;stroke:url(#linearGradient12045);stroke-width:3.25523162;stroke-linecap:round;stroke-linejoin:round;stroke-miterlimit:4;stroke-opacity:1;stroke-dasharray:none" d="m 844.23328,69.394877 c -7.78366,-1.76013 -15.19497,-1.29939 -22.53567,-0.41755" id="path2283-3"/>
    <path id="path2285-81" d="m 848.49778,71.091117 c -7.97328,-0.33222 -15.82597,0.0805 -22.88856,2.26753" style="fill:none;stroke:url(#linearGradient12043);stroke-width:3.25523067;stroke-linecap:round;stroke-linejoin:round;stroke-miterlimit:4;stroke-opacity:1;stroke-dasharray:none"/>
    <path style="fill:none;stroke:url(#linearGradient12041);stroke-width:3.25523067;stroke-linecap:round;stroke-linejoin:round;stroke-miterlimit:4;stroke-opacity:1;stroke-dasharray:none" d="m 869.16734,79.240487 c -7.03031,1.76945 -13.69045,-2.14631 -12.66151,-5.11373 0.65512,-1.88935 -1.05761,-1.5299 -0.77173,-0.0797 0.50245,2.54879 -9.20663,5.40132 -13.81028,2.36707" id="path2289-1"/>
    <path id="path2291-6" d="m 850.57675,66.681047 c -0.16527,-2.58056 3.46277,-4.2541 1.87863,-12.04078 -1.48205,-7.28492 -6.6791,-11.89222 -14.29702,-7.71062 -1.23001,0.67517 -0.14925,10.99169 12.67094,6.5331" style="fill:none;stroke:url(#linearGradient12065);stroke-width:3.25523067;stroke-linecap:round;stroke-linejoin:round;stroke-miterlimit:4;stroke-opacity:1;stroke-dasharray:none"/>
    <path id="path2293-4" d="m 843.98713,47.642947 c 1.51872,1.58122 0.95111,3.24843 -0.0515,4.93357 -0.60065,-1.39372 -0.93448,-2.89576 0.0515,-4.93357 z" style="fill:#000000;fill-opacity:1;fill-rule:evenodd;stroke:#000000;stroke-width:3.25522757;stroke-linecap:round;stroke-linejoin:round;stroke-miterlimit:4;stroke-opacity:1;stroke-dasharray:none"/>
    <path id="path2299-92" d="m 842.53212,36.091817 c 2.87776,3.16337 2.85495,3.63847 4.76908,7.39393 1.98841,-3.98866 3.11345,-8.06502 7.85176,-11.77434 l -12.62084,4.38041 z" style="fill:url(#linearGradient2313-0);fill-opacity:1.0;fill-rule:evenodd;stroke:none"/>
    <path id="path2303-7" d="m 853.19677,33.558107 1.01473,13.17614 1.59947,-13.17205 -2.6142,-0.004 z" style="fill:url(#linearGradient2311-8);fill-opacity:1.0;fill-rule:evenodd;stroke:none"/>
    <path style="fill:url(#linearGradient2317-7);fill-opacity:1.0;fill-rule:evenodd;stroke:none" d="m 829.4426,54.047837 c 2.63931,-1.58674 5.97593,-2.31849 7.50074,-5.27174 -3.30849,0.0717 -2.35793,-3.51285 -8.44809,1.41999 l 0.94735,3.85175 z" id="path2315-6"/>
    <path style="fill:url(#linearGradient2323-1);fill-opacity:1.0;fill-rule:evenodd;stroke:none" d="m 843.83091,64.083697 c 3.27619,-2.74863 2.50453,-0.74162 6.33371,-2.50363 -3.90573,-2.14672 -5.8108,-3.74158 -13.49821,-6.1724 -4.89123,3.34366 2.16549,4.9894 7.1645,8.67603 z" id="path2321-5"/>
    <path style="fill:url(#linearGradient2335-9);fill-opacity:1.0;fill-rule:evenodd;stroke:none" d="m 869.4244,35.124667 -3.64352,12.70296 1.08189,-13.22463 2.56163,0.52167 z" id="path2327-1"/>
    <path id="path2329-5" d="m 888.64114,60.322657 c -2.26634,-2.08505 -5.38766,-3.4728 -6.28749,-6.67234 3.2265,0.7355 5.28064,0.22117 10.25449,6.27789 l -3.967,0.39445 z" style="fill:url(#linearGradient2337-1);fill-opacity:1.0;fill-rule:evenodd;stroke:none"/>
    <path id="path2331-40" d="m 872.24358,67.492767 c -2.65656,-3.35127 -2.30424,-1.23009 -5.7009,-3.7261 4.25763,-1.31749 6.44448,-2.4967 14.46366,-3.33205 4.11898,4.25891 -3.12454,4.45204 -8.76276,7.05815 z" style="fill:url(#linearGradient2339-2);fill-opacity:1.0;fill-rule:evenodd;stroke:none"/>
    <path id="path2341-2" d="m 846.73852,73.266007 c -7.55356,2.57432 -13.62742,6.8461 -19.42069,11.43972" style="fill:none;stroke:url(#linearGradient12039);stroke-width:3.25523162;stroke-linecap:round;stroke-linejoin:round;stroke-miterlimit:4;stroke-opacity:1;stroke-dasharray:none"/>
    <path id="path2343-4" d="m 844.55662,72.759257 c -7.92444,0.94163 -14.75593,3.85208 -21.38015,7.13585" style="fill:none;stroke:url(#linearGradient12037);stroke-width:3.25523162;stroke-linecap:round;stroke-linejoin:round;stroke-miterlimit:4;stroke-opacity:1;stroke-dasharray:none"/>
    <path style="fill:none;stroke:url(#linearGradient12035);stroke-width:3.25523067;stroke-linecap:round;stroke-linejoin:round;stroke-miterlimit:4;stroke-opacity:1;stroke-dasharray:none" d="m 863.93524,70.150737 c 7.82644,-1.55893 15.22341,-0.90736 22.53895,0.16336" id="path2345-7"/>
    <path id="path2347-42" d="m 869.60066,71.710217 c 7.9786,-0.159 15.14588,1.78262 22.15931,4.12257" style="fill:none;stroke:url(#linearGradient12033);stroke-width:3.25523162;stroke-linecap:round;stroke-linejoin:round;stroke-miterlimit:4;stroke-opacity:1;stroke-dasharray:none"/>
    <path style="fill:none;stroke:url(#linearGradient12031);stroke-width:3.25523067;stroke-linecap:round;stroke-linejoin:round;stroke-miterlimit:4;stroke-opacity:1;stroke-dasharray:none" d="m 865.08218,72.514307 c 7.87721,1.27785 15.48652,3.26116 21.96507,6.82374" id="path2349-6"/>
    <path style="fill:none;stroke:url(#linearGradient12029);stroke-width:3.25523162;stroke-linecap:round;stroke-linejoin:round;stroke-miterlimit:4;stroke-opacity:1;stroke-dasharray:none" d="m 866.36816,74.998507 c 6.88162,4.04065 11.97241,9.44651 16.72365,15.11127" id="path2351-3"/>
    <path style="fill:none;stroke:url(#linearGradient12027);stroke-width:3.25523162;stroke-linecap:round;stroke-linejoin:round;stroke-miterlimit:4;stroke-opacity:1;stroke-dasharray:none" d="m 868.60741,74.940857 c 7.57322,2.51587 13.67991,6.74058 19.50852,11.28932" id="path2353-9"/>
    <path style="fill:url(#linearGradient2363-2);fill-opacity:1.0;fill-rule:evenodd;stroke:none" d="m 832.04844,16.989717 c 0.31924,2.29431 1.5103,12.44978 2.10864,20.41193 1.79809,-3.60688 8.73381,-3.01381 13.01859,-6.3681 -7.49135,-15.3185 -12.4799,-13.41272 -15.12723,-14.04383 z" id="path2361-0"/>
    <path id="path2365-6" d="m 895.32826,21.903817 c -0.77408,2.18325 -2.66727,13.1579 -4.85446,20.8371 -1.03607,-3.89478 -9.04733,-4.82002 -12.57009,-8.96739 10.41863,-13.49922 13.94944,-11.86052 17.42455,-11.86971 z" style="fill:url(#linearGradient2367-4);fill-opacity:1.0;fill-rule:evenodd;stroke:none"/>
    <path style="fill:none;stroke:url(#linearGradient12063);stroke-width:3.25523067;stroke-linecap:round;stroke-linejoin:round;stroke-miterlimit:4;stroke-opacity:1;stroke-dasharray:none" d="m 862.34575,67.478727 c 0.6808,-2.4946 -1.18386,-4.67964 1.9337,-11.98874 2.91666,-6.8381 9.82962,-10.12239 16.45109,-4.49436 1.06912,0.90872 -2.06406,10.79719 -13.72583,3.85173" id="path3250-3"/>
    <path style="fill:#000000;fill-opacity:1;fill-rule:evenodd;stroke:#000000;stroke-width:3.25522757;stroke-linecap:round;stroke-linejoin:round;stroke-miterlimit:4;stroke-opacity:1;stroke-dasharray:none" d="m 873.5655,49.931397 c -1.80566,1.24353 -1.58489,2.99082 -0.94164,4.84314 0.86863,-1.24447 1.49768,-2.6487 0.94164,-4.84314 z" id="path3252-9"/>
    <path id="path3254-68" d="m 856.32105,60.986297 c -2.1472,-12.11222 -0.37631,-27.32467 5.43114,-26.64881 4.65789,0.54439 1.97127,19.11878 -0.49984,28.32705 0,0 -3.69713,5.28365 -4.9313,-1.67824 z" style="fill:url(#linearGradient3256-7);fill-opacity:1.0;fill-rule:evenodd;stroke:none"/>
    <path style="fill:url(#linearGradient3260-5);fill-opacity:1.0;fill-rule:evenodd;stroke:none" d="m 888.01574,50.551307 c -2.26634,-2.08505 -5.38766,-3.4728 -6.28749,-6.67234 3.2265,0.73551 5.28064,0.22118 10.25449,6.27789 l -3.967,0.39445 z" id="path3258-7"/>
    <path id="path3262-9" d="m 832.44545,45.723687 c 2.63931,-1.58673 5.97594,-2.31849 7.50075,-5.27173 -3.30849,0.0717 -2.35794,-3.51286 -8.44809,1.41998 l 0.94734,3.85175 z" style="fill:url(#linearGradient3264-9);fill-opacity:1.0;fill-rule:evenodd;stroke:none"/>
  </g>
</svg>