<?xml version="1.0" encoding="utf-8"?>
<svg viewBox="1000 0 200 200" xmlns="http://www.w3.org/2000/svg" xmlns:xlink="http://www.w3.org/1999/xlink">
  <defs>
    <linearGradient id="linearGradient3296-1" gradientUnits="userSpaceOnUse" x1="472.81" y1="747.08655" x2="472.81" y2="566.33026" gradientTransform="matrix(0.16246812,0,0,0.16246812,1026.3686,49.208726)" xlink:href="#linearGradientBlackPieces"/>
    <linearGradient id="linearGradientBlackPieces">
      <stop id="stop2268" offset="0" style="stop-color:#000000;stop-opacity:1;"/>
      <stop id="stop2270" offset="1" style="stop-color:#505070;stop-opacity:1;"/>
    </linearGradient>
    <linearGradient id="linearGradient3290-9" x1="466.62888" y1="160.41989" x2="466.62888" y2="546.33032" gradientUnits="userSpaceOnUse" gradientTransform="matrix(0.16246812,0,0,0.16246812,1026.3686,49.208726)" xlink:href="#linearGradientBlackPiecesGrad"/>
    <linearGradient id="linearGradientBlackPiecesGrad">
      <stop style="stop-color:#64779c;stop-opacity:1;" offset="0" id="stop4686"/>
      <stop style="stop-color:#000000;stop-opacity:0;" offset="1" id="stop4688"/>
    </linearGradient>
    <linearGradient id="linearGradient12081" x1="1052.6279" y1="133.63753" x2="1153.7426" y2="133.63753" gradientUnits="userSpaceOnUse" xlink:href="#linearGradientBlackPiecesBorder"/>
    <linearGradient id="linearGradientBlackPiecesBorder">
      <stop style="stop-color:#181818;stop-opacity:1;" offset="0" id="stop7192"/>
      <stop style="stop-color:#181818;stop-opacity:1;" offset="1" id="stop7194"/>
    </linearGradient>
    <linearGradient id="linearGradient3278-4" gradientUnits="userSpaceOnUse" x1="337.50623" y1="472.64157" x2="352.78772" y2="578.18219" gradientTransform="matrix(-0.16246811,0,0,0.16246811,1178.0075,49.479466)" xlink:href="#linearGradientBlackPiecesEye"/>
    <linearGradient id="linearGradientBlackPiecesEye">
      <stop style="stop-color:#a7cc52;stop-opacity:1;" offset="0" id="stop4698"/>
      <stop style="stop-color:#afc14d;stop-opacity:0.27083334;" offset="1" id="stop4700"/>
    </linearGradient>
    <linearGradient id="linearGradient3274-3" x1="337.50623" y1="472.64157" x2="352.78772" y2="578.18219" gradientUnits="userSpaceOnUse" gradientTransform="matrix(0.16246811,0,0,0.16246811,1026.3686,49.208706)" xlink:href="#linearGradientBlackPiecesEye"/>
    <linearGradient id="linearGradient12109" x1="1091.5129" y1="159.53297" x2="1112.1018" y2="159.53297" gradientUnits="userSpaceOnUse" xlink:href="#linearGradientBlackPiecesBorder"/>
    <linearGradient id="linearGradient12107" x1="1058.6449" y1="157.43974" x2="1094.3326" y2="157.43974" gradientUnits="userSpaceOnUse" xlink:href="#linearGradientBlackPiecesBorder"/>
    <linearGradient id="linearGradient12105" x1="1050.3427" y1="161.52766" x2="1086.0624" y2="161.52766" gradientUnits="userSpaceOnUse" xlink:href="#linearGradientBlackPiecesBorder"/>
    <linearGradient id="linearGradient12103" x1="1056.5294" y1="165.49857" x2="1092.3632" y2="165.49857" gradientUnits="userSpaceOnUse" xlink:href="#linearGradientBlackPiecesBorder"/>
    <linearGradient id="linearGradient12101" x1="1080.1382" y1="167.83195" x2="1122.891" y2="167.83195" gradientUnits="userSpaceOnUse" xlink:href="#linearGradientBlackPiecesBorder"/>
    <linearGradient id="linearGradient12083" x1="1068.8458" y1="140.9821" x2="1097.0699" y2="140.9821" gradientUnits="userSpaceOnUse" xlink:href="#linearGradientBlackPiecesBorder"/>
    <linearGradient id="linearGradient2313-9" x1="2087.1404" y1="-485" x2="2033.2518" y2="-862.51611" gradientUnits="userSpaceOnUse" gradientTransform="matrix(0.03938194,0,0,0.03938194,1002.1656,142.44053)" xlink:href="#linearGradientBlackPiecesShade"/>
    <linearGradient id="linearGradientBlackPiecesShade">
      <stop id="stop13366" offset="0" style="stop-color:#000000;stop-opacity:1;"/>
      <stop id="stop13368" offset="1" style="stop-color:#000000;stop-opacity:0;"/>
    </linearGradient>
    <linearGradient id="linearGradient2311-6" x1="2394.7349" y1="-485" x2="2394.7349" y2="-938.33337" gradientUnits="userSpaceOnUse" gradientTransform="matrix(0.03938194,0,0,0.03938194,998.04218,144.47888)" xlink:href="#linearGradientBlackPiecesShade"/>
    <linearGradient id="linearGradient2317-5" gradientUnits="userSpaceOnUse" gradientTransform="matrix(0.00384395,-0.03919383,0.03919383,0.00384395,1077.6973,229.39429)" x1="2470.0815" y1="-364.98831" x2="2309.7107" y2="-733.76135" xlink:href="#linearGradientBlackPiecesShade"/>
    <linearGradient id="linearGradient2323-5" gradientUnits="userSpaceOnUse" x1="2234.7434" y1="-614.40747" x2="1987.2833" y2="-832.36462" gradientTransform="matrix(0.00157892,-0.03935017,0.03935017,0.00157892,1106.0528,230.71223)" xlink:href="#linearGradientBlackPiecesShade"/>
    <linearGradient id="linearGradient2333-6" gradientUnits="userSpaceOnUse" x1="2087.1404" y1="-485" x2="2033.2518" y2="-862.51611" gradientTransform="matrix(-0.03938194,0,0,0.03938194,1203.4021,143.18311)" xlink:href="#linearGradientBlackPiecesShade"/>
    <linearGradient id="linearGradient2335-3" gradientUnits="userSpaceOnUse" gradientTransform="matrix(-0.03938194,0,0,0.03938194,1206.218,144.3627)" x1="2394.7349" y1="-485" x2="2394.7349" y2="-938.33337" xlink:href="#linearGradientBlackPiecesShade"/>
    <linearGradient id="linearGradient2337-7" gradientUnits="userSpaceOnUse" gradientTransform="matrix(-0.00384395,-0.03919383,-0.03919383,0.00384395,1126.7098,229.76549)" x1="2437.9685" y1="-388.63342" x2="2293.6538" y2="-745.58392" xlink:href="#linearGradientBlackPiecesShade"/>
    <linearGradient id="linearGradient2339-0" gradientUnits="userSpaceOnUse" gradientTransform="matrix(-0.00157892,-0.03935017,-0.03935017,0.00157892,1097.983,231.45463)" x1="2234.7434" y1="-614.40747" x2="1987.2833" y2="-832.36462" xlink:href="#linearGradientBlackPiecesShade"/>
    <linearGradient id="linearGradient12099" x1="1060.5927" y1="175.10333" x2="1090.1785" y2="175.10333" gradientUnits="userSpaceOnUse" xlink:href="#linearGradientBlackPiecesBorder"/>
    <linearGradient id="linearGradient12097" x1="1054.0176" y1="171.78386" x2="1087.007" y2="171.78386" gradientUnits="userSpaceOnUse" xlink:href="#linearGradientBlackPiecesBorder"/>
    <linearGradient id="linearGradient12095" x1="1110.4926" y1="157.06845" x2="1146.1805" y2="157.06845" gradientUnits="userSpaceOnUse" xlink:href="#linearGradientBlackPiecesBorder"/>
    <linearGradient id="linearGradient12093" x1="1118.7629" y1="161.15636" x2="1154.4828" y2="161.15636" gradientUnits="userSpaceOnUse" xlink:href="#linearGradientBlackPiecesBorder"/>
    <linearGradient id="linearGradient12091" x1="1112.4623" y1="165.12726" x2="1148.296" y2="165.12726" gradientUnits="userSpaceOnUse" xlink:href="#linearGradientBlackPiecesBorder"/>
    <linearGradient id="linearGradient12089" x1="1114.6469" y1="174.73206" x2="1144.2328" y2="174.73206" gradientUnits="userSpaceOnUse" xlink:href="#linearGradientBlackPiecesBorder"/>
    <linearGradient id="linearGradient12087" x1="1117.8184" y1="171.41257" x2="1150.8077" y2="171.41257" gradientUnits="userSpaceOnUse" xlink:href="#linearGradientBlackPiecesBorder"/>
    <linearGradient id="linearGradient2363" gradientUnits="userSpaceOnUse" x1="1647.1403" y1="-382.90863" x2="2633.2517" y2="-582.90863" gradientTransform="matrix(0.03561257,0,0,0.03561257,990.41242,122.47253)" xlink:href="#linearGradientBlackPiecesShade"/>
    <linearGradient id="linearGradient2367-8" gradientUnits="userSpaceOnUse" gradientTransform="matrix(-0.03561257,0,0,0.03561257,1216.7797,121.93095)" x1="1647.1403" y1="-382.90863" x2="2633.2517" y2="-582.90863" xlink:href="#linearGradientBlackPiecesShade"/>
    <linearGradient id="linearGradient12085" x1="1107.4069" y1="140.48314" x2="1135.631" y2="140.48314" gradientUnits="userSpaceOnUse" xlink:href="#linearGradientBlackPiecesBorder"/>
    <linearGradient id="linearGradient3256-0" gradientUnits="userSpaceOnUse" gradientTransform="matrix(0.03888114,-0.00625959,-0.00625959,-0.03888114,1005.9366,114.04368)" x1="2653.51" y1="1167.8967" x2="2228.9055" y2="-1469.516" xlink:href="#linearGradientBlackPiecesShade"/>
    <linearGradient id="linearGradient3260-6" gradientUnits="userSpaceOnUse" gradientTransform="matrix(-0.00384395,-0.03919383,-0.03919383,0.00384395,1124.4121,215.97966)" x1="2437.9685" y1="-388.63342" x2="2293.6538" y2="-745.58392" xlink:href="#linearGradientBlackPiecesShade"/>
    <linearGradient id="linearGradient3264-1" gradientUnits="userSpaceOnUse" gradientTransform="matrix(0.00384395,-0.03919383,0.03919383,0.00384395,1080.7608,217.14016)" x1="2470.0815" y1="-364.98831" x2="2309.7107" y2="-733.76135" xlink:href="#linearGradientBlackPiecesShade"/>
  </defs>
  <g id="BlackPawn">
    <rect y="0" x="1000" height="200" width="200" id="rect6707-3" style="fill:none;stroke:none"/>
    <path id="path3294-8" d="m 1087.2776,101.32468 c -10.7773,-4.627614 -11.2288,-14.701794 -30.2905,-18.637594 -6.5866,-1.35998 1.6321,16.36334 2.7883,31.371064 1.1563,15.00971 -6.342,28.14484 0.694,40.22628 9.3503,16.05541 16.2268,17.62644 22.5564,23.50021 11.5284,10.69819 26.5575,9.85474 35.6545,1.1883 7.6962,-7.33184 18.5086,-10.99684 26.9689,-27.29475 6.7693,-13.04054 2.7152,-22.81753 3.5907,-36.69531 1.0214,-16.188484 5.8852,-34.392024 -0.7597,-33.302294 -20.3226,3.33285 -21.5387,18.631064 -30.5274,21.288464 -9.5769,2.83127 -21.8147,2.16023 -30.6752,-1.64437 z" style="fill:url(#linearGradient3296-1);fill-opacity:1;fill-rule:evenodd;stroke:none"/>
    <path style="fill:url(#linearGradient3290-9);fill-opacity:1.0;fill-rule:evenodd;stroke:url(#linearGradient12081);stroke-width:3.65715121999999981;stroke-linecap:round;stroke-linejoin:round;stroke-miterlimit:4;stroke-opacity:1;stroke-dasharray:none" d="m 1087.2776,101.32468 c -10.7773,-4.627614 -11.2288,-14.701794 -30.2905,-18.637594 -6.5866,-1.35998 1.6321,16.36334 2.7883,31.371064 1.1563,15.00971 -6.342,28.14484 0.694,40.22628 9.3503,16.05541 16.2268,17.62644 22.5564,23.50021 11.5284,10.69819 26.5575,9.85474 35.6545,1.1883 7.6962,-7.33184 18.5086,-10.99684 26.9689,-27.29475 6.7693,-13.04054 2.7152,-22.81753 3.5907,-36.69531 1.0214,-16.188484 5.8852,-34.392024 -0.7597,-33.302294 -20.3226,3.33285 -21.5387,18.631064 -30.5274,21.288464 -9.5769,2.83127 -21.8147,2.16023 -30.6752,-1.64437 z" id="path3280-0"/>
    <path id="path3276-7" d="m 1112.5673,136.33629 c 3.1555,-10.13137 11.919,-13.19849 20.7409,-6.51579 2.1983,1.66528 -3.0548,15.73029 -20.7409,6.51579 z" style="fill:url(#linearGradient3278-4);fill-opacity:1.0;fill-rule:evenodd;stroke:none"/>
    <path style="fill:url(#linearGradient3274-3);fill-opacity:1.0;fill-rule:evenodd;stroke:none" d="m 1091.8087,136.06551 c -3.1555,-10.13137 -11.919,-13.19849 -20.7408,-6.51579 -2.1983,1.66528 3.0548,15.73028 20.7408,6.51579 z" id="path3266-8"/>
    <path style="fill:#c1856e;fill-opacity:1;fill-rule:evenodd;stroke:url(#linearGradient12109);stroke-width:3.65715122;stroke-linecap:round;stroke-linejoin:round;stroke-miterlimit:4;stroke-opacity:1;stroke-dasharray:none" d="m 1093.3415,156.70092 c 0.4654,2.06052 4.5716,3.95795 6.237,3.02307 0.7957,4.98222 1.6042,2.70664 2.4139,2.57815 0.7174,-0.11382 1.8316,2.73648 1.9208,-2.55659 1.818,0.29622 5.9418,-0.38544 6.2287,-3.06178 l 0.1313,-0.13127 c -5.2856,-0.66291 -12.6963,-0.58883 -16.9317,0.14842 z" id="path2267-6"/>
    <path id="path2281-5" d="m 1092.5041,159.04669 c -10.8892,-3.34279 -21.4875,-3.48453 -32.0306,-3.01928" style="fill:none;stroke:url(#linearGradient12107);stroke-width:3.65715122;stroke-linecap:round;stroke-linejoin:round;stroke-miterlimit:4;stroke-opacity:1;stroke-dasharray:none"/>
    <path style="fill:none;stroke:url(#linearGradient12105);stroke-width:3.65715146;stroke-linecap:round;stroke-linejoin:round;stroke-miterlimit:4;stroke-opacity:1;stroke-dasharray:none" d="m 1084.2338,160.44402 c -11.3073,-1.3767 -21.7655,0.34666 -32.0626,2.65787" id="path2283-5"/>
    <path id="path2285-8" d="m 1090.5345,162.23768 c -11.3707,0.67836 -22.4626,2.39717 -32.1765,6.52177" style="fill:none;stroke:url(#linearGradient12103);stroke-width:3.65715122;stroke-linecap:round;stroke-linejoin:round;stroke-miterlimit:4;stroke-opacity:1;stroke-dasharray:none"/>
    <path style="fill:none;stroke:url(#linearGradient12101);stroke-width:3.65715122;stroke-linecap:round;stroke-linejoin:round;stroke-miterlimit:4;stroke-opacity:1;stroke-dasharray:none" d="m 1121.0624,170.82882 c -9.7283,3.52688 -19.7511,-1.07309 -18.718,-5.43547 0.6578,-2.77754 -1.7226,-2.02001 -1.1074,-0.002 1.0812,3.54701 -12.295,8.99836 -19.2702,5.35357" id="path2289-3"/>
    <path id="path2291-5" d="m 1094.1489,155.54323 c -0.6069,-3.64075 3.0055,-6.40877 -0.3674,-17.23797 -3.1555,-10.13137 -12.4987,-15.79253 -22.7135,-8.75543 -1.6493,1.13622 1.3736,15.6306 18.9361,7.44972" style="fill:none;stroke:url(#linearGradient12083);stroke-width:3.65715122;stroke-linecap:round;stroke-linejoin:round;stroke-miterlimit:4;stroke-opacity:1;stroke-dasharray:none"/>
    <path id="path2293-7" d="m 1080.0974,129.65602 c 2.3848,2.02638 1.8192,4.47583 0.6385,7.01348 -1.054,-1.89255 -1.7447,-3.97741 -0.6385,-7.01348 z" style="fill:#000000;fill-opacity:1;fill-rule:evenodd;stroke:#000000;stroke-width:3.65714765;stroke-linecap:round;stroke-linejoin:round;stroke-miterlimit:4;stroke-opacity:1;stroke-dasharray:none"/>
    <path id="path2299-9" d="m 1075.7157,113.52829 c 4.5429,4.07712 4.5791,4.75508 7.839,9.81201 2.2484,-5.95103 3.258,-11.90207 9.4517,-17.85311 l -17.2907,8.0411 z" style="fill:url(#linearGradient2313-9);fill-opacity:1.0;fill-rule:evenodd;stroke:none"/>
    <path id="path2303-1" d="m 1090.4948,108.39183 3.3417,18.56479 0.3713,-18.93609 -3.713,0.3713 z" style="fill:url(#linearGradient2311-6);fill-opacity:1.0;fill-rule:evenodd;stroke:none"/>
    <path style="fill:url(#linearGradient2317-5);fill-opacity:1.0;fill-rule:evenodd;stroke:none" d="m 1059.7177,140.91542 c 3.5191,-2.63401 8.1518,-4.15447 9.8912,-8.56827 -4.688,0.57905 -3.8552,-4.64839 -11.7921,3.23514 l 1.9009,5.33313 z" id="path2315-3"/>
    <path style="fill:url(#linearGradient2323-5);fill-opacity:1.0;fill-rule:evenodd;stroke:none" d="m 1081.5979,153.0916 c 4.256,-4.37585 3.4497,-1.41443 8.6332,-4.46899 -5.8561,-2.48511 -8.7915,-4.47512 -20.0589,-6.81817 -6.4636,5.45383 3.7949,6.77297 11.4257,11.28716 z" id="path2321-4"/>
    <path style="fill:url(#linearGradient2333-6);fill-opacity:1.0;fill-rule:evenodd;stroke:none" d="m 1129.852,114.27088 c -4.5431,4.07712 -4.5792,4.75508 -7.8391,9.81202 -2.2484,-5.95104 -3.258,-11.90208 -9.4517,-17.85312 l 17.2908,8.0411 z" id="path2325-7"/>
    <path style="fill:url(#linearGradient2335-3);fill-opacity:1.0;fill-rule:evenodd;stroke:none" d="m 1113.7653,108.27562 -3.3417,18.56479 -0.3713,-18.93608 3.713,0.37129 z" id="path2327-4"/>
    <path id="path2329-9" d="m 1144.6895,141.28672 c -3.5192,-2.63402 -8.1519,-4.15448 -9.8912,-8.56828 4.6879,0.57905 7.5308,-0.44765 15.4677,7.43588 l -5.5765,1.1324 z" style="fill:url(#linearGradient2337-7);fill-opacity:1.0;fill-rule:evenodd;stroke:none"/>
    <path id="path2331-4" d="m 1122.4379,153.8342 c -4.256,-4.37586 -3.4496,-1.41443 -8.6332,-4.469 5.8561,-2.48511 8.7915,-4.47513 20.0589,-6.81817 6.4636,5.45383 -3.7949,6.77297 -11.4257,11.28717 z" style="fill:url(#linearGradient2339-0);fill-opacity:1.0;fill-rule:evenodd;stroke:none"/>
    <path id="path2341-4" d="m 1088.3499,165.57995 c -10.3553,4.74537 -18.3645,11.68778 -25.9287,19.04679" style="fill:none;stroke:url(#linearGradient12099);stroke-width:3.65715146;stroke-linecap:round;stroke-linejoin:round;stroke-miterlimit:4;stroke-opacity:1;stroke-dasharray:none"/>
    <path id="path2343-6" d="m 1085.1783,165.17507 c -11.1175,2.4803 -20.3989,7.59882 -29.3321,13.21759" style="fill:none;stroke:url(#linearGradient12097);stroke-width:3.65715146;stroke-linecap:round;stroke-linejoin:round;stroke-miterlimit:4;stroke-opacity:1;stroke-dasharray:none"/>
    <path style="fill:none;stroke:url(#linearGradient12095);stroke-width:3.65715122;stroke-linecap:round;stroke-linejoin:round;stroke-miterlimit:4;stroke-opacity:1;stroke-dasharray:none" d="m 1112.3212,158.67539 c 10.8893,-3.34279 21.4876,-3.48453 32.0307,-3.01928" id="path2345-8"/>
    <path id="path2347-5" d="m 1120.5915,160.07272 c 11.3074,-1.3767 21.7656,0.34667 32.0627,2.65787" style="fill:none;stroke:url(#linearGradient12093);stroke-width:3.65715146;stroke-linecap:round;stroke-linejoin:round;stroke-miterlimit:4;stroke-opacity:1;stroke-dasharray:none"/>
    <path style="fill:none;stroke:url(#linearGradient12091);stroke-width:3.65715122;stroke-linecap:round;stroke-linejoin:round;stroke-miterlimit:4;stroke-opacity:1;stroke-dasharray:none" d="m 1114.2909,161.86638 c 11.3706,0.67837 22.4626,2.39717 32.1765,6.52177" id="path2349-9"/>
    <path style="fill:none;stroke:url(#linearGradient12089);stroke-width:3.65715146;stroke-linecap:round;stroke-linejoin:round;stroke-miterlimit:4;stroke-opacity:1;stroke-dasharray:none" d="m 1116.4755,165.20865 c 10.3553,4.74536 18.3645,11.68777 25.9287,19.0468" id="path2351-8"/>
    <path style="fill:none;stroke:url(#linearGradient12087);stroke-width:3.65715146;stroke-linecap:round;stroke-linejoin:round;stroke-miterlimit:4;stroke-opacity:1;stroke-dasharray:none" d="m 1119.647,164.80377 c 11.1176,2.4803 20.399,7.59882 29.3322,13.2176" id="path2353-5"/>
    <path style="fill:url(#linearGradient2363);fill-opacity:1.0;fill-rule:evenodd;stroke:none" d="m 1058.0725,87.914086 c 0.7843,3.21204 3.9407,17.461804 5.9389,28.682374 2.0331,-5.38144 11.968,-5.53971 17.5688,-10.92115 -12.848,-20.672854 -19.6572,-17.246884 -23.5077,-17.761224 z" id="path2361-2"/>
    <path id="path2365-3" d="m 1148.6438,85.764316 c -0.7844,3.21204 -1.8897,19.070014 -3.888,30.290584 -2.0331,-5.38144 -13.5432,-5.53972 -19.1441,-10.92115 12.8481,-20.672854 18.0985,-18.855104 23.0321,-19.369434 z" style="fill:url(#linearGradient2367-8);fill-opacity:1.0;fill-rule:evenodd;stroke:none"/>
    <path style="fill:none;stroke:url(#linearGradient12085);stroke-width:3.65715122;stroke-linecap:round;stroke-linejoin:round;stroke-miterlimit:4;stroke-opacity:1;stroke-dasharray:none" d="m 1110.3278,155.04428 c 0.6069,-3.64075 -3.0054,-6.40877 0.3674,-17.23797 3.1555,-10.13138 12.4987,-15.79253 22.7136,-8.75544 1.6493,1.13623 -1.3736,15.63061 -18.9362,7.44972" id="path3250-1"/>
    <path style="fill:#000000;fill-opacity:1;fill-rule:evenodd;stroke:#000000;stroke-width:3.65714765;stroke-linecap:round;stroke-linejoin:round;stroke-miterlimit:4;stroke-opacity:1;stroke-dasharray:none" d="m 1123.7295,128.5072 c -2.3848,2.02637 -1.8193,4.47582 -0.6386,7.01348 1.054,-1.89255 1.7447,-3.97741 0.6386,-7.01348 z" id="path3252-1"/>
    <path id="path3254-9" d="m 1098.8881,146.89135 c -4.7964,-16.89058 -4.476,-38.7489 3.8685,-38.62686 6.6931,0.10117 5.5573,26.86582 3.3764,40.29873 0,0 -4.488,8.03652 -7.2449,-1.67187 z" style="fill:url(#linearGradient3256-0);fill-opacity:1.0;fill-rule:evenodd;stroke:none"/>
    <path style="fill:url(#linearGradient3260-6);fill-opacity:1.0;fill-rule:evenodd;stroke:none" d="m 1142.3918,127.50085 c -3.5191,-2.63401 -8.1518,-4.15448 -9.8912,-8.56827 4.688,0.57905 7.5308,-0.44766 15.4678,7.43587 l -5.5766,1.1324 z" id="path3258-1"/>
    <path id="path3262-3" d="m 1062.7812,128.66131 c 3.5192,-2.634 8.1519,-4.15446 9.8912,-8.56826 -4.688,0.57905 -3.8552,-4.64839 -11.7921,3.23513 l 1.9009,5.33313 z" style="fill:url(#linearGradient3264-1);fill-opacity:1.0;fill-rule:evenodd;stroke:none"/>
  </g>
</svg>