<?xml version="1.0" encoding="utf-8"?>
<svg viewBox="200 0 200 200" xmlns="http://www.w3.org/2000/svg" xmlns:xlink="http://www.w3.org/1999/xlink">
  <defs>
    <linearGradient id="linearGradient3296-8" gradientUnits="userSpaceOnUse" x1="472.81" y1="747.08655" x2="472.81" y2="566.33026" gradientTransform="matrix(0.1728368,0,0,0.1728368,217.15502,48.226967)" xlink:href="#linearGradientBlackPieces"/>
    <linearGradient id="linearGradientBlackPieces">
      <stop id="stop2268" offset="0" style="stop-color:#000000;stop-opacity:1;"/>
      <stop id="stop2270" offset="1" style="stop-color:#505070;stop-opacity:1;"/>
    </linearGradient>
    <linearGradient id="linearGradient3290-5" x1="466.62888" y1="160.41989" x2="463.51178" y2="586.85248" gradientUnits="userSpaceOnUse" gradientTransform="matrix(0.1728368,0,0,0.1728368,217.15502,48.226967)" xlink:href="#linearGradientBlackPiecesGrad"/>
    <linearGradient id="linearGradientBlackPiecesGrad">
      <stop style="stop-color:#64779c;stop-opacity:1;" offset="0" id="stop4686"/>
      <stop style="stop-color:#000000;stop-opacity:0;" offset="1" id="stop4688"/>
    </linearGradient>
    <linearGradient id="linearGradient11857" x1="245.20686" y1="138.04398" x2="352.54108" y2="138.04398" gradientUnits="userSpaceOnUse" xlink:href="#linearGradientBlackPiecesBorder"/>
    <linearGradient id="linearGradientBlackPiecesBorder">
      <stop style="stop-color:#181818;stop-opacity:1;" offset="0" id="stop7192"/>
      <stop style="stop-color:#181818;stop-opacity:1;" offset="1" id="stop7194"/>
    </linearGradient>
    <linearGradient id="linearGradient3278-6" gradientUnits="userSpaceOnUse" x1="337.50623" y1="472.64157" x2="352.78772" y2="578.18219" gradientTransform="matrix(-0.1728368,0,0,0.1728368,378.47142,48.515017)" xlink:href="#linearGradientBlackPiecesEye"/>
    <linearGradient id="linearGradientBlackPiecesEye">
      <stop style="stop-color:#a7cc52;stop-opacity:1;" offset="0" id="stop4698"/>
      <stop style="stop-color:#afc14d;stop-opacity:0.27083334;" offset="1" id="stop4700"/>
    </linearGradient>
    <linearGradient id="linearGradient3274-31" x1="337.50623" y1="472.64157" x2="352.78772" y2="578.18219" gradientUnits="userSpaceOnUse" gradientTransform="matrix(0.1728368,0,0,0.1728368,217.15502,48.226967)" xlink:href="#linearGradientBlackPiecesEye"/>
    <linearGradient id="linearGradient11849" x1="286.57349" y1="165.59206" x2="308.24286" y2="165.59206" gradientUnits="userSpaceOnUse" xlink:href="#linearGradientBlackPiecesBorder"/>
    <linearGradient id="linearGradient11847" x1="251.60785" y1="163.36526" x2="289.33984" y2="163.36526" gradientUnits="userSpaceOnUse" xlink:href="#linearGradientBlackPiecesBorder"/>
    <linearGradient id="linearGradient11845" x1="242.77568" y1="167.71404" x2="280.54172" y2="167.71404" gradientUnits="userSpaceOnUse" xlink:href="#linearGradientBlackPiecesBorder"/>
    <linearGradient id="linearGradient11843" x1="249.35735" y1="171.93837" x2="287.24445" y2="171.93837" gradientUnits="userSpaceOnUse" xlink:href="#linearGradientBlackPiecesBorder"/>
    <linearGradient id="linearGradient11841" x1="274.47284" y1="174.42068" x2="319.7207" y2="174.42068" gradientUnits="userSpaceOnUse" xlink:href="#linearGradientBlackPiecesBorder"/>
    <linearGradient id="linearGradient11853" x1="262.45978" y1="145.85728" x2="292.25168" y2="145.85728" gradientUnits="userSpaceOnUse" xlink:href="#linearGradientBlackPiecesBorder"/>
    <linearGradient id="linearGradient2313-4" x1="2087.1404" y1="-485" x2="2033.2518" y2="-862.51611" gradientUnits="userSpaceOnUse" gradientTransform="matrix(0.04189531,0,0,0.04189531,191.40734,147.40885)" xlink:href="#linearGradientBlackPiecesShade"/>
    <linearGradient id="linearGradientBlackPiecesShade">
      <stop id="stop13366" offset="0" style="stop-color:#000000;stop-opacity:1;"/>
      <stop id="stop13368" offset="1" style="stop-color:#000000;stop-opacity:0;"/>
    </linearGradient>
    <linearGradient id="linearGradient2311-60" x1="2394.7349" y1="-485" x2="2394.7349" y2="-938.33337" gradientUnits="userSpaceOnUse" gradientTransform="matrix(0.04189531,0,0,0.04189531,187.02078,149.5773)" xlink:href="#linearGradientBlackPiecesShade"/>
    <linearGradient id="linearGradient2317-51" gradientUnits="userSpaceOnUse" gradientTransform="matrix(0.00408927,-0.04169509,0.04169509,0.00408927,271.75944,239.912)" x1="2470.0815" y1="-364.98831" x2="2309.7107" y2="-733.76135" xlink:href="#linearGradientBlackPiecesShade"/>
    <linearGradient id="linearGradient2323-2" gradientUnits="userSpaceOnUse" x1="2234.7434" y1="-614.40747" x2="1987.2833" y2="-832.36462" gradientTransform="matrix(0.00167969,-0.04186149,0.04186149,0.00167969,301.92463,241.31383)" xlink:href="#linearGradientBlackPiecesShade"/>
    <linearGradient id="linearGradient2333-9" gradientUnits="userSpaceOnUse" x1="2087.1404" y1="-485" x2="2033.2518" y2="-862.51611" gradientTransform="matrix(-0.04189531,0,0,0.04189531,405.48668,148.19883)" xlink:href="#linearGradientBlackPiecesShade"/>
    <linearGradient id="linearGradient2335-6" gradientUnits="userSpaceOnUse" gradientTransform="matrix(-0.04189531,0,0,0.04189531,408.4823,149.45369)" x1="2394.7349" y1="-485" x2="2394.7349" y2="-938.33337" xlink:href="#linearGradientBlackPiecesShade"/>
    <linearGradient id="linearGradient2337-5" gradientUnits="userSpaceOnUse" gradientTransform="matrix(-0.00408927,-0.04169509,-0.04169509,0.00408927,323.89996,240.30674)" x1="2437.9685" y1="-388.63342" x2="2293.6538" y2="-745.58392" xlink:href="#linearGradientBlackPiecesShade"/>
    <linearGradient id="linearGradient2339-8" gradientUnits="userSpaceOnUse" gradientTransform="matrix(-0.00167969,-0.04186149,-0.04186149,0.00167969,293.33983,242.10377)" x1="2234.7434" y1="-614.40747" x2="1987.2833" y2="-832.36462" xlink:href="#linearGradientBlackPiecesShade"/>
    <linearGradient id="linearGradient11839" x1="253.67982" y1="182.15611" x2="284.92047" y2="182.15611" gradientUnits="userSpaceOnUse" xlink:href="#linearGradientBlackPiecesBorder"/>
    <linearGradient id="linearGradient11837" x1="246.68523" y1="178.6248" x2="281.54648" y2="178.6248" gradientUnits="userSpaceOnUse" xlink:href="#linearGradientBlackPiecesBorder"/>
    <linearGradient id="linearGradient11835" x1="306.7645" y1="162.97026" x2="344.49649" y2="162.97026" gradientUnits="userSpaceOnUse" xlink:href="#linearGradientBlackPiecesBorder"/>
    <linearGradient id="linearGradient11833" x1="315.56259" y1="167.31906" x2="353.32864" y2="167.31906" gradientUnits="userSpaceOnUse" xlink:href="#linearGradientBlackPiecesBorder"/>
    <linearGradient id="linearGradient11851" x1="308.85989" y1="171.5434" x2="346.74698" y2="171.5434" gradientUnits="userSpaceOnUse" xlink:href="#linearGradientBlackPiecesBorder"/>
    <linearGradient id="linearGradient11831" x1="311.18384" y1="181.76114" x2="342.42447" y2="181.76114" gradientUnits="userSpaceOnUse" xlink:href="#linearGradientBlackPiecesBorder"/>
    <linearGradient id="linearGradient11829" x1="314.55786" y1="178.22981" x2="349.4191" y2="178.22981" gradientUnits="userSpaceOnUse" xlink:href="#linearGradientBlackPiecesBorder"/>
    <linearGradient id="linearGradient2363-6" gradientUnits="userSpaceOnUse" x1="1647.1403" y1="-382.90863" x2="2633.2517" y2="-582.90863" gradientTransform="matrix(0.03788526,0,0,0.03788526,178.90407,126.16649)" xlink:href="#linearGradientBlackPiecesShade"/>
    <linearGradient id="linearGradient2367-0" gradientUnits="userSpaceOnUse" gradientTransform="matrix(-0.03788526,0,0,0.03788526,419.71814,125.59035)" x1="1647.1403" y1="-382.90863" x2="2633.2517" y2="-582.90863" xlink:href="#linearGradientBlackPiecesShade"/>
    <linearGradient id="linearGradient9438" x1="-240.84088" y1="-81.381439" x2="646.93561" y2="602.71436" gradientUnits="userSpaceOnUse" gradientTransform="matrix(0.08688183,0,0,0.15594743,259.78387,12.901427)" xlink:href="#linearGradientBlackPieces"/>
    <linearGradient id="linearGradient11905" x1="251.04636" y1="69.702599" x2="341.8764" y2="69.702599" gradientUnits="userSpaceOnUse" xlink:href="#linearGradientBlackPiecesBorder"/>
    <linearGradient id="linearGradient10327" x1="-26.298311" y1="119.28284" x2="128.88431" y2="288.96759" gradientUnits="userSpaceOnUse" xlink:href="#linearGradientBlackPieces"/>
    <linearGradient id="linearGradient11903" x1="39.999996" y1="245.83333" x2="133.33333" y2="245.83333" gradientUnits="userSpaceOnUse" xlink:href="#linearGradientBlackPiecesBorder"/>
    <linearGradient id="linearGradient1334" gradientUnits="userSpaceOnUse" x1="-30.318884" y1="123.72321" x2="127.46282" y2="290.53751" xlink:href="#linearGradientBlackPieces"/>
    <linearGradient id="linearGradient11901" x1="39.999996" y1="245.83333" x2="133.33333" y2="245.83333" gradientUnits="userSpaceOnUse" xlink:href="#linearGradientBlackPiecesBorder"/>
    <linearGradient id="linearGradient1338" gradientUnits="userSpaceOnUse" x1="-4.1851606" y1="121.50303" x2="126.04134" y2="285.82776" xlink:href="#linearGradientBlackPieces"/>
    <linearGradient id="linearGradient11899" x1="39.999996" y1="245.83333" x2="133.33333" y2="245.83333" gradientUnits="userSpaceOnUse" xlink:href="#linearGradientBlackPiecesBorder"/>
    <linearGradient id="linearGradient1342" gradientUnits="userSpaceOnUse" x1="-18.257166" y1="54.897514" x2="120.35538" y2="290.53751" xlink:href="#linearGradientBlackPieces"/>
    <linearGradient id="linearGradient11897" x1="39.999996" y1="245.83333" x2="133.33333" y2="245.83333" gradientUnits="userSpaceOnUse" xlink:href="#linearGradientBlackPiecesBorder"/>
    <linearGradient id="linearGradient11855" x1="303.48175" y1="145.32648" x2="333.27365" y2="145.32648" gradientUnits="userSpaceOnUse" xlink:href="#linearGradientBlackPiecesBorder"/>
    <linearGradient id="linearGradient3256-3" gradientUnits="userSpaceOnUse" gradientTransform="matrix(0.04136251,-0.00665908,-0.00665908,-0.04136251,195.41897,117.19973)" x1="2653.51" y1="1167.8967" x2="2228.9055" y2="-1469.516" xlink:href="#linearGradientBlackPiecesShade"/>
    <linearGradient id="linearGradient3260-3" gradientUnits="userSpaceOnUse" gradientTransform="matrix(-0.00408927,-0.04169509,-0.04169509,0.00408927,321.45569,225.64123)" x1="2437.9685" y1="-388.63342" x2="2293.6538" y2="-745.58392" xlink:href="#linearGradientBlackPiecesShade"/>
    <linearGradient id="linearGradient3264-3" gradientUnits="userSpaceOnUse" gradientTransform="matrix(0.00408927,-0.04169509,0.04169509,0.00408927,275.01848,226.87598)" x1="2470.0815" y1="-364.98831" x2="2309.7107" y2="-733.76135" xlink:href="#linearGradientBlackPiecesShade"/>
  </defs>
  <g id="BlackQueen">
    <rect y="0" x="200" height="200" width="200" id="rect6707-9" style="fill:none;stroke:none"/>
    <path id="path3294-5" d="m 281.95114,103.66894 c -11.46505,-4.922943 -11.94535,-15.640053 -32.2236,-19.827033 -7.00697,-1.44678 1.73628,17.407643 2.9662,33.373153 1.2301,15.96762 -6.74673,29.94103 0.7383,42.7935 9.94711,17.08006 17.2624,18.75135 23.99596,24.99999 12.26417,11.38094 28.2524,10.48366 37.93001,1.26414 8.18731,-7.79977 19.68974,-11.69865 28.68994,-29.0367 7.20137,-13.87277 2.88845,-24.27373 3.81992,-39.03719 1.08656,-17.22162 6.2607,-36.586903 -0.80818,-35.427633 -21.61965,3.54556 -22.91326,19.820103 -32.47565,22.647093 -10.18804,3.01195 -23.20685,2.2981 -32.6329,-1.74932 z" style="fill:url(#linearGradient3296-8);fill-opacity:1;fill-rule:evenodd;stroke:none"/>
    <path style="fill:url(#linearGradient3290-5);fill-opacity:1.0;fill-rule:evenodd;stroke:url(#linearGradient11857);stroke-width:3.65714930999999988;stroke-linecap:round;stroke-linejoin:round;stroke-miterlimit:4;stroke-opacity:1;stroke-dasharray:none" d="m 281.95114,103.66894 c -11.46505,-4.922943 -11.94535,-15.640053 -32.2236,-19.827033 -7.00697,-1.44678 1.73628,17.407643 2.9662,33.373153 1.2301,15.96762 -6.74673,29.94103 0.7383,42.7935 9.94711,17.08006 17.2624,18.75135 23.99596,24.99999 12.26417,11.38094 28.2524,10.48366 37.93001,1.26414 8.18731,-7.79977 19.68974,-11.69865 28.68994,-29.0367 7.20137,-13.87277 2.88845,-24.27373 3.81992,-39.03719 1.08656,-17.22162 6.2607,-36.586903 -0.80818,-35.427633 -21.61965,3.54556 -22.91326,19.820103 -32.47565,22.647093 -10.18804,3.01195 -23.20685,2.2981 -32.6329,-1.74932 z" id="path3280-7"/>
    <path id="path3276-6" d="m 308.85491,140.91504 c 3.35687,-10.77795 12.67966,-14.04082 22.06449,-6.93162 2.33862,1.77156 -3.24975,16.73419 -22.06449,6.93162 z" style="fill:url(#linearGradient3278-6);fill-opacity:1.0;fill-rule:evenodd;stroke:none"/>
    <path style="fill:url(#linearGradient3274-31);fill-opacity:1.0;fill-rule:evenodd;stroke:none" d="m 286.77151,140.62698 c -3.35687,-10.77795 -12.67966,-14.04082 -22.06449,-6.93162 -2.33862,1.77155 3.24975,16.73419 22.06449,6.93162 z" id="path3266-3"/>
    <path style="fill:#c1856e;fill-opacity:1;fill-rule:evenodd;stroke:url(#linearGradient11849);stroke-width:3.65714931;stroke-linecap:round;stroke-linejoin:round;stroke-miterlimit:4;stroke-opacity:1;stroke-dasharray:none" d="m 288.40205,162.57927 c 0.49511,2.19202 4.86338,4.21056 6.63501,3.216 0.84652,5.30018 1.70659,2.87938 2.56804,2.7427 0.76311,-0.1211 1.94841,2.91111 2.04333,-2.71977 1.93405,0.31513 6.32097,-0.41004 6.6262,-3.25717 l 0.13966,-0.13966 c -5.62284,-0.70521 -13.50654,-0.6264 -18.01224,0.1579 z" id="path2267-3"/>
    <path id="path2281-2" d="m 287.51126,165.07475 c -11.58423,-3.55612 -22.85887,-3.70691 -34.07484,-3.21198" style="fill:none;stroke:url(#linearGradient11847);stroke-width:3.65714931;stroke-linecap:round;stroke-linejoin:round;stroke-miterlimit:4;stroke-opacity:1;stroke-dasharray:none"/>
    <path style="fill:none;stroke:url(#linearGradient11845);stroke-width:3.65714979;stroke-linecap:round;stroke-linejoin:round;stroke-miterlimit:4;stroke-opacity:1;stroke-dasharray:none" d="m 278.71316,166.56126 c -12.02894,-1.46457 -23.15456,0.36878 -34.10891,2.82747" id="path2283-4"/>
    <path id="path2285-7" d="m 285.41588,168.46937 c -12.09628,0.72167 -23.89607,2.55018 -34.22997,6.93799" style="fill:none;stroke:url(#linearGradient11843);stroke-width:3.65714931;stroke-linecap:round;stroke-linejoin:round;stroke-miterlimit:4;stroke-opacity:1;stroke-dasharray:none"/>
    <path style="fill:none;stroke:url(#linearGradient11841);stroke-width:3.65714931;stroke-linecap:round;stroke-linejoin:round;stroke-miterlimit:4;stroke-opacity:1;stroke-dasharray:none" d="m 317.89212,177.6088 c -10.34921,3.75198 -21.01163,-1.14155 -19.91258,-5.78235 0.69976,-2.95479 -1.83252,-2.14894 -1.17807,-0.002 1.15017,3.77337 -13.07967,9.57264 -20.50007,5.69524" id="path2289-8"/>
    <path id="path2291-53" d="m 289.26105,161.34771 c -0.64567,-3.87311 3.1972,-6.81778 -0.39089,-18.3381 -3.35687,-10.77796 -13.29634,-16.8004 -24.16311,-9.3142 -1.75456,1.20873 1.4613,16.62814 20.14465,7.92515" style="fill:none;stroke:url(#linearGradient11853);stroke-width:3.65714931;stroke-linecap:round;stroke-linejoin:round;stroke-miterlimit:4;stroke-opacity:1;stroke-dasharray:none"/>
    <path id="path2293-0" d="m 274.3127,133.80838 c 2.53699,2.1557 1.93534,4.76147 0.67933,7.46108 -1.12127,-2.01334 -1.8561,-4.23125 -0.67933,-7.46108 z" style="fill:#000000;fill-opacity:1;fill-rule:evenodd;stroke:#000000;stroke-width:3.65714598;stroke-linecap:round;stroke-linejoin:round;stroke-miterlimit:4;stroke-opacity:1;stroke-dasharray:none"/>
    <path id="path2299-96" d="m 269.6514,116.65144 c 4.83289,4.33731 4.87135,5.05855 8.33933,10.43821 2.39182,-6.33083 3.4659,-12.66166 10.05487,-18.9925 l -18.3942,8.55429 z" style="fill:url(#linearGradient2313-4);fill-opacity:1.0;fill-rule:evenodd;stroke:none"/>
    <path id="path2303-3" d="m 285.37376,111.18717 3.55493,19.74959 0.395,-20.14458 -3.94993,0.39499 z" style="fill:url(#linearGradient2311-60);fill-opacity:1.0;fill-rule:evenodd;stroke:none"/>
    <path style="fill:url(#linearGradient2317-51);fill-opacity:1.0;fill-rule:evenodd;stroke:none" d="m 252.63243,145.78642 c 3.74373,-2.80212 8.6721,-4.41962 10.52245,-9.1151 -4.98717,0.616 -4.10122,-4.94505 -12.54469,3.4416 l 2.02224,5.6735 z" id="path2315-4"/>
    <path style="fill:url(#linearGradient2323-2);fill-opacity:1.0;fill-rule:evenodd;stroke:none" d="m 275.90904,158.73969 c 4.52758,-4.65513 3.6698,-1.5047 9.1842,-4.75421 -6.22985,-2.64371 -9.3526,-4.76073 -21.33907,-7.2533 -6.87611,5.80188 4.03709,7.20521 12.15487,12.00751 z" id="path2321-1"/>
    <path style="fill:url(#linearGradient2333-9);fill-opacity:1.0;fill-rule:evenodd;stroke:none" d="m 327.24261,117.44142 c -4.83289,4.33732 -4.87137,5.05855 -8.33933,10.43822 -2.39182,-6.33083 -3.4659,-12.66167 -10.05487,-18.9925 l 18.3942,8.55428 z" id="path2325-8"/>
    <path style="fill:url(#linearGradient2335-6);fill-opacity:1.0;fill-rule:evenodd;stroke:none" d="m 310.12936,111.06355 -3.55492,19.74959 -0.395,-20.14459 3.94992,0.395 z" id="path2327-9"/>
    <path id="path2329-0" d="m 343.02706,146.18141 c -3.74374,-2.80212 -8.67209,-4.41962 -10.52247,-9.1151 4.98717,0.61601 8.01145,-0.47623 16.45492,7.91043 l -5.93245,1.20467 z" style="fill:url(#linearGradient2337-5);fill-opacity:1.0;fill-rule:evenodd;stroke:none"/>
    <path id="path2331-44" d="m 319.35545,159.52967 c -4.52758,-4.65512 -3.66981,-1.5047 -9.1842,-4.75421 6.22985,-2.6437 9.3526,-4.76073 21.33905,-7.2533 6.87613,5.80189 -4.03707,7.20522 -12.15485,12.00751 z" style="fill:url(#linearGradient2339-8);fill-opacity:1.0;fill-rule:evenodd;stroke:none"/>
    <path id="path2341-9" d="m 283.0919,172.02496 c -11.01617,5.04821 -19.53647,12.43369 -27.5835,20.26233" style="fill:none;stroke:url(#linearGradient11839);stroke-width:3.65714979;stroke-linecap:round;stroke-linejoin:round;stroke-miterlimit:4;stroke-opacity:1;stroke-dasharray:none"/>
    <path id="path2343-9" d="m 279.71791,171.59424 c -11.82701,2.63859 -21.70076,8.08377 -31.20411,14.06112" style="fill:none;stroke:url(#linearGradient11837);stroke-width:3.65714979;stroke-linecap:round;stroke-linejoin:round;stroke-miterlimit:4;stroke-opacity:1;stroke-dasharray:none"/>
    <path style="fill:none;stroke:url(#linearGradient11835);stroke-width:3.65714931;stroke-linecap:round;stroke-linejoin:round;stroke-miterlimit:4;stroke-opacity:1;stroke-dasharray:none" d="m 308.59307,164.67975 c 11.58423,-3.55611 22.85887,-3.7069 34.07484,-3.21198" id="path2345-4"/>
    <path id="path2347-4" d="m 317.39117,166.16627 c 12.02894,-1.46458 23.15456,0.36877 34.10889,2.82749" style="fill:none;stroke:url(#linearGradient11833);stroke-width:3.65714979;stroke-linecap:round;stroke-linejoin:round;stroke-miterlimit:4;stroke-opacity:1;stroke-dasharray:none"/>
    <path style="fill:none;stroke:url(#linearGradient11851);stroke-width:3.65714931;stroke-linecap:round;stroke-linejoin:round;stroke-miterlimit:4;stroke-opacity:1;stroke-dasharray:none" d="m 310.68845,168.0744 c 12.09626,0.72165 23.89607,2.55015 34.22997,6.93799" id="path2349-8"/>
    <path style="fill:none;stroke:url(#linearGradient11831);stroke-width:3.65714979;stroke-linecap:round;stroke-linejoin:round;stroke-miterlimit:4;stroke-opacity:1;stroke-dasharray:none" d="m 313.01242,171.62997 c 11.01618,5.0482 19.53647,12.43367 27.58349,20.26235" id="path2351-1"/>
    <path style="fill:none;stroke:url(#linearGradient11829);stroke-width:3.65714979;stroke-linecap:round;stroke-linejoin:round;stroke-miterlimit:4;stroke-opacity:1;stroke-dasharray:none" d="m 316.38642,171.19925 c 11.82701,2.63858 21.70074,8.08377 31.20411,14.06114" id="path2353-6"/>
    <path style="fill:url(#linearGradient2363-6);fill-opacity:1.0;fill-rule:evenodd;stroke:none" d="m 250.88226,89.402527 c 0.83437,3.41704 4.19214,18.576223 6.31791,30.512893 2.16288,-5.72489 12.73174,-5.89326 18.69004,-11.61814 C 262.22225,86.305087 254.97846,89.949697 250.88226,89.402527 z" id="path2361-5"/>
    <path id="path2365-0" d="m 347.23372,87.115557 c -0.83438,3.41704 -2.0103,20.287073 -4.13608,32.223733 -2.16287,-5.72488 -14.40754,-5.89326 -20.36584,-11.61814 13.66796,-21.992183 19.25345,-20.058423 24.50192,-20.605593 z" style="fill:url(#linearGradient2367-0);fill-opacity:1.0;fill-rule:evenodd;stroke:none"/>
    <path id="path8557" d="m 251.04636,50.660027 c 13.66601,3.079 26.90891,28.56336 33.69464,37.88533 -4.9684,-16.10222 -7.63917,-41.38174 -5.63534,-57.43726 4.13602,16.79435 10.61008,35.05667 17.60303,47.55704 4.16998,-8.13842 15.67827,-28.10239 17.38989,-45.7683 4.50713,17.69932 -2.56215,36.28008 -3.68455,53.30576 5.93352,-11.56222 17.64408,-29.95486 31.46238,-32.63382 -14.01705,20.03405 -21.82835,39.38184 -25.13556,54.208503 -12.35654,-1.83898 -24.71308,-2.05168 -37.06961,0.51982 -3.01171,-11.657883 -22.73307,-46.187573 -28.62488,-57.637073 z" style="fill:url(#linearGradient9438);fill-opacity:1;fill-rule:evenodd;stroke:url(#linearGradient11905);stroke-width:3.65714407;stroke-linecap:round;stroke-linejoin:round;stroke-miterlimit:4;stroke-opacity:1;stroke-dasharray:none"/>
    <path transform="matrix(0.26799566,0,0,0.2426592,225.80095,-10.292333)" d="m 133.33333,245.83333 a 46.666668,50.833332 0 1 1 -93.333334,0 46.666668,50.833332 0 1 1 93.333334,0 z" id="path9446" style="opacity:0.98999999;fill:url(#linearGradient10327);fill-opacity:1;fill-rule:evenodd;stroke:url(#linearGradient11903);stroke-width:14.34101582;stroke-linecap:round;stroke-linejoin:round;stroke-miterlimit:4;stroke-opacity:1;stroke-dasharray:none;stroke-dashoffset:0"/>
    <path style="opacity:0.98999999;fill:url(#linearGradient1334);fill-opacity:1;fill-rule:evenodd;stroke:url(#linearGradient11901);stroke-width:14.34101582;stroke-linecap:round;stroke-linejoin:round;stroke-miterlimit:4;stroke-opacity:1;stroke-dasharray:none;stroke-dashoffset:0" id="path1332" d="m 133.33333,245.83333 a 46.666668,50.833332 0 1 1 -93.333334,0 46.666668,50.833332 0 1 1 93.333334,0 z" transform="matrix(0.26799566,0,0,0.2426592,256.01105,-25.514562)"/>
    <path transform="matrix(0.26799566,0,0,0.2426592,292.73562,-26.461352)" d="m 133.33333,245.83333 a 46.666668,50.833332 0 1 1 -93.333334,0 46.666668,50.833332 0 1 1 93.333334,0 z" id="path1336" style="opacity:0.98999999;fill:url(#linearGradient1338);fill-opacity:1;fill-rule:evenodd;stroke:url(#linearGradient11899);stroke-width:14.34101582;stroke-linecap:round;stroke-linejoin:round;stroke-miterlimit:4;stroke-opacity:1;stroke-dasharray:none;stroke-dashoffset:0"/>
    <path style="opacity:0.98999999;fill:url(#linearGradient1342);fill-opacity:1;fill-rule:evenodd;stroke:url(#linearGradient11897);stroke-width:14.34101582;stroke-linecap:round;stroke-linejoin:round;stroke-miterlimit:4;stroke-opacity:1;stroke-dasharray:none;stroke-dashoffset:0" id="path1340" d="m 133.33333,245.83333 a 46.666668,50.833332 0 1 1 -93.333334,0 46.666668,50.833332 0 1 1 93.333334,0 z" transform="matrix(0.26799566,0,0,0.2426592,321.3295,-7.6256727)"/>
    <path style="fill:none;stroke:url(#linearGradient11855);stroke-width:3.65714931;stroke-linecap:round;stroke-linejoin:round;stroke-miterlimit:4;stroke-opacity:1;stroke-dasharray:none" d="m 306.47238,160.81689 c 0.64567,-3.87308 -3.1972,-6.81776 0.39089,-18.33807 3.35687,-10.77796 13.29634,-16.80041 24.16311,-9.31421 1.75456,1.20874 -1.46129,16.62814 -20.14465,7.92516" id="path3250-15"/>
    <path style="fill:#000000;fill-opacity:1;fill-rule:evenodd;stroke:#000000;stroke-width:3.65714598;stroke-linecap:round;stroke-linejoin:round;stroke-miterlimit:4;stroke-opacity:1;stroke-dasharray:none" d="m 320.72939,132.58624 c -2.537,2.1557 -1.93535,4.76147 -0.67933,7.46107 1.12126,-2.01333 1.85609,-4.23124 0.67933,-7.46107 z" id="path3252-8"/>
    <path id="path3254-6" d="m 294.30268,152.14373 c -5.10249,-17.96854 -4.76166,-41.22186 4.11541,-41.09203 7.12026,0.10763 5.91194,28.5804 3.59188,42.8706 0,0 -4.77447,8.54941 -7.70729,-1.77857 z" style="fill:url(#linearGradient3256-3);fill-opacity:1.0;fill-rule:evenodd;stroke:none"/>
    <path style="fill:url(#linearGradient3260-3);fill-opacity:1.0;fill-rule:evenodd;stroke:none" d="m 340.58278,131.51573 c -3.74374,-2.80212 -8.6721,-4.41962 -10.52247,-9.1151 4.98717,0.61601 8.01145,-0.47623 16.45492,7.91043 l -5.93245,1.20467 z" id="path3258-0"/>
    <path id="path3262-1" d="m 255.89147,132.75025 c 3.74373,-2.80211 8.6721,-4.41961 10.52245,-9.11509 -4.98717,0.616 -4.10122,-4.94505 -12.54469,3.4416 l 2.02224,5.67349 z" style="fill:url(#linearGradient3264-3);fill-opacity:1.0;fill-rule:evenodd;stroke:none"/>
  </g>
</svg>