<?xml version="1.0" encoding="utf-8"?>
<svg viewBox="600 200 200 200" xmlns="http://www.w3.org/2000/svg" xmlns:xlink="http://www.w3.org/1999/xlink">
  <defs>
    <linearGradient id="linearGradient10855" gradientUnits="userSpaceOnUse" gradientTransform="matrix(0.1728368,0,0,0.1728368,621.96,248.6211)" x1="472.81" y1="747.08655" x2="472.81" y2="566.33026" xlink:href="#linearGradientWhitePieces"/>
    <linearGradient id="linearGradientWhitePieces">
      <stop id="stop7929" offset="0" style="stop-color:#ede3de;stop-opacity:1;"/>
      <stop id="stop7931" offset="1" style="stop-color:#d0b090;stop-opacity:1;"/>
    </linearGradient>
    <linearGradient id="linearGradient10857" gradientUnits="userSpaceOnUse" gradientTransform="matrix(0.1728368,0,0,0.1728368,621.96,248.6211)" x1="466.62888" y1="160.41989" x2="466.62888" y2="546.33032" xlink:href="#linearGradientWhitePiecesGrad"/>
    <linearGradient id="linearGradientWhitePiecesGrad">
      <stop id="stop4680" offset="0" style="stop-color:#ab7469;stop-opacity:1;"/>
      <stop id="stop4682" offset="1" style="stop-color:#000000;stop-opacity:0;"/>
    </linearGradient>
    <linearGradient id="linearGradient12293" x1="650.01184" y1="338.43808" x2="757.34607" y2="338.43808" gradientUnits="userSpaceOnUse" xlink:href="#linearGradientWhitePiecesBorder"/>
    <linearGradient id="linearGradientWhitePiecesBorder">
      <stop id="stop12143" offset="0" style="stop-color:#000000;stop-opacity:1;"/>
      <stop id="stop12145" offset="1" style="stop-color:#000000;stop-opacity:1;"/>
    </linearGradient>
    <linearGradient id="linearGradient10859" gradientUnits="userSpaceOnUse" gradientTransform="matrix(-0.1728368,0,0,0.1728368,783.27641,248.90914)" x1="337.50623" y1="472.64157" x2="352.78772" y2="578.18219" xlink:href="#linearGradientWhitePiecesEye"/>
    <linearGradient id="linearGradientWhitePiecesEye">
      <stop id="stop4692" offset="0" style="stop-color:#4f98ae;stop-opacity:1;"/>
      <stop id="stop4694" offset="1" style="stop-color:#7294cd;stop-opacity:0.1375;"/>
    </linearGradient>
    <linearGradient id="linearGradient10861" gradientUnits="userSpaceOnUse" gradientTransform="matrix(0.1728368,0,0,0.1728368,621.96,248.6211)" x1="337.50623" y1="472.64157" x2="352.78772" y2="578.18219" xlink:href="#linearGradientWhitePiecesEye"/>
    <linearGradient id="linearGradient12271" x1="691.37848" y1="365.98618" x2="713.04785" y2="365.98618" gradientUnits="userSpaceOnUse" xlink:href="#linearGradientWhitePiecesBorder"/>
    <linearGradient id="linearGradient12269" x1="656.41284" y1="363.75937" x2="694.14484" y2="363.75937" gradientUnits="userSpaceOnUse" xlink:href="#linearGradientWhitePiecesBorder"/>
    <linearGradient id="linearGradient12267" x1="647.58069" y1="368.10818" x2="685.34674" y2="368.10818" gradientUnits="userSpaceOnUse" xlink:href="#linearGradientWhitePiecesBorder"/>
    <linearGradient id="linearGradient12265" x1="654.16235" y1="372.33249" x2="692.04944" y2="372.33249" gradientUnits="userSpaceOnUse" xlink:href="#linearGradientWhitePiecesBorder"/>
    <linearGradient id="linearGradient12263" x1="679.27783" y1="374.81482" x2="724.5257" y2="374.81482" gradientUnits="userSpaceOnUse" xlink:href="#linearGradientWhitePiecesBorder"/>
    <linearGradient id="linearGradient12289" x1="667.26477" y1="346.2514" x2="697.05664" y2="346.2514" gradientUnits="userSpaceOnUse" xlink:href="#linearGradientWhitePiecesBorder"/>
    <linearGradient id="linearGradient10863" gradientUnits="userSpaceOnUse" gradientTransform="matrix(0.04189531,0,0,0.04189531,596.21232,347.80288)" x1="2087.1404" y1="-485" x2="2033.2518" y2="-862.51611" xlink:href="#linearGradientWhitePiecesShade"/>
    <linearGradient id="linearGradientWhitePiecesShade">
      <stop offset="0" id="stop13557" style="stop-color:#1a0f00;stop-opacity:1;"/>
      <stop style="stop-color:#000000;stop-opacity:0;" offset="1" id="stop13559"/>
    </linearGradient>
    <linearGradient id="linearGradient10865" gradientUnits="userSpaceOnUse" gradientTransform="matrix(0.04189531,0,0,0.04189531,591.82576,349.97134)" x1="2394.7349" y1="-485" x2="2394.7349" y2="-938.33337" xlink:href="#linearGradientWhitePiecesShade"/>
    <linearGradient id="linearGradient10867" gradientUnits="userSpaceOnUse" gradientTransform="matrix(0.00408927,-0.04169509,0.04169509,0.00408927,676.56443,440.30629)" x1="2470.0815" y1="-364.98831" x2="2309.7107" y2="-733.76135" xlink:href="#linearGradientWhitePiecesShade"/>
    <linearGradient id="linearGradient10869" gradientUnits="userSpaceOnUse" gradientTransform="matrix(0.00167969,-0.04186149,0.04186149,0.00167969,706.72967,441.70811)" x1="2234.7434" y1="-614.40747" x2="1987.2833" y2="-832.36462" xlink:href="#linearGradientWhitePiecesShade"/>
    <linearGradient id="linearGradient10871" gradientUnits="userSpaceOnUse" gradientTransform="matrix(-0.04189531,0,0,0.04189531,810.2915,348.59305)" x1="2087.1404" y1="-485" x2="2033.2518" y2="-862.51611" xlink:href="#linearGradientWhitePiecesShade"/>
    <linearGradient id="linearGradient10873" gradientUnits="userSpaceOnUse" gradientTransform="matrix(-0.04189531,0,0,0.04189531,813.28715,349.84791)" x1="2394.7349" y1="-485" x2="2394.7349" y2="-938.33337" xlink:href="#linearGradientWhitePiecesShade"/>
    <linearGradient id="linearGradient10875" gradientUnits="userSpaceOnUse" gradientTransform="matrix(-0.00408927,-0.04169509,-0.04169509,0.00408927,728.70498,440.70103)" x1="2437.9685" y1="-388.63342" x2="2293.6538" y2="-745.58392" xlink:href="#linearGradientWhitePiecesShade"/>
    <linearGradient id="linearGradient10877" gradientUnits="userSpaceOnUse" gradientTransform="matrix(-0.00167969,-0.04186149,-0.04186149,0.00167969,698.14482,442.49806)" x1="2234.7434" y1="-614.40747" x2="1987.2833" y2="-832.36462" xlink:href="#linearGradientWhitePiecesShade"/>
    <linearGradient id="linearGradient12261" x1="658.4848" y1="382.55026" x2="689.72546" y2="382.55026" gradientUnits="userSpaceOnUse" xlink:href="#linearGradientWhitePiecesBorder"/>
    <linearGradient id="linearGradient12259" x1="651.49023" y1="379.01892" x2="686.3515" y2="379.01892" gradientUnits="userSpaceOnUse" xlink:href="#linearGradientWhitePiecesBorder"/>
    <linearGradient id="linearGradient12257" x1="711.56952" y1="363.36438" x2="749.30145" y2="363.36438" gradientUnits="userSpaceOnUse" xlink:href="#linearGradientWhitePiecesBorder"/>
    <linearGradient id="linearGradient12255" x1="720.36761" y1="367.71317" x2="758.13361" y2="367.71317" gradientUnits="userSpaceOnUse" xlink:href="#linearGradientWhitePiecesBorder"/>
    <linearGradient id="linearGradient12253" x1="713.66486" y1="371.9375" x2="751.552" y2="371.9375" gradientUnits="userSpaceOnUse" xlink:href="#linearGradientWhitePiecesBorder"/>
    <linearGradient id="linearGradient12251" x1="715.98883" y1="382.15527" x2="747.22949" y2="382.15527" gradientUnits="userSpaceOnUse" xlink:href="#linearGradientWhitePiecesBorder"/>
    <linearGradient id="linearGradient12249" x1="719.36285" y1="378.62393" x2="754.22406" y2="378.62393" gradientUnits="userSpaceOnUse" xlink:href="#linearGradientWhitePiecesBorder"/>
    <linearGradient id="linearGradient10879" gradientUnits="userSpaceOnUse" gradientTransform="matrix(0.03788526,0,0,0.03788526,583.70906,326.56059)" x1="1647.1403" y1="-382.90863" x2="2633.2517" y2="-582.90863" xlink:href="#linearGradientWhitePiecesShade"/>
    <linearGradient id="linearGradient10881" gradientUnits="userSpaceOnUse" gradientTransform="matrix(-0.03788526,0,0,0.03788526,824.52304,325.98437)" x1="1647.1403" y1="-382.90863" x2="2633.2517" y2="-582.90863" xlink:href="#linearGradientWhitePiecesShade"/>
    <linearGradient id="linearGradient10883" gradientUnits="userSpaceOnUse" gradientTransform="matrix(0.18767452,0,0,0.15070789,624.99819,215.57745)" x1="-32.538746" y1="195.9679" x2="575.18024" y2="588.12415" xlink:href="#linearGradientWhitePieces"/>
    <linearGradient id="linearGradient12285" x1="669.06531" y1="283.14478" x2="732.8877" y2="283.14478" gradientUnits="userSpaceOnUse" xlink:href="#linearGradientWhitePiecesBorder"/>
    <linearGradient id="linearGradient12291" x1="708.28674" y1="345.72061" x2="738.07861" y2="345.72061" gradientUnits="userSpaceOnUse" xlink:href="#linearGradientWhitePiecesBorder"/>
    <linearGradient id="linearGradient10885" gradientUnits="userSpaceOnUse" gradientTransform="matrix(0.04136251,-0.00665908,-0.00665908,-0.04136251,600.22396,317.59374)" x1="2653.51" y1="1167.8967" x2="2228.9055" y2="-1469.516" xlink:href="#linearGradientWhitePiecesShade"/>
    <linearGradient id="linearGradient10887" gradientUnits="userSpaceOnUse" gradientTransform="matrix(-0.18767452,0,0,0.15070789,781.37068,199.33861)" x1="696.98621" y1="124.25547" x2="216.33333" y2="486.99237" xlink:href="#linearGradientWhitePieces"/>
    <linearGradient id="linearGradient12279" x1="671.0036" y1="255.35168" x2="744.99353" y2="255.35168" gradientUnits="userSpaceOnUse" xlink:href="#linearGradientWhitePiecesBorder"/>
    <linearGradient id="linearGradient10889" gradientUnits="userSpaceOnUse" gradientTransform="matrix(0.18767452,0,0,0.15070789,623.12144,200.84571)" x1="-153.95351" y1="-67.192932" x2="615.71777" y2="620.05176" xlink:href="#linearGradientWhitePieces"/>
    <linearGradient id="linearGradient12281" x1="658.46643" y1="257.22333" x2="738.61884" y2="257.22333" gradientUnits="userSpaceOnUse" xlink:href="#linearGradientWhitePiecesBorder"/>
    <linearGradient id="linearGradient10891" gradientUnits="userSpaceOnUse" gradientTransform="matrix(0.06028869,-0.00399079,0.007582,0.08553806,713.19705,234.71986)" x1="-1567.2875" y1="-173.39944" x2="-199.66586" y2="439.2937" xlink:href="#linearGradientWhitePieces"/>
    <linearGradient id="linearGradient12283" x1="677.3183" y1="270.73489" x2="710.34222" y2="270.73489" gradientUnits="userSpaceOnUse" xlink:href="#linearGradientWhitePiecesBorder"/>
    <linearGradient id="linearGradient12287" x1="694.63049" y1="304.60498" x2="708.32458" y2="304.60498" gradientUnits="userSpaceOnUse" xlink:href="#linearGradientWhitePiecesBorder"/>
    <linearGradient id="linearGradient10893" gradientUnits="userSpaceOnUse" gradientTransform="matrix(-0.00408927,-0.04169509,-0.04169509,0.00408927,726.26064,426.03534)" x1="2437.9685" y1="-388.63342" x2="2293.6538" y2="-745.58392" xlink:href="#linearGradientWhitePiecesShade"/>
    <linearGradient id="linearGradient10895" gradientUnits="userSpaceOnUse" gradientTransform="matrix(0.00408927,-0.04169509,0.04169509,0.00408927,679.82347,427.26985)" x1="2470.0815" y1="-364.98831" x2="2309.7107" y2="-733.76135" xlink:href="#linearGradientWhitePiecesShade"/>
  </defs>
  <g id="WhiteBishop">
    <rect style="fill:none;stroke:none" id="rect10591" width="200" height="200" x="600" y="200"/>
    <path style="fill:url(#linearGradient10855);fill-opacity:1;fill-rule:evenodd;stroke:none" d="m 686.75613,304.06305 c -11.46504,-4.92293 -11.94535,-15.64005 -32.2236,-19.82702 -7.00697,-1.44679 1.73628,17.40764 2.96621,33.37314 1.23009,15.96764 -6.74674,29.94103 0.73829,42.79351 9.94711,17.08007 17.26241,18.75134 23.99596,24.99998 12.26417,11.38096 28.25241,10.48366 37.93001,1.26414 8.18731,-7.79975 19.68974,-11.69865 28.68994,-29.03669 7.20137,-13.87278 2.88846,-24.27374 3.81993,-39.03719 1.08654,-17.22162 6.26069,-36.5869 -0.8082,-35.42763 -21.61964,3.54555 -22.91326,19.82009 -32.47564,22.64708 -10.18804,3.01196 -23.20685,2.29811 -32.6329,-1.74932 z" id="path10593"/>
    <path id="path10595" d="m 686.75613,304.06305 c -11.46504,-4.92293 -11.94535,-15.64005 -32.2236,-19.82702 -7.00697,-1.44679 1.73628,17.40764 2.96621,33.37314 1.23009,15.96764 -6.74674,29.94103 0.73829,42.79351 9.94711,17.08007 17.26241,18.75134 23.99596,24.99998 12.26417,11.38096 28.25241,10.48366 37.93001,1.26414 8.18731,-7.79975 19.68974,-11.69865 28.68994,-29.03669 7.20137,-13.87278 2.88846,-24.27374 3.81993,-39.03719 1.08654,-17.22162 6.26069,-36.5869 -0.8082,-35.42763 -21.61964,3.54555 -22.91326,19.82009 -32.47564,22.64708 -10.18804,3.01196 -23.20685,2.29811 -32.6329,-1.74932 z" style="fill:url(#linearGradient10857);fill-opacity:1.0;fill-rule:evenodd;stroke:url(#linearGradient12293);stroke-width:3.65714930999999988;stroke-linecap:round;stroke-linejoin:round;stroke-miterlimit:4;stroke-opacity:1;stroke-dasharray:none"/>
    <path style="fill:url(#linearGradient10859);fill-opacity:1.0;fill-rule:evenodd;stroke:none" d="m 713.65991,341.30915 c 3.35687,-10.77794 12.67966,-14.0408 22.06448,-6.93161 2.33863,1.77154 -3.24976,16.73419 -22.06448,6.93161 z" id="path10597"/>
    <path id="path10599" d="m 691.5765,341.02111 c -3.35687,-10.77797 -12.67966,-14.04083 -22.06448,-6.93164 -2.33863,1.77157 3.24974,16.7342 22.06448,6.93164 z" style="fill:url(#linearGradient10861);fill-opacity:1.0;fill-rule:evenodd;stroke:none"/>
    <path id="path10601" d="m 693.20704,362.97338 c 0.49511,2.19205 4.86338,4.21056 6.63501,3.216 0.84652,5.30021 1.70659,2.87938 2.56805,2.7427 0.7631,-0.12108 1.9484,2.91113 2.04332,-2.71975 1.93406,0.31513 6.32098,-0.41004 6.6262,-3.25719 l 0.13965,-0.13963 c -5.62282,-0.70524 -13.50653,-0.62643 -18.01223,0.15787 z" style="fill:#c1856e;fill-opacity:1;fill-rule:evenodd;stroke:url(#linearGradient12271);stroke-width:3.65714931;stroke-linecap:round;stroke-linejoin:round;stroke-miterlimit:4;stroke-opacity:1;stroke-dasharray:none"/>
    <path style="fill:none;stroke:url(#linearGradient12269);stroke-width:3.65714931;stroke-linecap:round;stroke-linejoin:round;stroke-miterlimit:4;stroke-opacity:1;stroke-dasharray:none" d="m 692.31625,365.46888 c -11.58423,-3.55614 -22.85887,-3.70693 -34.07484,-3.21198" id="path10603"/>
    <path id="path10605" d="m 683.51815,366.95537 c -12.02894,-1.46455 -23.15456,0.3688 -34.10891,2.8275" style="fill:none;stroke:url(#linearGradient12267);stroke-width:3.65714979;stroke-linecap:round;stroke-linejoin:round;stroke-miterlimit:4;stroke-opacity:1;stroke-dasharray:none"/>
    <path style="fill:none;stroke:url(#linearGradient12265);stroke-width:3.65714931;stroke-linecap:round;stroke-linejoin:round;stroke-miterlimit:4;stroke-opacity:1;stroke-dasharray:none" d="m 690.22087,368.86351 c -12.09628,0.72164 -23.89607,2.55014 -34.22997,6.93798" id="path10607"/>
    <path id="path10609" d="m 722.6971,378.00293 c -10.34921,3.75196 -21.01162,-1.14157 -19.91257,-5.78237 0.69976,-2.95479 -1.83252,-2.14892 -1.17807,-0.002 1.15017,3.77337 -13.07967,9.57262 -20.50007,5.69522" style="fill:none;stroke:url(#linearGradient12263);stroke-width:3.65714931;stroke-linecap:round;stroke-linejoin:round;stroke-miterlimit:4;stroke-opacity:1;stroke-dasharray:none"/>
    <path style="fill:none;stroke:url(#linearGradient12289);stroke-width:3.65714931;stroke-linecap:round;stroke-linejoin:round;stroke-miterlimit:4;stroke-opacity:1;stroke-dasharray:none" d="m 694.06604,361.74181 c -0.64567,-3.87309 3.1972,-6.81776 -0.39089,-18.33808 -3.35687,-10.77796 -13.29634,-16.80041 -24.1631,-9.31421 -1.75457,1.20873 1.46129,16.62813 20.14464,7.92516" id="path10611"/>
    <path style="fill:#000000;fill-opacity:1;fill-rule:evenodd;stroke:#000000;stroke-width:3.65714598;stroke-linecap:round;stroke-linejoin:round;stroke-miterlimit:4;stroke-opacity:1;stroke-dasharray:none" d="m 679.11769,334.2025 c 2.53699,2.1557 1.93534,4.76146 0.67933,7.46107 -1.12127,-2.01332 -1.8561,-4.23124 -0.67933,-7.46107 z" id="path10613"/>
    <path style="fill:url(#linearGradient10863);fill-opacity:1.0;fill-rule:evenodd;stroke:none" d="m 674.45639,317.04556 c 4.83289,4.33731 4.87135,5.05854 8.33933,10.43822 2.39182,-6.33083 3.4659,-12.66167 10.05487,-18.9925 l -18.3942,8.55428 z" id="path10615"/>
    <path style="fill:url(#linearGradient10865);fill-opacity:1.0;fill-rule:evenodd;stroke:none" d="m 690.17875,311.58129 3.55493,19.7496 0.395,-20.1446 -3.94993,0.395 z" id="path10617"/>
    <path id="path10619" d="m 657.43742,346.18053 c 3.74373,-2.80212 8.6721,-4.41961 10.52245,-9.1151 -4.98717,0.61602 -4.10122,-4.94506 -12.54469,3.44162 l 2.02224,5.67348 z" style="fill:url(#linearGradient10867);fill-opacity:1.0;fill-rule:evenodd;stroke:none"/>
    <path id="path10621" d="m 680.71403,359.13381 c 4.52758,-4.65513 3.66981,-1.5047 9.1842,-4.75421 -6.22985,-2.64371 -9.3526,-4.76073 -21.33906,-7.25331 -6.87612,5.80188 4.03708,7.20522 12.15486,12.00752 z" style="fill:url(#linearGradient10869);fill-opacity:1.0;fill-rule:evenodd;stroke:none"/>
    <path id="path10623" d="m 732.04759,317.83553 c -4.83289,4.33732 -4.87136,5.05856 -8.33933,10.43824 -2.39182,-6.33084 -3.46588,-12.66167 -10.05486,-18.9925 l 18.39419,8.55426 z" style="fill:url(#linearGradient10871);fill-opacity:1.0;fill-rule:evenodd;stroke:none"/>
    <path id="path10625" d="m 714.93436,311.45765 -3.55493,19.7496 -0.39499,-20.14459 3.94992,0.39499 z" style="fill:url(#linearGradient10873);fill-opacity:1.0;fill-rule:evenodd;stroke:none"/>
    <path style="fill:url(#linearGradient10875);fill-opacity:1.0;fill-rule:evenodd;stroke:none" d="m 747.83205,346.57553 c -3.74375,-2.80213 -8.67209,-4.41961 -10.52247,-9.11511 4.98718,0.61602 8.01145,-0.47623 16.45493,7.91045 l -5.93246,1.20466 z" id="path10627"/>
    <path style="fill:url(#linearGradient10877);fill-opacity:1.0;fill-rule:evenodd;stroke:none" d="m 724.16044,359.92378 c -4.52757,-4.65511 -3.66981,-1.50469 -9.18421,-4.75419 6.22985,-2.64371 9.3526,-4.76074 21.33907,-7.25331 6.87613,5.80188 -4.03708,7.20521 -12.15486,12.0075 z" id="path10629"/>
    <path style="fill:none;stroke:url(#linearGradient12261);stroke-width:3.65714979;stroke-linecap:round;stroke-linejoin:round;stroke-miterlimit:4;stroke-opacity:1;stroke-dasharray:none" d="m 687.89689,372.41907 c -11.01617,5.04823 -19.53647,12.43369 -27.5835,20.26236" id="path10631"/>
    <path style="fill:none;stroke:url(#linearGradient12259);stroke-width:3.65714979;stroke-linecap:round;stroke-linejoin:round;stroke-miterlimit:4;stroke-opacity:1;stroke-dasharray:none" d="m 684.52291,371.98835 c -11.82702,2.63861 -21.70077,8.08377 -31.20412,14.06114" id="path10633"/>
    <path id="path10635" d="m 713.39806,365.07388 c 11.58423,-3.55613 22.85888,-3.70692 34.07484,-3.21197" style="fill:none;stroke:url(#linearGradient12257);stroke-width:3.65714931;stroke-linecap:round;stroke-linejoin:round;stroke-miterlimit:4;stroke-opacity:1;stroke-dasharray:none"/>
    <path style="fill:none;stroke:url(#linearGradient12255);stroke-width:3.65714979;stroke-linecap:round;stroke-linejoin:round;stroke-miterlimit:4;stroke-opacity:1;stroke-dasharray:none" d="m 722.19616,366.56037 c 12.02894,-1.46454 23.15456,0.3688 34.1089,2.8275" id="path10637"/>
    <path id="path10639" d="m 715.49344,368.46851 c 12.09626,0.72167 23.89607,2.55015 34.22997,6.93799" style="fill:none;stroke:url(#linearGradient12253);stroke-width:3.65714931;stroke-linecap:round;stroke-linejoin:round;stroke-miterlimit:4;stroke-opacity:1;stroke-dasharray:none"/>
    <path id="path10641" d="m 717.8174,372.02408 c 11.01618,5.0482 19.53648,12.43369 27.5835,20.26235" style="fill:none;stroke:url(#linearGradient12251);stroke-width:3.65714979;stroke-linecap:round;stroke-linejoin:round;stroke-miterlimit:4;stroke-opacity:1;stroke-dasharray:none"/>
    <path id="path10643" d="m 721.19141,371.59336 c 11.82702,2.6386 21.70075,8.08377 31.20411,14.06114" style="fill:none;stroke:url(#linearGradient12249);stroke-width:3.65714979;stroke-linecap:round;stroke-linejoin:round;stroke-miterlimit:4;stroke-opacity:1;stroke-dasharray:none"/>
    <path id="path10645" d="m 655.68725,289.79665 c 0.83437,3.41705 4.19214,18.57623 6.31791,30.51289 2.16288,-5.72489 12.73174,-5.89326 18.69004,-11.61815 -13.66796,-21.99218 -20.91175,-18.34756 -25.00795,-18.89474 z" style="fill:url(#linearGradient10879);fill-opacity:1.0;fill-rule:evenodd;stroke:none"/>
    <path style="fill:url(#linearGradient10881);fill-opacity:1.0;fill-rule:evenodd;stroke:none" d="m 752.0387,287.50968 c -0.83438,3.41703 -2.01028,20.28706 -4.13607,32.22372 -2.16288,-5.72487 -14.40754,-5.89325 -20.36585,-11.61812 13.66796,-21.99219 19.25346,-20.05843 24.50192,-20.6056 z" id="path10647"/>
    <path id="path10649" d="m 673.48081,312.53278 c -3.41322,-22.47251 -8.69931,-22.61847 23.45933,-58.77603 44.83561,26.80833 31.22624,35.73948 34.11899,58.62617 -27.40816,-2.72369 -34.20891,-2.20629 -57.57832,0.14986 z" style="fill:url(#linearGradient10883);fill-opacity:1;fill-rule:evenodd;stroke:url(#linearGradient12285);stroke-width:3.65714598;stroke-linecap:round;stroke-linejoin:round;stroke-miterlimit:4;stroke-opacity:1;stroke-dasharray:none"/>
    <path id="path10651" d="m 711.27738,361.21103 c 0.64566,-3.8731 -3.19722,-6.81779 0.39088,-18.33808 3.35686,-10.77797 13.29634,-16.80042 24.1631,-9.31422 1.75456,1.20873 -1.46128,16.62814 -20.14464,7.92516" style="fill:none;stroke:url(#linearGradient12291);stroke-width:3.65714931;stroke-linecap:round;stroke-linejoin:round;stroke-miterlimit:4;stroke-opacity:1;stroke-dasharray:none"/>
    <path id="path10653" d="m 725.53438,332.98035 c -2.537,2.1557 -1.93536,4.76149 -0.67934,7.46108 1.12126,-2.01333 1.8561,-4.23125 0.67934,-7.46108 z" style="fill:#000000;fill-opacity:1;fill-rule:evenodd;stroke:#000000;stroke-width:3.65714598;stroke-linecap:round;stroke-linejoin:round;stroke-miterlimit:4;stroke-opacity:1;stroke-dasharray:none"/>
    <path style="fill:url(#linearGradient10885);fill-opacity:1.0;fill-rule:evenodd;stroke:none" d="m 699.10768,352.53784 c -5.1025,-17.96853 -4.76167,-41.22185 4.11541,-41.09203 7.12025,0.10764 5.91193,28.58042 3.59186,42.87061 0,0 -4.77445,8.54942 -7.70727,-1.77858 z" id="path10655"/>
    <path id="path10657" d="m 735.66525,296.27197 c 14.22553,-29.85909 7.92426,-56.59578 -16.44186,-81.84056 -15.47869,9.5886 -44.41537,48.69093 -46.3912,74.07598 25.60463,-4.31574 37.44941,2.34431 62.83306,7.76458 z" style="fill:url(#linearGradient10887);fill-opacity:1;fill-rule:evenodd;stroke:url(#linearGradient12279);stroke-width:3.65714598;stroke-linecap:round;stroke-linejoin:round;stroke-miterlimit:4;stroke-opacity:1;stroke-dasharray:none"/>
    <path style="fill:url(#linearGradient10889);fill-opacity:1;fill-rule:evenodd;stroke:url(#linearGradient12281);stroke-width:3.65714598;stroke-linecap:round;stroke-linejoin:round;stroke-miterlimit:4;stroke-opacity:1;stroke-dasharray:none" d="m 669.54853,301.54436 c -19.58744,-21.00181 -5.33953,-60.82538 17.25718,-88.64203 36.32837,28.6565 56.65216,60.22243 48.00232,88.5946 -25.60462,-4.31575 -39.87584,-5.37283 -65.2595,0.0474 z" id="path10659"/>
    <path style="opacity:0.98999999;fill:url(#linearGradient10891);fill-opacity:1;fill-rule:evenodd;stroke:url(#linearGradient12283);stroke-width:3.65714598;stroke-linecap:round;stroke-linejoin:round;stroke-miterlimit:4;stroke-opacity:1;stroke-dasharray:none;stroke-dashoffset:0" d="m 693.92972,254.73325 c -2.82401,-0.0674 -5.28015,2.29084 -5.06209,4.69782 -0.0313,1.38583 -0.10156,2.7707 -0.1625,4.1557 -1.8934,-0.10047 -3.81853,-0.47805 -5.70421,-0.17375 -2.49935,0.57203 -4.35267,2.9378 -3.73407,5.15897 0.4628,2.03468 2.76973,3.59601 5.16584,3.5163 1.65766,0.0743 3.31079,0.20662 4.96401,0.33242 0.41474,3.56237 1.20592,7.08986 2.25234,10.55173 0.42188,2.2784 3.12417,4.12346 5.80468,3.7083 2.71727,-0.31974 4.82957,-2.78584 4.27604,-5.12891 -0.23714,-1.17073 -0.72441,-2.2929 -0.95,-3.46708 -0.49223,-1.95628 -0.91168,-3.93142 -1.14173,-5.92203 2.02591,-0.17405 4.16416,-0.0229 6.06355,-0.75603 2.15624,-0.9513 3.4081,-3.33329 2.52736,-5.33342 -0.76069,-1.94103 -3.19492,-3.21973 -5.54102,-2.97346 -1.28045,0.0433 -2.55293,0.18191 -3.83027,0.26326 0.0297,-0.5203 -0.0374,-1.05425 0.014,-1.58051 0.0252,-1.13656 0.2156,-2.27782 0.12496,-3.41179 -0.47168,-2.00564 -2.63578,-3.72099 -5.06684,-3.63752 z" id="path10661"/>
    <path style="fill:none;stroke:url(#linearGradient12287);stroke-width:3.65714598;stroke-linecap:round;stroke-linejoin:round;stroke-miterlimit:4;stroke-opacity:1;stroke-dasharray:none" d="m 696.71089,302.46716 c -2.20923,4.97345 10.87584,6.35628 9.7116,0.0753" id="path10663"/>
    <path id="path10665" d="m 745.38778,331.90984 c -3.74375,-2.80211 -8.6721,-4.41961 -10.52247,-9.11509 4.98715,0.616 8.01145,-0.47623 16.4549,7.91042 l -5.93243,1.20467 z" style="fill:url(#linearGradient10893);fill-opacity:1.0;fill-rule:evenodd;stroke:none"/>
    <path style="fill:url(#linearGradient10895);fill-opacity:1.0;fill-rule:evenodd;stroke:none" d="m 660.69646,333.14437 c 3.74373,-2.80212 8.6721,-4.41961 10.52245,-9.1151 -4.98717,0.61602 -4.10122,-4.94506 -12.54469,3.44162 l 2.02224,5.67348 z" id="path10667"/>
  </g>
</svg>