<?xml version="1.0" encoding="utf-8"?>
<svg viewBox="0 200 200 200" xmlns="http://www.w3.org/2000/svg" xmlns:xlink="http://www.w3.org/1999/xlink">
  <defs>
    <linearGradient id="linearGradient10669" gradientUnits="userSpaceOnUse" gradientTransform="matrix(0.1728368,0,0,0.1728368,17.421166,248.60994)" x1="472.81" y1="747.08655" x2="472.81" y2="566.33026" xlink:href="#linearGradientWhitePieces"/>
    <linearGradient id="linearGradientWhitePieces">
      <stop id="stop7929" offset="0" style="stop-color:#ede3de;stop-opacity:1;"/>
      <stop id="stop7931" offset="1" style="stop-color:#d0b090;stop-opacity:1;"/>
    </linearGradient>
    <linearGradient id="linearGradient10671" gradientUnits="userSpaceOnUse" gradientTransform="matrix(0.1728368,0,0,0.1728368,17.421166,248.60994)" x1="466.62888" y1="160.41989" x2="466.62888" y2="546.33032" xlink:href="#linearGradientWhitePiecesGrad"/>
    <linearGradient id="linearGradientWhitePiecesGrad">
      <stop id="stop4680" offset="0" style="stop-color:#ab7469;stop-opacity:1;"/>
      <stop id="stop4682" offset="1" style="stop-color:#000000;stop-opacity:0;"/>
    </linearGradient>
    <linearGradient id="linearGradient12377" x1="45.473019" y1="338.42691" x2="152.80724" y2="338.42691" gradientUnits="userSpaceOnUse" xlink:href="#linearGradientWhitePiecesBorder"/>
    <linearGradient id="linearGradientWhitePiecesBorder">
      <stop id="stop12143" offset="0" style="stop-color:#000000;stop-opacity:1;"/>
      <stop id="stop12145" offset="1" style="stop-color:#000000;stop-opacity:1;"/>
    </linearGradient>
    <linearGradient id="linearGradient10673" gradientUnits="userSpaceOnUse" gradientTransform="matrix(-0.1728368,0,0,0.1728368,178.73756,248.89799)" x1="337.50623" y1="472.64157" x2="352.78772" y2="578.18219" xlink:href="#linearGradientWhitePiecesEye"/>
    <linearGradient id="linearGradientWhitePiecesEye">
      <stop id="stop4692" offset="0" style="stop-color:#4f98ae;stop-opacity:1;"/>
      <stop id="stop4694" offset="1" style="stop-color:#7294cd;stop-opacity:0.1375;"/>
    </linearGradient>
    <linearGradient id="linearGradient10675" gradientUnits="userSpaceOnUse" gradientTransform="matrix(0.1728368,0,0,0.1728368,17.421166,248.60994)" x1="337.50623" y1="472.64157" x2="352.78772" y2="578.18219" xlink:href="#linearGradientWhitePiecesEye"/>
    <linearGradient id="linearGradient12405" x1="86.839622" y1="365.97501" x2="108.50901" y2="365.97501" gradientUnits="userSpaceOnUse" xlink:href="#linearGradientWhitePiecesBorder"/>
    <linearGradient id="linearGradient12403" x1="51.873989" y1="363.7482" x2="89.605988" y2="363.7482" gradientUnits="userSpaceOnUse" xlink:href="#linearGradientWhitePiecesBorder"/>
    <linearGradient id="linearGradient12401" x1="43.041832" y1="368.09698" x2="80.807892" y2="368.09698" gradientUnits="userSpaceOnUse" xlink:href="#linearGradientWhitePiecesBorder"/>
    <linearGradient id="linearGradient12399" x1="49.623489" y1="372.32132" x2="87.510597" y2="372.32132" gradientUnits="userSpaceOnUse" xlink:href="#linearGradientWhitePiecesBorder"/>
    <linearGradient id="linearGradient12397" x1="74.738968" y1="374.80365" x2="119.98684" y2="374.80365" gradientUnits="userSpaceOnUse" xlink:href="#linearGradientWhitePiecesBorder"/>
    <linearGradient id="linearGradient12381" x1="62.725922" y1="346.24023" x2="92.517822" y2="346.24023" gradientUnits="userSpaceOnUse" xlink:href="#linearGradientWhitePiecesBorder"/>
    <linearGradient id="linearGradient10677" gradientUnits="userSpaceOnUse" gradientTransform="matrix(0.04189531,0,0,0.04189531,-8.3265137,347.79182)" x1="2087.1404" y1="-485" x2="2033.2518" y2="-862.51611" xlink:href="#linearGradientWhitePiecesShade"/>
    <linearGradient id="linearGradientWhitePiecesShade">
      <stop offset="0" id="stop13557" style="stop-color:#1a0f00;stop-opacity:1;"/>
      <stop style="stop-color:#000000;stop-opacity:0;" offset="1" id="stop13559"/>
    </linearGradient>
    <linearGradient id="linearGradient10679" gradientUnits="userSpaceOnUse" gradientTransform="matrix(0.04189531,0,0,0.04189531,-12.713074,349.96027)" x1="2394.7349" y1="-485" x2="2394.7349" y2="-938.33337" xlink:href="#linearGradientWhitePiecesShade"/>
    <linearGradient id="linearGradient10681" gradientUnits="userSpaceOnUse" gradientTransform="matrix(0.00408927,-0.04169509,0.04169509,0.00408927,72.025606,440.29509)" x1="2470.0815" y1="-364.98831" x2="2309.7107" y2="-733.76135" xlink:href="#linearGradientWhitePiecesShade"/>
    <linearGradient id="linearGradient10683" gradientUnits="userSpaceOnUse" gradientTransform="matrix(0.00167969,-0.04186149,0.04186149,0.00167969,102.1908,441.69691)" x1="2234.7434" y1="-614.40747" x2="1987.2833" y2="-832.36462" xlink:href="#linearGradientWhitePiecesShade"/>
    <linearGradient id="linearGradient10685" gradientUnits="userSpaceOnUse" gradientTransform="matrix(-0.04189531,0,0,0.04189531,205.75286,348.58181)" x1="2087.1404" y1="-485" x2="2033.2518" y2="-862.51611" xlink:href="#linearGradientWhitePiecesShade"/>
    <linearGradient id="linearGradient10687" gradientUnits="userSpaceOnUse" gradientTransform="matrix(-0.04189531,0,0,0.04189531,208.74847,349.83666)" x1="2394.7349" y1="-485" x2="2394.7349" y2="-938.33337" xlink:href="#linearGradientWhitePiecesShade"/>
    <linearGradient id="linearGradient10689" gradientUnits="userSpaceOnUse" gradientTransform="matrix(-0.00408927,-0.04169509,-0.04169509,0.00408927,124.16614,440.68983)" x1="2437.9685" y1="-388.63342" x2="2293.6538" y2="-745.58392" xlink:href="#linearGradientWhitePiecesShade"/>
    <linearGradient id="linearGradient10691" gradientUnits="userSpaceOnUse" gradientTransform="matrix(-0.00167969,-0.04186149,-0.04186149,0.00167969,93.605996,442.48686)" x1="2234.7434" y1="-614.40747" x2="1987.2833" y2="-832.36462" xlink:href="#linearGradientWhitePiecesShade"/>
    <linearGradient id="linearGradient12395" x1="53.94598" y1="382.53909" x2="85.186623" y2="382.53909" gradientUnits="userSpaceOnUse" xlink:href="#linearGradientWhitePiecesBorder"/>
    <linearGradient id="linearGradient12393" x1="46.951382" y1="379.00775" x2="81.812637" y2="379.00775" gradientUnits="userSpaceOnUse" xlink:href="#linearGradientWhitePiecesBorder"/>
    <linearGradient id="linearGradient12391" x1="107.03065" y1="363.35321" x2="144.76263" y2="363.35321" gradientUnits="userSpaceOnUse" xlink:href="#linearGradientWhitePiecesBorder"/>
    <linearGradient id="linearGradient12389" x1="115.82875" y1="367.702" x2="153.59479" y2="367.702" gradientUnits="userSpaceOnUse" xlink:href="#linearGradientWhitePiecesBorder"/>
    <linearGradient id="linearGradient12387" x1="109.12604" y1="371.92633" x2="147.01314" y2="371.92633" gradientUnits="userSpaceOnUse" xlink:href="#linearGradientWhitePiecesBorder"/>
    <linearGradient id="linearGradient12385" x1="111.45" y1="382.1441" x2="142.69063" y2="382.1441" gradientUnits="userSpaceOnUse" xlink:href="#linearGradientWhitePiecesBorder"/>
    <linearGradient id="linearGradient12383" x1="114.824" y1="378.61276" x2="149.68526" y2="378.61276" gradientUnits="userSpaceOnUse" xlink:href="#linearGradientWhitePiecesBorder"/>
    <linearGradient id="linearGradient10693" gradientUnits="userSpaceOnUse" gradientTransform="matrix(0.03788526,0,0,0.03788526,-20.829784,326.54946)" x1="1647.1403" y1="-382.90863" x2="2633.2517" y2="-582.90863" xlink:href="#linearGradientWhitePiecesShade"/>
    <linearGradient id="linearGradient10695" gradientUnits="userSpaceOnUse" gradientTransform="matrix(-0.03788526,0,0,0.03788526,219.98431,325.97333)" x1="1647.1403" y1="-382.90863" x2="2633.2517" y2="-582.90863" xlink:href="#linearGradientWhitePiecesShade"/>
    <linearGradient id="linearGradient10697" gradientUnits="userSpaceOnUse" gradientTransform="matrix(0.16694469,0,0,0.16694469,25.528756,206.80876)" x1="188.83656" y1="5.5850191" x2="526.30945" y2="257.17569" xlink:href="#linearGradientWhitePieces"/>
    <linearGradient id="linearGradient12369" x1="73.667786" y1="240.29079" x2="122.48566" y2="240.29079" gradientUnits="userSpaceOnUse" xlink:href="#linearGradientWhitePiecesBorder"/>
    <linearGradient id="linearGradient10699" gradientUnits="userSpaceOnUse" x1="-153.70424" y1="-341.60275" x2="889.69318" y2="659.1109" xlink:href="#linearGradientWhitePieces"/>
    <linearGradient id="linearGradient12371" x1="316.61819" y1="546.96198" x2="1106.3282" y2="546.96198" gradientUnits="userSpaceOnUse" xlink:href="#linearGradientWhitePiecesBorder"/>
    <linearGradient id="linearGradient10701" gradientUnits="userSpaceOnUse" gradientTransform="matrix(0.12307246,0,0,0.15793852,46.688806,228.63015)" x1="-303.40869" y1="-139.80017" x2="651.23621" y2="525.12677" xlink:href="#linearGradientWhitePieces"/>
    <linearGradient id="linearGradient12375" x1="53.68819" y1="282.30634" x2="143.37979" y2="282.30634" gradientUnits="userSpaceOnUse" xlink:href="#linearGradientWhitePiecesBorder"/>
    <linearGradient id="linearGradient12379" x1="103.74792" y1="345.70944" x2="133.53981" y2="345.70944" gradientUnits="userSpaceOnUse" xlink:href="#linearGradientWhitePiecesBorder"/>
    <linearGradient id="linearGradient10703" gradientUnits="userSpaceOnUse" gradientTransform="matrix(0.04136251,-0.00665908,-0.00665908,-0.04136251,-4.3148837,317.5827)" x1="2653.51" y1="1167.8967" x2="2228.9055" y2="-1469.516" xlink:href="#linearGradientWhitePiecesShade"/>
    <linearGradient id="linearGradient10705" gradientUnits="userSpaceOnUse" gradientTransform="matrix(-0.00408927,-0.04169509,-0.04169509,0.00408927,121.72186,426.02423)" x1="2437.9685" y1="-388.63342" x2="2293.6538" y2="-745.58392" xlink:href="#linearGradientWhitePiecesShade"/>
    <linearGradient id="linearGradient10707" gradientUnits="userSpaceOnUse" gradientTransform="matrix(0.00408927,-0.04169509,0.04169509,0.00408927,75.284646,427.25879)" x1="2470.0815" y1="-364.98831" x2="2309.7107" y2="-733.76135" xlink:href="#linearGradientWhitePiecesShade"/>
    <linearGradient id="linearGradient12373" x1="82.089584" y1="297.47986" x2="115.04359" y2="297.47986" gradientUnits="userSpaceOnUse" xlink:href="#linearGradientWhitePiecesBorder"/>
  </defs>
  <g id="WhiteKing">
    <rect style="fill:none;stroke:none" id="rect10254" width="200" height="200" x="0" y="200"/>
    <path style="fill:url(#linearGradient10669);fill-opacity:1;fill-rule:evenodd;stroke:none" d="m 82.217286,304.05189 c -11.46504,-4.92294 -11.94534,-15.64005 -32.2236,-19.82703 -7.00697,-1.44678 1.73629,17.40764 2.96621,33.37314 1.2301,15.96763 -6.74674,29.94104 0.7383,42.79351 9.94711,17.08006 17.2624,18.75135 23.99596,24.99999 12.26417,11.38095 28.252404,10.48366 37.930014,1.26414 8.1873,-7.79977 19.68974,-11.69866 28.68993,-29.0367 7.20137,-13.87278 2.88846,-24.27374 3.81993,-39.03719 1.08655,-17.22162 6.2607,-36.5869 -0.80819,-35.42763 -21.61965,3.54556 -22.91326,19.82009 -32.47564,22.64708 -10.18804,3.01196 -23.206864,2.29811 -32.632914,-1.74931 z" id="path10256"/>
    <path id="path10258" d="m 82.217286,304.05189 c -11.46504,-4.92294 -11.94534,-15.64005 -32.2236,-19.82703 -7.00697,-1.44678 1.73629,17.40764 2.96621,33.37314 1.2301,15.96763 -6.74674,29.94104 0.7383,42.79351 9.94711,17.08006 17.2624,18.75135 23.99596,24.99999 12.26417,11.38095 28.252404,10.48366 37.930014,1.26414 8.1873,-7.79977 19.68974,-11.69866 28.68993,-29.0367 7.20137,-13.87278 2.88846,-24.27374 3.81993,-39.03719 1.08655,-17.22162 6.2607,-36.5869 -0.80819,-35.42763 -21.61965,3.54556 -22.91326,19.82009 -32.47564,22.64708 -10.18804,3.01196 -23.206864,2.29811 -32.632914,-1.74931 z" style="fill:url(#linearGradient10671);fill-opacity:1.0;fill-rule:evenodd;stroke:url(#linearGradient12377);stroke-width:3.65714930999999988;stroke-linecap:round;stroke-linejoin:round;stroke-miterlimit:4;stroke-opacity:1;stroke-dasharray:none"/>
    <path style="fill:url(#linearGradient10673);fill-opacity:1.0;fill-rule:evenodd;stroke:none" d="m 109.12107,341.29799 c 3.35687,-10.77795 12.67966,-14.04082 22.06448,-6.93162 2.33863,1.77155 -3.24974,16.73419 -22.06448,6.93162 z" id="path10260"/>
    <path id="path10262" d="m 87.037656,341.00993 c -3.35687,-10.77795 -12.67966,-14.04082 -22.06448,-6.93163 -2.33863,1.77156 3.24974,16.7342 22.06448,6.93163 z" style="fill:url(#linearGradient10675);fill-opacity:1.0;fill-rule:evenodd;stroke:none"/>
    <path id="path10264" d="m 88.668196,362.96222 c 0.49511,2.19203 4.86339,4.21055 6.63502,3.216 0.84652,5.30019 1.70659,2.87938 2.56804,2.74269 0.76311,-0.12108 1.94841,2.91112 2.04333,-2.71976 1.934044,0.31514 6.320974,-0.41003 6.626204,-3.25717 l 0.13965,-0.13965 c -5.62283,-0.70522 -13.506544,-0.62641 -18.012244,0.15789 z" style="fill:#c1856e;fill-opacity:1;fill-rule:evenodd;stroke:url(#linearGradient12405);stroke-width:3.65714931;stroke-linecap:round;stroke-linejoin:round;stroke-miterlimit:4;stroke-opacity:1;stroke-dasharray:none"/>
    <path style="fill:none;stroke:url(#linearGradient12403);stroke-width:3.65714931;stroke-linecap:round;stroke-linejoin:round;stroke-miterlimit:4;stroke-opacity:1;stroke-dasharray:none" d="m 87.777416,365.4577 c -11.58423,-3.55613 -22.85888,-3.70692 -34.07485,-3.21197" id="path10266"/>
    <path id="path10268" d="m 78.979316,366.9442 c -12.02894,-1.46456 -23.15457,0.36879 -34.10891,2.82749" style="fill:none;stroke:url(#linearGradient12401);stroke-width:3.65714979;stroke-linecap:round;stroke-linejoin:round;stroke-miterlimit:4;stroke-opacity:1;stroke-dasharray:none"/>
    <path style="fill:none;stroke:url(#linearGradient12399);stroke-width:3.65714931;stroke-linecap:round;stroke-linejoin:round;stroke-miterlimit:4;stroke-opacity:1;stroke-dasharray:none" d="m 85.682026,368.85233 c -12.09628,0.72166 -23.89607,2.55016 -34.22996,6.93799" id="path10270"/>
    <path id="path10272" d="m 118.15827,377.99176 c -10.3492,3.75196 -21.011634,-1.14157 -19.912584,-5.78236 0.69977,-2.9548 -1.83251,-2.14893 -1.17807,-0.002 1.15018,3.77338 -13.07966,9.57264 -20.50007,5.69524" style="fill:none;stroke:url(#linearGradient12397);stroke-width:3.65714931;stroke-linecap:round;stroke-linejoin:round;stroke-miterlimit:4;stroke-opacity:1;stroke-dasharray:none"/>
    <path style="fill:none;stroke:url(#linearGradient12381);stroke-width:3.65714931;stroke-linecap:round;stroke-linejoin:round;stroke-miterlimit:4;stroke-opacity:1;stroke-dasharray:none" d="m 89.527196,361.73065 c -0.64567,-3.8731 3.19721,-6.81777 -0.39089,-18.33809 -3.35687,-10.77796 -13.29633,-16.8004 -24.1631,-9.3142 -1.75457,1.20873 1.46129,16.62814 20.14464,7.92515" id="path10274"/>
    <path style="fill:#000000;fill-opacity:1;fill-rule:evenodd;stroke:#000000;stroke-width:3.65714598;stroke-linecap:round;stroke-linejoin:round;stroke-miterlimit:4;stroke-opacity:1;stroke-dasharray:none" d="m 74.578846,334.19133 c 2.537,2.1557 1.93535,4.76147 0.67933,7.46107 -1.12126,-2.01333 -1.85609,-4.23124 -0.67933,-7.46107 z" id="path10276"/>
    <path style="fill:url(#linearGradient10677);fill-opacity:1.0;fill-rule:evenodd;stroke:none" d="m 69.917546,317.03439 c 4.8329,4.33731 4.87135,5.05854 8.33934,10.43821 2.39182,-6.33083 3.46589,-12.66166 10.05486,-18.9925 l -18.3942,8.55429 z" id="path10278"/>
    <path style="fill:url(#linearGradient10679);fill-opacity:1.0;fill-rule:evenodd;stroke:none" d="m 85.639916,311.57012 3.55492,19.74959 0.395,-20.14459 -3.94992,0.395 z" id="path10280"/>
    <path id="path10282" d="m 52.898576,346.16936 c 3.74373,-2.80211 8.6721,-4.41961 10.52246,-9.11509 -4.98717,0.616 -4.10123,-4.94505 -12.5447,3.4416 l 2.02224,5.67349 z" style="fill:url(#linearGradient10681);fill-opacity:1.0;fill-rule:evenodd;stroke:none"/>
    <path id="path10284" d="m 76.175186,359.12264 c 4.52758,-4.65513 3.66981,-1.50471 9.1842,-4.75421 -6.22985,-2.64371 -9.35259,-4.76073 -21.33906,-7.2533 -6.87612,5.80188 4.03709,7.20521 12.15486,12.00751 z" style="fill:url(#linearGradient10683);fill-opacity:1.0;fill-rule:evenodd;stroke:none"/>
    <path id="path10286" d="m 127.50877,317.82437 c -4.8329,4.33732 -4.87137,5.05855 -8.33934,10.43822 -2.39182,-6.33083 -3.46589,-12.66167 -10.05486,-18.9925 l 18.3942,8.55428 z" style="fill:url(#linearGradient10685);fill-opacity:1.0;fill-rule:evenodd;stroke:none"/>
    <path id="path10288" d="m 110.39552,311.44649 -3.55492,19.7496 -0.39501,-20.14459 3.94993,0.39499 z" style="fill:url(#linearGradient10687);fill-opacity:1.0;fill-rule:evenodd;stroke:none"/>
    <path style="fill:url(#linearGradient10689);fill-opacity:1.0;fill-rule:evenodd;stroke:none" d="m 143.29322,346.56436 c -3.74375,-2.80212 -8.6721,-4.41962 -10.52247,-9.1151 4.98717,0.616 8.01145,-0.47623 16.45492,7.91043 l -5.93245,1.20467 z" id="path10290"/>
    <path style="fill:url(#linearGradient10691);fill-opacity:1.0;fill-rule:evenodd;stroke:none" d="m 119.62161,359.91262 c -4.52758,-4.65512 -3.66981,-1.5047 -9.1842,-4.75421 6.22985,-2.64371 9.35259,-4.76073 21.33904,-7.2533 6.87614,5.80189 -4.03707,7.20522 -12.15484,12.00751 z" id="path10292"/>
    <path style="fill:none;stroke:url(#linearGradient12395);stroke-width:3.65714979;stroke-linecap:round;stroke-linejoin:round;stroke-miterlimit:4;stroke-opacity:1;stroke-dasharray:none" d="m 83.358046,372.4079 c -11.01617,5.04822 -19.53647,12.43369 -27.58349,20.26235" id="path10294"/>
    <path style="fill:none;stroke:url(#linearGradient12393);stroke-width:3.65714979;stroke-linecap:round;stroke-linejoin:round;stroke-miterlimit:4;stroke-opacity:1;stroke-dasharray:none" d="m 79.984066,371.97718 c -11.82702,2.6386 -21.70077,8.08378 -31.20411,14.06114" id="path10296"/>
    <path id="path10298" d="m 108.85922,365.0627 c 11.58423,-3.55612 22.85888,-3.70691 34.07485,-3.21197" style="fill:none;stroke:url(#linearGradient12391);stroke-width:3.65714931;stroke-linecap:round;stroke-linejoin:round;stroke-miterlimit:4;stroke-opacity:1;stroke-dasharray:none"/>
    <path style="fill:none;stroke:url(#linearGradient12389);stroke-width:3.65714979;stroke-linecap:round;stroke-linejoin:round;stroke-miterlimit:4;stroke-opacity:1;stroke-dasharray:none" d="m 117.65732,366.54921 c 12.02894,-1.46456 23.15457,0.36879 34.1089,2.82749" id="path10300"/>
    <path id="path10302" d="m 110.95461,368.45734 c 12.09626,0.72166 23.89607,2.55016 34.22996,6.93799" style="fill:none;stroke:url(#linearGradient12387);stroke-width:3.65714931;stroke-linecap:round;stroke-linejoin:round;stroke-miterlimit:4;stroke-opacity:1;stroke-dasharray:none"/>
    <path id="path10304" d="m 113.27857,372.01291 c 11.01619,5.04821 19.53647,12.43368 27.58349,20.26236" style="fill:none;stroke:url(#linearGradient12385);stroke-width:3.65714979;stroke-linecap:round;stroke-linejoin:round;stroke-miterlimit:4;stroke-opacity:1;stroke-dasharray:none"/>
    <path id="path10306" d="m 116.65257,371.58219 c 11.82702,2.6386 21.70075,8.08377 31.20411,14.06114" style="fill:none;stroke:url(#linearGradient12383);stroke-width:3.65714979;stroke-linecap:round;stroke-linejoin:round;stroke-miterlimit:4;stroke-opacity:1;stroke-dasharray:none"/>
    <path id="path10308" d="m 51.148406,289.78548 c 0.83437,3.41704 4.19214,18.57622 6.31791,30.51289 2.16288,-5.72489 12.73174,-5.89326 18.69005,-11.61814 -13.66796,-21.99219 -20.91175,-18.34758 -25.00796,-18.89475 z" style="fill:url(#linearGradient10693);fill-opacity:1.0;fill-rule:evenodd;stroke:none"/>
    <path style="fill:url(#linearGradient10695);fill-opacity:1.0;fill-rule:evenodd;stroke:none" d="m 147.49987,287.49851 c -0.83437,3.41704 -2.0103,20.28707 -4.13607,32.22373 -2.16288,-5.72488 -14.40755,-5.89326 -20.36585,-11.61814 13.66796,-21.99218 19.25346,-20.05842 24.50192,-20.60559 z" id="path10310"/>
    <path id="path10312" d="m 99.594816,215.89681 c -2.36026,0.19298 -5.08426,0.0555 -6.97516,1.69553 -0.92618,2.50049 0.22557,5.11484 0.60947,7.60777 0.46812,1.94334 0.99164,3.87981 1.01302,5.88866 -5.40584,-0.90163 -10.98618,-2.35595 -16.44926,-1.18948 -1.99901,1.0799 -2.10615,3.67772 -2.2916,5.67078 -0.057,2.70372 0.365,5.64101 2.06205,7.81001 3.16684,1.18659 6.57725,0.13609 9.75665,-0.44497 2.07282,-0.44604 4.26666,-1.16996 6.30655,-1.15666 0.0734,4.82559 -0.32046,9.76576 -1.32324,14.41771 -0.12015,0.76604 -2.42694,7.76203 -1.58332,7.76164 2.07582,0.36095 11.131464,0.54592 13.222644,0.73175 1.49006,-0.0297 -1.65555,-11.04593 -1.72458,-12.69617 -0.6991,-3.45316 -1.10789,-7.01589 -0.43729,-10.53838 5.33735,-0.15901 10.62655,1.8163 15.95365,0.87646 2.08818,-1.02162 2.43666,-3.6171 2.83284,-5.65526 0.25974,-2.65187 0.0341,-5.65047 -1.72161,-7.76292 -2.79458,-0.88045 -5.70239,0.14481 -8.49853,0.45909 -2.20584,0.39659 -4.39678,0.87701 -6.60997,1.23122 1.36236,-4.06985 3.95544,-7.75836 4.48664,-12.09827 -0.45096,-1.88998 -2.78691,-2.04544 -4.35099,-2.36331 -1.4045,-0.21627 -2.84841,-0.26746 -4.277964,-0.2452 z" style="fill:url(#linearGradient10697);fill-opacity:1;fill-rule:evenodd;stroke:url(#linearGradient12369);stroke-width:3.6571424;stroke-linecap:round;stroke-linejoin:round;stroke-miterlimit:4;stroke-opacity:1;stroke-dasharray:none"/>
    <path style="opacity:0.98999999;fill:url(#linearGradient10699);fill-opacity:1;fill-rule:evenodd;stroke:url(#linearGradient12371);stroke-width:79.32309723;stroke-linecap:round;stroke-linejoin:round;stroke-miterlimit:4;stroke-opacity:1;stroke-dasharray:none;stroke-dashoffset:0" id="path10314" d="m 1066.6667,546.96198 a 355.19348,304.1412 0 1 1 -710.38698,0 355.19348,304.1412 0 1 1 710.38698,0 z" transform="matrix(0.04057623,0,0,0.0523856,68.913356,244.72503)"/>
    <path style="fill:url(#linearGradient10701);fill-opacity:1;fill-rule:evenodd;stroke:url(#linearGradient12375);stroke-width:3.65714502;stroke-linecap:round;stroke-linejoin:round;stroke-miterlimit:4;stroke-opacity:1;stroke-dasharray:none" d="m 74.718606,309.58378 c 4.24696,-17.05397 -19.71515,-18.39267 -19.19344,-34.25988 0.46598,-14.17251 7.1295,-18.96951 19.50454,-20.14579 16.26869,-1.54638 21.02302,22.54195 23.33729,22.00859 2.575144,-0.59348 9.533184,-22.30528 20.778294,-22.15706 12.89041,0.16991 22.83556,5.2253 22.39163,21.41604 -0.40119,15.08103 -24.44855,15.88082 -20.44703,31.9191 -16.77576,-2.06806 -31.013664,-1.26269 -46.371284,1.219 z" id="path10316"/>
    <path id="path10318" d="m 106.73854,361.19985 c 0.64567,-3.8731 -3.1972,-6.81777 0.39089,-18.33808 3.35687,-10.77796 13.29633,-16.80041 24.1631,-9.31421 1.75457,1.20874 -1.46129,16.62814 -20.14464,7.92516" style="fill:none;stroke:url(#linearGradient12379);stroke-width:3.65714931;stroke-linecap:round;stroke-linejoin:round;stroke-miterlimit:4;stroke-opacity:1;stroke-dasharray:none"/>
    <path id="path10320" d="m 120.99554,332.96919 c -2.53699,2.1557 -1.93534,4.76147 -0.67933,7.46107 1.12127,-2.01333 1.8561,-4.23124 0.67933,-7.46107 z" style="fill:#000000;fill-opacity:1;fill-rule:evenodd;stroke:#000000;stroke-width:3.65714598;stroke-linecap:round;stroke-linejoin:round;stroke-miterlimit:4;stroke-opacity:1;stroke-dasharray:none"/>
    <path style="fill:url(#linearGradient10703);fill-opacity:1.0;fill-rule:evenodd;stroke:none" d="m 94.568836,352.52668 c -5.10249,-17.96854 -4.76166,-41.22186 4.11541,-41.09203 7.120264,0.10762 5.911934,28.5804 3.591884,42.8706 0,0 -4.774474,8.54942 -7.707294,-1.77857 z" id="path10322"/>
    <path id="path10324" d="m 140.84894,331.89868 c -3.74375,-2.80212 -8.6721,-4.41962 -10.52247,-9.1151 4.98717,0.616 8.01144,-0.47623 16.45492,7.91042 l -5.93245,1.20468 z" style="fill:url(#linearGradient10705);fill-opacity:1.0;fill-rule:evenodd;stroke:none"/>
    <path style="fill:url(#linearGradient10707);fill-opacity:1.0;fill-rule:evenodd;stroke:none" d="m 56.157616,333.1332 c 3.74373,-2.80211 8.6721,-4.41961 10.52246,-9.11509 -4.98717,0.616 -4.10123,-4.94505 -12.5447,3.4416 l 2.02224,5.67349 z" id="path10326"/>
    <path style="fill:none;stroke:url(#linearGradient12373);stroke-width:3.65714288;stroke-linecap:round;stroke-linejoin:round;stroke-miterlimit:4;stroke-opacity:1;stroke-dasharray:none" d="m 83.918156,298.08756 c 8.79869,-1.09303 17.888144,-1.89532 29.296864,-0.37832" id="path10328"/>
  </g>
</svg>