<?xml version="1.0" encoding="utf-8"?>
<svg viewBox="1000.612 200.612 200 200" xmlns="http://www.w3.org/2000/svg" xmlns:xlink="http://www.w3.org/1999/xlink">
  <defs>
    <linearGradient id="linearGradient10709" gradientUnits="userSpaceOnUse" gradientTransform="matrix(0.16246812,0,0,0.16246812,1026.3686,249.20873)" x1="472.81" y1="747.08655" x2="472.81" y2="566.33026" xlink:href="#linearGradientWhitePieces"/>
    <linearGradient id="linearGradientWhitePieces">
      <stop id="stop7929" offset="0" style="stop-color:#ede3de;stop-opacity:1;"/>
      <stop id="stop7931" offset="1" style="stop-color:#d0b090;stop-opacity:1;"/>
    </linearGradient>
    <linearGradient id="linearGradient10711" gradientUnits="userSpaceOnUse" gradientTransform="matrix(0.16246812,0,0,0.16246812,1026.3686,249.20873)" x1="466.62888" y1="160.41989" x2="466.62888" y2="546.33032" xlink:href="#linearGradientWhitePiecesGrad"/>
    <linearGradient id="linearGradientWhitePiecesGrad">
      <stop id="stop4680" offset="0" style="stop-color:#ab7469;stop-opacity:1;"/>
      <stop id="stop4682" offset="1" style="stop-color:#000000;stop-opacity:0;"/>
    </linearGradient>
    <linearGradient id="linearGradient12187" x1="1052.6279" y1="333.63751" x2="1153.7426" y2="333.63751" gradientUnits="userSpaceOnUse" xlink:href="#linearGradientWhitePiecesBorder"/>
    <linearGradient id="linearGradientWhitePiecesBorder">
      <stop id="stop12143" offset="0" style="stop-color:#000000;stop-opacity:1;"/>
      <stop id="stop12145" offset="1" style="stop-color:#000000;stop-opacity:1;"/>
    </linearGradient>
    <linearGradient id="linearGradient10713" gradientUnits="userSpaceOnUse" gradientTransform="matrix(-0.16246811,0,0,0.16246811,1178.0075,249.47947)" x1="337.50623" y1="472.64157" x2="352.78772" y2="578.18219" xlink:href="#linearGradientWhitePiecesEye"/>
    <linearGradient id="linearGradientWhitePiecesEye">
      <stop id="stop4692" offset="0" style="stop-color:#4f98ae;stop-opacity:1;"/>
      <stop id="stop4694" offset="1" style="stop-color:#7294cd;stop-opacity:0.1375;"/>
    </linearGradient>
    <linearGradient id="linearGradient10715" gradientUnits="userSpaceOnUse" gradientTransform="matrix(0.16246811,0,0,0.16246811,1026.3686,249.20871)" x1="337.50623" y1="472.64157" x2="352.78772" y2="578.18219" xlink:href="#linearGradientWhitePiecesEye"/>
    <linearGradient id="linearGradient12175" x1="1091.5129" y1="359.53296" x2="1112.1018" y2="359.53296" gradientUnits="userSpaceOnUse" xlink:href="#linearGradientWhitePiecesBorder"/>
    <linearGradient id="linearGradient12173" x1="1058.6449" y1="357.43976" x2="1094.3326" y2="357.43976" gradientUnits="userSpaceOnUse" xlink:href="#linearGradientWhitePiecesBorder"/>
    <linearGradient id="linearGradient12171" x1="1050.3427" y1="361.52765" x2="1086.0624" y2="361.52765" gradientUnits="userSpaceOnUse" xlink:href="#linearGradientWhitePiecesBorder"/>
    <linearGradient id="linearGradient12169" x1="1056.5294" y1="365.49857" x2="1092.3632" y2="365.49857" gradientUnits="userSpaceOnUse" xlink:href="#linearGradientWhitePiecesBorder"/>
    <linearGradient id="linearGradient12167" x1="1080.1382" y1="367.83194" x2="1122.891" y2="367.83194" gradientUnits="userSpaceOnUse" xlink:href="#linearGradientWhitePiecesBorder"/>
    <linearGradient id="linearGradient12183" x1="1068.8458" y1="340.98209" x2="1097.0699" y2="340.98209" gradientUnits="userSpaceOnUse" xlink:href="#linearGradientWhitePiecesBorder"/>
    <linearGradient id="linearGradient10717" gradientUnits="userSpaceOnUse" gradientTransform="matrix(0.03938194,0,0,0.03938194,1002.1656,342.44053)" x1="2087.1404" y1="-485" x2="2033.2518" y2="-862.51611" xlink:href="#linearGradientWhitePiecesShade"/>
    <linearGradient id="linearGradientWhitePiecesShade">
      <stop offset="0" id="stop13557" style="stop-color:#1a0f00;stop-opacity:1;"/>
      <stop style="stop-color:#000000;stop-opacity:0;" offset="1" id="stop13559"/>
    </linearGradient>
    <linearGradient id="linearGradient10719" gradientUnits="userSpaceOnUse" gradientTransform="matrix(0.03938194,0,0,0.03938194,998.04218,344.47888)" x1="2394.7349" y1="-485" x2="2394.7349" y2="-938.33337" xlink:href="#linearGradientWhitePiecesShade"/>
    <linearGradient id="linearGradient10721" gradientUnits="userSpaceOnUse" gradientTransform="matrix(0.00384395,-0.03919383,0.03919383,0.00384395,1077.6973,429.39429)" x1="2470.0815" y1="-364.98831" x2="2309.7107" y2="-733.76135" xlink:href="#linearGradientWhitePiecesShade"/>
    <linearGradient id="linearGradient10723" gradientUnits="userSpaceOnUse" gradientTransform="matrix(0.00157892,-0.03935017,0.03935017,0.00157892,1106.0528,430.71223)" x1="2234.7434" y1="-614.40747" x2="1987.2833" y2="-832.36462" xlink:href="#linearGradientWhitePiecesShade"/>
    <linearGradient id="linearGradient10725" gradientUnits="userSpaceOnUse" gradientTransform="matrix(-0.03938194,0,0,0.03938194,1203.4021,343.18311)" x1="2087.1404" y1="-485" x2="2033.2518" y2="-862.51611" xlink:href="#linearGradientWhitePiecesShade"/>
    <linearGradient id="linearGradient10727" gradientUnits="userSpaceOnUse" gradientTransform="matrix(-0.03938194,0,0,0.03938194,1206.218,344.3627)" x1="2394.7349" y1="-485" x2="2394.7349" y2="-938.33337" xlink:href="#linearGradientWhitePiecesShade"/>
    <linearGradient id="linearGradient10729" gradientUnits="userSpaceOnUse" gradientTransform="matrix(-0.00384395,-0.03919383,-0.03919383,0.00384395,1126.7098,429.76549)" x1="2437.9685" y1="-388.63342" x2="2293.6538" y2="-745.58392" xlink:href="#linearGradientWhitePiecesShade"/>
    <linearGradient id="linearGradient10731" gradientUnits="userSpaceOnUse" gradientTransform="matrix(-0.00157892,-0.03935017,-0.03935017,0.00157892,1097.983,431.45463)" x1="2234.7434" y1="-614.40747" x2="1987.2833" y2="-832.36462" xlink:href="#linearGradientWhitePiecesShade"/>
    <linearGradient id="linearGradient12165" x1="1060.5927" y1="375.10333" x2="1090.1785" y2="375.10333" gradientUnits="userSpaceOnUse" xlink:href="#linearGradientWhitePiecesBorder"/>
    <linearGradient id="linearGradient12163" x1="1054.0176" y1="371.78387" x2="1087.007" y2="371.78387" gradientUnits="userSpaceOnUse" xlink:href="#linearGradientWhitePiecesBorder"/>
    <linearGradient id="linearGradient12161" x1="1110.4926" y1="357.06845" x2="1146.1805" y2="357.06845" gradientUnits="userSpaceOnUse" xlink:href="#linearGradientWhitePiecesBorder"/>
    <linearGradient id="linearGradient12159" x1="1118.7629" y1="361.15637" x2="1154.4828" y2="361.15637" gradientUnits="userSpaceOnUse" xlink:href="#linearGradientWhitePiecesBorder"/>
    <linearGradient id="linearGradient12157" x1="1112.4623" y1="365.12726" x2="1148.296" y2="365.12726" gradientUnits="userSpaceOnUse" xlink:href="#linearGradientWhitePiecesBorder"/>
    <linearGradient id="linearGradient12155" x1="1114.6469" y1="374.73206" x2="1144.2328" y2="374.73206" gradientUnits="userSpaceOnUse" xlink:href="#linearGradientWhitePiecesBorder"/>
    <linearGradient id="linearGradient12153" x1="1117.8184" y1="371.41257" x2="1150.8077" y2="371.41257" gradientUnits="userSpaceOnUse" xlink:href="#linearGradientWhitePiecesBorder"/>
    <linearGradient id="linearGradient10733" gradientUnits="userSpaceOnUse" gradientTransform="matrix(0.03561257,0,0,0.03561257,990.41242,322.47253)" x1="1647.1403" y1="-382.90863" x2="2633.2517" y2="-582.90863" xlink:href="#linearGradientWhitePiecesShade"/>
    <linearGradient id="linearGradient10735" gradientUnits="userSpaceOnUse" gradientTransform="matrix(-0.03561257,0,0,0.03561257,1216.7797,321.93095)" x1="1647.1403" y1="-382.90863" x2="2633.2517" y2="-582.90863" xlink:href="#linearGradientWhitePiecesShade"/>
    <linearGradient id="linearGradient12185" x1="1107.4069" y1="340.48315" x2="1135.631" y2="340.48315" gradientUnits="userSpaceOnUse" xlink:href="#linearGradientWhitePiecesBorder"/>
    <linearGradient id="linearGradient10737" gradientUnits="userSpaceOnUse" gradientTransform="matrix(0.03888114,-0.00625959,-0.00625959,-0.03888114,1005.9366,314.04368)" x1="2653.51" y1="1167.8967" x2="2228.9055" y2="-1469.516" xlink:href="#linearGradientWhitePiecesShade"/>
    <linearGradient id="linearGradient10739" gradientUnits="userSpaceOnUse" gradientTransform="matrix(-0.00384395,-0.03919383,-0.03919383,0.00384395,1124.4121,415.97966)" x1="2437.9685" y1="-388.63342" x2="2293.6538" y2="-745.58392" xlink:href="#linearGradientWhitePiecesShade"/>
    <linearGradient id="linearGradient10741" gradientUnits="userSpaceOnUse" gradientTransform="matrix(0.00384395,-0.03919383,0.03919383,0.00384395,1080.7608,417.14016)" x1="2470.0815" y1="-364.98831" x2="2309.7107" y2="-733.76135" xlink:href="#linearGradientWhitePiecesShade"/>
  </defs>
  <g id="WhitePawn" transform="matrix(1, 0, 0, 1, 0.612308, 0.612308)">
    <rect style="fill:none;stroke:none" id="rect10330" width="200" height="200" x="1000" y="200"/>
    <path style="fill:url(#linearGradient10709);fill-opacity:1;fill-rule:evenodd;stroke:none" d="m 1087.2776,301.32468 c -10.7773,-4.62761 -11.2288,-14.70179 -30.2905,-18.63759 -6.5866,-1.35998 1.6321,16.36334 2.7883,31.37106 1.1563,15.00971 -6.342,28.14484 0.694,40.22628 9.3503,16.05541 16.2268,17.62644 22.5564,23.50021 11.5284,10.69819 26.5575,9.85474 35.6545,1.1883 7.6962,-7.33184 18.5086,-10.99684 26.9689,-27.29475 6.7693,-13.04054 2.7152,-22.81753 3.5907,-36.69531 1.0214,-16.18848 5.8852,-34.39202 -0.7597,-33.30229 -20.3226,3.33285 -21.5387,18.63106 -30.5274,21.28846 -9.5769,2.83127 -21.8147,2.16023 -30.6752,-1.64437 z" id="path10332"/>
    <path id="path10334" d="m 1087.2776,301.32468 c -10.7773,-4.62761 -11.2288,-14.70179 -30.2905,-18.63759 -6.5866,-1.35998 1.6321,16.36334 2.7883,31.37106 1.1563,15.00971 -6.342,28.14484 0.694,40.22628 9.3503,16.05541 16.2268,17.62644 22.5564,23.50021 11.5284,10.69819 26.5575,9.85474 35.6545,1.1883 7.6962,-7.33184 18.5086,-10.99684 26.9689,-27.29475 6.7693,-13.04054 2.7152,-22.81753 3.5907,-36.69531 1.0214,-16.18848 5.8852,-34.39202 -0.7597,-33.30229 -20.3226,3.33285 -21.5387,18.63106 -30.5274,21.28846 -9.5769,2.83127 -21.8147,2.16023 -30.6752,-1.64437 z" style="fill:url(#linearGradient10711);fill-opacity:1.0;fill-rule:evenodd;stroke:url(#linearGradient12187);stroke-width:3.65715121999999981;stroke-linecap:round;stroke-linejoin:round;stroke-miterlimit:4;stroke-opacity:1;stroke-dasharray:none"/>
    <path style="fill:url(#linearGradient10713);fill-opacity:1.0;fill-rule:evenodd;stroke:none" d="m 1112.5673,336.33629 c 3.1555,-10.13137 11.919,-13.19849 20.7409,-6.51579 2.1983,1.66528 -3.0548,15.73029 -20.7409,6.51579 z" id="path10336"/>
    <path id="path10338" d="m 1091.8087,336.06551 c -3.1555,-10.13137 -11.919,-13.19849 -20.7408,-6.51579 -2.1983,1.66528 3.0548,15.73028 20.7408,6.51579 z" style="fill:url(#linearGradient10715);fill-opacity:1.0;fill-rule:evenodd;stroke:none"/>
    <path id="path10340" d="m 1093.3415,356.70092 c 0.4654,2.06052 4.5716,3.95795 6.237,3.02307 0.7957,4.98222 1.6042,2.70664 2.4139,2.57815 0.7174,-0.11382 1.8316,2.73648 1.9208,-2.55659 1.818,0.29622 5.9418,-0.38544 6.2287,-3.06178 l 0.1313,-0.13127 c -5.2856,-0.66291 -12.6963,-0.58883 -16.9317,0.14842 z" style="fill:#c1856e;fill-opacity:1;fill-rule:evenodd;stroke:url(#linearGradient12175);stroke-width:3.65715122;stroke-linecap:round;stroke-linejoin:round;stroke-miterlimit:4;stroke-opacity:1;stroke-dasharray:none"/>
    <path style="fill:none;stroke:url(#linearGradient12173);stroke-width:3.65715122;stroke-linecap:round;stroke-linejoin:round;stroke-miterlimit:4;stroke-opacity:1;stroke-dasharray:none" d="m 1092.5041,359.04669 c -10.8892,-3.34279 -21.4875,-3.48453 -32.0306,-3.01928" id="path10342"/>
    <path id="path10344" d="m 1084.2338,360.44402 c -11.3073,-1.3767 -21.7655,0.34666 -32.0626,2.65787" style="fill:none;stroke:url(#linearGradient12171);stroke-width:3.65715146;stroke-linecap:round;stroke-linejoin:round;stroke-miterlimit:4;stroke-opacity:1;stroke-dasharray:none"/>
    <path style="fill:none;stroke:url(#linearGradient12169);stroke-width:3.65715122;stroke-linecap:round;stroke-linejoin:round;stroke-miterlimit:4;stroke-opacity:1;stroke-dasharray:none" d="m 1090.5345,362.23768 c -11.3707,0.67836 -22.4626,2.39717 -32.1765,6.52177" id="path10346"/>
    <path id="path10348" d="m 1121.0624,370.82882 c -9.7283,3.52688 -19.7511,-1.07309 -18.718,-5.43547 0.6578,-2.77754 -1.7226,-2.02001 -1.1074,-0.002 1.0812,3.54701 -12.295,8.99836 -19.2702,5.35357" style="fill:none;stroke:url(#linearGradient12167);stroke-width:3.65715122;stroke-linecap:round;stroke-linejoin:round;stroke-miterlimit:4;stroke-opacity:1;stroke-dasharray:none"/>
    <path style="fill:none;stroke:url(#linearGradient12183);stroke-width:3.65715122;stroke-linecap:round;stroke-linejoin:round;stroke-miterlimit:4;stroke-opacity:1;stroke-dasharray:none" d="m 1094.1489,355.54323 c -0.6069,-3.64075 3.0055,-6.40877 -0.3674,-17.23797 -3.1555,-10.13137 -12.4987,-15.79253 -22.7135,-8.75543 -1.6493,1.13622 1.3736,15.6306 18.9361,7.44972" id="path10350"/>
    <path style="fill:#000000;fill-opacity:1;fill-rule:evenodd;stroke:#000000;stroke-width:3.65714765;stroke-linecap:round;stroke-linejoin:round;stroke-miterlimit:4;stroke-opacity:1;stroke-dasharray:none" d="m 1080.0974,329.65602 c 2.3848,2.02638 1.8192,4.47583 0.6385,7.01348 -1.054,-1.89255 -1.7447,-3.97741 -0.6385,-7.01348 z" id="path10352"/>
    <path style="fill:url(#linearGradient10717);fill-opacity:1.0;fill-rule:evenodd;stroke:none" d="m 1075.7157,313.52829 c 4.5429,4.07712 4.5791,4.75508 7.839,9.81201 2.2484,-5.95103 3.258,-11.90207 9.4517,-17.85311 l -17.2907,8.0411 z" id="path10354"/>
    <path style="fill:url(#linearGradient10719);fill-opacity:1.0;fill-rule:evenodd;stroke:none" d="m 1090.4948,308.39183 3.3417,18.56479 0.3713,-18.93609 -3.713,0.3713 z" id="path10356"/>
    <path id="path10358" d="m 1059.7177,340.91542 c 3.5191,-2.63401 8.1518,-4.15447 9.8912,-8.56827 -4.688,0.57905 -3.8552,-4.64839 -11.7921,3.23514 l 1.9009,5.33313 z" style="fill:url(#linearGradient10721);fill-opacity:1.0;fill-rule:evenodd;stroke:none"/>
    <path id="path10360" d="m 1081.5979,353.0916 c 4.256,-4.37585 3.4497,-1.41443 8.6332,-4.46899 -5.8561,-2.48511 -8.7915,-4.47512 -20.0589,-6.81817 -6.4636,5.45383 3.7949,6.77297 11.4257,11.28716 z" style="fill:url(#linearGradient10723);fill-opacity:1.0;fill-rule:evenodd;stroke:none"/>
    <path id="path10362" d="m 1129.852,314.27088 c -4.5431,4.07712 -4.5792,4.75508 -7.8391,9.81202 -2.2484,-5.95104 -3.258,-11.90208 -9.4517,-17.85312 l 17.2908,8.0411 z" style="fill:url(#linearGradient10725);fill-opacity:1.0;fill-rule:evenodd;stroke:none"/>
    <path id="path10364" d="m 1113.7653,308.27562 -3.3417,18.56479 -0.3713,-18.93608 3.713,0.37129 z" style="fill:url(#linearGradient10727);fill-opacity:1.0;fill-rule:evenodd;stroke:none"/>
    <path style="fill:url(#linearGradient10729);fill-opacity:1.0;fill-rule:evenodd;stroke:none" d="m 1144.6895,341.28672 c -3.5192,-2.63402 -8.1519,-4.15448 -9.8912,-8.56828 4.6879,0.57905 7.5308,-0.44765 15.4677,7.43588 l -5.5765,1.1324 z" id="path10366"/>
    <path style="fill:url(#linearGradient10731);fill-opacity:1.0;fill-rule:evenodd;stroke:none" d="m 1122.4379,353.8342 c -4.256,-4.37586 -3.4496,-1.41443 -8.6332,-4.469 5.8561,-2.48511 8.7915,-4.47513 20.0589,-6.81817 6.4636,5.45383 -3.7949,6.77297 -11.4257,11.28717 z" id="path10368"/>
    <path style="fill:none;stroke:url(#linearGradient12165);stroke-width:3.65715146;stroke-linecap:round;stroke-linejoin:round;stroke-miterlimit:4;stroke-opacity:1;stroke-dasharray:none" d="m 1088.3499,365.57995 c -10.3553,4.74537 -18.3645,11.68778 -25.9287,19.04679" id="path10370"/>
    <path style="fill:none;stroke:url(#linearGradient12163);stroke-width:3.65715146;stroke-linecap:round;stroke-linejoin:round;stroke-miterlimit:4;stroke-opacity:1;stroke-dasharray:none" d="m 1085.1783,365.17507 c -11.1175,2.4803 -20.3989,7.59882 -29.3321,13.21759" id="path10372"/>
    <path id="path10374" d="m 1112.3212,358.67539 c 10.8893,-3.34279 21.4876,-3.48453 32.0307,-3.01928" style="fill:none;stroke:url(#linearGradient12161);stroke-width:3.65715122;stroke-linecap:round;stroke-linejoin:round;stroke-miterlimit:4;stroke-opacity:1;stroke-dasharray:none"/>
    <path style="fill:none;stroke:url(#linearGradient12159);stroke-width:3.65715146;stroke-linecap:round;stroke-linejoin:round;stroke-miterlimit:4;stroke-opacity:1;stroke-dasharray:none" d="m 1120.5915,360.07272 c 11.3074,-1.3767 21.7656,0.34667 32.0627,2.65787" id="path10376"/>
    <path id="path10378" d="m 1114.2909,361.86638 c 11.3706,0.67837 22.4626,2.39717 32.1765,6.52177" style="fill:none;stroke:url(#linearGradient12157);stroke-width:3.65715122;stroke-linecap:round;stroke-linejoin:round;stroke-miterlimit:4;stroke-opacity:1;stroke-dasharray:none"/>
    <path id="path10380" d="m 1116.4755,365.20865 c 10.3553,4.74536 18.3645,11.68777 25.9287,19.0468" style="fill:none;stroke:url(#linearGradient12155);stroke-width:3.65715146;stroke-linecap:round;stroke-linejoin:round;stroke-miterlimit:4;stroke-opacity:1;stroke-dasharray:none"/>
    <path id="path10382" d="m 1119.647,364.80377 c 11.1176,2.4803 20.399,7.59882 29.3322,13.2176" style="fill:none;stroke:url(#linearGradient12153);stroke-width:3.65715146;stroke-linecap:round;stroke-linejoin:round;stroke-miterlimit:4;stroke-opacity:1;stroke-dasharray:none"/>
    <path id="path10384" d="m 1058.0725,287.91409 c 0.7843,3.21204 3.9407,17.4618 5.9389,28.68237 2.0331,-5.38144 11.968,-5.53971 17.5688,-10.92115 -12.848,-20.67285 -19.6572,-17.24688 -23.5077,-17.76122 z" style="fill:url(#linearGradient10733);fill-opacity:1.0;fill-rule:evenodd;stroke:none"/>
    <path style="fill:url(#linearGradient10735);fill-opacity:1.0;fill-rule:evenodd;stroke:none" d="m 1148.6438,285.76432 c -0.7844,3.21204 -1.8897,19.07001 -3.888,30.29058 -2.0331,-5.38144 -13.5432,-5.53972 -19.1441,-10.92115 12.8481,-20.67285 18.0985,-18.8551 23.0321,-19.36943 z" id="path10386"/>
    <path id="path10388" d="m 1110.3278,355.04428 c 0.6069,-3.64075 -3.0054,-6.40877 0.3674,-17.23797 3.1555,-10.13138 12.4987,-15.79253 22.7136,-8.75544 1.6493,1.13623 -1.3736,15.63061 -18.9362,7.44972" style="fill:none;stroke:url(#linearGradient12185);stroke-width:3.65715122;stroke-linecap:round;stroke-linejoin:round;stroke-miterlimit:4;stroke-opacity:1;stroke-dasharray:none"/>
    <path id="path10390" d="m 1123.7295,328.5072 c -2.3848,2.02637 -1.8193,4.47582 -0.6386,7.01348 1.054,-1.89255 1.7447,-3.97741 0.6386,-7.01348 z" style="fill:#000000;fill-opacity:1;fill-rule:evenodd;stroke:#000000;stroke-width:3.65714765;stroke-linecap:round;stroke-linejoin:round;stroke-miterlimit:4;stroke-opacity:1;stroke-dasharray:none"/>
    <path style="fill:url(#linearGradient10737);fill-opacity:1.0;fill-rule:evenodd;stroke:none" d="m 1098.8881,346.89135 c -4.7964,-16.89058 -4.476,-38.7489 3.8685,-38.62686 6.6931,0.10117 5.5573,26.86582 3.3764,40.29873 0,0 -4.488,8.03652 -7.2449,-1.67187 z" id="path10392"/>
    <path id="path10394" d="m 1142.3918,327.50085 c -3.5191,-2.63401 -8.1518,-4.15448 -9.8912,-8.56827 4.688,0.57905 7.5308,-0.44766 15.4678,7.43587 l -5.5766,1.1324 z" style="fill:url(#linearGradient10739);fill-opacity:1.0;fill-rule:evenodd;stroke:none"/>
    <path style="fill:url(#linearGradient10741);fill-opacity:1.0;fill-rule:evenodd;stroke:none" d="m 1062.7812,328.66131 c 3.5192,-2.634 8.1519,-4.15446 9.8912,-8.56826 -4.688,0.57905 -3.8552,-4.64839 -11.7921,3.23513 l 1.9009,5.33313 z" id="path10396"/>
  </g>
</svg>