<?xml version="1.0" encoding="utf-8"?>
<svg viewBox="200 200 200 200" xmlns="http://www.w3.org/2000/svg" xmlns:xlink="http://www.w3.org/1999/xlink">
  <defs>
    <linearGradient id="linearGradient10749" gradientUnits="userSpaceOnUse" gradientTransform="matrix(0.1728368,0,0,0.1728368,217.15502,248.22697)" x1="472.81" y1="747.08655" x2="472.81" y2="566.33026" xlink:href="#linearGradientWhitePieces"/>
    <linearGradient id="linearGradientWhitePieces">
      <stop id="stop7929" offset="0" style="stop-color:#ede3de;stop-opacity:1;"/>
      <stop id="stop7931" offset="1" style="stop-color:#d0b090;stop-opacity:1;"/>
    </linearGradient>
    <linearGradient id="linearGradient10751" gradientUnits="userSpaceOnUse" gradientTransform="matrix(0.1728368,0,0,0.1728368,217.15502,248.22697)" x1="466.62888" y1="160.41989" x2="463.51178" y2="586.85248" xlink:href="#linearGradientWhitePiecesGrad"/>
    <linearGradient id="linearGradientWhitePiecesGrad">
      <stop id="stop4680" offset="0" style="stop-color:#ab7469;stop-opacity:1;"/>
      <stop id="stop4682" offset="1" style="stop-color:#000000;stop-opacity:0;"/>
    </linearGradient>
    <linearGradient id="linearGradient12337" x1="245.20686" y1="338.04398" x2="352.54108" y2="338.04398" gradientUnits="userSpaceOnUse" xlink:href="#linearGradientWhitePiecesBorder"/>
    <linearGradient id="linearGradientWhitePiecesBorder">
      <stop id="stop12143" offset="0" style="stop-color:#000000;stop-opacity:1;"/>
      <stop id="stop12145" offset="1" style="stop-color:#000000;stop-opacity:1;"/>
    </linearGradient>
    <linearGradient id="linearGradient10753" gradientUnits="userSpaceOnUse" gradientTransform="matrix(-0.1728368,0,0,0.1728368,378.47142,248.51502)" x1="337.50623" y1="472.64157" x2="352.78772" y2="578.18219" xlink:href="#linearGradientWhitePiecesEye"/>
    <linearGradient id="linearGradientWhitePiecesEye">
      <stop id="stop4692" offset="0" style="stop-color:#4f98ae;stop-opacity:1;"/>
      <stop id="stop4694" offset="1" style="stop-color:#7294cd;stop-opacity:0.1375;"/>
    </linearGradient>
    <linearGradient id="linearGradient10755" gradientUnits="userSpaceOnUse" gradientTransform="matrix(0.1728368,0,0,0.1728368,217.15502,248.22697)" x1="337.50623" y1="472.64157" x2="352.78772" y2="578.18219" xlink:href="#linearGradientWhitePiecesEye"/>
    <linearGradient id="linearGradient12361" x1="286.57349" y1="365.59207" x2="308.24286" y2="365.59207" gradientUnits="userSpaceOnUse" xlink:href="#linearGradientWhitePiecesBorder"/>
    <linearGradient id="linearGradient12359" x1="251.60785" y1="363.36526" x2="289.33984" y2="363.36526" gradientUnits="userSpaceOnUse" xlink:href="#linearGradientWhitePiecesBorder"/>
    <linearGradient id="linearGradient12357" x1="242.77568" y1="367.71405" x2="280.54172" y2="367.71405" gradientUnits="userSpaceOnUse" xlink:href="#linearGradientWhitePiecesBorder"/>
    <linearGradient id="linearGradient12355" x1="249.35735" y1="371.93839" x2="287.24445" y2="371.93839" gradientUnits="userSpaceOnUse" xlink:href="#linearGradientWhitePiecesBorder"/>
    <linearGradient id="linearGradient12353" x1="274.47284" y1="374.42068" x2="319.7207" y2="374.42068" gradientUnits="userSpaceOnUse" xlink:href="#linearGradientWhitePiecesBorder"/>
    <linearGradient id="linearGradient12333" x1="262.45978" y1="345.8573" x2="292.25168" y2="345.8573" gradientUnits="userSpaceOnUse" xlink:href="#linearGradientWhitePiecesBorder"/>
    <linearGradient id="linearGradient10757" gradientUnits="userSpaceOnUse" gradientTransform="matrix(0.04189531,0,0,0.04189531,191.40734,347.40885)" x1="2087.1404" y1="-485" x2="2033.2518" y2="-862.51611" xlink:href="#linearGradientWhitePiecesShade"/>
    <linearGradient id="linearGradientWhitePiecesShade">
      <stop offset="0" id="stop13557" style="stop-color:#1a0f00;stop-opacity:1;"/>
      <stop style="stop-color:#000000;stop-opacity:0;" offset="1" id="stop13559"/>
    </linearGradient>
    <linearGradient id="linearGradient10759" gradientUnits="userSpaceOnUse" gradientTransform="matrix(0.04189531,0,0,0.04189531,187.02078,349.5773)" x1="2394.7349" y1="-485" x2="2394.7349" y2="-938.33337" xlink:href="#linearGradientWhitePiecesShade"/>
    <linearGradient id="linearGradient10761" gradientUnits="userSpaceOnUse" gradientTransform="matrix(0.00408927,-0.04169509,0.04169509,0.00408927,271.75944,439.912)" x1="2470.0815" y1="-364.98831" x2="2309.7107" y2="-733.76135" xlink:href="#linearGradientWhitePiecesShade"/>
    <linearGradient id="linearGradient10763" gradientUnits="userSpaceOnUse" gradientTransform="matrix(0.00167969,-0.04186149,0.04186149,0.00167969,301.92463,441.31383)" x1="2234.7434" y1="-614.40747" x2="1987.2833" y2="-832.36462" xlink:href="#linearGradientWhitePiecesShade"/>
    <linearGradient id="linearGradient10765" gradientUnits="userSpaceOnUse" gradientTransform="matrix(-0.04189531,0,0,0.04189531,405.48668,348.19883)" x1="2087.1404" y1="-485" x2="2033.2518" y2="-862.51611" xlink:href="#linearGradientWhitePiecesShade"/>
    <linearGradient id="linearGradient10767" gradientUnits="userSpaceOnUse" gradientTransform="matrix(-0.04189531,0,0,0.04189531,408.4823,349.45369)" x1="2394.7349" y1="-485" x2="2394.7349" y2="-938.33337" xlink:href="#linearGradientWhitePiecesShade"/>
    <linearGradient id="linearGradient10769" gradientUnits="userSpaceOnUse" gradientTransform="matrix(-0.00408927,-0.04169509,-0.04169509,0.00408927,323.89996,440.30674)" x1="2437.9685" y1="-388.63342" x2="2293.6538" y2="-745.58392" xlink:href="#linearGradientWhitePiecesShade"/>
    <linearGradient id="linearGradient10771" gradientUnits="userSpaceOnUse" gradientTransform="matrix(-0.00167969,-0.04186149,-0.04186149,0.00167969,293.33983,442.10377)" x1="2234.7434" y1="-614.40747" x2="1987.2833" y2="-832.36462" xlink:href="#linearGradientWhitePiecesShade"/>
    <linearGradient id="linearGradient12351" x1="253.67982" y1="382.15613" x2="284.92047" y2="382.15613" gradientUnits="userSpaceOnUse" xlink:href="#linearGradientWhitePiecesBorder"/>
    <linearGradient id="linearGradient12349" x1="246.68523" y1="378.62479" x2="281.54648" y2="378.62479" gradientUnits="userSpaceOnUse" xlink:href="#linearGradientWhitePiecesBorder"/>
    <linearGradient id="linearGradient12347" x1="306.7645" y1="362.97025" x2="344.49649" y2="362.97025" gradientUnits="userSpaceOnUse" xlink:href="#linearGradientWhitePiecesBorder"/>
    <linearGradient id="linearGradient12345" x1="315.56259" y1="367.31906" x2="353.32864" y2="367.31906" gradientUnits="userSpaceOnUse" xlink:href="#linearGradientWhitePiecesBorder"/>
    <linearGradient id="linearGradient12343" x1="308.85989" y1="371.5434" x2="346.74698" y2="371.5434" gradientUnits="userSpaceOnUse" xlink:href="#linearGradientWhitePiecesBorder"/>
    <linearGradient id="linearGradient12341" x1="311.18384" y1="381.76114" x2="342.42447" y2="381.76114" gradientUnits="userSpaceOnUse" xlink:href="#linearGradientWhitePiecesBorder"/>
    <linearGradient id="linearGradient12339" x1="314.55786" y1="378.22983" x2="349.4191" y2="378.22983" gradientUnits="userSpaceOnUse" xlink:href="#linearGradientWhitePiecesBorder"/>
    <linearGradient id="linearGradient10773" gradientUnits="userSpaceOnUse" gradientTransform="matrix(0.03788526,0,0,0.03788526,178.90407,326.16649)" x1="1647.1403" y1="-382.90863" x2="2633.2517" y2="-582.90863" xlink:href="#linearGradientWhitePiecesShade"/>
    <linearGradient id="linearGradient10775" gradientUnits="userSpaceOnUse" gradientTransform="matrix(-0.03788526,0,0,0.03788526,419.71814,325.59035)" x1="1647.1403" y1="-382.90863" x2="2633.2517" y2="-582.90863" xlink:href="#linearGradientWhitePiecesShade"/>
    <linearGradient id="linearGradient10777" gradientUnits="userSpaceOnUse" gradientTransform="matrix(0.08688183,0,0,0.15594743,259.78387,212.90143)" x1="-240.84088" y1="-81.381439" x2="646.93561" y2="602.71436" xlink:href="#linearGradientWhitePieces"/>
    <linearGradient id="linearGradient12331" x1="249.21779" y1="269.70261" x2="343.70499" y2="269.70261" gradientUnits="userSpaceOnUse" xlink:href="#linearGradientWhitePiecesBorder"/>
    <linearGradient id="linearGradient10779" gradientUnits="userSpaceOnUse" x1="-26.298311" y1="119.28284" x2="128.88431" y2="288.96759" xlink:href="#linearGradientWhitePieces"/>
    <linearGradient id="linearGradient12329" x1="32.829487" y1="245.83333" x2="140.50385" y2="245.83333" gradientUnits="userSpaceOnUse" xlink:href="#linearGradientWhitePiecesBorder"/>
    <linearGradient id="linearGradient10781" gradientUnits="userSpaceOnUse" x1="-30.318884" y1="123.72321" x2="127.46282" y2="290.53751" xlink:href="#linearGradientWhitePieces"/>
    <linearGradient id="linearGradient12327" x1="32.829487" y1="245.83333" x2="140.50385" y2="245.83333" gradientUnits="userSpaceOnUse" xlink:href="#linearGradientWhitePiecesBorder"/>
    <linearGradient id="linearGradient10783" gradientUnits="userSpaceOnUse" x1="-4.1851606" y1="121.50303" x2="126.04134" y2="285.82776" xlink:href="#linearGradientWhitePieces"/>
    <linearGradient id="linearGradient12325" x1="32.829487" y1="245.83333" x2="140.50385" y2="245.83333" gradientUnits="userSpaceOnUse" xlink:href="#linearGradientWhitePiecesBorder"/>
    <linearGradient id="linearGradient10785" gradientUnits="userSpaceOnUse" x1="-18.257166" y1="54.897514" x2="120.35538" y2="290.53751" xlink:href="#linearGradientWhitePieces"/>
    <linearGradient id="linearGradient12323" x1="32.829487" y1="245.83333" x2="140.50385" y2="245.83333" gradientUnits="userSpaceOnUse" xlink:href="#linearGradientWhitePiecesBorder"/>
    <linearGradient id="linearGradient12335" x1="303.48175" y1="345.32648" x2="333.27365" y2="345.32648" gradientUnits="userSpaceOnUse" xlink:href="#linearGradientWhitePiecesBorder"/>
    <linearGradient id="linearGradient10787" gradientUnits="userSpaceOnUse" gradientTransform="matrix(0.04136251,-0.00665908,-0.00665908,-0.04136251,195.41897,317.19973)" x1="2653.51" y1="1167.8967" x2="2228.9055" y2="-1469.516" xlink:href="#linearGradientWhitePiecesShade"/>
    <linearGradient id="linearGradient10789" gradientUnits="userSpaceOnUse" gradientTransform="matrix(-0.00408927,-0.04169509,-0.04169509,0.00408927,321.45569,425.64123)" x1="2437.9685" y1="-388.63342" x2="2293.6538" y2="-745.58392" xlink:href="#linearGradientWhitePiecesShade"/>
    <linearGradient id="linearGradient10791" gradientUnits="userSpaceOnUse" gradientTransform="matrix(0.00408927,-0.04169509,0.04169509,0.00408927,275.01848,426.87598)" x1="2470.0815" y1="-364.98831" x2="2309.7107" y2="-733.76135" xlink:href="#linearGradientWhitePiecesShade"/>
  </defs>
  <g id="WhiteQueen">
    <rect style="fill:none;stroke:none" id="rect10411" width="200" height="200" x="200" y="200"/>
    <path style="fill:url(#linearGradient10749);fill-opacity:1;fill-rule:evenodd;stroke:none" d="m 281.95114,303.66894 c -11.46505,-4.92294 -11.94535,-15.64005 -32.2236,-19.82703 -7.00697,-1.44678 1.73628,17.40764 2.9662,33.37315 1.2301,15.96762 -6.74673,29.94103 0.7383,42.7935 9.94711,17.08006 17.2624,18.75135 23.99596,24.99999 12.26417,11.38094 28.2524,10.48366 37.93001,1.26414 8.18731,-7.79977 19.68974,-11.69865 28.68994,-29.0367 7.20137,-13.87277 2.88845,-24.27373 3.81992,-39.03719 1.08656,-17.22162 6.2607,-36.5869 -0.80818,-35.42763 -21.61965,3.54556 -22.91326,19.8201 -32.47565,22.64709 -10.18804,3.01195 -23.20685,2.2981 -32.6329,-1.74932 z" id="path10413"/>
    <path id="path10415" d="m 281.95114,303.66894 c -11.46505,-4.92294 -11.94535,-15.64005 -32.2236,-19.82703 -7.00697,-1.44678 1.73628,17.40764 2.9662,33.37315 1.2301,15.96762 -6.74673,29.94103 0.7383,42.7935 9.94711,17.08006 17.2624,18.75135 23.99596,24.99999 12.26417,11.38094 28.2524,10.48366 37.93001,1.26414 8.18731,-7.79977 19.68974,-11.69865 28.68994,-29.0367 7.20137,-13.87277 2.88845,-24.27373 3.81992,-39.03719 1.08656,-17.22162 6.2607,-36.5869 -0.80818,-35.42763 -21.61965,3.54556 -22.91326,19.8201 -32.47565,22.64709 -10.18804,3.01195 -23.20685,2.2981 -32.6329,-1.74932 z" style="fill:url(#linearGradient10751);fill-opacity:1.0;fill-rule:evenodd;stroke:url(#linearGradient12337);stroke-width:3.65714930999999988;stroke-linecap:round;stroke-linejoin:round;stroke-miterlimit:4;stroke-opacity:1;stroke-dasharray:none"/>
    <path style="fill:url(#linearGradient10753);fill-opacity:1.0;fill-rule:evenodd;stroke:none" d="m 308.85491,340.91504 c 3.35687,-10.77795 12.67966,-14.04082 22.06449,-6.93162 2.33862,1.77156 -3.24975,16.73419 -22.06449,6.93162 z" id="path10417"/>
    <path id="path10419" d="m 286.77151,340.62698 c -3.35687,-10.77795 -12.67966,-14.04082 -22.06449,-6.93162 -2.33862,1.77155 3.24975,16.73419 22.06449,6.93162 z" style="fill:url(#linearGradient10755);fill-opacity:1.0;fill-rule:evenodd;stroke:none"/>
    <path id="path10421" d="m 288.40205,362.57927 c 0.49511,2.19202 4.86338,4.21056 6.63501,3.216 0.84652,5.30018 1.70659,2.87938 2.56804,2.7427 0.76311,-0.1211 1.94841,2.91111 2.04333,-2.71977 1.93405,0.31513 6.32097,-0.41004 6.6262,-3.25717 l 0.13966,-0.13966 c -5.62284,-0.70521 -13.50654,-0.6264 -18.01224,0.1579 z" style="fill:#c1856e;fill-opacity:1;fill-rule:evenodd;stroke:url(#linearGradient12361);stroke-width:3.65714931;stroke-linecap:round;stroke-linejoin:round;stroke-miterlimit:4;stroke-opacity:1;stroke-dasharray:none"/>
    <path style="fill:none;stroke:url(#linearGradient12359);stroke-width:3.65714931;stroke-linecap:round;stroke-linejoin:round;stroke-miterlimit:4;stroke-opacity:1;stroke-dasharray:none" d="m 287.51126,365.07475 c -11.58423,-3.55612 -22.85887,-3.70691 -34.07484,-3.21198" id="path10423"/>
    <path id="path10425" d="m 278.71316,366.56126 c -12.02894,-1.46457 -23.15456,0.36878 -34.10891,2.82747" style="fill:none;stroke:url(#linearGradient12357);stroke-width:3.65714979;stroke-linecap:round;stroke-linejoin:round;stroke-miterlimit:4;stroke-opacity:1;stroke-dasharray:none"/>
    <path style="fill:none;stroke:url(#linearGradient12355);stroke-width:3.65714931;stroke-linecap:round;stroke-linejoin:round;stroke-miterlimit:4;stroke-opacity:1;stroke-dasharray:none" d="m 285.41588,368.46937 c -12.09628,0.72167 -23.89607,2.55018 -34.22997,6.93799" id="path10427"/>
    <path id="path10429" d="m 317.89212,377.6088 c -10.34921,3.75198 -21.01163,-1.14155 -19.91258,-5.78235 0.69976,-2.95479 -1.83252,-2.14894 -1.17807,-0.002 1.15017,3.77337 -13.07967,9.57264 -20.50007,5.69524" style="fill:none;stroke:url(#linearGradient12353);stroke-width:3.65714931;stroke-linecap:round;stroke-linejoin:round;stroke-miterlimit:4;stroke-opacity:1;stroke-dasharray:none"/>
    <path style="fill:none;stroke:url(#linearGradient12333);stroke-width:3.65714931;stroke-linecap:round;stroke-linejoin:round;stroke-miterlimit:4;stroke-opacity:1;stroke-dasharray:none" d="m 289.26105,361.34771 c -0.64567,-3.87311 3.1972,-6.81778 -0.39089,-18.3381 -3.35687,-10.77796 -13.29634,-16.8004 -24.16311,-9.3142 -1.75456,1.20873 1.4613,16.62814 20.14465,7.92515" id="path10431"/>
    <path style="fill:#000000;fill-opacity:1;fill-rule:evenodd;stroke:#000000;stroke-width:3.65714598;stroke-linecap:round;stroke-linejoin:round;stroke-miterlimit:4;stroke-opacity:1;stroke-dasharray:none" d="m 274.3127,333.80838 c 2.53699,2.1557 1.93534,4.76147 0.67933,7.46108 -1.12127,-2.01334 -1.8561,-4.23125 -0.67933,-7.46108 z" id="path10433"/>
    <path style="fill:url(#linearGradient10757);fill-opacity:1.0;fill-rule:evenodd;stroke:none" d="m 269.6514,316.65144 c 4.83289,4.33731 4.87135,5.05855 8.33933,10.43821 2.39182,-6.33083 3.4659,-12.66166 10.05487,-18.9925 l -18.3942,8.55429 z" id="path10435"/>
    <path style="fill:url(#linearGradient10759);fill-opacity:1.0;fill-rule:evenodd;stroke:none" d="m 285.37376,311.18717 3.55493,19.74959 0.395,-20.14458 -3.94993,0.39499 z" id="path10437"/>
    <path id="path10439" d="m 252.63243,345.78642 c 3.74373,-2.80212 8.6721,-4.41962 10.52245,-9.1151 -4.98717,0.616 -4.10122,-4.94505 -12.54469,3.4416 l 2.02224,5.6735 z" style="fill:url(#linearGradient10761);fill-opacity:1.0;fill-rule:evenodd;stroke:none"/>
    <path id="path10441" d="m 275.90904,358.73969 c 4.52758,-4.65513 3.6698,-1.5047 9.1842,-4.75421 -6.22985,-2.64371 -9.3526,-4.76073 -21.33907,-7.2533 -6.87611,5.80188 4.03709,7.20521 12.15487,12.00751 z" style="fill:url(#linearGradient10763);fill-opacity:1.0;fill-rule:evenodd;stroke:none"/>
    <path id="path10443" d="m 327.24261,317.44142 c -4.83289,4.33732 -4.87137,5.05855 -8.33933,10.43822 -2.39182,-6.33083 -3.4659,-12.66167 -10.05487,-18.9925 l 18.3942,8.55428 z" style="fill:url(#linearGradient10765);fill-opacity:1.0;fill-rule:evenodd;stroke:none"/>
    <path id="path10445" d="m 310.12936,311.06355 -3.55492,19.74959 -0.395,-20.14459 3.94992,0.395 z" style="fill:url(#linearGradient10767);fill-opacity:1.0;fill-rule:evenodd;stroke:none"/>
    <path style="fill:url(#linearGradient10769);fill-opacity:1.0;fill-rule:evenodd;stroke:none" d="m 343.02706,346.18141 c -3.74374,-2.80212 -8.67209,-4.41962 -10.52247,-9.1151 4.98717,0.61601 8.01145,-0.47623 16.45492,7.91043 l -5.93245,1.20467 z" id="path10447"/>
    <path style="fill:url(#linearGradient10771);fill-opacity:1.0;fill-rule:evenodd;stroke:none" d="m 319.35545,359.52967 c -4.52758,-4.65512 -3.66981,-1.5047 -9.1842,-4.75421 6.22985,-2.6437 9.3526,-4.76073 21.33905,-7.2533 6.87613,5.80189 -4.03707,7.20522 -12.15485,12.00751 z" id="path10449"/>
    <path style="fill:none;stroke:url(#linearGradient12351);stroke-width:3.65714979;stroke-linecap:round;stroke-linejoin:round;stroke-miterlimit:4;stroke-opacity:1;stroke-dasharray:none" d="m 283.0919,372.02496 c -11.01617,5.04821 -19.53647,12.43369 -27.5835,20.26233" id="path10451"/>
    <path style="fill:none;stroke:url(#linearGradient12349);stroke-width:3.65714979;stroke-linecap:round;stroke-linejoin:round;stroke-miterlimit:4;stroke-opacity:1;stroke-dasharray:none" d="m 279.71791,371.59424 c -11.82701,2.63859 -21.70076,8.08377 -31.20411,14.06112" id="path10453"/>
    <path id="path10455" d="m 308.59307,364.67975 c 11.58423,-3.55611 22.85887,-3.7069 34.07484,-3.21198" style="fill:none;stroke:url(#linearGradient12347);stroke-width:3.65714931;stroke-linecap:round;stroke-linejoin:round;stroke-miterlimit:4;stroke-opacity:1;stroke-dasharray:none"/>
    <path style="fill:none;stroke:url(#linearGradient12345);stroke-width:3.65714979;stroke-linecap:round;stroke-linejoin:round;stroke-miterlimit:4;stroke-opacity:1;stroke-dasharray:none" d="m 317.39117,366.16627 c 12.02894,-1.46458 23.15456,0.36877 34.10889,2.82749" id="path10457"/>
    <path id="path10459" d="m 310.68845,368.0744 c 12.09626,0.72165 23.89607,2.55015 34.22997,6.93799" style="fill:none;stroke:url(#linearGradient12343);stroke-width:3.65714931;stroke-linecap:round;stroke-linejoin:round;stroke-miterlimit:4;stroke-opacity:1;stroke-dasharray:none"/>
    <path id="path10461" d="m 313.01242,371.62997 c 11.01618,5.0482 19.53647,12.43367 27.58349,20.26235" style="fill:none;stroke:url(#linearGradient12341);stroke-width:3.65714979;stroke-linecap:round;stroke-linejoin:round;stroke-miterlimit:4;stroke-opacity:1;stroke-dasharray:none"/>
    <path id="path10463" d="m 316.38642,371.19925 c 11.82701,2.63858 21.70074,8.08377 31.20411,14.06114" style="fill:none;stroke:url(#linearGradient12339);stroke-width:3.65714979;stroke-linecap:round;stroke-linejoin:round;stroke-miterlimit:4;stroke-opacity:1;stroke-dasharray:none"/>
    <path id="path10465" d="m 250.88226,289.40253 c 0.83437,3.41704 4.19214,18.57622 6.31791,30.51289 2.16288,-5.72489 12.73174,-5.89326 18.69004,-11.61814 -13.66796,-21.99219 -20.91175,-18.34758 -25.00795,-18.89475 z" style="fill:url(#linearGradient10773);fill-opacity:1.0;fill-rule:evenodd;stroke:none"/>
    <path style="fill:url(#linearGradient10775);fill-opacity:1.0;fill-rule:evenodd;stroke:none" d="m 347.23372,287.11556 c -0.83438,3.41704 -2.0103,20.28707 -4.13608,32.22373 -2.16287,-5.72488 -14.40754,-5.89326 -20.36584,-11.61814 13.66796,-21.99218 19.25345,-20.05842 24.50192,-20.60559 z" id="path10467"/>
    <path style="fill:url(#linearGradient10777);fill-opacity:1;fill-rule:evenodd;stroke:url(#linearGradient12331);stroke-width:3.65714407;stroke-linecap:round;stroke-linejoin:round;stroke-miterlimit:4;stroke-opacity:1;stroke-dasharray:none" d="m 251.04636,250.66003 c 13.66601,3.079 26.90891,28.56336 33.69464,37.88533 -4.9684,-16.10222 -7.63917,-41.38174 -5.63534,-57.43726 4.13602,16.79435 10.61008,35.05667 17.60303,47.55704 4.16998,-8.13842 15.67827,-28.10239 17.38989,-45.7683 4.50713,17.69932 -2.56215,36.28008 -3.68455,53.30576 5.93352,-11.56222 17.64408,-29.95486 31.46238,-32.63382 -14.01705,20.03405 -21.82835,39.38184 -25.13556,54.2085 -12.35654,-1.83898 -24.71308,-2.05168 -37.06961,0.51982 -3.01171,-11.65788 -22.73307,-46.18757 -28.62488,-57.63707 z" id="path10469"/>
    <path style="opacity:0.98999999;fill:url(#linearGradient10779);fill-opacity:1;fill-rule:evenodd;stroke:url(#linearGradient12329);stroke-width:14.34101582;stroke-linecap:round;stroke-linejoin:round;stroke-miterlimit:4;stroke-opacity:1;stroke-dasharray:none;stroke-dashoffset:0" id="path10471" d="m 133.33333,245.83333 a 46.666668,50.833332 0 1 1 -93.333334,0 46.666668,50.833332 0 1 1 93.333334,0 z" transform="matrix(0.26799566,0,0,0.2426592,225.80095,189.70767)"/>
    <path transform="matrix(0.26799566,0,0,0.2426592,256.01105,174.48544)" d="m 133.33333,245.83333 a 46.666668,50.833332 0 1 1 -93.333334,0 46.666668,50.833332 0 1 1 93.333334,0 z" id="path10473" style="opacity:0.98999999;fill:url(#linearGradient10781);fill-opacity:1;fill-rule:evenodd;stroke:url(#linearGradient12327);stroke-width:14.34101582;stroke-linecap:round;stroke-linejoin:round;stroke-miterlimit:4;stroke-opacity:1;stroke-dasharray:none;stroke-dashoffset:0"/>
    <path style="opacity:0.98999999;fill:url(#linearGradient10783);fill-opacity:1;fill-rule:evenodd;stroke:url(#linearGradient12325);stroke-width:14.34101582;stroke-linecap:round;stroke-linejoin:round;stroke-miterlimit:4;stroke-opacity:1;stroke-dasharray:none;stroke-dashoffset:0" id="path10475" d="m 133.33333,245.83333 a 46.666668,50.833332 0 1 1 -93.333334,0 46.666668,50.833332 0 1 1 93.333334,0 z" transform="matrix(0.26799566,0,0,0.2426592,292.73562,173.53865)"/>
    <path transform="matrix(0.26799566,0,0,0.2426592,321.3295,192.37433)" d="m 133.33333,245.83333 a 46.666668,50.833332 0 1 1 -93.333334,0 46.666668,50.833332 0 1 1 93.333334,0 z" id="path10477" style="opacity:0.98999999;fill:url(#linearGradient10785);fill-opacity:1;fill-rule:evenodd;stroke:url(#linearGradient12323);stroke-width:14.34101582;stroke-linecap:round;stroke-linejoin:round;stroke-miterlimit:4;stroke-opacity:1;stroke-dasharray:none;stroke-dashoffset:0"/>
    <path id="path10479" d="m 306.47238,360.81689 c 0.64567,-3.87308 -3.1972,-6.81776 0.39089,-18.33807 3.35687,-10.77796 13.29634,-16.80041 24.16311,-9.31421 1.75456,1.20874 -1.46129,16.62814 -20.14465,7.92516" style="fill:none;stroke:url(#linearGradient12335);stroke-width:3.65714931;stroke-linecap:round;stroke-linejoin:round;stroke-miterlimit:4;stroke-opacity:1;stroke-dasharray:none"/>
    <path id="path10481" d="m 320.72939,332.58624 c -2.537,2.1557 -1.93535,4.76147 -0.67933,7.46107 1.12126,-2.01333 1.85609,-4.23124 0.67933,-7.46107 z" style="fill:#000000;fill-opacity:1;fill-rule:evenodd;stroke:#000000;stroke-width:3.65714598;stroke-linecap:round;stroke-linejoin:round;stroke-miterlimit:4;stroke-opacity:1;stroke-dasharray:none"/>
    <path style="fill:url(#linearGradient10787);fill-opacity:1.0;fill-rule:evenodd;stroke:none" d="m 294.30268,352.14373 c -5.10249,-17.96854 -4.76166,-41.22186 4.11541,-41.09203 7.12026,0.10763 5.91194,28.5804 3.59188,42.8706 0,0 -4.77447,8.54941 -7.70729,-1.77857 z" id="path10483"/>
    <path id="path10485" d="m 340.58278,331.51573 c -3.74374,-2.80212 -8.6721,-4.41962 -10.52247,-9.1151 4.98717,0.61601 8.01145,-0.47623 16.45492,7.91043 l -5.93245,1.20467 z" style="fill:url(#linearGradient10789);fill-opacity:1.0;fill-rule:evenodd;stroke:none"/>
    <path style="fill:url(#linearGradient10791);fill-opacity:1.0;fill-rule:evenodd;stroke:none" d="m 255.89147,332.75025 c 3.74373,-2.80211 8.6721,-4.41961 10.52245,-9.11509 -4.98717,0.616 -4.10122,-4.94505 -12.54469,3.4416 l 2.02224,5.67349 z" id="path10487"/>
  </g>
</svg>