<?xml version="1.0" encoding="utf-8"?>
<svg viewBox="400 200 200 200" xmlns="http://www.w3.org/2000/svg" xmlns:xlink="http://www.w3.org/1999/xlink">
  <defs>
    <linearGradient id="linearGradient10743" gradientUnits="userSpaceOnUse" gradientTransform="matrix(0.22857143,0,0,0.2713024,401.55128,169.73009)" x1="352.38409" y1="117.34422" x2="375.94513" y2="501.8501" xlink:href="#linearGradientWhitePieces"/>
    <linearGradient id="linearGradientWhitePieces">
      <stop id="stop7929" offset="0" style="stop-color:#ede3de;stop-opacity:1;"/>
      <stop id="stop7931" offset="1" style="stop-color:#d0b090;stop-opacity:1;"/>
    </linearGradient>
    <linearGradient id="linearGradient12301" x1="406.46521" y1="302.55878" x2="595.86932" y2="302.55878" gradientUnits="userSpaceOnUse" xlink:href="#linearGradientWhitePiecesBorder"/>
    <linearGradient id="linearGradientWhitePiecesBorder">
      <stop id="stop12143" offset="0" style="stop-color:#000000;stop-opacity:1;"/>
      <stop id="stop12145" offset="1" style="stop-color:#000000;stop-opacity:1;"/>
    </linearGradient>
    <linearGradient id="linearGradient10745" gradientUnits="userSpaceOnUse" gradientTransform="matrix(0.22857143,0,0,0.2713024,392.66986,167.81169)" x1="-24.895142" y1="375.82123" x2="8.518218" y2="865.33405" xlink:href="#linearGradientSand"/>
    <linearGradient id="linearGradientSand">
      <stop style="stop-color:#776672;stop-opacity:0.64016736;" offset="0" id="stop4710"/>
      <stop style="stop-color:#0e0e0e;stop-opacity:0.54393303;" offset="1" id="stop4712"/>
    </linearGradient>
    <linearGradient id="linearGradient12303" x1="430.07938" y1="315.61154" x2="582.81036" y2="315.61154" gradientUnits="userSpaceOnUse" xlink:href="#linearGradientWhitePiecesBorder"/>
    <linearGradient id="linearGradient12307" x1="446.82053" y1="303.96664" x2="504.85513" y2="303.96664" gradientUnits="userSpaceOnUse" xlink:href="#linearGradientWhitePiecesBorder"/>
    <linearGradient id="linearGradient12305" x1="491.78247" y1="312.85696" x2="558.67767" y2="312.85696" gradientUnits="userSpaceOnUse" xlink:href="#linearGradientWhitePiecesBorder"/>
    <linearGradient id="linearGradient10747" gradientUnits="userSpaceOnUse" gradientTransform="matrix(0.22857143,0,0,0.2713024,403.70627,171.64847)" x1="120.73775" y1="168.28075" x2="536.52966" y2="749.29095" xlink:href="#linearGradientWhitePieces"/>
    <linearGradient id="linearGradient12315" x1="405.8338" y1="340.3717" x2="595.84729" y2="340.3717" gradientUnits="userSpaceOnUse" xlink:href="#linearGradientWhitePiecesBorder"/>
  </defs>
  <g id="WhiteRook">
    <rect style="fill:none;stroke:none" id="rect10398" width="200" height="200" x="400" y="200"/>
    <path style="fill:url(#linearGradient10743);fill-opacity:1;fill-rule:evenodd;stroke:url(#linearGradient12301);stroke-width:3.65714288;stroke-linecap:round;stroke-linejoin:round;stroke-miterlimit:4;stroke-opacity:1;stroke-dasharray:none" d="m 408.555,308.64194 c 7.30754,19.35518 61.04822,45.94985 106.97649,41.31372 45.92827,-4.63613 83.89895,-36.17064 77.87945,-58.50172 -4.11158,-15.25308 -97.84687,-38.21189 -114.44316,-36.75942 -9.58326,0.83871 -75.31984,40.95029 -70.41278,53.94742 z" id="path10400"/>
    <path style="fill:url(#linearGradient10745);fill-opacity:1.0;fill-rule:evenodd;stroke:url(#linearGradient12303);stroke-width:3.65714287999999987;stroke-linecap:round;stroke-linejoin:round;stroke-miterlimit:4;stroke-opacity:1;stroke-dasharray:none" d="m 431.90796,309.34111 c 1.80885,-7.82894 13.32751,-13.10603 18.66667,-19.44334 2.85748,-3.39169 10.6018,-6.78256 13.71428,-6.78256 2.22581,0 1.17427,4.37255 2.28572,-0.90434 1.02792,-4.88037 5.57406,-8.59124 9.52381,-8.59124 4.14669,0 8.12835,1.65755 12.19047,0.45217 2.23433,-0.66301 2.49795,1.28062 4.95238,-0.90435 3.57347,-3.18113 8.01694,0.54429 10.66667,3.1652 4.1466,4.1015 8.39685,6.33039 13.71429,6.33039 6.47619,0 12.95238,0 19.42857,0 6.02288,0 11.11028,6.13576 14.85714,9.94775 1.77512,1.80598 2.18718,1.04663 4.19048,0.45217 2.35736,-0.69951 3.06507,-1.35651 5.71428,-1.35651 2.04126,0 2.50398,1.1952 4.57143,1.80868 1.77404,0.52643 2.28572,1.61245 2.28572,4.06954 0,2.49963 -0.48351,1.68695 0.7619,3.1652 -0.25397,0.60289 -1.16346,1.33205 -0.7619,1.80868 0.66604,0.79056 1.90476,2.75587 1.90476,4.52171 0,2.59585 6.05285,3.94812 7.85806,3.77252 6.74121,-0.65575 -1.93799,2.81162 -2.66666,4.97388 -0.70246,2.08446 -1.90477,3.36554 -1.90477,6.78256 0,5.12649 -0.14736,8.66381 -1.52381,13.56512 -1.30472,4.64591 -22.01777,20.64469 -26.90568,20.64469 -0.25397,0 -0.55873,-0.18087 -0.7619,0 -6.0286,5.36672 -19.33151,0.6413 -25.52381,-1.80868 -4.13181,-1.63475 -54.53753,-15.2774 -74.24743,-15.2774 -0.60557,0 -10.53047,-9.62995 -11.08591,-10.9485 -0.59189,-1.4051 -1.20905,-4.12889 -0.7619,-6.78256 0.47681,-2.82974 -1.14286,-10.15297 -1.14286,-12.66078 z" id="path10403"/>
    <path style="fill:none;stroke:url(#linearGradient12307);stroke-width:3.65714288;stroke-linecap:round;stroke-linejoin:round;stroke-miterlimit:4;stroke-opacity:1;stroke-dasharray:none" d="m 449.31226,318.94641 c -2.00812,-2.38353 0.99301,-7.96121 3.04762,-10.39993 2.71092,-3.21772 6.95081,-9.04341 11.04762,-9.04341 3.06356,0 5.33272,1.1755 8,1.80868 3.23693,0.76841 3.84868,1.23819 6.85714,-0.90434 2.89553,-2.0621 4.34776,-7.15594 5.71429,-10.39992 0.77436,-1.83826 4.76625,-0.67723 5.71428,-0.45217 1.43571,0.34082 1.82772,3.5945 3.42857,4.06953 1.77698,0.5273 3.26945,0.45217 5.33334,0.45217 1.52381,0 3.04762,0 4.57143,0" id="path10405"/>
    <path style="fill:none;stroke:url(#linearGradient12305);stroke-width:3.65714288;stroke-linecap:round;stroke-linejoin:round;stroke-miterlimit:4;stroke-opacity:1;stroke-dasharray:none" d="m 493.61103,332.01391 c 1.80187,0 9.40336,-17.87237 11.80953,-22.15636 2.17201,-3.8671 5.42531,-7.53102 7.23809,-10.39993 1.1663,-1.84578 1.89144,-2.22922 2.66667,-4.06953 0.86724,-2.05873 2.51933,-1.85241 4.19048,-1.35652 2.57145,0.76305 4.46778,2.73381 6.47618,4.52171 1.55589,1.38507 2.25327,1.80869 4.57143,1.80869 3.30159,0 6.60318,0 9.90477,0 3.89105,0 11.68717,3.47214 13.71428,5.87821 1.25808,1.49327 1.40226,2.58808 1.90476,4.97388 0.22218,1.05486 0.47553,1.41106 0.76191,2.26085" id="path10407"/>
    <path style="fill:url(#linearGradient10747);fill-opacity:1;fill-rule:evenodd;stroke:url(#linearGradient12315);stroke-width:3.65714288;stroke-linecap:round;stroke-linejoin:round;stroke-miterlimit:4;stroke-opacity:1;stroke-dasharray:none" d="m 407.66238,308.67408 c 0,0 8.29209,29.56 9.30065,44.36185 0.83541,12.26069 99.57633,34.77574 112.9847,32.30681 17.21624,-3.1701 53.5194,-37.42698 54.78581,-44.99078 2.30538,-13.76918 10.81543,-38.33534 9.04462,-45.1388 -3.46965,13.60776 -42.09469,49.47176 -69.08141,49.61669 -40.03795,0.21503 -115.99327,-26.26986 -117.03437,-36.15577 z" id="path10409"/>
  </g>
</svg>