<?xml version="1.0" encoding="utf-8"?>
<svg viewBox="600 0 200 200" xmlns="http://www.w3.org/2000/svg" xmlns:xlink="http://www.w3.org/1999/xlink">
  <defs>
    <linearGradient id="linearGradient5303" gradientUnits="userSpaceOnUse" gradientTransform="matrix(0.22857144,0,0,0.22857144,600.00001,0)" x1="706.30969" y1="193.79158" x2="602.51648" y2="612.50507" xlink:href="#linearGradientBlackPieces"/>
    <linearGradient id="linearGradientBlackPieces">
      <stop id="stop2268" offset="0" style="stop-color:#000e1c;stop-opacity:1;"/>
      <stop id="stop2270" offset="1" style="stop-color:#50506f;stop-opacity:1;"/>
    </linearGradient>
    <linearGradient id="linearGradient5305" gradientUnits="userSpaceOnUse" x1="697.80657" y1="89.994812" x2="747.74203" y2="89.994812" gradientTransform="matrix(1.0000063,0,0,1.0000063,-0.00376895,0)" xlink:href="#linearGradientBlackPiecesBorder"/>
    <linearGradient id="linearGradientBlackPiecesBorder">
      <stop style="stop-color:#808080;stop-opacity:1;" offset="0" id="stop7192"/>
      <stop style="stop-color:#808080;stop-opacity:1;" offset="1" id="stop7194"/>
    </linearGradient>
    <linearGradient id="linearGradient5298" gradientUnits="userSpaceOnUse" gradientTransform="matrix(0.22857144,0,0,0.22857144,600.00001,0)" x1="229.48785" y1="640.76947" x2="615.77783" y2="730.46149" xlink:href="#linearGradientBlackPieces"/>
    <linearGradient id="linearGradient5300" gradientUnits="userSpaceOnUse" x1="662.91519" y1="158.72688" x2="731.09846" y2="158.72688" gradientTransform="matrix(1.0000063,0,0,1.0000063,-0.00376895,0)" xlink:href="#linearGradientBlackPiecesBorder"/>
    <linearGradient id="linearGradient5293" gradientUnits="userSpaceOnUse" gradientTransform="matrix(0.22857144,0,0,0.22857144,600.00001,0)" x1="192.30013" y1="446.01318" x2="613.59027" y2="649.5235" xlink:href="#linearGradientBlackPieces"/>
    <linearGradient id="linearGradient5295" gradientUnits="userSpaceOnUse" x1="643.26833" y1="95.33782" x2="735.92003" y2="95.33782" gradientTransform="matrix(1.0000063,0,0,1.0000063,-0.00376895,0)" xlink:href="#linearGradientBlackPiecesBorder"/>
    <linearGradient id="linearGradient5288" gradientUnits="userSpaceOnUse" gradientTransform="matrix(0.22857144,0,0,0.22857144,600.00001,0)" x1="334.55096" y1="110.78522" x2="393.23401" y2="127.35208" xlink:href="#linearGradientBlackPieces"/>
    <linearGradient id="linearGradient5290" gradientUnits="userSpaceOnUse" x1="676.46831" y1="25.322179" x2="689.8815" y2="25.322179" gradientTransform="matrix(1.0000063,0,0,1.0000063,-0.00376895,0)" xlink:href="#linearGradientBlackPiecesBorder"/>
    <linearGradient id="linearGradient5285" gradientUnits="userSpaceOnUse" x1="692.22753" y1="160.05825" x2="705.01598" y2="160.05825" gradientTransform="matrix(1.0000063,0,0,1.0000063,-0.00376895,0)" xlink:href="#linearGradientBlackPiecesBorder"/>
    <linearGradient id="linearGradient5280" gradientUnits="userSpaceOnUse" x1="667.23889" y1="115.81965" x2="659.72015" y2="118.31965" gradientTransform="matrix(1.0000063,0,0,1.0000063,-0.00376895,0)" xlink:href="#linearGradientBlackPieces"/>
    <linearGradient id="linearGradient5282" gradientUnits="userSpaceOnUse" x1="667.2389" y1="105.81965" x2="706.72016" y2="105.81965" gradientTransform="matrix(1.0000063,0,0,1.0000063,-0.00376895,0)" xlink:href="#linearGradientBlackPiecesBorder"/>
    <linearGradient id="linearGradient5275" gradientUnits="userSpaceOnUse" gradientTransform="matrix(0.22857144,0,0,0.22857144,600.00001,0)" x1="155.78476" y1="666.80823" x2="733.56958" y2="841.04077" xlink:href="#linearGradientBlackPieces"/>
    <linearGradient id="linearGradient5277" gradientUnits="userSpaceOnUse" x1="630.42201" y1="177.31452" x2="767.67199" y2="177.31452" gradientTransform="matrix(1.0000063,0,0,1.0000063,-0.00376895,0)" xlink:href="#linearGradientBlackPiecesBorder"/>
    <linearGradient id="linearGradient5270" gradientUnits="userSpaceOnUse" x1="729.02667" y1="125.66114" x2="739.4967" y2="133.16115" gradientTransform="matrix(1.0000063,0,0,1.0000063,-0.00376895,0)" xlink:href="#linearGradientBlackPieces"/>
    <linearGradient id="linearGradient5272" gradientUnits="userSpaceOnUse" x1="667.0267" y1="106.16114" x2="759.99669" y2="106.16114" gradientTransform="matrix(1.0000063,0,0,1.0000063,-0.00376895,0)" xlink:href="#linearGradientBlackPiecesBorder"/>
    <linearGradient id="linearGradient5265" gradientUnits="userSpaceOnUse" gradientTransform="matrix(0.22857144,0,0,0.22857144,631.83923,-0.88972711)" x1="321.15759" y1="90.161285" x2="395.43152" y2="128.46291" xlink:href="#linearGradientBlackPieces"/>
    <linearGradient id="linearGradient5267" gradientUnits="userSpaceOnUse" x1="708.30733" y1="24.432458" x2="721.72052" y2="24.432458" gradientTransform="matrix(1.0000063,0,0,1.0000063,-0.00376895,0)" xlink:href="#linearGradientBlackPiecesBorder"/>
  </defs>
  <g id="BlackBishop">
    <rect y="0" x="600" height="200" width="200" id="rect3532" style="fill:none;stroke:none"/>
    <path id="path9790" d="m 699.63574,49.570122 c 2.47308,-4.17302 8.95019,-11.540435 15.62922,-15.371943 8.28185,7.784208 19.57487,25.913334 25.16109,43.334025 4.3538,13.57739 5.25671,19.678129 5.48338,34.182516 0.22668,14.50438 -7.40135,28.79221 -12.08341,34.07786" style="fill:url(#linearGradient5303);fill-opacity:1;fill-rule:evenodd;stroke:url(#linearGradient5305);stroke-width:3.65714288;stroke-linecap:round;stroke-linejoin:round;stroke-miterlimit:4;stroke-opacity:1;stroke-dasharray:none"/>
    <path id="path9792" d="m 729.25014,157.04189 c 1.38027,-12.22151 -67.22774,-11.31942 -64.42223,0.6871 2.26677,5.0028 0.47896,11.43659 0.47896,11.43659 0,0 15.83487,-2.24694 33.45899,-1.96694 17.62412,0.28001 29.55199,1.67739 29.55199,1.67739 0,0 -0.44799,-8.23261 0.93229,-11.83414 z" style="fill:url(#linearGradient5298);fill-opacity:1;fill-rule:evenodd;stroke:url(#linearGradient5300);stroke-width:3.65714288;stroke-linecap:round;stroke-linejoin:round;stroke-miterlimit:4;stroke-opacity:1;stroke-dasharray:none"/>
    <path id="path9786" d="m 663.87066,155.95067 c -5.20925,-1.84795 -9.00165,-9.2425 -12.28798,-13.95879 -5.24563,-7.52811 -8.33832,-23.18377 -5.2662,-40.73934 3.07213,-17.555572 19.76846,-51.478738 36.86548,-66.526372 20.83702,15.047634 34.27476,37.797124 44.87973,68.110342 5.67522,16.22203 8.49209,33.97462 3.28283,52.58617 -12.15493,-2.50794 -53.31428,-4.88687 -67.47386,0.52799 z" style="fill:url(#linearGradient5293);fill-opacity:1;fill-rule:evenodd;stroke:url(#linearGradient5295);stroke-width:3.65714288;stroke-linecap:round;stroke-linejoin:round;stroke-miterlimit:4;stroke-opacity:1;stroke-dasharray:none"/>
    <path id="path12426" d="m 680.09808,31.707132 c 2.8525,-4.844739 -4.50993,-7.935602 -0.65877,-11.31926 2.16269,-1.900157 5.86256,-2.090257 7.93989,0.374469 2.99515,3.553697 -5.19882,6.63662 -1.16731,10.8976" style="fill:url(#linearGradient5288);fill-opacity:1;fill-rule:evenodd;stroke:url(#linearGradient5290);stroke-width:3.65714288;stroke-linecap:round;stroke-linejoin:round;stroke-miterlimit:4;stroke-opacity:1;stroke-dasharray:none"/>
    <path id="path13305" d="m 699.74395,162.82256 c -2.17892,-0.58827 -4.13767,0.44726 -4.93659,-0.21476 -0.98036,-0.81234 -0.92296,-4.19212 -0.2739,-5.05007 0.55496,-0.73356 7.68718,-0.82514 8.38705,-0.14934 0.65242,0.62892 -0.0189,4.7234 -0.62337,5.75943" style="fill:none;stroke:url(#linearGradient5285);stroke-width:3.65714288;stroke-linecap:round;stroke-linejoin:round;stroke-miterlimit:4;stroke-opacity:1;stroke-dasharray:none"/>
    <path id="path18555" d="m 687.15713,79.67143 c -2.61208,0.41425 -3.91211,3.278244 -3.58511,5.707013 -0.045,2.076336 0.86451,4.751528 -0.84347,6.3787 -2.31052,0.768723 -4.81096,-0.193961 -7.16527,-0.395208 -1.93832,-0.1771 -4.27577,-0.909831 -5.99901,0.338066 -1.31897,1.562455 0.22173,3.923461 1.92143,4.45 3.41781,1.486779 7.47558,0.711268 10.76429,2.471428 1.13526,1.047317 0.9031,2.871431 1.25,4.264291 1.06913,8.29763 1.01265,16.82704 3.52142,24.86428 0.65668,1.76462 1.68241,4.21296 3.87857,4.22858 1.69536,-0.58013 1.48132,-2.83199 1.57143,-4.28572 -0.20534,-9.11357 -2.73457,-17.99681 -3.13571,-27.09286 -0.0451,-0.895476 0.035,-2.019281 1.19286,-2.114284 4.10561,-1.181656 8.90265,0.132751 12.63571,-2.364286 1.53308,-0.830759 2.81271,-3.93038 0.32857,-4.335714 -4.37871,-0.644439 -8.80472,1.242762 -13.15714,0.421428 -1.3474,-0.477036 -1.2294,-2.342196 -1.38572,-3.514286 -0.25509,-2.761218 0.58401,-5.700292 -0.46428,-8.335714 -0.26287,-0.45966 -0.79112,-0.752152 -1.32857,-0.685714 z" style="fill:url(#linearGradient5280);fill-opacity:1;fill-rule:evenodd;stroke:url(#linearGradient5282);stroke-width:3.65714288;stroke-linecap:round;stroke-linejoin:round;stroke-miterlimit:4;stroke-opacity:1;stroke-dasharray:none"/>
    <path id="path5000" d="m 672.6554,183.60888 c 12.75959,-0.14292 18.9024,-7.40145 24.55023,-7.41002 5.64784,-0.009 10.8007,7.23279 24.53757,7.2569 7.37046,0.0129 46.17116,0.78734 44.01473,-5.09377 -2.15638,-5.88112 -26.66059,2.01678 -34.86539,-2.16602 -4.29474,-2.18946 -5.55472,-2.70835 -11.11038,-3.55006 -14.98719,-2.27063 -30.31065,-2.18012 -43.86266,-0.0859 -6.03322,0.93235 -8.48725,1.97055 -11.88523,4.25765 -5.71575,3.84714 -29.79279,-4.15201 -31.68782,1.46772 -1.89503,5.61973 24.80429,5.49711 40.30895,5.32345 z" style="fill:url(#linearGradient5275);fill-opacity:1;fill-rule:evenodd;stroke:url(#linearGradient5277);stroke-width:3.65714288;stroke-linecap:round;stroke-linejoin:round;stroke-miterlimit:4;stroke-opacity:1;stroke-dasharray:none"/>
    <path id="path5875" d="m 745.29998,20.835715 c -4.70532,0.0451 -8.21546,3.906818 -10.16704,7.832046 -1.29109,2.492667 -3.56778,4.307326 -4.83295,6.796525 -0.26622,1.499326 1.87191,1.98787 3,1.664286 2.75386,-0.582731 4.93531,-2.759886 5.86528,-5.376478 1.10356,-2.694302 3.59551,-4.813961 6.54901,-5.009236 2.90062,-0.509954 5.58003,1.770158 6.16427,4.542857 0.8443,2.906626 0.46232,6.332846 -1.87857,8.442857 -3.65372,3.832471 -9.19591,5.547495 -12.27142,9.992857 -16.87919,33.309354 -33.73272,66.640311 -50.38525,100.064471 -5.91165,12.12292 -12.15817,24.10907 -17.33618,36.56411 -0.40285,1.55401 -1.61197,3.27714 -0.96428,4.89285 1.02161,0.79383 2.30835,-0.4338 3.19285,-0.97143 3.64051,-3.32308 5.65874,-8.01742 8.07143,-12.24999 10.16578,-19.72332 19.69309,-39.77213 29.58769,-59.63428 10.74342,-21.690558 21.48757,-43.388082 32.4623,-64.958587 3.10474,-4.595265 8.99768,-6.134712 12.47878,-10.379434 2.21679,-2.433148 3.6352,-5.654389 3.27837,-8.991996 -0.2287,-5.553796 -3.44457,-11.564378 -9.19285,-12.885714 -1.17966,-0.298962 -2.40003,-0.390238 -3.62144,-0.335714 z" style="fill:url(#linearGradient5270);fill-opacity:1;fill-rule:evenodd;stroke:url(#linearGradient5272);stroke-width:3.65714288;stroke-linecap:round;stroke-linejoin:round;stroke-miterlimit:4;stroke-opacity:1;stroke-dasharray:none"/>
    <path style="fill:url(#linearGradient5265);fill-opacity:1;fill-rule:evenodd;stroke:url(#linearGradient5267);stroke-width:3.65714288;stroke-linecap:round;stroke-linejoin:round;stroke-miterlimit:4;stroke-opacity:1;stroke-dasharray:none" d="m 711.93729,30.817404 c 2.85251,-4.844738 -4.50992,-7.935602 -0.65877,-11.31926 2.16269,-1.900156 5.86257,-2.090256 7.9399,0.374471 2.99515,3.553694 -5.19883,6.636617 -1.16731,10.897598" id="path3155"/>
  </g>
</svg>