<?xml version="1.0" encoding="utf-8"?>
<svg viewBox="0 0 200 200" xmlns="http://www.w3.org/2000/svg" xmlns:xlink="http://www.w3.org/1999/xlink">
  <defs>
    <linearGradient id="linearGradient5259" gradientUnits="userSpaceOnUse" gradientTransform="scale(0.22857143,0.22857144)" x1="297.55386" y1="427.04959" x2="368.56238" y2="521.21625" xlink:href="#linearGradientBlackPieces"/>
    <linearGradient id="linearGradientBlackPieces">
      <stop id="stop2268" offset="0" style="stop-color:#000e1c;stop-opacity:1;"/>
      <stop id="stop2270" offset="1" style="stop-color:#50506f;stop-opacity:1;"/>
    </linearGradient>
    <linearGradient id="linearGradient5261" gradientUnits="userSpaceOnUse" x1="64.019555" y1="110.56303" x2="94.436889" y2="110.56303" gradientTransform="scale(0.99812851,1.0000063)" xlink:href="#linearGradientBlackPiecesBorder"/>
    <linearGradient id="linearGradientBlackPiecesBorder">
      <stop style="stop-color:#808080;stop-opacity:1;" offset="0" id="stop7192"/>
      <stop style="stop-color:#808080;stop-opacity:1;" offset="1" id="stop7194"/>
    </linearGradient>
    <linearGradient id="linearGradient5254" gradientUnits="userSpaceOnUse" gradientTransform="scale(0.22857143,0.22857144)" x1="495.29623" y1="448.54721" x2="595.97144" y2="528.54724" xlink:href="#linearGradientBlackPieces"/>
    <linearGradient id="linearGradient5256" gradientUnits="userSpaceOnUse" x1="106.05839" y1="111.66723" x2="136.47574" y2="111.66723" gradientTransform="scale(0.99812851,1.0000063)" xlink:href="#linearGradientBlackPiecesBorder"/>
    <linearGradient id="linearGradient5249" gradientUnits="userSpaceOnUse" gradientTransform="scale(0.22857143,0.22857144)" x1="313.69473" y1="101.18996" x2="536.18018" y2="251.91928" xlink:href="#linearGradientBlackPieces"/>
    <linearGradient id="linearGradient5251" gradientUnits="userSpaceOnUse" x1="68.517819" y1="40.057539" x2="130.49355" y2="40.057539" gradientTransform="scale(0.99812851,1.0000063)" xlink:href="#linearGradientBlackPiecesBorder"/>
    <linearGradient id="linearGradient5244" gradientUnits="userSpaceOnUse" gradientTransform="scale(0.22857143,0.22857144)" x1="368.47662" y1="273.33771" x2="494.5513" y2="319.27548" xlink:href="#linearGradientBlackPieces"/>
    <linearGradient id="linearGradient5246" gradientUnits="userSpaceOnUse" x1="84.38115" y1="72.976797" x2="113.25052" y2="72.976797" gradientTransform="scale(0.99812851,1.0000063)" xlink:href="#linearGradientBlackPiecesBorder"/>
    <linearGradient id="linearGradient5241" gradientUnits="userSpaceOnUse" gradientTransform="scale(0.22857143,0.22857143)" x1="129.96214" y1="428.65894" x2="812.36853" y2="836.31329" xlink:href="#linearGradientBlackPieces"/>
    <linearGradient id="linearGradient5236" gradientUnits="userSpaceOnUse" gradientTransform="scale(0.22857143,0.22857144)" x1="197.64774" y1="629.91022" x2="664.98859" y2="790.37555" xlink:href="#linearGradientBlackPieces"/>
    <linearGradient id="linearGradient5238" gradientUnits="userSpaceOnUse" x1="52.179426" y1="171.15182" x2="149.18172" y2="171.15182" gradientTransform="scale(0.99812851,1.0000063)" xlink:href="#linearGradientBlackPiecesBorder"/>
    <linearGradient id="linearGradient5231" gradientUnits="userSpaceOnUse" gradientTransform="scale(0.22857143,0.22857144)" x1="129.96214" y1="428.65894" x2="698.83136" y2="740.06268" xlink:href="#linearGradientBlackPieces"/>
    <linearGradient id="linearGradient5233" gradientUnits="userSpaceOnUse" x1="18.694719" y1="115.58561" x2="183.74067" y2="115.58561" gradientTransform="scale(0.99812851,1.0000063)" xlink:href="#linearGradientBlackPiecesBorder"/>
    <linearGradient id="linearGradient5226" gradientUnits="userSpaceOnUse" gradientTransform="scale(0.22857143,0.22857144)" x1="129.96214" y1="428.65894" x2="701.01483" y2="740.06274" xlink:href="#linearGradientBlackPieces"/>
    <linearGradient id="linearGradient5228" gradientUnits="userSpaceOnUse" x1="73.393466" y1="99.576291" x2="128.57319" y2="99.576291" gradientTransform="scale(0.99812851,1.0000063)" xlink:href="#linearGradientBlackPiecesBorder"/>
    <linearGradient id="linearGradient5221" gradientUnits="userSpaceOnUse" gradientTransform="scale(0.22857143,0.22857144)" x1="221.55104" y1="774.93707" x2="611.05023" y2="849.56549" xlink:href="#linearGradientBlackPieces"/>
    <linearGradient id="linearGradient5223" gradientUnits="userSpaceOnUse" x1="61.303072" y1="189.18989" x2="139.93051" y2="189.18989" gradientTransform="scale(0.99812851,1.0000063)" xlink:href="#linearGradientBlackPiecesBorder"/>
    <linearGradient id="linearGradient5343" gradientUnits="userSpaceOnUse" x1="797.5" y1="931.98047" x2="797.5" y2="947.82898" xlink:href="#linearGradientBlackPieces"/>
    <linearGradient id="linearGradient5345" gradientUnits="userSpaceOnUse" x1="771.72004" y1="915" x2="823.27996" y2="915" xlink:href="#linearGradientBlackPiecesBorder"/>
    <linearGradient id="linearGradient5339" gradientUnits="userSpaceOnUse" x1="804.05585" y1="930.06891" x2="809.85663" y2="955.65509" xlink:href="#linearGradientBlackPieces"/>
    <linearGradient id="linearGradient5341" gradientUnits="userSpaceOnUse" x1="770.95651" y1="915" x2="824.04349" y2="915" xlink:href="#linearGradientBlackPiecesBorder"/>
    <linearGradient id="linearGradient5335" gradientUnits="userSpaceOnUse" x1="822.14368" y1="909.1908" x2="844.99213" y2="932.17261" xlink:href="#linearGradientBlackPieces"/>
    <linearGradient id="linearGradient5337" gradientUnits="userSpaceOnUse" x1="770.83986" y1="915" x2="824.16014" y2="915" xlink:href="#linearGradientBlackPiecesBorder"/>
  </defs>
  <g id="BlackKing">
    <rect y="0" x="0" height="200" width="200" id="rect5257" style="fill:none;stroke:none"/>
    <path id="path3299" d="m 65.973661,139.99662 c 5.301121,-7.65948 -1.61168,-28.76318 0.0042,-38.41182 2.622422,-15.659 23.197554,-26.169238 25.943908,-17.09068 3.257851,10.769371 -9.968434,11.785943 -13.648343,20.7757 -3.380091,8.25731 -2.65696,22.05308 3.92368,30.35651" style="fill:url(#linearGradient5259);fill-opacity:1;fill-rule:evenodd;stroke:url(#linearGradient5261);stroke-width:3.65714288;stroke-linecap:round;stroke-linejoin:round;stroke-miterlimit:4;stroke-opacity:1;stroke-dasharray:none"/>
    <path style="fill:url(#linearGradient5254);fill-opacity:1;fill-rule:evenodd;stroke:url(#linearGradient5256);stroke-width:3.65714288;stroke-linecap:round;stroke-linejoin:round;stroke-miterlimit:4;stroke-opacity:1;stroke-dasharray:none" d="m 134.1464,141.10082 c -5.30112,-7.65947 1.61167,-28.76317 -0.004,-38.41181 -2.62245,-15.658982 -23.19758,-26.169233 -25.94393,-17.090684 -3.25785,10.769371 9.96844,11.785943 13.64834,20.775734 3.38009,8.2573 2.65699,22.05307 -3.92368,30.3565" id="path3303"/>
    <path id="path24710" d="m 91.706667,65.854917 c 1.201738,-3.428681 4.320983,-16.211442 3.180846,-19.977312 -5.10032,-0.403604 -15.756639,4.27477 -22.663337,2.776012 -1.945257,-3.51675 -3.159817,-11.084184 -0.365554,-15.238216 6.252639,-1.902637 20.052731,1.432798 23.867154,1.943901 1.352229,-3.852085 -3.312983,-15.459995 -2.409235,-19.663204 4.28583,-2.048761 14.929029,-1.846206 18.092209,0.236329 -0.1611,4.414549 -6.60458,15.137098 -6.76098,18.803167 4.29349,-0.220129 17.6671,-3.857177 22.23266,-2.968901 1.96944,3.819529 2.39676,10.643422 -0.78042,15.004759 -4.86738,1.621319 -17.75428,-2.041109 -23.1237,-0.976014 -2.26279,4.563872 1.25507,16.348117 2.12059,19.795516" style="fill:url(#linearGradient5249);fill-opacity:1;fill-rule:evenodd;stroke:url(#linearGradient5251);stroke-width:3.65714288;stroke-linecap:round;stroke-linejoin:round;stroke-miterlimit:4;stroke-opacity:1;stroke-dasharray:none"/>
    <path id="path3297" d="m 93.350804,84.990188 c -5.653759,-4.895612 -8.144891,-4.936274 -7.047474,-17.189981 0.937143,-10.464289 24.28729,-9.924344 24.83067,-0.455061 0.68136,11.873589 -3.26639,12.76278 -6.01133,18.511809" style="fill:url(#linearGradient5244);fill-opacity:1;fill-rule:evenodd;stroke:url(#linearGradient5246);stroke-width:3.65714288;stroke-linecap:round;stroke-linejoin:round;stroke-miterlimit:4;stroke-opacity:1;stroke-dasharray:none"/>
    <path id="path25586" d="m 61.93411,189.78267 -14.622904,-44.8555 107.710454,-0.47261 -17.11771,46.70276 -75.96984,-1.37465 z" style="fill:url(#linearGradient5241);fill-opacity:1;fill-rule:evenodd;stroke:none"/>
    <path style="fill:url(#linearGradient5236);fill-opacity:1;fill-rule:evenodd;stroke:url(#linearGradient5238);stroke-width:3.65714288;stroke-linecap:round;stroke-linejoin:round;stroke-miterlimit:4;stroke-opacity:1;stroke-dasharray:none" d="m 147.07567,163.9107 c -21.41174,-10.9747 -70.203183,-11.49032 -93.167044,0.42868 3.216853,10.16522 4.503609,21.47962 4.503609,21.47962 20.952382,-6.50601 63.513955,-6.76564 84.085385,0.94692 0,0 2.12105,-15.24105 4.57805,-22.85522 z" id="path5264"/>
    <path id="path23833" d="m 126.52143,131.20715 c -8.28366,-3.50017 -17.5324,-13.44604 -27.880719,-13.765 -9.959907,0.23071 -17.955642,8.81457 -23.633568,13.35071 -26.348092,-11.99244 -26.033255,-34.946626 -7.6,-39.157144 C 70.409412,90.949937 79.345815,91.741676 85.25,91.47143 83.369931,86.279294 81.320466,82.597429 83.264285,75.685715 79.097836,73.004138 73.552775,71.081283 67.235714,70.707144 65.349606,70.595436 63.434311,70.547789 61.514286,70.57143 42.954043,70.799957 23.696852,77.551062 20.964286,94.628572 16.976,119.55388 39.042544,134.24348 46.985715,160.60715 72.198866,146.2281 130.33764,147.14368 154.49286,159.57143 c 6.41093,-20.3799 31.9659,-44.1967 26.25,-64.971429 -5.29335,-19.238891 -31.02682,-24.868875 -48.00715,-23.907143 -6.88197,0.38978 -13.48859,2.617669 -18.45,5.678571 0.96046,5.479118 -0.98626,9.958725 -2.59999,14.692858 7.85031,0.0034 21.62321,-1.822128 27.02857,1.235714 11.93817,6.753486 12.84843,31.062089 -12.19286,38.907149 z" style="fill:url(#linearGradient5231);fill-opacity:1;fill-rule:evenodd;stroke:url(#linearGradient5233);stroke-width:3.65714288;stroke-linecap:round;stroke-linejoin:round;stroke-miterlimit:4;stroke-opacity:1;stroke-dasharray:none"/>
    <path style="fill:url(#linearGradient5226);fill-opacity:1;fill-rule:evenodd;stroke:url(#linearGradient5228);stroke-width:3.65714288;stroke-linecap:round;stroke-linejoin:round;stroke-miterlimit:4;stroke-opacity:1;stroke-dasharray:none" d="m 75.082964,130.86356 c 8.684595,-6.09788 12.799612,-18.20825 12.45232,-27.98509 -0.500777,-14.097401 -8.041005,-16.554659 -3.734857,-28.894659 2.919886,-8.367415 27.237323,-8.79747 29.983703,0.281084 3.25783,10.769362 -5.10677,17.474093 -3.8029,28.376135 1.521,12.71774 1.61532,21.14791 16.52448,28.93081" id="path2408"/>
    <path id="path8563" d="m 63.015198,190.32636 c 20.083218,2.39645 52.162572,2.78986 74.826582,0.53929 -15.67932,-6.39544 -58.641204,-6.32588 -74.826582,-0.53929 z" style="fill:url(#linearGradient5221);fill-opacity:1;fill-rule:evenodd;stroke:url(#linearGradient5223);stroke-width:3.65714288;stroke-linecap:round;stroke-linejoin:round;stroke-miterlimit:4;stroke-opacity:1;stroke-dasharray:none"/>
    <path transform="matrix(0.22084302,0,0,0.22084298,-76.302058,-33.60624)" d="m 815,915 a 17.5,16.666666 0 1 1 -35,0 17.5,16.666666 0 1 1 35,0 z" id="path21809" style="fill:url(#linearGradient5343);fill-opacity:1;fill-rule:evenodd;stroke:url(#linearGradient5345);stroke-width:16.55992508;stroke-linecap:round;stroke-linejoin:round;stroke-miterlimit:4;stroke-opacity:1;stroke-dasharray:none;stroke-dashoffset:0"/>
    <path transform="matrix(0.24288439,-0.0439872,0.02951635,0.16298102,-143.5593,57.039749)" style="fill:url(#linearGradient5339);fill-opacity:1;fill-rule:evenodd;stroke:url(#linearGradient5341);stroke-width:18.08697128;stroke-linecap:round;stroke-linejoin:round;stroke-miterlimit:4;stroke-opacity:1;stroke-dasharray:none;stroke-dashoffset:0" id="path21811" d="m 815,915 a 17.5,16.666666 0 1 1 -35,0 17.5,16.666666 0 1 1 35,0 z"/>
    <path d="m 815,915 a 17.5,16.666666 0 1 1 -35,0 17.5,16.666666 0 1 1 35,0 z" id="path21815" style="fill:url(#linearGradient5335);fill-opacity:1;fill-rule:evenodd;stroke:url(#linearGradient5337);stroke-width:18.32027817;stroke-linecap:round;stroke-linejoin:round;stroke-miterlimit:4;stroke-opacity:1;stroke-dasharray:none;stroke-dashoffset:0" transform="matrix(0.23748182,0.03854011,-0.02653303,0.16349302,-43.120388,-9.2446012)"/>
  </g>
</svg>