<?xml version="1.0" encoding="utf-8"?>
<svg viewBox="800 0 200 200" xmlns="http://www.w3.org/2000/svg" xmlns:xlink="http://www.w3.org/1999/xlink">
  <defs>
    <linearGradient id="linearGradient5101" gradientUnits="userSpaceOnUse" gradientTransform="matrix(0.22857143,0,0,0.22857143,800,0.9142857)" x1="58.222321" y1="511.39841" x2="775.05908" y2="762.62531" xlink:href="#linearGradientBlackPieces"/>
    <linearGradient id="linearGradientBlackPieces">
      <stop id="stop2268" offset="0" style="stop-color:#000e1c;stop-opacity:1;"/>
      <stop id="stop2270" offset="1" style="stop-color:#50506f;stop-opacity:1;"/>
    </linearGradient>
    <linearGradient id="linearGradient5103" gradientUnits="userSpaceOnUse" x1="822.23922" y1="101.81162" x2="972.98854" y2="101.81162" gradientTransform="matrix(0.99812851,0,0,0.99812851,1.4971928,0)" xlink:href="#linearGradientBlackPiecesBorder"/>
    <linearGradient id="linearGradientBlackPiecesBorder">
      <stop style="stop-color:#808080;stop-opacity:1;" offset="0" id="stop7192"/>
      <stop style="stop-color:#808080;stop-opacity:1;" offset="1" id="stop7194"/>
    </linearGradient>
    <linearGradient id="linearGradient5098" gradientUnits="userSpaceOnUse" x1="859.85814" y1="69.920009" x2="880.83843" y2="69.920009" gradientTransform="matrix(0.99812851,0,0,0.99812851,1.4971928,0)" xlink:href="#linearGradientBlackPiecesBorder"/>
    <linearGradient id="linearGradient5095" gradientUnits="userSpaceOnUse" x1="866.44156" y1="74.656575" x2="876.04205" y2="74.656575" gradientTransform="matrix(0.99812851,0,0,0.99812851,1.4971928,0)" xlink:href="#linearGradientBlackPiecesBorder"/>
    <linearGradient id="linearGradient5092" gradientUnits="userSpaceOnUse" x1="828.48736" y1="120.72367" x2="836.35859" y2="120.72367" gradientTransform="matrix(0.99812851,0,0,0.99812851,1.4971928,0)" xlink:href="#linearGradientBlackPiecesBorder"/>
    <linearGradient id="linearGradient5089" gradientUnits="userSpaceOnUse" x1="870.73263" y1="109.9657" x2="876.56927" y2="109.9657" gradientTransform="matrix(0.99812851,0,0,0.99812851,1.4971928,0)" xlink:href="#linearGradientBlackPiecesBorder"/>
    <linearGradient id="linearGradient5086" gradientUnits="userSpaceOnUse" x1="919.25245" y1="81.701929" x2="922.98304" y2="81.701929" gradientTransform="matrix(0.99812851,0,0,0.99812851,1.4971928,0)" xlink:href="#linearGradientBlackPiecesBorder"/>
    <linearGradient id="linearGradient5083" gradientUnits="userSpaceOnUse" x1="870.47832" y1="37.851393" x2="876.45823" y2="37.851393" gradientTransform="matrix(0.99812851,0,0,0.99812851,1.4971928,0)" xlink:href="#linearGradientBlackPiecesBorder"/>
    <linearGradient id="linearGradient5080" gradientUnits="userSpaceOnUse" x1="885.02086" y1="30.237432" x2="895.02954" y2="30.237432" gradientTransform="matrix(0.99812851,0,0,0.99812851,1.4971928,0)" xlink:href="#linearGradientBlackPiecesBorder"/>
    <linearGradient id="linearGradient5075" gradientUnits="userSpaceOnUse" gradientTransform="matrix(0.22857143,0,0,0.22857143,800.91429,-0.45714286)" x1="493.79175" y1="157.9061" x2="609.8985" y2="148.71771" xlink:href="#linearGradientBlackPieces"/>
    <linearGradient id="linearGradient5077" gradientUnits="userSpaceOnUse" x1="901.95467" y1="33.598358" x2="940.58276" y2="33.598358" gradientTransform="matrix(0.99812851,0,0,0.99812851,1.4971928,0)" xlink:href="#linearGradientBlackPiecesBorder"/>
    <linearGradient id="linearGradient5070" gradientUnits="userSpaceOnUse" gradientTransform="matrix(0.22857143,0,0,0.22857143,800,0.9142857)" x1="598.67926" y1="209.76059" x2="705.53198" y2="232.28799" xlink:href="#linearGradientBlackPieces"/>
    <linearGradient id="linearGradient5072" gradientUnits="userSpaceOnUse" x1="930.78402" y1="51.229487" x2="961.56683" y2="51.229487" gradientTransform="matrix(0.99812851,0,0,0.99812851,1.4971928,0)" xlink:href="#linearGradientBlackPiecesBorder"/>
    <linearGradient id="linearGradient5065" gradientUnits="userSpaceOnUse" gradientTransform="matrix(0.22857143,0,0,0.22857143,800.91429,0.9142857)" x1="667.0329" y1="299.32745" x2="739.15356" y2="348.42047" xlink:href="#linearGradientBlackPieces"/>
    <linearGradient id="linearGradient5067" gradientUnits="userSpaceOnUse" x1="949.18222" y1="72.811045" x2="972.39326" y2="72.811045" gradientTransform="matrix(0.99812851,0,0,0.99812851,1.4971928,0)" xlink:href="#linearGradientBlackPiecesBorder"/>
    <linearGradient id="linearGradient5060" gradientUnits="userSpaceOnUse" gradientTransform="matrix(0.22857143,0,0,0.22857143,800,0.9142857)" x1="705.29126" y1="378.28769" x2="787.12555" y2="465.62366" xlink:href="#linearGradientBlackPieces"/>
    <linearGradient id="linearGradient5062" gradientUnits="userSpaceOnUse" x1="960.82851" y1="96.396319" x2="984.5351" y2="96.396319" gradientTransform="matrix(0.99812851,0,0,0.99812851,1.4971928,0)" xlink:href="#linearGradientBlackPiecesBorder"/>
    <linearGradient id="linearGradient5057" gradientUnits="userSpaceOnUse" x1="892.60011" y1="174.09663" x2="902.16768" y2="174.09663" gradientTransform="matrix(0.99812851,0,0,0.99812851,1.4971928,0)" xlink:href="#linearGradientBlackPiecesBorder"/>
  </defs>
  <g id="BlackKnight">
    <rect y="0" x="800" height="200" width="200" id="rect5867" style="fill:none;stroke:none"/>
    <path id="path9661" d="m 920.82051,91.841942 c 0.049,17.483918 -20.16603,32.606288 -40.10424,24.990548 -3.05344,-1.16631 -30.75842,23.95503 -35.19852,20.51791 -3.50284,-2.71159 3.88081,-13.88996 3.34401,-12.46223 -2.55581,6.79794 -13.83928,14.36437 -22.90058,4.59714 -3.5436,-3.81967 -2.44779,-14.80597 5.18493,-23.75614 7.94899,-9.321021 16.02018,-23.674761 19.14441,-31.953351 6.28395,-16.651286 3.81839,-17.014997 15.8609,-32.115611 2.26233,-2.836839 -3.67739,-13.850429 -1.51858,-21.039443 8.52749,1.520737 11.81478,10.094284 15.7361,13.692241 2.28585,-5.291813 0.74991,-19.511095 4.81348,-18.848516 4.06357,0.662574 8.73775,12.980934 15.4412,18.391373 80.28857,24.707625 79.63225,153.189417 57.19346,153.605677 -27.69634,0.51379 -60.85496,0.39751 -88.70968,-0.0463 -6.74913,-0.10754 -9.87345,-8.83917 -8.57203,-14.05723 6.20686,-24.88641 32.41901,-42.30551 45.25898,-50.93791 13.18793,-8.86633 15.60252,-17.57942 15.02616,-30.578178 z" style="fill:url(#linearGradient5101);fill-opacity:1;fill-rule:evenodd;stroke:url(#linearGradient5103);stroke-width:3.65714288;stroke-linecap:round;stroke-linejoin:round;stroke-miterlimit:4;stroke-opacity:1;stroke-dasharray:none"/>
    <path id="path31294" d="m 878.85857,67.222556 c -6.64521,-1.226357 -12.47191,0.703581 -17.28388,5.492775" style="fill:none;stroke:url(#linearGradient5098);stroke-width:3.65714288;stroke-linecap:round;stroke-linejoin:round;stroke-miterlimit:4;stroke-opacity:1;stroke-dasharray:none"/>
    <path id="path31298" d="m 868.14579,74.469163 c 2.38697,2.432112 5.42488,2.533527 5.92538,-1.599225" style="fill:none;stroke:url(#linearGradient5095);stroke-width:3.65714288;stroke-linecap:round;stroke-linejoin:round;stroke-miterlimit:4;stroke-opacity:1;stroke-dasharray:none"/>
    <path id="path31300" d="m 834.46197,118.46619 c -3.1668,-1.09378 -5.45786,4.00845 -3.4373,4.21661" style="fill:none;stroke:url(#linearGradient5092);stroke-width:3.65714288;stroke-linecap:round;stroke-linejoin:round;stroke-miterlimit:4;stroke-opacity:1;stroke-dasharray:none"/>
    <path id="path31308" d="m 872.42883,108.41242 2.16857,2.69497" style="fill:none;stroke:url(#linearGradient5089);stroke-width:3.65714288;stroke-linecap:round;stroke-linejoin:round;stroke-miterlimit:4;stroke-opacity:1;stroke-dasharray:none"/>
    <path id="path31312" d="m 920.85784,84.396784 0.0665,-5.695518" style="fill:none;stroke:url(#linearGradient5086);stroke-width:3.65714288;stroke-linecap:round;stroke-linejoin:round;stroke-miterlimit:4;stroke-opacity:1;stroke-dasharray:none"/>
    <path id="path32040" d="m 874.48657,37.177012 -2.31158,1.207084" style="fill:none;stroke:url(#linearGradient5083);stroke-width:3.65714288;stroke-linecap:round;stroke-linejoin:round;stroke-miterlimit:4;stroke-opacity:1;stroke-dasharray:none"/>
    <path id="path32768" d="m 886.69032,24.885392 c 6.89193,9.627456 9.38036,11.57494 1.18547,10.193591" style="fill:none;stroke:url(#linearGradient5080);stroke-width:3.65714288;stroke-linecap:round;stroke-linejoin:round;stroke-miterlimit:4;stroke-opacity:1;stroke-dasharray:none"/>
    <path id="path1849" d="m 903.87285,29.971641 c 19.78804,5.802043 16.45047,1.614235 20.62382,8.410485 2.33812,3.807609 5.57796,-1.29779 13.29052,-0.814817 4.16519,0.260832 -11.42877,-6.221978 -13.46256,-8.814331 -2.8235,-3.598958 -23.35496,0.367424 -20.45178,1.218663 z" style="fill:url(#linearGradient5075);fill-opacity:1;fill-rule:evenodd;stroke:url(#linearGradient5077);stroke-width:3.65714288;stroke-linecap:round;stroke-linejoin:round;stroke-miterlimit:4;stroke-opacity:1;stroke-dasharray:none"/>
    <path id="path1851" d="m 932.46887,45.65086 c 6.21536,4.725174 10.76795,-0.0742 10.52243,8.124763 -0.16858,5.629602 7.42995,1.8683 11.12002,4.216615 3.39955,2.163421 6.80931,-6.563491 4.64701,-6.563491 -3.25317,0 -8.77717,1.526215 -7.77769,-2.147351 2.19387,-8.063535 -20.29693,-4.987696 -18.51177,-3.630536 z" style="fill:url(#linearGradient5070);fill-opacity:1;fill-rule:evenodd;stroke:url(#linearGradient5072);stroke-width:3.65714288;stroke-linecap:round;stroke-linejoin:round;stroke-miterlimit:4;stroke-opacity:1;stroke-dasharray:none"/>
    <path id="path1853" d="m 950.75005,63.47787 c 1.20981,0.423236 7.79901,4.884501 7.49392,7.005991 -1.57365,10.942361 6.49501,10.233086 9.96743,11.389817 4.86586,1.620912 -0.22674,-4.18829 -2.68195,-7.175056 -2.45521,-2.986766 1.67773,-4.32408 1.38837,-6.218549 -1.01786,-6.66422 -16.79938,-5.22317 -16.16777,-5.002203 z" style="fill:url(#linearGradient5065);fill-opacity:1;fill-rule:evenodd;stroke:url(#linearGradient5067);stroke-width:3.65714288;stroke-linecap:round;stroke-linejoin:round;stroke-miterlimit:4;stroke-opacity:1;stroke-dasharray:none"/>
    <path id="path1855" d="m 962.3748,86.547936 c 1.15613,2.015943 3.867,4.299219 4.72632,7.461675 0.85933,3.162459 1.18283,5.981929 2.90148,9.378639 1.71865,3.39671 8.63367,2.95394 11.61554,1.95703 4.0178,-1.34325 -9.71342,-5.51474 -6.61953,-11.874637 1.9582,-4.025315 -13.24774,-8.010661 -12.62381,-6.922707 z" style="fill:url(#linearGradient5060);fill-opacity:1;fill-rule:evenodd;stroke:url(#linearGradient5062);stroke-width:3.65714288;stroke-linecap:round;stroke-linejoin:round;stroke-miterlimit:4;stroke-opacity:1;stroke-dasharray:none"/>
    <path id="path2732" d="m 900.1479,166.74312 -5.89252,14.05538" style="fill:none;stroke:url(#linearGradient5057);stroke-width:3.65714288;stroke-linecap:round;stroke-linejoin:round;stroke-miterlimit:4;stroke-opacity:1;stroke-dasharray:none"/>
  </g>
</svg>