<?xml version="1.0" encoding="utf-8"?>
<svg viewBox="200 0 200 200" xmlns="http://www.w3.org/2000/svg" xmlns:xlink="http://www.w3.org/1999/xlink">
  <defs>
    <linearGradient id="linearGradient5214" gradientUnits="userSpaceOnUse" gradientTransform="matrix(0.22857143,0,0,0.22857143,200,0)" x1="153.6037" y1="380.53995" x2="761.36395" y2="682.2066" xlink:href="#linearGradientBlackPieces"/>
    <linearGradient id="linearGradientBlackPieces">
      <stop id="stop2268" offset="0" style="stop-color:#000e1c;stop-opacity:1;"/>
      <stop id="stop2270" offset="1" style="stop-color:#50506f;stop-opacity:1;"/>
    </linearGradient>
    <linearGradient id="linearGradient5209" gradientUnits="userSpaceOnUse" gradientTransform="matrix(0.22857143,0,0,0.22857143,200,0)" x1="153.6037" y1="380.53995" x2="822.49933" y2="675.41992" xlink:href="#linearGradientBlackPieces"/>
    <linearGradient id="linearGradient5211" gradientUnits="userSpaceOnUse" x1="246.33115" y1="171.3815" x2="342.14333" y2="171.3815" gradientTransform="matrix(0.99812851,0,0,0.99812851,0.37429819,0)" xlink:href="#linearGradientBlackPiecesBorder"/>
    <linearGradient id="linearGradientBlackPiecesBorder">
      <stop style="stop-color:#808080;stop-opacity:1;" offset="0" id="stop7192"/>
      <stop style="stop-color:#808080;stop-opacity:1;" offset="1" id="stop7194"/>
    </linearGradient>
    <linearGradient id="linearGradient5204" gradientUnits="userSpaceOnUse" gradientTransform="matrix(0.22857143,0,0,0.22857143,200,0)" x1="153.6037" y1="380.53995" x2="724.24603" y2="618.98932" xlink:href="#linearGradientBlackPieces"/>
    <linearGradient id="linearGradient5206" gradientUnits="userSpaceOnUse" x1="215.32858" y1="100.44596" x2="374.35234" y2="100.44596" gradientTransform="matrix(0.99812851,0,0,0.99812851,0.37429819,0)" xlink:href="#linearGradientBlackPiecesBorder"/>
    <linearGradient id="linearGradient5199" gradientUnits="userSpaceOnUse" gradientTransform="matrix(0.22857143,0,0,0.22857143,200,0)" x1="153.6037" y1="380.53995" x2="761.36395" y2="682.2066" xlink:href="#linearGradientBlackPieces"/>
    <linearGradient id="linearGradient5201" gradientUnits="userSpaceOnUse" x1="282.06701" y1="168.87478" x2="304.46984" y2="168.87478" gradientTransform="matrix(0.99812851,0,0,0.99812851,0.37429819,0)" xlink:href="#linearGradientBlackPiecesBorder"/>
    <linearGradient id="linearGradient5194" gradientUnits="userSpaceOnUse" gradientTransform="matrix(0.22857143,0,0,0.22857143,200,0)" x1="175.43776" y1="454.77576" x2="687.12817" y2="677.83978" xlink:href="#linearGradientBlackPieces"/>
    <linearGradient id="linearGradient5196" gradientUnits="userSpaceOnUse" x1="254.17529" y1="188.43194" x2="334.08665" y2="188.43194" gradientTransform="matrix(0.99812851,0,0,0.99812851,0.37429819,0)" xlink:href="#linearGradientBlackPiecesBorder"/>
    <linearGradient id="linearGradient5189" gradientUnits="userSpaceOnUse" gradientTransform="matrix(0.22857143,0,0,0.22857143,200,0)" x1="406.01202" y1="103.53159" x2="470.8349" y2="132.99438" xlink:href="#linearGradientBlackPieces"/>
    <linearGradient id="linearGradient5191" gradientUnits="userSpaceOnUse" x1="294.59603" y1="29.106316" x2="310.51999" y2="29.106316" gradientTransform="matrix(0.99812851,0,0,0.99812851,0.37429819,0)" xlink:href="#linearGradientBlackPiecesBorder"/>
    <linearGradient id="linearGradient5378" gradientUnits="userSpaceOnUse" x1="339.47086" y1="530.60559" x2="450.13174" y2="571.97302" xlink:href="#linearGradientBlackPieces"/>
    <linearGradient id="linearGradient5380" gradientUnits="userSpaceOnUse" x1="339.47087" y1="530.60559" x2="450.13173" y2="530.60559" xlink:href="#linearGradientBlackPiecesBorder"/>
    <linearGradient id="linearGradient5183" gradientUnits="userSpaceOnUse" gradientTransform="matrix(0.22857143,0,0,0.22857143,200,0)" x1="649.86255" y1="171.18027" x2="711.11725" y2="227.74881" xlink:href="#linearGradientBlackPieces"/>
    <linearGradient id="linearGradient5185" gradientUnits="userSpaceOnUse" x1="341.53179" y1="45.67738" x2="365.54463" y2="45.67738" gradientTransform="matrix(0.99812851,0,0,0.99812851,0.37429819,0)" xlink:href="#linearGradientBlackPiecesBorder"/>
    <linearGradient id="linearGradient5374" gradientUnits="userSpaceOnUse" x1="339.47086" y1="530.60559" x2="436.0773" y2="584.75751" xlink:href="#linearGradientBlackPieces"/>
    <linearGradient id="linearGradient5376" gradientUnits="userSpaceOnUse" x1="339.47087" y1="530.60559" x2="450.13173" y2="530.60559" xlink:href="#linearGradientBlackPiecesBorder"/>
    <linearGradient id="linearGradient5177" gradientUnits="userSpaceOnUse" gradientTransform="matrix(0.22857143,0,0,0.22857143,200,0)" x1="785.14124" y1="294.75864" x2="840.91125" y2="363.08893" xlink:href="#linearGradientBlackPieces"/>
    <linearGradient id="linearGradient5179" gradientUnits="userSpaceOnUse" x1="372.24073" y1="76.675623" x2="395.53735" y2="76.675623" gradientTransform="matrix(0.99812851,0,0,0.99812851,0.37429819,0)" xlink:href="#linearGradientBlackPiecesBorder"/>
    <linearGradient id="linearGradient5370" gradientUnits="userSpaceOnUse" x1="339.47086" y1="530.60559" x2="463.12936" y2="571.97302" xlink:href="#linearGradientBlackPieces"/>
    <linearGradient id="linearGradient5372" gradientUnits="userSpaceOnUse" x1="339.47087" y1="530.60559" x2="450.13173" y2="530.60559" xlink:href="#linearGradientBlackPiecesBorder"/>
    <linearGradient id="linearGradient5171" gradientUnits="userSpaceOnUse" gradientTransform="matrix(0.22857143,0,0,0.22857143,200,0)" x1="167.87183" y1="174.99733" x2="234.62003" y2="174.99733" xlink:href="#linearGradientBlackPieces"/>
    <linearGradient id="linearGradient5173" gradientUnits="userSpaceOnUse" x1="238.44265" y1="40.074389" x2="253.72799" y2="40.074389" gradientTransform="matrix(0.99812851,0,0,0.99812851,0.37429819,0)" xlink:href="#linearGradientBlackPiecesBorder"/>
    <linearGradient id="linearGradient5366" gradientUnits="userSpaceOnUse" x1="339.47086" y1="530.60559" x2="473.62973" y2="563.92206" xlink:href="#linearGradientBlackPieces"/>
    <linearGradient id="linearGradient5368" gradientUnits="userSpaceOnUse" x1="339.47087" y1="530.60559" x2="450.13173" y2="530.60559" xlink:href="#linearGradientBlackPiecesBorder"/>
    <linearGradient id="linearGradient5165" gradientUnits="userSpaceOnUse" gradientTransform="matrix(0.22857143,0,0,0.22857143,200,0)" x1="23.458433" y1="337.85495" x2="87.371216" y2="315.46323" xlink:href="#linearGradientBlackPieces"/>
    <linearGradient id="linearGradient5167" gradientUnits="userSpaceOnUse" x1="205.37198" y1="77.368786" x2="220.00801" y2="77.368786" gradientTransform="matrix(0.99812851,0,0,0.99812851,0.37429819,0)" xlink:href="#linearGradientBlackPiecesBorder"/>
    <linearGradient id="linearGradient5362" gradientUnits="userSpaceOnUse" x1="339.47086" y1="530.60559" x2="479.95377" y2="569.41608" xlink:href="#linearGradientBlackPieces"/>
    <linearGradient id="linearGradient5364" gradientUnits="userSpaceOnUse" x1="339.47087" y1="530.60559" x2="450.13173" y2="530.60559" xlink:href="#linearGradientBlackPiecesBorder"/>
  </defs>
  <g id="BlackQueen">
    <rect y="0" x="200" height="200" width="200" id="rect5420" style="fill:none;stroke:none"/>
    <path id="path5422" d="m 255.7566,188.54634 -11.51501,-37.99134 99.14697,0.30124 -11.31854,38.78422 -76.31342,-1.09412 z" style="fill:url(#linearGradient5214);fill-opacity:1;fill-rule:evenodd;stroke:none"/>
    <path id="path5424" d="m 340.04874,163.72108 c -27.93136,-9.98142 -64.77863,-10.03939 -91.97573,-0.0238 2.87639,6.9782 3.63842,21.2567 3.63842,21.2567 23.02155,-6.4396 62.16105,-6.24382 85.00231,0.95725 0,0 0.52796,-15.24721 3.335,-22.19017 z" style="fill:url(#linearGradient5209);fill-opacity:1;fill-rule:evenodd;stroke:url(#linearGradient5211);stroke-width:3.65714288;stroke-linecap:round;stroke-linejoin:round;stroke-miterlimit:4;stroke-opacity:1;stroke-dasharray:none"/>
    <path id="path28221" d="m 244.59516,159.52352 c 27.85155,-12.04272 71.44711,-12.23302 99.56053,0.0937 2.7717,-24.0083 11.50797,-53.64495 28.04178,-74.902734 -12.53664,4.905644 -30.73811,36.311554 -41.32007,42.230354 -8.29808,-17.4316 8.12443,-62.675195 14.50944,-72.258029 -10.71977,6.450011 -33.40524,46.403659 -40.10731,65.093699 -9.66079,-21.587315 -7.39948,-61.961528 -7.63058,-78.881893 -7.26764,15.897915 -16.80412,52.42813 -17.78025,78.243313 -18.55827,-13.91178 -25.1076,-51.490536 -30.05734,-66.378457 -2.72535,21.439477 2.03068,58.782217 5.17107,73.880327 -12.06681,-8.13546 -26.15763,-26.03872 -37.85397,-41.212562 14.8707,35.559682 20.25328,46.329812 27.4667,74.092222 z" style="fill:url(#linearGradient5204);fill-opacity:1;fill-rule:evenodd;stroke:url(#linearGradient5206);stroke-width:3.65714288;stroke-linecap:round;stroke-linejoin:round;stroke-miterlimit:4;stroke-opacity:1;stroke-dasharray:none"/>
    <path id="path7672" d="m 293.20307,159.95009 c -4.34242,-0.0223 -1.96238,3.3453 -2.81575,4.82632 -1.95143,1.13118 -8.28466,-0.87581 -6.24601,3.27771 1.4443,2.94263 3.60368,1.5574 6.02905,2.50551 1.20576,1.66093 -0.83269,6.71218 3.43692,6.6062 3.52628,-0.0875 1.60418,-5.12706 2.3579,-6.48491 2.1317,-1.39292 4.92849,0.49481 6.33928,-3.07474 1.07104,-2.70994 -4.23143,-1.70479 -6.32528,-2.87179 -0.87707,-1.31001 1.74188,-4.76063 -2.77611,-4.7843 z" style="fill:url(#linearGradient5199);fill-opacity:1;fill-rule:evenodd;stroke:url(#linearGradient5201);stroke-width:3.65714288;stroke-linecap:round;stroke-linejoin:round;stroke-miterlimit:4;stroke-opacity:1;stroke-dasharray:none"/>
    <path id="path5428" d="m 255.90247,188.63381 c 20.30223,2.42259 53.19352,3.28242 76.10467,1.00729 -12.92995,-5.77856 -59.40347,-5.7297 -76.10467,-1.00729 z" style="fill:url(#linearGradient5194);fill-opacity:1;fill-rule:evenodd;stroke:url(#linearGradient5196);stroke-width:3.65714288;stroke-linecap:round;stroke-linejoin:round;stroke-miterlimit:4;stroke-opacity:1;stroke-dasharray:none"/>
    <path id="path1323" d="m 308.48458,18.861369 c -1.95657,0.04289 -7.98708,1.055847 -11.61107,2.863445 -1.09938,2.768007 -0.52829,10.881355 0.0301,17.517506 3.47071,-5.570279 11.13967,-15.143593 11.58093,-20.380951 z" style="fill:url(#linearGradient5189);fill-opacity:1;fill-rule:evenodd;stroke:url(#linearGradient5191);stroke-width:3.65714288;stroke-linecap:round;stroke-linejoin:round;stroke-miterlimit:4;stroke-opacity:1;stroke-dasharray:none"/>
    <path transform="matrix(0.19518313,0,0,0.19518313,219.9395,-62.058583)" d="m 440.76324,530.60559 a 45.961941,44.783428 0 1 1 -91.92388,0 45.961941,44.783428 0 1 1 91.92388,0 z" id="path29102" style="fill:url(#linearGradient5378);fill-opacity:1;fill-rule:evenodd;stroke:url(#linearGradient5380);stroke-width:18.73698616;stroke-linecap:round;stroke-linejoin:round;stroke-miterlimit:4;stroke-opacity:1;stroke-dasharray:none;stroke-dashoffset:0"/>
    <path style="fill:url(#linearGradient5183);fill-opacity:1;fill-rule:evenodd;stroke:url(#linearGradient5185);stroke-width:3.65714288;stroke-linecap:round;stroke-linejoin:round;stroke-miterlimit:4;stroke-opacity:1;stroke-dasharray:none" d="m 363.40624,47.086749 c -1.0783,-1.292098 -0.39089,-3.657122 -9.14369,-8.469503 l -11.16706,13.949298 c 6.26539,-1.954215 16.17474,-4.905131 20.31075,-5.479795 z" id="path2211"/>
    <path style="fill:url(#linearGradient5374);fill-opacity:1;fill-rule:evenodd;stroke:url(#linearGradient5376);stroke-width:18.73698616;stroke-linecap:round;stroke-linejoin:round;stroke-miterlimit:4;stroke-opacity:1;stroke-dasharray:none;stroke-dashoffset:0" id="path2203" d="m 440.76324,530.60559 a 45.961941,44.783428 0 1 1 -91.92388,0 45.961941,44.783428 0 1 1 91.92388,0 z" transform="matrix(0.19518313,0,0,0.19518313,267.48235,-48.344297)"/>
    <path id="path2213" d="m 393.27089,80.432313 c 0.61126,-3.160512 -2.78183,-4.175618 -6.03682,-8.531246 -4.53406,1.856476 -9.78677,4.070773 -13.48712,9.262115 9.34106,-1.926412 13.58725,0.927561 19.52394,-0.730869 z" style="fill:url(#linearGradient5177);fill-opacity:1;fill-rule:evenodd;stroke:url(#linearGradient5179);stroke-width:3.65714288;stroke-linecap:round;stroke-linejoin:round;stroke-miterlimit:4;stroke-opacity:1;stroke-dasharray:none"/>
    <path transform="matrix(0.19518313,0,0,0.19518313,295.50864,-19.599748)" d="m 440.76324,530.60559 a 45.961941,44.783428 0 1 1 -91.92388,0 45.961941,44.783428 0 1 1 91.92388,0 z" id="path2205" style="fill:url(#linearGradient5370);fill-opacity:1;fill-rule:evenodd;stroke:url(#linearGradient5372);stroke-width:18.73698616;stroke-linecap:round;stroke-linejoin:round;stroke-miterlimit:4;stroke-opacity:1;stroke-dasharray:none;stroke-dashoffset:0"/>
    <path style="fill:url(#linearGradient5171);fill-opacity:1;fill-rule:evenodd;stroke:url(#linearGradient5173);stroke-width:3.65714288;stroke-linecap:round;stroke-linejoin:round;stroke-miterlimit:4;stroke-opacity:1;stroke-dasharray:none" d="m 251.79887,35.318512 c -2.41372,-2.699971 -5.23276,-2.312505 -11.59959,-3.247765 0.2223,7.708942 4.82388,9.859583 7.56151,15.857287 3.47071,-5.570279 2.9111,-5.772164 4.03808,-12.609522 z" id="path2215"/>
    <path style="fill:url(#linearGradient5366);fill-opacity:1;fill-rule:evenodd;stroke:url(#linearGradient5368);stroke-width:18.73698616;stroke-linecap:round;stroke-linejoin:round;stroke-miterlimit:4;stroke-opacity:1;stroke-dasharray:none;stroke-dashoffset:0" id="path2207" d="m 440.76324,530.60559 a 45.961941,44.783428 0 1 1 -91.92388,0 45.961941,44.783428 0 1 1 91.92388,0 z" transform="matrix(0.19518313,0,0,0.19518313,171.71088,-50.172869)"/>
    <path id="path2217" d="m 211.48865,66.235948 c -3.0736,0.639984 -3.33367,6.928342 -4.29815,10.154395 3.44153,3.793177 6.94093,5.954215 9.94755,11.821691 3.21471,-5.721856 -2.0022,-17.58522 -5.6494,-21.976086 z" style="fill:url(#linearGradient5165);fill-opacity:1;fill-rule:evenodd;stroke:url(#linearGradient5167);stroke-width:3.65714288;stroke-linecap:round;stroke-linejoin:round;stroke-miterlimit:4;stroke-opacity:1;stroke-dasharray:none"/>
    <path transform="matrix(0.19518313,0,0,0.19518313,143.06101,-15.753258)" d="m 440.76324,530.60559 a 45.961941,44.783428 0 1 1 -91.92388,0 45.961941,44.783428 0 1 1 91.92388,0 z" id="path2209" style="fill:url(#linearGradient5362);fill-opacity:1;fill-rule:evenodd;stroke:url(#linearGradient5364);stroke-width:18.73698616;stroke-linecap:round;stroke-linejoin:round;stroke-miterlimit:4;stroke-opacity:1;stroke-dasharray:none;stroke-dashoffset:0"/>
  </g>
</svg>