<?xml version="1.0" encoding="utf-8"?>
<svg viewBox="600 200 200 200" xmlns="http://www.w3.org/2000/svg" xmlns:xlink="http://www.w3.org/1999/xlink">
  <defs>
    <linearGradient id="linearGradient5036" gradientUnits="userSpaceOnUse" gradientTransform="matrix(0.22857144,0,0,0.22857144,600.00001,200.00001)" x1="706.30969" y1="193.79158" x2="602.51648" y2="612.50507" xlink:href="#linearGradientWhitePieces"/>
    <linearGradient id="linearGradientWhitePieces">
      <stop id="stop7929" offset="0" style="stop-color:#ede3de;stop-opacity:1;"/>
      <stop id="stop7931" offset="1" style="stop-color:#8a6737;stop-opacity:1;"/>
    </linearGradient>
    <linearGradient id="linearGradient5038" gradientUnits="userSpaceOnUse" x1="697.80657" y1="89.994812" x2="747.74203" y2="89.994812" gradientTransform="matrix(1.0000063,0,0,1.0000063,-0.00376895,200.00001)" xlink:href="#linearGradientWhitePiecesBorder"/>
    <linearGradient id="linearGradientWhitePiecesBorder">
      <stop style="stop-color:#000000;stop-opacity:1;" offset="0" id="stop7935"/>
      <stop style="stop-color:#000000;stop-opacity:1;" offset="1" id="stop7937"/>
    </linearGradient>
    <linearGradient id="linearGradient5031" gradientUnits="userSpaceOnUse" gradientTransform="matrix(0.22857144,0,0,0.22857144,600.00001,200.00001)" x1="229.48785" y1="640.76947" x2="615.77783" y2="730.46149" xlink:href="#linearGradientWhitePieces"/>
    <linearGradient id="linearGradient5033" gradientUnits="userSpaceOnUse" x1="662.91519" y1="158.72688" x2="731.09846" y2="158.72688" gradientTransform="matrix(1.0000063,0,0,1.0000063,-0.00376895,200.00001)" xlink:href="#linearGradientWhitePiecesBorder"/>
    <linearGradient id="linearGradient5026" gradientUnits="userSpaceOnUse" gradientTransform="matrix(0.22857144,0,0,0.22857144,600.00001,200.00001)" x1="192.30013" y1="446.01318" x2="613.59027" y2="649.5235" xlink:href="#linearGradientWhitePieces"/>
    <linearGradient id="linearGradient5028" gradientUnits="userSpaceOnUse" x1="643.26833" y1="95.33782" x2="735.92003" y2="95.33782" gradientTransform="matrix(1.0000063,0,0,1.0000063,-0.00376895,200.00001)" xlink:href="#linearGradientWhitePiecesBorder"/>
    <linearGradient id="linearGradient5021" gradientUnits="userSpaceOnUse" gradientTransform="matrix(0.22857144,0,0,0.22857144,600.00001,200.00001)" x1="334.55096" y1="110.78522" x2="393.23401" y2="127.35208" xlink:href="#linearGradientWhitePieces"/>
    <linearGradient id="linearGradient5023" gradientUnits="userSpaceOnUse" x1="676.46831" y1="25.322179" x2="689.8815" y2="25.322179" gradientTransform="matrix(1.0000063,0,0,1.0000063,-0.00376895,200.00001)" xlink:href="#linearGradientWhitePiecesBorder"/>
    <linearGradient id="linearGradient5018" gradientUnits="userSpaceOnUse" x1="692.22753" y1="160.05825" x2="705.01598" y2="160.05825" gradientTransform="matrix(1.0000063,0,0,1.0000063,-0.00376895,200.00001)" xlink:href="#linearGradientWhitePiecesBorder"/>
    <linearGradient id="linearGradient5013" gradientUnits="userSpaceOnUse" x1="667.23889" y1="115.81965" x2="659.72015" y2="118.31965" gradientTransform="matrix(1.0000063,0,0,1.0000063,-0.00376895,200.00001)" xlink:href="#linearGradientWhitePieces"/>
    <linearGradient id="linearGradient5015" gradientUnits="userSpaceOnUse" x1="667.2389" y1="105.81965" x2="706.72016" y2="105.81965" gradientTransform="matrix(1.0000063,0,0,1.0000063,-0.00376895,200.00001)" xlink:href="#linearGradientWhitePiecesBorder"/>
    <linearGradient id="linearGradient5008" gradientUnits="userSpaceOnUse" gradientTransform="matrix(0.22857144,0,0,0.22857144,600.00001,200.00001)" x1="155.78476" y1="666.80823" x2="733.56958" y2="841.04077" xlink:href="#linearGradientWhitePieces"/>
    <linearGradient id="linearGradient5010" gradientUnits="userSpaceOnUse" x1="630.42201" y1="177.31452" x2="767.67199" y2="177.31452" gradientTransform="matrix(1.0000063,0,0,1.0000063,-0.00376895,200.00001)" xlink:href="#linearGradientWhitePiecesBorder"/>
    <linearGradient id="linearGradient5003" gradientUnits="userSpaceOnUse" x1="729.02667" y1="125.66114" x2="739.4967" y2="133.16115" gradientTransform="matrix(1.0000063,0,0,1.0000063,-0.00376895,200.00001)" xlink:href="#linearGradientWhitePieces"/>
    <linearGradient id="linearGradient5005" gradientUnits="userSpaceOnUse" x1="667.0267" y1="106.16114" x2="759.99669" y2="106.16114" gradientTransform="matrix(1.0000063,0,0,1.0000063,-0.00376895,200.00001)" xlink:href="#linearGradientWhitePiecesBorder"/>
    <linearGradient id="linearGradient4998" gradientUnits="userSpaceOnUse" gradientTransform="matrix(0.22857144,0,0,0.22857144,631.83923,199.11029)" x1="321.15759" y1="90.161285" x2="395.43152" y2="128.46291" xlink:href="#linearGradientWhitePieces"/>
    <linearGradient id="linearGradient5000" gradientUnits="userSpaceOnUse" x1="708.30733" y1="24.432458" x2="721.72052" y2="24.432458" gradientTransform="matrix(1.0000063,0,0,1.0000063,-0.00376895,200.00001)" xlink:href="#linearGradientWhitePiecesBorder"/>
  </defs>
  <g id="WhiteBishop">
    <rect style="fill:none;stroke:none" id="rect7539" width="200" height="200" x="600" y="200"/>
    <path style="fill:url(#linearGradient5036);fill-opacity:1;fill-rule:evenodd;stroke:url(#linearGradient5038);stroke-width:3.65714288;stroke-linecap:round;stroke-linejoin:round;stroke-miterlimit:4;stroke-opacity:1;stroke-dasharray:none" d="m 699.63574,249.57012 c 2.47308,-4.17301 8.95019,-11.54043 15.62922,-15.37194 8.28185,7.78421 19.57487,25.91334 25.16109,43.33403 4.3538,13.57738 5.25671,19.67812 5.48338,34.18251 0.22668,14.50438 -7.40135,28.79221 -12.08341,34.07786" id="path7541"/>
    <path style="fill:url(#linearGradient5031);fill-opacity:1;fill-rule:evenodd;stroke:url(#linearGradient5033);stroke-width:3.65714288;stroke-linecap:round;stroke-linejoin:round;stroke-miterlimit:4;stroke-opacity:1;stroke-dasharray:none" d="m 729.25014,357.04189 c 1.38027,-12.22151 -67.22774,-11.31942 -64.42223,0.6871 2.26677,5.0028 0.47896,11.43659 0.47896,11.43659 0,0 15.83487,-2.24694 33.45899,-1.96694 17.62412,0.28001 29.55199,1.67739 29.55199,1.67739 0,0 -0.44799,-8.23261 0.93229,-11.83414 z" id="path7543"/>
    <path style="fill:url(#linearGradient5026);fill-opacity:1;fill-rule:evenodd;stroke:url(#linearGradient5028);stroke-width:3.65714288;stroke-linecap:round;stroke-linejoin:round;stroke-miterlimit:4;stroke-opacity:1;stroke-dasharray:none" d="m 663.87066,355.95067 c -5.20925,-1.84795 -9.00165,-9.2425 -12.28798,-13.95879 -5.24563,-7.52811 -8.33832,-23.18377 -5.2662,-40.73934 3.07213,-17.55557 19.76846,-51.47873 36.86548,-66.52637 20.83702,15.04764 34.27476,37.79713 44.87973,68.11034 5.67522,16.22203 8.49209,33.97462 3.28283,52.58617 -12.15493,-2.50794 -53.31428,-4.88687 -67.47386,0.52799 z" id="path7545"/>
    <path style="fill:url(#linearGradient5021);fill-opacity:1;fill-rule:evenodd;stroke:url(#linearGradient5023);stroke-width:3.65714288;stroke-linecap:round;stroke-linejoin:round;stroke-miterlimit:4;stroke-opacity:1;stroke-dasharray:none" d="m 680.09808,231.70713 c 2.8525,-4.84474 -4.50993,-7.9356 -0.65877,-11.31926 2.16269,-1.90015 5.86256,-2.09025 7.93989,0.37447 2.99515,3.5537 -5.19882,6.63663 -1.16731,10.8976" id="path7547"/>
    <path style="fill:none;stroke:url(#linearGradient5018);stroke-width:3.65714288;stroke-linecap:round;stroke-linejoin:round;stroke-miterlimit:4;stroke-opacity:1;stroke-dasharray:none" d="m 699.74395,362.82256 c -2.17892,-0.58827 -4.13767,0.44726 -4.93659,-0.21476 -0.98036,-0.81234 -0.92296,-4.19212 -0.2739,-5.05007 0.55496,-0.73356 7.68718,-0.82514 8.38705,-0.14934 0.65242,0.62892 -0.0189,4.7234 -0.62337,5.75943" id="path7549"/>
    <path style="fill:url(#linearGradient5013);fill-opacity:1;fill-rule:evenodd;stroke:url(#linearGradient5015);stroke-width:3.65714288;stroke-linecap:round;stroke-linejoin:round;stroke-miterlimit:4;stroke-opacity:1;stroke-dasharray:none" d="m 687.15713,279.67143 c -2.61208,0.41426 -3.91211,3.27825 -3.58511,5.70702 -0.045,2.07633 0.86451,4.75153 -0.84347,6.3787 -2.31052,0.76872 -4.81096,-0.19396 -7.16527,-0.39521 -1.93832,-0.17711 -4.27577,-0.90983 -5.99901,0.33807 -1.31897,1.56245 0.22173,3.92345 1.92143,4.45 3.41781,1.48678 7.47558,0.71126 10.76429,2.47142 1.13526,1.04732 0.9031,2.87143 1.25,4.26429 1.06913,8.29763 1.01265,16.82704 3.52142,24.86428 0.65668,1.76462 1.68241,4.21296 3.87857,4.22858 1.69536,-0.58013 1.48132,-2.83199 1.57143,-4.28572 -0.20534,-9.11357 -2.73457,-17.99681 -3.13571,-27.09286 -0.0451,-0.89547 0.035,-2.01928 1.19286,-2.11428 4.10561,-1.18166 8.90265,0.13275 12.63571,-2.36428 1.53308,-0.83077 2.81271,-3.93039 0.32857,-4.33572 -4.37871,-0.64444 -8.80472,1.24277 -13.15714,0.42143 -1.3474,-0.47704 -1.2294,-2.3422 -1.38572,-3.51429 -0.25509,-2.76122 0.58401,-5.70029 -0.46428,-8.33571 -0.26287,-0.45967 -0.79112,-0.75216 -1.32857,-0.68572 z" id="path7551"/>
    <path style="fill:url(#linearGradient5008);fill-opacity:1;fill-rule:evenodd;stroke:url(#linearGradient5010);stroke-width:3.65714288;stroke-linecap:round;stroke-linejoin:round;stroke-miterlimit:4;stroke-opacity:1;stroke-dasharray:none" d="m 672.6554,383.60888 c 12.75959,-0.14292 18.9024,-7.40145 24.55023,-7.41002 5.64784,-0.009 10.8007,7.23279 24.53757,7.2569 7.37046,0.0129 46.17116,0.78734 44.01473,-5.09377 -2.15638,-5.88112 -26.66059,2.01678 -34.86539,-2.16602 -4.29474,-2.18946 -5.55472,-2.70835 -11.11038,-3.55006 -14.98719,-2.27063 -30.31065,-2.18012 -43.86266,-0.0859 -6.03322,0.93235 -8.48725,1.97055 -11.88523,4.25765 -5.71575,3.84714 -29.79279,-4.15201 -31.68782,1.46772 -1.89503,5.61973 24.80429,5.49711 40.30895,5.32345 z" id="path7553"/>
    <path style="fill:url(#linearGradient5003);fill-opacity:1;fill-rule:evenodd;stroke:url(#linearGradient5005);stroke-width:3.65714288;stroke-linecap:round;stroke-linejoin:round;stroke-miterlimit:4;stroke-opacity:1;stroke-dasharray:none" d="m 745.29998,220.83571 c -4.70532,0.0451 -8.21546,3.90683 -10.16704,7.83205 -1.29109,2.49267 -3.56778,4.30733 -4.83295,6.79653 -0.26622,1.49933 1.87191,1.98787 3,1.66429 2.75386,-0.58274 4.93531,-2.75989 5.86528,-5.37649 1.10356,-2.69429 3.59551,-4.81396 6.54901,-5.00923 2.90062,-0.50995 5.58003,1.77016 6.16427,4.54286 0.8443,2.90663 0.46232,6.33284 -1.87857,8.44285 -3.65372,3.83248 -9.19591,5.5475 -12.27142,9.99287 -16.87919,33.30934 -33.73272,66.6403 -50.38525,100.06446 -5.91165,12.12292 -12.15817,24.10907 -17.33618,36.56411 -0.40285,1.55401 -1.61197,3.27714 -0.96428,4.89285 1.02161,0.79383 2.30835,-0.4338 3.19285,-0.97143 3.64051,-3.32308 5.65874,-8.01742 8.07143,-12.24999 10.16578,-19.72332 19.69309,-39.77213 29.58769,-59.63428 10.74342,-21.69055 21.48757,-43.38808 32.4623,-64.95858 3.10474,-4.59527 8.99768,-6.13472 12.47878,-10.37944 2.21679,-2.43314 3.6352,-5.65438 3.27837,-8.99199 -0.2287,-5.5538 -3.44457,-11.56438 -9.19285,-12.88571 -1.17966,-0.29897 -2.40003,-0.39025 -3.62144,-0.33573 z" id="path7555"/>
    <path id="path7557" d="m 711.93729,230.81741 c 2.85251,-4.84474 -4.50992,-7.9356 -0.65877,-11.31926 2.16269,-1.90016 5.86257,-2.09026 7.9399,0.37447 2.99515,3.55369 -5.19883,6.63662 -1.16731,10.8976" style="fill:url(#linearGradient4998);fill-opacity:1;fill-rule:evenodd;stroke:url(#linearGradient5000);stroke-width:3.65714288;stroke-linecap:round;stroke-linejoin:round;stroke-miterlimit:4;stroke-opacity:1;stroke-dasharray:none"/>
  </g>
</svg>