<?xml version="1.0" encoding="utf-8"?>
<svg viewBox="0 200 200 200" xmlns="http://www.w3.org/2000/svg" xmlns:xlink="http://www.w3.org/1999/xlink">
  <defs>
    <linearGradient id="linearGradient4816" gradientUnits="userSpaceOnUse" gradientTransform="matrix(0.22857143,0,0,0.22857144,0,200.00001)" x1="297.55386" y1="427.04959" x2="368.56238" y2="521.21625" xlink:href="#linearGradientWhitePieces"/>
    <linearGradient id="linearGradientWhitePieces">
      <stop id="stop7929" offset="0" style="stop-color:#ede3de;stop-opacity:1;"/>
      <stop id="stop7931" offset="1" style="stop-color:#8a6737;stop-opacity:1;"/>
    </linearGradient>
    <linearGradient id="linearGradient4818" gradientUnits="userSpaceOnUse" x1="64.019555" y1="110.56303" x2="94.436889" y2="110.56303" gradientTransform="matrix(0.99812851,0,0,1.0000063,0,200.00001)" xlink:href="#linearGradientWhitePiecesBorder"/>
    <linearGradient id="linearGradientWhitePiecesBorder">
      <stop style="stop-color:#000000;stop-opacity:1;" offset="0" id="stop7935"/>
      <stop style="stop-color:#000000;stop-opacity:1;" offset="1" id="stop7937"/>
    </linearGradient>
    <linearGradient id="linearGradient4811" gradientUnits="userSpaceOnUse" gradientTransform="matrix(0.22857143,0,0,0.22857144,0,200.00001)" x1="495.29623" y1="448.54721" x2="595.97144" y2="528.54724" xlink:href="#linearGradientWhitePieces"/>
    <linearGradient id="linearGradient4813" gradientUnits="userSpaceOnUse" x1="106.05839" y1="111.66723" x2="136.47574" y2="111.66723" gradientTransform="matrix(0.99812851,0,0,1.0000063,0,200.00001)" xlink:href="#linearGradientWhitePiecesBorder"/>
    <linearGradient id="linearGradient4806" gradientUnits="userSpaceOnUse" gradientTransform="matrix(0.22857143,0,0,0.22857144,0,200.00001)" x1="313.69473" y1="101.18996" x2="536.18018" y2="251.91928" xlink:href="#linearGradientWhitePieces"/>
    <linearGradient id="linearGradient4808" gradientUnits="userSpaceOnUse" x1="68.517819" y1="40.057539" x2="130.49355" y2="40.057539" gradientTransform="matrix(0.99812851,0,0,1.0000063,0,200.00001)" xlink:href="#linearGradientWhitePiecesBorder"/>
    <linearGradient id="linearGradient4801" gradientUnits="userSpaceOnUse" gradientTransform="matrix(0.22857143,0,0,0.22857144,0,200.00001)" x1="368.47662" y1="273.33771" x2="494.5513" y2="319.27548" xlink:href="#linearGradientWhitePieces"/>
    <linearGradient id="linearGradient4803" gradientUnits="userSpaceOnUse" x1="84.38115" y1="72.976797" x2="113.25052" y2="72.976797" gradientTransform="matrix(0.99812851,0,0,1.0000063,0,200.00001)" xlink:href="#linearGradientWhitePiecesBorder"/>
    <linearGradient id="linearGradient4798" gradientUnits="userSpaceOnUse" gradientTransform="matrix(0.22857143,0,0,0.22857143,0,200)" x1="129.96214" y1="428.65894" x2="812.36853" y2="836.31329" xlink:href="#linearGradientWhitePieces"/>
    <linearGradient id="linearGradient4793" gradientUnits="userSpaceOnUse" gradientTransform="matrix(0.22857143,0,0,0.22857144,0,200.00001)" x1="197.64774" y1="629.91022" x2="664.98859" y2="790.37555" xlink:href="#linearGradientWhitePieces"/>
    <linearGradient id="linearGradient4795" gradientUnits="userSpaceOnUse" x1="52.179426" y1="171.15182" x2="149.18172" y2="171.15182" gradientTransform="matrix(0.99812851,0,0,1.0000063,0,200.00001)" xlink:href="#linearGradientWhitePiecesBorder"/>
    <linearGradient id="linearGradient4788" gradientUnits="userSpaceOnUse" gradientTransform="matrix(0.22857143,0,0,0.22857144,0,200.00001)" x1="129.96214" y1="428.65894" x2="698.83136" y2="740.06268" xlink:href="#linearGradientWhitePieces"/>
    <linearGradient id="linearGradient4790" gradientUnits="userSpaceOnUse" x1="18.694719" y1="115.58561" x2="183.74068" y2="115.58561" gradientTransform="matrix(0.99812851,0,0,1.0000063,0,200.00001)" xlink:href="#linearGradientWhitePiecesBorder"/>
    <linearGradient id="linearGradient4783" gradientUnits="userSpaceOnUse" gradientTransform="matrix(0.22857143,0,0,0.22857144,0,200.00001)" x1="129.96214" y1="428.65894" x2="701.01483" y2="740.06274" xlink:href="#linearGradientWhitePieces"/>
    <linearGradient id="linearGradient4785" gradientUnits="userSpaceOnUse" x1="73.393466" y1="99.576291" x2="128.57319" y2="99.576291" gradientTransform="matrix(0.99812851,0,0,1.0000063,0,200.00001)" xlink:href="#linearGradientWhitePiecesBorder"/>
    <linearGradient id="linearGradient4778" gradientUnits="userSpaceOnUse" gradientTransform="matrix(0.22857143,0,0,0.22857144,0,200.00001)" x1="221.55104" y1="774.93707" x2="611.05023" y2="849.56549" xlink:href="#linearGradientWhitePieces"/>
    <linearGradient id="linearGradient4780" gradientUnits="userSpaceOnUse" x1="61.303072" y1="189.18989" x2="139.93051" y2="189.18989" gradientTransform="matrix(0.99812851,0,0,1.0000063,0,200.00001)" xlink:href="#linearGradientWhitePiecesBorder"/>
    <linearGradient id="linearGradient5316" gradientUnits="userSpaceOnUse" x1="797.5" y1="931.98047" x2="797.5" y2="947.82898" xlink:href="#linearGradientWhitePieces"/>
    <linearGradient id="linearGradient5318" gradientUnits="userSpaceOnUse" x1="771.72004" y1="915" x2="823.27996" y2="915" xlink:href="#linearGradientWhitePiecesBorder"/>
    <linearGradient id="linearGradient5312" gradientUnits="userSpaceOnUse" x1="804.05585" y1="930.06891" x2="809.85663" y2="955.65509" xlink:href="#linearGradientWhitePieces"/>
    <linearGradient id="linearGradient5314" gradientUnits="userSpaceOnUse" x1="770.95651" y1="915" x2="824.04349" y2="915" xlink:href="#linearGradientWhitePiecesBorder"/>
    <linearGradient id="linearGradient5308" gradientUnits="userSpaceOnUse" x1="822.14368" y1="909.1908" x2="844.99213" y2="932.17261" xlink:href="#linearGradientWhitePieces"/>
    <linearGradient id="linearGradient5310" gradientUnits="userSpaceOnUse" x1="770.83986" y1="915" x2="824.16014" y2="915" xlink:href="#linearGradientWhitePiecesBorder"/>
  </defs>
  <g id="WhiteKing">
    <rect style="fill:none;stroke:none" id="rect7561" width="200" height="200" x="0" y="200"/>
    <path style="fill:url(#linearGradient4816);fill-opacity:1;fill-rule:evenodd;stroke:url(#linearGradient4818);stroke-width:3.65714288;stroke-linecap:round;stroke-linejoin:round;stroke-miterlimit:4;stroke-opacity:1;stroke-dasharray:none" d="m 65.973661,339.99662 c 5.301121,-7.65948 -1.61168,-28.76318 0.0042,-38.41182 2.622422,-15.659 23.197554,-26.16923 25.943908,-17.09068 3.257851,10.76938 -9.968434,11.78595 -13.648343,20.7757 -3.380091,8.25731 -2.65696,22.05308 3.92368,30.35651" id="path7563"/>
    <path id="path7565" d="m 134.1464,341.10082 c -5.30112,-7.65947 1.61167,-28.76317 -0.004,-38.41181 -2.62245,-15.65898 -23.19758,-26.16923 -25.94393,-17.09068 -3.25785,10.76937 9.96844,11.78594 13.64834,20.77573 3.38009,8.2573 2.65699,22.05307 -3.92368,30.3565" style="fill:url(#linearGradient4811);fill-opacity:1;fill-rule:evenodd;stroke:url(#linearGradient4813);stroke-width:3.65714288;stroke-linecap:round;stroke-linejoin:round;stroke-miterlimit:4;stroke-opacity:1;stroke-dasharray:none"/>
    <path style="fill:url(#linearGradient4806);fill-opacity:1;fill-rule:evenodd;stroke:url(#linearGradient4808);stroke-width:3.65714288;stroke-linecap:round;stroke-linejoin:round;stroke-miterlimit:4;stroke-opacity:1;stroke-dasharray:none" d="m 91.706667,265.85493 c 1.201738,-3.4287 4.320983,-16.21146 3.180846,-19.97732 -5.10032,-0.4036 -15.756639,4.27477 -22.663337,2.77601 -1.945257,-3.51675 -3.159817,-11.08418 -0.365554,-15.23822 6.252639,-1.90263 20.052731,1.4328 23.867154,1.94391 1.352229,-3.85209 -3.312983,-15.46 -2.409235,-19.66321 4.28583,-2.04876 14.929029,-1.84621 18.092209,0.23633 -0.1611,4.41455 -6.60458,15.1371 -6.76098,18.80317 4.29349,-0.22013 17.6671,-3.85718 22.23266,-2.96891 1.96944,3.81954 2.39676,10.64343 -0.78042,15.00477 -4.86738,1.62132 -17.75428,-2.04112 -23.1237,-0.97602 -2.26279,4.56387 1.25507,16.34812 2.12059,19.79551" id="path7567"/>
    <path style="fill:url(#linearGradient4801);fill-opacity:1;fill-rule:evenodd;stroke:url(#linearGradient4803);stroke-width:3.65714288;stroke-linecap:round;stroke-linejoin:round;stroke-miterlimit:4;stroke-opacity:1;stroke-dasharray:none" d="m 93.350804,284.9902 c -5.653759,-4.89562 -8.144891,-4.93628 -7.047474,-17.18999 0.937143,-10.46429 24.28729,-9.92434 24.83067,-0.45506 0.68136,11.87359 -3.26639,12.76278 -6.01133,18.51181" id="path7569"/>
    <path style="fill:url(#linearGradient4798);fill-opacity:1;fill-rule:evenodd;stroke:none" d="m 61.93411,389.78267 -14.622904,-44.8555 107.710454,-0.47261 -17.11771,46.70276 -75.96984,-1.37465 z" id="path7571"/>
    <path id="path7573" d="m 147.07567,363.9107 c -21.41174,-10.9747 -70.203183,-11.49032 -93.167044,0.42868 3.216853,10.16522 4.503609,21.47962 4.503609,21.47962 20.952382,-6.50601 63.513955,-6.76564 84.085385,0.94692 0,0 2.12105,-15.24105 4.57805,-22.85522 z" style="fill:url(#linearGradient4793);fill-opacity:1;fill-rule:evenodd;stroke:url(#linearGradient4795);stroke-width:3.65714288;stroke-linecap:round;stroke-linejoin:round;stroke-miterlimit:4;stroke-opacity:1;stroke-dasharray:none"/>
    <path style="fill:url(#linearGradient4788);fill-opacity:1;fill-rule:evenodd;stroke:url(#linearGradient4790);stroke-width:3.65714288;stroke-linecap:round;stroke-linejoin:round;stroke-miterlimit:4;stroke-opacity:1;stroke-dasharray:none" d="m 126.52143,331.20715 c -8.28366,-3.50017 -17.5324,-13.44604 -27.880719,-13.765 -9.959907,0.23071 -17.955642,8.81457 -23.633568,13.35071 -26.348092,-11.99244 -26.033255,-34.94663 -7.6,-39.15714 3.002269,-0.68578 11.938672,0.10596 17.842857,-0.16428 -1.880069,-5.19215 -3.929534,-8.87401 -1.985715,-15.78572 -4.166449,-2.68158 -9.71151,-4.60443 -16.028571,-4.97857 -1.886108,-0.11171 -3.801403,-0.15935 -5.721428,-0.13571 -18.560243,0.22852 -37.817434,6.97963 -40.55,24.05714 -3.988286,24.9253 18.078258,39.6149 26.021429,65.97857 25.213151,-14.37905 83.351925,-13.46347 107.507145,-1.03572 6.41093,-20.3799 31.9659,-44.1967 26.25,-64.97142 -5.29335,-19.23889 -31.02682,-24.86888 -48.00715,-23.90714 -6.88197,0.38977 -13.48859,2.61766 -18.45,5.67856 0.96046,5.47913 -0.98626,9.95872 -2.59999,14.69286 7.85031,0.003 21.62321,-1.82213 27.02857,1.23571 11.93817,6.75349 12.84843,31.06209 -12.19286,38.90715 z" id="path7575"/>
    <path id="path7577" d="m 75.082964,330.86356 c 8.684595,-6.09788 12.799612,-18.20825 12.45232,-27.98509 -0.500777,-14.0974 -8.041005,-16.55466 -3.734857,-28.89465 2.919886,-8.36742 27.237323,-8.79748 29.983703,0.28108 3.25783,10.76936 -5.10677,17.47409 -3.8029,28.37613 1.521,12.71774 1.61532,21.14791 16.52448,28.93081" style="fill:url(#linearGradient4783);fill-opacity:1;fill-rule:evenodd;stroke:url(#linearGradient4785);stroke-width:3.65714288;stroke-linecap:round;stroke-linejoin:round;stroke-miterlimit:4;stroke-opacity:1;stroke-dasharray:none"/>
    <path style="fill:url(#linearGradient4778);fill-opacity:1;fill-rule:evenodd;stroke:url(#linearGradient4780);stroke-width:3.65714288;stroke-linecap:round;stroke-linejoin:round;stroke-miterlimit:4;stroke-opacity:1;stroke-dasharray:none" d="m 63.015198,390.32636 c 20.083218,2.39645 52.162572,2.78986 74.826582,0.53929 -15.67932,-6.39544 -58.641204,-6.32588 -74.826582,-0.53929 z" id="path7579"/>
    <path style="fill:url(#linearGradient5316);fill-opacity:1;fill-rule:evenodd;stroke:url(#linearGradient5318);stroke-width:16.55992508;stroke-linecap:round;stroke-linejoin:round;stroke-miterlimit:4;stroke-opacity:1;stroke-dasharray:none;stroke-dashoffset:0" id="path7581" d="m 815,915 a 17.5,16.666666 0 1 1 -35,0 17.5,16.666666 0 1 1 35,0 z" transform="matrix(0.22084302,0,0,0.22084298,-76.302058,166.39376)"/>
    <path d="m 815,915 a 17.5,16.666666 0 1 1 -35,0 17.5,16.666666 0 1 1 35,0 z" id="path7583" style="fill:url(#linearGradient5312);fill-opacity:1;fill-rule:evenodd;stroke:url(#linearGradient5314);stroke-width:18.08697128;stroke-linecap:round;stroke-linejoin:round;stroke-miterlimit:4;stroke-opacity:1;stroke-dasharray:none;stroke-dashoffset:0" transform="matrix(0.24288439,-0.0439872,0.02951635,0.16298102,-143.5593,257.03975)"/>
    <path transform="matrix(0.23748182,0.03854011,-0.02653303,0.16349302,-43.120388,190.75541)" style="fill:url(#linearGradient5308);fill-opacity:1;fill-rule:evenodd;stroke:url(#linearGradient5310);stroke-width:18.32027817;stroke-linecap:round;stroke-linejoin:round;stroke-miterlimit:4;stroke-opacity:1;stroke-dasharray:none;stroke-dashoffset:0" id="path7585" d="m 815,915 a 17.5,16.666666 0 1 1 -35,0 17.5,16.666666 0 1 1 35,0 z"/>
  </g>
</svg>