<?xml version="1.0" encoding="utf-8"?>
<svg viewBox="800 200 200 200" xmlns="http://www.w3.org/2000/svg" xmlns:xlink="http://www.w3.org/1999/xlink">
  <defs>
    <linearGradient id="linearGradient4920" gradientUnits="userSpaceOnUse" gradientTransform="matrix(0.22857143,0,0,0.22857143,800,200.91429)" x1="58.222321" y1="511.39841" x2="775.05908" y2="762.62531" xlink:href="#linearGradientWhitePieces"/>
    <linearGradient id="linearGradientWhitePieces">
      <stop id="stop7929" offset="0" style="stop-color:#ede3de;stop-opacity:1;"/>
      <stop id="stop7931" offset="1" style="stop-color:#8a6737;stop-opacity:1;"/>
    </linearGradient>
    <linearGradient id="linearGradient4922" gradientUnits="userSpaceOnUse" x1="822.23922" y1="101.81162" x2="972.98854" y2="101.81162" gradientTransform="matrix(0.99812851,0,0,0.99812851,1.4971928,200)" xlink:href="#linearGradientWhitePiecesBorder"/>
    <linearGradient id="linearGradientWhitePiecesBorder">
      <stop style="stop-color:#000000;stop-opacity:1;" offset="0" id="stop7935"/>
      <stop style="stop-color:#000000;stop-opacity:1;" offset="1" id="stop7937"/>
    </linearGradient>
    <linearGradient id="linearGradient4917" gradientUnits="userSpaceOnUse" x1="859.85814" y1="69.920009" x2="880.83843" y2="69.920009" gradientTransform="matrix(0.99812851,0,0,0.99812851,1.4971928,200)" xlink:href="#linearGradientWhitePiecesBorder"/>
    <linearGradient id="linearGradient4914" gradientUnits="userSpaceOnUse" x1="866.44156" y1="74.656575" x2="876.04205" y2="74.656575" gradientTransform="matrix(0.99812851,0,0,0.99812851,1.4971928,200)" xlink:href="#linearGradientWhitePiecesBorder"/>
    <linearGradient id="linearGradient4911" gradientUnits="userSpaceOnUse" x1="828.48736" y1="120.72367" x2="836.35859" y2="120.72367" gradientTransform="matrix(0.99812851,0,0,0.99812851,1.4971928,200)" xlink:href="#linearGradientWhitePiecesBorder"/>
    <linearGradient id="linearGradient4908" gradientUnits="userSpaceOnUse" x1="870.73263" y1="109.9657" x2="876.56927" y2="109.9657" gradientTransform="matrix(0.99812851,0,0,0.99812851,1.4971928,200)" xlink:href="#linearGradientWhitePiecesBorder"/>
    <linearGradient id="linearGradient4905" gradientUnits="userSpaceOnUse" x1="919.25245" y1="81.701929" x2="922.98304" y2="81.701929" gradientTransform="matrix(0.99812851,0,0,0.99812851,1.4971928,200)" xlink:href="#linearGradientWhitePiecesBorder"/>
    <linearGradient id="linearGradient4902" gradientUnits="userSpaceOnUse" x1="870.47832" y1="37.851393" x2="876.45823" y2="37.851393" gradientTransform="matrix(0.99812851,0,0,0.99812851,1.4971928,200)" xlink:href="#linearGradientWhitePiecesBorder"/>
    <linearGradient id="linearGradient4899" gradientUnits="userSpaceOnUse" x1="885.02086" y1="30.237432" x2="895.02954" y2="30.237432" gradientTransform="matrix(0.99812851,0,0,0.99812851,1.4971928,200)" xlink:href="#linearGradientWhitePiecesBorder"/>
    <linearGradient id="linearGradient4894" gradientUnits="userSpaceOnUse" gradientTransform="matrix(0.22857143,0,0,0.22857143,800.91429,199.54286)" x1="493.79175" y1="157.9061" x2="609.8985" y2="148.71771" xlink:href="#linearGradientWhitePieces"/>
    <linearGradient id="linearGradient4896" gradientUnits="userSpaceOnUse" x1="901.95467" y1="33.598358" x2="940.58276" y2="33.598358" gradientTransform="matrix(0.99812851,0,0,0.99812851,1.4971928,200)" xlink:href="#linearGradientWhitePiecesBorder"/>
    <linearGradient id="linearGradient4889" gradientUnits="userSpaceOnUse" gradientTransform="matrix(0.22857143,0,0,0.22857143,800,200.91429)" x1="598.67926" y1="209.76059" x2="705.53198" y2="232.28799" xlink:href="#linearGradientWhitePieces"/>
    <linearGradient id="linearGradient4891" gradientUnits="userSpaceOnUse" x1="930.78402" y1="51.229487" x2="961.56683" y2="51.229487" gradientTransform="matrix(0.99812851,0,0,0.99812851,1.4971928,200)" xlink:href="#linearGradientWhitePiecesBorder"/>
    <linearGradient id="linearGradient4884" gradientUnits="userSpaceOnUse" gradientTransform="matrix(0.22857143,0,0,0.22857143,800.91429,200.91429)" x1="667.0329" y1="299.32745" x2="739.15356" y2="348.42047" xlink:href="#linearGradientWhitePieces"/>
    <linearGradient id="linearGradient4886" gradientUnits="userSpaceOnUse" x1="949.18222" y1="72.811045" x2="972.39326" y2="72.811045" gradientTransform="matrix(0.99812851,0,0,0.99812851,1.4971928,200)" xlink:href="#linearGradientWhitePiecesBorder"/>
    <linearGradient id="linearGradient4879" gradientUnits="userSpaceOnUse" gradientTransform="matrix(0.22857143,0,0,0.22857143,800,200.91429)" x1="705.29126" y1="378.28769" x2="787.12555" y2="465.62366" xlink:href="#linearGradientWhitePieces"/>
    <linearGradient id="linearGradient4881" gradientUnits="userSpaceOnUse" x1="960.82851" y1="96.396319" x2="984.5351" y2="96.396319" gradientTransform="matrix(0.99812851,0,0,0.99812851,1.4971928,200)" xlink:href="#linearGradientWhitePiecesBorder"/>
    <linearGradient id="linearGradient4876" gradientUnits="userSpaceOnUse" x1="892.60011" y1="174.09663" x2="902.16768" y2="174.09663" gradientTransform="matrix(0.99812851,0,0,0.99812851,1.4971928,200)" xlink:href="#linearGradientWhitePiecesBorder"/>
  </defs>
  <g id="WhiteKnight">
    <rect style="fill:none;stroke:none" id="rect7659" width="200" height="200" x="800" y="200"/>
    <path style="fill:url(#linearGradient4920);fill-opacity:1;fill-rule:evenodd;stroke:url(#linearGradient4922);stroke-width:3.65714288;stroke-linecap:round;stroke-linejoin:round;stroke-miterlimit:4;stroke-opacity:1;stroke-dasharray:none" d="m 920.82051,291.84195 c 0.049,17.48391 -20.16603,32.60628 -40.10424,24.99054 -3.05344,-1.16631 -30.75842,23.95503 -35.19852,20.51791 -3.50284,-2.71159 3.88081,-13.88996 3.34401,-12.46223 -2.55581,6.79794 -13.83928,14.36437 -22.90058,4.59714 -3.5436,-3.81967 -2.44779,-14.80597 5.18493,-23.75614 7.94899,-9.32103 16.02018,-23.67476 19.14441,-31.95335 6.28395,-16.65129 3.81839,-17.015 15.8609,-32.11561 2.26233,-2.83684 -3.67739,-13.85043 -1.51858,-21.03944 8.52749,1.52073 11.81478,10.09428 15.7361,13.69223 2.28585,-5.2918 0.74991,-19.51109 4.81348,-18.84851 4.06357,0.66257 8.73775,12.98093 15.4412,18.39137 80.28857,24.70762 79.63225,153.18942 57.19346,153.60568 -27.69634,0.51379 -60.85496,0.39751 -88.70968,-0.0463 -6.74913,-0.10754 -9.87345,-8.83917 -8.57203,-14.05723 6.20686,-24.88641 32.41901,-42.30551 45.25898,-50.93791 13.18793,-8.86633 15.60252,-17.57942 15.02616,-30.57817 z" id="path7661"/>
    <path style="fill:none;stroke:url(#linearGradient4917);stroke-width:3.65714288;stroke-linecap:round;stroke-linejoin:round;stroke-miterlimit:4;stroke-opacity:1;stroke-dasharray:none" d="m 878.85857,267.22256 c -6.64521,-1.22636 -12.47191,0.70358 -17.28388,5.49277" id="path7663"/>
    <path style="fill:none;stroke:url(#linearGradient4914);stroke-width:3.65714288;stroke-linecap:round;stroke-linejoin:round;stroke-miterlimit:4;stroke-opacity:1;stroke-dasharray:none" d="m 868.14579,274.46916 c 2.38697,2.43212 5.42488,2.53353 5.92538,-1.59922" id="path7665"/>
    <path style="fill:none;stroke:url(#linearGradient4911);stroke-width:3.65714288;stroke-linecap:round;stroke-linejoin:round;stroke-miterlimit:4;stroke-opacity:1;stroke-dasharray:none" d="m 834.46197,318.46619 c -3.1668,-1.09378 -5.45786,4.00845 -3.4373,4.21661" id="path7667"/>
    <path style="fill:none;stroke:url(#linearGradient4908);stroke-width:3.65714288;stroke-linecap:round;stroke-linejoin:round;stroke-miterlimit:4;stroke-opacity:1;stroke-dasharray:none" d="m 872.42883,308.41242 2.16857,2.69497" id="path7669"/>
    <path style="fill:none;stroke:url(#linearGradient4905);stroke-width:3.65714288;stroke-linecap:round;stroke-linejoin:round;stroke-miterlimit:4;stroke-opacity:1;stroke-dasharray:none" d="m 920.85784,284.39679 0.0665,-5.69552" id="path7671"/>
    <path style="fill:none;stroke:url(#linearGradient4902);stroke-width:3.65714288;stroke-linecap:round;stroke-linejoin:round;stroke-miterlimit:4;stroke-opacity:1;stroke-dasharray:none" d="m 874.48657,237.17701 -2.31158,1.20709" id="path7673"/>
    <path style="fill:none;stroke:url(#linearGradient4899);stroke-width:3.65714288;stroke-linecap:round;stroke-linejoin:round;stroke-miterlimit:4;stroke-opacity:1;stroke-dasharray:none" d="m 886.69032,224.88539 c 6.89193,9.62746 9.38036,11.57494 1.18547,10.1936" id="path7675"/>
    <path style="fill:url(#linearGradient4894);fill-opacity:1;fill-rule:evenodd;stroke:url(#linearGradient4896);stroke-width:3.65714288;stroke-linecap:round;stroke-linejoin:round;stroke-miterlimit:4;stroke-opacity:1;stroke-dasharray:none" d="m 903.87285,229.97164 c 19.78804,5.80204 16.45047,1.61424 20.62382,8.41048 2.33812,3.80761 5.57796,-1.29778 13.29052,-0.81481 4.16519,0.26083 -11.42877,-6.22198 -13.46256,-8.81433 -2.8235,-3.59896 -23.35496,0.36742 -20.45178,1.21866 z" id="path7677"/>
    <path style="fill:url(#linearGradient4889);fill-opacity:1;fill-rule:evenodd;stroke:url(#linearGradient4891);stroke-width:3.65714288;stroke-linecap:round;stroke-linejoin:round;stroke-miterlimit:4;stroke-opacity:1;stroke-dasharray:none" d="m 932.46887,245.65085 c 6.21536,4.72518 10.76795,-0.0742 10.52243,8.12477 -0.16858,5.62961 7.42995,1.8683 11.12002,4.21661 3.39955,2.16343 6.80931,-6.56348 4.64701,-6.56348 -3.25317,0 -8.77717,1.52621 -7.77769,-2.14735 2.19387,-8.06354 -20.29693,-4.9877 -18.51177,-3.63055 z" id="path7679"/>
    <path style="fill:url(#linearGradient4884);fill-opacity:1;fill-rule:evenodd;stroke:url(#linearGradient4886);stroke-width:3.65714288;stroke-linecap:round;stroke-linejoin:round;stroke-miterlimit:4;stroke-opacity:1;stroke-dasharray:none" d="m 950.75005,263.47787 c 1.20981,0.42324 7.79901,4.8845 7.49392,7.00599 -1.57365,10.94237 6.49501,10.23309 9.96743,11.38982 4.86586,1.62091 -0.22674,-4.18829 -2.68195,-7.17506 -2.45521,-2.98676 1.67773,-4.32408 1.38837,-6.21855 -1.01786,-6.66421 -16.79938,-5.22317 -16.16777,-5.0022 z" id="path7681"/>
    <path style="fill:url(#linearGradient4879);fill-opacity:1;fill-rule:evenodd;stroke:url(#linearGradient4881);stroke-width:3.65714288;stroke-linecap:round;stroke-linejoin:round;stroke-miterlimit:4;stroke-opacity:1;stroke-dasharray:none" d="m 962.3748,286.54793 c 1.15613,2.01595 3.867,4.29922 4.72632,7.46168 0.85933,3.16246 1.18283,5.98193 2.90148,9.37864 1.71865,3.39671 8.63367,2.95394 11.61554,1.95703 4.0178,-1.34325 -9.71342,-5.51474 -6.61953,-11.87464 1.9582,-4.02531 -13.24774,-8.01066 -12.62381,-6.92271 z" id="path7683"/>
    <path style="fill:none;stroke:url(#linearGradient4876);stroke-width:3.65714288;stroke-linecap:round;stroke-linejoin:round;stroke-miterlimit:4;stroke-opacity:1;stroke-dasharray:none" d="m 900.1479,366.74312 -5.89252,14.05538" id="path7685"/>
  </g>
</svg>