<?xml version="1.0" encoding="utf-8"?>
<svg viewBox="200 200 200 200" xmlns="http://www.w3.org/2000/svg" xmlns:xlink="http://www.w3.org/1999/xlink">
  <defs>
    <linearGradient id="linearGradient4872" gradientUnits="userSpaceOnUse" gradientTransform="matrix(0.22857143,0,0,0.22857143,200,200)" x1="153.6037" y1="380.53995" x2="761.36395" y2="682.2066" xlink:href="#linearGradientWhitePieces"/>
    <linearGradient id="linearGradientWhitePieces">
      <stop id="stop7929" offset="0" style="stop-color:#ede3de;stop-opacity:1;"/>
      <stop id="stop7931" offset="1" style="stop-color:#8a6737;stop-opacity:1;"/>
    </linearGradient>
    <linearGradient id="linearGradient4867" gradientUnits="userSpaceOnUse" gradientTransform="matrix(0.22857143,0,0,0.22857143,200,200)" x1="153.6037" y1="380.53995" x2="822.49933" y2="675.41992" xlink:href="#linearGradientWhitePieces"/>
    <linearGradient id="linearGradient4869" gradientUnits="userSpaceOnUse" x1="246.33115" y1="171.3815" x2="342.14333" y2="171.3815" gradientTransform="matrix(0.99812851,0,0,0.99812851,0.37429819,200)" xlink:href="#linearGradientWhitePiecesBorder"/>
    <linearGradient id="linearGradientWhitePiecesBorder">
      <stop style="stop-color:#000000;stop-opacity:1;" offset="0" id="stop7935"/>
      <stop style="stop-color:#000000;stop-opacity:1;" offset="1" id="stop7937"/>
    </linearGradient>
    <linearGradient id="linearGradient4862" gradientUnits="userSpaceOnUse" gradientTransform="matrix(0.22857143,0,0,0.22857143,200,200)" x1="153.6037" y1="380.53995" x2="724.24603" y2="618.98932" xlink:href="#linearGradientWhitePieces"/>
    <linearGradient id="linearGradient4864" gradientUnits="userSpaceOnUse" x1="215.32858" y1="100.44596" x2="374.35234" y2="100.44596" gradientTransform="matrix(0.99812851,0,0,0.99812851,0.37429819,200)" xlink:href="#linearGradientWhitePiecesBorder"/>
    <linearGradient id="linearGradient4857" gradientUnits="userSpaceOnUse" gradientTransform="matrix(0.22857143,0,0,0.22857143,200,200)" x1="153.6037" y1="380.53995" x2="761.36395" y2="682.2066" xlink:href="#linearGradientWhitePieces"/>
    <linearGradient id="linearGradient4859" gradientUnits="userSpaceOnUse" x1="282.06701" y1="168.87478" x2="304.46984" y2="168.87478" gradientTransform="matrix(0.99812851,0,0,0.99812851,0.37429819,200)" xlink:href="#linearGradientWhitePiecesBorder"/>
    <linearGradient id="linearGradient4852" gradientUnits="userSpaceOnUse" gradientTransform="matrix(0.22857143,0,0,0.22857143,200,200)" x1="175.43776" y1="454.77576" x2="687.12817" y2="677.83978" xlink:href="#linearGradientWhitePieces"/>
    <linearGradient id="linearGradient4854" gradientUnits="userSpaceOnUse" x1="254.17529" y1="188.43194" x2="334.08665" y2="188.43194" gradientTransform="matrix(0.99812851,0,0,0.99812851,0.37429819,200)" xlink:href="#linearGradientWhitePiecesBorder"/>
    <linearGradient id="linearGradient4847" gradientUnits="userSpaceOnUse" gradientTransform="matrix(0.22857143,0,0,0.22857143,200,200)" x1="406.01202" y1="103.53159" x2="470.8349" y2="132.99438" xlink:href="#linearGradientWhitePieces"/>
    <linearGradient id="linearGradient4849" gradientUnits="userSpaceOnUse" x1="294.59603" y1="29.106316" x2="310.51999" y2="29.106316" gradientTransform="matrix(0.99812851,0,0,0.99812851,0.37429819,200)" xlink:href="#linearGradientWhitePiecesBorder"/>
    <linearGradient id="linearGradient5416" gradientUnits="userSpaceOnUse" x1="339.47086" y1="530.60559" x2="450.13174" y2="571.97302" xlink:href="#linearGradientWhitePieces"/>
    <linearGradient id="linearGradient5418" gradientUnits="userSpaceOnUse" x1="339.47087" y1="530.60559" x2="450.13173" y2="530.60559" xlink:href="#linearGradientWhitePiecesBorder"/>
    <linearGradient id="linearGradient4841" gradientUnits="userSpaceOnUse" gradientTransform="matrix(0.22857143,0,0,0.22857143,200,200)" x1="649.86255" y1="171.18027" x2="711.11725" y2="227.74881" xlink:href="#linearGradientWhitePieces"/>
    <linearGradient id="linearGradient4843" gradientUnits="userSpaceOnUse" x1="341.53179" y1="45.67738" x2="365.54463" y2="45.67738" gradientTransform="matrix(0.99812851,0,0,0.99812851,0.37429819,200)" xlink:href="#linearGradientWhitePiecesBorder"/>
    <linearGradient id="linearGradient5412" gradientUnits="userSpaceOnUse" x1="339.47086" y1="530.60559" x2="436.0773" y2="584.75751" xlink:href="#linearGradientWhitePieces"/>
    <linearGradient id="linearGradient5414" gradientUnits="userSpaceOnUse" x1="339.47087" y1="530.60559" x2="450.13173" y2="530.60559" xlink:href="#linearGradientWhitePiecesBorder"/>
    <linearGradient id="linearGradient4835" gradientUnits="userSpaceOnUse" gradientTransform="matrix(0.22857143,0,0,0.22857143,200,200)" x1="785.14124" y1="294.75864" x2="840.91125" y2="363.08893" xlink:href="#linearGradientWhitePieces"/>
    <linearGradient id="linearGradient4837" gradientUnits="userSpaceOnUse" x1="372.24073" y1="76.675623" x2="395.53735" y2="76.675623" gradientTransform="matrix(0.99812851,0,0,0.99812851,0.37429819,200)" xlink:href="#linearGradientWhitePiecesBorder"/>
    <linearGradient id="linearGradient5408" gradientUnits="userSpaceOnUse" x1="339.47086" y1="530.60559" x2="463.12936" y2="571.97302" xlink:href="#linearGradientWhitePieces"/>
    <linearGradient id="linearGradient5410" gradientUnits="userSpaceOnUse" x1="339.47087" y1="530.60559" x2="450.13173" y2="530.60559" xlink:href="#linearGradientWhitePiecesBorder"/>
    <linearGradient id="linearGradient4829" gradientUnits="userSpaceOnUse" gradientTransform="matrix(0.22857143,0,0,0.22857143,200,200)" x1="167.87183" y1="174.99733" x2="234.62003" y2="174.99733" xlink:href="#linearGradientWhitePieces"/>
    <linearGradient id="linearGradient4831" gradientUnits="userSpaceOnUse" x1="238.44265" y1="40.074389" x2="253.72799" y2="40.074389" gradientTransform="matrix(0.99812851,0,0,0.99812851,0.37429819,200)" xlink:href="#linearGradientWhitePiecesBorder"/>
    <linearGradient id="linearGradient5404" gradientUnits="userSpaceOnUse" x1="339.47086" y1="530.60559" x2="473.62973" y2="563.92206" xlink:href="#linearGradientWhitePieces"/>
    <linearGradient id="linearGradient5406" gradientUnits="userSpaceOnUse" x1="339.47087" y1="530.60559" x2="450.13173" y2="530.60559" xlink:href="#linearGradientWhitePiecesBorder"/>
    <linearGradient id="linearGradient4823" gradientUnits="userSpaceOnUse" gradientTransform="matrix(0.22857143,0,0,0.22857143,200,200)" x1="23.458433" y1="337.85495" x2="87.371216" y2="315.46323" xlink:href="#linearGradientWhitePieces"/>
    <linearGradient id="linearGradient4825" gradientUnits="userSpaceOnUse" x1="205.37198" y1="77.368786" x2="220.00801" y2="77.368786" gradientTransform="matrix(0.99812851,0,0,0.99812851,0.37429819,200)" xlink:href="#linearGradientWhitePiecesBorder"/>
    <linearGradient id="linearGradient5400" gradientUnits="userSpaceOnUse" x1="339.47086" y1="530.60559" x2="479.95377" y2="569.41608" xlink:href="#linearGradientWhitePieces"/>
    <linearGradient id="linearGradient5402" gradientUnits="userSpaceOnUse" x1="339.47087" y1="530.60559" x2="450.13173" y2="530.60559" xlink:href="#linearGradientWhitePiecesBorder"/>
  </defs>
  <g id="WhiteQueen">
    <rect style="fill:none;stroke:none" id="rect7589" width="200" height="200" x="200" y="200"/>
    <path style="fill:url(#linearGradient4872);fill-opacity:1;fill-rule:evenodd;stroke:none" d="m 255.7566,388.54634 -11.51501,-37.99134 99.14697,0.30124 -11.31854,38.78422 -76.31342,-1.09412 z" id="path7591"/>
    <path style="fill:url(#linearGradient4867);fill-opacity:1;fill-rule:evenodd;stroke:url(#linearGradient4869);stroke-width:3.65714288;stroke-linecap:round;stroke-linejoin:round;stroke-miterlimit:4;stroke-opacity:1;stroke-dasharray:none" d="m 340.04874,363.72108 c -27.93136,-9.98142 -64.77863,-10.03939 -91.97573,-0.0237 2.87639,6.9782 3.63842,21.2567 3.63842,21.2567 23.02155,-6.4396 62.16105,-6.24382 85.00231,0.95725 0,0 0.52796,-15.24721 3.335,-22.19017 z" id="path7593"/>
    <path style="fill:url(#linearGradient4862);fill-opacity:1;fill-rule:evenodd;stroke:url(#linearGradient4864);stroke-width:3.65714288;stroke-linecap:round;stroke-linejoin:round;stroke-miterlimit:4;stroke-opacity:1;stroke-dasharray:none" d="m 244.59516,359.52352 c 27.85155,-12.04272 71.44711,-12.23302 99.56053,0.0937 2.7717,-24.0083 11.50797,-53.64495 28.04178,-74.90273 -12.53664,4.90564 -30.73811,36.31155 -41.32007,42.23035 -8.29808,-17.4316 8.12443,-62.6752 14.50944,-72.25803 -10.71977,6.45001 -33.40524,46.40366 -40.10731,65.0937 -9.66079,-21.58731 -7.39948,-61.96153 -7.63058,-78.88189 -7.26764,15.89792 -16.80412,52.42812 -17.78025,78.24331 -18.55827,-13.91178 -25.1076,-51.49054 -30.05734,-66.37846 -2.72535,21.43948 2.03068,58.78222 5.17107,73.88033 -12.06681,-8.13546 -26.15763,-26.03872 -37.85397,-41.21256 14.8707,35.55968 20.25328,46.32981 27.4667,74.09222 z" id="path7595"/>
    <path style="fill:url(#linearGradient4857);fill-opacity:1;fill-rule:evenodd;stroke:url(#linearGradient4859);stroke-width:3.65714288;stroke-linecap:round;stroke-linejoin:round;stroke-miterlimit:4;stroke-opacity:1;stroke-dasharray:none" d="m 293.20307,359.95009 c -4.34242,-0.0224 -1.96238,3.3453 -2.81575,4.82632 -1.95143,1.13118 -8.28466,-0.87581 -6.24601,3.27771 1.4443,2.94263 3.60368,1.5574 6.02905,2.50551 1.20576,1.66093 -0.83269,6.71218 3.43692,6.6062 3.52628,-0.0875 1.60418,-5.12706 2.3579,-6.48491 2.1317,-1.39292 4.92849,0.49481 6.33928,-3.07474 1.07104,-2.70994 -4.23143,-1.70479 -6.32528,-2.87179 -0.87707,-1.31001 1.74188,-4.76063 -2.77611,-4.7843 z" id="path7597"/>
    <path style="fill:url(#linearGradient4852);fill-opacity:1;fill-rule:evenodd;stroke:url(#linearGradient4854);stroke-width:3.65714288;stroke-linecap:round;stroke-linejoin:round;stroke-miterlimit:4;stroke-opacity:1;stroke-dasharray:none" d="m 255.90247,388.63381 c 20.30223,2.42259 53.19352,3.28242 76.10467,1.00729 -12.92995,-5.77856 -59.40347,-5.7297 -76.10467,-1.00729 z" id="path7599"/>
    <path style="fill:url(#linearGradient4847);fill-opacity:1;fill-rule:evenodd;stroke:url(#linearGradient4849);stroke-width:3.65714288;stroke-linecap:round;stroke-linejoin:round;stroke-miterlimit:4;stroke-opacity:1;stroke-dasharray:none" d="m 308.48458,218.86136 c -1.95657,0.0429 -7.98708,1.05586 -11.61107,2.86346 -1.09938,2.768 -0.52829,10.88135 0.0301,17.5175 3.47071,-5.57028 11.13967,-15.1436 11.58093,-20.38096 z" id="path7601"/>
    <path style="fill:url(#linearGradient5416);fill-opacity:1;fill-rule:evenodd;stroke:url(#linearGradient5418);stroke-width:18.73698616;stroke-linecap:round;stroke-linejoin:round;stroke-miterlimit:4;stroke-opacity:1;stroke-dasharray:none;stroke-dashoffset:0" id="path7603" d="m 440.76324,530.60559 a 45.961941,44.783428 0 1 1 -91.92388,0 45.961941,44.783428 0 1 1 91.92388,0 z" transform="matrix(0.19518313,0,0,0.19518313,219.9395,137.94142)"/>
    <path id="path7605" d="m 363.40624,247.08675 c -1.0783,-1.29209 -0.39089,-3.65712 -9.14369,-8.46951 l -11.16706,13.94931 c 6.26539,-1.95422 16.17474,-4.90514 20.31075,-5.4798 z" style="fill:url(#linearGradient4841);fill-opacity:1;fill-rule:evenodd;stroke:url(#linearGradient4843);stroke-width:3.65714288;stroke-linecap:round;stroke-linejoin:round;stroke-miterlimit:4;stroke-opacity:1;stroke-dasharray:none"/>
    <path transform="matrix(0.19518313,0,0,0.19518313,267.48235,151.65571)" d="m 440.76324,530.60559 a 45.961941,44.783428 0 1 1 -91.92388,0 45.961941,44.783428 0 1 1 91.92388,0 z" id="path7607" style="fill:url(#linearGradient5412);fill-opacity:1;fill-rule:evenodd;stroke:url(#linearGradient5414);stroke-width:18.73698616;stroke-linecap:round;stroke-linejoin:round;stroke-miterlimit:4;stroke-opacity:1;stroke-dasharray:none;stroke-dashoffset:0"/>
    <path style="fill:url(#linearGradient4835);fill-opacity:1;fill-rule:evenodd;stroke:url(#linearGradient4837);stroke-width:3.65714288;stroke-linecap:round;stroke-linejoin:round;stroke-miterlimit:4;stroke-opacity:1;stroke-dasharray:none" d="m 393.27089,280.43231 c 0.61126,-3.1605 -2.78183,-4.17561 -6.03682,-8.53124 -4.53406,1.85647 -9.78677,4.07077 -13.48712,9.26211 9.34106,-1.92641 13.58725,0.92756 19.52394,-0.73087 z" id="path7609"/>
    <path style="fill:url(#linearGradient5408);fill-opacity:1;fill-rule:evenodd;stroke:url(#linearGradient5410);stroke-width:18.73698616;stroke-linecap:round;stroke-linejoin:round;stroke-miterlimit:4;stroke-opacity:1;stroke-dasharray:none;stroke-dashoffset:0" id="path7611" d="m 440.76324,530.60559 a 45.961941,44.783428 0 1 1 -91.92388,0 45.961941,44.783428 0 1 1 91.92388,0 z" transform="matrix(0.19518313,0,0,0.19518313,295.50864,180.40025)"/>
    <path id="path7613" d="m 251.79887,235.31851 c -2.41372,-2.69997 -5.23276,-2.31251 -11.59959,-3.24776 0.2223,7.70894 4.82388,9.85958 7.56151,15.85728 3.47071,-5.57027 2.9111,-5.77216 4.03808,-12.60952 z" style="fill:url(#linearGradient4829);fill-opacity:1;fill-rule:evenodd;stroke:url(#linearGradient4831);stroke-width:3.65714288;stroke-linecap:round;stroke-linejoin:round;stroke-miterlimit:4;stroke-opacity:1;stroke-dasharray:none"/>
    <path transform="matrix(0.19518313,0,0,0.19518313,171.71088,149.82713)" d="m 440.76324,530.60559 a 45.961941,44.783428 0 1 1 -91.92388,0 45.961941,44.783428 0 1 1 91.92388,0 z" id="path7615" style="fill:url(#linearGradient5404);fill-opacity:1;fill-rule:evenodd;stroke:url(#linearGradient5406);stroke-width:18.73698616;stroke-linecap:round;stroke-linejoin:round;stroke-miterlimit:4;stroke-opacity:1;stroke-dasharray:none;stroke-dashoffset:0"/>
    <path style="fill:url(#linearGradient4823);fill-opacity:1;fill-rule:evenodd;stroke:url(#linearGradient4825);stroke-width:3.65714288;stroke-linecap:round;stroke-linejoin:round;stroke-miterlimit:4;stroke-opacity:1;stroke-dasharray:none" d="m 211.48865,266.23595 c -3.0736,0.63998 -3.33367,6.92834 -4.29815,10.15439 3.44153,3.79318 6.94093,5.95421 9.94755,11.82169 3.21471,-5.72185 -2.0022,-17.58522 -5.6494,-21.97608 z" id="path7617"/>
    <path style="fill:url(#linearGradient5400);fill-opacity:1;fill-rule:evenodd;stroke:url(#linearGradient5402);stroke-width:18.73698616;stroke-linecap:round;stroke-linejoin:round;stroke-miterlimit:4;stroke-opacity:1;stroke-dasharray:none;stroke-dashoffset:0" id="path7619" d="m 440.76324,530.60559 a 45.961941,44.783428 0 1 1 -91.92388,0 45.961941,44.783428 0 1 1 91.92388,0 z" transform="matrix(0.19518313,0,0,0.19518313,143.06101,184.24674)"/>
  </g>
</svg>