<?xml version="1.0" encoding="utf-8"?>
<svg viewBox="400 200 200 200" xmlns="http://www.w3.org/2000/svg" xmlns:xlink="http://www.w3.org/1999/xlink">
  <defs>
    <linearGradient id="linearGradient4977" gradientUnits="userSpaceOnUse" gradientTransform="matrix(0.23890515,0,0,0.23188362,392.26775,197.29485)" x1="7.337575" y1="207.66478" x2="689.74506" y2="274.33145" xlink:href="#linearGradientWhitePieces"/>
    <linearGradient id="linearGradientWhitePieces">
      <stop id="stop7929" offset="0" style="stop-color:#ede3de;stop-opacity:1;"/>
      <stop id="stop7931" offset="1" style="stop-color:#8a6737;stop-opacity:1;"/>
    </linearGradient>
    <linearGradient id="linearGradient4979" gradientUnits="userSpaceOnUse" x1="444.03736" y1="57.924455" x2="557.98109" y2="57.924455" gradientTransform="matrix(0.99812851,0,0,0.99812851,0.74859638,200)" xlink:href="#linearGradientWhitePiecesBorder"/>
    <linearGradient id="linearGradientWhitePiecesBorder">
      <stop style="stop-color:#000000;stop-opacity:1;" offset="0" id="stop7935"/>
      <stop style="stop-color:#000000;stop-opacity:1;" offset="1" id="stop7937"/>
    </linearGradient>
    <linearGradient id="linearGradient4972" gradientUnits="userSpaceOnUse" gradientTransform="matrix(0.23890515,0,0,0.23188362,392.26775,197.29485)" x1="193.1496" y1="715.4057" x2="742.91541" y2="730.41913" xlink:href="#linearGradientWhitePieces"/>
    <linearGradient id="linearGradient4974" gradientUnits="userSpaceOnUse" x1="429.07269" y1="173.94605" x2="570.07235" y2="173.94605" gradientTransform="matrix(0.99812851,0,0,0.99812851,0.74859638,200)" xlink:href="#linearGradientWhitePiecesBorder"/>
    <linearGradient id="linearGradient4969" gradientUnits="userSpaceOnUse" x1="443.51943" y1="175.82125" x2="555.15972" y2="175.82125" gradientTransform="matrix(0.99812851,0,0,0.99812851,0.74859638,200)" xlink:href="#linearGradientWhitePiecesBorder"/>
    <linearGradient id="linearGradient4964" gradientUnits="userSpaceOnUse" gradientTransform="matrix(0.23890515,0,0,0.23188362,392.26775,197.29485)" x1="218.50157" y1="521.53015" x2="676.30902" y2="660.41461" xlink:href="#linearGradientWhitePieces"/>
    <linearGradient id="linearGradient4966" gradientUnits="userSpaceOnUse" x1="455.08686" y1="116.35999" x2="543.14518" y2="116.35999" gradientTransform="matrix(0.99812851,0,0,0.99812851,0.74859638,200)" xlink:href="#linearGradientWhitePiecesBorder"/>
    <linearGradient id="linearGradient4961" gradientUnits="userSpaceOnUse" x1="464.89416" y1="144.86723" x2="517.89351" y2="144.86723" gradientTransform="matrix(0.99812851,0,0,0.99812851,0.74859638,200)" xlink:href="#linearGradientWhitePiecesBorder"/>
    <linearGradient id="linearGradient4958" gradientUnits="userSpaceOnUse" x1="464.58317" y1="129.88547" x2="507.47516" y2="129.88547" gradientTransform="matrix(0.99812851,0,0,0.99812851,0.74859638,200)" xlink:href="#linearGradientWhitePiecesBorder"/>
    <linearGradient id="linearGradient4955" gradientUnits="userSpaceOnUse" x1="464.70573" y1="114.99314" x2="503.29605" y2="114.99314" gradientTransform="matrix(0.99812851,0,0,0.99812851,0.74859638,200)" xlink:href="#linearGradientWhitePiecesBorder"/>
    <linearGradient id="linearGradient4952" gradientUnits="userSpaceOnUse" x1="464.70573" y1="100.54747" x2="491.76443" y2="100.54747" gradientTransform="matrix(0.99812851,0,0,0.99812851,0.74859638,200)" xlink:href="#linearGradientWhitePiecesBorder"/>
    <linearGradient id="linearGradient4949" gradientUnits="userSpaceOnUse" x1="474.82825" y1="107.62534" x2="478.65328" y2="107.62534" gradientTransform="matrix(0.99812851,0,0,0.99812851,0.74859638,200)" xlink:href="#linearGradientWhitePiecesBorder"/>
    <linearGradient id="linearGradient4946" gradientUnits="userSpaceOnUse" x1="487.57906" y1="122.17737" x2="491.40409" y2="122.17737" gradientTransform="matrix(0.99812851,0,0,0.99812851,0.74859638,200)" xlink:href="#linearGradientWhitePiecesBorder"/>
    <linearGradient id="linearGradient4943" gradientUnits="userSpaceOnUse" x1="474.82825" y1="136.89706" x2="478.65328" y2="136.89706" gradientTransform="matrix(0.99812851,0,0,0.99812851,0.74859638,200)" xlink:href="#linearGradientWhitePiecesBorder"/>
    <linearGradient id="linearGradient4940" gradientUnits="userSpaceOnUse" x1="501.57386" y1="136.66474" x2="505.39889" y2="136.66474" gradientTransform="matrix(0.99812851,0,0,0.99812851,0.74859638,200)" xlink:href="#linearGradientWhitePiecesBorder"/>
    <linearGradient id="linearGradient4937" gradientUnits="userSpaceOnUse" x1="487.57906" y1="152.40469" x2="491.40409" y2="152.40469" gradientTransform="matrix(0.99812851,0,0,0.99812851,0.74859638,200)" xlink:href="#linearGradientWhitePiecesBorder"/>
    <linearGradient id="linearGradient4934" gradientUnits="userSpaceOnUse" x1="464.99454" y1="87.334999" x2="483.7212" y2="87.334999" gradientTransform="matrix(0.99812851,0,0,0.99812851,0.74859638,200)" xlink:href="#linearGradientWhitePiecesBorder"/>
    <linearGradient id="linearGradient4929" gradientUnits="userSpaceOnUse" gradientTransform="matrix(0.23890515,0,0,0.23188362,392.26775,197.29485)" x1="153.41434" y1="229.06763" x2="712.03802" y2="369.52274" xlink:href="#linearGradientWhitePieces"/>
    <linearGradient id="linearGradient4931" gradientUnits="userSpaceOnUse" x1="428.33821" y1="50.506413" x2="573.18176" y2="50.506413" gradientTransform="matrix(0.99812851,0,0,0.99812851,0.74859638,200)" xlink:href="#linearGradientWhitePiecesBorder"/>
    <linearGradient id="linearGradient4926" gradientUnits="userSpaceOnUse" x1="441.38952" y1="59.207708" x2="558.65944" y2="59.207708" gradientTransform="matrix(0.99812851,0,0,0.99812851,0.74859638,200)" xlink:href="#linearGradientWhitePiecesBorder"/>
  </defs>
  <g id="WhiteRook">
    <rect style="fill:none;stroke:none" id="rect7623" width="200" height="200" x="400" y="200"/>
    <path style="fill:url(#linearGradient4977);fill-opacity:1;fill-rule:evenodd;stroke:url(#linearGradient4979);stroke-width:3.6571424;stroke-linecap:round;stroke-linejoin:round;stroke-miterlimit:4;stroke-opacity:1;stroke-dasharray:none" d="m 445.78352,273.90963 c 0,0 0.74294,-26.79598 4.03537,-35.70414 6.87967,-1.4852 20.42276,-2.18583 28.83567,-0.958 0.0941,5.44969 -1.24165,16.91193 -0.36368,22.15203 7.64469,-0.36219 23.13148,0.56614 32.98671,-0.54199 0.2195,-6.39292 -1.66181,-15.44471 0.2039,-22.57124 6.25561,-0.47007 20.39748,-0.96726 26.98233,1.86238 -0.87797,9.11777 0.12858,21.6526 0.12858,21.6526 l 17.26446,0.59742 -2.57076,13.71437 c -21.55516,8.07934 -94.01815,6.87976 -107.50258,-0.20343 z" id="path7625"/>
    <path style="fill:url(#linearGradient4972);fill-opacity:1;fill-rule:evenodd;stroke:url(#linearGradient4974);stroke-width:3.6571424;stroke-linecap:round;stroke-linejoin:round;stroke-miterlimit:4;stroke-opacity:1;stroke-dasharray:none" d="m 457.30676,360.56585 c -5.48294,5.47516 -16.9404,10.98428 -25.1102,12.71378 -1.18486,3.91126 -2.35068,8.4338 0.0549,13.29682 29.11926,0.2639 106.00895,-0.0742 133.83217,-0.17069 1.50133,-5.42439 2.63666,-9.34807 1.1353,-13.61155 -8.56656,-1.69588 -18.91267,-4.25676 -26.57123,-12.22767" id="path7627"/>
    <path id="path7629" d="m 445.26656,375.6852 c 34.16186,0.0166 71.23736,-1.26013 107.77421,0.13268" style="fill:none;stroke:url(#linearGradient4969);stroke-width:3.6571424;stroke-linecap:round;stroke-linejoin:round;stroke-miterlimit:4;stroke-opacity:1;stroke-dasharray:none"/>
    <path style="fill:url(#linearGradient4964);fill-opacity:1;fill-rule:evenodd;stroke:url(#linearGradient4966);stroke-width:3.6571424;stroke-linecap:butt;stroke-linejoin:round;stroke-miterlimit:4;stroke-opacity:1;stroke-dasharray:none" d="m 457.76994,271.05616 c -0.86145,10.25159 -1.10949,81.66567 -0.8726,90.17214 12.61195,-1.06648 71.22563,-1.13348 84.15137,-0.12963 -0.7319,-16.00677 -0.5294,-89.81764 -0.5294,-89.81764" id="path7631"/>
    <path style="fill:none;stroke:url(#linearGradient4961);stroke-width:3.6571424;stroke-linecap:round;stroke-linejoin:round;stroke-miterlimit:4;stroke-opacity:1;stroke-dasharray:none" d="m 466.60128,345.10477 c 9.11731,-0.67214 28.2216,-1.42914 49.24302,-0.75316" id="path7633"/>
    <path id="path7635" d="m 466.29087,330.31945 c 11.60061,-1.11679 22.82244,-1.48459 39.15458,-1.31463" style="fill:none;stroke:url(#linearGradient4958);stroke-width:3.6571424;stroke-linecap:round;stroke-linejoin:round;stroke-miterlimit:4;stroke-opacity:1;stroke-dasharray:none"/>
    <path id="path7637" d="m 466.41321,315.4173 c 16.51853,-1.14223 16.98386,-1.02096 34.86095,-1.27874" style="fill:none;stroke:url(#linearGradient4955);stroke-width:3.6571424;stroke-linecap:round;stroke-linejoin:round;stroke-miterlimit:4;stroke-opacity:1;stroke-dasharray:none"/>
    <path style="fill:none;stroke:url(#linearGradient4952);stroke-width:3.6571424;stroke-linecap:round;stroke-linejoin:round;stroke-miterlimit:4;stroke-opacity:1;stroke-dasharray:none" d="m 466.41321,300.8027 c 8.38523,-0.69331 13.31611,-1.05349 23.35091,-0.81157" id="path7639"/>
    <path id="path7641" d="m 476.51678,304.61814 c 0.20091,6.8416 -0.0402,-0.30543 0.16073,5.61156" style="fill:none;stroke:url(#linearGradient4949);stroke-width:3.6571424;stroke-linecap:round;stroke-linejoin:round;stroke-miterlimit:4;stroke-opacity:1;stroke-dasharray:none"/>
    <path style="fill:none;stroke:url(#linearGradient4946);stroke-width:3.6571424;stroke-linecap:round;stroke-linejoin:round;stroke-miterlimit:4;stroke-opacity:1;stroke-dasharray:none" d="m 489.24373,319.14294 c 0.20091,6.84159 -0.0402,-0.30544 0.16073,5.61157" id="path7643"/>
    <path id="path7645" d="m 476.51678,333.83509 c 0.20091,6.84158 -0.0402,-0.30544 0.16073,5.61154" style="fill:none;stroke:url(#linearGradient4943);stroke-width:3.6571424;stroke-linecap:round;stroke-linejoin:round;stroke-miterlimit:4;stroke-opacity:1;stroke-dasharray:none"/>
    <path style="fill:none;stroke:url(#linearGradient4940);stroke-width:3.6571424;stroke-linecap:round;stroke-linejoin:round;stroke-miterlimit:4;stroke-opacity:1;stroke-dasharray:none" d="m 503.21234,333.37132 c 0.2009,6.84159 -0.0402,0.15833 0.16073,6.07531" id="path7647"/>
    <path id="path7649" d="m 489.24373,349.08181 c 0.20091,6.84158 -0.0402,0.15832 0.16073,6.0753" style="fill:none;stroke:url(#linearGradient4937);stroke-width:3.6571424;stroke-linecap:round;stroke-linejoin:round;stroke-miterlimit:4;stroke-opacity:1;stroke-dasharray:none"/>
    <path id="path7651" d="m 466.70147,287.58954 c 6.36738,-0.6933 9.61192,-0.91586 15.03448,-0.81158" style="fill:none;stroke:url(#linearGradient4934);stroke-width:3.6571424;stroke-linecap:round;stroke-linejoin:round;stroke-miterlimit:4;stroke-opacity:1;stroke-dasharray:none"/>
    <path style="fill:url(#linearGradient4929);fill-opacity:1;fill-rule:evenodd;stroke:url(#linearGradient4931);stroke-width:3.6571424;stroke-linecap:round;stroke-linejoin:round;stroke-miterlimit:4;stroke-opacity:1;stroke-dasharray:none" d="m 430.11375,236.86359 c 1.17855,6.45094 2.0691,12.57112 3.2111,21.83783 7.33191,5.11213 11.43607,6.89751 12.22117,15.46423 22.0234,-3.96827 88.44983,-3.05346 108.42368,-0.0804 1.39189,-7.72173 3.6692,-9.04106 14.42942,-15.52219 1.35941,-10.13988 2.55301,-15.02859 2.62996,-21.09117 -3.22448,-0.78406 -26.3927,-7.72203 -29.25458,-6.72539 -1.01791,6.03259 0.42138,11.21536 -0.91776,16.88869 -8.67267,0.43472 -16.39895,0.10456 -25.37453,-2.23148 0.0446,-7.58355 0.0334,-11.74252 0.40606,-17.61188 -3.79049,-1.34998 -26.3333,-1.58996 -30.58647,-0.19785 -0.73305,7.30934 0.19362,11.29114 -0.39386,17.78997 -7.69911,2.1778 -15.00049,1.6129 -24.19151,2.12913 -0.7405,-7.72682 0.62683,-10.43816 0.45301,-15.86199 -3.79211,-1.03679 -27.47526,4.11143 -31.05569,5.21247 z" id="path7653"/>
    <path style="fill:none;stroke:url(#linearGradient4926);stroke-width:3.6571424;stroke-linecap:round;stroke-linejoin:round;stroke-miterlimit:4;stroke-opacity:1;stroke-dasharray:none" d="m 443.14063,259.94226 c 33.97809,-3.35901 84.23139,-3.56788 113.39331,0.81001" id="path7655"/>
  </g>
</svg>