<?xml version="1.0" encoding="utf-8"?>
<svg viewBox="0 200 200 200" xmlns="http://www.w3.org/2000/svg" xmlns:xlink="http://www.w3.org/1999/xlink">
  <defs>
    <linearGradient id="linearGradient15116" gradientUnits="userSpaceOnUse" gradientTransform="matrix(0.22857143,0,0,0.22857144,0,199.99999)" x1="297.55386" y1="427.04959" x2="368.56238" y2="521.21625" xlink:href="#linearGradientWhitePieces"/>
    <linearGradient id="linearGradientWhitePieces">
      <stop id="stop7929" offset="0" style="stop-color:#ede3de;stop-opacity:1;"/>
      <stop id="stop7931" offset="1" style="stop-color:#8a6737;stop-opacity:1;"/>
    </linearGradient>
    <linearGradient id="linearGradient15118" gradientUnits="userSpaceOnUse" x1="64.019555" y1="110.56303" x2="94.436889" y2="110.56303" gradientTransform="matrix(0.99812851,0,0,1.0000063,0,199.99999)" xlink:href="#linearGradientWhitePiecesBorder"/>
    <linearGradient id="linearGradientWhitePiecesBorder">
      <stop style="stop-color:#000000;stop-opacity:1;" offset="0" id="stop7935"/>
      <stop style="stop-color:#000000;stop-opacity:1;" offset="1" id="stop7937"/>
    </linearGradient>
    <linearGradient id="linearGradient15111" gradientUnits="userSpaceOnUse" gradientTransform="matrix(0.22857143,0,0,0.22857144,0,199.99999)" x1="495.29623" y1="448.54721" x2="595.97144" y2="528.54724" xlink:href="#linearGradientWhitePieces"/>
    <linearGradient id="linearGradient15113" gradientUnits="userSpaceOnUse" x1="106.05839" y1="111.66723" x2="136.47574" y2="111.66723" gradientTransform="matrix(0.99812851,0,0,1.0000063,0,199.99999)" xlink:href="#linearGradientWhitePiecesBorder"/>
    <linearGradient id="linearGradient15106" gradientUnits="userSpaceOnUse" gradientTransform="matrix(0.22857143,0,0,0.22857144,0,199.99999)" x1="313.69473" y1="101.18996" x2="536.18018" y2="251.91928" xlink:href="#linearGradientWhitePieces"/>
    <linearGradient id="linearGradient15108" gradientUnits="userSpaceOnUse" x1="68.517819" y1="40.057539" x2="130.49355" y2="40.057539" gradientTransform="matrix(0.99812851,0,0,1.0000063,0,199.99999)" xlink:href="#linearGradientWhitePiecesBorder"/>
    <linearGradient id="linearGradient15101" gradientUnits="userSpaceOnUse" gradientTransform="matrix(0.22857143,0,0,0.22857144,0,199.99999)" x1="368.47662" y1="273.33771" x2="494.5513" y2="319.27548" xlink:href="#linearGradientWhitePieces"/>
    <linearGradient id="linearGradient15103" gradientUnits="userSpaceOnUse" x1="84.38115" y1="72.976797" x2="113.25052" y2="72.976797" gradientTransform="matrix(0.99812851,0,0,1.0000063,0,199.99999)" xlink:href="#linearGradientWhitePiecesBorder"/>
    <linearGradient id="linearGradient15098" gradientUnits="userSpaceOnUse" gradientTransform="matrix(0.22857143,0,0,0.22857144,0,199.99999)" x1="129.96214" y1="428.65894" x2="812.36853" y2="836.31329" xlink:href="#linearGradientWhitePieces"/>
    <linearGradient id="linearGradient15093" gradientUnits="userSpaceOnUse" gradientTransform="matrix(0.22857143,0,0,0.22857144,0,199.99999)" x1="197.64774" y1="629.91022" x2="664.98859" y2="790.37555" xlink:href="#linearGradientWhitePieces"/>
    <linearGradient id="linearGradient15095" gradientUnits="userSpaceOnUse" x1="52.179426" y1="171.15182" x2="149.18172" y2="171.15182" gradientTransform="matrix(0.99812851,0,0,1.0000063,0,199.99999)" xlink:href="#linearGradientWhitePiecesBorder"/>
    <linearGradient id="linearGradient15088" gradientUnits="userSpaceOnUse" gradientTransform="matrix(0.22857143,0,0,0.22857144,0,199.99999)" x1="129.96214" y1="428.65894" x2="698.83136" y2="740.06268" xlink:href="#linearGradientWhitePieces"/>
    <linearGradient id="linearGradient15090" gradientUnits="userSpaceOnUse" x1="18.694719" y1="115.58561" x2="183.74068" y2="115.58561" gradientTransform="matrix(0.99812851,0,0,1.0000063,0,199.99999)" xlink:href="#linearGradientWhitePiecesBorder"/>
    <linearGradient id="linearGradient15083" gradientUnits="userSpaceOnUse" gradientTransform="matrix(0.22857143,0,0,0.22857144,0,199.99999)" x1="129.96214" y1="428.65894" x2="701.01483" y2="740.06274" xlink:href="#linearGradientWhitePieces"/>
    <linearGradient id="linearGradient15085" gradientUnits="userSpaceOnUse" x1="73.393466" y1="99.576291" x2="128.57319" y2="99.576291" gradientTransform="matrix(0.99812851,0,0,1.0000063,0,199.99999)" xlink:href="#linearGradientWhitePiecesBorder"/>
    <linearGradient id="linearGradient15078" gradientUnits="userSpaceOnUse" gradientTransform="matrix(0.22857143,0,0,0.22857144,0,199.99999)" x1="221.55104" y1="774.93707" x2="611.05023" y2="849.56549" xlink:href="#linearGradientWhitePieces"/>
    <linearGradient id="linearGradient15080" gradientUnits="userSpaceOnUse" x1="61.303072" y1="189.18989" x2="139.93051" y2="189.18989" gradientTransform="matrix(0.99812851,0,0,1.0000063,0,199.99999)" xlink:href="#linearGradientWhitePiecesBorder"/>
    <linearGradient id="linearGradient15368" gradientUnits="userSpaceOnUse" x1="797.5" y1="931.98047" x2="797.5" y2="947.82898" xlink:href="#linearGradientWhitePieces"/>
    <linearGradient id="linearGradient15370" gradientUnits="userSpaceOnUse" x1="771.72004" y1="915" x2="823.27996" y2="915" xlink:href="#linearGradientWhitePiecesBorder"/>
    <linearGradient id="linearGradient15364" gradientUnits="userSpaceOnUse" x1="804.05585" y1="930.06891" x2="809.85663" y2="955.65509" xlink:href="#linearGradientWhitePieces"/>
    <linearGradient id="linearGradient15366" gradientUnits="userSpaceOnUse" x1="770.95651" y1="915" x2="824.04349" y2="915" xlink:href="#linearGradientWhitePiecesBorder"/>
    <linearGradient id="linearGradient15360" gradientUnits="userSpaceOnUse" x1="822.14368" y1="909.1908" x2="844.99213" y2="932.17261" xlink:href="#linearGradientWhitePieces"/>
    <linearGradient id="linearGradient15362" gradientUnits="userSpaceOnUse" x1="770.83986" y1="915" x2="824.16014" y2="915" xlink:href="#linearGradientWhitePiecesBorder"/>
  </defs>
  <g id="WhiteKing">
    <rect style="fill:none;stroke:none" id="rect7561" width="200" height="200.00002" x="0" y="199.99998"/>
    <path style="fill:url(#linearGradient15116);fill-opacity:1;fill-rule:evenodd;stroke:url(#linearGradient15118);stroke-width:3.65714312;stroke-linecap:round;stroke-linejoin:round;stroke-miterlimit:4;stroke-opacity:1;stroke-dasharray:none" d="m 65.973661,339.99661 c 5.301121,-7.65948 -1.61168,-28.76318 0.0042,-38.41182 2.622423,-15.659 23.197554,-26.16923 25.943908,-17.09068 3.257851,10.76938 -9.968434,11.78595 -13.648343,20.7757 -3.380091,8.25732 -2.65696,22.05308 3.923681,30.35651" id="path7563"/>
    <path id="path7565" d="m 134.1464,341.10081 c -5.30112,-7.65947 1.61167,-28.76317 -0.004,-38.41181 -2.62245,-15.65898 -23.19758,-26.16923 -25.94393,-17.09068 -3.25785,10.76937 9.96844,11.78594 13.64834,20.77573 3.38009,8.2573 2.65699,22.05307 -3.92368,30.3565" style="fill:url(#linearGradient15111);fill-opacity:1;fill-rule:evenodd;stroke:url(#linearGradient15113);stroke-width:3.65714312;stroke-linecap:round;stroke-linejoin:round;stroke-miterlimit:4;stroke-opacity:1;stroke-dasharray:none"/>
    <path style="fill:url(#linearGradient15106);fill-opacity:1;fill-rule:evenodd;stroke:url(#linearGradient15108);stroke-width:3.65714312;stroke-linecap:round;stroke-linejoin:round;stroke-miterlimit:4;stroke-opacity:1;stroke-dasharray:none" d="m 91.706667,265.85491 c 1.201738,-3.42868 4.320983,-16.21144 3.180846,-19.97731 -5.10032,-0.40361 -15.756639,4.27477 -22.663337,2.77601 -1.945257,-3.51675 -3.159817,-11.08419 -0.365554,-15.23822 6.252639,-1.90264 20.052731,1.4328 23.867154,1.9439 1.352229,-3.85208 -3.312983,-15.45999 -2.409234,-19.6632 4.285829,-2.04876 14.929028,-1.84621 18.092208,0.23633 -0.1611,4.41455 -6.60458,15.1371 -6.76098,18.80316 4.29349,-0.22012 17.6671,-3.85717 22.23266,-2.9689 1.96944,3.81953 2.39676,10.64343 -0.78042,15.00476 -4.86738,1.62132 -17.75428,-2.04111 -23.1237,-0.97601 -2.26279,4.56387 1.25507,16.34812 2.12059,19.79552" id="path7567"/>
    <path style="fill:url(#linearGradient15101);fill-opacity:1;fill-rule:evenodd;stroke:url(#linearGradient15103);stroke-width:3.65714312;stroke-linecap:round;stroke-linejoin:round;stroke-miterlimit:4;stroke-opacity:1;stroke-dasharray:none" d="m 93.350804,284.99018 c -5.653759,-4.89561 -8.144891,-4.93627 -7.047474,-17.18998 0.937143,-10.46429 24.28729,-9.92434 24.83067,-0.45506 0.68136,11.87359 -3.26639,12.76278 -6.01133,18.51181" id="path7569"/>
    <path style="fill:url(#linearGradient15098);fill-opacity:1;fill-rule:evenodd;stroke:none" d="M 61.93411,389.78267 47.311207,344.92716 155.02166,344.45455 137.90395,391.15731 61.93411,389.78267 z" id="path7571"/>
    <path id="path7573" d="m 147.07567,363.91069 c -21.41174,-10.9747 -70.203183,-11.49032 -93.167044,0.42869 3.216853,10.16521 4.503609,21.47961 4.503609,21.47961 20.952382,-6.50601 63.513955,-6.76563 84.085385,0.94693 0,0 2.12105,-15.24106 4.57805,-22.85523 z" style="fill:url(#linearGradient15093);fill-opacity:1;fill-rule:evenodd;stroke:url(#linearGradient15095);stroke-width:3.65714312;stroke-linecap:round;stroke-linejoin:round;stroke-miterlimit:4;stroke-opacity:1;stroke-dasharray:none"/>
    <path style="fill:url(#linearGradient15088);fill-opacity:1;fill-rule:evenodd;stroke:url(#linearGradient15090);stroke-width:3.65714312;stroke-linecap:round;stroke-linejoin:round;stroke-miterlimit:4;stroke-opacity:1;stroke-dasharray:none" d="m 126.52143,331.20714 c -8.28366,-3.50017 -17.5324,-13.44604 -27.880719,-13.765 -9.959906,0.23071 -17.955641,8.81458 -23.633568,13.35071 -26.348092,-11.99244 -26.033255,-34.94662 -7.6,-39.15714 3.002269,-0.68578 11.938672,0.10596 17.842857,-0.16429 -1.880069,-5.19213 -3.929534,-8.874 -1.985714,-15.78571 -4.16645,-2.68158 -9.711511,-4.60443 -16.028572,-4.97857 -1.886107,-0.11171 -3.801403,-0.15936 -5.721428,-0.13572 -18.560243,0.22853 -37.817434,6.97963 -40.55,24.05715 -3.988286,24.9253 18.078258,39.61491 26.021429,65.97857 25.213151,-14.37905 83.351925,-13.46346 107.507145,-1.03571 6.41093,-20.37991 31.9659,-44.19671 26.25,-64.97144 -5.29335,-19.23889 -31.02682,-24.86887 -48.00715,-23.90714 -6.88197,0.38978 -13.48859,2.61767 -18.45,5.67857 0.96046,5.47912 -0.98626,9.95873 -2.59999,14.69286 7.85031,0.003 21.62321,-1.82213 27.02857,1.23571 11.93817,6.75349 12.84843,31.06209 -12.19286,38.90715 z" id="path7575"/>
    <path id="path7577" d="m 75.082965,330.86355 c 8.684594,-6.09787 12.799611,-18.20825 12.452319,-27.98509 -0.500777,-14.0974 -8.041005,-16.55466 -3.734857,-28.89466 2.919886,-8.36741 27.237323,-8.79747 29.983703,0.28109 3.25783,10.76936 -5.10677,17.47409 -3.8029,28.37613 1.521,12.71774 1.61532,21.14791 16.52448,28.93081" style="fill:url(#linearGradient15083);fill-opacity:1;fill-rule:evenodd;stroke:url(#linearGradient15085);stroke-width:3.65714312;stroke-linecap:round;stroke-linejoin:round;stroke-miterlimit:4;stroke-opacity:1;stroke-dasharray:none"/>
    <path style="fill:url(#linearGradient15078);fill-opacity:1;fill-rule:evenodd;stroke:url(#linearGradient15080);stroke-width:3.65714312;stroke-linecap:round;stroke-linejoin:round;stroke-miterlimit:4;stroke-opacity:1;stroke-dasharray:none" d="m 63.015198,390.32635 c 20.083219,2.39645 52.162572,2.78987 74.826582,0.53929 -15.67932,-6.39544 -58.641204,-6.32588 -74.826582,-0.53929 z" id="path7579"/>
    <path style="fill:url(#linearGradient15368);fill-opacity:1;fill-rule:evenodd;stroke:url(#linearGradient15370);stroke-width:16.55992508;stroke-linecap:round;stroke-linejoin:round;stroke-miterlimit:4;stroke-opacity:1;stroke-dasharray:none;stroke-dashoffset:0" id="path7581" d="m 815,915 a 17.5,16.666666 0 1 1 -35,0 17.5,16.666666 0 1 1 35,0 z" transform="matrix(0.22084302,0,0,0.22084299,-76.302058,166.39375)"/>
    <path d="m 815,915 a 17.5,16.666666 0 1 1 -35,0 17.5,16.666666 0 1 1 35,0 z" id="path7583" style="fill:url(#linearGradient15364);fill-opacity:1;fill-rule:evenodd;stroke:url(#linearGradient15366);stroke-width:18.08697128;stroke-linecap:round;stroke-linejoin:round;stroke-miterlimit:4;stroke-opacity:1;stroke-dasharray:none;stroke-dashoffset:0" transform="matrix(0.24288439,-0.0439872,0.02951635,0.16298103,-143.5593,257.03974)"/>
    <path transform="matrix(0.23748182,0.03854011,-0.02653303,0.16349303,-43.120388,190.75539)" style="fill:url(#linearGradient15360);fill-opacity:1;fill-rule:evenodd;stroke:url(#linearGradient15362);stroke-width:18.32027817;stroke-linecap:round;stroke-linejoin:round;stroke-miterlimit:4;stroke-opacity:1;stroke-dasharray:none;stroke-dashoffset:0" id="path7585" d="m 815,915 a 17.5,16.666666 0 1 1 -35,0 17.5,16.666666 0 1 1 35,0 z"/>
  </g>
</svg>