<?xml version="1.0" encoding="utf-8"?>
<svg viewBox="638.223 14.275 125.397 177.969" xmlns="http://www.w3.org/2000/svg" xmlns:xlink="http://www.w3.org/1999/xlink">
  <defs>
    <linearGradient id="linearGradient3468" gradientUnits="userSpaceOnUse" gradientTransform="matrix(1.3414767,0,0,1.5265609,-250.52328,-52.498659)" x1="683" y1="74" x2="739.5" y2="69" xlink:href="#linearGradientBlackPieces"/>
    <linearGradient id="linearGradientBlackPieces">
      <stop id="stop2268" offset="0" style="stop-color:#000e1c;stop-opacity:1;"/>
      <stop id="stop2270" offset="1" style="stop-color:#50506f;stop-opacity:1;"/>
    </linearGradient>
    <linearGradient id="linearGradient3470" gradientUnits="userSpaceOnUse" gradientTransform="matrix(1.3414767,0,0,1.5265609,-250.52328,-52.498659)" x1="683" y1="74" x2="739.5" y2="69" xlink:href="#linearGradientBlackPiecesBorder"/>
    <linearGradient id="linearGradientBlackPiecesBorder">
      <stop style="stop-color:#808080;stop-opacity:1;" offset="0" id="stop7192"/>
      <stop style="stop-color:#808080;stop-opacity:1;" offset="1" id="stop7194"/>
    </linearGradient>
    <linearGradient id="linearGradient3465" gradientUnits="userSpaceOnUse" gradientTransform="matrix(1.0703804,0,0,1.0703804,-478.18164,-2.0871841)" x1="1075.8267" y1="163.4315" x2="1122.5205" y2="163.4315" xlink:href="#linearGradientBlackPiecesBorder"/>
    <linearGradient id="linearGradient3462" gradientUnits="userSpaceOnUse" gradientTransform="matrix(1.0703804,0,0,1.0703804,-478.18164,-19.213271)" x1="1075.8267" y1="163.4315" x2="1122.5205" y2="163.4315" xlink:href="#linearGradientBlackPiecesBorder"/>
    <linearGradient id="linearGradient3459" gradientUnits="userSpaceOnUse" gradientTransform="matrix(1.0703804,0,0,1.0703804,-478.18164,-62.169236)" x1="1075.8267" y1="163.4315" x2="1122.5205" y2="163.4315" xlink:href="#linearGradientBlackPiecesBorder"/>
    <linearGradient id="linearGradient3456" gradientUnits="userSpaceOnUse" gradientTransform="matrix(1.0703804,0,0,1.0703804,-484.54564,-84.267504)" x1="1075.8267" y1="163.4315" x2="1122.5205" y2="163.4315" xlink:href="#linearGradientBlackPiecesBorder"/>
    <linearGradient id="linearGradient3453" gradientUnits="userSpaceOnUse" gradientTransform="matrix(1.3414767,0,0,1.5265609,-256.18016,-55.327104)" x1="683" y1="74" x2="739.5" y2="69" xlink:href="#linearGradientBlackPiecesBorder"/>
  </defs>
  <path id="path4041" d="m 699.91657,14.275362 c -7.37192,0 -13.35493,4.985847 -13.35493,11.129121 0,1.777106 0.50101,3.447826 1.39112,4.938548 -15.24897,4.282287 -26.25775,16.91218 -26.25777,35.161068 0.60456,16.636146 9.02233,32.053715 22.53648,41.629871 -13.48885,5.29181 -0.6609,11.20031 -0.66079,25.30566 -9.80706,17.69122 -13.18247,19.37042 -29.87474,31.78756 -1.30079,0.91951 -11.3221,1.98751 -12.24204,3.16483 -6.88667,8.81354 -3.18293,23.53411 9.73798,24.37974 9.07579,0.59399 89.32679,0.75636 98.7014,-0.27823 14.3847,-1.58751 16.61929,-16.62937 9.98143,-24.93618 -1.01667,-1.27228 -11.1333,-2.38539 -12.55503,-3.26918 -13.13062,-7.17075 -29.77021,-17.66836 -34.29161,-30.84854 -2e-5,-14.1032 15.05042,-20.01258 1.56503,-25.30566 13.94102,-9.613557 21.97261,-23.601759 23.54505,-41.629871 0.85943,-9.853453 -4.58528,-19.717846 -13.00715,-26.744669 l -13.7723,31.196318 c -1.40461,3.18646 -5.09082,4.639014 -8.27728,3.234401 -3.18646,-1.404611 -4.63902,-5.125605 -3.2344,-8.312063 l 14.46785,-32.796129 c -0.94179,-0.408673 -1.88369,-0.773352 -2.85183,-1.112913 1.14505,-1.641306 1.80848,-3.530518 1.80848,-5.564561 0,-6.143274 -5.98301,-11.129121 -13.35495,-11.129121 z" style="fill:url(#linearGradient3468);fill-opacity:1;stroke:url(#linearGradient3470);stroke-width:5.00003147;stroke-linecap:round;stroke-linejoin:round;stroke-miterlimit:4;stroke-dasharray:none" transform="matrix(1, 0, 0, 1, 0.176048, 0)"/>
  <path id="path4061" d="m 662.47857,172.8467 76.0289,0" style="opacity:0.5;fill:none;stroke:url(#linearGradient3465);stroke-width:5.00003147;stroke-linecap:round;stroke-linejoin:round;stroke-miterlimit:4;stroke-opacity:1;stroke-dasharray:none" transform="matrix(1, 0, 0, 1, 0.176048, 0)"/>
  <path style="opacity:0.5;fill:none;stroke:url(#linearGradient3462);stroke-width:5.00003147;stroke-linecap:round;stroke-linejoin:round;stroke-miterlimit:4;stroke-opacity:1;stroke-dasharray:none" d="m 683.88618,155.72061 31.07292,0" id="path4063" transform="matrix(1, 0, 0, 1, 0.176048, 0)"/>
  <path id="path4065" d="m 688.1677,112.76465 22.50989,0" style="opacity:0.5;fill:none;stroke:url(#linearGradient3459);stroke-width:5.00003147;stroke-linecap:round;stroke-linejoin:round;stroke-miterlimit:4;stroke-opacity:1;stroke-dasharray:none" transform="matrix(1, 0, 0, 1, 0.176048, 0)"/>
  <path id="path4213" d="m 674.69373,91.373485 c 8.59576,10.396035 50.64385,7.60574 61.47871,-27.577337" style="opacity:0.5;fill:none;stroke:url(#linearGradient3456);stroke-width:5.00003147;stroke-linecap:round;stroke-linejoin:round;stroke-miterlimit:4;stroke-opacity:1;stroke-dasharray:none" transform="matrix(1, 0, 0, 1, 0.176048, 0)"/>
  <path style="opacity:0.5;fill:none;stroke:url(#linearGradient3453);stroke-width:5.00003147;stroke-linecap:round;stroke-linejoin:round;stroke-miterlimit:4;stroke-dasharray:none" d="m 744.2364,188.66508 c 14.3847,-1.58751 16.61928,-10.62933 9.98143,-18.93614 -1.01668,-1.27228 -11.1333,-2.38539 -12.55504,-3.26918 -13.13061,-7.17075 -29.77021,-19.66838 -34.2916,-32.84855 -2e-5,-14.1032 15.05041,-24.01261 1.56503,-29.30568 13.94101,-9.613561 21.9726,-23.601764 23.54504,-41.629876 0.85944,-9.853453 -1.04972,-11.232512 -9.4716,-18.259335" id="path4225" transform="matrix(1, 0, 0, 1, 0.176048, 0)"/>
</svg>