<?xml version="1.0" encoding="utf-8"?>
<svg viewBox="800 200 200 200" xmlns="http://www.w3.org/2000/svg" xmlns:xlink="http://www.w3.org/1999/xlink">
  <defs>
    <linearGradient id="linearGradient3252" gradientUnits="userSpaceOnUse" gradientTransform="matrix(0.92208958,0,0,0.92208958,70.367286,195.70774)" x1="824.63312" y1="119.49339" x2="992.65851" y2="168.48677" xlink:href="#linearGradientWhitePieces"/>
    <linearGradient id="linearGradientWhitePieces">
      <stop id="stop7929" offset="0" style="stop-color:#ede3de;stop-opacity:1;"/>
      <stop id="stop7931" offset="1" style="stop-color:#8a6737;stop-opacity:1;"/>
    </linearGradient>
    <linearGradient id="linearGradient3254" gradientUnits="userSpaceOnUse" gradientTransform="matrix(0.92208958,0,0,0.92208958,70.367286,195.70774)" x1="824.63312" y1="119.49339" x2="992.65851" y2="168.48677" xlink:href="#linearGradientWhitePiecesBorder"/>
    <linearGradient id="linearGradientWhitePiecesBorder">
      <stop style="stop-color:#000000;stop-opacity:1;" offset="0" id="stop7935"/>
      <stop style="stop-color:#000000;stop-opacity:1;" offset="1" id="stop7937"/>
    </linearGradient>
    <linearGradient id="linearGradient3249" gradientUnits="userSpaceOnUse" gradientTransform="matrix(0.89304794,-0.22959621,0.22959621,0.89304794,79.478155,404.12957)" x1="859.85814" y1="69.920009" x2="880.83843" y2="69.920009" xlink:href="#linearGradientWhitePiecesBorder"/>
    <linearGradient id="linearGradient3246" gradientUnits="userSpaceOnUse" gradientTransform="matrix(0.89304794,-0.22959621,0.22959621,0.89304794,81.552855,402.74644)" x1="866.44156" y1="74.656575" x2="876.04205" y2="74.656575" xlink:href="#linearGradientWhitePiecesBorder"/>
    <linearGradient id="linearGradient3243" gradientUnits="userSpaceOnUse" gradientTransform="matrix(0.92208958,0,0,0.92208958,70.828332,200.77924)" x1="828.48736" y1="120.72367" x2="836.35859" y2="120.72367" xlink:href="#linearGradientWhitePiecesBorder"/>
    <linearGradient id="linearGradient3240" gradientUnits="userSpaceOnUse" gradientTransform="matrix(0.92208958,0,0,0.92208958,70.367286,193.86357)" x1="916.03479" y1="100.62866" x2="923.01733" y2="100.62866" xlink:href="#linearGradientWhitePiecesBorder"/>
    <linearGradient id="linearGradient3237" gradientUnits="userSpaceOnUse" gradientTransform="matrix(0.92208958,0,0,0.92208958,68.523871,205.17203)" x1="906.48578" y1="78.619972" x2="986.08551" y2="78.619972" xlink:href="#linearGradientWhitePiecesBorder"/>
    <linearGradient id="linearGradient3234" gradientUnits="userSpaceOnUse" gradientTransform="matrix(0.92208958,0,0,0.92208958,70.520128,191.19823)" x1="906.48578" y1="78.619972" x2="986.08551" y2="78.619972" xlink:href="#linearGradientWhitePiecesBorder"/>
    <linearGradient id="linearGradient3231" gradientUnits="userSpaceOnUse" gradientTransform="matrix(0.92208958,0,0,0.92208958,64.378515,195.70774)" x1="824.63312" y1="119.49339" x2="992.65851" y2="168.48677" xlink:href="#linearGradientWhitePiecesBorder"/>
  </defs>
  <g id="WhiteKnight">
    <rect y="200" x="800" height="200" width="200" id="rect6273" style="fill:none;stroke:none"/>
    <path id="path6275" d="m 892.41016,210.61325 -5.07149,17.98075 -12.90925,-14.75343 c 0,0 -0.45932,10.50527 -0.92209,19.30625 -19.79844,19.99579 -8.32851,24.3395 -37.56604,69.06613 -1.89937,2.90558 -5.46819,5.3376 -6.23322,9.21704 -3.44061,17.44714 19.11956,13.02985 23.12456,15.0235 15.44149,-12.45388 21.79646,-12.59053 29.89559,-21.47813 9.20253,3.40789 23.45613,-0.55956 32.0426,-9.68194 -5.58124,16.85148 -29.64352,28.81585 -36.8061,58.13578 8.3811,8.24857 0.0128,16.18775 -10.43757,15.62708 -11.22039,2.60832 -7.35691,23.74886 4.2574,23.69182 l 98.58555,-0.48422 c 13.77123,-0.0677 15.71398,-20.17938 6.58993,-23.64547 -8.65736,-0.0237 -12.72537,-9.06779 -5.58795,-15.08662 0.80395,-16.15731 0.64412,-31.32178 -2.78027,-46.65553 -0.35197,-1.57606 0.50923,-4.90062 2.33157,-5.23386 -1.37823,-5.14549 -6.64174,-9.82424 -8.88976,-15.07787 -1.08063,-2.52541 -3.91506,-3.7279 4.30193,-4.0647 -2.48602,-4.65344 -13.28824,-12.57518 -16.70248,-16.90627 -1.17198,-1.4867 5.51772,-2.86336 4.19055,-4.27263 -7.53952,-8.00584 -18.49187,-10.84663 -23.76085,-14.82201 -1.79722,-1.35597 5.02895,-3.15371 3.073,-4.44316 -7.20322,-4.74868 -22.20902,-10.55436 -31.76405,-14.26859 l -8.96156,-17.17392 z" style="fill:url(#linearGradient3252);fill-opacity:1;fill-rule:evenodd;stroke:url(#linearGradient3254);stroke-width:4.99064255;stroke-linecap:round;stroke-linejoin:round;stroke-miterlimit:4;stroke-opacity:1;stroke-dasharray:none"/>
    <path id="path6277" d="m 879.93611,262.45862 c -6.2277,0.43132 -10.99705,3.49838 -14.20078,8.89026" style="fill:none;stroke:url(#linearGradient3249);stroke-width:4.99064255;stroke-linecap:round;stroke-linejoin:round;stroke-miterlimit:4;stroke-opacity:1;stroke-dasharray:none"/>
    <path id="path6279" d="m 874.09278,270.02342 c 2.69511,1.627 5.43653,1.01894 4.93368,-2.79387" style="fill:none;stroke:url(#linearGradient3246);stroke-width:4.99064255;stroke-linecap:round;stroke-linejoin:round;stroke-miterlimit:4;stroke-opacity:1;stroke-dasharray:none"/>
    <path id="path6281" d="m 840.33662,310.22049 c -2.92555,-1.01045 -5.04209,3.70309 -3.17546,3.89538" style="fill:none;stroke:url(#linearGradient3243);stroke-width:4.99064255;stroke-linecap:round;stroke-linejoin:round;stroke-miterlimit:4;stroke-opacity:1;stroke-dasharray:none"/>
    <path id="path6283" d="m 917.45808,289.30101 c 2.03857,-2.76276 1.8305,-4.11705 2.3228,-5.74588" style="fill:none;stroke:url(#linearGradient3240);stroke-width:4.99064255;stroke-linecap:round;stroke-linejoin:round;stroke-miterlimit:4;stroke-opacity:1;stroke-dasharray:none"/>
    <path id="path6285" d="m 885.1841,367.41456 75.80877,-0.007" style="opacity:0.5;fill:none;stroke:url(#linearGradient3237);stroke-width:4.99064255;stroke-linecap:round;stroke-linejoin:round;stroke-miterlimit:4;stroke-opacity:1;stroke-dasharray:none"/>
    <path style="opacity:0.5;fill:none;stroke:url(#linearGradient3234);stroke-width:4.99064255;stroke-linecap:round;stroke-linejoin:round;stroke-miterlimit:4;stroke-opacity:1;stroke-dasharray:none" d="m 887.18036,353.44076 59.83871,-0.007" id="path6287"/>
    <path style="opacity:0.5;fill:none;stroke:url(#linearGradient3231);stroke-width:4.99064255;stroke-linecap:round;stroke-linejoin:round;stroke-miterlimit:4;stroke-opacity:1;stroke-dasharray:none" d="m 964.38133,392.26388 c 13.77123,-0.0677 15.71398,-16.18686 6.58993,-19.65296 -8.65736,-0.0237 -12.72537,-13.0603 -5.58795,-19.07913 0.80395,-16.15731 0.64412,-31.32178 -2.78027,-46.65553 -0.35197,-1.57606 0.50922,-4.90062 2.33157,-5.23386 -1.37823,-5.14549 -6.64174,-7.82798 -8.88976,-13.08161 -1.08063,-2.52542 -3.91506,-3.7279 4.30193,-4.0647 -2.48602,-4.65344 -13.28824,-12.57518 -16.70248,-16.90627 -1.17199,-1.4867 5.51772,-2.86337 4.19055,-4.27263 -7.53952,-8.00584 -18.49187,-10.84663 -23.76085,-14.82201 -1.79722,-1.35598 5.02895,-3.15372 3.073,-4.44317 -7.20322,-4.74867 -16.22025,-12.55061 -25.77528,-16.26484" id="path6289"/>
  </g>
</svg>