<?xml version="1.0" encoding="utf-8"?>
<svg viewBox="1000 200 200 200" xmlns="http://www.w3.org/2000/svg" xmlns:xlink="http://www.w3.org/1999/xlink">
  <defs>
    <linearGradient id="linearGradient3309" gradientUnits="userSpaceOnUse" gradientTransform="matrix(0.13841417,0,0,0.13870064,994.85389,225.91288)" x1="462.12891" y1="776.05182" x2="1135.1661" y2="839.35919" xlink:href="#linearGradientWhitePieces"/>
    <linearGradient id="linearGradientWhitePieces">
      <stop id="stop7929" offset="0" style="stop-color:#ede3de;stop-opacity:1;"/>
      <stop id="stop7931" offset="1" style="stop-color:#8a6737;stop-opacity:1;"/>
    </linearGradient>
    <linearGradient id="linearGradient3311" gradientUnits="userSpaceOnUse" gradientTransform="matrix(0.13841417,0,0,0.13870064,994.85389,225.91288)" x1="477.83588" y1="745.69482" x2="1070.0619" y2="749.1748" xlink:href="#linearGradientWhitePiecesBorder"/>
    <linearGradient id="linearGradientWhitePiecesBorder">
      <stop style="stop-color:#000000;stop-opacity:1;" offset="0" id="stop7935"/>
      <stop style="stop-color:#000000;stop-opacity:1;" offset="1" id="stop7937"/>
    </linearGradient>
    <linearGradient id="linearGradient3306" gradientUnits="userSpaceOnUse" gradientTransform="matrix(0.96536025,0,0,0.96536025,37.962697,216.01534)" x1="1075.8267" y1="163.4315" x2="1122.5205" y2="163.4315" xlink:href="#linearGradientWhitePiecesBorder"/>
    <linearGradient id="linearGradient3303" gradientUnits="userSpaceOnUse" gradientTransform="matrix(0.96536025,0,0,0.96536025,37.962697,183.12756)" x1="1075.8267" y1="163.4315" x2="1122.5205" y2="163.4315" xlink:href="#linearGradientWhitePiecesBorder"/>
    <linearGradient id="linearGradient3300" gradientUnits="userSpaceOnUse" gradientTransform="matrix(0.96536025,0,0,0.96536025,37.962697,148.44011)" x1="1075.8267" y1="163.4315" x2="1122.5205" y2="163.4315" xlink:href="#linearGradientWhitePiecesBorder"/>
    <linearGradient id="linearGradient3297" gradientUnits="userSpaceOnUse" gradientTransform="matrix(0.13841417,0,0,0.13870064,987.79605,226.61867)" x1="477.83588" y1="745.69482" x2="1070.0619" y2="749.1748" xlink:href="#linearGradientWhitePiecesBorder"/>
  </defs>
  <g id="WhitePawn">
    <rect y="200" x="1000" height="200" width="200" id="rect6227" style="fill:none;stroke:none"/>
    <path id="path6229" d="m 1100.04,249.16943 c -15.4625,0.17448 -27.8162,12.39288 -28.8402,26.60774 -0.5078,7.0502 9.7072,19.07636 15.6872,22.8368 -29.4485,6.63805 -0.5733,15.12671 -0.5732,27.36194 0,8.45448 -11.456,14.0871 -5.1837,19.51317 -3.4101,13.74236 -13.4071,18.71326 -25.5489,24.32366 -5.9737,7.64502 -2.769,20.41046 8.4388,21.14398 7.8725,0.51523 65.8993,0.65609 74.0311,-0.24134 12.4775,-1.37704 14.426,-14.42356 8.6682,-21.62905 -12.2307,-3.78939 -25.4272,-9.13976 -28.1013,-23.29558 6.4917,-5.44318 -6.7522,-11.1987 -6.7523,-19.81484 0,-12.23338 32.1681,-19.35757 1.3575,-27.36194 5.9799,-3.76044 15.5132,-15.77047 15.6871,-22.8368 0.3414,-13.87356 -14.0863,-26.77457 -28.8703,-26.60774 z" style="fill:url(#linearGradient3309);fill-opacity:1;fill-rule:evenodd;stroke:url(#linearGradient3311);stroke-width:4.99064255;stroke-linecap:round;stroke-linejoin:round;stroke-miterlimit:4;stroke-opacity:1;stroke-dasharray:none;stroke-dashoffset:0"/>
    <path id="path6231" d="m 1066.7072,373.78561 68.5694,0" style="opacity:0.5;fill:none;stroke:url(#linearGradient3306);stroke-width:4.99064255;stroke-linecap:round;stroke-linejoin:round;stroke-miterlimit:4;stroke-opacity:1;stroke-dasharray:none"/>
    <path style="opacity:0.5;fill:none;stroke:url(#linearGradient3303);stroke-width:4.99064255;stroke-linecap:round;stroke-linejoin:round;stroke-miterlimit:4;stroke-opacity:1;stroke-dasharray:none" d="m 1088.0107,340.89783 24.0317,0" id="path6233"/>
    <path id="path6235" d="m 1089.8759,306.2104 20.3013,0" style="opacity:0.5;fill:none;stroke:url(#linearGradient3300);stroke-width:4.99064255;stroke-linecap:round;stroke-linejoin:round;stroke-miterlimit:4;stroke-opacity:1;stroke-dasharray:none"/>
    <path style="opacity:0.5;fill:none;stroke:url(#linearGradient3297);stroke-width:4.99064255;stroke-linecap:round;stroke-linejoin:round;stroke-miterlimit:4;stroke-opacity:1;stroke-dasharray:none;stroke-dashoffset:0" d="m 1130.9932,391.42117 c 12.4775,-1.37704 14.426,-12.4273 8.6682,-19.63279 -12.2306,-3.7894 -25.4272,-11.13602 -28.1013,-25.29184 6.4918,-5.44319 -6.7522,-11.1987 -6.7523,-19.81485 0,-12.23337 32.1682,-19.35756 1.3575,-27.36193 5.9799,-3.76044 15.5133,-15.77047 15.6871,-22.83681 0.3414,-13.87355 -12.09,-24.77831 -26.874,-24.61148" id="path6237"/>
  </g>
</svg>